  <svg viewBox="0 0 1440 677" fill="none" xmlns="http://www.w3.org/2000/svg">
    <g>
      <path
        d="M1514.04 298.94C1510.44 412.77 1502.54 596.59 1505.83 710.53C1447.71 728.97 1386.14 723.01 1325.26 726.39C1259.93 730.02 1194.56 733.04 1129.18 735.54C1184.75 730.95 1240.26 725.01 1295.7 719.07C1354.83 712.73 1413.95 716.39 1473.08 710.05C1475.94 632.15 1475.72 484.13 1472.44 406.24C1471.13 375.06 1462.69 341.84 1462.23 311.78C1461.78 282.36 1492.68 259.05 1498.68 230.66C1381.05 237.06 1254.04 325.96 1169.76 404.2C1130.54 440.61 1094.68 481.47 1049.34 509.9C1021.78 527.17 991.399 539.4 960.869 550.62C912.959 568.21 863.199 584.52 813.909 583.49C847.599 566.73 877.549 542.09 902.729 514.55C947.699 465.37 979.929 406.21 1014.68 349.34C1070.13 258.6 1133.89 171.39 1215.92 103.71C1297.95 36.04 1400.04 -11.16 1506.37 -13C1504.08 -12.96 1514.97 269.41 1514.04 298.94Z"
        fill="#FF7057"
      />
      <path
        d="M66.679 461.76C58.579 472.72 50.429 484.6 43.169 496.97C32.079 452.35 38.169 403.98 34.979 357.47C32.269 317.96 18.149 274.59 -9.821 249.19C-9.681 243.6 -9.551 238 -9.401 232.41C-8.661 205.21 -2.201 177.85 -6.771 151.3C-11.401 124.39 -31.861 101.67 -25.931 72.79L-20.061 74.1C11.879 151.45 103.849 181.97 138.669 256.41C176.699 337.71 111.229 401.51 66.679 461.76Z"
        fill="#FF7057"
      />
      <path
        d="M549.119 534.75C518.599 546.93 491.399 566.75 463.719 584.8C388.209 634.05 273.449 645.7 185.579 624.94C181.579 624 177.599 622.93 173.639 621.76C216.609 596.1 256.139 564.4 301.459 543.14C378.329 507.09 469.979 504.03 549.119 534.75Z"
        fill="#FF7057"
      />
      <path
        opacity="0.5"
        d="M813.909 583.49C804.309 588.27 794.399 592.41 784.209 595.8C741.619 609.94 696.209 597.47 654.659 582.59C618.969 569.8 586.419 549.52 551.179 535.54C550.499 535.27 549.799 535.02 549.119 534.75C553.629 532.96 558.209 531.32 562.879 529.88C617.189 513.17 680.669 533.67 727.639 560.24C755.919 576.24 784.829 582.88 813.909 583.49Z"
        fill="#119DA4"
      />
      <path
        opacity="0.5"
        d="M173.639 621.76C167.479 625.44 161.259 628.99 154.939 632.36C125.639 648.03 88.819 669.6 60.319 652.51C32.749 635.97 20.509 613.16 18.039 588.51C18.039 588.5 18.039 588.5 18.039 588.49C15.069 558.89 26.199 526.63 41.809 499.35C42.029 498.95 42.259 498.55 42.489 498.15C42.709 497.75 42.939 497.36 43.169 496.97C44.979 504.27 47.239 511.48 50.089 518.55C70.859 570.1 120.069 605.98 173.639 621.76Z"
        fill="#119DA4"
      />
      <path
        d="M1472.44 406.24C1475.72 484.13 1475.94 632.15 1473.08 710.05C1413.95 716.39 1354.83 712.73 1295.7 719.07C1240.26 725.01 1184.75 730.95 1129.18 735.54C1046.81 738.69 964.409 741.01 881.989 742.69C785.919 739.19 690.099 729.06 594.109 722.73C405.879 710.32 217.029 712.56 28.399 714.81C15.209 714.96 1.93897 715.14 -11.211 716.18C-11.301 712.48 -11.371 708.23 -11.501 703.35C-13.121 641.98 -12.601 520.46 -12.401 459.07C-12.171 389.12 -11.541 319.13 -9.82103 249.19C18.149 274.59 32.269 317.96 34.979 357.47C38.169 403.98 32.079 452.35 43.169 496.97C42.939 497.36 42.709 497.75 42.489 498.15C42.259 498.55 42.029 498.95 41.809 499.35C26.199 526.63 15.069 558.89 18.039 588.49C18.039 588.5 18.039 588.5 18.039 588.51C20.509 613.16 32.749 635.97 60.319 652.51C88.819 669.6 125.639 648.03 154.939 632.36C161.259 628.99 167.479 625.44 173.639 621.76C177.599 622.93 181.579 624 185.579 624.94C273.449 645.7 388.209 634.05 463.719 584.8C491.399 566.75 518.599 546.93 549.119 534.75C549.799 535.02 550.499 535.27 551.179 535.54C586.419 549.52 618.969 569.8 654.659 582.59C696.209 597.47 741.619 609.94 784.209 595.8C794.399 592.41 804.309 588.27 813.909 583.49C863.199 584.52 912.959 568.21 960.869 550.62C991.399 539.4 1021.78 527.17 1049.34 509.9C1094.68 481.47 1130.54 440.61 1169.76 404.2C1254.04 325.96 1381.05 237.06 1498.68 230.66C1492.68 259.05 1461.78 282.36 1462.23 311.78C1462.69 341.84 1471.13 375.06 1472.44 406.24Z"
        fill="#295689"
      />
    </g>
  </svg>