<svg
    width="282"
    height="380"
    viewBox="0 0 282 380"
    fill="none"
    xmlns="http://www.w3.org/2000/svg"
  >
    <g>
      <path
        d="M235.767 161.632C235.767 161.632 223.784 333.837 213.027 354.034C202.279 374.232 120.941 377.248 106.208 376.623C91.475 375.991 24.9726 364.893 14.1011 339.64C3.22189 314.388 0.0174473 157.148 0.0174473 157.148C-1.52662 135.285 99.9979 132.222 117.284 132.646C183.186 134.263 241.082 143.454 235.767 161.632Z"
        fill="#F6BB35"
      />
      <path
        opacity="0.1"
        d="M145.827 196.463C160.4 196.122 175.121 196.013 189.802 196.088C189.45 249.537 186.768 302.961 181.764 356.222C193.703 353.082 203.721 345.434 208.394 335.889C211.15 330.258 212.088 324.148 213.001 318.115C220.27 270.086 227.551 221.928 228.026 173.488C208.507 184.41 183.603 186.018 159.956 187.285C136.959 188.518 113.962 189.75 90.9661 190.984C96.3108 195.347 108.472 194.162 115.383 194.689C125.52 195.464 135.625 196.701 145.827 196.463Z"
        fill="#454546"
      />
      <path
        opacity="0.3"
        d="M230.2 160.461C225.304 172.607 178.689 176.709 115.839 175.207C93.6278 174.676 71.2674 173.28 49.5022 170.336C41.1392 169.204 7.87348 167.961 12.0705 156.509C13.1919 153.448 16.409 151.231 19.7617 149.613C23.0088 148.046 26.5128 146.871 30.0032 145.701C32.1656 144.976 69.2067 140.344 84.1269 140.127C95.0672 139.968 106.017 140.017 116.958 140.278C179.809 141.779 235.095 148.314 230.2 160.461Z"
        fill="#454546"
      />
      <path
        d="M217.762 167.186C218.313 167.61 218.693 168.106 218.796 168.686C186.575 176.5 149.907 176.021 115.839 175.207C93.6278 174.676 71.2674 173.28 49.5012 170.336C42.4478 169.381 35.4379 169.114 28.5047 167.772C24.2873 166.956 11.5538 165.127 21.3387 162.291C40.8804 156.629 63.3455 156.076 84.7705 156.386C127.985 157.012 172.517 155.101 213.233 165.355C214.867 165.766 216.658 166.336 217.762 167.186Z"
        fill="#454546"
      />
      <path
        opacity="0.3"
        d="M44.4697 218.578C47.2622 218.975 49.4373 220.284 50.1206 224.144C52.7163 238.815 49.5352 255.298 50.646 270.342C52.6039 296.848 59.3385 323.152 70.6684 348.088C71.0522 348.933 48.2683 343.324 45.881 341.953C37.929 337.386 31.6238 330.593 28.9292 322.915C22.3904 304.286 22.4583 282.584 21.0053 263.353C20.1107 251.523 19.5562 239.683 19.343 227.844C19.2722 223.938 16.6639 216.065 22.7704 215.285C24.7865 215.028 30.703 217.775 33.2144 218.256C36.8395 218.951 41.1034 218.101 44.4697 218.578Z"
        fill="white"
      />
      <path
        opacity="0.3"
        d="M22.025 202.723C21.5452 199.25 21.7856 194.753 25.7829 193.579C28.9747 192.643 32.2742 194.618 34.8408 196.463C39.5932 199.877 44.5269 203.503 46.7107 208.358C42.0979 208.945 37.4191 209.198 32.7472 209.112C30.0797 209.063 27.2959 208.876 25.0036 207.74C22.7112 206.605 21.0984 204.251 21.9727 202.188"
        fill="white"
      />
      <path
        d="M74.3052 156.801C79.5354 156.5 84.755 156.372 89.9794 156.241L105.651 155.93C116.099 155.825 126.548 155.815 136.997 155.86C147.448 155.915 157.898 156.027 168.357 156.341C170.974 156.441 173.588 156.515 176.209 156.662C178.822 156.798 181.462 156.941 184.087 157.243C189.332 157.816 194.523 158.7 199.67 159.786C204.814 160.907 209.902 162.203 214.937 163.922C216.206 164.379 217.431 164.804 218.761 165.514C218.934 165.611 219.103 165.708 219.303 165.852C219.395 165.914 219.513 166.012 219.625 166.111L219.824 166.321C219.919 166.449 219.985 166.527 220.078 166.724C220.169 166.94 220.255 167.18 220.2 167.598C220.139 167.955 220.025 168.107 219.938 168.247C219.746 168.516 219.599 168.623 219.475 168.723C219.223 168.909 219.03 169.009 218.839 169.107C218.101 169.46 217.457 169.659 216.795 169.863C214.179 170.626 211.602 171.12 209.005 171.597C198.634 173.412 188.211 174.469 177.775 175.334C156.9 176.996 135.968 177.607 115.051 177.491C104.594 177.418 94.1357 177.276 83.6713 176.75C73.2128 176.226 62.762 175.344 52.3761 173.924C47.2011 173.196 42.0135 172.529 36.8347 171.538C31.6713 170.534 26.4963 169.219 21.6305 166.976C19.217 165.859 16.8161 164.551 14.7835 162.607C13.7774 161.644 12.8944 160.446 12.3302 159.123C12.054 158.453 11.8291 157.738 11.7438 156.969C11.6537 156.203 11.739 155.374 12.0201 154.62C12.5939 153.081 13.8161 152.052 14.9996 151.318C16.2083 150.574 17.481 150.068 18.7527 149.63C21.3068 148.77 23.8744 148.231 26.4032 147.607C36.5768 145.166 46.8919 143.127 57.3359 142.101C67.7373 141.029 78.1648 140.207 88.604 139.626C99.0441 139.056 109.5 138.717 119.956 138.737C130.412 138.762 140.874 139.052 151.302 139.955L151.226 140.825C140.827 140.076 130.386 139.935 119.959 140.061C109.531 140.205 99.1091 140.655 88.7038 141.335C78.2996 142.03 67.9118 142.964 57.5531 144.148C47.238 145.277 37.0615 147.404 26.9742 149.942C24.4385 150.595 21.8971 151.165 19.565 151.984C18.4047 152.396 17.2804 152.87 16.3431 153.467C15.4009 154.057 14.6846 154.779 14.4442 155.505C14.1728 156.214 14.3211 157.112 14.7389 158.084C15.179 159.067 15.8061 159.908 16.6397 160.696C18.2971 162.255 20.4984 163.463 22.781 164.48C27.3464 166.525 32.3304 167.748 37.3794 168.67C42.4323 169.587 47.6131 170.206 52.7823 170.885C63.078 172.196 73.4435 172.976 83.8293 173.4C94.2084 173.826 104.637 173.872 115.058 173.85C135.892 173.72 156.731 173.095 177.453 171.377C187.796 170.471 198.172 169.491 208.305 167.724C210.816 167.272 213.367 166.777 215.663 166.111C216.213 165.95 216.796 165.748 217.095 165.602C217.152 165.576 217.198 165.539 217.094 165.614C217.043 165.664 216.94 165.713 216.701 166.04C216.599 166.218 216.44 166.404 216.329 166.982C216.247 167.674 216.376 168.03 216.508 168.341C216.641 168.615 216.689 168.675 216.81 168.824C216.852 168.879 216.898 168.929 216.951 168.974C216.985 169.013 217.036 169.044 217.014 169.031C217.014 169.031 216.929 168.975 216.847 168.929C216.476 168.721 215.917 168.474 215.371 168.255C214.816 168.03 214.235 167.816 213.646 167.609C208.892 165.962 203.855 164.689 198.847 163.548C193.828 162.405 188.758 161.46 183.678 160.824C182.408 160.665 181.137 160.53 179.869 160.419L176.007 160.137C173.43 159.95 170.825 159.837 168.232 159.696C157.834 159.202 147.4 158.999 136.969 158.634C126.536 158.317 116.098 158.091 105.658 157.894C95.2203 157.631 84.7686 157.41 74.341 157.393L74.3052 156.801Z"
        fill="#14355A"
      />
      <path
        d="M236.382 169.106L235.63 193.752C235.356 201.967 234.958 210.177 234.572 218.39C233.78 234.813 232.784 251.233 231.393 267.632C230.713 275.833 229.856 284.019 228.869 292.192C227.951 300.262 227.636 308.528 226.64 316.738C225.648 324.937 224.24 333.222 221.002 341.041C219.368 344.923 217.218 348.687 214.244 351.843C213.499 352.627 212.706 353.369 211.869 354.062C211.03 354.762 210.123 355.371 209.258 355.945C207.509 357.114 205.702 358.184 203.856 359.166C200.17 361.146 196.359 362.845 192.489 364.358C188.618 365.873 184.692 367.22 180.728 368.426C172.801 370.842 164.75 372.782 156.645 374.399C148.537 376.013 140.38 377.331 132.17 378.326C123.934 379.308 115.631 379.635 107.358 379.394C103.22 379.29 99.0868 379.039 94.9683 378.66C90.8489 378.29 86.7401 377.811 82.6526 377.201C74.4913 375.997 66.3251 374.447 58.376 372.198C54.4068 371.108 50.423 370.071 46.4645 368.82C42.5088 367.599 38.6288 366.119 34.8447 364.424C31.0636 362.722 27.3968 360.747 23.9364 358.446C22.2208 357.276 20.5381 356.054 18.9349 354.737C17.3269 353.429 15.7906 352.035 14.2465 350.708L14.1118 350.593L14.0672 350.433C12.7722 345.743 11.8834 340.978 11.139 336.198C10.4033 331.416 9.83918 326.613 9.39816 321.799C8.95617 316.986 8.65375 312.16 8.49188 307.329C8.33679 302.498 8.31256 297.658 8.58008 292.821L9.45438 292.87C9.23047 297.669 9.29541 302.487 9.49121 307.294C9.69379 312.103 10.0369 316.907 10.5177 321.697C10.9984 326.485 11.6013 331.262 12.3729 336.006C13.1522 340.747 14.0788 345.47 15.3883 350.058L15.1305 349.66C16.7376 350.992 18.2681 352.332 19.8703 353.586C21.4657 354.844 23.1183 356.018 24.8097 357.135C28.2177 359.332 31.8283 361.213 35.5581 362.829C39.2918 364.438 43.1234 365.839 47.0383 366.988C48.9817 367.606 50.9648 368.086 52.9354 368.634L58.9149 370.18C62.8957 371.198 66.8562 372.167 70.8691 372.879C74.8935 373.638 78.9403 374.262 82.9938 374.811C87.0473 375.363 91.1154 375.785 95.1893 376.098C99.2622 376.421 103.343 376.616 107.423 376.666C115.58 376.798 123.738 376.368 131.8 375.323C139.902 374.253 147.987 372.856 155.987 371.173C163.987 369.487 171.916 367.482 179.673 365.028C187.409 362.55 195.032 359.652 202.028 355.804C203.776 354.843 205.482 353.828 207.114 352.728C207.955 352.166 208.71 351.655 209.404 351.069C210.107 350.482 210.777 349.85 211.413 349.177C213.95 346.467 215.88 343.107 217.371 339.52C220.352 332.298 221.679 324.287 222.687 316.275C223.171 312.252 223.524 308.194 223.852 304.109C224.187 300.022 224.471 295.906 224.982 291.724C225.972 283.593 226.842 275.445 227.719 267.294C228.575 259.14 229.301 250.969 229.977 242.792L231.934 218.242L233.777 193.663C234.456 185.47 235.033 177.27 235.794 169.078L236.382 169.106Z"
        fill="#14355A"
      />
      <path
        opacity="0.15"
        d="M90.8683 102.972C89.0664 95.9691 92.3706 88.7335 97.1017 82.589C101.833 76.4445 107.992 71.006 112.732 64.8653C127.952 45.1521 126.311 18.5197 108.734 0C115.082 6.68809 125.534 9.95815 132.429 16.8348C138.666 23.0558 144.085 30.3803 147.942 38.6526C154.067 51.7832 159.228 77.5916 148.226 88.7616C145.107 91.9272 141.499 94.9864 140.275 99.4645C138.556 105.757 142.149 112.146 143.405 118.571C144.825 125.836 143.129 133.619 139.467 139.852C135.805 146.086 130.302 150.839 124.234 154.047C127.892 147.209 128.088 138.268 124.735 131.242C117.677 116.447 95.2901 120.155 90.8683 102.972Z"
        fill="#8598AD"
      />
      <path
        d="M237.685 322.536C242.762 319.491 246.188 315.054 249.464 310.71C259.681 297.164 269.678 283.353 275.894 268.316C282.112 253.28 284.37 236.779 278.91 221.46C276.12 213.632 270.444 205.583 260.8 202.922C249.316 199.753 226.499 203.607 219.757 212.079C215.946 216.866 215.314 223.187 218.119 228.451C222.189 231.115 228.066 228.624 233.274 228.226C239.958 227.716 246.485 231.128 250.04 235.708C253.596 240.29 254.615 245.836 254.637 251.199C254.716 270.175 243.501 287.817 231.78 304.229C230.427 306.122 228.919 308.12 226.442 309.039C223.621 310.086 220.226 309.474 217.254 310.215C213.548 311.138 211.001 314.353 211.533 317.435C213.237 327.291 230.358 326.933 237.685 322.536Z"
        fill="#444444"
      />
      <path
        opacity="0.6"
        d="M110.768 167.62C118.751 167.945 126.755 168.257 134.74 167.791C138.418 167.577 153.625 166.851 157.593 166.329C158.132 166.258 158.725 166.15 159.059 165.723C159.505 165.152 159.235 164.256 158.667 163.806C158.1 163.355 157.339 163.243 156.615 163.189C153.519 162.962 150.326 163.507 147.352 162.62C146.958 162.502 146.487 162.225 146.565 161.822C146.638 161.448 147.115 161.341 147.496 161.313C159.879 160.424 174.414 158.626 186.071 163.724C186.856 164.068 187.65 164.452 188.233 165.079C188.815 165.707 189.148 166.635 188.852 167.438C188.55 168.259 175.794 168.517 174.292 168.67C169.918 169.115 165.664 169.379 161.316 169.593C144.862 170.404 98.3395 170.588 91.6088 170.727C79.8155 170.969 59.3191 168.784 54.2963 165.643C62.7697 164.235 73.2661 166.094 81.9761 166.449C91.5739 166.839 101.171 167.229 110.768 167.62Z"
        fill="white"
      />
      <path
        opacity="0.15"
        d="M167.202 81.2707C172.298 76.8749 178.621 74.4318 184.938 73.2073C190.494 72.1308 195.982 74.2557 201.303 71.9345C194.099 75.1852 184.104 78.7677 180.775 87.0207C178.712 92.1332 177.362 97.5959 176.787 103.157C175.942 111.328 176.749 119.736 174.868 127.694C171.511 141.9 157.631 154.512 144.043 153.901C152.491 144.567 157.508 129.806 156.62 116.661C156.248 111.148 153.238 105.294 154.175 99.8533C155.279 93.4457 162.271 85.7401 166.629 81.7795C166.818 81.6073 167.009 81.4371 167.202 81.2707Z"
        fill="#8598AD"
      />
      <path
        opacity="0.15"
        d="M94.0446 126.347C87.3817 121.116 82.3657 112.592 80.7286 103.724C78.8618 93.6101 89.2011 88.0004 89.8011 78.5172C90.7161 64.0597 73.4076 55.0503 62.4121 56.24C68.5874 55.5726 69.6788 67.6131 68.2801 71.4693C66.3968 76.6611 62.5594 80.6614 59.9898 85.4809C56.0914 92.7928 55.3286 102.049 57.966 110.019C61.9914 122.184 74.7287 129.382 85.0206 133.821C94.6737 137.984 107.32 146.799 107.945 159.482C110.391 142.785 105.469 135.318 94.0446 126.347Z"
        fill="#8598AD"
      />
    </g>
  </svg>