<svg width="161" height="92" viewBox="0 0 161 92" fill="none" xmlns="http://www.w3.org/2000/svg">
<rect width="161" height="92" fill="white"/>
<g clip-path="url(#clip0)">
<path d="M113.491 64.7076C113.442 64.7076 113.394 64.6954 113.357 64.6589C113.272 64.586 113.248 64.4522 113.321 64.367C113.637 63.9656 113.807 63.5034 113.807 63.0168C113.807 62.5303 113.637 62.0559 113.309 61.6545C113.236 61.5694 113.248 61.4356 113.345 61.3626C113.43 61.2896 113.564 61.3018 113.637 61.3991C114.014 61.8735 114.221 62.433 114.221 63.0168C114.221 63.5885 114.026 64.1481 113.649 64.6224C113.613 64.6833 113.552 64.7076 113.491 64.7076Z" fill="#29568A"/>
<path d="M115.412 65.6445C115.363 65.6445 115.327 65.6324 115.29 65.608C115.193 65.535 115.181 65.4134 115.254 65.3161C115.765 64.6349 116.032 63.8443 116.032 63.0293C116.032 62.2144 115.765 61.4237 115.254 60.7426C115.181 60.6453 115.205 60.5236 115.29 60.4506C115.388 60.3777 115.509 60.402 115.582 60.4993C116.142 61.2534 116.446 62.1292 116.446 63.0415C116.446 63.9416 116.142 64.8174 115.582 65.5837C115.534 65.608 115.473 65.6445 115.412 65.6445Z" fill="#29568A"/>
<path d="M117.042 66.4471C116.993 66.4471 116.957 66.435 116.92 66.4107C116.823 66.3377 116.811 66.216 116.872 66.1187C117.553 65.1943 117.905 64.1239 117.905 63.0292C117.905 61.9344 117.553 60.864 116.872 59.9396C116.799 59.8423 116.823 59.7206 116.92 59.6477C117.018 59.5747 117.139 59.599 117.212 59.6963C117.942 60.6937 118.331 61.8493 118.331 63.0292C118.331 64.209 117.942 65.3646 117.212 66.362C117.176 66.4107 117.115 66.4471 117.042 66.4471Z" fill="#29568A"/>
<path d="M118.795 67.2985C118.758 67.2985 118.71 67.2863 118.673 67.262C118.576 67.189 118.564 67.0674 118.624 66.9701C119.476 65.778 119.926 64.4157 119.926 63.029C119.926 61.6424 119.476 60.2679 118.624 59.088C118.551 58.9907 118.576 58.8691 118.673 58.7961C118.77 58.7231 118.892 58.7474 118.965 58.8447C119.865 60.0976 120.352 61.5451 120.352 63.029C120.352 64.513 119.877 65.9605 118.965 67.2133C118.929 67.262 118.868 67.2985 118.795 67.2985Z" fill="#29568A"/>
<path d="M112.688 50.318C112.944 49.4544 113.503 48.6759 114.258 48.1528C114.635 47.8852 115.06 47.6906 115.498 47.569C115.948 47.4474 116.411 47.3987 116.873 47.4352C117.335 47.4717 117.797 47.569 118.223 47.7393C118.661 47.9217 119.05 48.1772 119.403 48.4934C119.743 48.8097 120.047 49.1746 120.266 49.5882C120.485 50.0017 120.644 50.4396 120.716 50.9018C120.802 51.3641 120.789 51.8263 120.716 52.2885C120.644 52.7385 120.498 53.1886 120.279 53.59C119.841 54.3928 119.147 55.0618 118.308 55.4389C117.895 55.6213 117.444 55.743 116.994 55.7916C116.763 55.8038 116.544 55.816 116.313 55.8038C116.082 55.7916 115.863 55.7551 115.644 55.7065C114.756 55.4997 113.953 54.9888 113.394 54.2833C113.37 54.259 113.382 54.2225 113.406 54.2104C113.43 54.186 113.467 54.1982 113.479 54.2225C114.051 54.8915 114.841 55.3416 115.693 55.5119C115.9 55.5484 116.119 55.5727 116.338 55.5848C116.557 55.597 116.763 55.5727 116.982 55.5484C117.408 55.4875 117.822 55.3659 118.199 55.1713C118.965 54.8064 119.585 54.1617 119.938 53.4197C120.12 53.0426 120.23 52.6412 120.279 52.2277C120.315 51.8141 120.303 51.4005 120.218 51.0113C120.133 50.6099 119.987 50.2328 119.78 49.8923C119.573 49.5517 119.318 49.2232 119.026 48.9556C118.722 48.688 118.381 48.4691 118.016 48.2988C117.651 48.1285 117.25 48.0312 116.848 47.9826C116.447 47.9339 116.033 47.9582 115.632 48.0434C115.231 48.1285 114.829 48.2745 114.477 48.4813C114.112 48.688 113.783 48.9678 113.491 49.2841C113.199 49.6003 112.968 49.9652 112.774 50.3666C112.761 50.391 112.737 50.391 112.725 50.3788C112.688 50.3545 112.688 50.3301 112.688 50.318Z" fill="#29568A"/>
<path d="M116.399 52.0085C116.35 52.0085 116.301 51.9842 116.277 51.9599C116.241 51.9234 116.229 51.8747 116.229 51.8261C116.229 51.7896 116.265 50.8408 116.885 50.2205C117.506 49.6001 118.15 49.4055 118.491 49.7461C118.832 50.0867 118.637 50.7314 118.017 51.3517C117.396 51.972 116.447 52.0085 116.399 52.0085ZM118.053 49.9407C117.834 49.9407 117.506 50.0988 117.129 50.4759C116.764 50.8408 116.642 51.3517 116.593 51.6315C116.873 51.5828 117.396 51.4612 117.749 51.0963C118.26 50.5854 118.369 50.1475 118.223 49.9894C118.187 49.9529 118.126 49.9407 118.053 49.9407Z" fill="#29568A"/>
<path d="M115.206 51.5223C115.169 51.5223 115.121 51.5101 115.096 51.4858C115.072 51.4614 114.537 51.0114 114.707 50.3789C114.78 50.1113 114.926 49.9045 115.133 49.7829C115.291 49.6855 115.474 49.6612 115.644 49.7099C115.814 49.7585 115.96 49.868 116.057 50.0383C116.167 50.2451 116.191 50.5005 116.118 50.7559C115.948 51.3763 115.267 51.5101 115.242 51.5223C115.23 51.5223 115.218 51.5223 115.206 51.5223ZM115.474 50.0505C115.413 50.0505 115.364 50.0626 115.303 50.0991C115.182 50.1721 115.096 50.3059 115.048 50.4762C114.963 50.7924 115.145 51.0357 115.255 51.1574C115.401 51.1087 115.692 50.9749 115.778 50.6708C115.826 50.5005 115.814 50.3424 115.741 50.2207C115.692 50.1356 115.632 50.0869 115.547 50.0626C115.522 50.0505 115.498 50.0505 115.474 50.0505Z" fill="#29568A"/>
<path d="M117.602 53.5534C117.104 53.5534 116.763 53.152 116.751 53.1399C116.715 53.1034 116.702 53.0426 116.715 52.9939C116.715 52.9696 116.86 52.2884 117.481 52.1181C117.736 52.0452 117.992 52.0695 118.198 52.179C118.357 52.2763 118.478 52.4222 118.527 52.5925C118.576 52.7628 118.551 52.9453 118.454 53.1034C118.332 53.3102 118.126 53.4561 117.858 53.5291C117.761 53.5534 117.675 53.5534 117.602 53.5534ZM117.079 52.9818C117.189 53.0912 117.444 53.2737 117.761 53.1885C117.931 53.1399 118.065 53.0547 118.138 52.9331C118.186 52.8601 118.198 52.775 118.174 52.6898C118.15 52.6047 118.101 52.5439 118.016 52.4952C117.894 52.4222 117.736 52.4222 117.566 52.4587C117.262 52.5439 117.128 52.8358 117.079 52.9818Z" fill="#29568A"/>
<path d="M114.781 51.6194C114.623 51.6194 114.453 51.5708 114.319 51.4613C114.124 51.3153 114.015 51.0964 114.015 50.8531V50.6707H114.367V50.8531C114.367 50.9747 114.428 51.0964 114.526 51.1694C114.623 51.2423 114.757 51.2667 114.878 51.2423L115.316 51.1207L115.413 51.4613L114.976 51.5829C114.915 51.6073 114.842 51.6194 114.781 51.6194Z" fill="#29568A"/>
<path d="M116.811 53.2126L116.629 53.0301C116.386 52.7869 116.228 52.3733 116.203 52.0084C115.838 51.9841 115.425 51.8259 115.181 51.5827L114.999 51.4002L115.254 51.1448L115.437 51.3272C115.644 51.534 116.082 51.68 116.361 51.6435C116.41 51.6313 116.471 51.6556 116.507 51.6921C116.544 51.7286 116.568 51.7894 116.556 51.8381C116.519 52.13 116.665 52.5679 116.872 52.7625L117.055 52.945L116.811 53.2126Z" fill="#29568A"/>
<path d="M117.578 54.2347H117.372C117.14 54.2347 116.922 54.1252 116.776 53.9427C116.63 53.7603 116.581 53.5292 116.63 53.2981L116.751 52.8115L117.092 52.8967L116.97 53.3832C116.946 53.5049 116.97 53.6265 117.043 53.7238C117.116 53.8211 117.238 53.8819 117.359 53.8819H117.566V54.2347H117.578Z" fill="#29568A"/>
<path d="M75.4312 44.6497H57.7939V48.8218H75.4312V44.6497Z" fill="#DCDBD3"/>
<path d="M75.4308 53.967H14.9531V58.1392H75.4308V53.967Z" fill="#DCDBD3"/>
<path d="M75.4317 62.7615H44.6455V66.9336H75.4317V62.7615Z" fill="#DCDBD3"/>
<path d="M127.917 74.8281H34.0742V79.0003H127.917V74.8281Z" fill="#DCDBD3"/>
<path d="M118.175 27.2312H43.2715V31.4033H118.175V27.2312Z" fill="#DCDBD3"/>
<path d="M150.444 13H11V20.0549H150.444V13Z" fill="#DCDBD3"/>
</g>
<g clip-path="url(#clip1)">
<path d="M107.907 45H106.815H105.722H104.63H103.537H102.445H101.899C101.602 45 101.353 45.2494 101.353 45.5462V46.0924V47.1848V48.2772V49.3696V50.4621V51.5545V52.1244C101.353 52.4213 101.602 52.6706 101.899 52.6706H102.445H103.537H104.63H105.722H106.815H107.907H108.453C108.75 52.6706 108.999 52.4213 108.999 52.1244V51.5782V50.4739V49.3815V48.2891V47.1967V46.0924V45.5462C108.999 45.2494 108.75 45 108.453 45H107.907ZM107.907 47.1967V48.2891V49.3815V50.4739V51.0201C107.907 51.317 107.658 51.5663 107.361 51.5663H106.815H105.722H104.63H103.537H102.979C102.682 51.5663 102.433 51.317 102.433 51.0201V50.4739V49.3815V48.2891V47.1967V46.6386C102.433 46.3418 102.682 46.0924 102.979 46.0924H103.525H104.618H105.71H106.803H107.349C107.646 46.0924 107.895 46.3418 107.895 46.6386V47.1967H107.907Z" fill="#29568A"/>
<path d="M104.618 47.1968H104.072C103.775 47.1968 103.525 47.4461 103.525 47.743V48.2892V49.3816V49.9278C103.525 50.2247 103.775 50.474 104.072 50.474H104.618H105.71H106.256C106.553 50.474 106.803 50.2247 106.803 49.9278V49.3816V48.2892V47.743C106.803 47.4461 106.553 47.1968 106.256 47.1968H105.71H104.618Z" fill="#29568A"/>
<path d="M99.1448 49.3815H99.691C99.9878 49.3815 100.237 49.1322 100.237 48.8353V48.2891V47.1967V46.0924V45.5462C100.237 45.2494 99.9878 45 99.691 45H99.1448H98.5986C98.3017 45 98.0524 45.2494 98.0524 45.5462C98.0524 45.8431 98.3017 46.0924 98.5986 46.0924C98.8954 46.0924 99.1448 46.3418 99.1448 46.6386C99.1448 46.9355 98.8954 47.1848 98.5986 47.1848C98.3017 47.1848 98.0524 46.9355 98.0524 46.6386C98.0524 46.3418 97.803 46.0924 97.5062 46.0924C97.2093 46.0924 96.96 46.3418 96.96 46.6386V47.1848V48.2772V48.8234C96.96 49.1203 97.2093 49.3696 97.5062 49.3696H98.0524H99.1448V49.3815Z" fill="#29568A"/>
<path d="M90.3811 50.474H90.9273C91.2242 50.474 91.4735 50.2247 91.4735 49.9278V49.3816V48.2892V47.743C91.4735 47.4461 91.2242 47.1968 90.9273 47.1968H90.3811H89.2887H88.7425C88.4456 47.1968 88.1963 47.4461 88.1963 47.743V48.2892V49.3816V49.9278C88.1963 50.2247 88.4456 50.474 88.7425 50.474H89.2887H90.3811Z" fill="#29568A"/>
<path d="M96.4013 49.3815C96.1045 49.3815 95.8551 49.1321 95.8551 48.8353C95.8551 48.5384 95.6058 48.2891 95.3089 48.2891C95.0121 48.2891 94.7627 48.5384 94.7627 48.8353V49.3815V49.9277C94.7627 50.2245 95.0121 50.4739 95.3089 50.4739C95.6058 50.4739 95.8551 50.7232 95.8551 51.0201C95.8551 51.3169 96.1045 51.5663 96.4013 51.5663C96.6982 51.5663 96.9475 51.3169 96.9475 51.0201V50.4739V49.9277C96.9594 49.6308 96.71 49.3815 96.4013 49.3815Z" fill="#29568A"/>
<path d="M88.1967 52.6706H89.2891H90.3815H91.4739H92.5663H93.1244C93.4213 52.6706 93.6706 52.4213 93.6706 52.1244V51.5782V50.4739V49.3815V48.2891V47.1967V46.0924V45.5462C93.6706 45.2494 93.4213 45 93.1244 45H92.5782H91.4739H90.3815H89.2891H88.1967H87.0924H86.5462C86.2494 45 86 45.2494 86 45.5462V46.0924V47.1848V48.2772V49.3696V50.4621V51.5545V52.1244C86 52.4213 86.2494 52.6706 86.5462 52.6706H87.0924H88.1967ZM87.0924 50.4739V49.3815V48.2891V47.1967V46.6386C87.0924 46.3418 87.3418 46.0924 87.6386 46.0924H88.1848H89.2772H90.3696H91.4621H92.0083C92.3051 46.0924 92.5545 46.3418 92.5545 46.6386V47.1848V48.2772V49.3696V50.4621V51.0083C92.5545 51.3051 92.3051 51.5545 92.0083 51.5545H91.4739H90.3815H89.2891H88.1967H87.6386C87.3418 51.5545 87.0924 51.3051 87.0924 51.0083V50.4739Z" fill="#29568A"/>
<path d="M95.3089 52.6708C95.6176 52.6708 95.8551 52.4214 95.8551 52.1246C95.8551 51.8277 95.6058 51.5784 95.3089 51.5784C95.0121 51.5784 94.7627 51.8158 94.7627 52.1246C94.7627 52.4214 95.0121 52.6708 95.3089 52.6708Z" fill="#29568A"/>
<path d="M96.96 52.1246C96.96 52.4214 97.2093 52.6708 97.5062 52.6708C97.803 52.6708 98.0524 52.4214 98.0524 52.1246C98.0524 51.8277 97.803 51.5784 97.5062 51.5784C97.1974 51.5784 96.96 51.8158 96.96 52.1246Z" fill="#29568A"/>
<path d="M99.6914 53.7632C99.9882 53.7632 100.238 53.5139 100.238 53.217V52.6708V51.5784V51.0203C100.238 50.7235 99.9882 50.4741 99.6914 50.4741H99.1451H98.5989C98.3021 50.4741 98.0527 50.7235 98.0527 51.0203C98.0527 51.3172 98.3021 51.5665 98.5989 51.5665C98.8958 51.5665 99.1451 51.8159 99.1451 52.1127C99.1451 52.4096 98.8958 52.6589 98.5989 52.6589C98.3021 52.6589 98.0527 52.9083 98.0527 53.2051V53.7514V54.2976C98.0527 54.5944 98.3021 54.8438 98.5989 54.8438C98.8958 54.8438 99.1451 54.5944 99.1451 54.2976C99.1451 54.0126 99.3945 53.7632 99.6914 53.7632Z" fill="#29568A"/>
<path d="M88.1967 54.8554V54.3091C88.1967 54.0123 87.9473 53.7629 87.6505 53.7629H87.0924H86.5462C86.2494 53.7629 86 54.0123 86 54.3091C86 54.6179 86.2494 54.8554 86.5462 54.8554C86.8431 54.8554 87.0924 55.1047 87.0924 55.4016C87.0924 55.6984 87.3418 55.9478 87.6386 55.9478C87.9355 55.9478 88.1848 55.6984 88.1848 55.4016V54.8554H88.1967Z" fill="#29568A"/>
<path d="M90.928 54.8555C90.6312 54.8555 90.3818 55.1048 90.3818 55.4017C90.3818 55.6985 90.6312 55.9479 90.928 55.9479C91.2249 55.9479 91.4742 55.6985 91.4742 55.4017C91.4742 55.1048 91.2368 54.8555 90.928 54.8555Z" fill="#29568A"/>
<path d="M100.784 54.8555C100.487 54.8555 100.237 55.1048 100.237 55.4017C100.237 55.6985 100.487 55.9479 100.784 55.9479C101.08 55.9479 101.33 55.6985 101.33 55.4017C101.342 55.1048 101.092 54.8555 100.784 54.8555Z" fill="#29568A"/>
<path d="M93.1243 57.0521C93.4212 57.0521 93.6705 56.8028 93.6705 56.5059C93.6705 56.2091 93.4212 55.9597 93.1243 55.9597C92.8275 55.9597 92.5781 56.2091 92.5781 56.5059C92.5781 56.8028 92.8156 57.0521 93.1243 57.0521Z" fill="#29568A"/>
<path d="M102.433 56.5059C102.433 56.2091 102.184 55.9597 101.887 55.9597C101.59 55.9597 101.341 56.2091 101.341 56.5059C101.341 56.8028 101.59 57.0521 101.887 57.0521C102.184 57.0521 102.433 56.8028 102.433 56.5059Z" fill="#29568A"/>
<path d="M103.526 58.1445H104.618H105.711H106.257C106.554 58.1445 106.803 57.8951 106.803 57.5983C106.803 57.3014 107.053 57.052 107.349 57.052C107.646 57.052 107.896 56.8027 107.896 56.5058V55.9596V55.4016C107.896 55.1047 107.646 54.8554 107.349 54.8554H106.803H106.257C105.96 54.8554 105.711 54.606 105.711 54.3091C105.711 54.0123 105.461 53.7629 105.165 53.7629H104.618H104.072C103.775 53.7629 103.526 54.0123 103.526 54.3091C103.526 54.606 103.775 54.8554 104.072 54.8554C104.369 54.8554 104.618 55.1047 104.618 55.4016C104.618 55.6984 104.868 55.9478 105.165 55.9478C105.461 55.9478 105.711 56.1971 105.711 56.494C105.711 56.7908 105.461 57.0402 105.165 57.0402H104.618H103.526H102.98C102.683 57.0402 102.434 57.2895 102.434 57.5864C102.434 57.8832 102.683 58.1326 102.98 58.1326H103.526V58.1445Z" fill="#29568A"/>
<path d="M107.908 58.6907C107.908 58.3939 107.658 58.1445 107.362 58.1445C107.065 58.1445 106.815 58.3939 106.815 58.6907C106.815 58.9876 107.065 59.2369 107.362 59.2369C107.658 59.2369 107.908 58.9995 107.908 58.6907Z" fill="#29568A"/>
<path d="M106.815 59.783C106.815 59.4862 106.566 59.2368 106.269 59.2368H105.723H104.631H104.084C103.788 59.2368 103.538 59.4862 103.538 59.783C103.538 60.0799 103.788 60.3292 104.084 60.3292H104.631H105.177C105.474 60.3292 105.723 60.5786 105.723 60.8754C105.723 61.1723 105.474 61.4216 105.177 61.4216C104.88 61.4216 104.631 61.671 104.631 61.9679C104.631 62.2647 104.381 62.5141 104.084 62.5141C103.788 62.5141 103.538 62.7634 103.538 63.0603V63.6065V64.1527C103.538 64.4495 103.289 64.6989 102.992 64.6989C102.695 64.6989 102.446 64.4495 102.446 64.1527V63.6065V63.0603C102.446 62.7634 102.695 62.5141 102.992 62.5141C103.289 62.5141 103.538 62.2647 103.538 61.9679V61.4216V60.8754C103.538 60.5786 103.289 60.3292 102.992 60.3292C102.695 60.3292 102.446 60.0799 102.446 59.783C102.446 59.4862 102.196 59.2368 101.9 59.2368C101.603 59.2368 101.353 58.9875 101.353 58.6906V58.1444V57.5982C101.353 57.3014 101.104 57.052 100.807 57.052C100.51 57.052 100.261 57.3014 100.261 57.5982V58.1444V59.2368V59.783C100.261 60.0799 100.012 60.3292 99.7148 60.3292C99.4179 60.3292 99.1686 60.5786 99.1686 60.8754C99.1686 61.1723 99.4179 61.4216 99.7148 61.4216C100.012 61.4216 100.261 61.671 100.261 61.9679C100.261 62.2647 100.51 62.5141 100.807 62.5141C101.104 62.5141 101.353 62.7634 101.353 63.0603C101.353 63.3571 101.104 63.6065 100.807 63.6065C100.51 63.6065 100.261 63.8558 100.261 64.1527C100.261 64.4495 100.51 64.6989 100.807 64.6989C101.104 64.6989 101.353 64.9482 101.353 65.2451C101.353 65.5419 101.603 65.7913 101.9 65.7913H102.446H102.992C103.289 65.7913 103.538 66.0406 103.538 66.3375C103.538 66.6343 103.289 66.8837 102.992 66.8837H102.446H101.9C101.603 66.8837 101.353 66.6343 101.353 66.3375C101.353 66.0406 101.104 65.7913 100.807 65.7913C100.51 65.7913 100.261 65.5419 100.261 65.2451C100.261 64.9482 100.012 64.6989 99.7148 64.6989C99.4179 64.6989 99.1686 64.9482 99.1686 65.2451C99.1686 65.5419 98.9192 65.7913 98.6224 65.7913C98.3255 65.7913 98.0762 66.0406 98.0762 66.3375V66.8837V67.4299C98.0762 67.7268 98.3255 67.9761 98.6224 67.9761H99.1686H100.261H101.353H102.446H103.538H104.631H105.177C105.474 67.9761 105.723 67.7268 105.723 67.4299C105.723 67.1331 105.474 66.8837 105.177 66.8837C104.88 66.8837 104.631 66.6343 104.631 66.3375C104.631 66.0406 104.88 65.7913 105.177 65.7913C105.474 65.7913 105.723 66.0406 105.723 66.3375C105.723 66.6343 105.972 66.8837 106.269 66.8837C106.566 66.8837 106.815 66.6343 106.815 66.3375C106.815 66.0406 107.065 65.7913 107.362 65.7913H107.908H108.454C108.751 65.7913 109 65.5419 109 65.2451C109 64.9482 108.751 64.6989 108.454 64.6989H107.908H107.362C107.065 64.6989 106.815 64.4495 106.815 64.1527C106.815 63.8558 106.566 63.6065 106.269 63.6065C105.972 63.6065 105.723 63.8558 105.723 64.1527C105.723 64.4495 105.474 64.6989 105.177 64.6989C104.88 64.6989 104.631 64.4495 104.631 64.1527C104.631 63.8558 104.88 63.6065 105.177 63.6065C105.474 63.6065 105.723 63.3571 105.723 63.0603C105.723 62.7634 105.972 62.5141 106.269 62.5141C106.566 62.5141 106.815 62.7634 106.815 63.0603C106.815 63.3571 107.065 63.6065 107.362 63.6065H107.908H108.454C108.751 63.6065 109 63.3571 109 63.0603C109 62.7634 108.751 62.5141 108.454 62.5141C108.157 62.5141 107.908 62.2647 107.908 61.9679V61.4216V60.8754C107.908 60.5786 107.659 60.3292 107.362 60.3292C107.053 60.3411 106.815 60.0918 106.815 59.783Z" fill="#29568A"/>
<path d="M108.454 60.3412C108.751 60.3412 109.001 60.0918 109.001 59.795C109.001 59.4981 108.751 59.2488 108.454 59.2488C108.158 59.2488 107.908 59.4981 107.908 59.795C107.908 60.0918 108.158 60.3412 108.454 60.3412Z" fill="#29568A"/>
<path d="M91.4739 60.3411H90.3815H89.2891H88.1967H87.0924H86.5462C86.2494 60.3411 86 60.5785 86 60.8873V61.4335V62.5259V63.6183V64.7107V65.8031V66.8955V67.4417C86 67.7386 86.2494 67.9879 86.5462 67.9879H87.0924H88.1848H89.2772H90.3696H91.4621H92.5545H93.1244C93.4213 67.9879 93.6706 67.7386 93.6706 67.4417V66.8955V65.8031V64.7107V63.6183V62.5259V61.4335V60.8873C93.6706 60.5904 93.4213 60.3411 93.1244 60.3411H92.5782H91.4739ZM92.5782 62.5259V63.6183V64.7107V65.8031V66.3493C92.5782 66.6462 92.3289 66.8955 92.032 66.8955H91.4739H90.3815H89.2891H88.1967H87.6386C87.3418 66.8955 87.0924 66.6462 87.0924 66.3493V65.8031V64.7107V63.6183V62.5259V61.9797C87.0924 61.6828 87.3418 61.4335 87.6386 61.4335H88.1848H89.2772H90.3696H91.4621H92.0083C92.3051 61.4335 92.5545 61.6828 92.5545 61.9797V62.5259H92.5782Z" fill="#29568A"/>
<path d="M98.5989 62.5262C98.8958 62.5262 99.1451 62.2769 99.1451 61.98C99.1451 61.6832 98.8958 61.4338 98.5989 61.4338C98.3021 61.4338 98.0527 61.6832 98.0527 61.98C98.0527 62.2769 98.2902 62.5262 98.5989 62.5262Z" fill="#29568A"/>
<path d="M89.2887 62.5261H88.7425C88.4456 62.5261 88.1963 62.7755 88.1963 63.0723V63.6185V64.7109V65.2571C88.1963 65.554 88.4456 65.8034 88.7425 65.8034H89.2887H90.3811H90.9273C91.2242 65.8034 91.4735 65.554 91.4735 65.2571V64.7109V63.6185V63.0723C91.4735 62.7755 91.2242 62.5261 90.9273 62.5261H90.3811H89.2887Z" fill="#29568A"/>
<path d="M99.6907 63.6185C99.9876 63.6185 100.237 63.3692 100.237 63.0723C100.237 62.7755 99.9876 62.5261 99.6907 62.5261C99.3939 62.5261 99.1445 62.7755 99.1445 63.0723C99.1445 63.3811 99.3939 63.6185 99.6907 63.6185Z" fill="#29568A"/>
<path d="M98.0521 63.0721C98.0521 62.7753 97.8028 62.5259 97.5059 62.5259C97.2091 62.5259 96.9597 62.2766 96.9597 61.9797V61.4335V60.8873C96.9597 60.5904 97.2091 60.3411 97.5059 60.3411C97.8028 60.3411 98.0521 60.0917 98.0521 59.7949V59.2487V58.1563V57.6101C98.0521 57.3132 98.3015 57.0639 98.5983 57.0639H99.1446H99.6908C99.9876 57.0639 100.237 56.8145 100.237 56.5176C100.237 56.2208 99.9876 55.9714 99.6908 55.9714H99.1446H98.5983C98.3015 55.9714 98.0521 55.7221 98.0521 55.4252C98.0521 55.1284 97.8028 54.879 97.5059 54.879H96.9597H95.8554H95.3092C95.0124 54.879 94.763 54.6297 94.763 54.3328C94.763 54.036 94.5137 53.7866 94.2168 53.7866H93.6706H92.5782H92.0201C91.7233 53.7866 91.4739 54.036 91.4739 54.3328C91.4739 54.6297 91.7233 54.879 92.0201 54.879H92.5663H93.1244C93.4213 54.879 93.6706 55.1284 93.6706 55.4252C93.6706 55.7221 93.92 55.9714 94.2168 55.9714H94.763H95.8554H96.4017C96.6985 55.9714 96.9479 56.2208 96.9479 56.5176C96.9479 56.8145 96.6985 57.0639 96.4017 57.0639C96.1048 57.0639 95.8554 57.3132 95.8554 57.6101C95.8554 57.9069 95.6061 58.1563 95.3092 58.1563H94.763H93.6706H92.5782H92.0201C91.7233 58.1563 91.4739 57.9069 91.4739 57.6101C91.4739 57.3132 91.2246 57.0639 90.9277 57.0639C90.6309 57.0639 90.3815 56.8145 90.3815 56.5176C90.3815 56.2208 90.1322 55.9714 89.8353 55.9714H89.2891H88.7429C88.4461 55.9714 88.1967 56.2208 88.1967 56.5176C88.1967 56.8145 87.9473 57.0639 87.6505 57.0639C87.3536 57.0639 87.1043 56.8145 87.1043 56.5176C87.1043 56.2208 86.8549 55.9714 86.5581 55.9714C86.2494 55.9596 86 56.197 86 56.5058V57.052V57.5982C86 57.895 86.2494 58.1444 86.5462 58.1444C86.8431 58.1444 87.0924 58.3937 87.0924 58.6906C87.0924 58.9874 87.3418 59.2368 87.6386 59.2368C87.9355 59.2368 88.1848 58.9874 88.1848 58.6906C88.1848 58.3937 88.4342 58.1444 88.731 58.1444C89.0279 58.1444 89.2772 58.3937 89.2772 58.6906C89.2772 58.9874 89.5266 59.2368 89.8234 59.2368H90.3696H91.4621H92.5545H93.6469H94.1931C94.4899 59.2368 94.7393 59.4862 94.7393 59.783V60.3292V61.4216V61.9678C94.7393 62.2647 94.9886 62.514 95.2855 62.514C95.5823 62.514 95.8317 62.7634 95.8317 63.0602C95.8317 63.3571 96.0811 63.6064 96.3779 63.6064C96.6748 63.6064 96.9241 63.8558 96.9241 64.1526C96.9241 64.4495 97.1735 64.6989 97.4703 64.6989H98.0165H98.5627C98.8596 64.6989 99.1089 64.4495 99.1089 64.1526C99.1089 63.8558 98.8596 63.6064 98.5627 63.6064C98.2896 63.6183 98.0521 63.3808 98.0521 63.0721Z" fill="#29568A"/>
<path d="M96.4017 65.8153C96.6985 65.8153 96.9479 65.566 96.9479 65.2691C96.9479 64.9723 96.6985 64.7229 96.4017 64.7229C96.1048 64.7229 95.8555 64.9723 95.8555 65.2691C95.8555 65.566 96.1048 65.8153 96.4017 65.8153Z" fill="#29568A"/>
<path d="M94.7627 66.9076V67.4538C94.7627 67.7507 95.0121 68 95.3089 68H95.8551H96.4013C96.6982 68 96.9475 67.7507 96.9475 67.4538C96.9475 67.157 96.6982 66.9076 96.4013 66.9076C96.1045 66.9076 95.8551 66.6582 95.8551 66.3614C95.8551 66.0645 95.6058 65.8152 95.3089 65.8152C95.0121 65.8152 94.7627 66.0645 94.7627 66.3614V66.9076Z" fill="#29568A"/>
<path d="M107.908 67.4537C107.908 67.1568 107.658 66.9075 107.362 66.9075C107.065 66.9075 106.815 67.1568 106.815 67.4537C106.815 67.7505 107.065 67.9999 107.362 67.9999C107.658 67.9999 107.908 67.7624 107.908 67.4537Z" fill="#29568A"/>
</g>
<defs>
<clipPath id="clip0">
<rect width="139.444" height="66" fill="white" transform="translate(11 13)"/>
</clipPath>
<clipPath id="clip1">
<rect width="23" height="23" fill="white" transform="translate(86 45)"/>
</clipPath>
</defs>
</svg>
