<svg width="161" height="92" fill="none" xmlns="http://www.w3.org/2000/svg">
  <path fill="#fff" d="M0 0h161v92H0z"/>
  <g clip-path="url(#clip0)">
    <path d="M113.491 64.7076c-.049 0-.097-.0122-.134-.0487-.085-.0729-.109-.2067-.036-.2919.316-.4014.486-.8636.486-1.3502 0-.4865-.17-.9609-.498-1.3623-.073-.0851-.061-.2189.036-.2919.085-.073.219-.0608.292.0365.377.4744.584 1.0339.584 1.6177 0 .5717-.195 1.1313-.572 1.6056-.036.0609-.097.0852-.158.0852zM115.412 65.6445a.2065.2065 0 01-.122-.0365c-.097-.073-.109-.1946-.036-.2919.511-.6812.778-1.4718.778-2.2868 0-.8149-.267-1.6056-.778-2.2867-.073-.0973-.049-.219.036-.292.098-.0729.219-.0486.292.0487.56.7541.864 1.6299.864 2.5422 0 .9001-.304 1.7759-.864 2.5422-.048.0243-.109.0608-.17.0608zM117.042 66.4471a.2071.2071 0 01-.122-.0364c-.097-.073-.109-.1947-.048-.292.681-.9244 1.033-1.9948 1.033-3.0895 0-1.0948-.352-2.1652-1.033-3.0896-.073-.0973-.049-.219.048-.2919.098-.073.219-.0487.292.0486.73.9974 1.119 2.153 1.119 3.3329 0 1.1798-.389 2.3354-1.119 3.3328a.2113.2113 0 01-.17.0851zM118.795 67.2985a.2362.2362 0 01-.122-.0365c-.097-.073-.109-.1946-.049-.2919.852-1.1921 1.302-2.5544 1.302-3.9411 0-1.3866-.45-2.7611-1.302-3.941-.073-.0973-.048-.2189.049-.2919.097-.073.219-.0487.292.0486.9 1.2529 1.387 2.7004 1.387 4.1843 0 1.484-.475 2.9315-1.387 4.1843a.2114.2114 0 01-.17.0852zM112.688 50.318c.256-.8636.815-1.6421 1.57-2.1652.377-.2676.802-.4622 1.24-.5838.45-.1216.913-.1703 1.375-.1338.462.0365.924.1338 1.35.3041.438.1824.827.4379 1.18.7541.34.3163.644.6812.863 1.0948.219.4135.378.8514.45 1.3136.086.4623.073.9245 0 1.3867-.072.45-.218.9001-.437 1.3015-.438.8028-1.132 1.4718-1.971 1.8489a4.4707 4.4707 0 01-1.314.3527c-.231.0122-.45.0244-.681.0122-.231-.0122-.45-.0487-.669-.0973-.888-.2068-1.691-.7177-2.25-1.4232-.024-.0243-.012-.0608.012-.0729.024-.0244.061-.0122.073.0121.572.669 1.362 1.1191 2.214 1.2894.207.0365.426.0608.645.0729.219.0122.425-.0121.644-.0364.426-.0609.84-.1825 1.217-.3771.766-.3649 1.386-1.0096 1.739-1.7516.182-.3771.292-.7785.341-1.192.036-.4136.024-.8272-.061-1.2164-.085-.4014-.231-.7785-.438-1.119-.207-.3406-.462-.6691-.754-.9367-.304-.2676-.645-.4865-1.01-.6568-.365-.1703-.766-.2676-1.168-.3162-.401-.0487-.815-.0244-1.216.0608-.401.0851-.803.2311-1.155.4379-.365.2067-.694.4865-.986.8028-.292.3162-.523.6811-.717 1.0825-.013.0244-.037.0244-.049.0122-.037-.0243-.037-.0487-.037-.0608z" fill="#29568A"/>
    <path d="M116.399 52.0085c-.049 0-.098-.0243-.122-.0486-.036-.0365-.048-.0852-.048-.1338 0-.0365.036-.9853.656-1.6056.621-.6204 1.265-.815 1.606-.4744.341.3406.146.9853-.474 1.6056-.621.6203-1.57.6568-1.618.6568zm1.654-2.0678c-.219 0-.547.1581-.924.5352-.365.3649-.487.8758-.536 1.1556.28-.0487.803-.1703 1.156-.5352.511-.5109.62-.9488.474-1.1069-.036-.0365-.097-.0487-.17-.0487zM115.206 51.5223c-.037 0-.085-.0122-.11-.0365-.024-.0244-.559-.4744-.389-1.1069.073-.2676.219-.4744.426-.596.158-.0974.341-.1217.511-.073.17.0486.316.1581.413.3284.11.2068.134.4622.061.7176-.17.6204-.851.7542-.876.7664h-.036zm.268-1.4718c-.061 0-.11.0121-.171.0486-.121.073-.207.2068-.255.3771-.085.3162.097.5595.207.6812.146-.0487.437-.1825.523-.4866.048-.1703.036-.3284-.037-.4501-.049-.0851-.109-.1338-.194-.1581-.025-.0121-.049-.0121-.073-.0121zM117.602 53.5534c-.498 0-.839-.4014-.851-.4135-.036-.0365-.049-.0973-.036-.146 0-.0243.145-.7055.766-.8758.255-.0729.511-.0486.717.0609.159.0973.28.2432.329.4135.049.1703.024.3528-.073.5109-.122.2068-.328.3527-.596.4257-.097.0243-.183.0243-.256.0243zm-.523-.5716c.11.1094.365.2919.682.2067.17-.0486.304-.1338.377-.2554.048-.073.06-.1581.036-.2433-.024-.0851-.073-.1459-.158-.1946-.122-.073-.28-.073-.45-.0365-.304.0852-.438.3771-.487.5231z" fill="#29568A"/>
    <path d="M114.781 51.6194c-.158 0-.328-.0486-.462-.1581-.195-.146-.304-.3649-.304-.6082v-.1824h.352v.1824c0 .1216.061.2433.159.3163.097.0729.231.0973.352.0729l.438-.1216.097.3406-.437.1216a.5513.5513 0 01-.195.0365z" fill="#29568A"/>
    <path d="M116.811 53.2126l-.182-.1825c-.243-.2432-.401-.6568-.426-1.0217-.365-.0243-.778-.1825-1.022-.4257l-.182-.1825.255-.2554.183.1824c.207.2068.645.3528.924.3163.049-.0122.11.0121.146.0486.037.0365.061.0973.049.146-.037.2919.109.7298.316.9244l.183.1825-.244.2676z" fill="#29568A"/>
    <path d="M117.578 54.2347h-.206c-.232 0-.45-.1095-.596-.292-.146-.1824-.195-.4135-.146-.6446l.121-.4866.341.0852-.122.4865c-.024.1217 0 .2433.073.3406a.404.404 0 00.316.1581h.207v.3528h.012z" fill="#29568A"/>
    <path d="M75.4312 44.6497H57.7939v4.1721h17.6373v-4.1721zM75.4308 53.967H14.9531v4.1722h60.4777V53.967zM75.4317 62.7615H44.6455v4.1721h30.7862v-4.1721zM127.917 74.8281H34.0742v4.1722h93.8428v-4.1722zM118.175 27.2312H43.2715v4.1721h74.9035v-4.1721zM150.444 13H11v7.0549h139.444V13z" fill="#DCDBD3"/>
  </g>
  <g clip-path="url(#clip1)" fill="#29568A">
    <path d="M107.907 45h-6.008c-.297 0-.546.2494-.546.5462v6.5782c0 .2969.249.5462.546.5462H108.453c.297 0 .546-.2493.546-.5462v-6.5782c0-.2968-.249-.5462-.546-.5462h-.546zm0 2.1967V51.0201c0 .2969-.249.5462-.546.5462h-4.382c-.297 0-.546-.2493-.546-.5462v-4.3815c0-.2968.249-.5462.546-.5462h4.37c.297 0 .546.2494.546.5462v.5581h.012z"/>
    <path d="M104.618 47.1968h-.546c-.297 0-.547.2493-.547.5462v2.1848c0 .2969.25.5462.547.5462h2.184c.297 0 .547-.2493.547-.5462V47.743c0-.2969-.25-.5462-.547-.5462H104.618zM99.1448 49.3815h.5462c.2968 0 .546-.2493.546-.5462V45.5462c0-.2968-.2492-.5462-.546-.5462h-1.0924c-.2969 0-.5462.2494-.5462.5462 0 .2969.2493.5462.5462.5462.2968 0 .5462.2494.5462.5462 0 .2969-.2494.5462-.5462.5462-.2969 0-.5462-.2493-.5462-.5462 0-.2968-.2494-.5462-.5462-.5462-.2969 0-.5462.2494-.5462.5462v2.1848c0 .2969.2493.5462.5462.5462h1.6386v.0119zM90.3811 50.474h.5462c.2969 0 .5462-.2493.5462-.5462V47.743c0-.2969-.2493-.5462-.5462-.5462h-2.1848c-.2969 0-.5462.2493-.5462.5462v2.1848c0 .2969.2493.5462.5462.5462h1.6386zM96.4013 49.3815c-.2968 0-.5462-.2494-.5462-.5462 0-.2969-.2493-.5462-.5462-.5462-.2968 0-.5462.2493-.5462.5462v1.0924c0 .2968.2494.5462.5462.5462.2969 0 .5462.2493.5462.5462 0 .2968.2494.5462.5462.5462.2969 0 .5462-.2494.5462-.5462v-1.0924c.0119-.2969-.2375-.5462-.5462-.5462z"/>
    <path d="M88.1967 52.6706h4.9277c.2969 0 .5462-.2493.5462-.5462v-6.5782c0-.2968-.2493-.5462-.5462-.5462h-6.5782c-.2968 0-.5462.2494-.5462.5462v6.5782c0 .2969.2494.5462.5462.5462h1.6505zm-1.1043-2.1967v-3.8353c0-.2968.2494-.5462.5462-.5462h4.3697c.2968 0 .5462.2494.5462.5462v4.3697c0 .2968-.2494.5462-.5462.5462h-4.3697c-.2968 0-.5462-.2494-.5462-.5462v-.5344zM95.3089 52.6708a.5448.5448 0 00.5462-.5462c0-.2969-.2493-.5462-.5462-.5462a.5447.5447 0 00-.5462.5462c0 .2968.2494.5462.5462.5462zM96.96 52.1246c0 .2968.2493.5462.5462.5462.2968 0 .5462-.2494.5462-.5462 0-.2969-.2494-.5462-.5462-.5462-.3088 0-.5462.2374-.5462.5462zM99.6914 53.7632c.2968 0 .5466-.2493.5466-.5462v-2.1967c0-.2968-.2498-.5462-.5466-.5462h-1.0925c-.2968 0-.5462.2494-.5462.5462 0 .2969.2494.5462.5462.5462.2969 0 .5462.2494.5462.5462 0 .2969-.2493.5462-.5462.5462-.2968 0-.5462.2494-.5462.5462v1.0925c0 .2968.2494.5462.5462.5462.2969 0 .5462-.2494.5462-.5462 0-.285.2494-.5344.5463-.5344zM88.1967 54.8554v-.5463c0-.2968-.2494-.5462-.5462-.5462h-1.1043c-.2968 0-.5462.2494-.5462.5462 0 .3088.2494.5463.5462.5463.2969 0 .5462.2493.5462.5462 0 .2968.2494.5462.5462.5462.2969 0 .5462-.2494.5462-.5462v-.5462h.0119zM90.928 54.8555c-.2968 0-.5462.2493-.5462.5462 0 .2968.2494.5462.5462.5462.2969 0 .5462-.2494.5462-.5462a.5447.5447 0 00-.5462-.5462zM100.784 54.8555c-.297 0-.547.2493-.547.5462 0 .2968.25.5462.547.5462.296 0 .546-.2494.546-.5462.012-.2969-.238-.5462-.546-.5462zM93.1243 57.0521c.2969 0 .5462-.2493.5462-.5462 0-.2968-.2493-.5462-.5462-.5462-.2968 0-.5462.2494-.5462.5462 0 .2969.2375.5462.5462.5462zM102.433 56.5059c0-.2968-.249-.5462-.546-.5462-.297 0-.546.2494-.546.5462 0 .2969.249.5462.546.5462.297 0 .546-.2493.546-.5462zM103.526 58.1445h2.731c.297 0 .546-.2494.546-.5462 0-.2969.25-.5463.546-.5463.297 0 .547-.2493.547-.5462v-1.1042c0-.2969-.25-.5462-.547-.5462h-1.092c-.297 0-.546-.2494-.546-.5463 0-.2968-.25-.5462-.546-.5462h-1.093c-.297 0-.546.2494-.546.5462 0 .2969.249.5463.546.5463.297 0 .546.2493.546.5462 0 .2968.25.5462.547.5462.296 0 .546.2493.546.5462 0 .2968-.25.5462-.546.5462H102.98c-.297 0-.546.2493-.546.5462 0 .2968.249.5462.546.5462h.546v.0119zM107.908 58.6907c0-.2968-.25-.5462-.546-.5462-.297 0-.547.2494-.547.5462 0 .2969.25.5462.547.5462.296 0 .546-.2374.546-.5462z"/>
    <path d="M106.815 59.783c0-.2968-.249-.5462-.546-.5462h-2.185c-.296 0-.546.2494-.546.5462 0 .2969.25.5462.546.5462h1.093c.297 0 .546.2494.546.5462 0 .2969-.249.5462-.546.5462-.297 0-.546.2494-.546.5463 0 .2968-.25.5462-.547.5462-.296 0-.546.2493-.546.5462v1.0924c0 .2968-.249.5462-.546.5462-.297 0-.546-.2494-.546-.5462v-1.0924c0-.2969.249-.5462.546-.5462.297 0 .546-.2494.546-.5462v-1.0925c0-.2968-.249-.5462-.546-.5462-.297 0-.546-.2493-.546-.5462 0-.2968-.25-.5462-.546-.5462-.297 0-.547-.2493-.547-.5462v-1.0924c0-.2968-.249-.5462-.546-.5462-.297 0-.546.2494-.546.5462v2.1848c0 .2969-.249.5462-.5462.5462-.2969 0-.5462.2494-.5462.5462 0 .2969.2493.5462.5462.5462.2972 0 .5462.2494.5462.5463 0 .2968.249.5462.546.5462.297 0 .546.2493.546.5462 0 .2968-.249.5462-.546.5462-.297 0-.546.2493-.546.5462 0 .2968.249.5462.546.5462.297 0 .546.2493.546.5462 0 .2968.25.5462.547.5462h1.092c.297 0 .546.2493.546.5462 0 .2968-.249.5462-.546.5462H101.9c-.297 0-.547-.2494-.547-.5462 0-.2969-.249-.5462-.546-.5462-.297 0-.546-.2494-.546-.5462 0-.2969-.249-.5462-.5462-.5462-.2969 0-.5462.2493-.5462.5462 0 .2968-.2494.5462-.5462.5462-.2969 0-.5462.2493-.5462.5462v1.0924c0 .2969.2493.5462.5462.5462h6.5546c.297 0 .546-.2493.546-.5462 0-.2968-.249-.5462-.546-.5462-.297 0-.546-.2494-.546-.5462 0-.2969.249-.5462.546-.5462.297 0 .546.2493.546.5462 0 .2968.249.5462.546.5462.297 0 .546-.2494.546-.5462 0-.2969.25-.5462.547-.5462h1.092c.297 0 .546-.2494.546-.5462 0-.2969-.249-.5462-.546-.5462h-1.092c-.297 0-.547-.2494-.547-.5462 0-.2969-.249-.5462-.546-.5462-.297 0-.546.2493-.546.5462 0 .2968-.249.5462-.546.5462-.297 0-.546-.2494-.546-.5462 0-.2969.249-.5462.546-.5462.297 0 .546-.2494.546-.5462 0-.2969.249-.5462.546-.5462.297 0 .546.2493.546.5462 0 .2968.25.5462.547.5462h1.092c.297 0 .546-.2494.546-.5462 0-.2969-.249-.5462-.546-.5462-.297 0-.546-.2494-.546-.5462v-1.0925c0-.2968-.249-.5462-.546-.5462-.309.0119-.547-.2374-.547-.5462zM108.454 60.3412c.297 0 .547-.2494.547-.5462 0-.2969-.25-.5462-.547-.5462-.296 0-.546.2493-.546.5462 0 .2968.25.5462.546.5462zM91.4739 60.3411h-4.9277a.5447.5447 0 00-.5462.5462v6.5544c0 .2969.2494.5462.5462.5462h6.5782c.2969 0 .5462-.2493.5462-.5462v-6.5544c0-.2969-.2493-.5462-.5462-.5462h-1.6505zm1.1043 2.1848V66.3493c0 .2969-.2493.5462-.5462.5462h-4.3934c-.2968 0-.5462-.2493-.5462-.5462v-4.3696c0-.2969.2494-.5462.5462-.5462h4.3697c.2968 0 .5462.2493.5462.5462v.5462h.0237z"/>
    <path d="M98.5989 62.5262c.2969 0 .5462-.2493.5462-.5462 0-.2968-.2493-.5462-.5462-.5462-.2968 0-.5462.2494-.5462.5462 0 .2969.2375.5462.5462.5462zM89.2887 62.5261h-.5462c-.2969 0-.5462.2494-.5462.5462v2.1848c0 .2969.2493.5463.5462.5463h2.1848c.2969 0 .5462-.2494.5462-.5463v-2.1848c0-.2968-.2493-.5462-.5462-.5462h-1.6386zM99.6907 63.6185c.2969 0 .5463-.2493.5463-.5462 0-.2968-.2494-.5462-.5463-.5462-.2968 0-.5462.2494-.5462.5462 0 .3088.2494.5462.5462.5462z"/>
    <path d="M98.0521 63.0721c0-.2968-.2493-.5462-.5462-.5462-.2968 0-.5462-.2493-.5462-.5462v-1.0924c0-.2969.2494-.5462.5462-.5462.2969 0 .5462-.2494.5462-.5462v-2.1848c0-.2969.2494-.5462.5462-.5462h1.0925c.2968 0 .5462-.2494.5462-.5463 0-.2968-.2494-.5462-.5462-.5462h-1.0925c-.2968 0-.5462-.2493-.5462-.5462 0-.2968-.2493-.5462-.5462-.5462h-2.1967c-.2968 0-.5462-.2493-.5462-.5462 0-.2968-.2493-.5462-.5462-.5462h-2.1967c-.2968 0-.5462.2494-.5462.5462 0 .2969.2494.5462.5462.5462h1.1043c.2969 0 .5462.2494.5462.5462 0 .2969.2494.5462.5462.5462h2.1849c.2968 0 .5462.2494.5462.5462 0 .2969-.2494.5463-.5462.5463-.2969 0-.5463.2493-.5463.5462 0 .2968-.2493.5462-.5462.5462h-3.2891c-.2968 0-.5462-.2494-.5462-.5462 0-.2969-.2493-.5462-.5462-.5462-.2968 0-.5462-.2494-.5462-.5463 0-.2968-.2493-.5462-.5462-.5462h-1.0924c-.2968 0-.5462.2494-.5462.5462 0 .2969-.2494.5463-.5462.5463-.2969 0-.5462-.2494-.5462-.5463 0-.2968-.2494-.5462-.5462-.5462-.3087-.0118-.5581.2256-.5581.5344v1.0924c0 .2968.2494.5462.5462.5462.2969 0 .5462.2493.5462.5462 0 .2968.2494.5462.5462.5462.2969 0 .5462-.2494.5462-.5462 0-.2969.2494-.5462.5462-.5462.2969 0 .5462.2493.5462.5462 0 .2968.2494.5462.5462.5462h4.3697c.2968 0 .5462.2494.5462.5462v2.1848c0 .2969.2493.5462.5462.5462.2968 0 .5462.2494.5462.5462 0 .2969.2494.5462.5462.5462.2969 0 .5462.2494.5462.5462 0 .2969.2494.5463.5462.5463h1.0924c.2969 0 .5462-.2494.5462-.5463 0-.2968-.2493-.5462-.5462-.5462-.2731.0119-.5106-.2256-.5106-.5343zM96.4017 65.8153c.2968 0 .5462-.2493.5462-.5462 0-.2968-.2494-.5462-.5462-.5462-.2969 0-.5462.2494-.5462.5462 0 .2969.2493.5462.5462.5462zM94.7627 66.9076v.5462c0 .2969.2494.5462.5462.5462h1.0924c.2969 0 .5462-.2493.5462-.5462 0-.2968-.2493-.5462-.5462-.5462-.2968 0-.5462-.2494-.5462-.5462 0-.2969-.2493-.5462-.5462-.5462-.2968 0-.5462.2493-.5462.5462v.5462zM107.908 67.4537c0-.2969-.25-.5462-.546-.5462-.297 0-.547.2493-.547.5462 0 .2968.25.5462.547.5462.296 0 .546-.2375.546-.5462z"/>
  </g>
  <defs>
    <clipPath id="clip0">
      <path fill="#fff" transform="translate(11 13)" d="M0 0h139.444v66H0z"/>
    </clipPath>
    <clipPath id="clip1">
      <path fill="#fff" transform="translate(86 45)" d="M0 0h23v23H0z"/>
    </clipPath>
  </defs>
</svg>