<svg width="248" height="255" fill="none" xmlns="http://www.w3.org/2000/svg">
  <path d="M.4009 88.1741c7.9147-26.1024 24.8018-49.9917 47.953-65.7632 11.4815-7.9634 24.3376-14.0673 37.91-17.9162C99.8682.799 114.126-.7295 128.242.328c14.116.9408 28.121 4.0874 41.311 9.4215 13.188 5.3799 25.227 13.3344 35.817 22.7712 10.491 9.5216 19.837 20.5357 26.471 33.119 6.725 12.4972 11.412 26.0396 13.809 39.9593 2.534 13.923 2.187 28.215-.026 42.062-2.3 13.839-6.65 27.416-13.49 39.661-13.46 24.475-34.554 44.923-60.187 56.078-12.711 5.674-26.301 9.33-40.132 10.715-6.933.332-13.869.772-20.79.269-6.913-.549-13.7812-1.544-20.524-3.114-26.9829-6.324-51.5147-21.861-68.7579-43.217-.5893-.73-.4731-1.798.2594-2.386.7167-.574 1.7579-.477 2.354.209l.0141.017c17.522 20.181 41.6919 34.185 67.5191 39.266 6.457 1.26 12.9973 1.966 19.5423 2.253 6.56.242 13.088-.43 19.58-.957 12.939-1.773 25.481-5.658 37.072-11.342 23.319-11.219 42.153-30.675 53.186-53.42 5.659-11.343 8.966-23.705 10.383-36.115 1.289-12.418.927-25.075-1.981-37.11-2.69-12.0504-7.107-23.645-13.333-34.205-6.295-10.5006-13.996-20.1598-23.106-28.3319-9.094-8.193-19.507-14.8392-30.623-20.0435-11.22-5.0141-23.266-8.0962-35.576-9.4745-12.327-1.5807-24.964-.7948-37.2126 1.809-12.3128 2.4383-24.3219 6.9675-35.378 13.3883-11.0718 6.4184-21.0552 14.7633-30.0026 24.2849C15.5625 65.5137 8.3322 76.7467 2.5599 88.912l-.037.0764c-.2683.5674-.9497.8101-1.5177.5415-.5179-.2436-.7649-.8258-.6043-1.3558z" fill="#F4B935"/>
</svg>