<svg width="80" height="80" viewBox="0 0 80 80" fill="none" xmlns="http://www.w3.org/2000/svg">
<path d="M5.01391 27.6083C7.31461 20.1763 12.2228 13.3739 18.9525 8.88209C22.2901 6.61464 26.0269 4.87636 29.9717 3.78007C33.926 2.72787 38.0704 2.29202 42.1738 2.59353C46.2772 2.86119 50.3481 3.7575 54.1815 5.27632C58.015 6.80846 61.5143 9.07284 64.5924 11.7608C67.6422 14.4723 70.3589 17.6083 72.2866 21.1916C74.2417 24.7501 75.6043 28.6061 76.3008 32.5698C77.0372 36.5345 76.9364 40.6039 76.2934 44.547C75.6253 48.4881 74.3604 52.3534 72.3728 55.8402C68.4606 62.8097 62.3285 68.6316 54.8781 71.8087C51.1833 73.425 47.2332 74.4659 43.2128 74.8597C41.1979 74.954 39.1819 75.0792 37.1701 74.9366C35.1604 74.7807 33.1643 74.4967 31.204 74.0495C23.3606 72.2487 16.2306 67.8245 11.2184 61.7442C11.0472 61.536 11.0808 61.2324 11.2941 61.0642C11.5021 60.9012 11.8046 60.9289 11.978 61.1237L11.9822 61.1288C17.0752 66.8749 24.1013 70.8632 31.6085 72.3102C33.4858 72.6692 35.3862 72.8702 37.2888 72.9522C39.1955 73.0209 41.0928 72.8302 42.9796 72.6794C46.7405 72.1749 50.3859 71.0683 53.755 69.45C60.5331 66.2555 66.0075 60.7156 69.2148 54.2383C70.86 51.0089 71.8213 47.4882 72.2331 43.9543C72.6071 40.4182 72.502 36.8145 71.6574 33.3872C70.8758 29.9557 69.592 26.6546 67.7819 23.6477C65.9519 20.6572 63.7131 17.9068 61.0658 15.5798C58.4226 13.2468 55.396 11.3546 52.1645 9.87275C48.9036 8.44521 45.4011 7.56736 41.824 7.17458C38.2406 6.72437 34.5679 6.94794 31.0076 7.68939C27.4284 8.38368 23.9384 9.6738 20.7238 11.5013C17.5059 13.3288 14.6033 15.705 12.0032 18.4165C9.422 21.1557 7.32091 24.3533 5.64319 27.8175L5.63268 27.8391C5.55494 28.0011 5.35639 28.0698 5.19145 27.9929C5.03913 27.9252 4.96769 27.7591 5.01391 27.6083Z" fill="white"/>
<path d="M37.9049 42.2859C37.4879 42.2859 37.0866 42.1239 36.7903 41.8357C36.4835 41.5363 36.3165 41.1261 36.3302 40.7025C36.3407 40.3559 36.6516 32.1609 42.1533 26.7901C47.6677 21.4081 53.3931 19.7652 56.3977 22.6962C59.4033 25.6313 57.7182 31.2194 52.2039 36.6014C46.7032 41.9721 38.3062 42.2757 37.9533 42.2859C37.9364 42.2859 37.9207 42.2859 37.9049 42.2859ZM52.5632 24.3268C50.6754 24.3268 47.7023 25.7236 44.3826 28.9643C41.1774 32.0932 40.0606 36.5655 39.6772 39.0186C42.1901 38.6443 46.7715 37.5541 49.9767 34.4252C54.5162 29.9929 55.5257 26.1943 54.1705 24.8714C53.8049 24.5155 53.2576 24.3268 52.5632 24.3268Z" fill="white"/>
<path d="M27.3081 38.0844C26.9435 38.0844 26.5863 37.9603 26.3016 37.7296C26.101 37.5665 21.3914 33.6725 22.8905 28.1716C23.5135 25.8857 24.8424 24.0695 26.6326 23.0573C28.0487 22.2573 29.6655 22.0368 31.1814 22.4337C32.7205 22.8357 34.0189 23.8336 34.8394 25.2416C35.8637 26.9994 36.0696 29.2105 35.4183 31.4666C33.8813 36.7922 27.8669 38.0065 27.6117 38.0557C27.5119 38.0752 27.41 38.0844 27.3081 38.0844ZM29.6791 25.3175C29.1843 25.3175 28.6864 25.4529 28.2126 25.7216C27.1673 26.3123 26.3374 27.4947 25.936 28.9643C25.2049 31.6522 26.8364 33.8489 27.7545 34.8252C29.053 34.3925 31.6374 33.2254 32.3864 30.6339C32.8014 29.1971 32.6963 27.787 32.1017 26.7646C31.6951 26.0672 31.0953 25.5975 30.3672 25.4068C30.1403 25.3462 29.9103 25.3175 29.6791 25.3175Z" fill="white"/>
<path d="M48.5722 55.6917C44.1316 55.6917 41.1417 52.2439 40.9967 52.0747C40.6942 51.7188 40.5723 51.2491 40.6637 50.7948C40.7141 50.5456 41.9569 44.6755 47.4145 43.1751C49.7236 42.5413 51.9886 42.7393 53.7892 43.7402C55.2316 44.5411 56.2538 45.8097 56.6667 47.3111C57.0732 48.794 56.8463 50.3703 56.0269 51.7527C54.9911 53.5012 53.1305 54.7985 50.7889 55.4056C50.0167 55.6056 49.2761 55.6917 48.5722 55.6917ZM43.9687 50.6523C44.9678 51.5486 47.2244 53.1474 49.9778 52.4316C51.4843 52.0409 52.6935 51.2317 53.2986 50.2103C53.702 49.5314 53.8134 48.8043 53.6222 48.1069C53.4268 47.3962 52.9456 46.8106 52.2313 46.4138C51.1839 45.8333 49.7373 45.7307 48.2697 46.1358C45.5845 46.8742 44.4026 49.3888 43.9687 50.6523Z" fill="white"/>
<path d="M23.544 38.911C22.0964 38.911 20.6802 38.4515 19.491 37.5665C17.8049 36.3143 16.8373 34.4089 16.8373 32.3404V30.8021H19.989V32.3404C19.989 33.4398 20.5027 34.452 21.3999 35.1175C22.297 35.7841 23.4337 35.9964 24.5168 35.7031L28.4081 34.6519L29.2485 37.6167L25.3583 38.6679C24.7574 38.832 24.1481 38.911 23.544 38.911Z" fill="white"/>
<path d="M41.6228 52.6972L40.0585 51.1671C37.9354 49.0945 36.4457 45.4907 36.2807 42.3342C33.0461 42.1742 29.3545 40.7189 27.2313 38.6463L25.665 37.1173L27.8932 34.9421L29.4596 36.4712C31.2875 38.2556 35.142 39.5375 37.7063 39.2227C38.1906 39.1601 38.6749 39.3242 39.0195 39.6606C39.3641 39.997 39.5301 40.4708 39.4691 40.9425C39.1414 43.4469 40.4598 47.2085 42.2888 48.994L43.8541 50.5261L41.6228 52.6972Z" fill="white"/>
<path d="M48.3505 61.567H46.5425C44.4687 61.567 42.5431 60.6553 41.2603 59.0647C39.9776 57.4741 39.5196 55.4333 40.0049 53.4653L41.0471 49.237L44.1115 49.958L43.0683 54.1852C42.8109 55.2313 43.0536 56.3163 43.7365 57.1613C44.4183 58.0063 45.4415 58.4904 46.5435 58.4904H48.3515V61.567H48.3505Z" fill="white"/>
</svg>
