<svg width="95" height="29" viewBox="0 0 95 29" fill="none" xmlns="http://www.w3.org/2000/svg">
<g clip-path="url(#clip0_602_7712)">
<path d="M42.9883 14.1388V20.5049C42.9883 20.6477 42.8698 20.7638 42.7232 20.7638H41.7306C41.5844 20.7638 41.4655 20.6481 41.4655 20.5049V14.4317C41.4655 13.4558 41.2394 12.7281 40.7944 12.2662C40.3565 11.8076 39.7098 11.573 38.8761 11.573C38.3428 11.573 37.855 11.6973 37.4242 11.9454C36.9931 12.1936 36.6468 12.5386 36.4031 12.9661C36.1522 13.4144 36.0287 13.8935 36.0287 14.4317V20.5045C36.0287 20.6473 35.9102 20.7634 35.7635 20.7634H34.7533C34.6071 20.7634 34.4882 20.6477 34.4882 20.5045V10.618C34.4882 10.4752 34.6067 10.3591 34.7533 10.3591H35.4286C35.5602 10.3591 35.6719 10.4535 35.6908 10.5807L35.8203 11.4524C36.3741 10.8748 37.141 10.4613 38.0613 10.2316C38.076 10.2279 38.092 10.225 38.1071 10.223C39.6741 10.0244 40.9436 10.3452 41.8613 11.173C42.6106 11.8453 42.9883 12.8454 42.9883 14.1388Z" fill="white"/>
<path d="M83.3528 10.4243V20.3113C83.3528 20.454 83.2343 20.5701 83.0876 20.5701H82.4161C82.2846 20.5701 82.1728 20.4758 82.1539 20.3486L82.0245 19.4769C81.4232 20.1033 80.6025 20.5283 79.5368 20.7268C79.5242 20.7293 79.5112 20.7309 79.4986 20.7322C78.0396 20.8708 76.8512 20.5418 75.9801 19.7563C75.2346 19.0839 74.8568 18.0871 74.8568 16.7904V10.4243C74.8568 10.2816 74.9753 10.1655 75.122 10.1655H76.1112C76.2574 10.1655 76.3763 10.2812 76.3763 10.4243V16.5008C76.3763 17.4734 76.6024 18.2012 77.0474 18.6663C77.4962 19.1319 78.1249 19.3559 78.9657 19.3559C79.499 19.3559 79.9869 19.2316 80.4176 18.9867C80.8487 18.7385 81.195 18.3968 81.4387 17.9624C81.6896 17.5243 81.8131 17.0349 81.8131 16.5004V10.4243C81.8131 10.2816 81.9316 10.1655 82.0783 10.1655H83.0885C83.2343 10.1655 83.3528 10.2816 83.3528 10.4243Z" fill="white"/>
<path d="M54.1518 12.6173C53.7669 11.824 53.2227 11.2103 52.5374 10.7931C51.8486 10.3759 51.0574 10.1655 50.1774 10.1655C49.2975 10.1655 48.5029 10.3759 47.8141 10.7931C47.1287 11.2103 46.5846 11.8244 46.1996 12.6173C45.8214 13.3935 45.6311 14.3382 45.6311 15.4174V15.7071C45.6311 16.7863 45.8219 17.7315 46.1996 18.5072C46.5846 19.2968 47.1287 19.9072 47.8141 20.3244C48.4995 20.7453 49.2941 20.959 50.1774 20.959C51.0607 20.959 51.852 20.7453 52.5374 20.3281C53.2227 19.9072 53.7669 19.2968 54.1518 18.5072C54.53 17.7245 54.7242 16.783 54.7242 15.7071V15.4174C54.7238 14.3419 54.5296 13.4004 54.1518 12.6173ZM50.1774 19.5491C49.2836 19.5491 48.5772 19.2423 48.0188 18.6146C47.4569 17.9837 47.1708 17.0456 47.1708 15.8248V15.3005C47.1708 14.083 47.4569 13.1416 48.0188 12.5074C48.5768 11.8798 49.2836 11.5729 50.1774 11.5729C51.0679 11.5729 51.7743 11.8798 52.3323 12.5074C52.8941 13.142 53.1803 14.0834 53.1803 15.3005V15.8248C53.1803 17.0456 52.8941 17.9837 52.3323 18.6146C51.7743 19.2423 51.0674 19.5491 50.1774 19.5491Z" fill="white"/>
<path d="M71.5325 14.1384V20.5045C71.5325 20.6473 71.414 20.7633 71.2674 20.7633H70.2572C70.1109 20.7633 69.992 20.6477 69.992 20.5045V14.4313C69.992 12.507 69.268 11.5725 67.777 11.5725C67.0635 11.5725 66.4945 11.8346 66.039 12.3692C65.5797 12.9106 65.3465 13.6072 65.3465 14.4313V20.5041C65.3465 20.6468 65.228 20.7629 65.0813 20.7629H64.0711C63.9249 20.7629 63.806 20.6473 63.806 20.5041V14.4313C63.806 12.507 63.0819 11.5725 61.5944 11.5725C60.877 11.5725 60.3085 11.8346 59.8563 12.3692C59.3937 12.9106 59.1605 13.6039 59.1605 14.4313V20.5041C59.1605 20.6468 59.042 20.7629 58.8953 20.7629H57.8851C57.7389 20.7629 57.6199 20.6473 57.6199 20.5041V10.6175C57.6199 10.4748 57.7384 10.3587 57.8851 10.3587H58.5595C58.6898 10.3587 58.8007 10.4514 58.8213 10.5769L58.9554 11.4035C59.4571 10.8198 60.1463 10.4055 60.9968 10.2118C61.0111 10.2086 61.0262 10.2061 61.0409 10.2041C62.0024 10.088 62.8743 10.234 63.6118 10.6204C63.9791 10.8161 64.2943 11.0692 64.5556 11.3814C64.654 11.4987 64.8384 11.5061 64.9435 11.3949C65.1965 11.127 65.4973 10.8907 65.8478 10.6861C66.4344 10.3411 67.1127 10.1655 67.8577 10.1655C68.928 10.1655 69.8218 10.5068 70.5038 11.1795C70.8463 11.5176 71.101 11.9347 71.2741 12.4278C71.4472 12.9209 71.5325 13.4935 71.5325 14.1384Z" fill="white"/>
<path d="M95 17.6802C95 18.8251 94.5831 19.6734 93.7599 20.2009C92.9758 20.7043 91.9089 20.9598 90.5945 20.9598C89.5914 20.9598 88.7611 20.7978 88.1253 20.484C87.4823 20.1669 87.0125 19.7702 86.7264 19.3009C86.7016 19.2632 86.6806 19.2218 86.6591 19.1836H86.6558C86.373 18.7389 86.2284 18.2734 86.2284 17.8008L86.2494 17.5112C86.2528 17.4455 86.2814 17.3869 86.3272 17.3422C86.3305 17.3422 86.3305 17.3422 86.3305 17.3389C86.3763 17.2975 86.4402 17.27 86.5108 17.27H87.5033C87.6483 17.27 87.7685 17.3873 87.7685 17.5288V17.7807C87.7685 18.074 87.8815 18.3566 88.1181 18.6462C88.2383 18.798 88.3938 18.9326 88.5846 19.0499C89.125 19.3809 89.8881 19.5499 90.8525 19.5499C91.7005 19.5499 92.3644 19.3879 92.8166 19.0671C93.2511 18.7636 93.4595 18.3706 93.4595 17.8738C93.4595 17.4944 93.3498 17.208 93.117 17.0013C92.8628 16.7666 92.5413 16.5874 92.1669 16.4668C91.7606 16.3359 91.2097 16.2046 90.5243 16.0771C89.7049 15.922 89.0405 15.7563 88.5459 15.5943C88.0194 15.422 87.5639 15.1426 87.1928 14.7632C86.8007 14.3665 86.6028 13.8184 86.6028 13.1354C86.6028 12.2527 86.9701 11.5282 87.6945 10.9765C88.4009 10.4387 89.4431 10.1659 90.7928 10.1659C91.6761 10.1659 92.4216 10.3107 93.0111 10.6003C93.6082 10.8899 94.0533 11.2661 94.3361 11.7108C94.6189 12.1554 94.7634 12.621 94.7634 13.0936L94.7424 13.3832C94.7319 13.521 94.6189 13.6244 94.4773 13.6244H93.4881C93.3431 13.6244 93.2229 13.5071 93.2229 13.3656V13.1137C93.2229 12.7654 93.0603 12.4274 92.7283 12.0791C92.4102 11.7481 91.679 11.5721 90.6121 11.5721C89.3157 11.5721 88.8035 11.831 88.5984 12.048C88.2913 12.3757 88.1425 12.7203 88.1425 13.0928C88.1425 13.3926 88.245 13.6273 88.4497 13.8102C88.6863 14.017 88.9867 14.1794 89.3435 14.2898C89.7322 14.4104 90.2759 14.5416 90.9651 14.6795C91.7778 14.8485 92.456 15.0208 92.975 15.1898C93.5297 15.369 94.0066 15.6587 94.3915 16.0484C94.7954 16.4594 95 17.0074 95 17.6802Z" fill="white"/>
<path d="M0.00529011 10.042C0.925568 7.06914 2.88883 4.3482 5.58075 2.55147C6.91578 1.64449 8.41049 0.949175 9.98841 0.510657C11.5701 0.0897788 13.2279 -0.0845617 14.8692 0.0360409C16.5106 0.143106 18.139 0.501633 19.6723 1.10916C21.2057 1.72202 22.6055 2.62777 23.8367 3.70293C25.0566 4.78754 26.1433 6.04197 26.9144 7.47525C27.6964 8.89869 28.2414 10.4411 28.52 12.0266C28.8146 13.6124 28.7743 15.2402 28.5171 16.8174C28.2498 18.3939 27.7439 19.94 26.9488 21.3347C25.3839 24.1225 22.9311 26.4513 19.9509 27.7221C18.473 28.3686 16.893 28.785 15.2848 28.9425C14.4789 28.9803 13.6725 29.0303 12.8677 28.9733C12.0639 28.9109 11.2655 28.7973 10.4813 28.6184C7.34398 27.8981 4.49196 26.1285 2.4871 23.6963C2.4186 23.613 2.43205 23.4916 2.51735 23.4243C2.60056 23.3591 2.72158 23.3702 2.79092 23.4481L2.7926 23.4502C4.82982 25.7486 7.64023 27.3439 10.6431 27.9227C11.394 28.0663 12.1542 28.1467 12.9152 28.1795C13.6779 28.207 14.4368 28.1307 15.1916 28.0704C16.6959 27.8686 18.1541 27.426 19.5017 26.7786C22.213 25.5008 24.4027 23.2849 25.6857 20.694C26.3437 19.4022 26.7282 17.9939 26.893 16.5803C27.0426 15.1659 27.0005 13.7244 26.6627 12.3535C26.35 10.9809 25.8365 9.66046 25.1125 8.45771C24.3805 7.26153 23.485 6.16134 22.426 5.23057C21.3688 4.29733 20.1581 3.54049 18.8655 2.94773C17.5612 2.37672 16.1602 2.02557 14.7293 1.86846C13.296 1.68838 11.8269 1.7778 10.4027 2.07439C8.97107 2.3521 7.5751 2.86815 6.28923 3.59915C5.0021 4.33015 3.84104 5.28061 2.801 6.36522C1.76853 7.46089 0.928089 8.73994 0.257001 10.1256L0.252799 10.1343C0.221702 10.1991 0.142281 10.2265 0.076307 10.1958C0.0153753 10.1687 -0.0131995 10.1023 0.00529011 10.042Z" fill="white"/>
<path d="M13.1616 15.913C12.9948 15.913 12.8343 15.8482 12.7158 15.7329C12.5931 15.6131 12.5263 15.449 12.5317 15.2796C12.5359 15.141 12.6603 11.863 14.861 9.71467C17.0667 7.56187 19.3569 6.90471 20.5587 8.0771C21.761 9.25113 21.087 11.4864 18.8812 13.6392C16.681 15.7875 13.3222 15.9089 13.181 15.913C13.1742 15.913 13.1679 15.913 13.1616 15.913ZM19.0249 8.72934C18.2698 8.72934 17.0806 9.28805 15.7527 10.5843C14.4706 11.8359 14.0239 13.6248 13.8706 14.606C14.8757 14.4563 16.7083 14.0203 17.9904 12.7687C19.8061 10.9958 20.21 9.47634 19.6679 8.94716C19.5216 8.80482 19.3027 8.72934 19.0249 8.72934Z" fill="white"/>
<path d="M8.9229 14.2324C8.77708 14.2324 8.63421 14.1827 8.52033 14.0904C8.44007 14.0252 6.55623 12.4676 7.15588 10.2673C7.40507 9.35289 7.93665 8.6264 8.6527 8.22152C9.21915 7.90155 9.86587 7.81336 10.4722 7.97211C11.0879 8.13291 11.6073 8.53205 11.9354 9.09527C12.3452 9.79838 12.4275 10.6828 12.167 11.5853C11.5522 13.7155 9.14646 14.2012 9.04434 14.2209C9.00442 14.2287 8.96366 14.2324 8.9229 14.2324ZM9.87133 9.12563C9.67341 9.12563 9.47423 9.17978 9.28471 9.28725C8.86659 9.52354 8.53462 9.99651 8.37409 10.5843C8.08162 11.6595 8.73422 12.5382 9.10149 12.9287C9.62088 12.7556 10.6546 12.2888 10.9542 11.2522C11.1202 10.6775 11.0782 10.1134 10.8404 9.70444C10.6777 9.4255 10.4378 9.23762 10.1466 9.16132C10.0558 9.13712 9.96378 9.12563 9.87133 9.12563Z" fill="white"/>
<path d="M17.4286 21.2753C15.6523 21.2753 14.4564 19.8962 14.3984 19.8285C14.2773 19.6862 14.2286 19.4983 14.2652 19.3165C14.2853 19.2169 14.7824 16.8688 16.9655 16.2687C17.8891 16.0152 18.7951 16.0943 19.5154 16.4947C20.0923 16.8151 20.5012 17.3225 20.6663 17.9231C20.829 18.5162 20.7382 19.1467 20.4104 19.6997C19.9961 20.3991 19.2519 20.918 18.3152 21.1609C18.0064 21.2409 17.7101 21.2753 17.4286 21.2753ZM15.5872 19.2595C15.9868 19.6181 16.8894 20.2576 17.9908 19.9713C18.5934 19.815 19.0771 19.4913 19.3191 19.0827C19.4805 18.8112 19.525 18.5203 19.4486 18.2414C19.3704 17.9571 19.1779 17.7229 18.8922 17.5641C18.4732 17.3319 17.8946 17.2909 17.3075 17.453C16.2335 17.7483 15.7607 18.7541 15.5872 19.2595Z" fill="white"/>
<path d="M7.41728 14.563C6.83822 14.563 6.27177 14.3792 5.79608 14.0252C5.12163 13.5243 4.73461 12.7622 4.73461 11.9348V11.3194H5.99527V11.9348C5.99527 12.3745 6.20075 12.7794 6.55962 13.0456C6.91848 13.3123 7.37316 13.3972 7.80641 13.2799L9.36289 12.8594L9.69907 14.0453L8.143 14.4658C7.90264 14.5314 7.65891 14.563 7.41728 14.563Z" fill="white"/>
<path d="M14.6488 20.0775L14.0231 19.4654C13.1738 18.6364 12.5779 17.1949 12.512 15.9323C11.2181 15.8683 9.74148 15.2862 8.89222 14.4571L8.26567 13.8455L9.15695 12.9755L9.7835 13.5871C10.5147 14.3009 12.0565 14.8136 13.0822 14.6877C13.2759 14.6627 13.4697 14.7283 13.6075 14.8629C13.7453 14.9974 13.8117 15.1869 13.7873 15.3756C13.6562 16.3774 14.1836 17.882 14.9152 18.5962L15.5413 19.2091L14.6488 20.0775Z" fill="white"/>
<path d="M17.3399 23.6254H16.6167C15.7872 23.6254 15.0169 23.2607 14.5038 22.6245C13.9907 21.9883 13.8075 21.1719 14.0016 20.3847L14.4185 18.6934L15.6443 18.9818L15.227 20.6727C15.124 21.0911 15.2211 21.5251 15.4943 21.8631C15.767 22.2012 16.1763 22.3948 16.6171 22.3948H17.3403V23.6254H17.3399Z" fill="white"/>
</g>
<defs>
<clipPath id="clip0_602_7712">
<rect width="95" height="29" fill="white"/>
</clipPath>
</defs>
</svg>
