<svg width="149" height="45" fill="none" xmlns="http://www.w3.org/2000/svg">
  <g clip-path="url(#clip0)" fill="#295683">
    <path d="M67.4239 21.9396v9.8785c0 .2215-.1859.4016-.4159.4016h-1.5567c-.2294 0-.4159-.1795-.4159-.4016v-9.424c0-1.5143-.3546-2.6435-1.0526-3.3603-.6867-.7116-1.701-1.0757-3.0087-1.0757-.8363 0-1.6015.1929-2.2771.578-.6762.3851-1.2193.9204-1.6015 1.5837-.3935.6957-.5873 1.4392-.5873 2.2743v9.4233c0 .2215-.1858.4017-.4159.4017h-1.5844c-.2293 0-.4159-.1795-.4159-.4017V16.4762c0-.2215.1859-.4016.4159-.4016h1.0592c.2063 0 .3816.1464.4112.3437l.203 1.3527c.8687-.8963 2.0715-1.5379 3.5149-1.8944a.6672.6672 0 01.0718-.0133c2.4577-.3081 4.4488.1896 5.8882 1.4742 1.1752 1.0433 1.7677 2.5951 1.7677 4.6021zM130.732 16.1757v15.3418c0 .2215-.186.4017-.416.4017h-1.053c-.206 0-.381-.1464-.411-.3438l-.203-1.3526c-.943.972-2.23 1.6314-3.902 1.9395a.6177.6177 0 01-.06.0083c-2.288.2152-4.152-.2953-5.518-1.5143-1.169-1.0433-1.762-2.5901-1.762-4.6022v-9.8784c0-.2215.186-.4017.416-.4017h1.551c.23 0 .416.1796.416.4017v9.429c0 1.5093.355 2.6385 1.053 3.3603.704.7225 1.69 1.07 3.009 1.07.836 0 1.601-.1928 2.277-.5729.676-.3851 1.219-.9153 1.601-1.5894.394-.6798.587-1.4392.587-2.2686v-9.4284c0-.2215.186-.4017.416-.4017h1.585c.228 0 .414.1802.414.4017zM84.933 19.5786c-.6037-1.231-1.4572-2.1833-2.5322-2.8307-1.0802-.6473-2.3213-.9739-3.7014-.9739s-2.6264.3266-3.7066.9739c-1.075.6474-1.9285 1.6003-2.5322 2.8307-.5932 1.2044-.8918 2.6703-.8918 4.345v.4494c0 1.6748.2993 3.1413.8918 4.345.6037 1.2254 1.4572 2.1725 2.5322 2.8199 1.0749.6531 2.3212.9847 3.7066.9847 1.3854 0 2.6265-.3316 3.7014-.979 1.075-.6531 1.9285-1.6002 2.5322-2.8256.5932-1.2145.8977-2.6753.8977-4.345v-.4494c-.0007-1.669-.3052-3.1298-.8977-4.345zm-6.2336 10.7562c-1.4018 0-2.5097-.4761-3.3857-1.45-.8812-.979-1.33-2.4348-1.33-4.3291v-.8135c0-1.8892.4488-3.3501 1.33-4.3342.8753-.9739 1.9839-1.45 3.3857-1.45 1.3966 0 2.5045.4761 3.3798 1.45.8812.9848 1.33 2.4456 1.33 4.3342v.8135c0 1.8943-.4488 3.3501-1.33 4.3291-.8753.9739-1.9839 1.45-3.3798 1.45zM112.193 21.9389v9.8784c0 .2216-.186.4017-.416.4017h-1.584c-.23 0-.416-.1795-.416-.4017v-9.4239c0-2.986-1.136-4.436-3.474-4.436-1.119 0-2.012.4067-2.726 1.2361-.72.8403-1.086 1.9211-1.086 3.1999v9.4233c0 .2215-.186.4017-.416.4017h-1.585c-.229 0-.415-.1795-.415-.4017v-9.4233c0-2.986-1.136-4.436-3.4691-4.436-1.1251 0-2.0168.4067-2.726 1.2361-.7256.8403-1.0914 1.916-1.0914 3.1999v9.4233c0 .2215-.1859.4017-.4159.4017h-1.5844c-.2294 0-.4159-.1795-.4159-.4017V16.4755c0-.2215.1859-.4016.4159-.4016h1.0578c.2043 0 .3783.1438.4106.3386l.2103 1.2826c.7869-.9058 1.8678-1.5487 3.2018-1.8491a.8261.8261 0 01.0692-.0121c1.5079-.1802 2.8755.0465 4.0322.6461.5759.3036 1.0699.6963 1.4799 1.1808.155.182.444.1935.609.021.397-.4157.868-.7823 1.418-1.1.92-.5353 1.984-.8077 3.152-.8077 1.679 0 3.081.5296 4.151 1.5735.537.5245.936 1.1718 1.208 1.937.271.7651.405 1.6537.405 2.6543zM149 27.4348c0 1.7766-.654 3.093-1.945 3.9115-1.23.7811-2.903 1.1776-4.965 1.1776-1.573 0-2.875-.2514-3.872-.7384-1.009-.492-1.746-1.1075-2.194-1.8357-.039-.0586-.072-.1229-.106-.1821h-.005c-.444-.69-.67-1.4125-.67-2.1457l.032-.4494c.006-.1019.051-.1929.122-.2623.006 0 .006 0 .006-.0051a.4254.4254 0 01.282-.1069h1.557c.228 0 .416.182.416.4016v.3909c0 .4551.177.8937.548 1.3431.189.2355.433.4443.732.6263.848.5137 2.044.776 3.557.776 1.33 0 2.371-.2515 3.081-.7493.681-.471 1.008-1.0808 1.008-1.8516 0-.5888-.172-1.0331-.537-1.354-.399-.3641-.903-.6422-1.49-.8294-.638-.203-1.502-.4067-2.577-.6047-1.285-.2406-2.327-.4977-3.103-.7492-.825-.2673-1.54-.7008-2.122-1.2896-.615-.6155-.925-1.466-.925-2.5258 0-1.3698.576-2.4939 1.712-3.3501 1.108-.8345 2.742-1.2578 4.859-1.2578 1.386 0 2.555.2247 3.48.6741.936.4494 1.634 1.0331 2.078 1.7231.443.69.67 1.4125.67 2.1458l-.033.4494c-.016.2139-.194.3743-.416.3743h-1.551c-.228 0-.416-.1821-.416-.4017v-.3908c0-.5404-.255-1.0649-.776-1.6054-.499-.5137-1.646-.7867-3.319-.7867-2.033 0-2.837.4016-3.158.7384-.482.5085-.715 1.0432-.715 1.6212 0 .4653.16.8294.481 1.1133.371.3208.843.5729 1.402.7441.61.1872 1.463.3909 2.544.6047 1.274.2623 2.338.5296 3.152.7919.87.2782 1.618.7276 2.222 1.3323.633.6378.954 1.4882.954 2.5321zM.0082 15.5823c1.4434-4.613 4.5226-8.8351 8.7447-11.6231 2.0939-1.4074 4.4382-2.4863 6.9131-3.1668 2.4808-.6531 5.0808-.9236 7.6552-.7365 2.5743.1662 5.1283.7225 7.5333 1.6652 2.4049.951 4.6003 2.3565 6.5314 4.0248 1.9133 1.683 3.6177 3.6296 4.8271 5.8536 1.2266 2.2088 2.0814 4.6022 2.5184 7.0624.462 2.4608.3987 4.9866-.0046 7.4341-.4192 2.4462-1.2128 4.8453-2.4597 7.0096-2.4544 4.3259-6.3015 7.9395-10.9757 9.9115-2.318 1.0032-4.7961 1.6493-7.3184 1.8937-1.2641.0585-2.5289.1362-3.791.0477-1.2608-.0967-2.5131-.2731-3.7429-.5506-4.9207-1.1177-9.3939-3.8638-12.5383-7.6378-.1075-.1292-.0864-.3176.0474-.422.1305-.1012.3203-.084.429.0369l.0027.0032c3.1952 3.5665 7.6031 6.042 12.3129 6.9402 1.1778.2227 2.3701.3475 3.5637.3984 1.1962.0427 2.3865-.0757 3.5702-.1693 2.3595-.3132 4.6465-1 6.7602-2.0045 4.2524-1.9828 7.6868-5.4213 9.699-9.4417 1.0321-2.0045 1.6352-4.1897 1.8935-6.3832.2346-2.1948.1687-4.4316-.3612-6.5589-.4903-2.1298-1.2957-4.1788-2.4313-6.0452-1.1481-1.8561-2.5526-3.5633-4.2135-5.0076-1.6582-1.4481-3.557-2.6226-5.5844-3.5423-2.0458-.8861-4.2431-1.431-6.4873-1.6748-2.2481-.2794-4.5522-.1407-6.7859.3196-2.2454.4309-4.4349 1.2317-6.4517 2.366C7.8453 6.7192 6.0243 8.194 4.3931 9.877c-1.6194 1.7001-2.9375 3.6849-3.99 5.8351l-.0067.0134c-.0487.1005-.1733.1432-.2768.0954a.197.197 0 01-.1114-.2387z"/>
    <path d="M20.6431 24.6926c-.2616 0-.5134-.1006-.6993-.2794-.1924-.1859-.2972-.4405-.2886-.7034.0065-.2152.2016-5.3017 3.6532-8.6353 3.4595-3.3405 7.0515-4.3603 8.9365-2.541 1.8856 1.8217.8284 5.2902-2.6311 8.6308-3.4509 3.3335-8.7189 3.5219-8.9404 3.5283h-.0303zm9.1961-11.147c-1.1843 0-3.0495.8669-5.1322 2.8784-2.0109 1.9421-2.7115 4.718-2.952 6.2406 1.5765-.2324 4.4507-.909 6.4616-2.8511 2.8479-2.7511 3.4812-5.1088 2.631-5.9299-.2293-.2209-.5727-.338-1.0084-.338zM13.9949 22.0847a1.011 1.011 0 01-.6314-.2202c-.1259-.1012-3.0806-2.5181-2.14-5.9325.3908-1.4189 1.2245-2.5462 2.3476-3.1744.8884-.4965 1.9028-.6334 2.8538-.3871.9656.2496 1.7802.8689 2.2949 1.7429.6426 1.091.7718 2.4634.3632 3.8638-.9643 3.3055-4.7375 4.0592-4.8976 4.0897a1.0058 1.0058 0 01-.1905.0178zm1.4875-7.9242c-.3104 0-.6228.084-.9201.2508-.6557.3666-1.1764 1.1006-1.4282 2.0127-.4587 1.6684.5649 3.0318 1.1409 3.6378.8146-.2686 2.4359-.993 2.9059-2.6015.2603-.8918.1944-1.767-.1786-2.4017-.2551-.4328-.6314-.7243-1.0882-.8427a1.6847 1.6847 0 00-.4317-.0554zM27.3354 33.0134c-2.7859 0-4.6617-2.14-4.7526-2.245-.1898-.2209-.2663-.5124-.2089-.7944.0316-.1547.8113-3.7982 4.2352-4.7295 1.4487-.3934 2.8696-.2705 3.9993.3507.9049.4972 1.5462 1.2846 1.8052 2.2165.2551.9204.1127 1.8987-.4014 2.7568-.6498 1.0853-1.817 1.8905-3.2861 2.2673a5.5803 5.5803 0 01-1.3907.1776zm-2.8881-3.1279c.6268.5563 2.0425 1.5487 3.77 1.1044.9451-.2425 1.7037-.7448 2.0833-1.3788.2531-.4213.323-.8726.203-1.3055-.1226-.4411-.4244-.8046-.8726-1.0509-.6571-.3603-1.5647-.424-2.4854-.1725-1.6846.4583-2.4261 2.0191-2.6983 2.8033z"/>
    <path d="M11.6335 22.5978a4.2775 4.2775 0 01-2.5428-.8345c-1.0578-.7772-1.6648-1.9599-1.6648-3.2438v-.9548h1.9772v.9548c0 .6824.3223 1.3106.8852 1.7237.5628.4138 1.276.5456 1.9555.3635l2.4412-.6524.5273 1.8402-2.4406.6524a4.358 4.358 0 01-1.1382.1509z"/>
    <path d="M22.9755 31.1547l-.9814-.9497c-1.3319-1.2864-2.2665-3.5232-2.37-5.4825-2.0293-.0993-4.3453-1.0025-5.6773-2.289l-.9827-.9491 1.3979-1.3501.9827.9491c1.1468 1.1076 3.565 1.9033 5.1738 1.7078a1.0048 1.0048 0 01.8238.2718c.2162.2088.3203.5029.2821.7957-.2056 1.5544.6215 3.8893 1.769 4.9975l.982.951-1.3999 1.3475z"/>
    <path d="M27.1963 36.6602H26.062c-1.301 0-2.5091-.5659-3.3138-1.5532s-1.0921-2.254-.7876-3.4755l.6538-2.6244 1.9225.4475-.6544 2.6238c-.1615.6492-.0093 1.3227.4191 1.8472.4278.5245 1.0697.825 1.7611.825h1.1343v1.9096h-.0007z"/>
  </g>
  <defs>
    <clipPath id="clip0">
      <path fill="#fff" d="M0 0h149v45H0z"/>
    </clipPath>
  </defs>
</svg>