  <svg
    width="299"
    height="55"
    viewBox="0 0 299 55"
    preserveAspectRatio="xMidYMid meet"
    fill="none"
    xmlns="http://www.w3.org/2000/svg"
  >
    <path
      d="M42.5447 20.205V51.8159C42.5447 52.5248 41.9615 53.1012 41.2398 53.1012H36.3555C35.6359 53.1012 35.0507 52.5268 35.0507 51.8159V21.6594C35.0507 16.8135 33.9381 13.2 31.7483 10.9065C29.5935 8.62918 26.411 7.46407 22.3084 7.46407C19.6842 7.46407 17.2834 8.08125 15.1638 9.31359C13.0422 10.5459 11.3382 12.259 10.1389 14.3814C8.90433 16.6078 8.29638 18.9869 8.29638 21.6594V51.8139C8.29638 52.5228 7.71324 53.0992 6.99155 53.0992H2.02036C1.30074 53.0992 0.715515 52.5248 0.715515 51.8139V2.72212C0.715515 2.01327 1.29867 1.43683 2.02036 1.43683H5.34344C5.99068 1.43683 6.54074 1.90532 6.6338 2.53676L7.2707 6.86521C9.99617 3.99723 13.7701 1.94402 18.2987 0.803344C18.3711 0.785012 18.4497 0.770754 18.5241 0.760569C26.2353 -0.2253 32.4823 1.36757 36.9986 5.47807C40.6856 8.81658 42.5447 13.7826 42.5447 20.205Z"
      fill="#295683"
    />
    <path
      d="M241.177 1.76223V50.856C241.177 51.5649 240.594 52.1413 239.873 52.1413H236.568C235.921 52.1413 235.371 51.6728 235.278 51.0414L234.641 46.7129C231.682 49.8233 227.643 51.9336 222.399 52.9194C222.337 52.9317 222.273 52.9398 222.211 52.9459C215.031 53.6344 209.183 52.0008 204.896 48.1001C201.228 44.7616 199.369 39.8119 199.369 33.3732V1.76223C199.369 1.05338 199.952 0.476929 200.674 0.476929H205.542C206.261 0.476929 206.846 1.05134 206.846 1.76223V31.9351C206.846 36.7646 207.959 40.3781 210.149 42.688C212.357 44.9999 215.451 46.1121 219.589 46.1121C222.213 46.1121 224.614 45.4949 226.733 44.2788C228.855 43.0465 230.559 41.3497 231.758 39.1926C232.993 37.0172 233.601 34.5872 233.601 31.9331V1.76223C233.601 1.05338 234.184 0.476929 234.905 0.476929H239.877C240.594 0.476929 241.177 1.05338 241.177 1.76223Z"
      fill="#295683"
    />
    <path
      d="M97.4801 12.6516C95.5859 8.71219 92.908 5.66496 89.5353 3.59342C86.146 1.52187 82.2522 0.476929 77.922 0.476929C73.5919 0.476929 69.6815 1.52187 66.2922 3.59342C62.9195 5.66496 60.2416 8.71423 58.3474 12.6516C56.4863 16.5054 55.5496 21.1965 55.5496 26.5556V27.9937C55.5496 33.3528 56.4884 38.0459 58.3474 41.8977C60.2416 45.8188 62.9195 48.8497 66.2922 50.9212C69.665 53.0111 73.5753 54.0723 77.922 54.0723C82.2687 54.0723 86.1626 53.0111 89.5353 50.9396C92.908 48.8497 95.5859 45.8188 97.4801 41.8977C99.3412 38.0112 100.297 33.3365 100.297 27.9937V26.5556C100.294 21.2148 99.3391 16.5401 97.4801 12.6516ZM77.922 47.0715C73.5236 47.0715 70.0475 45.5478 67.2993 42.4314C64.5345 39.2986 63.1263 34.6401 63.1263 28.5783V25.9751C63.1263 19.9295 64.5345 15.2548 67.2993 12.1057C70.0455 8.98921 73.5236 7.4656 77.922 7.4656C82.3039 7.4656 85.78 8.98921 88.5262 12.1057C91.2909 15.2568 92.6991 19.9315 92.6991 25.9751V28.5783C92.6991 34.6401 91.2909 39.2986 88.5262 42.4314C85.78 45.5478 82.3018 47.0715 77.922 47.0715Z"
      fill="#295683"
    />
    <path
      d="M183.01 20.2045V51.8154C183.01 52.5243 182.427 53.1007 181.705 53.1007H176.734C176.014 53.1007 175.429 52.5263 175.429 51.8154V21.6588C175.429 12.1037 171.866 7.46356 164.529 7.46356C161.018 7.46356 158.218 8.76515 155.976 11.4193C153.716 14.108 152.569 17.5667 152.569 21.6588V51.8134C152.569 52.5222 151.985 53.0987 151.264 53.0987H146.292C145.573 53.0987 144.988 52.5243 144.988 51.8134V21.6588C144.988 12.1037 141.425 7.46356 134.104 7.46356C130.574 7.46356 127.777 8.76515 125.552 11.4193C123.275 14.108 122.127 17.5504 122.127 21.6588V51.8134C122.127 52.5222 121.544 53.0987 120.822 53.0987H115.851C115.132 53.0987 114.546 52.5243 114.546 51.8134V2.72161C114.546 2.01277 115.129 1.43632 115.851 1.43632H119.17C119.811 1.43632 120.357 1.89666 120.458 2.51996L121.118 6.62435C123.587 3.72581 126.978 1.66853 131.164 0.7071C131.234 0.690804 131.309 0.678585 131.381 0.6684C136.112 0.0919521 140.403 0.817094 144.032 2.73587C145.84 3.70748 147.391 4.96426 148.677 6.51436C149.161 7.09692 150.068 7.13358 150.585 6.58157C151.83 5.25147 153.311 4.0782 155.036 3.06178C157.922 1.34873 161.26 0.47693 164.926 0.47693C170.193 0.47693 174.592 2.17165 177.948 5.51219C179.633 7.19061 180.886 9.26216 181.738 11.7105C182.59 14.1589 183.01 17.0025 183.01 20.2045Z"
      fill="#295683"
    />
    <path
      d="M298.493 37.7913C298.493 43.4763 296.442 47.6887 292.391 50.3081C288.532 52.8074 283.282 54.0764 276.813 54.0764C271.877 54.0764 267.791 53.2719 264.662 51.7136C261.499 50.1391 259.187 48.1694 257.778 45.8391C257.656 45.6517 257.553 45.446 257.448 45.2566H257.431C256.039 43.0486 255.328 40.7367 255.328 38.3901L255.431 36.9521C255.448 36.6261 255.589 36.3349 255.814 36.1128C255.831 36.1128 255.831 36.1129 255.831 36.0966C256.056 35.8908 256.37 35.7543 256.718 35.7543H261.602C262.315 35.7543 262.907 36.3369 262.907 37.0396V38.2903C262.907 39.7467 263.463 41.1502 264.627 42.5882C265.219 43.3419 265.984 44.01 266.923 44.5925C269.582 46.2363 273.337 47.0756 278.083 47.0756C282.256 47.0756 285.523 46.271 287.748 44.6781C289.886 43.1708 290.912 41.2194 290.912 38.7527C290.912 36.8685 290.372 35.4468 289.227 34.4202C287.976 33.255 286.394 32.3649 284.551 31.7661C282.552 31.1163 279.841 30.4645 276.468 29.831C272.436 29.061 269.166 28.2381 266.732 27.4335C264.141 26.578 261.9 25.1909 260.074 23.3067C258.145 21.337 257.171 18.6157 257.171 15.2242C257.171 10.8408 258.978 7.24358 262.543 4.50393C266.019 1.83352 271.147 0.478973 277.789 0.478973C282.136 0.478973 285.804 1.19801 288.706 2.63607C291.644 4.07414 293.834 5.94199 295.226 8.15001C296.617 10.358 297.329 12.6699 297.329 15.0165L297.225 16.4545C297.174 17.1389 296.617 17.6522 295.921 17.6522H291.053C290.339 17.6522 289.748 17.0697 289.748 16.3669V15.1163C289.748 13.3869 288.948 11.7085 287.314 9.97917C285.749 8.33537 282.151 7.46153 276.9 7.46153C270.521 7.46153 268 8.74683 266.991 9.82436C265.479 11.4519 264.747 13.1629 264.747 15.0124C264.747 16.5014 265.252 17.6665 266.259 18.575C267.423 19.6016 268.902 20.4082 270.657 20.9561C272.57 21.555 275.246 22.2068 278.637 22.8912C282.636 23.7304 285.974 24.5859 288.528 25.4251C291.257 26.3153 293.605 27.7533 295.499 29.6884C297.486 31.7294 298.493 34.4507 298.493 37.7913Z"
      fill="#295683"
    />
  </svg>