  <svg
    width="142"
    height="144"
    viewBox="0 0 142 144"
    fill="none"
    xmlns="http://www.w3.org/2000/svg"
  >
    <path
      d="M0.0268958 49.8679C4.55556 35.1063 14.2167 21.5955 27.4636 12.6738C34.0333 8.17013 41.3887 4.71755 49.1536 2.54008C56.9372 0.450203 65.095 -0.415488 73.1721 0.183366C81.2493 0.715002 89.2623 2.49527 96.808 5.51195C104.354 8.5551 111.242 13.0526 117.301 18.3914C123.304 23.777 128.651 30.0059 132.446 37.1229C136.294 44.191 138.976 51.8498 140.347 59.7225C141.797 67.5972 141.598 75.6797 140.333 83.5117C139.018 91.3396 136.528 99.0167 132.616 105.942C124.915 119.785 112.844 131.349 98.1791 137.659C90.9063 140.869 83.1311 142.937 75.2173 143.719C71.2511 143.906 67.2828 144.155 63.3228 143.872C59.3669 143.562 55.4379 142.998 51.5793 142.11C36.1404 138.533 22.1057 129.746 12.2398 117.669C11.9028 117.255 11.9689 116.652 12.3887 116.318C12.7982 115.994 13.3937 116.049 13.7349 116.436L13.7432 116.447C23.7683 127.859 37.5983 135.781 52.3754 138.655C56.0707 139.368 59.8115 139.767 63.5565 139.93C67.3097 140.067 71.0443 139.688 74.7582 139.388C82.1612 138.386 89.3368 136.188 95.9685 132.974C109.31 126.629 120.086 115.626 126.399 102.761C129.638 96.3463 131.53 89.3536 132.341 82.3344C133.077 75.3111 132.87 68.1533 131.207 61.3459C129.669 54.5304 127.142 47.9736 123.579 42.0013C119.977 36.0617 115.57 30.5986 110.359 25.9769C105.156 21.3429 99.1985 17.5848 92.8377 14.6414C86.419 11.806 79.5247 10.0624 72.4835 9.28228C65.43 8.38808 58.2006 8.83212 51.1926 10.3048C44.1473 11.6838 37.2778 14.2463 30.95 17.876C24.6161 21.5058 18.9025 26.2254 13.7845 31.611C8.70374 37.0516 4.56797 43.4027 1.26556 50.2834L1.24488 50.3262C1.09186 50.648 0.701026 50.7845 0.376368 50.6317C0.0765251 50.4973 -0.0640911 50.1673 0.0268958 49.8679Z"
      fill="#295683"
    />
    <path
      d="M64.7683 79.0162C63.9473 79.0162 63.1574 78.6944 62.5743 78.122C61.9704 77.5272 61.6416 76.7125 61.6685 75.8712C61.6892 75.1827 62.3013 58.9057 73.1308 48.2384C83.9851 37.5486 95.2551 34.2855 101.169 40.107C107.085 45.9366 103.769 57.0358 92.9143 67.7256C82.0868 78.3929 65.5582 78.9958 64.8634 79.0162C64.8303 79.0162 64.7993 79.0162 64.7683 79.0162ZM93.6215 43.3457C89.9055 43.3457 84.0534 46.12 77.5189 52.5566C71.2097 58.7713 69.0116 67.6543 68.2568 72.5266C73.2032 71.7831 82.2212 69.6179 88.5303 63.4032C97.4657 54.5997 99.4529 47.0549 96.7853 44.4273C96.0657 43.7205 94.9883 43.3457 93.6215 43.3457Z"
      fill="#295683"
    />
    <path
      d="M43.9096 70.671C43.192 70.671 42.4889 70.4245 41.9285 69.9662C41.5336 69.6423 32.2632 61.9081 35.2141 50.9821C36.4404 46.4418 39.0562 42.8344 42.5799 40.824C45.3674 39.2352 48.5499 38.7973 51.5339 39.5856C54.5633 40.384 57.1192 42.3659 58.7342 45.1626C60.7504 48.6539 61.1557 53.0455 59.8736 57.5267C56.8483 68.1045 45.0097 70.5162 44.5072 70.6139C44.3107 70.6526 44.1102 70.671 43.9096 70.671ZM48.5768 45.3134C47.6028 45.3134 46.6226 45.5822 45.69 46.1159C43.6325 47.2892 41.9988 49.6377 41.2089 52.5567C39.7697 57.8954 42.9811 62.2585 44.7884 64.1976C47.3443 63.3381 52.4313 61.0201 53.9057 55.8728C54.7225 53.019 54.5158 50.2183 53.3453 48.1875C52.5451 46.8024 51.3643 45.8694 49.9313 45.4906C49.4846 45.3704 49.0317 45.3134 48.5768 45.3134Z"
      fill="#295683"
    />
    <path
      d="M85.7656 105.643C77.0246 105.643 71.1394 98.7947 70.8541 98.4586C70.2585 97.7518 70.0186 96.8189 70.1985 95.9165C70.2978 95.4216 72.7441 83.7622 83.4868 80.7822C88.032 79.5234 92.4904 79.9165 96.0347 81.9046C98.8739 83.4954 100.886 86.0151 101.699 88.9971C102.499 91.9425 102.052 95.0733 100.439 97.819C98.4004 101.292 94.7382 103.869 90.1288 105.075C88.6089 105.472 87.1511 105.643 85.7656 105.643ZM76.7041 95.6334C78.6707 97.4137 83.1125 100.589 88.5324 99.1675C91.4978 98.3914 93.8779 96.7843 95.069 94.7555C95.8631 93.4071 96.0823 91.9629 95.7059 90.5778C95.3213 89.1662 94.3742 88.0031 92.968 87.2148C90.9064 86.0619 88.0589 85.8582 85.17 86.6628C79.8845 88.1294 77.5582 93.1239 76.7041 95.6334Z"
      fill="#295683"
    />
    <path
      d="M36.5003 72.3127C33.6507 72.3127 30.8632 71.4002 28.5224 69.6423C25.2034 67.1553 23.2989 63.3707 23.2989 59.2622V56.2068H29.5025V59.2622C29.5025 61.4458 30.5137 63.4562 32.2797 64.7782C34.0457 66.1022 36.2831 66.5238 38.4151 65.9413L46.0746 63.8534L47.7289 69.7421L40.0715 71.83C38.8887 72.1559 37.6893 72.3127 36.5003 72.3127Z"
      fill="#295683"
    />
    <path
      d="M72.0866 99.695L69.0075 96.6559C64.8283 92.5393 61.896 85.3816 61.5714 79.1119C55.2044 78.7942 47.9378 75.9038 43.7586 71.7872L40.6754 68.7501L45.0614 64.4298L48.1446 67.4669C51.7427 71.0111 59.3298 73.5573 64.3775 72.9319C65.3308 72.8077 66.2841 73.1336 66.9624 73.8017C67.6406 74.4698 67.9674 75.4109 67.8474 76.3478C67.2022 81.322 69.7974 88.7934 73.3976 92.3397L76.4788 95.3829L72.0866 99.695Z"
      fill="#295683"
    />
    <path
      d="M85.3292 117.312H81.7704C77.6884 117.312 73.898 115.502 71.3731 112.342C68.8482 109.183 67.9466 105.13 68.9019 101.221L70.9533 92.8224L76.9853 94.2544L74.9319 102.651C74.4253 104.728 74.903 106.883 76.2471 108.562C77.5891 110.24 79.6033 111.202 81.7725 111.202H85.3313V117.312H85.3292Z"
      fill="#295683"
    />
  </svg>