<svg width="200" height="200" fill="none" xmlns="http://www.w3.org/2000/svg">
  <g>
    <path d="M150.663 101.15c-.006 1.397-.013 2.79-.023 4.184.007-.95-15.913 4.606-17.477 7.04-1.38 2.146-1.853 4.73-2.66 7.15-1.21 3.623-3.223 6.98-5.856 9.75-.6.633-1.257 1.25-2.067 1.573-1.907.76-4.027-.297-5.737-1.43-5.446-3.613-10.11-8.393-13.63-13.897-2.313-3.613-3.5831-10.98-9.0165-10.53-1.0266-4.403 4.4634-5.3829 7.6265-5.8596 3.354-.5066 5.72-1.4766 6.727-4.67.267-.85.15-1.96.043-3.1066-.053-.5734-.103-1.1567-.103-1.7167 0-.1733.007-.3467.017-.5167.08-1.1733.463-2.2266 1.63-2.8866 1.13-.6367 16.516 2.64 16.246-1.4567.07 1.0833.057 2.18.06 3.2633 0 .5634.01 1.1234.034 1.6734.116 2.2766.57 4.41 2.416 6.1.214.1966.447.3866.7.57.047.0333.097.07.144.1 2.49 1.74 5.62 2.2633 8.63 2.7366 4.1.6434 8.2 1.2866 12.296 1.9296z" fill="#EDD2AE"/>
    <path opacity=".1" d="M129.736 96.4837c-1.74-.16-3.38-1.0033-5.023-1.66a25.1542 25.1542 0 00-5.867-1.5566c-2.396-.3334-4.866-.32-7.213-.9767-.767-.2133-2.413-.5467-3.04-.9367-.053-.5733-.103-1.1566-.103-1.7166.55.1133 1.103.21 1.663.2833 4.103.56 8.343.1233 12.24-1.2833 1.18-.4234 2.41-.9434 3.637-.7067.143.0267.28.0667.413.11.55.1867 1.023.51 1.437.9233-.467.2634-.934.5167-1.404.75.117 2.2767.57 4.41 2.417 6.1.213.1967.447.3867.7.57.047.0334.097.07.143.1z" fill="#454546"/>
    <path d="M81.1208 159.97c-1.613.071-3.2046-1.05-3.6806-2.593-.3174-1.027-.1714-2.134-.013-3.198a178.2125 178.2125 0 014.624-21.684c.1996-.715.66-1.6 1.3893-1.461.2617.05.4757.232.676.408 1.5143 1.326 3.0283 2.653 4.543 3.98 3.798 3.328.2377 7.053-1.444 10.851-.6567 1.482-4.9837 13.647-6.0947 13.697z" fill="#EDD2AE"/>
    <path opacity=".05" d="M81.1208 159.97c-1.613.071-3.2046-1.05-3.6806-2.593-.3174-1.027-.1714-2.134-.013-3.198a178.2125 178.2125 0 014.624-21.684c.1996-.715.66-1.6 1.3893-1.461.2617.05.4757.232.676.408 1.5143 1.326 3.0283 2.653 4.543 3.98 3.798 3.328.2377 7.053-1.444 10.851-.6567 1.482-4.9837 13.647-6.0947 13.697z" fill="#454546"/>
    <path d="M93.8699 101.972c-5.1764 2.038-8.1954 7.318-10.812 12.228-1.847 3.465-3.656 6.826-5.7293 10.168-.5357.863-2.0867 5.591-1.6504 6.508.253.532.7827.867 1.2874 1.171 5.9563 3.586 12.3726 6.851 19.3073 7.35.281-3.803 1.041-11.206 1.041-15.029-.121-3.745-.5344-7.473-.947-11.197-.2887-2.602-.577-5.205-.8657-7.807-.1937-1.741.081-3.025-1.6313-3.392z" fill="#FBF9F0"/>
    <path opacity=".05" d="M93.8699 101.972c-5.1764 2.038-8.1954 7.318-10.812 12.228-1.847 3.465-3.656 6.826-5.7293 10.168-.5357.863-2.0867 5.591-1.6504 6.508.253.532.7827.867 1.2874 1.171 5.9563 3.586 12.3726 6.851 19.3073 7.35.281-3.803 1.041-11.206 1.041-15.029-.121-3.745-.5344-7.473-.947-11.197-.2887-2.602-.577-5.205-.8657-7.807-.1937-1.741.081-3.025-1.6313-3.392z" fill="#454546"/>
    <path d="M3.5604 69.3226c6.1954-20.5037 19.414-39.269 37.536-51.6577 8.9874-6.2553 19.0507-11.05 29.6747-14.0733C81.4201.6886 92.5804-.5121 103.63.3186c11.05.739 22.012 3.2106 32.337 7.4006 10.323 4.226 19.746 10.4744 28.036 17.887 8.212 7.4794 15.528 16.131 20.721 26.0154 5.264 9.8166 8.933 20.4543 10.809 31.3883 1.984 10.9367 1.712 22.1631-.021 33.0401-1.8 10.871-5.205 21.536-10.559 31.154-10.536 19.226-27.047 35.288-47.112 44.05-9.95 4.457-20.588 7.329-31.414 8.417-5.427.261-10.8562.606-16.2739.211-5.411-.431-10.7873-1.212-16.0653-2.446-21.1213-4.968-40.324-17.172-53.8214-33.947-.4613-.574-.3703-1.413.203-1.875.561-.451 1.376-.374 1.8427.165l.011.013c13.7157 15.852 32.635 26.853 52.8517 30.844 5.0543.99 10.174 1.544 15.2973 1.77 5.1347.19 10.2439-.338 15.3259-.752 10.129-1.393 19.946-4.445 29.019-8.909 18.254-8.813 32.996-24.096 41.632-41.963 4.43-8.91 7.019-18.62 8.128-28.368 1.008-9.755.725-19.6964-1.551-29.1504-2.106-9.4657-5.563-18.5734-10.437-26.8684-4.927-8.2483-10.955-15.8356-18.086-22.255-7.118-6.4356-15.27-11.6563-23.971-15.7443-8.783-3.9387-18.212-6.3597-27.847-7.4423-9.6492-1.2417-19.5412-.6244-29.1292 1.421-9.638 1.9153-19.0384 5.473-27.6927 10.5166-8.6667 5.0417-16.4813 11.5967-23.485 19.076-6.9496 7.5554-12.6093 16.379-17.1276 25.935l-.029.06c-.21.4457-.7434.6364-1.188.4254-.4054-.1914-.5987-.6487-.473-1.065z" fill="#F4B935"/>
    <path d="M147.453 56.7667c.047 3.8167-.48 7.58-1.586 11.15-1.327 4.2967-3.49 8.31-6.494 11.81-2.483 2.89-6.843 6.6234-11.493 9.2367-.467.2633-.933.5167-1.403.75-3.424 1.7333-6.914 2.7633-9.857 2.3333-.46-.07-.907-.1866-1.353-.3033-1.857-.4967-3.557-1.1133-5.114-1.8233-.566-.2534-1.116-.5234-1.646-.8-.684-.36-1.334-.7334-1.954-1.1234-9.3831-5.8733-12.0965-14.8433-12.5365-15.77-.3966-.84-.5866-1.76-.7633-2.6733-1.79-9.3367-3.46-19.32-.26-28.4867 2.98-8.5333 9.9738-15.67 18.4338-18.8566 6.463-2.4334 13.746-4.2467 20.166-1.7 12.62 4.9966 15.717 24.3833 15.86 36.2566z" fill="#EDD2AE"/>
    <path opacity=".1" d="M145.867 67.917c-1.327 4.2967-3.49 8.31-6.494 11.81-2.483 2.89-6.843 6.6234-11.493 9.2367-.467.2633-.933.5167-1.403.75-3.424 1.7333-6.914 2.7633-9.857 2.3333-.46-.07-.907-.1866-1.353-.3033-1.857-.4967-3.557-1.1133-5.114-1.8233-.566-.2534-1.116-.5234-1.646-.8-.684-.36-1.334-.7334-1.954-1.1234.844-.0033 1.77.1234 2.56.0634 1.65-.13 3.29-.3834 4.927-.6334 2.723-.42 5.5-.8566 7.94-2.1366 3.1-1.6234 5.407-4.5167 6.82-7.7167 1.413-3.2033 1.993-6.71 2.26-10.2.263-3.4233.183-7.0733-1.607-10.0033 5.087 2.34 9.97 5.1266 14.57 8.3233.527.3633 1.06.7467 1.42 1.28.197.29.33.61.424.9433z" fill="#454546"/>
    <path d="M151.51 52.6834v.0067c-.04 1.0167-.11 2.14-.233 3.3167-.074.7033-.164 1.4233-.277 2.15-.85 5.55-2.933 11.35-7.81 11.4833 2.347-.0633-4.583-20.0967-5.343-21.6133 1.163 6.0766 1.336 12.34.513 18.47-.017-.0234-.037-.0434-.053-.0667-3.147-3.8433-6.417-7.77-10.777-10.14-3.577-1.94-7.653-2.7033-11.513-3.9967-3.37-1.1333-11.027-4.2833-13.63-8.76-1.04-1.7833-1.277-3.78-.117-5.9433-2.247 4.1967-5.3135 8.4867-8.9968 11.54-8.2833 6.8667-6.0867-8.5267-3.95-12.9933-1.9233 2.7266-4.9567 4.6466-8.2433 5.22 2.1033-.3567 6.93-8.61 8.38-10.41 2.1266-2.64 4.14-5.98 6.9533-7.9334.72-.5033 1.51-.92 2.1167-1.5533a4.842 4.842 0 00.4266-.5133c.2767-.3767.52-.78.7834-1.1667 2.2801-3.3367 6.2401-5.2167 10.2271-5.87 6.33-1.0333 14.11-1.7667 19.716 1.4933 6.11 3.55 13.244 8.3134 16.98 14.4534 1.114 1.83 2.014 3.7966 2.72 5.89.144.4233.277.85.407 1.2866.5 1.6867.883 3.4534 1.163 5.29.05.3234.097.65.137.9767.283 2.14.43 4.3733.46 6.69.01.74 0 1.66-.04 2.6933z" fill="#F37059"/>
    <path opacity=".15" d="M151.51 52.6904c-.077 1.1067-.12 2.21-.234 3.3167-1.406.1633-3.006-.7067-4.03-1.8234-1.076-1.174-1.989-2.529-2.601-4.0023-.509-1.2253-1.283-3.6503-.534-4.9307.295-.5043 1.043-.802 1.485-1.2046.599-.545 1.117-1.1774 1.542-1.8664.848-1.3776 1.323-2.9926 1.295-4.614-.047-2.8243-1.473-5.4136-2.309-8.112 1.632 1.8697 2.28 4.1014 3.259 6.2937.18.4033.303.8467.407 1.2867.036.1633.073.3266.106.49.184.8633.367 1.7266.537 2.5933.17.87.22 1.8433.487 2.6867.053.1666.11.3333.17.4966.283 2.14.43 4.3734.46 6.69.01.7397 0 1.6597-.04 2.6997z" fill="#454546"/>
    <path d="M141.252 59.6256c1.317-2.7737-.054-11.597-7.595-23.307-7.418-11.5177-18.074-17.9367-32.801-15.0517-.8895.1743-1.9415.2357-2.8465.317 2.3265-.209 4.9255-1.9727 7.5105-2.2587 3.03-.335 6.119.0127 9.123.3807 6.045.7407 12.067 2.116 19.255 8.7583 1.418 1.3104 12.023 12.5227 12.023 32.857-1.188-.801-3.198-1.7563-4.669-1.6956z" fill="#29568A"/>
    <path d="M150.814 54.5138c.383 1.4587.39 2.979.216 4.4607-.542 4.637-2.942 9.0767-6.81 11.8713-1.995 1.442-4.586 2.456-7.044 1.8037-2.325-.6167-4.049-2.6337-4.823-4.813-1.69-4.759-1.235-15.6037 3.247-19.0853 5.154-4.0034 13.696-.0244 15.214 5.7626z" fill="#29568A"/>
    <path d="M117.609 81.7781c7.666 1.9983 12.987.5577 17.68-2.362 6.763-4.2067 6.934-7.226 7.708-9.03-10.412 11.3937-16.496 11.229-25.388 11.392z" fill="#29568A"/>
    <path d="M118.131 84.4315c-1.12-.1613-2.219-.796-2.701-1.8187-1.939-4.1116 2.357-4.4883 5.102-3.1966.861.405 1.76.869 2.254 1.6826 1.673 2.756-2.948 3.5787-4.655 3.3327z" fill="#29568A"/>
    <path d="M151.678 55.939c.326 1.366.315 2.7944.142 4.1884-.538 4.363-2.736 8.5616-6.228 11.2316-1.802 1.3777-4.131 2.3604-6.323 1.7757-2.072-.5527-3.592-2.428-4.259-4.4663-1.457-4.4517-.925-14.646 3.124-17.9684 4.657-3.8203 12.253-.1806 13.544 5.239z" fill="#13355A"/>
    <path d="M171.526 132.677c.033.697-.397 1.317-.817 1.87-4.003 5.273-8.796 9.933-14.166 13.767-3.51-4.96-6.594-10.23-9.204-15.73-.61 3.556-1.16 7.123-1.653 10.7-.2 1.433-.39 2.87-.57 4.306-.58 4.64-.097 10.71-1.547 15.104-1.546 4.7-5.003 3.356-10.086 3.54-4.46.163-8.92.25-13.38.31-6.914.09-14.26-1.37-21.0068.21-1.5134.356-2.7.603-3.6367.71-3.81.43-3.4333-1.53-3.7933-8.527-.83-16.273-.3334-32.573-.34-48.857-.001-2.653.274-5.777 2.19-7.812 1.9716-2.093 4.8013-1.915 7.3338-2.7317.893-.288 1.785-.576 2.678-.864.501-.1617 1.179-.2607 1.438.1976.086.1527.099.334.118.508.104.9271.52 1.5771.929 2.3781.385.752.548 1.567.769 2.397.513 1.925 1.067 3.838 1.661 5.739a140.3205 140.3205 0 002.943 8.46c.285.743 1.1 1.994 1.1 2.775 0-.276 8.88-7.743 9.944-8.956 3.756-4.287 6.4-10.09 8.053-15.5137.423-.99 18.75 3.8937 20.66 4.3537.763.186 1.557.386 2.153.9.437.376.73.89 1.017 1.393 5.353 9.41 10.913 18.823 16.63 27.95.24.383.487.787.56 1.23.013.063.02.126.023.193z" fill="#FBF9F0"/>
    <path opacity=".1" d="M145.713 143.288c-.211 1.435-.417 2.869-.596 4.302-.58 4.64-.097 10.71-1.547 15.104-1.547 4.7-5.003 3.356-10.087 3.54-4.46.163-8.92.25-13.38.31-6.913.09-14.26-1.37-21.0064.21-1.5133.356-2.7.603-3.6367.71.4267-1.01 3.3-1.63 4.0267-1.734 2.1964-.313 4.4434-.183 6.6264-.576 4.014-.724 7.954-1.827 11.794-3.194 4.226-1.503 8.336-3.326 12.336-5.356 2.176-1.107 4.656-2.121 6.433-3.794 3.829-3.605 5.222-8.388 6.581-13.365 1.25-4.58 3.372-9.591 3.433-14.347.016-1.197 1.173-1.38 2.006-.69.489.404.769 1.003.985 1.599.637 1.752.85 3.624 1.058 5.477.189 1.672.377 3.345.565 5.017.126 1.116.252 2.235.256 3.358-1.772-2.243-2.99-4.919-3.517-7.727-.042-.225-.107-.485-.317-.574-.318-.135-.881 3.071-.956 3.517-.456 2.699-.657 5.493-1.057 8.213z" fill="#454546"/>
    <path d="M90.4985 170.869h25.4855v-4.681H89.3875l1.111 4.681z" fill="#29568A"/>
    <path d="M83.9999 135.287c1.9134 11.73 5.4234 23.546 6.5434 35.56-14.6834-1.074-29.42-.59-44.1134-.184-3.7833.104-7.5666.207-11.35.284-.9333.02-2.12.18-3.34.276a93.0898 93.0898 0 01-7.2166-6.98c-2.22-10.386-5.57-30.316-6.2234-33.63-.9-4.563-1.31-5.936 3.6534-6.233 5.5433-.333 12.59.267 18.15.31 7.8866.06 15.7733-.01 23.66-.203 4.0733-.104 8.07-1.264 12.16-1.177 1.8333.04 4.05.163 5.6266 1.323 2.69 1.98 1.9434 7.554 2.45 10.654z" fill="#13355A"/>
    <path d="M178.357 167.85c-.123.048-.246.093-.368.135-4.409 1.52-9.15 1.716-13.813 1.826-7.792.183-24.502-.329-28.393-.541-2.088-.114-2.815-.39-4.879.058-1.151.249-3.159 1.738-4 2.562-1.274 1.25-5.119 1.132-6.606.143-1.486-.989-2.69-2.42-4.331-3.122-5.545-2.371-11.307 4.758-17.2305 3.622 1.131-6.642 8.2065-10.254 14.4265-12.845 2.266-.943 4.791-1.898 7.106-1.084 1.725.606 2.981 2.089 4.556 3.017 2.528 1.491 5.645 1.442 8.576 1.296 11.309-.563 16.349-3.964 27.439-5.959-.849.153-4.266-8.697-3.814-9.682.253-.55.773-.921 1.267-1.272 3.629-2.578 7.811-8.519 11.661-9.962 4.733 8.115 7.084 18.842 10.319 27.713.239.653.48 1.349.338 2.029-.22 1.044-1.235 1.667-2.254 2.066z" fill="#EDD2AE"/>
    <path d="M44.9455 145.829c.3714 1.905 2.202 2.84 3.9684 1.863 1.33-.736 2.7916-4.031.736-4.752-2.2754-.798-3.0154 1.73-2.3807 3.368.8987 2.318 3.4647 2.739 5.6257 2.096 1.81-.538 5.838-2.868 3.832-5.243-.52-.616-1.425-.576-2.1704-.495-1.4196.154-2.5013 1.333-3.0843 2.571-1.0117 2.15-.6077 5.294 1.282 6.88 1.2807 1.075 4.279 1.106 4.3777-1.1.0413-.926-.637-1.786-1.5257-2-1.1557-.278-2.2593.556-2.8827 1.46-1.4623 2.121-.1983 5.073 2.5604 4.56.4616-.086-.0357-.737-.419-.666-1.7744-.404-2.413-1.254-1.916-2.549.163-.478.423-.888.78-1.231.2733-.371.6283-.645 1.066-.821 1.617.799 1.934 1.452.9513 1.959-1.759 1.662-3.494-.949-3.8747-2.484-.3333-1.345-.1703-2.798.5317-4.003.3367-.578.8047-1.188 1.4-1.523.5357-.302 1.0967-.424 1.683-.367.8277.184 1.0707.62.7283 1.308-.4843 2.933-6.8703 4.971-8.207 1.606-.1803-.454-.3626-1.225-.221-1.703.292-.985 1.8527-1.239 2.0254-.185.3353 2.048-3.4644 4.803-4.0914 1.587-.0746-.38-.8653-.599-.775-.136z" fill="#F6BB35"/>
    <path opacity=".6" d="M94.4801 27.3647c.4356-.7534 1.083-1.3457 1.778-1.8354.3623-.231.6933-.466 1.1413-.658.4383-.1823.944-.2556 1.385-.232.4453.016.8407.0617 1.2506.0827.408.0233.802.0457 1.183.0063.757-.0603 1.469-.4643 2.198-.8533l.165.252c-.3.2957-.61.591-.977.842-.182.1267-.376.2463-.586.3513-.209.104-.44.181-.666.242-.455.1207-.906.17-1.329.2124-.4186.045-.8649.066-1.2183.117-.3623.0543-.599.1403-.8696.261-.1377.07-.2654.1233-.4474.2293l-.519.269c-.3473.1777-.7083.334-1.0896.4797-.3817.1466-.7787.282-1.257.378l-.142-.144z" fill="#FBF9F0"/>
    <path opacity=".15" d="M138.317 66.4369c-.004-.0033-.007-.0033-.01-.0066-3.147-3.8434-6.417-7.7701-10.777-10.1401-3.577-1.94-7.653-2.7033-11.513-3.9966-3.37-1.1333-11.027-4.2834-13.63-8.76.103-2.1067.956-1.1434 2.01-.3267 1.366 1.0633 2.693 1.9733 4.323 2.6 3.42 1.32 7.137 1.5967 10.73 2.3233 3.373.6834 6.65 1.77 9.92 2.8534.663.22 1.333.4433 1.927.8166.613.3834 1.12.9167 1.606 1.4534 3.3 3.64 6.137 8.3233 5.414 13.1833z" fill="#454546"/>
    <path opacity=".4" d="M102.91 18.7788c.315-.635.819-1.128 1.353-1.5417.276-.1973.552-.3906.839-.5633.291-.167.579-.3313.877-.4773.594-.3007 1.209-.6037 1.872-.805.657-.2024 1.381-.3137 2.063-.1547l-.034.2993c-.646.0927-1.196.347-1.729.645-.532.304-1.028.689-1.539 1.0964-.513.4226-1.045.772-1.603 1.0576-.279.1437-.567.268-.888.3634-.316.1013-.651.1856-1.07.2236l-.141-.1433z" fill="#FBF9F0"/>
    <path d="M91.3102 64.8425c.109-.259.25-.4977.384-.7443.1477-.236.3057-.4657.468-.6947.327-.456.713-.8683 1.1294-1.252.4256-.3723.8783-.7213 1.37-1.0143.4943-.287 1.0163-.5347 1.5646-.707 1.1004-.355 2.2714-.454 3.3977-.2694 1.1211.181 2.2171.6537 3.0201 1.4507l-.197.2283c-.907-.5683-1.927-.807-2.9258-.8403-1.0016-.0263-1.9983.1947-2.868.6087-.8803.4316-1.6873.9676-2.5026 1.5553-.412.2893-.817.6017-1.257.9017-.4357.3053-.8867.6156-1.4197.8956l-.1637-.1183zM111.348 62.4375c.704-1.4777 2.061-2.5943 3.552-3.2903 1.513-.6754 3.2-.953 4.846-.7837 1.639.161 3.215.685 4.637 1.4487a15.3764 15.3764 0 013.822 2.897l-.207.2186c-1.249-.96-2.591-1.7596-3.992-2.3596-1.402-.5944-2.888-.9414-4.354-.9554-1.452-.0093-2.881.2687-4.231.754-.678.24-1.331.549-1.979.903-.646.3617-1.269.7854-1.927 1.2807l-.167-.113z" fill="#13355A"/>
    <path d="M95.2419 62.2074c.0496.307.0853.6074.1543.9024.054.2953.1183.5866.2047.8706.1706.5674.364 1.1197.622 1.641.246.5317.5376 1.0257.9123 1.3557.364.3433.784.4223 1.1437.2123.368-.2086.6353-.746.7877-1.284.1513-.5393.214-1.1643.289-1.7646.1346-1.211.1673-2.4337.147-3.6607l.3003-.0237c.2581 1.2237.3981 2.4824.3951 3.7454.001.3156-.005.632-.015.9486-.008.3047-.031.6667-.094 1.007-.062.3457-.1554.697-.3168 1.054-.1596.3527-.4013.73-.8073 1.0267-.406.3007-.9464.448-1.4667.3797-.5253-.0677-.9613-.3207-1.2787-.5964-.3283-.2753-.5566-.5936-.7573-.91-.1953-.3346-.3227-.6256-.4527-.952-.2373-.644-.379-1.3206-.3783-1.9993-.007-.675.1117-1.3523.4087-1.963l.202.0103zM114.666 61.0053c.309 1.679.147 3.4044.681 4.8664.126.3733.278.6863.501.9856.218.2974.491.554.784.7774.585.4436 1.328.6813 1.969.5256.316-.082.619-.257.849-.5183.235-.2553.404-.5883.524-.9513.239-.7337.289-1.5554.333-2.392.095-1.6697.131-3.3424.162-5.018l.301-.0084c.206 1.675.341 3.3614.382 5.0504.021.8346.059 1.7296-.17 2.6723-.117.469-.312.961-.657 1.398-.335.4373-.825.7893-1.386.9743-.562.1794-1.162.185-1.689.0487-.532-.131-1.01-.3633-1.433-.6593-.427-.293-.782-.672-1.087-1.0904-.295-.4163-.526-.9396-.647-1.392-.253-.9433-.254-1.8733-.146-2.737.103-.8693.296-1.682.528-2.5226l.201-.0094zM105.831 63.9448c.092.195.168.3984.247.6037.064.208.113.422.158.6373.028.216.063.435.085.655.003.219.011.4407.003.661-.044.882-.269 1.7397-.569 2.5494-.31.8093-.713 1.5683-1.144 2.2993-.43.7327-.896 1.4357-1.371 2.128l-.262-.4683 1.603.0536c.534.0127 1.068.0514 1.602.077l.003.3014c-.534.0743-1.067.1686-1.601.2243l-.8.095c-.267.035-.534.053-.8.08l-.908.0923.458-.8963c.379-.743.746-1.4853 1.071-2.2327.328-.7463.59-1.5056.849-2.2383.258-.735.486-1.456.667-2.192.192-.739.348-1.4837.514-2.3777l.195-.052zM106.397 77.5198c.161.0136.32.0296.475.0523l.47.026c.157-.0017.312.0067.466.0097l.462-.0204c.611-.052 1.216-.131 1.793-.3166.58-.1664 1.142-.393 1.66-.6957.528-.286 1.006-.654 1.438-1.0677l.754-.723.007 1.0117c.005.7043-.042 1.412-.18 2.1097-.131.6966-.364 1.3846-.715 2.0136-.356.6297-.828 1.187-1.451 1.5934-.314.194-.667.3323-1.045.369-.375.0376-.79-.0557-1.084-.3124l.187-.2366c.529.3046 1.154.023 1.603-.336.22-.183.42-.4274.592-.6764.169-.2533.325-.5126.439-.797.235-.5616.368-1.171.419-1.7926.057-.621.032-1.2554-.038-1.8827l1.43.5427c-.464.5653-1.051 1.0143-1.668 1.3963a6.6138 6.6138 0 01-2.025.7563c-.707.133-1.436.1527-2.135.0147-.697-.1317-1.371-.3987-1.916-.846l.062-.1923zM93.3538 31.3937c-.5986.681-1.143 1.401-1.599 2.1743-.4696.7637-.86 1.5727-1.1873 2.404-.6593 1.662-1.0773 3.411-1.2777 5.192-.2353 1.7773-.2543 3.5827-.2226 5.39.0276.8997.0353 1.8267.138 2.6823.1026.8544.344 1.677.8963 2.2224l-.4943-.0737c1.5176-.7623 2.99-1.6107 4.2996-2.6663 1.3104-1.053 2.437-2.322 3.3544-3.7414.4646-.7036.8546-1.4606 1.2733-2.215l1.2377-2.261c.8208-1.5096 1.6638-3.0073 2.4948-4.511l.266.1414c-.745 1.5496-1.464 3.113-2.234 4.6496l-1.1402 2.3127-.5743 1.1583-.3037.5857-.3276.575c-.895 1.5213-2.0354 2.932-3.3874 4.1037-1.351 1.1736-2.864 2.1186-4.398 2.962l-.489.269-.4326-.406c-.4304-.4037-.75-.907-.9557-1.4144-.2093-.5086-.3283-1.0203-.403-1.5146-.0717-.495-.1043-.9784-.1303-1.4377a63.3362 63.3362 0 01-.0677-1.386c-.044-.9263-.0293-1.8593.0157-2.794.0433-.9347.127-1.8723.2603-2.807.1447-.933.3477-1.8597.6193-2.7717.292-.904.6174-1.8 1.0624-2.6416.4303-.8467.9426-1.6507 1.5346-2.387.308-.3597.6214-.711.9624-1.0344.1646-.1663.3416-.3203.516-.475.1786-.1506.3703-.2866.5526-.4283l.141.1437z" fill="#13355A"/>
    <path d="M101.35 37.7494c-.027.029-.037.0573-.09.084-.037.0297-.13.029-.174-.0023-.092-.061-.11-.1274-.135-.188-.033-.122-.058-.2524.044-.4097.059-.0793.172-.1183.256-.112.074.0043.141.0193.206.052.132.0627.221.1713.281.2753.121.2107.161.4324.196.6347l.115.5777c.073.3846.127.7716.239 1.146l.146.565.073.282.095.275c.469 1.475 1.135 2.882 2.078 4.084.916 1.2206 2.082 2.238 3.378 3.0573 1.293.8283 2.721 1.4517 4.192 1.956 1.477.505 3 .8523 4.554 1.1377 1.552.2913 3.135.5663 4.673 1.0663.768.2493 1.521.5613 2.235.9483.715.385 1.378.8507 2.009 1.3477 1.262.9987 2.354 2.166 3.442 3.3167l-.214.2113c-1.162-1.0793-2.343-2.134-3.597-3.05-.632-.45-1.286-.8627-1.975-1.191-.687-.3297-1.406-.5873-2.147-.789-1.482-.4067-3.033-.593-4.608-.8233-1.577-.2217-3.191-.5177-4.757-.9827-1.574-.452-3.115-1.098-4.549-1.977-1.425-.8877-2.703-2.0613-3.701-3.4387-.133-.1663-.237-.3526-.347-.534l-.328-.5453c-.116-.1773-.195-.375-.29-.5633-.092-.1897-.181-.381-.266-.5737-.168-.3857-.285-.7907-.427-1.1827-.139-.3936-.205-.8073-.304-1.209l-.067-.3026-.043-.3064c-.03-.2036-.058-.4076-.081-.6116-.06-.406-.069-.816-.082-1.223l-.007-.6097c.005-.1857.001-.3527-.038-.482-.019-.064-.042-.1077-.066-.1333-.01-.0147-.032-.0254-.046-.0337-.001-.003.035-.018.035-.039-.009-.0267-.05.057-.044.119-.002.03.013.0617-.005.0557-.008-.0064-.048.0043-.043.007-.006.013.012-.0044.023-.0067l.161.121zM82.5202 40.5088c.3043-.4916.5663-1.0126.8306-1.5396l.817-1.559c.541-1.042 1.1154-2.0664 1.6804-3.101 1.1713-2.042 2.4183-4.0694 3.9343-5.913 1.5033-1.843 3.2563-3.535 5.3277-4.754 2.059-1.2334 4.4193-1.927 6.7858-2.0624l.027.3c-2.3068.3704-4.4932 1.2034-6.3702 2.482-1.8846 1.2734-3.447 2.9617-4.7866 4.8104-.663.9316-1.3094 1.8803-1.9197 2.861-.622.9723-1.2487 1.9506-1.8553 2.949-.6324.983-1.269 1.9723-1.9727 2.9263-.3453.4807-.713.9493-1.0903 1.411-.3854.45-.7664.927-1.25 1.3147l-.158-.1254zM101.943 17.1525l1.737-1.3686.218-.1707.232-.151.464-.3023.93-.606c1.275-.7494 2.608-1.4137 4.002-1.9334 2.78-1.0563 5.766-1.561 8.746-1.5773 2.983.0123 5.952.538 8.777 1.463 2.828.926 5.52 2.247 7.988 3.8943 4.968 3.2617 9.032 7.8254 11.817 13.0387.693 1.305 1.32 2.6493 1.835 4.0363.514 1.3864.937 2.8011 1.301 4.2281.728 2.8553 1.21 5.7566 1.682 8.6506l-.297.0507c-.568-2.877-1.169-5.7463-1.955-8.5514-.397-1.401-.852-2.7826-1.391-4.1253-.54-1.341-1.186-2.6353-1.899-3.894-1.427-2.514-3.168-4.842-5.144-6.9343-1.98-2.0887-4.196-3.9437-6.636-5.4514-2.427-1.519-5.015-2.7773-7.727-3.6416-2.704-.878-5.524-1.4037-8.36-1.437-2.835-.0687-5.674.345-8.409 1.1726-1.374.404-2.701.9644-3.998 1.5977l-.965.496-.485.249-.243.1247-.231.1446c-.61.3927-1.232.7754-1.863 1.1547l-.126-.1567zM91.43 55.1409c.123 4.1246.739 8.225 1.8423 12.1863a49.8657 49.8657 0 002.0167 5.82c.3927.9487.8263 1.8793 1.274 2.802.4763.909.969 1.8073 1.5 2.6813 1.041 1.7594 2.206 3.4387 3.515 4.9927 1.313 1.5487 2.783 2.972 4.454 4.1283 1.664 1.1617 3.505 2.0737 5.453 2.6777.973.3057 1.971.5337 2.983.6863 1.011.1597 2.033.257 3.061.2934l-.002.3013c-4.158.261-8.468-.797-12.092-3.0767-1.809-1.138-3.456-2.54-4.878-4.131-1.4337-1.5843-2.6167-3.3696-3.6187-5.2266-.4983-.9317-.9326-1.8934-1.3206-2.87-.431-.9557-.8464-1.9177-1.2197-2.8964-.7557-1.953-1.3777-3.9543-1.8687-5.984-.503-2.027-.8373-4.0913-1.0576-6.1603-.2197-2.0693-.3104-4.15-.244-6.2227l.2023-.0016zM91.4753 102.451c2.5986-1.639 5.4093-2.9295 8.3013-3.9899.7314-.2586 1.4484-.493 2.1814-.7373.367-.1207.744-.2377 1.159-.3247.11-.017.216-.0373.33-.0493.125-.0016.238-.0163.373-.0013.262.024.575.133.786.336.118.0927.179.2006.266.304.066.103.117.205.175.3083.088.2.17.3997.228.591.128.3873.22.762.316 1.1372l.562 2.213c.777 2.943 1.688 5.852 2.717 8.721 1.031 2.868 2.194 5.69 3.418 8.488l-.273.128c-1.455-2.698-2.738-5.488-3.923-8.323-1.187-2.835-2.231-5.735-3.146-8.679-.226-.736-.455-1.475-.652-2.217-.099-.3575-.198-.7202-.311-1.0338-.053-.166-.115-.2971-.171-.4231-.03-.043-.057-.097-.08-.1336a.1142.1142 0 01-.027-.0267c-.008-.0113-.015-.025-.015-.0143-.001.0037.002.0046.006.002.003-.0014.003.0123.008.012.022-.0047-.009.0093-.017-.001-.018-.007-.081.0036-.119-.002l-.195.0263c-.295.057-.642.1533-.998.2657l-2.166.6883c-1.4374.4462-2.8631.9372-4.2984 1.4272-1.4297.504-2.873.999-4.3403 1.487l-.095-.179zM90.6557 109.205c.5247 4.634.8123 9.286 1.0787 13.937l.2886 6.982c.0887 2.327.1787 4.654.2297 6.983.1703 4.664.0143 9.336-.054 13.983-.0573 4.646.0077 9.307.7187 13.9l-.297.05c-.94-4.587-1.144-9.291-1.2464-13.952-.099-4.672-.0713-9.306-.373-13.939-.1363-2.324-.2336-4.649-.345-6.973-.0966-2.325-.1606-4.651-.2463-6.976-.053-2.326-.113-4.652-.0943-6.982l.0203-3.496.0507-1.751c.0103-.583.0353-1.168.0686-1.753l.2007-.013z" fill="#13355A"/>
    <path d="M84.2723 136.09c.6804-.041 1.3187.062 1.946.202.31.082.622.158.9294.251.3053.098.6116.194.9123.307l1.8114.662c.6023.225 1.2076.44 1.8016.694l-.0846.289c-.662-.022-1.3134-.08-1.9547-.172l-1.926-.27c-.6454-.079-1.269-.232-1.8627-.487-.297-.127-.5856-.282-.8583-.492-.2747-.204-.5384-.444-.7714-.79l.057-.194zM148.095 124.492c.233 2.583.047 5.182-.222 7.749-.161 1.281-.331 2.561-.531 3.834-.209 1.271-.415 2.54-.64 3.805-.436 2.532-.842 5.064-1.103 7.611-.26 2.547-.351 5.11-.197 7.669l-.3.027c-.408-2.561-.439-5.174-.331-7.765.104-2.595.387-5.174.693-7.735.145-1.282.331-2.555.508-3.825l.586-3.791c.104-.629.195-1.259.309-1.888.105-.628.195-1.258.323-1.887.094-.63.21-1.261.333-1.894.124-.633.211-1.27.37-1.911l.202.001z" fill="#13355A"/>
    <path d="M148.07 131.605c.089.366.244.746.382 1.116l.443 1.111.919 2.212c.617 1.473 1.262 2.936 1.872 4.413l1.843 4.427.906 2.223.439 1.121.21.571.099.296.046.163c.007.03.014.059.021.101a.59.59 0 01.008.078c-.001.031.002.04-.006.088a.414.414 0 01-.027.091c-.013.044-.101.151-.176.178l-.282-.623c1.498-.708 2.827-1.754 4.043-2.92 1.224-1.162 2.355-2.437 3.545-3.678.595-.621 1.208-1.233 1.854-1.818.647-.578 1.293-1.119 1.914-1.691.621-.571 1.221-1.16 1.765-1.786.545-.624 1.039-1.291 1.385-2.002.345-.706.504-1.475.262-2.124-.106-.293-.366-.695-.566-1.061l-.634-1.115-2.504-4.479c-1.653-2.995-3.281-6.005-4.859-9.042-1.575-3.038-3.114-6.094-4.605-9.175-.749-1.538-1.479-3.086-2.204-4.636-.37-.777-.683-1.563-1.182-2.146-.48-.589-1.203-.895-2.004-1.07-.798-.171-1.666-.284-2.503-.427l-2.531-.4098-5.061-.823-10.121-1.6457.324-.211c-.677 2.388-1.767 4.6365-3.117 6.6905-1.338 2.064-2.873 3.985-4.487 5.824-1.61 1.845-3.295 3.616-4.949 5.408l-4.951 5.399-.223-.202 4.849-5.492c1.623-1.829 3.271-3.628 4.846-5.481 1.578-1.851 3.067-3.773 4.35-5.817 1.295-2.033 2.315-4.2325 2.93-6.5275l.113-.4216.436.0643 10.144 1.499 5.073.7497 2.535.3773 1.268.189c.42.063.855.123 1.306.2193.449.0954.917.2294 1.374.452.457.2155.899.5575 1.23.9435.67.782.996 1.636 1.37 2.38.741 1.536 1.488 3.069 2.254 4.593 1.523 3.052 3.095 6.079 4.701 9.088 1.6 3.013 3.224 6.013 4.889 8.991l2.501 4.465.629 1.114.314.557c.088.156.254.443.345.717.203.556.236 1.162.153 1.7-.082.543-.262 1.029-.475 1.472-1.836 3.438-4.992 5.196-7.237 7.588-1.195 1.194-2.364 2.46-3.661 3.641-1.286 1.183-2.729 2.284-4.399 3.031l-.579-1.28a.682.682 0 00-.219.155c-.058.054-.124.18-.125.188a.6406.6406 0 00-.05.161l-.006.048-.002.025-.001.049c.001.026.004.047.004.047.003.011 0-.003-.003-.015l-.027-.108-.078-.262-.182-.552-.396-1.12-.828-2.243-1.693-4.484c-.574-1.492-1.105-3.002-1.651-4.506l-.799-2.266c-.131-.378-.252-.76-.373-1.143-.116-.388-.243-.76-.318-1.177l.2-.035zM99.1952 172.436c1.2198.398 2.5358.301 3.7468-.055 1.219-.362 2.365-.932 3.448-1.62 1.094-.676 2.146-1.445 3.295-2.101.572-.33 1.166-.635 1.788-.892.622-.247 1.259-.487 1.989-.557.729-.081 1.516.129 2.12.51.617.374 1.115.854 1.57 1.328.457.478.884.945 1.35 1.336.476.387.987.735 1.536 1.017.552.274 1.127.505 1.723.662.597.148 1.207.248 1.82.265.612.01 1.223-.043 1.817-.177a6.9815 6.9815 0 001.685-.658l.193-.106.201.076c.093.036.198.074.251.085.014.005.033-.004-.054.011-.086.025-.124.081-.107.061.032-.043.112-.174.191-.277.079-.107.176-.212.262-.301.288-.292.554-.648.868-1.006.159-.178.33-.357.524-.523.196-.175.417-.297.627-.421l.32-.187.338-.141.339-.139c.113-.045.231-.068.346-.103.927-.267 1.875-.358 2.801-.351.929.004 1.847.079 2.753.188 1.811.214 3.593.581 5.354.718l5.408.308c3.608.208 7.213.415 10.821.484 3.608.078 7.219.006 10.814-.295l.029.3c-1.799.21-3.606.364-5.415.471-1.81.114-3.623.136-5.435.152-3.625.022-7.245-.095-10.859-.211l-5.428-.176c-1.881-.11-3.65-.439-5.42-.607-.881-.087-1.756-.137-2.613-.122-.858.01-1.694.118-2.447.355-.094.031-.194.051-.282.09l-.263.117-.264.114-.235.149-.237.146c-.077.048-.13.098-.197.154-.126.114-.253.251-.384.405-.264.305-.542.685-.912 1.068-.063.069-.101.11-.144.17l-.195.284c-.01.016-.049.062-.076.092l-.045.049c-.02.02-.048.044-.073.065-.088.08-.252.172-.395.211-.328.081-.461.028-.596.012-.22-.051-.328-.098-.458-.144l.763-.057c-.644.362-1.334.635-2.045.814-.713.167-1.442.235-2.165.226-.724-.015-1.436-.14-2.13-.316-.693-.185-1.357-.455-1.995-.777-.635-.329-1.228-.736-1.781-1.193-.559-.474-1.015-.985-1.447-1.439-.436-.455-.85-.874-1.285-1.151-.438-.282-.851-.405-1.343-.375-.493.027-1.08.212-1.649.414-.569.208-1.13.468-1.686.76-1.107.592-2.223 1.26-3.386 1.893-1.167.625-2.413 1.203-3.749 1.445-1.319.255-2.75.233-3.9655-.338l.0697-.189zM131.817 163.251c3.254-.976 6.551-1.767 9.844-2.57 3.303-.766 6.604-1.519 9.93-2.202 3.327-.677 6.69-1.295 10.103-1.487 3.401-.198 6.871.019 10.143 1.023l-.082.29c-3.293-.747-6.673-.83-10.002-.483-3.333.345-6.618 1.079-9.896 1.881-1.636.414-3.287.805-4.936 1.197-1.652.379-3.312.721-4.969 1.076-1.664.326-3.331.638-5.012.887-1.677.264-3.37.459-5.079.585l-.044-.197z" fill="#13355A"/>
    <path d="M170.365 135.59c.796 1.666 1.532 3.336 2.217 5.059.321.869.628 1.749.875 2.652.12.451.225.911.322 1.366l.284 1.336c.4 1.778.897 3.54 1.43 5.294l1.656 5.258-.284.099c-.759-1.68-1.505-3.366-2.173-5.09-.673-1.722-1.305-3.47-1.845-5.26-.132-.449-.271-.897-.377-1.353-.108-.435-.22-.857-.35-1.283-.253-.85-.512-1.707-.787-2.571-.261-.868-.535-1.745-.741-2.653-.213-.904-.386-1.832-.419-2.791l.192-.063zM156.473 148.724c.536.573.937 1.212 1.303 1.868.172.333.35.663.512 1.002.156.341.316.68.458 1.028l.873 2.077c.286.694.582 1.384.842 2.092l-.271.132c-.477-.602-.92-1.22-1.331-1.854l-1.239-1.898c-.424-.628-.778-1.29-1.037-1.997-.132-.353-.227-.724-.285-1.113-.058-.389-.082-.794-.006-1.248l.181-.089zM99.8086 169.003c.8264-1.142 1.8584-2.09 2.8874-3.023 1.037-.927 2.131-1.783 3.23-2.632 2.229-1.654 4.534-3.214 7.012-4.516.62-.324 1.253-.629 1.913-.896.328-.135.668-.254 1.02-.354.176-.05.36-.089.548-.123l.291-.035c.096-.007.184-.001.277-.002l.548.003.541.064.27.034.263.059.526.121c.684.207 1.355.449 1.985.759 1.275.595 2.453 1.327 3.653 1.999 1.197.674 2.414 1.311 3.726 1.67l-.068.293c-1.383-.268-2.709-.804-3.945-1.432-1.248-.612-2.461-1.274-3.707-1.772-.619-.263-1.252-.448-1.881-.602l-.473-.08-.236-.04-.236-.015-.469-.031-.463.022c-.076.004-.158.003-.227.012l-.193.035c-.135.033-.277.07-.422.119-.291.1-.588.22-.884.359-.592.275-1.181.594-1.762.935-1.156.693-2.308 1.418-3.436 2.183-1.136.752-2.275 1.509-3.388 2.302l-3.387 2.323-1.692 1.169c-.577.379-1.118.792-1.6644 1.219l-.157-.127zM87.9754 106.351c-1.0464 1.881-2.1874 3.683-3.2677 5.525l-.828 1.37c-.2743.457-.5357.923-.8163 1.376l-1.628 2.759c-1.077 1.845-2.114 3.715-3.139 5.594l-3.0437 5.659-.2693-.135c.814-1.988 1.6563-3.964 2.5626-5.912.9007-1.95 1.8267-3.892 2.796-5.818.2484-.478.4817-.965.7437-1.436l.7843-1.415c.5427-.933 1.1287-1.84 1.714-2.746.3144-.44.6157-.888.9404-1.321.3353-.425.6556-.86 1.0106-1.271.348-.415.714-.818 1.0847-1.215.3857-.387.7693-.775 1.1917-1.132l.164.118z" fill="#13355A"/>
  </g>
</svg>