<svg width="200" height="200" fill="none" xmlns="http://www.w3.org/2000/svg">
  <g>
    <path d="M3.5604 69.3226c6.1954-20.5037 19.414-39.269 37.536-51.6577 8.9874-6.2553 19.0507-11.05 29.6747-14.0733C81.4201.6886 92.5804-.5121 103.63.3186c11.05.739 22.012 3.2106 32.337 7.4006 10.323 4.226 19.746 10.4744 28.036 17.887 8.212 7.4794 15.528 16.131 20.721 26.0154 5.264 9.8166 8.933 20.4543 10.809 31.3883 1.984 10.9367 1.712 22.1631-.021 33.0401-1.8 10.871-5.205 21.536-10.559 31.154-10.536 19.226-27.047 35.288-47.112 44.05-9.95 4.457-20.588 7.329-31.414 8.417-5.427.261-10.8562.606-16.2739.211-5.411-.431-10.7873-1.212-16.0653-2.446-21.1213-4.968-40.324-17.172-53.8214-33.947-.4613-.574-.3703-1.413.203-1.875.561-.451 1.376-.374 1.8427.165l.011.013c13.7157 15.852 32.635 26.853 52.8517 30.844 5.0543.99 10.174 1.544 15.2973 1.77 5.1347.19 10.2439-.338 15.3259-.752 10.129-1.393 19.946-4.445 29.019-8.909 18.254-8.813 32.996-24.096 41.632-41.963 4.43-8.91 7.019-18.62 8.128-28.368 1.008-9.755.725-19.6964-1.551-29.1504-2.106-9.4657-5.563-18.5734-10.437-26.8684-4.927-8.2483-10.955-15.8356-18.086-22.255-7.118-6.4356-15.27-11.6563-23.971-15.7443-8.783-3.9387-18.212-6.3597-27.847-7.4423-9.6492-1.2417-19.5412-.6244-29.1292 1.421-9.638 1.9153-19.0384 5.473-27.6927 10.5166-8.6667 5.0417-16.4813 11.5967-23.485 19.076-6.9496 7.5554-12.6093 16.379-17.1276 25.935l-.029.06c-.21.4457-.7434.6364-1.188.4254-.4054-.1914-.5987-.6487-.473-1.065z" fill="#F4B935"/>
    <path d="M166.159 65.2822c-.891 2.9483-2.156 5.8206-2.846 7.9986-5.156 16.291-11.574 30.8172-17.934 46.4932-2.779 6.711-32.318 77.887-34.384 77.241-32.712-10.308-60.1593-29.976-91.7723-42.112 9.4504-43.9 28.5677-85.0282 47.5394-125.7302.6446-1.3833 1.4003-2.8783 2.799-3.4883 1.3296-.58 2.8603-.1914 4.256.2043 24.794 7.0273 49.5879 14.055 74.3819 21.0824 5.516 1.5633 11.135 3.1736 15.894 6.3709 3.928 2.639 3.445 7.3807 2.066 11.9401z" fill="#29568A"/>
    <path d="M156.855 68.313c-.794 2.6606-1.922 5.2526-2.537 7.2183-4.594 14.7013-10.314 27.8097-15.983 41.9557-3.573 8.916-7.319 17.768-11.036 26.625-2.765 6.588-5.551 13.168-8.389 19.725-1.495 3.454-3.701 11.983-7.076 14.102-1.775 1.114-4.076.192-5.958-.729a468.6477 468.6477 0 00-40.1209-17.349c-12.6567-4.785-26.511-7.362-37.359-15.519-.284-.214-.5823-.446-.703-.78-.1033-.287-.0587-.604-.0123-.905.5423-3.545 1.2123-6.619 2.156-10.066 1.3166-4.81 2.7473-9.588 4.2733-14.335 3.0553-9.505 6.4953-18.8827 10.181-28.1601 7.3143-18.4113 15.5953-36.4166 23.8783-54.4066.5747-1.248 1.2484-2.5974 2.496-3.1474 1.186-.523 2.5517-.1716 3.7967.1857 22.1213 6.351 44.2419 12.702 66.3639 19.053 4.921 1.413 9.935 2.8683 14.181 5.7553 3.505 2.383 3.076 6.6624 1.848 10.7771z" fill="#FBF9F0"/>
    <path d="M142.649 40.7402c-.18-.34-.553-.5267-.91-.6767-.673-.29-9.667-3.4867-9.84-2.9533 1.837-5.6267 3.673-8.48-2.707-10.5167-5.806-1.8533-11.82-2.9967-17.683-4.6533-2.197-.62-4.197-2.2867-6.277-.7867-2.1 1.5133-2.356 5.83-2.573 8.1467-2.7066.64-5.4099-.7467-8.1899-1.0834-.8567-.1033-1.7234-.1066-2.5967.08-1.41.3034-2.11 1.8667-2.5533 3.24-.52 1.6167-3.0167 6.6034-2.0667 8.1167.6167.9833 1.7667 1.4733 2.8467 1.9067 10.7069 4.2933 47.0729 16.55 47.5569 15.14 1.67-4.8567 3.573-9.71 4.97-14.65.123-.43.237-.9134.023-1.31zm-20.927-9.5067c-.06.0833-.13.1667-.236.2033-.097.0334-.21.02-.317.0034-2.133-.3167-4.347-.71-6.187-1.7434-.063-.0366-.13-.0766-.166-.1366-.04-.0634-.037-.1367-.037-.2067.02-.5433-.017-1.73.57-2.0767.223-.1333.51-.1433.78-.15.063 0 .13-.0033.193-.0033.927-.0133 1.594.3567 2.467.5467 1.077.2333 2.1.61 3.12.9866.123.0467.253.0934.353.1734.174.14.24.36.227.5666-.043.5334-.44 1.3934-.767 1.8367z" fill="#13355A"/>
    <path d="M128.998 67.1086a.772.772 0 00-.056-.072c-.448-.5233-1.195-.7283-1.891-.9147-2.922-.7816-5.787-1.7313-8.642-2.6963-7.489-2.5317-15.091-4.3063-22.6855-6.4103a160.5963 160.5963 0 01-11.863-3.7867c-.9646-.3497-11.3713-4.2793-11.2543-4.576-.701 1.782-1.962 3.5477-2.8597 5.2563a57.2397 57.2397 0 0011.9034 5.5917c4.949 1.6617 10.0993 2.6373 15.1213 4.0637 10.1258 2.8756 19.6968 7.573 29.9548 9.9343.906-.9043 3.202-5.0547 2.272-6.39zM122.019 82.3091c-3.514-1.264-7.005-2.544-10.565-3.7473-7.489-2.5317-15.0917-4.3063-22.6857-6.4103a160.5963 160.5963 0 01-11.863-3.7867c-2.6796-.9717-5.4953-1.7527-8.103-2.8917-.8346-.3646-1.7116-.793-2.612-.6563-1.985.3007-2.7746 3.0123-2.9063 4.7267-.013.1686-.0227.351.068.494.0943.1486.2727.2163.4387.2746 4.2246 1.484 8.4503 2.97 12.5236 4.7274 4.2197 1.8206 9.0827 2.3986 13.5017 3.6613 8.2403 2.3403 16.429 4.8043 24.561 7.458.786.2563 1.572.513 2.358.7693l10.267 3.3504c1.179-1.2787 1.649-3.172 1.207-4.8537-.086-.324-.208-.6493-.439-.892-.271-.285-.658-.423-1.029-.5517-1.585-.5486-3.156-1.1086-4.722-1.672zM92.2557 91.4797c.1047-.403.1964-.8267.104-1.2327-.171-.7523-.9286-1.2343-1.679-1.415-2.388-.574-4.801-.879-7.2023-1.544a160.5481 160.5481 0 01-11.863-3.7866c-.9647-.3497-11.3713-4.2794-11.2547-4.5754-1.0403 2.6427-4.1483 4.5377-.911 6.577 2.9417 1.853 6.6717 3.168 9.955 4.2704 4.949 1.6616 10.0994 2.6373 15.121 4.0636 1.1914.3384 4.4404 2.051 5.5664 1.7563 1.3366-.35 1.8163-2.7753 2.1636-4.1136zM102.463 112.026c.235-2.972-7.5937-4.157-9.797-4.8-5.4633-1.594-10.9923-2.949-16.4767-4.468a160.6963 160.6963 0 01-11.863-3.7874c-2.6203-.9503-5.0306-2.3953-7.735-3.147-4.3293-1.203-4.5483.3424-6.3786 3.8274-.1377.262 14.7596 7.857 16.3203 8.36 6.323 2.039 13.052 2.576 19.2604 5.007 4.9893 1.955 9.6316 5.138 14.9646 5.659a45.8544 45.8544 0 001.681-6.475c.011-.059.019-.118.024-.176zM103.262 128.443c-3.4717-1.417-7.122-2.271-10.676-3.472-7.489-2.532-15.0917-4.306-22.6857-6.41a160.8838 160.8838 0 01-11.863-3.787c-.9646-.35-11.3713-4.279-11.2543-4.576-.701 1.782-1.962 3.548-2.8597 5.256a57.2255 57.2255 0 0011.9034 5.592c4.949 1.662 10.0993 2.637 15.1213 4.064 5.291 1.502 10.419 3.502 15.5763 5.399 2.6504.975 5.3087 1.932 8.0034 2.779 2.117.666 4.9456.756 6.8503 1.764.857.454 1.645 1.149 2.613 1.217 1.339.093 2.439-1.055 3.091-2.23.432-.779.77-1.692.524-2.548-.295-1.028-1.32-1.646-2.278-2.12-.68-.337-1.369-.644-2.066-.928zM86.9925 140.667c.1843-.689.245-1.409.159-2.12-7.4323-1.184-14.613-3.172-21.8733-5.183a160.356 160.356 0 01-11.8627-3.787c-.9647-.349-11.3713-4.279-11.2543-4.576-.701 1.782-1.962 3.548-2.8597 5.257a57.2187 57.2187 0 0011.9033 5.591c4.9491 1.662 10.0994 2.638 15.1214 4.064 3.3223.944 6.6776 1.878 9.6237 3.682 2.3433 1.435 4.9909 2.198 7.7053 1.03 1.644-.708 2.8766-2.236 3.3373-3.958z" fill="#DFDDDD"/>
    <path d="M136.665 72.7806c.215.219.418.449.617.6826.199.234.395.4714.575.72.36.497.724.997 1.03 1.5324.311.532.602 1.0763.873 1.632.267.557.495 1.1323.711 1.7113l-.749-.1983.726-.6214.745-.5976.754-.5857.77-.5653a60.1341 60.1341 0 013.163-2.1344 61.0903 61.0903 0 013.292-1.92c1.113-.6096 2.252-1.1716 3.41-1.6886l.134.27c-.542.3276-1.078.6616-1.608 1.0023-.533.3367-1.064.675-1.588 1.0223-1.046.6964-2.086 1.3967-3.093 2.1424a60.1516 60.1516 0 00-2.949 2.3146c-.474.4064-.953.8047-1.432 1.2024-.472.4056-.942.8133-1.422 1.209l-1.029.847-.427-1.232a42.785 42.785 0 00-.607-1.6427c-.209-.5467-.439-1.086-.661-1.634l-.696-1.6467c-.238-.5533-.477-1.113-.701-1.7003l.162-.1213zM130.106 88.2112c.216.219.418.449.617.6827.199.234.395.4713.575.72.36.497.725.997 1.03 1.5323.311.532.603 1.0764.873 1.632.268.557.496 1.1324.712 1.7114l-.75-.1984.726-.6213.745-.5977.754-.5856.77-.5654a60.2201 60.2201 0 013.164-2.1343 61.386 61.386 0 013.291-1.92 47.2673 47.2673 0 013.41-1.6887l.134.27c-.541.3277-1.077.6617-1.608 1.0024-.533.3366-1.063.675-1.587 1.0223-1.047.6963-2.087 1.3967-3.093 2.1423a59.7063 59.7063 0 00-2.95 2.3147c-.474.4063-.953.8047-1.432 1.2023-.472.4057-.942.8134-1.422 1.209l-1.028.847-.427-1.232a42.7804 42.7804 0 00-.607-1.6426c-.21-.5467-.44-1.086-.662-1.634l-.696-1.6467c-.237-.5533-.477-1.113-.7-1.7003l.161-.1214zM123.547 103.642c.216.219.418.449.617.683.199.234.395.471.575.72.361.497.725.997 1.03 1.532.311.532.603 1.076.873 1.632.268.557.496 1.132.712 1.711l-.75-.198.726-.621.745-.598.754-.586.77-.565a59.9683 59.9683 0 013.164-2.134 61.185 61.185 0 013.291-1.92c1.114-.61 2.253-1.172 3.411-1.689l.133.27c-.541.328-1.077.662-1.608 1.002-.533.337-1.063.675-1.587 1.023-1.047.696-2.087 1.396-3.093 2.142a59.712 59.712 0 00-2.95 2.315c-.474.406-.953.804-1.432 1.202-.472.406-.942.813-1.422 1.209l-1.028.847-.427-1.232c-.191-.551-.393-1.099-.607-1.643-.21-.547-.44-1.086-.662-1.634l-.696-1.647c-.237-.553-.477-1.113-.7-1.7l.161-.121zM116.989 119.073c.215.219.418.449.617.682.198.234.395.472.575.72.36.497.724.997 1.03 1.533.311.532.602 1.076.873 1.632.267.557.495 1.132.711 1.711l-.749-.198.725-.622.745-.597.755-.586.769-.565a60.4031 60.4031 0 013.164-2.135 61.4922 61.4922 0 013.292-1.92 47.1395 47.1395 0 013.41-1.688l.133.27c-.541.327-1.077.661-1.608 1.002-.533.337-1.063.675-1.587 1.022-1.047.697-2.087 1.397-3.093 2.143a59.693 59.693 0 00-2.95 2.314c-.474.407-.953.805-1.431 1.203-.473.405-.943.813-1.423 1.209l-1.028.846-.427-1.232a42.568 42.568 0 00-.607-1.642c-.209-.547-.44-1.086-.661-1.634l-.696-1.647c-.238-.553-.478-1.113-.701-1.7l.162-.121zM110.431 134.504c.215.219.418.449.617.682.198.234.395.472.575.72.36.497.724.997 1.03 1.533.311.532.602 1.076.873 1.632.267.557.495 1.132.711 1.711l-.749-.198.725-.622.745-.597.755-.586.769-.565a60.4031 60.4031 0 013.164-2.135 61.4922 61.4922 0 013.292-1.92 47.1395 47.1395 0 013.41-1.688l.133.27c-.541.327-1.077.661-1.608 1.002-.533.337-1.063.675-1.587 1.022-1.047.697-2.087 1.397-3.093 2.143a59.693 59.693 0 00-2.95 2.314c-.474.407-.953.805-1.432 1.203-.472.405-.942.813-1.422 1.209l-1.028.847-.427-1.232c-.191-.551-.393-1.099-.607-1.643-.21-.547-.44-1.086-.662-1.634l-.696-1.647c-.237-.553-.477-1.113-.7-1.7l.162-.121zM103.872 149.934c.215.219.418.449.617.682.198.234.395.472.575.72.36.497.724.997 1.03 1.533.311.532.602 1.076.873 1.632.267.557.495 1.132.711 1.711l-.749-.198.725-.622.745-.597.755-.586.769-.565a60.4031 60.4031 0 013.164-2.135 61.4922 61.4922 0 013.292-1.92 47.1395 47.1395 0 013.41-1.688l.133.27c-.541.327-1.077.661-1.608 1.002-.533.337-1.063.675-1.587 1.022-1.047.697-2.087 1.397-3.093 2.143a59.693 59.693 0 00-2.95 2.314c-.474.407-.953.805-1.431 1.203-.473.405-.942.813-1.423 1.209l-1.028.847-.427-1.232c-.191-.551-.393-1.099-.607-1.643-.209-.547-.44-1.086-.661-1.634l-.696-1.647c-.238-.553-.478-1.113-.701-1.7l.162-.121z" fill="#20A39E"/>
    <path d="M71.2697 52.7468c4.8153.5887 9.5646 1.657 14.242 2.9397 2.3343.661 4.651 1.38 6.954 2.136 2.3053.7497 4.597 1.5387 6.8703 2.3757 4.551 1.662 9.066 3.4076 13.577 5.1576l13.537 5.2414-.105.282c-4.592-1.535-9.153-3.1537-13.722-4.751-4.571-1.5937-9.127-3.219-13.707-4.75-2.2937-.7537-4.577-1.5317-6.8757-2.2554l-3.439-1.109c-1.1506-.3526-2.2986-.7183-3.4543-1.0523-2.298-.7197-4.6157-1.3623-6.926-2.0537l-1.739-.4993c-.5797-.168-1.1657-.3083-1.7473-.473-1.157-.3617-2.3347-.6267-3.4984-.99l.0334-.1987zM63.5721 67.5245c5.4714.5094 10.7744 2.1514 15.9184 3.987 2.5716.9384 5.115 1.9364 7.6696 2.8914 2.5547.9533 5.1247 1.8646 7.6957 2.7736a289.609 289.609 0 0015.5982 4.9457c5.245 1.5053 10.539 2.8443 15.866 4.0387l-.062.2946c-5.381-.9743-10.721-2.1826-16.024-3.538-5.306-1.3436-10.5662-2.8786-15.7829-4.555-2.6106-.832-5.196-1.7413-7.7713-2.6776-2.568-.953-5.1003-1.9754-7.6473-2.928a193.565 193.565 0 00-7.646-2.7944c-.6394-.2283-1.288-.4203-1.9334-.6326-.6503-.1877-1.2986-.3934-1.954-.5667-1.2993-.4093-2.6263-.696-3.9543-1.038l.0273-.2007zM60.0546 82.7013c.439.5153 1.0847.7663 1.7437.994.6643.2293 1.3183.4787 1.984.697.6736.199 1.327.4473 1.9986.6497.6727.2 1.3374.4176 2.015.603 1.343.4063 2.6964.7826 4.051 1.168 1.3517.3933 2.7104.7733 4.059 1.197 2.6994.8326 5.3947 1.737 7.9794 2.9176 2.581 1.1754 5.0633 2.6277 7.1996 4.5017l-.1926.2317c-2.2687-1.655-4.747-2.9594-7.3404-3.9717-2.5956-1.011-5.282-1.778-7.9983-2.477-1.36-.342-2.7203-.702-4.0847-1.066-1.3603-.3763-2.7143-.7987-4.067-1.235-.6713-.2303-1.3406-.4837-2.0053-.7387a39.8183 39.8183 0 01-1.9643-.8586c-.6474-.3044-1.275-.6577-1.9014-.9994-.307-.1826-.6266-.3816-.923-.6196-.2983-.2334-.5663-.5324-.72-.8794l.1667-.1143zM53.24 98.6222c3.9137 1.1103 7.759 2.4218 11.6007 3.7428 1.9133.681 3.8263 1.363 5.7327 2.065 1.903.71 3.8056 1.42 5.7 2.153 3.7913 1.459 7.5746 2.938 11.346 4.446 3.7716 1.507 7.539 3.026 11.2823 4.602l-.1117.28c-3.8356-1.342-7.645-2.746-11.4703-4.107-3.826-1.358-7.6513-2.715-11.485-4.047-1.9207-.656-3.828-1.347-5.7397-2.026-.9586-.332-1.902-.705-2.8536-1.056l-2.8514-1.063c-1.8926-.731-3.7823-1.471-5.6523-2.268a95.4386 95.4386 0 01-5.564-2.5311l.0663-.1907zM47.9793 113.366c1.1107.496 2.2487.921 3.404 1.293 1.1494.389 2.3137.735 3.4847 1.065 2.3453.656 4.687 1.349 7.0307 2.021l7.0033 2.119c2.334.707 4.6703 1.408 6.996 2.143l27.926 8.763-.088.289c-4.7186-1.248-9.4117-2.58-14.1113-3.891l-14.09-3.962c-2.3507-.653-4.689-1.347-7.0297-2.032-2.3363-.7-4.6617-1.436-6.991-2.159-2.321-.757-4.6367-1.505-6.9357-2.355-1.149-.431-2.3003-.869-3.4286-1.368-1.1164-.527-2.2267-1.073-3.2604-1.745l.09-.181zM41.5833 129.425c.9247-.178 1.884-.154 2.8187-.024.9343.144 1.8446.399 2.733.69.8933.283 1.7496.642 2.6146.959.8634.325 1.726.651 2.5954.959 3.457 1.287 6.943 2.492 10.454 3.625 3.513 1.126 7.0596 2.153 10.6373 3.064 3.578.911 7.1867 1.702 10.8113 2.421l-.052.297c-3.6756-.473-7.324-1.147-10.955-1.91-3.6326-.76-7.2353-1.668-10.8126-2.675a88.626 88.626 0 01-2.6744-.787l-2.6533-.856c-.4413-.145-.879-.301-1.3157-.461-.4376-.155-.874-.316-1.3083-.481-.87-.326-1.7417-.649-2.6033-.997-.8597-.353-1.7174-.711-2.566-1.09l-2.51-1.142c-.8307-.363-1.6614-.703-2.521-.954-.428-.135-.8647-.236-1.309-.313-.445-.067-.8964-.108-1.3584-.126l-.0253-.199z" fill="#F37059"/>
  </g>
</svg>