<svg width="567" height="267" fill="none" xmlns="http://www.w3.org/2000/svg">
  <g filter="url(#a)">
    <g clip-path="url(#b)" filter="url(#c)">
      <path fill="#295689" d="m135 22.75 99.6013-16.7507 29.1893 173.5626-99.6012 16.7507z"/>
      <path opacity=".2" d="M166.232 96.8008c.933-6.8602 4.258-13.5547 9.53-18.4928 2.609-2.4839 5.648-4.5628 8.965-6.1095 3.332-1.5093 6.922-2.5063 10.585-2.8504 3.659-.3738 7.381-.1914 10.985.5723 3.607.7754 7.027 2.2426 10.138 4.1437 3.089 1.9261 5.948 4.274 8.176 7.1311 2.25 2.8314 4.02 6.0116 5.219 9.385 1.234 3.3684 1.746 6.9527 1.76 10.5068-.008 3.556-.553 7.134-1.791 10.487-2.422 6.694-6.971 12.71-13.073 16.602-3.02 1.965-6.349 3.464-9.837 4.406-1.763.381-3.522.79-5.317.963-1.796.162-3.598.209-5.393.107-7.182-.416-14.122-3.239-19.439-7.829-.182-.158-.197-.429-.034-.608.159-.174.43-.194.612-.049l.004.004c5.339 4.284 12.124 6.741 18.958 6.897 1.708.036 3.414-.07 5.104-.28 1.691-.222 3.336-.671 4.978-1.083 3.242-1 6.294-2.512 9.026-4.431 5.506-3.807 9.517-9.478 11.389-15.636.975-3.076 1.303-6.307 1.145-9.468-.192-3.1568-.816-6.3022-2.066-9.1832-1.196-2.8939-2.815-5.5992-4.855-7.9682-2.055-2.3516-4.435-4.4321-7.113-6.0805-2.675-1.6545-5.623-2.8653-8.691-3.6858-3.087-.7686-6.305-1.0191-9.517-.8331-3.227.1366-6.433.8774-9.463 2.0557-3.054 1.1399-5.941 2.7891-8.507 4.8688-2.568 2.0802-4.777 4.595-6.67 7.359-1.872 2.7854-3.253 5.9018-4.222 9.1893l-.006.0204c-.044.1537-.209.2434-.366.2004a.283.283 0 0 1-.214-.311Z" fill="#F7BB3B"/>
      <path opacity=".2" d="M141.47 93.4917c1.627-11.9619 7.424-23.6351 16.617-32.2455 4.549-4.3311 9.848-7.9561 15.632-10.653 5.81-2.6319 12.07-4.3702 18.458-4.9703 6.378-.6518 12.869-.3336 19.154.998 6.289 1.352 12.252 3.9103 17.677 7.2253 5.387 3.3585 10.371 7.4524 14.257 12.4343 3.922 4.9371 7.009 10.4823 9.099 16.3645 2.152 5.8734 3.044 12.1233 3.07 18.32-.014 6.201-.965 12.44-3.124 18.287-4.223 11.671-12.155 22.161-22.794 28.947-5.266 3.428-11.072 6.041-17.153 7.683-3.074.666-6.142 1.378-9.272 1.681-3.131.281-6.273.363-9.402.186-12.524-.726-24.626-5.649-33.897-13.652-.317-.275-.344-.748-.059-1.06.278-.303.75-.339 1.067-.086l.008.007c9.309 7.471 21.139 11.754 33.055 12.026 2.979.063 5.953-.121 8.9-.487 2.949-.388 5.818-1.171 8.68-1.889 5.654-1.744 10.975-4.38 15.739-7.726 9.601-6.639 16.594-16.527 19.86-27.264 1.699-5.364 2.271-10.998 1.996-16.509-.335-5.505-1.423-10.9896-3.604-16.0131-2.084-5.0461-4.907-9.7632-8.464-13.8939-3.583-4.1005-7.733-7.7283-12.403-10.6026-4.664-2.8848-9.805-4.996-15.155-6.4269-5.382-1.34-10.993-1.7769-16.595-1.4526-5.626.2381-11.216 1.5299-16.5 3.5846-5.325 1.9875-10.359 4.8632-14.833 8.4896-4.478 3.6272-8.33 8.0121-11.63 12.8316-3.265 4.857-5.673 10.291-7.362 16.0233l-.011.0356c-.078.268-.365.4244-.639.3494-.251-.0641-.404-.2997-.372-.5423Z" fill="#FF7057"/>
      <path opacity=".2" d="M114.785 89.9254c2.373-17.46 10.835-34.4985 24.254-47.0665 6.64-6.3218 14.374-11.6129 22.816-15.5493 8.48-3.8416 17.619-6.379 26.942-7.2548 9.31-.9514 18.784-.487 27.958 1.4566 9.179 1.9734 17.884 5.7076 25.802 10.5463 7.863 4.9021 15.138 10.8777 20.81 18.1494 5.724 7.2063 10.23 15.3003 13.281 23.886 3.142 8.573 4.443 17.6956 4.48 26.7409-.02 9.051-1.407 18.157-4.559 26.691-6.164 17.036-17.742 32.348-33.271 42.253-7.686 5.003-16.161 8.818-25.037 11.214-4.487.971-8.965 2.012-13.534 2.453-4.569.411-9.156.53-13.723.272-18.281-1.06-35.945-8.245-49.477-19.927-.463-.401-.501-1.091-.086-1.547.406-.442 1.095-.495 1.558-.125l.011.01c13.588 10.905 30.855 17.156 48.248 17.553 4.349.093 8.69-.176 12.991-.711 4.305-.566 8.492-1.708 12.67-2.757 8.252-2.546 16.018-6.392 22.973-11.277 14.013-9.69 24.221-24.124 28.987-39.795 2.48-7.83 3.316-16.053 2.914-24.097-.489-8.0355-2.077-16.041-5.26-23.3734-3.043-7.3655-7.163-14.2506-12.355-20.2799-5.23-5.9853-11.287-11.2805-18.103-15.4759-6.809-4.2108-14.312-7.2923-22.121-9.3808-7.855-1.956-16.046-2.5936-24.222-2.1203-8.212.3476-16.371 2.233-24.084 5.2322-7.773 2.901-15.121 7.0984-21.65 12.3916-6.537 5.2944-12.159 11.6947-16.977 18.7294-4.765 7.0895-8.28 15.021-10.745 23.388l-.016.0521c-.114.391-.533.6194-.932.5099-.368-.0936-.59-.4375-.543-.7915Z" fill="#02ABE8"/>
      <path opacity=".2" d="M82.5542 85.6184c3.2761-24.1004 14.9567-47.619 33.4788-64.9669 9.165-8.7261 19.841-16.0295 31.494-21.463 11.705-5.3027 24.319-8.805 37.188-10.014 12.851-1.3132 25.928-.6723 38.591 2.0106 12.67 2.724 24.685 7.8783 35.614 14.5573 10.854 6.7665 20.896 15.0148 28.725 25.0519 7.901 9.9471 14.121 21.1194 18.333 32.9705 4.336 11.8335 6.132 24.4255 6.184 36.9112-.028 12.493-1.943 25.062-6.294 36.843-8.509 23.514-24.489 44.65-45.925 58.322-10.609 6.905-22.307 12.171-34.558 15.479-6.194 1.341-12.375 2.777-18.681 3.385-6.307.567-12.638.732-18.943.375-25.233-1.462-49.615-11.38-68.294-27.505-.639-.553-.692-1.506-.118-2.135.56-.611 1.511-.683 2.149-.173l.016.014c18.756 15.052 42.591 23.682 66.598 24.229 6.002.128 11.994-.243 17.931-.981 5.943-.782 11.722-2.358 17.489-3.806 11.391-3.514 22.111-8.823 31.71-15.566 19.343-13.375 33.433-33.299 40.012-54.929 3.424-10.809 4.577-22.158 4.021-33.263-.673-11.091-2.866-22.141-7.259-32.2622-4.2-10.1666-9.888-19.6703-17.054-27.9928-7.22-8.2615-15.581-15.5706-24.988-21.3617-9.398-5.8121-19.755-10.0657-30.535-12.9484-10.842-2.7-22.148-3.5801-33.434-2.9267-11.335.4797-22.597 3.0822-33.243 7.222-10.729 4.0043-20.872 9.7982-29.885 17.1045-9.022 7.308-16.783 16.1424-23.4331 25.8526-6.5771 9.7857-11.4294 20.7338-14.8318 32.2829l-.0214.0718c-.1568.5399-.7364.855-1.2872.704-.507-.1292-.8144-.604-.7493-1.0926Z" fill="#119DA4"/>
      <path fill-rule="evenodd" clip-rule="evenodd" d="M200.909 109.448c4.546-.765 7.615-5.055 6.854-9.582-.201-1.1914.607-2.3204 1.803-2.5216 1.197-.2013 2.329.6015 2.529 1.7929 1.163 6.9107-3.521 13.4587-10.461 14.6257-6.939 1.167-13.507-3.489-14.669-10.399-1.163-6.9105 3.521-13.4585 10.461-14.6256 1.196-.2012 2.329.6015 2.529 1.7929.2 1.1914-.607 2.3204-1.804 2.5216-4.546.7647-7.615 5.0547-6.854 9.5821.762 4.527 5.065 7.578 9.612 6.813Z" fill="#fff"/>
      <ellipse cx="199.247" cy="101.162" rx="4.3937" ry="4.3751" transform="rotate(170.453 199.247 101.162)" fill="#fff"/>
      <rect x="203.68" y="95.3916" width="5.4251" height="5.4483" rx=".935" transform="rotate(-99.546 203.68 95.3916)" fill="#fff"/>
    </g>
    <g clip-path="url(#d)" filter="url(#e)">
      <path fill="#fff" d="m458.584 7.1738 98.5045 22.313-38.882 171.6514-98.5045-22.313z"/>
      <path opacity=".2" d="M459.368 87.5377c3.467-5.9926 9.084-10.9239 15.836-13.491 3.357-1.3076 6.957-2.0773 10.613-2.249 3.656-.1316 7.356.3091 10.876 1.3813 3.526 1.0429 6.9 2.6247 9.945 4.6995 3.042 2.0865 5.649 4.7421 7.806 7.6819 2.127 2.9547 3.88 6.2119 4.857 9.7012 1.006 3.4732 1.437 7.0874 1.265 10.6634-.137 3.585-1.024 7.095-2.36 10.389-1.357 3.286-3.22 6.39-5.638 9.022-4.782 5.273-11.274 9.112-18.396 10.396-3.54.672-7.19.795-10.774.342-1.776-.316-3.558-.606-5.285-1.127-1.722-.532-3.407-1.173-5.029-1.948-6.487-3.112-11.836-8.358-15.012-14.623-.109-.215-.02-.471.199-.575.214-.1.472-.017.585.187l.003.005c3.312 5.991 8.656 10.838 14.92 13.577 1.566.682 3.184 1.232 4.828 1.679 1.649.436 3.341.646 5.016.888 3.38.305 6.776.065 10.033-.673 6.539-1.432 12.402-5.157 16.472-10.142 2.07-2.476 3.6-5.34 4.653-8.325 1.021-2.993 1.638-6.14 1.575-9.28-.008-3.131-.479-6.2487-1.466-9.2147-1.009-2.9557-2.421-5.784-4.273-8.3256-1.846-2.5461-4.114-4.7854-6.641-6.7093-2.564-1.8826-5.446-3.3361-8.489-4.3835-3.037-1.0985-6.284-1.6301-9.535-1.6903-3.258-.1048-6.555.3249-9.718 1.2751-3.165.9497-6.164 2.4375-8.964 4.276-2.79 1.8663-5.25 4.2251-7.394 6.8988l-.014.0166c-.099.1252-.286.1456-.415.0463a.2832.2832 0 0 1-.079-.3687Z" fill="#119DA4"/>
      <path opacity=".2" d="M437.716 75.0768c6.045-10.4493 15.84-19.0479 27.613-23.524 5.853-2.2801 12.131-3.6222 18.506-3.9215 6.374-.2295 12.826.5389 18.963 2.4085 6.148 1.8185 12.032 4.5766 17.342 8.1945 5.304 3.6381 9.85 8.2687 13.61 13.3948 3.709 5.152 6.766 10.8316 8.47 16.9156 1.754 6.0563 2.505 12.3583 2.206 18.5933-.239 6.251-1.786 12.372-4.115 18.115-2.366 5.731-5.614 11.142-9.832 15.731-8.337 9.195-19.658 15.889-32.076 18.128-6.173 1.172-12.537 1.386-18.786.597-3.097-.552-6.205-1.057-9.216-1.966-3.003-.928-5.941-2.045-8.769-3.397-11.311-5.425-20.638-14.574-26.177-25.497-.189-.374-.034-.822.348-1.003.372-.175.823-.029 1.02.326l.004.009c5.777 10.446 15.095 18.899 26.016 23.674 2.732 1.189 5.553 2.148 8.419 2.928 2.876.76 5.826 1.125 8.747 1.547 5.893.533 11.816.115 17.494-1.173 11.402-2.497 21.626-8.991 28.723-17.683 3.608-4.319 6.276-9.313 8.113-14.517 1.781-5.219 2.856-10.707 2.745-16.182-.013-5.459-.834-10.8951-2.556-16.0668-1.759-5.1539-4.221-10.0855-7.45-14.5172-3.22-4.4396-7.174-8.3442-11.581-11.6989-4.47-3.2826-9.495-5.817-14.801-7.6434-5.295-1.9154-10.957-2.8424-16.625-2.9473-5.681-.1828-11.431.5665-16.946 2.2234-5.519 1.6558-10.748 4.2501-15.631 7.4559-4.864 3.2542-9.155 7.3672-12.893 12.0293l-.023.0289c-.174.2184-.5.2539-.724.0807-.209-.1548-.26-.4307-.138-.6428Z" fill="#F7BB3B"/>
      <path opacity=".2" d="M414.381 61.6466c8.824-15.2521 23.121-27.8028 40.306-34.3363 8.542-3.328 17.706-5.287 27.011-5.7239 9.304-.3349 18.721.7867 27.679 3.5156 8.975 2.6542 17.563 6.68 25.313 11.9608 7.743 5.3103 14.378 12.0692 19.866 19.5515 5.414 7.52 9.876 15.81 12.363 24.6905 2.56 8.8399 3.656 18.0385 3.22 27.1402-.348 9.124-2.607 18.057-6.007 26.44-3.454 8.365-8.195 16.263-14.35 22.962-12.17 13.421-28.693 23.192-46.82 26.46-9.01 1.711-18.299 2.023-27.42.871-4.52-.805-9.058-1.543-13.452-2.869-4.383-1.355-8.672-2.985-12.799-4.958-16.51-7.92-30.124-21.273-38.209-37.218-.276-.545-.05-1.199.508-1.463.543-.255 1.201-.042 1.488.475l.007.014c8.431 15.247 22.033 27.585 37.973 34.555 3.988 1.736 8.106 3.136 12.288 4.273 4.198 1.111 8.505 1.644 12.769 2.26 8.6.777 17.246.166 25.533-1.712 16.644-3.645 31.566-13.124 41.925-25.812 5.267-6.303 9.161-13.593 11.843-21.188 2.598-7.619 4.168-15.629 4.007-23.62-.019-7.9695-1.218-15.9036-3.732-23.4524-2.567-7.5227-6.16-14.721-10.873-21.1896-4.701-6.4802-10.473-12.1795-16.905-17.0761-6.524-4.7914-13.86-8.4907-21.603-11.1565-7.73-2.7958-15.994-4.1489-24.268-4.302-8.292-.2668-16.684.8269-24.733 3.2453-8.057 2.4169-15.689 6.2037-22.816 10.8829-7.1 4.7499-13.363 10.7533-18.82 17.5583l-.034.0422c-.253.3187-.728.3706-1.056.1178-.304-.226-.38-.6287-.202-.9383Z" fill="#FF7057"/>
      <path opacity=".2" d="M386.198 45.4274c12.18-21.0527 31.914-38.3768 55.635-47.3951 11.791-4.5938 24.441-7.2978 37.284-7.901 12.842-.4621 25.841 1.086 38.206 4.8528 12.388 3.6637 24.242 9.2206 34.939 16.5098 10.688 7.3298 19.847 16.6593 27.423 26.9872 7.472 10.3801 13.631 21.823 17.064 34.0809 3.534 12.2019 5.047 24.8989 4.445 37.462-.481 12.594-3.599 24.925-8.291 36.496-4.768 11.547-11.312 22.448-19.809 31.695-16.798 18.525-39.605 32.012-64.626 36.523-12.437 2.361-25.258 2.792-37.848 1.202-6.239-1.111-12.503-2.129-18.568-3.96-6.05-1.87-11.97-4.121-17.668-6.844-22.788-10.932-41.58-29.363-52.74-51.372-.381-.753-.068-1.655.701-2.019.75-.353 1.658-.059 2.055.656l.009.018c11.638 21.046 30.412 38.077 52.415 47.697 5.505 2.397 11.189 4.329 16.961 5.899 5.795 1.533 11.74 2.268 17.625 3.118 11.872 1.073 23.805.231 35.245-2.363 22.973-5.031 43.571-18.115 57.869-35.628 7.27-8.7 12.646-18.763 16.347-29.247 3.587-10.516 5.753-21.572 5.531-32.603-.026-10.9999-1.68-21.9514-5.151-32.3712-3.543-10.3837-8.503-20.3197-15.008-29.2485-6.488-8.9447-14.456-16.8115-23.334-23.5705-9.006-6.6137-19.131-11.7199-29.82-15.3995-10.669-3.859-22.076-5.7268-33.497-5.9381-11.445-.3683-23.029 1.1413-34.14 4.4796-11.121 3.336-21.655 8.5629-31.493 15.0218-9.8 6.5564-18.445 14.843-25.977 24.2361l-.047.0583c-.35.4399-1.006.5115-1.458.1626-.42-.312-.524-.8679-.279-1.2952Z" fill="#119DA4"/>
      <path fill-rule="evenodd" clip-rule="evenodd" d="M486.647 112.402c4.497 1.018 8.964-1.786 9.979-6.263.267-1.178 1.442-1.916 2.626-1.648 1.183.268 1.926 1.44 1.659 2.619-1.548 6.834-8.367 11.114-15.23 9.559-6.863-1.555-11.172-8.355-9.624-15.189 1.548-6.8345 8.367-11.1144 15.23-9.5598 1.183.2681 1.926 1.4406 1.659 2.6189-.267 1.1783-1.442 1.9162-2.626 1.6482-4.496-1.0186-8.964 1.7855-9.978 6.2627-1.014 4.478 1.809 8.933 6.305 9.952Z" fill="#295689"/>
      <ellipse cx="488.256" cy="104.106" rx="4.3937" ry="4.3751" transform="rotate(-167.237 488.256 104.106)" fill="#295689"/>
      <rect x="494.548" y="100.45" width="5.4251" height="5.4483" rx=".935" transform="rotate(-77.237 494.548 100.45)" fill="#295689"/>
    </g>
    <g clip-path="url(#f)" filter="url(#g)">
      <path fill="#fff" d="m102.42 153.454 174.1365 5.1287-2.8819 97.848-174.1365-5.1287z"/>
      <path d="M73.2923 200.172c40.7307 15.728 42.7977 29.977 57.1727 36.893 14.375 6.917 26.68-10.181 54.402-3.63 27.723 6.551 20.644 21.419 37.741 20.872 17.097-.547 21.741-25.897 48.052-25.697 13.89.106 19.894-15.331 22.038-30.955l.79-22.204c.395 6.05.315 14.152-.79 22.204l-2.898 81.512-219.0397-7.789 2.532-71.206Z" fill="#119DA4"/>
      <path d="M75.2608 197.435c40.7302 15.728 42.7972 29.977 57.1722 36.893s26.68-10.181 54.403-3.631c27.723 6.551 20.644 21.42 37.74 20.873 17.097-.547 21.742-25.898 48.053-25.697 21.048.161 23.988-35.372 22.827-53.159" stroke="#58BABF" stroke-width=".7012"/>
      <path d="M76.7703 194.448c40.7307 15.728 42.7977 29.977 57.1727 36.893 14.375 6.917 26.68-10.181 54.402-3.63 27.723 6.551 20.644 21.419 37.741 20.872 17.097-.547 21.741-25.897 48.052-25.697 21.049.161 23.989-35.372 22.828-53.159" stroke="#88CED1" stroke-width=".7012"/>
      <path d="M78.28 191.461c40.731 15.729 42.797 29.978 57.173 36.894 14.375 6.916 26.68-10.182 54.402-3.631 27.723 6.551 20.644 21.42 37.741 20.873 17.097-.547 21.741-25.898 48.052-25.697 21.049.16 23.989-35.373 22.828-53.159" stroke="#CFEBED" stroke-width=".7012"/>
      <path fill-rule="evenodd" clip-rule="evenodd" d="M189.388 207.583c4.607.163 8.474-3.438 8.638-8.045.043-1.212 1.06-2.16 2.273-2.117 1.212.044 2.16 1.061 2.117 2.273-.25 7.032-6.153 12.529-13.184 12.279s-12.528-6.153-12.278-13.184 6.152-12.528 13.183-12.278c1.213.043 2.16 1.061 2.117 2.273-.043 1.212-1.06 2.16-2.273 2.117-4.606-.164-8.473 3.438-8.637 8.044-.164 4.607 3.438 8.474 8.044 8.638Z" fill="#295689"/>
      <circle cx="189.426" cy="199.098" r="4.3927" transform="rotate(-177.963 189.426 199.098)" fill="#295689"/>
      <rect x="194.927" y="194.315" width="5.447" height="5.447" rx=".935" transform="rotate(-87.963 194.927 194.315)" fill="#295689"/>
    </g>
    <g clip-path="url(#h)" filter="url(#i)">
      <path fill="#FF7057" d="M251.903 12.9995 422.9032 54.652l-23.9028 98.1308-171.0002-41.6525z"/>
      <path d="M218.123 122.048c9.719-17.345 46.513-49.4437 115.941-39.0721 59.712 8.9202 84.596-15.9275 91.012-32.2773l1.735-7.1234c-.137 2.0282-.691 4.4633-1.735 7.1234l-30.46 125.0494-178.754-44.415 2.261-9.285Z" fill="#F7F6ED"/>
      <circle cx="325.798" cy="82.9632" r="22.4391" transform="rotate(13.69 325.798 82.9632)" fill="#fff"/>
      <path fill-rule="evenodd" clip-rule="evenodd" d="M323.909 91.2138c4.478 1.0909 8.993-1.6553 10.084-6.1338.287-1.1785 1.475-1.9012 2.654-1.6142 1.178.2871 1.901 1.4753 1.614 2.6538-1.665 6.8356-8.556 11.0272-15.392 9.3622-6.835-1.6651-11.027-8.5562-9.362-15.3918 1.665-6.8356 8.556-11.0272 15.392-9.3622 1.178.2871 1.901 1.4752 1.614 2.6538-.287 1.1785-1.475 1.9012-2.654 1.6141-4.478-1.0908-8.993 1.6554-10.084 6.1339-1.091 4.4785 1.655 8.9934 6.134 10.0842Z" fill="#295689"/>
      <circle cx="325.659" cy="82.9108" r="4.3927" transform="rotate(-166.31 325.659 82.9108)" fill="#295689"/>
      <rect x="332.013" y="79.3379" width="5.447" height="5.447" rx=".935" transform="rotate(-76.31 332.013 79.3379)" fill="#295689"/>
    </g>
    <g clip-path="url(#j)" filter="url(#k)">
      <path fill="#fff" d="m290 142.608 175.117-17.6082 10.1047 100.4933-175.117 17.6082z"/>
      <path d="m384.822 195.555-75.099-61.376c-4.7-3.841-11.647-3.033-15.339 1.786l-1.877 2.449a10.7516 10.7516 0 0 0-2.163 7.615l9.71 96.57a10.7552 10.7552 0 0 0 3.894 7.25l21.884 17.885c4.598 3.758 11.372 3.077 15.13-1.521l45.381-55.528c3.758-4.598 3.077-11.372-1.521-15.13ZM484.411 277.161l-75.099-61.376c-4.7-3.841-11.647-3.033-15.339 1.786l-1.876 2.449a10.7523 10.7523 0 0 0-2.164 7.615l9.71 96.57a10.7574 10.7574 0 0 0 3.894 7.25l21.884 17.885c4.598 3.758 11.372 3.077 15.13-1.521l45.381-55.528c3.758-4.598 3.077-11.372-1.521-15.13ZM430.913 74.5314 369.536 149.63c-3.841 4.701-10.809 5.291-15.387 1.304l-2.327-2.027a10.7544 10.7544 0 0 1-3.636-7.032l-9.71-96.5694a10.7515 10.7515 0 0 1 2.373-7.8798l17.885-21.884c3.758-4.598 10.531-5.2791 15.129-1.5213l55.528 45.3815c4.598 3.7578 5.279 10.5315 1.522 15.1294ZM380.997 172.579l75.099 61.377c4.7 3.841 11.647 3.032 15.339-1.786l1.877-2.449a10.7541 10.7541 0 0 0 2.163-7.616l-9.71-96.569a10.749 10.749 0 0 0-3.894-7.25l-21.884-17.885c-4.598-3.758-11.372-3.0769-15.13 1.521l-45.381 55.528c-3.758 4.598-3.077 11.372 1.521 15.129Z" fill="#295689"/>
      <path fill-rule="evenodd" clip-rule="evenodd" d="M329.195 218.175c5.26-.528 9.095-5.221 8.566-10.48-.139-1.385.87-2.619 2.254-2.759 1.384-.139 2.619.87 2.758 2.255.807 8.027-5.046 15.189-13.074 15.997-8.028.807-15.19-5.047-15.997-13.074-.807-8.028 5.046-15.19 13.074-15.997 1.384-.14 2.619.87 2.758 2.254.139 1.384-.87 2.619-2.254 2.758-5.26.529-9.095 5.221-8.566 10.481.529 5.259 5.222 9.094 10.481 8.565Z" fill="#fff"/>
      <circle cx="327.921" cy="208.527" r="5.0375" transform="rotate(174.258 327.921 208.527)" fill="#fff"/>
      <rect x="333.429" y="202.24" width="6.2465" height="6.2465" rx=".935" transform="rotate(-95.742 333.429 202.24)" fill="#fff"/>
    </g>
    <g clip-path="url(#l)" filter="url(#m)">
      <path fill="#FBFAF6" d="m34.4849 20 99.7609 15.7725-27.4848 173.8407L7 193.8407z"/>
      <path d="M86.9783 16.4664c27.4537 45.6348 16.1347 70.8228-8.0628 90.6616-24.1979 19.838-68.3553 42.437-58.8426 81.805 7.6103 31.493-1.9338 38.425-7.6571 37.953" stroke="#F7BB3B" stroke-width=".935"/>
      <path d="M91.5999 14.1202C119.053 59.755 107.735 84.943 83.5371 104.782c-24.1979 19.838-68.3553 42.437-58.8426 81.804 7.6102 31.494-1.9338 38.425-7.6571 37.954" stroke="#F7BB3B" stroke-width=".935"/>
      <path d="M96.2214 11.775c27.4536 45.6348 16.1356 70.8228-8.0628 90.661-24.1978 19.839-68.3553 42.438-58.8425 81.805 7.6102 31.494-1.9338 38.425-7.6571 37.954" stroke="#F7BB3B" stroke-width=".935"/>
      <path d="M100.843 9.4293c27.453 45.6348 16.135 70.8228-8.0628 90.6617-24.1979 19.838-68.3553 42.437-58.8425 81.804 7.6102 31.494-1.9339 38.425-7.6572 37.954" stroke="#F7BB3B" stroke-width=".935"/>
      <path d="M100.843 9.4293c27.453 45.6348 16.135 70.8228-8.0628 90.6617-24.1979 19.838-68.3553 42.437-58.8425 81.804 7.6102 31.494-1.9339 38.425-7.6572 37.954" stroke="#F7BB3B" stroke-width=".935"/>
      <path d="M106.293 6.5045c27.453 45.6348 16.135 70.8228-8.0631 90.6614-24.1978 19.8391-68.3553 42.4381-58.8425 81.8051 7.6102 31.493-1.9338 38.425-7.6572 37.954" stroke="#F7BB3B" stroke-width=".935"/>
      <circle cx="70.5556" cy="115.155" r="22.4391" transform="rotate(8.984 70.5556 115.155)" fill="#295689"/>
      <path fill-rule="evenodd" clip-rule="evenodd" d="M69.35 123.531c4.5529.72 8.8273-2.388 9.5471-6.941.1894-1.198 1.3143-2.016 2.5124-1.826 1.1981.189 2.0159 1.314 1.8264 2.512-1.0987 6.949-7.6227 11.692-14.5719 10.594-6.9492-1.099-11.6919-7.623-10.5932-14.572 1.0987-6.95 7.6227-11.692 14.5719-10.594 1.1981.19 2.0158 1.315 1.8264 2.513s-1.3142 2.016-2.5124 1.826c-4.5529-.72-8.8273 2.388-9.5471 6.941-.7198 4.553 2.3875 8.827 6.9404 9.547Z" fill="#fff"/>
      <circle cx="70.4136" cy="115.112" r="4.3927" transform="rotate(-171.016 70.4136 115.112)" fill="#fff"/>
      <rect x="76.4526" y="111.03" width="5.447" height="5.447" rx=".935" transform="rotate(-81.016 76.4526 111.03)" fill="#fff"/>
    </g>
  </g>
  <defs>
    <filter id="a" x="3" y="5.9995" width="558.088" height="258.431" filterUnits="userSpaceOnUse" color-interpolation-filters="sRGB">
      <feFlood flood-opacity="0" result="BackgroundImageFix"/>
      <feColorMatrix in="SourceAlpha" values="0 0 0 0 0 0 0 0 0 0 0 0 0 0 0 0 0 0 127 0" result="hardAlpha"/>
      <feOffset dy="4"/>
      <feGaussianBlur stdDeviation="2"/>
      <feComposite in2="hardAlpha" operator="out"/>
      <feColorMatrix values="0 0 0 0 0 0 0 0 0 0 0 0 0 0 0 0 0 0 0.25 0"/>
      <feBlend in2="BackgroundImageFix" result="effect1_dropShadow_938_8591"/>
      <feBlend in="SourceGraphic" in2="effect1_dropShadow_938_8591" result="shape"/>
    </filter>
    <filter id="c" x="128" y="-.0005" width="144.791" height="206.313" filterUnits="userSpaceOnUse" color-interpolation-filters="sRGB">
      <feFlood flood-opacity="0" result="BackgroundImageFix"/>
      <feColorMatrix in="SourceAlpha" values="0 0 0 0 0 0 0 0 0 0 0 0 0 0 0 0 0 0 127 0" result="hardAlpha"/>
      <feOffset dx="1" dy="2"/>
      <feGaussianBlur stdDeviation="4"/>
      <feColorMatrix values="0 0 0 0 0.266667 0 0 0 0 0.266667 0 0 0 0 0.266667 0 0 0 0.25 0"/>
      <feBlend in2="BackgroundImageFix" result="effect1_dropShadow_938_8591"/>
      <feBlend in="SourceGraphic" in2="effect1_dropShadow_938_8591" result="shape"/>
    </filter>
    <filter id="e" x="412.702" y="1.1738" width="153.386" height="209.964" filterUnits="userSpaceOnUse" color-interpolation-filters="sRGB">
      <feFlood flood-opacity="0" result="BackgroundImageFix"/>
      <feColorMatrix in="SourceAlpha" values="0 0 0 0 0 0 0 0 0 0 0 0 0 0 0 0 0 0 127 0" result="hardAlpha"/>
      <feOffset dx="1" dy="2"/>
      <feGaussianBlur stdDeviation="4"/>
      <feColorMatrix values="0 0 0 0 0.266667 0 0 0 0 0.266667 0 0 0 0 0.266667 0 0 0 0.25 0"/>
      <feBlend in2="BackgroundImageFix" result="effect1_dropShadow_938_8591"/>
      <feBlend in="SourceGraphic" in2="effect1_dropShadow_938_8591" result="shape"/>
    </filter>
    <filter id="g" x="92.5381" y="147.454" width="193.018" height="118.977" filterUnits="userSpaceOnUse" color-interpolation-filters="sRGB">
      <feFlood flood-opacity="0" result="BackgroundImageFix"/>
      <feColorMatrix in="SourceAlpha" values="0 0 0 0 0 0 0 0 0 0 0 0 0 0 0 0 0 0 127 0" result="hardAlpha"/>
      <feOffset dx="1" dy="2"/>
      <feGaussianBlur stdDeviation="4"/>
      <feColorMatrix values="0 0 0 0 0.266667 0 0 0 0 0.266667 0 0 0 0 0.266667 0 0 0 0.25 0"/>
      <feBlend in2="BackgroundImageFix" result="effect1_dropShadow_938_8591"/>
      <feBlend in="SourceGraphic" in2="effect1_dropShadow_938_8591" result="shape"/>
    </filter>
    <filter id="i" x="221" y="6.9995" width="210.903" height="155.783" filterUnits="userSpaceOnUse" color-interpolation-filters="sRGB">
      <feFlood flood-opacity="0" result="BackgroundImageFix"/>
      <feColorMatrix in="SourceAlpha" values="0 0 0 0 0 0 0 0 0 0 0 0 0 0 0 0 0 0 127 0" result="hardAlpha"/>
      <feOffset dx="1" dy="2"/>
      <feGaussianBlur stdDeviation="4"/>
      <feColorMatrix values="0 0 0 0 0.266667 0 0 0 0 0.266667 0 0 0 0 0.266667 0 0 0 0.25 0"/>
      <feBlend in2="BackgroundImageFix" result="effect1_dropShadow_938_8591"/>
      <feBlend in="SourceGraphic" in2="effect1_dropShadow_938_8591" result="shape"/>
    </filter>
    <filter id="k" x="283" y="119" width="201.222" height="134.102" filterUnits="userSpaceOnUse" color-interpolation-filters="sRGB">
      <feFlood flood-opacity="0" result="BackgroundImageFix"/>
      <feColorMatrix in="SourceAlpha" values="0 0 0 0 0 0 0 0 0 0 0 0 0 0 0 0 0 0 127 0" result="hardAlpha"/>
      <feOffset dx="1" dy="2"/>
      <feGaussianBlur stdDeviation="4"/>
      <feColorMatrix values="0 0 0 0 0.266667 0 0 0 0 0.266667 0 0 0 0 0.266667 0 0 0 0.25 0"/>
      <feBlend in2="BackgroundImageFix" result="effect1_dropShadow_938_8591"/>
      <feBlend in="SourceGraphic" in2="effect1_dropShadow_938_8591" result="shape"/>
    </filter>
    <filter id="m" x="0" y="14" width="143.246" height="205.613" filterUnits="userSpaceOnUse" color-interpolation-filters="sRGB">
      <feFlood flood-opacity="0" result="BackgroundImageFix"/>
      <feColorMatrix in="SourceAlpha" values="0 0 0 0 0 0 0 0 0 0 0 0 0 0 0 0 0 0 127 0" result="hardAlpha"/>
      <feOffset dx="1" dy="2"/>
      <feGaussianBlur stdDeviation="4"/>
      <feColorMatrix values="0 0 0 0 0.266667 0 0 0 0 0.266667 0 0 0 0 0.266667 0 0 0 0.25 0"/>
      <feBlend in2="BackgroundImageFix" result="effect1_dropShadow_938_8591"/>
      <feBlend in="SourceGraphic" in2="effect1_dropShadow_938_8591" result="shape"/>
    </filter>
    <clipPath id="b">
      <path fill="#fff" transform="rotate(-9.546 203.7234 -796.9836)" d="M0 0h101v176H0z"/>
    </clipPath>
    <clipPath id="d">
      <path fill="#fff" transform="rotate(12.763 197.2207 2053.7306)" d="M0 0h101v176H0z"/>
    </clipPath>
    <clipPath id="f">
      <path fill="#fff" transform="rotate(1.687 -5160.1588 3554.9576)" d="M0 0h174.212v97.8904H0z"/>
    </clipPath>
    <clipPath id="h">
      <path fill="#fff" transform="rotate(13.69 71.8031 1055.7818)" d="M0 0h176v101H0z"/>
    </clipPath>
    <clipPath id="j">
      <path fill="#fff" transform="rotate(-5.742 1566.8434 -2820.0806)" d="M0 0h176v101H0z"/>
    </clipPath>
    <clipPath id="l">
      <path fill="#fff" transform="rotate(8.984 -110.0428 229.471)" d="M0 0h101v176H0z"/>
    </clipPath>
  </defs>
</svg>