<svg width="570" height="271" fill="none" xmlns="http://www.w3.org/2000/svg">
  <g filter="url(#filter0_d_938_8591)">
    <g clip-path="url(#clip0_938_8591)" filter="url(#filter1_d_938_8591)">
      <path fill="#295689" d="M138.539 25.0366L234.9619 8.15l30.0524 171.6004-96.4229 16.8865z"/>
      <path opacity=".2" d="M169.572 98.1909c.835-6.7892 3.992-13.4222 9.056-18.3238a32.308 32.308 0 018.632-6.0721c3.216-1.5037 6.688-2.5014 10.237-2.8534 3.544-.3814 7.155-.2127 10.659.5313 3.505.7555 6.837 2.196 9.873 4.0668 3.015 1.8956 5.811 4.2091 8.001 7.0283 2.209 2.7938 3.958 5.9341 5.155 9.2673 1.231 3.3282 1.763 6.8723 1.813 10.3877.028 3.518-.465 7.059-1.632 10.38-2.282 6.629-6.633 12.595-12.511 16.464-2.909 1.954-6.123 3.448-9.495 4.39-1.706.383-3.408.793-5.148.97-1.739.166-3.486.218-5.228.123-6.969-.389-13.728-3.16-18.931-7.683a.423.423 0 01-.038-.601.4307.4307 0 01.592-.051l.005.004c5.221 4.221 11.825 6.63 18.453 6.762 1.658.031 3.311-.079 4.947-.292 1.639-.226 3.229-.675 4.817-1.088 3.135-1 6.079-2.504 8.709-4.411 5.302-3.784 9.134-9.407 10.888-15.504.914-3.046 1.2-6.243 1.015-9.37-.218-3.1221-.855-6.2316-2.096-9.0776-1.189-2.859-2.786-5.5299-4.788-7.8669-2.017-2.3198-4.346-4.3703-6.959-5.9925-2.611-1.6281-5.482-2.8164-8.466-3.6184-3.001-.7505-6.124-.9881-9.238-.7939-3.128.1453-6.229.8883-9.156 2.0636-2.95 1.1373-5.734 2.7779-8.201 4.8434-2.469 2.0659-4.586 4.5606-6.394 7.3008-1.788 2.7614-3.096 5.8486-4.002 9.1037l-.006.0203a.2874.2874 0 01-.353.1994.2808.2808 0 01-.21-.307z" fill="#F7BB3B"/>
      <path opacity=".2" d="M145.525 94.9964c1.456-11.8382 6.961-23.404 15.79-31.9509 4.368-4.2989 9.47-7.9016 15.052-10.5878 5.608-2.622 11.662-4.3615 17.85-4.9754 6.18-.665 12.477-.3709 18.586.9264 6.112 1.3174 11.921 3.8292 17.215 7.0913 5.258 3.3052 10.133 7.3392 13.951 12.255 3.853 4.8715 6.903 10.3472 8.989 16.1593 2.146 5.8033 3.074 11.9831 3.161 18.1137.049 6.134-.81 12.308-2.846 18.099-3.978 11.559-11.564 21.961-21.814 28.708-5.072 3.407-10.676 6.011-16.557 7.655-2.975.668-5.942 1.382-8.975 1.691-3.033.289-6.08.379-9.116.214-12.153-.678-23.939-5.509-33.01-13.397-.31-.27-.34-.738-.067-1.048.266-.301.724-.338 1.033-.088l.008.006c9.103 7.361 20.619 11.561 32.177 11.792 2.89.053 5.772-.138 8.626-.51 2.857-.394 5.631-1.177 8.399-1.897 5.465-1.743 10.599-4.367 15.186-7.692 9.244-6.598 15.926-16.402 18.985-27.033 1.594-5.312 2.093-10.887 1.77-16.338-.38-5.4447-1.491-10.8667-3.656-15.8291-2.072-4.9852-4.857-9.6424-8.348-13.7174-3.516-4.0449-7.577-7.6205-12.134-10.449-4.553-2.8389-9.56-4.911-14.763-6.3094-5.232-1.3086-10.678-1.7229-16.107-1.3843-5.454.2534-10.862 1.549-15.965 3.5984-5.145 1.983-9.998 4.8437-14.3 8.4452-4.306 3.6024-7.998 7.9523-11.15 12.7303-3.117 4.8151-5.398 10.1981-6.978 15.874l-.01.0353c-.073.2653-.35.421-.616.3477a.4908.4908 0 01-.366-.5353z" fill="#FF7057"/>
      <path opacity=".2" d="M119.61 91.5528c2.126-17.2795 10.161-34.1613 23.047-46.6365 6.376-6.2747 13.823-11.5334 21.971-15.4543 8.185-3.8271 17.022-6.3662 26.055-7.2622 9.019-.9706 18.211-.5414 27.127 1.3522 8.922 1.923 17.401 5.5893 25.128 10.3507 7.675 4.8243 14.79 10.7125 20.364 17.8878 5.624 7.1105 10.075 15.103 13.12 23.5865 3.133 8.4707 4.487 17.4908 4.614 26.439.072 8.953-1.183 17.966-4.154 26.418-5.806 16.872-16.88 32.055-31.84 41.903-7.404 4.973-15.584 8.774-24.168 11.173-4.341.975-8.673 2.018-13.1 2.469-4.427.421-8.874.553-13.306.312-17.738-.99-34.941-8.041-48.182-19.555-.452-.394-.497-1.077-.098-1.529.389-.439 1.057-.493 1.509-.129l.011.009c13.287 10.745 30.095 16.874 46.967 17.212 4.217.077 8.424-.202 12.59-.745 4.17-.574 8.218-1.717 12.26-2.768 7.977-2.544 15.47-6.374 22.165-11.228 13.493-9.63 23.246-23.941 27.711-39.458 2.327-7.754 3.055-15.891 2.583-23.847-.554-7.9475-2.175-15.8616-5.335-23.105-3.025-7.2764-7.09-14.0742-12.186-20.0222-5.132-5.9041-11.06-11.123-17.711-15.2516-6.645-4.1438-13.953-7.1683-21.548-9.2094-7.637-1.91-15.586-2.5148-23.511-2.0206-7.96.3699-15.854 2.261-23.303 5.2523-7.509 2.8944-14.593 7.07-20.872 12.3269-6.285 5.2581-11.673 11.6073-16.275 18.5816-4.55 7.0281-7.879 14.8854-10.185 23.1701l-.015.0515c-.106.3872-.511.6144-.899.5074a.7159.7159 0 01-.534-.7812z" fill="#02ABE8"/>
      <path opacity=".2" d="M88.3098 87.3948c2.9349-23.8511 14.0262-47.1534 31.8132-64.3733 8.801-8.6611 19.081-15.9198 30.327-21.3318 11.298-5.2827 23.496-8.7874 35.963-10.0242 12.45-1.3399 25.138-.7473 37.446 1.8664 12.314 2.6544 24.018 7.715 34.684 14.2874 10.594 6.6591 20.415 14.7866 28.108 24.6908 7.763 9.8148 13.907 20.8469 18.111 32.557 4.324 11.6922 6.193 24.1429 6.368 36.4939.099 12.358-1.632 24.799-5.733 36.466-8.015 23.288-23.3 44.246-43.95 57.839-10.219 6.865-21.511 12.111-33.359 15.423-5.993 1.345-11.973 2.785-18.083 3.408-6.11.581-12.248.763-18.366.431-24.485-1.367-48.23-11.101-66.507-26.993-.625-.544-.686-1.486-.136-2.111.537-.606 1.459-.68 2.083-.178l.015.014c18.341 14.831 41.542 23.291 64.83 23.756 5.822.108 11.629-.278 17.379-1.027 5.755-.792 11.344-2.37 16.922-3.82 11.011-3.513 21.354-8.799 30.595-15.499 18.624-13.293 32.087-33.047 38.251-54.465 3.211-10.703 4.215-21.934 3.565-32.917-.765-10.9695-3.003-21.8936-7.365-31.8918-4.175-10.0437-9.787-19.427-16.82-27.637-7.084-8.1496-15.266-15.3534-24.448-21.0522-9.172-5.7197-19.259-9.8945-29.741-12.712-10.542-2.6364-21.515-3.4712-32.454-2.789-10.987.5106-21.883 3.1209-32.166 7.2499-10.364 3.9952-20.143 9.7588-28.809 17.0151-8.676 7.2579-16.114 16.0218-22.465 25.6485-6.2802 9.7011-10.8758 20.5466-14.0592 31.9822l-.02.0711c-.1467.5345-.7056.8481-1.2413.7004-.493-.1262-.7959-.5948-.7377-1.0784z" fill="#119DA4"/>
      <path d="M189.908 102.497c.279-2.25 1.331-4.4493 3.017-6.0749a10.7648 10.7648 0 012.874-2.0144c1.07-.4991 2.225-.8305 3.406-.948 1.179-.1272 2.381-.0722 3.546.1736 1.166.2495 2.274.7262 3.284 1.3455 1.003.6274 1.933 1.3935 2.66 2.3273.735.9253 1.316 1.9656 1.713 3.0699.409 1.103.585 2.277.601 3.442.009 1.166-.156 2.34-.545 3.441-.761 2.197-2.21 4.175-4.166 5.459-.969.648-2.038 1.144-3.161 1.457-.567.127-1.134.264-1.712.323-.579.055-1.16.073-1.74.042-2.319-.128-4.567-1.044-6.297-2.542a.14.14 0 01-.012-.199.1425.1425 0 01.197-.017l.001.001c1.736 1.398 3.933 2.194 6.138 2.237.552.009 1.102-.027 1.646-.098.546-.076 1.075-.225 1.603-.362 1.043-.332 2.023-.831 2.899-1.464 1.765-1.255 3.041-3.12 3.626-5.141.305-1.009.401-2.069.34-3.105-.072-1.035-.283-2.065-.696-3.008-.394-.9472-.925-1.832-1.591-2.606-.67-.7683-1.444-1.4473-2.314-1.9843-.868-.539-1.823-.9321-2.815-1.1972-.999-.248-2.038-.326-3.074-.2609-1.04.0489-2.072.2958-3.046.686-.982.3776-1.909.922-2.73 1.6071-.822.6852-1.527 1.5124-2.129 2.421-.596.9153-1.032 1.9393-1.334 3.0183l-.002.006a.0963.0963 0 01-.117.067.0935.0935 0 01-.07-.102z" fill="#fff"/>
      <path d="M199.99 105.078a.4536.4536 0 01-.339-.074.4455.4455 0 01-.188-.302c-.014-.1-.338-2.471.954-4.288 1.296-1.8209 2.84-2.5779 3.841-1.8851 1.001.6939.804 2.3841-.492 4.2041-1.292 1.817-3.662 2.322-3.762 2.343-.005.001-.009.002-.014.002zm3.261-5.8897c-.537.0939-1.311.6432-2.091 1.7397-.753 1.059-.845 2.399-.831 3.123.695-.232 1.942-.773 2.695-1.832 1.067-1.5 1.162-2.6415.711-2.9542-.122-.0841-.287-.1111-.484-.0765zM196.769 104.398c-.104.018-.212 0-.304-.052-.065-.037-1.599-.921-1.45-2.577.062-.688.348-1.276.805-1.656.362-.3.811-.4438 1.261-.4052.458.039.877.2611 1.181.6252.379.454.549 1.079.477 1.76-.168 1.607-1.816 2.255-1.886 2.282a.4735.4735 0 01-.084.023zm.031-3.787c-.141.025-.276.089-.397.189-.267.222-.443.603-.483 1.045-.073.809.501 1.359.811 1.594.348-.189 1.023-.653 1.105-1.435.046-.433-.055-.833-.275-1.097-.151-.181-.345-.286-.561-.304a.7838.7838 0 00-.2.008zM203.696 108.4c-1.262.221-2.285-.621-2.335-.663a.4472.4472 0 01-.159-.351c.002-.074.06-1.823 1.535-2.526.624-.297 1.277-.352 1.839-.154.45.158.804.472.997.883.19.406.205.87.042 1.308-.206.554-.67 1.019-1.304 1.31-.209.096-.416.158-.615.193zm-1.562-1.219c.329.207 1.051.555 1.797.212.408-.187.711-.48.831-.804.081-.215.076-.429-.014-.62-.091-.195-.257-.339-.48-.417-.327-.115-.743-.073-1.139.117-.726.346-.935 1.127-.995 1.512z" fill="#fff"/>
      <path d="M195.741 104.823c-.411.072-.837.01-1.219-.185-.542-.276-.913-.775-1.017-1.37l-.077-.442.895-.157.077.442c.056.316.253.582.541.728.288.147.622.152.915.014l1.052-.496.388.81-1.052.496c-.162.077-.331.13-.503.16z" fill="#fff"/>
      <path d="M201.57 107.885l-.521-.361c-.708-.49-1.312-1.452-1.518-2.351-.927.115-2.049-.119-2.756-.609l-.522-.362.524-.736.521.362c.61.422 1.769.598 2.482.38.134-.042.28-.019.395.061.115.079.186.207.192.346.033.736.597 1.751 1.206 2.173l.522.363-.525.734z" fill="#fff"/>
      <path d="M203.928 110.1l-.514.09c-.589.103-1.182-.063-1.626-.457-.445-.393-.677-.957-.639-1.546l.084-1.267.906.054-.083 1.267c-.021.313.103.613.339.822.237.209.552.297.865.242l.513-.09.155.885z" fill="#fff"/>
    </g>
    <g clip-path="url(#clip1_938_8591)" filter="url(#filter2_d_938_8591)">
      <path fill="#FF7057" d="M266.342 16.0239l168.9565 42.468-23.863 94.9374-168.9565-42.4681z"/>
      <path d="M234.203 122.618c9.609-16.86 45.75-47.9246 113.436-37.3057 58.215 9.133 82.679-14.9403 89.057-30.8516l1.745-6.94c-.148 1.9785-.707 4.3512-1.745 6.94L406.074 176.289l-174.145-44.626 2.274-9.045z" fill="#F7F6ED"/>
      <rect x="297.003" y="53.1343" width="95.132" height="41.7486" rx="20.8743" transform="rotate(14.11 297.003 53.1343)" fill="#fff"/>
      <g clip-path="url(#clip2_938_8591)" fill="#295683">
        <path d="M334.576 83.8004l-1.257 5.0026c-.028.1122-.144.1801-.259.1511l-.78-.1958c-.114-.0288-.185-.1432-.157-.2557l1.2-4.7725c.193-.7669.159-1.3833-.099-1.8341-.253-.4468-.714-.7587-1.369-.9232-.418-.1052-.826-.1038-1.213.0063-.387.1099-.727.3127-1.003.6005-.285.3029-.477.655-.583 1.078l-1.2 4.7721c-.028.1122-.144.18-.259.1511l-.793-.1993c-.114-.0288-.185-.1432-.157-.2557l1.953-7.7691c.028-.1122.144-.18.259-.1511l.53.1332c.104.026.173.1222.162.2258l-.07.7106c.549-.3447 1.232-.5183 2-.5173.012 0 .025.0009.038.0023 1.269.1531 2.202.6556 2.758 1.4872.456.6762.555 1.5366.299 2.553zM366.991 88.8443l-1.953 7.7695c-.029.1121-.144.18-.26.151l-.527-.1324c-.103-.026-.172-.1222-.162-.2258l.071-.7106c-.596.3736-1.324.5457-2.199.4915a.323.323 0 01-.031-.0034c-1.173-.1788-2.041-.6718-2.569-1.461-.453-.6754-.552-1.5332-.296-2.5522l1.257-5.0026c.029-.1122.145-.1801.26-.1511l.776.1951c.115.0289.185.1432.157.2557l-1.2 4.7751c-.192.7643-.159 1.3807.099 1.8341.26.4544.709.7544 1.369.9203.419.1052.826.1038 1.213-.0037.387-.11.726-.3102 1.003-.6035.284-.2948.477-.655.583-1.075l1.2-4.7747c.028-.1122.144-.18.259-.1511l.793.1993c.115.0287.185.1433.157.2555zM343.639 84.8069c-.146-.6994-.452-1.289-.907-1.752-.458-.4637-1.038-.7852-1.728-.9588-.691-.1736-1.356-.165-1.979.027-.621.1926-1.169.5678-1.628 1.115-.45.5353-.786 1.2401-.999 2.0882l-.057.2276c-.213.8481-.25 1.6285-.107 2.3126.146.6965.453 1.2835.908 1.7465.455.466 1.036.7907 1.73.9649.693.1743 1.356.1625 1.976-.0302.622-.1955 1.169-.5678 1.627-1.1124.452-.5404.79-1.242 1.003-2.0875l.057-.2276c.212-.8453.245-1.6234.104-2.3133zM339.15 89.47c-.701-.1763-1.195-.5568-1.51-1.1602-.316-.6066-.355-1.4003-.114-2.3596l.103-.412c.241-.9567.652-1.6401 1.218-2.0276.562-.3831 1.177-.4848 1.879-.3085.698.1757 1.192.5562 1.506 1.1595.316.6095.355 1.4057.114 2.3622l-.103.4119c-.242.9594-.651 1.6401-1.217 2.0251-.562.3831-1.177.4848-1.876.3092zM356.98 89.4313l-1.258 5.0027c-.028.1122-.144.18-.259.1511l-.793-.1993c-.115-.0289-.185-.1432-.157-.2557l1.2-4.7725c.38-1.5122-.004-2.3894-1.174-2.6835-.56-.1408-1.058-.047-1.522.2832-.467.3348-.788.8362-.95 1.4838l-1.2 4.7722c-.028.1122-.144.18-.259.1511l-.793-.1993c-.115-.0289-.185-.1432-.157-.2557l1.2-4.7722c.38-1.5122-.004-2.3893-1.172-2.6828-.563-.1415-1.061-.0477-1.521.2831-.47.3343-.79.833-.954 1.4832l-1.199 4.7722c-.028.1122-.144.18-.259.1511l-.793-.1993c-.115-.0289-.185-.1432-.157-.2557l1.953-7.7691c.028-.1122.144-.1801.259-.1511l.529.133c.102.0257.171.1205.163.2232l-.058.676c.509-.3598 1.131-.5494 1.837-.5337a.3958.3958 0 01.036.0025c.778.0985 1.433.3853 1.936.8344.249.2262.447.4873.59.7842.054.1116.198.1538.302.0871.252-.1606.534-.2869.85-.3786.528-.1554 1.095-.1595 1.68-.0126.84.2112 1.474.6557 1.877 1.3189.202.3332.319.7113.358 1.1329.038.4216-.008.8885-.135 1.3952zM374.699 96.8439c-.226.8997-.721 1.4841-1.471 1.7362-.715.2409-1.603.2312-2.635-.0281-.787-.1979-1.407-.489-1.844-.8611-.442-.376-.732-.7804-.864-1.2056-.012-.0346-.02-.0713-.03-.1055l-.002-.0006c-.134-.4053-.156-.7997-.062-1.171l.073-.2234a.2063.2063 0 01.095-.1175c.002.0006.002.0006.003-.0019a.2173.2173 0 01.155-.0186l.779.1958c.114.0286.185.1445.157.2557l-.05.1979c-.058.2305-.025.4749.104.7492.064.1429.159.2794.286.4092.359.3667.924.6501 1.681.8404.666.1672 1.219.1709 1.637.008.401-.1528.642-.4205.741-.8109.074-.2982.045-.5448-.097-.7532-.153-.2345-.37-.4388-.64-.6075-.293-.183-.7-.3948-1.212-.6303-.613-.2835-1.102-.5448-1.458-.7697-.379-.2392-.681-.5486-.898-.92-.229-.3891-.276-.8588-.141-1.3955.174-.6937.606-1.1905 1.283-1.4812.661-.2832 1.533-.292 2.592-.0257.693.1742 1.25.4351 1.655.779.412.3453.687.7287.821 1.134.134.4052.155.7996.062 1.1709l-.074.2235c-.035.1062-.144.1651-.255.1372l-.777-.1951c-.113-.0286-.185-.1445-.157-.2558l.05-.1979c.069-.2737.008-.5714-.184-.9105-.184-.3229-.723-.6055-1.561-.816-1.017-.2557-1.47-.1533-1.674-.0233-.306.197-.491.4384-.564.7311-.059.2357-.025.4403.099.6244.145.2092.349.3961.607.5532.281.1714.682.3819 1.196.6261.604.2932 1.102.5624 1.476.7976.4.2503.717.5719.943.9541.235.4027.288.8737.155 1.4024zM301.649 72.1014c1.31-2.1546 3.388-3.9054 5.856-4.7863a12.1453 12.1453 0 013.863-.7342c1.324-.0187 2.66.1714 3.924.59 1.267.4079 2.474 1.0109 3.558 1.7908 1.082.7841 2.002 1.772 2.756 2.8598.743 1.093 1.348 2.2931 1.67 3.5715.333 1.2729.456 2.5925.362 3.8933-.082 1.3044-.436 2.5755-.949 3.7643-.521 1.1861-1.224 2.3012-2.123 3.2404-1.779 1.882-4.164 3.2281-6.754 3.6388-1.288.2165-2.61.232-3.903.0385-.64-.1293-1.283-.2491-1.904-.4527-.618-.2075-1.222-.4543-1.803-.7496-2.32-1.185-4.209-3.1383-5.302-5.445a.1551.1551 0 01.078-.2078.1631.1631 0 01.21.0727l.001.0019c1.145 2.2081 3.035 4.0162 5.278 5.0634.561.261 1.142.4741 1.732.6501.594.172 1.204.2618 1.809.3633 1.22.1382 2.452.078 3.638-.1648 2.38-.4693 4.536-1.7786 6.055-3.5616.772-.8852 1.352-1.916 1.76-2.9944.397-1.0819.649-2.223.654-3.367.026-1.1402-.116-2.2792-.447-3.3672-.338-1.0844-.824-2.1256-1.471-3.0659-.645-.942-1.446-1.7756-2.344-2.4964-.911-.706-1.941-1.2583-3.033-1.6641-1.089-.4243-2.26-.6438-3.436-.6917-1.179-.0642-2.376.0659-3.53.3867-1.154.3205-2.253.8383-3.284 1.4855-1.027.6573-1.939 1.4966-2.739 2.4531l-.005.006a.1084.1084 0 01-.151.0135.1033.1033 0 01-.026-.1349z"/>
        <path d="M310.816 79.31a.5216.5216 0 01-.315-.2295.4973.4973 0 01-.055-.3925c.031-.1082.776-2.6596 2.928-3.9136 2.156-1.2566 4.084-1.3212 4.795-.1628.712 1.1598-.259 2.7833-2.415 4.0399-2.151 1.2541-4.811.6869-4.923.6623a.4117.4117 0 00-.015-.0038zm6.021-4.4884c-.593-.149-1.637.0554-2.935.8121-1.254.7306-1.958 2.0483-2.272 2.7891.819.0806 2.343.0995 3.597-.6311 1.775-1.035 2.392-2.1493 2.071-2.6721-.087-.1407-.243-.2432-.461-.298zM307.821 77.1531a.5195.5195 0 01-.288-.1909c-.05-.0671-1.221-1.6628-.316-3.2736.376-.6694.937-1.1354 1.579-1.3123.508-.1397 1.033-.0814 1.478.163.451.2478.78.6639.926 1.1713.183.6333.073 1.3445-.31 2.0023-.903 1.5527-2.887 1.4598-2.971 1.4551a.5147.5147 0 01-.098-.0149zm1.753-3.8259c-.155-.039-.322-.0358-.492.0113-.375.1032-.729.4094-.971.8396-.442.7872-.104 1.6065.108 1.9858.441-.0336 1.345-.1965 1.785-.952.244-.4188.322-.8704.216-1.2387-.072-.2513-.224-.4462-.437-.5637a.8461.8461 0 00-.209-.0823zM313.106 84.3656c-1.395-.3505-2.061-1.6702-2.093-1.7348a.4887.4887 0 01-.003-.4286c.035-.0743.889-1.8214 2.721-1.8623.775-.017 1.471.2239 1.957.6806.389.3656.61.845.621 1.3495.01.4982-.185.9758-.552 1.3457-.463.4678-1.15.7288-1.933.7348a2.8445 2.8445 0 01-.718-.0849zm-1.047-1.9474c.242.3606.824 1.0412 1.745 1.0335.504-.0039.948-.1628 1.219-.4362.18-.1815.272-.4013.267-.6356-.005-.2388-.11-.4608-.303-.6419-.283-.2652-.729-.4115-1.221-.4-.902.0202-1.471.7173-1.707 1.0802z"/>
        <path d="M306.574 77.1157a2.1892 2.1892 0 01-1.166-.7424c-.431-.5267-.584-1.202-.42-1.8522l.121-.4835.99.2487-.122.4835c-.087.3456-.006.7043.224.9843.229.2803.569.4368.932.43l1.305-.0233.029.9982-1.304.0235a2.2272 2.2272 0 01-.589-.0668z"/>
        <path d="M311.16 82.8759l-.37-.6044c-.503-.8191-.686-2.0694-.488-3.0746-1.003-.3055-2.047-1.0543-2.55-1.8733l-.371-.6042.872-.5079.371.6042c.433.7052 1.541 1.4123 2.371 1.5157a.5156.5156 0 01.378.2412.493.493 0 01.04.4385c-.301.7613-.184 2.0477.249 2.7533l.37.6051-.872.5064z"/>
        <path d="M312.572 86.1952l-.568-.1427c-.651-.1636-1.183-.6022-1.46-1.2034-.277-.6012-.26-1.2788.048-1.8591l.661-1.2468.905.4684-.661 1.2464c-.164.3085-.173.6687-.026.9882.148.3195.431.5524.777.6393l.567.1427-.243.9671v-.0001z"/>
      </g>
    </g>
    <g clip-path="url(#clip3_938_8591)" filter="url(#filter3_d_938_8591)">
      <path fill="#fff" d="M463.401 10.2974l95.6517 20.8152-37.044 170.228-95.6518-20.8153z"/>
      <path opacity=".2" d="M464.478 89.7543c3.34-5.9697 8.77-10.9171 15.311-13.5411a32.3063 32.3063 0 0110.287-2.3584c3.546-.1764 7.137.2124 10.556 1.228 3.425.9866 6.705 2.5079 9.667 4.521 2.96 2.0246 5.5 4.6175 7.603 7.4972 2.075 2.8947 3.789 6.0933 4.751 9.5312.989 3.4218 1.421 6.9898 1.269 10.5288-.118 3.546-.966 7.028-2.248 10.302-1.304 3.267-3.099 6.36-5.435 8.993-4.618 5.275-10.901 9.153-17.806 10.513-3.431.71-6.971.877-10.45.475-1.724-.29-3.455-.554-5.132-1.047-1.673-.505-3.31-1.117-4.887-1.863-6.305-2.995-11.515-8.115-14.622-14.27-.106-.21-.02-.465.192-.571.206-.101.458-.022.568.178l.002.005c3.238 5.882 8.442 10.608 14.529 13.236 1.522.655 3.094 1.178 4.69 1.599 1.602.411 3.245.596 4.871.814 3.279.259 6.574-.021 9.73-.792 6.338-1.499 12.012-5.256 15.941-10.237 1.997-2.475 3.471-5.327 4.481-8.291.979-2.973 1.564-6.093 1.491-9.197-.02-3.096-.489-6.173-1.459-9.093-.99-2.9099-2.371-5.6887-4.178-8.1784-1.801-2.4943-4.01-4.6799-6.47-6.5503-2.494-1.829-5.296-3.2297-8.252-4.2269-2.95-1.0477-6.103-1.5323-9.257-1.5505-3.161-.0624-6.358.4043-9.422 1.384-3.068.9792-5.971 2.4884-8.681 4.3419-2.698 1.8808-5.076 4.2444-7.146 6.9155l-.013.0165c-.096.1251-.277.1476-.402.0511a.2816.2816 0 01-.079-.3636z" fill="#119DA4"/>
      <path opacity=".2" d="M443.423 77.7072c5.824-10.4092 15.292-19.0359 26.697-23.6113 5.669-2.3288 11.754-3.7355 17.937-4.1123 6.183-.3077 12.446.3703 18.407 2.1413 5.972 1.7202 11.691 4.3729 16.856 7.8831 5.161 3.5302 9.589 8.0515 13.257 13.0727 3.619 5.0475 6.607 10.6249 8.284 16.6194 1.725 5.9664 2.479 12.1889 2.214 18.3579-.207 6.184-1.685 12.256-3.921 17.965-2.273 5.697-5.403 11.088-9.476 15.68-8.053 9.198-19.008 15.96-31.048 18.332-5.984 1.237-12.157 1.529-18.222.828-3.006-.506-6.024-.966-8.949-1.826-2.917-.88-5.771-1.948-8.52-3.248-10.995-5.222-20.08-14.15-25.496-24.882a.7373.7373 0 01.333-.995c.361-.178.798-.039.991.309l.004.009c5.646 10.256 14.719 18.496 25.333 23.079 2.655 1.142 5.396 2.054 8.178 2.789 2.794.716 5.658 1.039 8.493 1.419 5.719.452 11.463-.036 16.967-1.381 11.052-2.614 20.944-9.165 27.795-17.851 3.484-4.315 6.053-9.288 7.814-14.456 1.707-5.185 2.728-10.624 2.6-16.037-.034-5.398-.853-10.7629-2.544-15.8551-1.726-5.074-4.134-9.9193-7.284-14.2606-3.142-4.3492-6.994-8.1601-11.282-11.4215-4.349-3.1893-9.235-5.6317-14.389-7.3705-5.145-1.8268-10.641-2.6717-16.141-2.7036-5.512-.1087-11.087.705-16.431 2.4134-5.348 1.7073-10.41 4.3389-15.135 7.5708-4.706 3.2795-8.852 7.4009-12.461 12.0584l-.022.0289c-.168.2181-.484.2574-.702.089-.203-.1505-.254-.4227-.137-.634z" fill="#F7BB3B"/>
      <path opacity=".2" d="M420.732 64.7229c8.5-15.1935 22.321-27.7854 38.967-34.4638 8.274-3.3991 17.157-5.4524 26.182-6.0024 9.025-.449 18.166.5406 26.867 3.1255 8.717 2.5108 17.065 6.3828 24.604 11.5064 7.533 5.1528 13.996 11.7522 19.35 19.0813 5.282 7.3675 9.644 15.5084 12.091 24.2582 2.519 8.7087 3.619 17.7909 3.231 26.7959-.301 9.026-2.458 17.889-5.722 26.221-3.318 8.316-7.887 16.186-13.832 22.888-11.754 13.425-27.745 23.296-45.318 26.758-8.734 1.806-17.744 2.232-26.598 1.208-4.388-.738-8.793-1.41-13.061-2.666-4.258-1.284-8.425-2.842-12.437-4.74-16.048-7.622-29.309-20.654-37.215-36.318-.27-.536-.053-1.185.487-1.453.526-.26 1.165-.057 1.446.451l.006.013c8.24 14.97 21.484 26.998 36.976 33.688 3.876 1.667 7.876 2.998 11.938 4.07 4.077 1.045 8.258 1.517 12.396 2.072 8.347.66 16.732-.053 24.765-2.016 16.132-3.816 30.572-13.378 40.571-26.056 5.085-6.299 8.835-13.557 11.406-21.101 2.491-7.567 3.982-15.507 3.794-23.407-.05-7.88-1.244-15.7104-3.713-23.1431-2.519-7.4061-6.034-14.4785-10.632-20.8152-4.586-6.3481-10.208-11.9107-16.467-16.6711-6.348-4.6552-13.48-8.2202-21.003-10.7581-7.509-2.6666-15.532-3.8998-23.56-3.9463-8.045-.1587-16.182 1.0291-23.982 3.5226-7.807 2.4921-15.196 6.3332-22.092 11.0506-6.869 4.7868-12.921 10.8026-18.188 17.6008l-.033.0422c-.245.3183-.705.3756-1.024.1299-.296-.2197-.371-.617-.2-.9254z" fill="#FF7057"/>
      <path opacity=".2" d="M393.327 49.042c11.733-20.972 30.81-38.3528 53.787-47.571 11.421-4.692 23.682-7.5261 36.14-8.2854 12.457-.6198 25.074.7462 37.084 4.3143C532.371.9656 543.893 6.3102 554.3 13.3824c10.397 7.1125 19.32 16.2218 26.71 26.3383 7.29 10.1695 13.31 21.4065 16.689 33.4841 3.477 12.0208 4.994 24.5569 4.46 36.9872-.417 12.459-3.393 24.692-7.899 36.194-4.58 11.478-10.886 22.341-19.093 31.592-16.223 18.531-38.296 32.156-62.553 36.934-12.055 2.493-24.492 3.081-36.713 1.669-6.057-1.02-12.137-1.947-18.029-3.68-5.877-1.773-11.629-3.924-17.167-6.544-22.152-10.521-40.455-28.508-51.369-50.13-.372-.74-.073-1.636.673-2.006.726-.358 1.608-.079 1.995.623l.009.018c11.374 20.663 29.655 37.266 51.039 46.5 5.35 2.3 10.872 4.138 16.478 5.618 5.628 1.442 11.398 2.094 17.111 2.86 11.521.91 23.095-.074 34.183-2.783 22.268-5.267 42.199-18.465 56.001-35.965 7.019-8.695 12.194-18.713 15.744-29.127 3.438-10.445 5.496-21.404 5.237-32.309-.069-10.8769-1.717-21.6852-5.125-31.9447-3.478-10.2228-8.33-19.985-14.676-28.7316-6.329-8.7626-14.09-16.4406-22.73-23.0115-8.763-6.4257-18.606-11.3466-28.99-14.8497-10.366-3.6807-21.44-5.383-32.52-5.4472-11.106-.219-22.338 1.4205-33.104 4.8624-10.776 3.4398-20.974 8.7419-30.494 15.2533-9.481 6.6074-17.835 14.9111-25.105 24.2948l-.046.0582c-.337.4394-.973.5185-1.413.1793-.409-.3032-.512-.8516-.276-1.2773z" fill="#119DA4"/>
      <path d="M481.841 101.353c1.109-1.9777 2.914-3.6159 5.089-4.4837a10.7684 10.7684 0 013.422-.7787c1.18-.0574 2.374.0725 3.512.4101 1.14.3279 2.231.8331 3.218 1.5011.985.6719 1.83 1.532 2.531 2.4872.691.96 1.262 2.02 1.583 3.16.33 1.134.475 2.317.426 3.49-.039 1.175-.32 2.329-.745 3.414-.433 1.082-1.029 2.107-1.806 2.979-1.535 1.747-3.624 3.03-5.921 3.479-1.141.234-2.319.289-3.476.154-.574-.096-1.15-.184-1.708-.348-.556-.168-1.101-.371-1.626-.619-2.099-.994-3.833-2.693-4.869-4.734a.1401.1401 0 01.064-.189.1451.1451 0 01.189.059l.001.002c1.079 1.95 2.811 3.518 4.837 4.391.507.217 1.03.391 1.561.531.533.137 1.079.199 1.62.271 1.092.087 2.187-.005 3.237-.259 2.109-.495 3.995-1.739 5.301-3.389.664-.819 1.153-1.764 1.488-2.746.325-.985.519-2.019.493-3.048-.007-1.026-.164-2.046-.488-3.014-.33-.965-.79-1.886-1.392-2.712-.6-.827-1.335-1.552-2.154-2.1726-.83-.6069-1.763-1.0719-2.747-1.4033-.982-.3481-2.03-.5096-3.08-.5165-1.051-.0216-2.115.1322-3.134.456-1.02.3236-1.986.823-2.887 1.4365-.897.6226-1.687 1.4049-2.375 2.2899l-.004.006a.0963.0963 0 01-.134.016.0914.0914 0 01-.026-.12z" fill="#295689"/>
      <path d="M490.199 107.554a.4513.4513 0 01-.286-.197.4443.4443 0 01-.06-.351c.025-.098.621-2.415 2.504-3.609 1.888-1.196 3.604-1.313 4.268-.293.665 1.021-.156 2.51-2.044 3.707-1.883 1.193-4.268.765-4.368.746-.005-.001-.01-.002-.014-.003zm5.245-4.221c-.532-.115-1.457.101-2.593.821-1.098.695-1.69 1.902-1.95 2.577.731.048 2.09.018 3.187-.677 1.555-.986 2.075-2.006 1.775-2.467-.081-.124-.224-.211-.419-.254zM487.473 105.707a.4643.4643 0 01-.261-.163c-.047-.059-1.132-1.458-.369-2.934.318-.613.805-1.05 1.372-1.228.449-.142.918-.105 1.321.101.409.209.713.573.856 1.025.18.563.101 1.206-.223 1.81-.763 1.423-2.533 1.401-2.608 1.399-.03 0-.059-.004-.088-.01zm1.461-3.494c-.14-.031-.289-.023-.439.025-.331.104-.638.39-.843.785-.372.721-.049 1.447.149 1.782.393-.044 1.194-.218 1.566-.911.206-.384.264-.792.159-1.12-.071-.224-.211-.395-.404-.494a.7538.7538 0 00-.188-.067zM492.373 112.03c-1.251-.272-1.88-1.438-1.91-1.495a.4468.4468 0 01-.015-.386c.03-.068.744-1.665 2.375-1.758.691-.039 1.317.156 1.762.552.357.317.566.741.589 1.195.023.447-.139.883-.456 1.226-.4.435-1.005.691-1.702.721-.23.009-.444-.012-.643-.055zm-.984-1.719c.226.317.762.911 1.583.876.448-.019.839-.175 1.073-.43.156-.168.233-.369.222-.579-.011-.215-.11-.411-.287-.568-.259-.23-.66-.348-1.099-.322-.803.045-1.292.69-1.492 1.023z" fill="#295689"/>
      <path d="M486.361 105.712a1.9375 1.9375 0 01-1.058-.632c-.398-.461-.552-1.063-.424-1.653l.095-.438.889.193-.096.439c-.068.313.014.633.225.878.212.245.519.375.842.358l1.162-.061.053.897-1.161.061c-.18.01-.356-.005-.527-.042z" fill="#295689"/>
      <path d="M490.601 110.75l-.346-.532c-.47-.721-.666-1.84-.517-2.75-.902-.244-1.852-.885-2.321-1.606l-.347-.532.763-.483.347.532c.404.62 1.411 1.222 2.153 1.29.14.012.266.088.343.205.076.117.093.262.047.393-.248.694-.11 1.847.295 2.468l.346.533-.763.482z" fill="#295689"/>
      <path d="M491.946 113.691l-.509-.111c-.584-.127-1.071-.505-1.333-1.037-.263-.532-.266-1.142-.007-1.673l.556-1.142.819.394-.556 1.141c-.138.282-.137.606.003.889.14.283.399.484.709.551l.51.111-.191.877h-.001z" fill="#295689"/>
    </g>
    <g clip-path="url(#clip4_938_8591)" filter="url(#filter4_d_938_8591)">
      <path fill="#fff" d="M105.42 155.454l174.1365 5.1287-2.8819 97.848-174.1365-5.1287z"/>
      <g clip-path="url(#clip5_938_8591)" fill="#295683">
        <path d="M186.791 201.721l-.152 5.156c-.003.116-.102.207-.221.203l-.802-.023c-.119-.004-.212-.1-.209-.216l.145-4.919c.023-.79-.142-1.385-.491-1.77-.343-.382-.861-.587-1.535-.607-.432-.013-.829.076-1.184.267-.354.191-.643.462-.85.802-.214.357-.325.743-.338 1.178l-.145 4.919c-.003.116-.102.207-.22.203l-.818-.024c-.118-.003-.211-.1-.208-.216l.236-8.007c.003-.116.102-.207.221-.203l.546.016c.106.003.194.082.207.185l.084.709c.461-.454 1.092-.771 1.842-.935a.2376.2376 0 01.037-.006c1.272-.123 2.291.167 3.014.859.59.562.872 1.381.841 2.429zM219.531 199.674l-.235 8.008c-.004.116-.102.207-.221.203l-.543-.016c-.107-.003-.195-.082-.207-.185l-.084-.71c-.501.493-1.175.818-2.042.954l-.031.003c-1.184.077-2.137-.217-2.823-.874-.587-.563-.869-1.379-.838-2.429l.152-5.156c.003-.116.102-.207.221-.203l.8.023c.118.004.211.1.208.216l-.145 4.922c-.023.787.142 1.382.491 1.769.352.388.855.585 1.536.605.431.012.829-.077 1.183-.265.355-.191.643-.459.85-.805.214-.349.325-.742.338-1.175l.145-4.921c.003-.116.102-.207.221-.204l.817.024c.118.004.211.101.207.216zM195.858 200.755c-.293-.652-.718-1.162-1.263-1.516-.547-.355-1.182-.544-1.894-.565-.711-.021-1.359.131-1.926.452-.565.322-1.02.806-1.35 1.439-.324.62-.501 1.38-.527 2.255l-.007.234c-.025.874.107 1.644.394 2.282.292.648.718 1.156 1.262 1.51.545.357 1.182.549 1.897.57.714.021 1.36-.133 1.924-.455.564-.324 1.019-.806 1.349-1.436.325-.625.504-1.383.53-2.254l.007-.235c.025-.871-.109-1.638-.396-2.281zm-3.381 5.519c-.723-.021-1.287-.286-1.723-.808-.44-.524-.649-1.291-.62-2.28l.013-.424c.029-.987.283-1.742.752-2.242.467-.495 1.046-.727 1.769-.706.72.021 1.284.287 1.721.808.439.528.648 1.297.619 2.283l-.013.424c-.029.989-.283 1.742-.752 2.24-.466.495-1.046.726-1.766.705zM209.881 202.401l-.152 5.156c-.003.116-.102.207-.22.203l-.818-.024c-.118-.003-.211-.1-.208-.216l.145-4.919c.046-1.558-.517-2.332-1.724-2.368-.577-.017-1.043.182-1.424.604-.385.428-.59.986-.61 1.654l-.145 4.918c-.003.116-.102.207-.22.204l-.818-.024c-.118-.004-.211-.1-.208-.216l.145-4.919c.046-1.558-.518-2.333-1.721-2.368-.58-.017-1.046.182-1.425.604-.387.427-.592.983-.612 1.653l-.145 4.919c-.003.116-.102.207-.22.203l-.818-.024c-.118-.003-.211-.1-.208-.216l.236-8.007c.003-.116.102-.207.221-.203l.545.016c.106.003.193.08.207.183l.088.672c.42-.461.988-.78 1.68-.916.012-.003.024-.004.036-.006.781-.071 1.482.068 2.07.399.292.167.541.38.745.639.077.097.226.107.314.02.211-.211.46-.395.748-.553.483-.265 1.036-.391 1.638-.373.866.025 1.581.323 2.117.884.269.282.465.626.593 1.029.128.404.184.87.168 1.392zM228.78 205.829c-.027.927-.385 1.604-1.063 2.012-.646.389-1.516.57-2.579.539-.811-.024-1.479-.175-1.986-.444-.512-.272-.883-.605-1.103-.992-.019-.031-.035-.065-.052-.096l-.003-.001c-.218-.366-.324-.747-.312-1.13l.024-.234a.203.203 0 01.066-.135c.003 0 .003 0 .003-.002a.2158.2158 0 01.148-.052l.803.024c.117.003.211.101.208.216l-.006.204c-.007.237.078.469.262.709.094.126.216.239.368.338.429.281 1.042.436 1.822.459.686.02 1.227-.095 1.601-.344.358-.236.536-.549.548-.951.009-.308-.073-.542-.256-.715-.2-.196-.456-.349-.756-.456-.325-.115-.768-.235-1.319-.354-.659-.145-1.193-.296-1.589-.439-.422-.152-.784-.389-1.075-.705-.307-.331-.454-.779-.438-1.332.021-.715.335-1.293.934-1.723.585-.419 1.434-.615 2.526-.583.715.021 1.314.157 1.784.405.476.249.827.564 1.045.931.219.367.324.747.313 1.13l-.024.234c-.012.112-.105.193-.22.189l-.8-.023c-.117-.004-.212-.102-.209-.216l.006-.204c.009-.282-.115-.56-.375-.85-.249-.276-.837-.436-1.7-.461-1.048-.031-1.469.167-1.64.337-.256.259-.385.534-.394.836-.007.243.07.435.232.588.186.173.425.312.711.41.312.107.749.226 1.303.354.653.156 1.198.312 1.613.461.445.159.824.405 1.126.729.317.343.469.792.453 1.337zM152.118 197.379c.816-2.386 2.469-4.543 4.689-5.934 1.102-.703 2.328-1.23 3.614-1.548 1.29-.303 2.635-.405 3.96-.268 1.325.126 2.634.455 3.86.984 1.225.533 2.336 1.3 3.306 2.2.961.907 1.811 1.949 2.4 3.128.599 1.172 1.003 2.434 1.19 3.725.201 1.291.129 2.609-.116 3.88-.254 1.27-.7 2.511-1.377 3.621-1.332 2.221-3.372 4.048-5.813 5.007-1.211.488-2.499.788-3.803.877-.653.011-1.307.033-1.956-.033-.649-.069-1.292-.18-1.922-.344-2.521-.658-4.786-2.159-6.35-4.177a.1546.1546 0 01.031-.219.164.164 0 01.221.025l.001.002c1.593 1.91 3.829 3.269 6.244 3.809.604.135 1.217.218 1.832.263.616.04 1.232-.004 1.844-.035 1.222-.127 2.412-.451 3.517-.943 2.224-.97 4.048-2.713 5.148-4.781.563-1.03.908-2.162 1.075-3.303.154-1.142.155-2.31-.086-3.429-.22-1.119-.604-2.201-1.161-3.192-.564-.986-1.262-1.899-2.096-2.678-.833-.781-1.794-1.422-2.826-1.933-1.041-.494-2.166-.812-3.32-.973-1.155-.18-2.346-.143-3.505.064-1.164.19-2.306.575-3.364 1.137-1.058.561-2.02 1.303-2.887 2.157-.862.863-1.572 1.878-2.148 2.985l-.004.007c-.026.051-.091.072-.144.045a.104.104 0 01-.054-.126z"/>
        <path d="M162.621 202.447a.517.517 0 01-.356-.156.4931.4931 0 01-.139-.372c.007-.112.186-2.764 2.017-4.451 1.836-1.691 3.704-2.169 4.649-1.191.944.98.346 2.774-1.49 4.465-1.831 1.687-4.551 1.706-4.665 1.706-.006 0-.011-.001-.016-.001zm4.914-5.678c-.611-.018-1.586.406-2.691 1.424-1.067.983-1.471 2.422-1.618 3.213.816-.098 2.309-.407 3.376-1.39 1.511-1.393 1.874-2.614 1.448-3.056-.115-.118-.29-.185-.515-.191zM159.232 200.985a.5164.5164 0 01-.322-.124c-.063-.055-1.55-1.361-1.013-3.129.224-.735.671-1.311 1.26-1.622.466-.245.991-.301 1.478-.158.494.145.905.48 1.157.944.314.58.36 1.298.128 2.023-.548 1.71-2.506 2.046-2.589 2.06a.5486.5486 0 01-.099.006zm.889-4.113c-.16-.005-.322.034-.478.117-.344.181-.624.556-.768 1.029-.262.863.245 1.591.533 1.916.424-.128 1.271-.482 1.539-1.314.148-.462.127-.919-.056-1.256-.125-.23-.314-.388-.548-.457a.8427.8427 0 00-.222-.035zM165.945 206.892c-1.437-.042-2.372-1.188-2.417-1.244a.495.495 0 01-.096-.418c.019-.08.477-1.97 2.258-2.404.753-.183 1.484-.098 2.057.244.459.273.778.694.897 1.184.117.484.029.993-.25 1.433-.351.557-.966.959-1.729 1.133-.252.058-.493.079-.72.072zm-1.442-1.676c.315.299 1.03.839 1.928.633.491-.112.89-.363 1.095-.688.137-.216.18-.45.125-.678-.056-.232-.206-.426-.434-.562-.333-.198-.8-.245-1.279-.128-.876.214-1.282 1.017-1.435 1.423z"/>
        <path d="M158.006 201.217a2.1829 2.1829 0 01-1.298-.474c-.534-.422-.829-1.048-.809-1.718l.015-.499 1.019.03-.014.499c-.011.356.146.689.43.913.284.224.649.304 1.003.219l1.269-.303.243.968-1.268.304c-.196.047-.394.067-.59.061z"/>
        <path d="M163.725 205.856l-.492-.511c-.667-.691-1.115-1.873-1.138-2.897-1.045-.083-2.226-.59-2.893-1.281l-.492-.511.741-.683.493.51c.574.596 1.809 1.048 2.642.97.157-.015.312.042.421.155a.493.493 0 01.133.419c-.13.808.261 2.04.835 2.635l.492.512-.742.682z"/>
        <path d="M165.817 208.793l-.585-.017c-.671-.02-1.286-.334-1.685-.861-.4-.528-.529-1.193-.353-1.826l.377-1.36.985.263-.378 1.359c-.093.337-.025.691.188.971.212.28.539.447.896.457l.585.017-.03.997z"/>
      </g>
      <path d="M76.899 201.669c39.847 15.108 41.949 29.002 56.02 35.667 14.071 6.665 25.979-10.096 53.075-3.867 27.096 6.228 20.276 20.782 36.959 20.146 16.683-.635 21.065-25.405 46.746-25.366 13.557.021 19.325-15.082 21.325-30.343l.638-21.676c.421 5.902.392 13.81-.638 21.676l-2.344 79.572-213.8283-6.298 2.0473-69.511z" fill="#119DA4"/>
      <path d="M78.8036 198.986c39.8464 15.109 41.9484 29.003 56.0194 35.668 14.072 6.665 25.979-10.096 53.076-3.867 27.096 6.228 20.275 20.782 36.958 20.146 16.684-.636 21.066-25.405 46.746-25.366 20.545.031 23.203-34.666 21.964-52.019" stroke="#58BABF" stroke-width=".6844"/>
      <path d="M80.2591 196.063c39.8469 15.108 41.9489 29.002 56.0199 35.667 14.071 6.665 25.979-10.096 53.075-3.867 27.096 6.228 20.276 20.782 36.959 20.146 16.683-.635 21.065-25.405 46.746-25.366 20.544.032 23.202-34.666 21.963-52.019" stroke="#88CED1" stroke-width=".6844"/>
      <path d="M81.715 193.138c39.847 15.109 41.949 29.003 56.02 35.668 14.071 6.664 25.979-10.096 53.075-3.868 27.096 6.229 20.276 20.783 36.959 20.147 16.683-.636 21.065-25.405 46.746-25.366 20.544.031 23.202-34.666 21.963-52.019" stroke="#CFEBED" stroke-width=".6844"/>
    </g>
    <g clip-path="url(#clip6_938_8591)" filter="url(#filter5_d_938_8591)">
      <path fill="#fff" d="M292.874 146.812l173.2646-18.1438 10.195 97.358-173.2645 18.1439z"/>
      <path d="M385.633 198.107l-73.544-59.601c-4.603-3.73-11.379-2.913-14.963 1.805l-1.822 2.398a10.4916 10.4916 0 00-2.081 7.441l9.866 94.214c.29 2.768 1.668 5.307 3.83 7.06l21.431 17.368c4.502 3.649 11.111 2.957 14.76-1.546l44.069-54.378c3.649-4.503 2.957-11.111-1.546-14.761zM483.162 277.354l-73.544-59.602c-4.603-3.73-11.38-2.913-14.964 1.805l-1.822 2.398a10.497 10.497 0 00-2.08 7.441l9.865 94.214c.29 2.768 1.668 5.308 3.83 7.06l21.431 17.368c4.503 3.649 11.111 2.957 14.76-1.546l44.069-54.378c3.65-4.503 2.958-11.111-1.545-14.76zM430.132 79.8021l-59.601 73.5439c-3.731 4.603-10.529 5.207-15.013 1.334l-2.279-1.968a10.4945 10.4945 0 01-3.577-6.849l-9.866-94.2136a10.491 10.491 0 012.284-7.7003l17.368-21.4308c3.649-4.5028 10.257-5.1948 14.76-1.5457l54.378 44.0692c4.503 3.6491 5.195 10.2575 1.546 14.7603zM381.808 175.697l73.544 59.601c4.603 3.73 11.379 2.913 14.964-1.805l1.821-2.398a10.4916 10.4916 0 002.081-7.441l-9.866-94.214a10.4965 10.4965 0 00-3.829-7.06l-21.431-17.368c-4.503-3.649-11.111-2.957-14.761 1.546l-44.069 54.378c-3.649 4.503-2.957 11.112 1.546 14.761z" fill="#295689"/>
      <path d="M319.628 205.516c.539-2.72 2.027-5.314 4.246-7.156a13.37 13.37 0 013.717-2.218c1.363-.52 2.816-.828 4.282-.874 1.465-.057 2.941.11 4.357.506 1.416.401 2.74 1.073 3.931 1.912 1.182.848 2.262 1.859 3.078 3.058.825 1.189 1.452 2.505 1.846 3.885.408 1.378.523 2.824.442 4.246-.091 1.422-.396 2.839-.971 4.149-1.128 2.616-3.086 4.908-5.609 6.311-1.25.71-2.612 1.226-4.023 1.515-.711.108-1.421.227-2.139.251-.718.02-1.437-.007-2.148-.093-2.848-.347-5.54-1.651-7.542-3.62a.1697.1697 0 01.001-.244.1793.1793 0 01.245-.004l.002.001c2.018 1.848 4.657 3.001 7.373 3.236.678.057 1.36.058 2.037.016.679-.046 1.344-.184 2.008-.308 1.314-.318 2.566-.846 3.7-1.545 2.284-1.384 4.019-3.551 4.916-5.966.463-1.206.673-2.49.688-3.758.002-1.268-.17-2.542-.596-3.725-.405-1.188-.982-2.31-1.736-3.309-.76-.992-1.655-1.884-2.68-2.611-1.024-.729-2.167-1.288-3.368-1.693-1.209-.385-2.483-.566-3.766-.573-1.287-.026-2.581.189-3.815.584-1.244.379-2.433.966-3.505 1.734-1.073.767-2.014 1.717-2.835 2.775-.813 1.067-1.439 2.279-1.905 3.569l-.003.008a.12.12 0 01-.151.071.1129.1129 0 01-.077-.13z" fill="#fff"/>
      <path d="M331.833 209.499a.5699.5699 0 01-.412-.119.5384.5384 0 01-.205-.384c-.009-.124-.203-3.04 1.548-5.149 1.755-2.112 3.724-2.907 4.898-1.98 1.174.929.784 2.973-.971 5.085-1.75 2.109-4.716 2.528-4.841 2.545-.006 0-.011.001-.017.002zm4.53-6.911c-.669.07-1.671.675-2.728 1.947-1.02 1.229-1.25 2.856-1.295 3.739.877-.226 2.461-.782 3.481-2.01 1.445-1.74 1.662-3.124 1.132-3.543-.143-.113-.344-.159-.59-.133zM327.92 208.402a.57.57 0 01-.37-.088c-.077-.05-1.891-1.256-1.564-3.262.136-.834.54-1.527 1.137-1.952.472-.336 1.037-.474 1.589-.39.561.085 1.058.391 1.401.86.429.585.584 1.361.437 2.185-.347 1.945-2.435 2.599-2.523 2.626a.5626.5626 0 01-.107.021zm.367-4.614c-.176.019-.347.085-.505.198-.349.248-.599.698-.687 1.234-.159.98.501 1.698.862 2.01.445-.201 1.318-.711 1.487-1.658.094-.524.004-1.02-.245-1.361-.17-.232-.4-.376-.665-.417a.9743.9743 0 00-.247-.006zM336.113 213.855c-1.575.165-2.763-.946-2.82-1.001a.536.536 0 01-.166-.441c.009-.09.231-2.218 2.11-2.952.796-.311 1.606-.325 2.281-.037.541.231.951.643 1.153 1.16.199.51.177 1.077-.062 1.598-.302.658-.914 1.187-1.721 1.489-.267.1-.526.158-.775.184zm-1.82-1.616c.388.281 1.247.764 2.197.408.519-.194.918-.526 1.095-.911.117-.255.13-.517.036-.757-.095-.245-.288-.435-.556-.549-.393-.167-.909-.149-1.415.049-.924.361-1.25 1.296-1.357 1.76z" fill="#fff"/>
      <path d="M326.616 208.835a2.4058 2.4058 0 01-1.486-.326c-.645-.381-1.058-1.021-1.135-1.754l-.057-.546 1.117-.117.057.546c.041.39.261.729.603.932.343.203.754.236 1.127.092l1.341-.517.408 1.02-1.34.517c-.207.08-.42.131-.635.153z" fill="#fff"/>
      <path d="M333.537 213.052l-.611-.485c-.83-.656-1.491-1.878-1.667-2.991-1.153.064-2.516-.315-3.345-.971l-.612-.484.709-.854.612.484c.714.565 2.128.876 3.026.669.169-.04.347 0 .482.107.134.106.211.268.207.437-.024.9.583 2.185 1.298 2.75l.612.485-.711.853z" fill="#fff"/>
      <path d="M336.252 215.946l-.641.068c-.735.077-1.452-.175-1.965-.691-.514-.517-.752-1.223-.653-1.939l.212-1.538 1.113.142-.213 1.538c-.052.38.074.756.348 1.03.273.274.654.408 1.044.367l.641-.067.114 1.09z" fill="#fff"/>
    </g>
    <g clip-path="url(#clip7_938_8591)" filter="url(#filter6_d_938_8591)">
      <path fill="#FBFAF6" d="M37.2131 25.5137l96.6226 15.7034-27.9467 171.9558-96.6226-15.7034z"/>
      <path d="M88.4615 22.2865c26.6025 44.6553 15.4505 69.1913-8.2507 88.4525-23.7006 19.26-66.8936 41.132-57.7746 79.594 7.2951 30.77-2.0491 37.495-7.6331 37.011" stroke="#F7BB3B" stroke-width=".9125"/>
      <path d="M92.982 20.0164c26.603 44.6554 15.45 69.1913-8.2506 88.4526-23.7007 19.26-66.8937 41.132-57.7747 79.594 7.2951 30.77-2.0491 37.495-7.6331 37.011" stroke="#F7BB3B" stroke-width=".9125"/>
      <path d="M97.5032 17.7464c26.6028 44.6553 15.4498 69.1913-8.2506 88.4526-23.7007 19.26-66.8936 41.132-57.7747 79.594 7.2952 30.77-2.049 37.495-7.633 37.011" stroke="#F7BB3B" stroke-width=".9125"/>
      <path d="M102.023 15.4764c26.603 44.6553 15.451 69.1913-8.2501 88.4526-23.7007 19.26-66.8937 41.132-57.7747 79.594 7.2952 30.77-2.0491 37.495-7.633 37.011" stroke="#F7BB3B" stroke-width=".9125"/>
      <path d="M102.023 15.4764c26.603 44.6553 15.451 69.1913-8.2501 88.4526-23.7007 19.26-66.8937 41.132-57.7747 79.594 7.2952 30.77-2.0491 37.495-7.633 37.011" stroke="#F7BB3B" stroke-width=".9125"/>
      <path d="M107.355 12.6453c26.602 44.6554 15.45 69.1914-8.2508 88.4527-23.7007 19.26-66.8937 41.131-57.7747 79.594 7.2952 30.77-2.0491 37.495-7.633 37.011" stroke="#F7BB3B" stroke-width=".9125"/>
      <circle cx="72.0185" cy="118.537" r="21.9009" transform="rotate(9.231 72.0185 118.537)" fill="#295689"/>
      <path d="M61.5146 113.513c1.1061-2.225 3.0019-4.118 5.3536-5.189 1.1684-.544 2.4355-.9 3.7352-1.044 1.3005-.129 2.6294-.054 3.9075.251 1.2799.295 2.5174.786 3.648 1.461 1.13.68 2.1172 1.573 2.9499 2.578.8225 1.011 1.5183 2.139 1.9424 3.367.434 1.222.666 2.508.6825 3.793.029 1.287-.2113 2.565-.616 3.775-.4126 1.209-1.0093 2.362-1.8146 3.36-1.5904 1.996-3.8218 3.518-6.3334 4.137a12.3133 12.3133 0 01-3.8338.365c-.6401-.074-1.282-.138-1.9089-.286-.6256-.152-1.2403-.344-1.8354-.585-2.3804-.97-4.4015-2.73-5.67-4.903a.1525.1525 0 01.0587-.211.1611.1611 0 01.2125.054l.0011.002c1.3112 2.072 3.3218 3.689 5.6143 4.53.5735.21 1.1623.37 1.7579.494.5975.119 1.2054.156 1.808.205a11.4688 11.4688 0 003.5624-.466c2.3005-.66 4.3102-2.126 5.6531-4.003.6841-.934 1.1675-1.995 1.4784-3.088.2991-1.095.4506-2.237.36-3.36-.0706-1.122-.3062-2.229-.7228-3.269-.4237-1.037-.9885-2.019-1.7039-2.888-.7137-.871-1.5709-1.622-2.5137-2.255-.9549-.617-2.0141-1.073-3.1217-1.38-1.1066-.326-2.2758-.444-3.4362-.392-1.1639.035-2.3302.263-3.4373.674-1.1081.412-2.1449 1.012-3.1035 1.734-.9541.731-1.7803 1.631-2.4867 2.638l-.0044.006c-.0328.047-.0989.058-.147.026a.1026.1026 0 01-.0362-.131z" fill="#fff"/>
      <path d="M71.1315 119.826a.5136.5136 0 01-.3283-.199.4841.4841 0 01-.087-.381c.0211-.109.539-2.676 2.5486-4.088 2.0141-1.414 3.9033-1.638 4.7003-.56.7971 1.079-.0204 2.754-2.0346 4.168-2.0092 1.412-4.6719 1.077-4.7837 1.062-.0053-.001-.0103-.001-.0153-.002zm5.5412-4.911c-.5951-.097-1.604.191-2.8165 1.043-1.1708.822-1.752 2.175-1.9986 2.929.8114.01 2.3116-.099 3.4823-.921 1.6582-1.165 2.1711-2.31 1.8116-2.797-.097-.131-.2599-.218-.4788-.254zM68.0061 117.958a.509.509 0 01-.2991-.163c-.0549-.062-1.3401-1.531-.5856-3.188.3135-.689.8255-1.193 1.4417-1.421.4874-.179 1.0084-.166 1.466.037.4646.205.8228.586 1.0093 1.072.2329.607.1845 1.315-.1364 1.992-.7574 1.601-2.7157 1.675-2.7987 1.678a.5288.5288 0 01-.0972-.007zm1.4016-3.903c-.1559-.025-.3199-.008-.483.052-.3598.133-.682.463-.8838.906-.3682.81.0335 1.586.273 1.941.4315-.07 1.306-.306 1.6749-1.084.2045-.432.2436-.882.1085-1.235-.0924-.24-.2575-.419-.4772-.517a.8861.8861 0 00-.2124-.063zM73.8077 124.598c-1.3999-.227-2.1658-1.467-2.2029-1.528a.484.484 0 01-.0394-.421c.0287-.076.7212-1.863 2.5186-2.056.7604-.082 1.4643.097 1.9807.505.4137.326.6709.778.7242 1.273.0522.488-.1001.973-.4293 1.367-.4161.498-1.0691.812-1.8385.884a2.8376 2.8376 0 01-.7134-.024zm-1.1931-1.824c.2691.333.8985.953 1.8033.868.4949-.046.9175-.239 1.1606-.53.162-.193.2344-.417.2098-.646-.0252-.234-.1469-.444-.3517-.605-.3005-.237-.7513-.343-1.2347-.291-.8843.095-1.3858.828-1.5873 1.204z" fill="#fff"/>
      <path d="M66.7772 118.026a2.161 2.161 0 01-1.2088-.632c-.4674-.481-.6748-1.131-.5688-1.783l.0788-.485.9935.161-.0788.485c-.0563.347.0538.692.3025.948.2487.256.5962.381.9526.344l1.2806-.132.113.978-1.2802.132c-.1978.021-.394.015-.5844-.016z" fill="#fff"/>
      <path d="M71.7702 123.298l-.4147-.562c-.5632-.762-.8482-1.975-.7384-2.978-1.0116-.217-2.1008-.865-2.6639-1.627l-.4155-.562.8139-.572.4155.563c.4848.656 1.6343 1.258 2.4588 1.29a.5066.5066 0 01.3916.205.4856.4856 0 01.076.427c-.2316.773-.0087 2.026.4764 2.683l.415.563-.8147.57z" fill="#fff"/>
      <path d="M73.4368 126.44l-.5699-.093c-.6538-.106-1.2142-.492-1.537-1.06-.3229-.567-.3628-1.234-.1089-1.829l.5452-1.28.9291.385-.5455 1.279c-.1347.316-.1138.671.0582.972.1716.302.4694.507.8168.563l.57.093-.1576.97h-.0004z" fill="#fff"/>
    </g>
  </g>
  <defs>
    <clipPath id="clip0_938_8591">
      <path fill="#fff" transform="rotate(-9.934 213.3172 -784.5638)" d="M0 0h97.8904v174.212H0z"/>
    </clipPath>
    <clipPath id="clip1_938_8591">
      <path fill="#fff" transform="rotate(14.11 68.4295 1084.1162)" d="M0 0h174.212v97.8904H0z"/>
    </clipPath>
    <clipPath id="clip2_938_8591">
      <path fill="#fff" transform="rotate(14.11 -107.6098 1258.8598)" d="M0 0h76.8813v23.4978H0z"/>
    </clipPath>
    <clipPath id="clip3_938_8591">
      <path fill="#fff" transform="rotate(12.277 183.8274 2159.5233)" d="M0 0h97.8904v174.212H0z"/>
    </clipPath>
    <clipPath id="clip4_938_8591">
      <path fill="#fff" transform="rotate(1.687 -5226.5798 3657.839)" d="M0 0h174.212v97.8904H0z"/>
    </clipPath>
    <clipPath id="clip5_938_8591">
      <path fill="#fff" transform="rotate(1.687 -6350.7047 5268.6353)" d="M0 0h76.8813v23.4978H0z"/>
    </clipPath>
    <clipPath id="clip6_938_8591">
      <path fill="#fff" transform="rotate(-5.978 1552.2522 -2731.0426)" d="M0 0h174.212v97.8904H0z"/>
    </clipPath>
    <clipPath id="clip7_938_8591">
      <path fill="#fff" transform="rotate(9.231 -139.4087 243.2305)" d="M0 0h97.8904v174.212H0z"/>
    </clipPath>
    <filter id="filter0_d_938_8591" x="5.2664" y="8.1499" width="557.786" height="258.28" filterUnits="userSpaceOnUse" color-interpolation-filters="sRGB">
      <feFlood flood-opacity="0" result="BackgroundImageFix"/>
      <feColorMatrix in="SourceAlpha" values="0 0 0 0 0 0 0 0 0 0 0 0 0 0 0 0 0 0 127 0" result="hardAlpha"/>
      <feOffset dy="4"/>
      <feGaussianBlur stdDeviation="2"/>
      <feComposite in2="hardAlpha" operator="out"/>
      <feColorMatrix values="0 0 0 0 0 0 0 0 0 0 0 0 0 0 0 0 0 0 0.25 0"/>
      <feBlend in2="BackgroundImageFix" result="effect1_dropShadow_938_8591"/>
      <feBlend in="SourceGraphic" in2="effect1_dropShadow_938_8591" result="shape"/>
    </filter>
    <filter id="filter1_d_938_8591" x="130.06" y=".8828" width="145.854" height="207.866" filterUnits="userSpaceOnUse" color-interpolation-filters="sRGB">
      <feFlood flood-opacity="0" result="BackgroundImageFix"/>
      <feColorMatrix in="SourceAlpha" values="0 0 0 0 0 0 0 0 0 0 0 0 0 0 0 0 0 0 127 0" result="hardAlpha"/>
      <feOffset dx="1.2112" dy="2.4224"/>
      <feGaussianBlur stdDeviation="4.8447"/>
      <feColorMatrix values="0 0 0 0 0.266667 0 0 0 0 0.266667 0 0 0 0 0.266667 0 0 0 0.25 0"/>
      <feBlend in2="BackgroundImageFix" result="effect1_dropShadow_938_8591"/>
      <feBlend in="SourceGraphic" in2="effect1_dropShadow_938_8591" result="shape"/>
    </filter>
    <filter id="filter2_d_938_8591" x="234" y="8.7568" width="212.198" height="156.784" filterUnits="userSpaceOnUse" color-interpolation-filters="sRGB">
      <feFlood flood-opacity="0" result="BackgroundImageFix"/>
      <feColorMatrix in="SourceAlpha" values="0 0 0 0 0 0 0 0 0 0 0 0 0 0 0 0 0 0 127 0" result="hardAlpha"/>
      <feOffset dx="1.2112" dy="2.4224"/>
      <feGaussianBlur stdDeviation="4.8447"/>
      <feColorMatrix values="0 0 0 0 0.266667 0 0 0 0 0.266667 0 0 0 0 0.266667 0 0 0 0.25 0"/>
      <feBlend in2="BackgroundImageFix" result="effect1_dropShadow_938_8591"/>
      <feBlend in="SourceGraphic" in2="effect1_dropShadow_938_8591" result="shape"/>
    </filter>
    <filter id="filter3_d_938_8591" x="417.878" y="3.0303" width="152.075" height="210.422" filterUnits="userSpaceOnUse" color-interpolation-filters="sRGB">
      <feFlood flood-opacity="0" result="BackgroundImageFix"/>
      <feColorMatrix in="SourceAlpha" values="0 0 0 0 0 0 0 0 0 0 0 0 0 0 0 0 0 0 127 0" result="hardAlpha"/>
      <feOffset dx="1.2112" dy="2.4224"/>
      <feGaussianBlur stdDeviation="4.8447"/>
      <feColorMatrix values="0 0 0 0 0.266667 0 0 0 0 0.266667 0 0 0 0 0.266667 0 0 0 0.25 0"/>
      <feBlend in2="BackgroundImageFix" result="effect1_dropShadow_938_8591"/>
      <feBlend in="SourceGraphic" in2="effect1_dropShadow_938_8591" result="shape"/>
    </filter>
    <filter id="filter4_d_938_8591" x="94.0598" y="148.186" width="196.397" height="122.356" filterUnits="userSpaceOnUse" color-interpolation-filters="sRGB">
      <feFlood flood-opacity="0" result="BackgroundImageFix"/>
      <feColorMatrix in="SourceAlpha" values="0 0 0 0 0 0 0 0 0 0 0 0 0 0 0 0 0 0 127 0" result="hardAlpha"/>
      <feOffset dx="1.2112" dy="2.4224"/>
      <feGaussianBlur stdDeviation="4.8447"/>
      <feColorMatrix values="0 0 0 0 0.266667 0 0 0 0 0.266667 0 0 0 0 0.266667 0 0 0 0.25 0"/>
      <feBlend in2="BackgroundImageFix" result="effect1_dropShadow_938_8591"/>
      <feBlend in="SourceGraphic" in2="effect1_dropShadow_938_8591" result="shape"/>
    </filter>
    <filter id="filter5_d_938_8591" x="284.396" y="121.401" width="202.838" height="134.88" filterUnits="userSpaceOnUse" color-interpolation-filters="sRGB">
      <feFlood flood-opacity="0" result="BackgroundImageFix"/>
      <feColorMatrix in="SourceAlpha" values="0 0 0 0 0 0 0 0 0 0 0 0 0 0 0 0 0 0 127 0" result="hardAlpha"/>
      <feOffset dx="1.2112" dy="2.4224"/>
      <feGaussianBlur stdDeviation="4.8447"/>
      <feColorMatrix values="0 0 0 0 0.266667 0 0 0 0 0.266667 0 0 0 0 0.266667 0 0 0 0.25 0"/>
      <feBlend in2="BackgroundImageFix" result="effect1_dropShadow_938_8591"/>
      <feBlend in="SourceGraphic" in2="effect1_dropShadow_938_8591" result="shape"/>
    </filter>
    <filter id="filter6_d_938_8591" x=".7881" y="18.2466" width="143.948" height="207.038" filterUnits="userSpaceOnUse" color-interpolation-filters="sRGB">
      <feFlood flood-opacity="0" result="BackgroundImageFix"/>
      <feColorMatrix in="SourceAlpha" values="0 0 0 0 0 0 0 0 0 0 0 0 0 0 0 0 0 0 127 0" result="hardAlpha"/>
      <feOffset dx="1.2112" dy="2.4224"/>
      <feGaussianBlur stdDeviation="4.8447"/>
      <feColorMatrix values="0 0 0 0 0.266667 0 0 0 0 0.266667 0 0 0 0 0.266667 0 0 0 0.25 0"/>
      <feBlend in2="BackgroundImageFix" result="effect1_dropShadow_938_8591"/>
      <feBlend in="SourceGraphic" in2="effect1_dropShadow_938_8591" result="shape"/>
    </filter>
  </defs>
</svg>
