<svg width="200" height="200" fill="none" xmlns="http://www.w3.org/2000/svg">
  <g>
    <path d="M3.5604 69.3226c6.1954-20.5037 19.414-39.269 37.536-51.6577 8.9874-6.2553 19.0507-11.05 29.6747-14.0733C81.4201.6886 92.5804-.5121 103.63.3186c11.05.739 22.012 3.2106 32.337 7.4006 10.323 4.226 19.746 10.4744 28.036 17.887 8.212 7.4794 15.528 16.131 20.721 26.0154 5.264 9.8166 8.933 20.4543 10.809 31.3883 1.984 10.9367 1.712 22.1631-.021 33.0401-1.8 10.871-5.205 21.536-10.559 31.154-10.536 19.226-27.047 35.288-47.112 44.05-9.95 4.457-20.588 7.329-31.414 8.417-5.427.261-10.8562.606-16.2739.211-5.411-.431-10.7873-1.212-16.0653-2.446-21.1213-4.968-40.324-17.172-53.8214-33.947-.4613-.574-.3703-1.413.203-1.875.561-.451 1.376-.374 1.8427.165l.011.013c13.7157 15.852 32.635 26.853 52.8517 30.844 5.0543.99 10.174 1.544 15.2973 1.77 5.1347.19 10.2439-.338 15.3259-.752 10.129-1.393 19.946-4.445 29.019-8.909 18.254-8.813 32.996-24.096 41.632-41.963 4.43-8.91 7.019-18.62 8.128-28.368 1.008-9.755.725-19.6964-1.551-29.1504-2.106-9.4657-5.563-18.5734-10.437-26.8684-4.927-8.2483-10.955-15.8356-18.086-22.255-7.118-6.4356-15.27-11.6563-23.971-15.7443-8.783-3.9387-18.212-6.3597-27.847-7.4423-9.6492-1.2417-19.5412-.6244-29.1292 1.421-9.638 1.9153-19.0384 5.473-27.6927 10.5166-8.6667 5.0417-16.4813 11.5967-23.485 19.076-6.9496 7.5554-12.6093 16.379-17.1276 25.935l-.029.06c-.21.4457-.7434.6364-1.188.4254-.4054-.1914-.5987-.6487-.473-1.065z" fill="#F4B935"/>
    <path d="M156.431 194.412c10.051 1.422 9.348-4.981 10.944-12.732 2.054-9.967 22.171-101.9535 25.05-115.5305 1.444-6.808 6.33-21.338 2.539-27.9517-1.193-2.0763-5.985-3.534-8.66-4.5396-6.626-2.4914-45.243-12.8417-58.093-14.3987-8.705-1.0547-11.204 7.3107-13.201 14.2053-2.874 9.917-9.515 47.236-12.139 55.0967-2.206 6.608-15.4428 71.9515-17.2005 79.0285-.424 1.707-.8453 3.522-.3013 5.195 2.56 7.868 13.4003 8.557 19.9178 10.547 10.345 3.158 20.788 6.047 31.421 8.07 6.703 1.274 13.154 2.08 19.723 3.01z" fill="#29568A" stroke="#A8A491" stroke-miterlimit="10"/>
    <path opacity=".8" d="M126.346 47.0824l-2.013-.495c-2.169-.5336-3.495-2.7246-2.962-4.8936l2.901-11.7944c.534-2.1693 2.725-3.4953 4.894-2.9616l2.013.495c2.169.5336 3.495 2.7246 2.961 4.8936l-2.901 11.7944c-.533 2.1693-2.724 3.4953-4.893 2.9616z" fill="#FBF9F0"/>
    <g opacity=".8">
      <path opacity=".8" d="M146.732 118.042c16.712 0 30.26-13.548 30.26-30.2601 0-16.712-13.548-30.2597-30.26-30.2597-16.712 0-30.259 13.5477-30.259 30.2597 0 16.7121 13.547 30.2601 30.259 30.2601z" fill="#fff"/>
      <path opacity=".8" d="M139.117 111.902c-13.3-4.2-20.704-18.4362-16.504-31.7362 4.199-13.3 18.436-20.7037 31.736-16.504s20.704 18.4367 16.504 31.7367c-4.2 13.2995-18.436 20.7035-31.736 16.5035zm14.63-46.3329c-12.248-3.8676-25.36 2.9507-29.227 15.199-3.868 12.2484 2.951 25.3589 15.199 29.2269 12.248 3.868 25.359-2.951 29.227-15.1989 3.868-12.2483-2.951-25.3596-15.199-29.227z" fill="#13355A"/>
      <path opacity=".8" d="M140.325 108.117c-5.447-1.72-9.89-5.44-12.511-10.4762-2.622-5.036-3.121-10.8093-1.407-16.2566 1.712-5.4364 5.438-9.8794 10.493-12.51 5.054-2.6314 10.83-3.1354 16.264-1.4194 4.447 1.404 8.225 4.147 10.926 7.9314 2.317 3.246 3.719 7.2266 3.947 11.2093.018.3093-.109.6093-.343.8127a.9986.9986 0 01-.853.2246c-2.297-.4626-4.611.8574-5.383 3.07-.425 1.2177-.341 2.5214.235 3.672.609 1.215 1.691 2.0964 3.004 2.446.297.0784.544.2934.664.5784.12.285.101.61-.051.8793-2.249 3.9865-5.808 7.1975-10.021 9.0425-4.724 2.069-10.039 2.352-14.964.796zm12.237-38.7552c-4.924-1.555-10.158-1.098-14.739 1.286-4.58 2.3844-7.957 6.4104-9.508 11.3367-1.554 4.9383-1.102 10.1707 1.273 14.733 2.375 4.5625 6.402 7.9335 11.339 9.4925 4.464 1.409 9.279 1.153 13.56-.721 3.458-1.515 6.43-4.045 8.474-7.1908-1.319-.6407-2.385-1.69-3.055-3.0274-.821-1.638-.94-3.4943-.336-5.227.954-2.7323 3.559-4.5083 6.367-4.5023-.387-3.2133-1.6-6.3683-3.474-8.993-2.447-3.4293-5.871-5.9143-9.901-7.1867z" fill="#13355A"/>
      <path opacity=".8" d="M141.485 104.443c-4.466-1.41-8.107-4.4574-10.254-8.5814-2.147-4.1236-2.555-8.8543-1.148-13.321 1.402-4.454 4.454-8.094 8.596-10.2493 4.14-2.1557 8.873-2.5687 13.325-1.1627 3.644 1.1507 6.739 3.3967 8.95 6.4954 1.157 1.6213 2.027 3.4346 2.586 5.3903a.9996.9996 0 01-.614 1.2126c-2.4.8884-4.261 2.7857-5.105 5.2057-.771 2.2097-.619 4.5777.428 6.6683.376.7504.858 1.44 1.433 2.0504.358.38.363.971.012 1.3573-1.651 1.8204-3.709 3.3014-5.951 4.2824-3.87 1.695-8.223 1.926-12.258.652zm9.917-31.407c-3.943-1.245-8.133-.8794-11.8 1.0293-3.667 1.909-6.37 5.1323-7.612 9.076-1.246 3.957-.885 8.1466 1.015 11.7966 1.9 3.65 5.125 6.3481 9.082 7.5981 3.573 1.128 7.428.923 10.854-.577 1.718-.753 3.315-1.836 4.662-3.1597-.44-.56-.822-1.1637-1.142-1.8027-1.292-2.578-1.48-5.4983-.529-8.2233.936-2.6823 2.885-4.8447 5.42-6.051-.49-1.4157-1.169-2.7367-2.026-3.9363-1.957-2.7427-4.697-4.731-7.924-5.75z" fill="#13355A"/>
      <path opacity=".8" d="M142.645 100.769c-3.484-1.1003-6.324-3.475-7.996-6.6866-1.672-3.2117-1.988-6.8997-.891-10.3844 1.093-3.4717 3.472-6.3087 6.7-7.9887 3.227-1.6803 6.916-2.0023 10.386-.9063 2.84.897 5.252 2.6463 6.974 5.0593.287.4017.554.8244.795 1.2564a1 1 0 01-.265 1.281c-1.924 1.474-3.364 3.467-4.165 5.7636-1.108 3.173-.9 6.5781.583 9.5874.22.446.079.9853-.33 1.2667-.706.4843-1.458.9026-2.238 1.2446a13.608 13.608 0 01-9.553.507zm7.597-24.0593c-2.96-.9347-6.107-.6604-8.861.773-2.753 1.4333-4.783 3.854-5.715 6.8153-.937 2.9757-.668 6.1224.757 8.8607 1.426 2.738 3.849 4.7633 6.824 5.7027 2.683.847 5.577.6939 8.149-.4324.411-.18.814-.3856 1.204-.6136-1.378-3.2857-1.491-6.9134-.305-10.3117.831-2.381 2.254-4.4814 4.14-6.123-.08-.1207-.161-.24-.245-.357-1.468-2.0574-3.525-3.5487-5.948-4.314z" fill="#13355A"/>
      <path opacity=".8" d="M152.416 95.6673c-.126.062-1.044.6994-1.927 1.022-2.218.8104-4.598 1.0767-6.856.3637-2.506-.791-4.546-2.4953-5.744-4.7987-1.199-2.3023-1.425-4.9506-.636-7.4566.784-2.4924 2.492-4.529 4.809-5.7347 2.317-1.207 4.965-1.4377 7.457-.651 1.384.4373 2.627 1.157 3.669 2.1157.656.6036.705 1.6156.134 2.3-.008.009-.015.0183-.023.0273-.619.7453-1.721.8153-2.437.163-.695-.632-1.542-1.1203-2.507-1.402-3.269-.9527-6.752.876-7.824 4.107-1.123 3.3807.741 7.0143 4.126 8.083 1.898.5993 4.151.3813 5.787-.6297 1.637-1.0113 1.624-1.0026 1.637-1.0113.102 1.1803-.07 2.37.335 3.5023zM165.076 94.3563c1.254 0 2.27-1.0164 2.27-2.2703 0-1.2539-1.016-2.2703-2.27-2.2703s-2.27 1.0164-2.27 2.2703c0 1.2539 1.016 2.2703 2.27 2.2703z" fill="#13355A"/>
      <path opacity=".8" d="M153.263 80.7111l-1.293 1.5258 12.485 10.5832 1.293-1.5259-12.485-10.5831zM144.837 86.4541a1.0005 1.0005 0 01-.684-1.1187c.091-.5447.607-.9123 1.152-.821l3.553.596c.546.0943.913.607.821 1.1517-.091.5446-.607.9123-1.151.821l-3.554-.596a1.014 1.014 0 01-.137-.033z" fill="#13355A"/>
      <path opacity=".8" d="M146.315 88.529c-.467-.1476-.767-.621-.684-1.1183l.596-3.5537c.092-.5446.607-.9123 1.152-.821.546.093.912.6074.821 1.1517l-.596 3.5537c-.091.5446-.607.9123-1.152.821a1.0786 1.0786 0 01-.137-.0334z" fill="#13355A"/>
      <g opacity=".8" fill="#13355A">
        <path opacity=".8" d="M142.696 90.8466a.0898.0898 0 01-.017-.0686l.356-2.1934a.0873.0873 0 01.038-.0596.0862.0862 0 01.069-.0167l.536.087c.064.01.106.0437.127.1003l.421 1.0337.15-.9267a.0873.0873 0 01.038-.0596.0864.0864 0 01.069-.017l.615.1a.091.091 0 01.06.038c.015.0203.02.0433.016.0683l-.356 2.1933a.0884.0884 0 01-.038.0597.0892.0892 0 01-.069.017l-.536-.0873c-.039-.006-.067-.019-.085-.038a.2847.2847 0 01-.042-.0624l-.433-.959-.138.852a.0897.0897 0 01-.038.06.0874.0874 0 01-.068.017l-.615-.1a.0911.0911 0 01-.06-.038zM145.208 91.2541a.088.088 0 01-.016-.0684l.356-2.1933a.0877.0877 0 01.038-.0597.0864.0864 0 01.069-.017l1.711.2784c.025.004.045.0163.06.0376a.0894.0894 0 01.017.0687l-.084.5163a.0857.0857 0 01-.038.0597.089.089 0 01-.068.017l-.972-.1577-.04.2514.903.147a.0867.0867 0 01.06.0373.09.09 0 01.017.0687l-.083.5126a.092.092 0 01-.038.0604.0914.0914 0 01-.069.0166l-.903-.147-.104.6384a.0882.0882 0 01-.038.0596.0874.0874 0 01-.068.017l-.649-.105a.0953.0953 0 01-.061-.0386zM147.646 91.4819c-.177-.1834-.247-.432-.21-.7467.008-.0613.023-.1613.045-.2993.023-.1407.041-.242.053-.305.063-.301.21-.5124.441-.6344.231-.1213.514-.155.846-.1013.204.0333.386.0947.547.1833.161.0887.285.207.371.3544.086.1476.115.3203.085.5173a.072.072 0 01-.031.049.0718.0718 0 01-.056.0137l-.693-.1127c-.036-.006-.061-.017-.076-.033-.015-.017-.026-.0453-.033-.086-.014-.0723-.039-.125-.076-.1587-.036-.0336-.086-.056-.15-.066-.079-.013-.143-.002-.193.0327-.05.035-.084.1017-.102.201-.013.061-.029.1547-.05.2813-.02.127-.035.223-.043.2894-.014.0993-.003.174.033.2233.037.0487.094.0793.174.0927.128.0206.223-.0264.284-.1424.017-.0366.036-.06.055-.0713.019-.0103.048-.013.087-.0067l.692.1127a.071.071 0 01.049.0307.072.072 0 01.014.0563c-.034.1963-.116.351-.244.4637-.129.113-.284.186-.465.2193-.181.0337-.373.0337-.577.0003-.341-.0546-.6-.1743-.777-.3576z"/>
      </g>
    </g>
    <path d="M128.783 36.0551c1.763 0 3.192-1.4291 3.192-3.192 0-1.7629-1.429-3.192-3.192-3.192-1.763 0-3.192 1.4291-3.192 3.192 0 1.7629 1.429 3.192 3.192 3.192zM126.809 42.6683c.74 0 1.34-.6 1.34-1.34 0-.7401-.6-1.34-1.34-1.34-.741 0-1.34.5999-1.34 1.34 0 .74.599 1.34 1.34 1.34z" fill="#29568A"/>
    <path d="M24.9009 154.937c29.641-.559 72.439-25.01 85.7521-29.444 4.845-1.614 9.04-2.929 8.292-9.145-.752-6.256-5.5-13.83-7.839-19.7207-2.76-6.9526-6.043-30.193-15.3561-31.4483-2.5127-.3387-8.9976 3.66-11.4566 4.6363-10.8371 4.303-20.6477 10.9237-31.6994 14.7207-10.053 3.4536-19.6 7.1507-29.8416 10.4217-5.7884 1.8486-16.9044 5.6713-17.603 12.9563-.5644 5.883 5.1956 14.917 7.3316 20.296 1.6677 4.2 3.3357 8.4 5.003 12.6 1.331 3.352 2.3514 10.564 5.274 12.911.6547.526 1.32 1.232 2.143 1.216z" fill="#FBF9F0"/>
    <path d="M13.8635 112.996c.763 2.543 3.5804 3.317 5.6437 1.661 1.5787-1.267 2.7083-6.129-.3847-6.247-3.1473-.12-3.301 3.083-2.027 5.141 1.7317 2.797 5.276 2.634 7.9037 1.323 2.268-1.132 6.4237-4.566 3.5733-7.252-.824-.777-2.3643-.525-3.352-.178-1.635.575-2.7226 2.334-3.193 3.923-.852 2.876.187 6.657 2.7164 8.42 1.8676 1.302 6.0406.861 5.611-2.186-.1684-1.193-1.1904-2.208-2.397-2.316-1.635-.146-2.9467 1.267-3.5797 2.623-1.328 2.844.816 6.476 4.1683 5.339.685-.233-.0636-1.191-.6283-1-3.6143 1.226-3.402-4.547-.81-5.623 2.368-.983 2.5693 1.834.8913 2.624-1.461.687-2.8783-.098-3.7456-1.305-1.141-1.589-1.6227-3.666-1.2197-5.584.213-1.015.6783-2.031 1.3597-2.818.595-.687 2.368-1.853 3.3526-1.257.7454.451.5637 1.903.1794 2.508-.2704.425-.6387.806-.9864 1.165-.7706.796-1.6473 1.431-2.6343 1.932-1.9627.997-4.8487 1.543-6.23-.664-.4143-.662-.876-1.833-.592-2.623.335-.932 1.028-1.045 1.743-.666.7893.418.7307.875.5873 1.732-.3773 2.256-3.906 4.391-4.8433 1.266-.1753-.586-1.331-.686-1.1067.062z" fill="#F37059"/>
    <path d="M113.977 124.365c.88-.448 1.739-.94 2.535-1.513.791-.572 1.539-1.232 2.04-2.047.244-.408.419-.852.477-1.312.051-.466-.038-.918-.192-1.37l-1.003-2.798c-1.33-3.733-2.693-7.455-4.083-11.167-2.773-7.4272-5.628-14.8242-8.346-22.2826-1.336-3.737-2.598-7.4906-4.135-11.1223-.384-.9073-.783-1.808-1.207-2.695-.2092-.4453-.4282-.885-.6512-1.3227-.2204-.4443-.437-.8526-.7134-1.1773-.2753-.3277-.5879-.522-.9323-.5307-.3513-.0156-.8256.1507-1.297.2964-.9397.282-1.8673.6053-2.7906.9423-3.6897 1.3673-7.2271 3.1433-10.7877 4.888-1.78.875-3.5687 1.7433-5.3897 2.5513l-1.371.596-1.3837.57c-.934.3594-1.8653.7137-2.7893 1.0547-7.4063 2.7817-14.625 6.0783-22.0063 9.01-3.6894 1.4747-7.4287 2.8133-11.1764 4.1143-3.7493 1.2994-7.514 2.5484-11.279 3.7924-1.887.624-3.765 1.219-5.5836 1.9816-1.826.747-3.6127 1.5964-5.397 2.4574-1.785.8593-3.5667 1.737-5.3887 2.536-.911.3992-1.828.7872-2.761 1.1362-.4627.184-.936.342-1.405.509-.468.164-.9783.328-1.5296.313-.2694-.002-.584-.106-.625-.05-.1124.052-.2774.284-.4054.472-.13.194-.2816.417-.3813.607-.1013.201-.1837.414-.223.64-.173.911.091 1.882.3937 2.804l1.9333 5.622 3.8706 11.248-.2846.099-3.991-11.206-1.9954-5.606c-.162-.476-.3146-.962-.4083-1.473-.0953-.508-.134-1.048-.0333-1.588.045-.271.1416-.536.2653-.785l.1007-.184.1003-.161c.066-.107.1337-.214.2064-.321.068-.107.1496-.215.2306-.324.0974-.108.1773-.23.3803-.337.0864-.052.2364-.08.3237-.073a.68.68 0 01.1317.009l.1047.016c.124.021.2186.032.3253.035.4213.007.864-.129 1.323-.297.4613-.171.926-.331 1.3813-.518.9177-.355 1.8214-.7489 2.72-1.1542 1.7977-.8114 3.5633-1.7044 5.3417-2.5844 1.7776-.881 3.5673-1.7556 5.4093-2.5326.46-.195.9213-.3877 1.3893-.5657.464-.1873.9357-.3567 1.408-.5247.9427-.336 1.877-.6463 2.816-.9706 7.4977-2.5717 14.999-5.1454 22.321-8.115 7.3247-2.9804 14.517-6.339 21.954-9.2044l1.393-.534 1.3647-.5353 1.3534-.571 1.3446-.598c1.7863-.817 3.558-1.6837 5.337-2.5537 3.555-1.742 7.1297-3.5403 10.9093-4.9426.946-.3457 1.8987-.6777 2.8671-.9687.2466-.0753.4673-.151.7449-.2233.2754-.071.6014-.142.984-.13.3874.008.7921.1343 1.1147.3246.3287.1897.579.4317.785.6727.4079.4823.6649.996.8859 1.435.229.449.453.9.667 1.3553.435.9077.842 1.8257 1.232 2.7487 1.559 3.6943 2.842 7.4673 4.157 11.1973 1.299 3.7354 2.641 7.4674 3.987 11.1947 1.34 3.7303 2.717 7.4499 4.006 11.2029 1.303 3.747 2.591 7.501 3.824 11.274l.899 2.838c.153.501.245 1.07.162 1.614-.088.545-.311 1.046-.597 1.487-.589.878-1.395 1.528-2.229 2.084-.843.551-1.733 1.008-2.639 1.42l-.089-.18zM14.4623 131.607l2.3586 6.224 2.3104 6.242c.776 2.079 1.521 4.168 2.2783 6.253l.5663 1.565c.193.518.368 1.058.5754 1.526.2106.468.481.895.8323 1.105.341.223.7727.213 1.2713.092.492-.127 1.0484-.303 1.573-.454l1.5951-.47 3.1873-.95 6.364-1.935c4.238-1.306 8.4643-2.648 12.6913-3.989 8.4494-2.697 16.8584-5.52 25.2317-8.449a902.8423 902.8423 0 0024.9837-9.168l.11.281c-8.204 3.39-16.491 6.578-24.8164 9.664-8.3246 3.089-16.7026 6.037-25.1226 8.864-4.2067 1.423-8.4374 2.776-12.675 4.104-2.1174.67-4.2497 1.291-6.377 1.927l-3.1957.939-1.5993.465-.7997.232c-.2637.076-.5323.16-.852.229-.315.068-.671.123-1.071.097-.399-.022-.838-.159-1.184-.389-.3524-.227-.621-.521-.8197-.813-.2013-.294-.3483-.59-.472-.878-.243-.588-.391-1.101-.5747-1.626l-.531-1.577c-.702-2.105-1.4326-4.2-2.0936-6.319l-2.0234-6.343c-.637-2.128-1.3086-4.243-1.9136-6.383l.192-.066z" fill="#13355A"/>
    <path d="M35.9663 111.071c.5653.513 1.2967.802 2.041.853.7467.056 1.499-.099 2.198-.371 1.404-.544 2.6433-1.512 3.5213-2.722.8947-1.235 1.6197-2.608 2.4434-3.957.8213-1.343 1.785-2.683 3.1453-3.663.3453-.242.732-.451 1.1653-.586.2167-.066.4454-.111.6804-.125.237-.021.47.023.7023.053.4533.107.8743.302 1.2247.551.3506.247.6663.521.9516.799.578.554 1.097 1.119 1.6767 1.505.29.183.5887.303.8907.354.3033.021.6213.002.8936-.138.56-.251.995-.858 1.3744-1.498.3833-.65.723-1.362 1.1763-2.052.2263-.3446.4897-.6846.818-.9852.3253-.3004.7347-.5517 1.187-.675.4537-.137.922-.124 1.3363-.075.4184.05.8027.1413 1.169.1913 2.9404.4497 6.1074-.6807 8.1004-2.9223 1.015-1.1324 1.868-2.457 2.961-3.6327.5483-.582 1.1606-1.145 1.9193-1.5203.197-.0777.3843-.178.59-.2337.2083-.0457.4087-.1283.6247-.1343.213-.019.4256-.0517.6376-.0237.2114.015.426.0223.631.0727.409.0893.781.2253 1.141.3206.3584.099.7057.139 1.0724.124.7306-.0296 1.464-.26 2.2016-.501l4.4517-1.4566 8.9033-2.9137.096.2857c-2.9366 1.0636-5.8653 2.151-8.8116 3.1863l-4.4144 1.569c-.7373.2593-1.5176.537-2.3893.596-.4287.0313-.8983-.014-1.3077-.1183-.409-.0994-.7736-.2207-1.1106-.2834-.664-.1053-1.323-.018-1.9187.3014-.5983.314-1.1303.8166-1.622 1.3686-.9883 1.116-1.8027 2.4504-2.8683 3.6934-2.1894 2.5533-5.679 3.9022-9.0677 3.463-.426-.0517-.8023-.1314-1.1337-.1617-.333-.0307-.6036-.022-.8283.0567-.4607.1323-.8733.5622-1.2547 1.1462-.38.584-.7093 1.281-1.125 2.001-.2096.361-.4463.733-.7533 1.096-.3027.36-.702.72-1.213.959-.5123.251-1.0823.312-1.6393.259-.5574-.085-1.0534-.306-1.462-.569-.7917-.538-1.3357-1.165-1.869-1.673-.5274-.522-1.0474-.913-1.5127-1.015-.2363-.043-.4567-.046-.7183.036-.2587.075-.5317.221-.8064.4-.5526.38-1.087.867-1.557 1.413-.4776.545-.9006 1.16-1.3273 1.791-.851 1.262-1.6227 2.662-2.677 3.915-1.073 1.294-2.4903 2.273-4.0753 2.764-.7967.227-1.6464.322-2.4717.182-.412-.064-.81-.207-1.1777-.394-.181-.099-.344-.23-.5126-.342-.1527-.136-.296-.28-.4407-.418l.14-.146zM86.0303 105.502c.267.333.505.683.7577 1.025l.7093 1.052c.2383.35.4493.715.6753 1.072.2204.36.4497.714.6624 1.079l-.593-.19c.6856-.325 1.3646-.665 2.0563-.979l2.038-.918c.0533-.028.0757-.051.074-.046-.003.005 0 .028.002-.007.007-.057-.0667-.264-.1263-.44l-.3627-1.076-.7203-2.154.401.186-2.4034.765c-.7993.26-1.6066.498-2.4109.744l-.0997-.285c.7673-.352 1.5303-.716 2.3046-1.047l1.158-.507 1.1654-.487.4693-.196.2243.518.9114 2.103.4556 1.054.115.27c.041.108.0967.251.12.464.0287.204-.0176.529-.175.767-.1516.238-.3316.365-.4646.452-.1384.088-.241.137-.3174.18l-.2506.135c-.167.092-.334.182-.5047.265l-1.0177.512c-.6776.343-1.3746.644-2.073.943l-.779.333-.3646-.698c-.195-.374-.371-.759-.5574-1.138-.1673-.39-.3456-.774-.4963-1.173l-.2267-.599-.2049-.611c-.1224-.415-.2491-.828-.3271-1.269l.1757-.099zM92.8061 122.809c.3177-.331.6973-.588 1.0513-.853l1.0957-.755c.3667-.249.745-.478 1.1173-.718.3757-.233.7424-.482 1.1254-.703l-.1884.585-.748-1.626-.7137-1.641-.1733-.413-.0867-.206c-.0149-.037-.0233-.052-.0133-.037.0074.013.056.064.1067.083.1123.038.1197.005.0807.02l-.203.061-.4317.127c-.5697.166-1.1243.34-1.652.56-.519.225-1.029.488-1.3777.866-.079.096-.165.192-.2136.301-.0304.053-.061.112-.0647.13-.009.04-.0137.092-.014.151.007.243.0767.527.1583.8.1677.552.3954 1.101.631 1.644l.3657.813.186.409.0917.208.0446.108.022.062.012.045c.002.016.003-.002.0057.042.0033.049-.0287.112-.061.137l-.153-.2zm-.0303-.04c-.0314.016-.0627.069-.0584.109.0037.035-.0006.008-.0006.015-.0024-.003-.002-.002-.0047-.008l-.021-.041-.0517-.093-.1113-.191-.2307-.383-.4606-.776c-.305-.523-.5874-1.058-.829-1.64-.117-.297-.233-.591-.2817-.981l-.0083-.16c.0026-.061.006-.121.0143-.185.0137-.065.036-.163.054-.2l.057-.137c.0717-.189.1823-.345.291-.499.465-.591 1.044-.948 1.6117-1.251.5716-.293 1.156-.527 1.719-.741l.4133-.16.099-.039c.0347-.014.055-.024.1307-.049.0686-.022.1556-.048.282-.06.123-.01.3016-.006.4973.078.1943.077.3663.251.439.365.0787.118.106.189.122.216l.103.199.2057.398.7763 1.613c.2427.545.481 1.092.7033 1.646l.3027.755-.6663.375c-.3854.216-.7897.401-1.1834.604-.401.19-.806.373-1.218.544l-.623.249-.6363.225-1.2833.403-.153-.2zM100.836 105.218c.116.039.286-.094.481-.184.19-.098.384-.188.578-.273.392-.161.785-.3 1.157-.458.371-.164.733-.314 1.053-.518.16-.098.32-.217.498-.34.089-.061.181-.124.28-.184l.153-.089.081-.042.041-.021.02-.01c-.041.014-.114.059-.155.112a.3472.3472 0 00-.052.085c-.015.036-.011.021-.016.035-.007.013-.011.028-.015.043-.003.015-.004.031-.005.044l-.001.001c-.002.003.001.006-.003-.015-.003-.024-.014-.068-.022-.107a4.7516 4.7516 0 00-.077-.269 12.777 12.777 0 00-.196-.568l-.442-1.149c-.296-.768-.61-1.5395-.914-2.3012l.597.2103c-.434.1984-.82.3104-1.217.4417-.395.1257-.784.2477-1.167.3782-.384.132-.763.267-1.122.426-.352.157-.7157.348-.9147.571-.034.027-.0367.053-.052.076-.013.025-.0347.043-.0417.083-.02.071-.032.15-.0343.234-.0044.17.0223.356.0646.545.0917.38.2077.781.342 1.154.136.378.2971.748.4821 1.106.093.179.19.356.297.521.053.083.109.162.17.238.06.076.125.15.176.181l-.024.043zm-.121.22c-.132-.067-.208-.151-.287-.226-.077-.078-.15-.161-.218-.245-.138-.169-.2591-.343-.3768-.518a9.3712 9.3712 0 01-.635-1.108 10.0247 10.0247 0 01-.2556-.588c-.0764-.194-.1547-.388-.225-.604-.069-.215-.1297-.447-.147-.713a1.6981 1.6981 0 01.0267-.426c.027-.14.1216-.356.2076-.468l.1407-.177c.0483-.058.0953-.093.1436-.14.0974-.094.1947-.169.2914-.2365a3.1102 3.1102 0 01.2917-.1957c.0973-.062.1946-.121.2916-.172.3881-.2187.7781-.3993 1.1671-.5653.388-.168.776-.325 1.154-.4797.368-.1527.77-.317 1.02-.4647l.701-.414.417.8074c.392.76.726 1.5175 1.059 2.2975.173.386.308.788.455 1.195.071.205.133.415.195.639.031.111.06.23.088.361.014.074.028.138.039.243.006.035.012.117.01.198l-.001.058c-.004.045-.01.095-.02.142-.01.047-.023.094-.039.139l-.012.034-.006.016-.02.044a.9648.9648 0 01-.12.184c-.092.117-.242.218-.336.258l-.012.005-.025.008-.05.019-.106.046c-.074.034-.153.075-.238.122-.171.089-.359.213-.587.313-.448.2-.893.341-1.33.415-.434.087-.856.122-1.267.166-.208.014-.411.04-.617.059l-.334.036c-.114.008-.305-.001-.41-.107l-.024.043zM93.8959 103.552c.113.118.1956.247.2946.37.0874.127.1724.255.248.387.1574.261.2867.532.411.805l-.5773-.272c.2993-.111.5926-.238.8973-.333.303-.1.609-.191.9183-.272.6157-.173 1.2327-.341 1.8517-.503l.302-.08.0673.258.1914.733c.0636.244.1123.493.1693.739l-.2847.099c-.151-.214-.2913-.432-.4253-.652-.129-.222-.2667-.44-.3883-.664l.626.303-1.7064.919c-.2839.154-.5669.311-.8646.426-.2943.124-.6034.207-.9147.283l-.936.227-.1746-.751c-.0684-.293-.1077-.598-.0937-.922 0-.159.0217-.326.047-.495.0367-.173.0713-.345.1523-.535l.1894-.07zM89.9535 111.843c.242.255.43.524.588.802.1647.276.2863.566.4113.855.0684.142.1191.291.1747.439.058.146.1107.295.16.445.1023.299.2103.597.322.893l-.4253-.189c.315-.061.629-.132.9417-.213l.9409-.253.1211.276c-.2554.24-.5337.444-.822.634-.2877.192-.5934.347-.9001.509l-.3653.192-.3877-.528c-.1966-.268-.3889-.54-.5779-.816-.1974-.272-.3564-.563-.4684-.873-.1103-.31-.197-.631-.196-.98.014-.353.0594-.716.2914-1.13l.1916-.063zM92.5301 111.828c.3217-.34.6813-.574 1.061-.769.1937-.087.3853-.18.583-.259.2003-.072.399-.149.605-.209l1.226-.384c.4087-.127.8177-.264 1.2263-.376l.1354.27c-.162.173-.327.328-.501.47-.1714.145-.3444.287-.5254.411l-1.0783.765c-.357.264-.7463.455-1.1787.545-.2156.045-.4446.061-.694.022-.248-.034-.5123-.099-.8073-.291l-.052-.195z" fill="#13355A"/>
    <path d="M95.1075 113.707c.3886-.316.7686-.564 1.1693-.797.2017-.115.4103-.226.6287-.324.216-.102.436-.202.665-.278l-.2597.625c-.1433-.34-.2457-.692-.3437-1.039a26.7014 26.7014 0 01-.2666-1.039c-.0827-.345-.1644-.687-.2544-1.025-.095-.337-.18-.676-.2816-1.012l.276-.121c.238.287.4433.597.6283.914.1957.313.3497.641.5143.959.1627.319.3227.633.4884.936.1633.303.346.589.4976.876l.4097.774-.91.432c-.201.096-.4047.18-.6163.257-.214.071-.4307.152-.6744.197-.24.053-.5053.067-.7716.059-.273-.023-.547-.067-.8377-.202l-.0613-.192zM99.7674 107.582c.176.224.3256.46.4876.69.08.116.149.237.224.355.07.117.154.236.224.412.071.169.104.421.024.642-.079.224-.234.396-.386.511-.308.231-.6246.314-.9273.389l.3423-.588c.145.349.332.748.509 1.138.087.191.187.415.25.615.019.073.057.083-.022.025-.038-.025-.103-.033-.121-.029-.021.003-.006.004.025-.008.773-.295 1.598-.585 2.394-.877l2.413-.867c.805-.288 1.607-.581 2.42-.847l-.096.206-.072-.278.286-.093.125.262.063.133-.173.1c-.746.433-1.505.833-2.266 1.231l-2.297 1.152-1.15.575-.574.288c-.096.047-.191.097-.288.141l-.146.068c-.053.025-.082.041-.169.077-.085.033-.208.082-.403.1-.191.023-.4769-.028-.6829-.158-.212-.128-.3354-.288-.4124-.408-.078-.124-.1183-.222-.151-.303l-.2243-.552c-.0827-.189-.164-.386-.241-.591-.0774-.209-.164-.406-.233-.67l-.2887-1.102.946-.027c.212-.006.403-.068.4937-.073.044-.006.0376.015.0426.064-.001.043.0547.092.0664.03.0163-.055-.0167-.184-.0427-.332-.0246-.142-.056-.281-.0753-.425-.0397-.289-.0763-.579-.0757-.888l.1817-.088z" fill="#13355A"/>
    <path d="M103.016 108.992c-.115-.108-.204-.226-.298-.341-.089-.118-.165-.239-.241-.361-.14-.248-.27-.5-.366-.763l-.154-.422.451-.175c.626-.244 1.287-.383 1.933-.584.324-.094.649-.193.971-.298l.484-.162.491-.149.129.273c-.127.131-.264.244-.398.365l-.421.329c-.285.212-.584.398-.882.591-.3.189-.604.374-.912.554-.309.178-.638.306-.983.382l.577-1.16c.034.136.067.274.082.417.017.143.02.291.012.442-.018.155-.035.31-.08.475-.045.165-.099.333-.205.519l-.19.068z" fill="#13355A"/>
    <path d="M104.956 107.027c.259.036.373.123.454.222.076.1.101.219.103.346l.008.38c.005.126-.01.259-.036.395l-.284.101c-.197-.058-.351-.13-.486-.21l-.382-.247c-.14-.078-.207-.182-.175-.321.016-.069.061-.149.158-.247.092-.096.219-.205.45-.351l.19-.068zM97.4296 115.587c.3996-.253.8083-.48 1.2253-.686.413-.216.833-.414 1.2577-.6l.3194-.136c.109-.045.246-.109.441-.134a.908.908 0 01.341.022c.124.03.253.103.341.184.178.166.24.321.295.418.22.408.431.82.63 1.238.044.096.086.154.083.149-.002-.001-.025-.016-.047-.019-.022-.004-.026.002-.008.001.031.002.146-.036.258-.071l.332-.104 1.325-.417 2.655-.821.261-.081.082.239.387 1.135.365 1.144-.281.108-.586-1.058-.553-1.071.564.26c-.843.393-1.693.767-2.539 1.151l-1.27.571-.318.143-.169.075c-.071.029-.166.065-.297.092-.131.026-.308.045-.514 0-.206-.044-.403-.154-.533-.267-.261-.232-.345-.426-.416-.538l-.33-.611-.308-.622c-.045-.113-.074-.128.02-.039.046.042.143.095.219.111.079.018.134.011.153.007.081-.046-.263.051-.463.107-.9048.223-1.8348.38-2.8511.309l-.0713-.189zM99.1995 117.44c.1613-.009.2987.045.4063.112.1117.066.1921.152.2627.24.1365.179.2025.379.2425.581l.112.59c.04.187.064.382.104.532l-.213.214c-.1505-.037-.2802-.109-.3838-.182-.108-.073-.208-.147-.2937-.226-.1666-.158-.3243-.312-.4843-.45-.17-.133-.264-.282-.265-.451-.0013-.085.0253-.178.0933-.302.06-.123.1567-.255.2807-.51l.1383-.148z" fill="#13355A"/>
    <path d="M104.063 116.022c.116.11.219.218.314.325.094.107.184.211.266.317.173.207.317.422.478.625l.372.47-.575.249c-.262.114-.532.206-.807.287l-.824.245-.828.236c-.274.083-.553.152-.836.214l-.113-.28c.222-.214.454-.399.69-.578.233-.184.479-.336.719-.505l.723-.494c.238-.173.489-.314.757-.411l-.393 1.393c-.102-.135-.174-.289-.248-.439a1.896 1.896 0 01-.135-.492c-.01-.086-.014-.174-.008-.265.002-.089.007-.178.029-.272.033-.182.1-.371.227-.564l.192-.061zM103.712 113.538c.317-.383.693-.628 1.084-.838.2-.093.397-.192.602-.275.207-.077.412-.158.625-.221.422-.134.844-.27 1.269-.397.425-.127.846-.265 1.282-.365l.117.278c-.343.322-.7.611-1.072.866l-1.111.773c-.366.268-.761.465-1.198.565-.218.05-.448.072-.7.042-.249-.023-.513-.082-.82-.242l-.078-.186zM107.432 115.319c.157-.262.319-.381.489-.474.169-.088.349-.133.539-.166.189-.034.379-.079.568-.133.187-.058.383-.108.587-.162l.169.249c-.079.256-.205.474-.354.668-.153.185-.321.364-.501.54-.176.185-.397.291-.645.281-.123-.005-.254-.042-.393-.138-.136-.091-.277-.222-.425-.466l-.034-.199z" fill="#13355A"/>
    <path d="M104.322 113.415c.242.145.343.258.422.38.074.121.108.249.136.391.029.141.075.284.136.423.064.137.128.284.208.437l-.187.236c-.245.019-.475-.036-.683-.131-.201-.101-.397-.231-.585-.385-.197-.149-.315-.367-.303-.609.006-.121.048-.249.152-.376.099-.125.243-.248.503-.353l.201-.013zM89.342 106.798c.04-.236.0827-.321.1311-.371.0479-.046.1026-.039.1646-.011.0617.028.1253.054.191.078.065.022.1367.061.216.109l.094.286c-.0106.179-.045.316-.09.432a4.8477 4.8477 0 01-.1583.323c-.0557.119-.1337.162-.224.097-.045-.032-.0937-.095-.1457-.214-.051-.114-.1043-.265-.1603-.528l-.0184-.201zM101.756 102.409c-.058-.233-.042-.333-.007-.402.037-.066.1-.083.176-.08l.227.009c.074.001.159.019.249.049l.149.261c.027.177.031.314.025.433l-.03.337c-.003.123-.045.18-.139.144-.047-.017-.109-.061-.198-.153-.087-.087-.192-.207-.352-.423l-.1-.175zM93.7887 119.444c-.0296-.242.006-.346.057-.418.053-.068.1294-.086.2164-.083l.26.009c.0856.001.1803.02.2796.051l.1293.272c.002.183-.0156.325-.0419.45l-.0897.349c-.0243.129-.0813.188-.184.151-.0513-.018-.1153-.063-.2037-.16-.0856-.09-.1873-.215-.3363-.439l-.0867-.182zM41.9334 126.112c-.225.015-.454-.118-.5747-.3-.127-.182-.1857-.399-.1813-.622.017-.482.366-.826.6946-1.05.345-.225.694-.356 1.0317-.513.342-.15.6867-.295 1.0343-.433 1.392-.551 2.8404-.955 4.305-1.278 1.4664-.3 2.974-.483 4.4554-.563 1.4706-.086 2.9183-.184 4.2266-.67 1.3004-.492 2.4947-1.402 3.7874-2.147a54.447 54.447 0 013.923-2.127c2.6693-1.31 5.439-2.413 8.284-3.253l.0926.286c-2.7506 1.075-5.4376 2.279-7.999 3.708-1.283.709-2.5273 1.482-3.7493 2.283-.6133.402-1.2003.815-1.8257 1.245-.6256.424-1.2966.847-2.0556 1.171-1.5267.655-3.1287.766-4.594.887-.7387.064-1.4477.089-2.1617.174-.7137.077-1.4237.185-2.131.308-1.419.229-2.8253.547-4.232.907l-1.053.287c-.353.1-.7133.191-.9927.307-.2816.107-.5253.285-.5876.507-.036.123-.03.276.019.404.0423.135.136.242.2853.28l-.0013.202zM44.6554 135.091c1.8584-.627 3.7274-1.14 5.5734-1.739l1.3883-.431c.461-.15.9183-.31 1.3817-.451l1.3793-.459c.4557-.165.9163-.317 1.3743-.475 1.8287-.646 3.6331-1.365 5.4121-2.146 1.7786-.782 3.5226-1.643 5.252-2.539l.149.262c-1.6194 1.106-3.3017 2.128-5.0427 3.042a74.3905 74.3905 0 01-5.3294 2.554c-1.8113.784-3.678 1.448-5.5966 1.918-.4834.104-.9627.221-1.4477.315-.4893.078-.974.17-1.4667.226-.4916.06-.988.097-1.4833.13-.5.012-.998.026-1.5037-.009l-.04-.198z" fill="#13355A"/>
    <path d="M102.908 34.9264c-1.235-1.162-2.646-2.1233-4.154-2.8667a18.4896 18.4896 0 00-4.7476-1.6253c-3.2787-.6477-6.7387-.448-9.8334.7627-3.1036 1.176-5.8253 3.3096-7.8083 5.9766-1.9923 2.666-3.2317 5.88-3.4977 9.1954-.1323 1.6686-.0906 3.4083-.4873 5.1463-.205.862-.5257 1.7253-1.0407 2.475-.2433.3817-.5466.7223-.8613 1.046-.3273.3123-.6773.6-1.0537.8447-1.5166.985-3.26 1.3916-4.9453 1.6873-1.6963.2923-3.3903.4657-5.045.7923-.8257.1657-1.6403.37-2.426.6484-.7827.2863-1.5133.6713-2.2027 1.134-1.3686.9413-2.4563 2.2676-3.2386 3.7389-1.5807 2.9351-1.8127 6.6547-.2984 9.6701l-.267.1396c-.829-1.526-1.2186-3.2787-1.1993-5.0223l-.0013-.3277.029-.326.059-.6533c.0603-.432.1463-.8624.239-1.29.2316-.8434.51-1.68.9156-2.4607.787-1.5653 1.905-2.999 3.3534-4.0456.7253-.5134 1.521-.9534 2.3466-1.2757.8274-.3147 1.6754-.5473 2.5237-.7377 1.6973-.375 3.3993-.5886 5.0437-.9126 1.636-.3234 3.2493-.762 4.53-1.636.3193-.217.608-.4667.8773-.733.2563-.278.5047-.564.701-.8897.415-.6303.6693-1.356.8363-2.1227.325-1.5456.2624-3.2296.3617-4.981.1193-1.7726.4653-3.557 1.1027-5.2263.626-1.6747 1.4893-3.2567 2.5473-4.6963 2.1253-2.8687 5.0693-5.1477 8.4377-6.4004 3.3796-1.2263 7.094-1.3586 10.508-.4783 1.707.4397 3.35 1.1023 4.857 1.9863 1.4886.9114 2.8656 2.0047 3.9806 3.3194l-.142.1443z" fill="#F37059"/>
    <path d="M42.4943 66.1992c.2476.0857.4946.177.7396.274l.7244.3183.6996.3711.6844.4026c.8926.5707 1.724 1.2404 2.4913 1.977.7497.753 1.456 1.5577 2.0483 2.444a16.247 16.247 0 011.5354 2.7944l-.787.0373c.66-1.8063 1.6383-3.484 2.8613-4.9467a16.9677 16.9677 0 012.0037-2.0286c.719-.6214 1.5057-1.1594 2.3227-1.6344l.1593.2557c-.7517.5487-1.435 1.176-2.0834 1.824-.6446.6533-1.224 1.3627-1.7583 2.0963-1.0597 1.475-1.8643 3.1164-2.3593 4.8284l-.52 1.7976-.9424-1.7283-.3553-.6513-.384-.6337c-.1383-.2047-.2653-.4157-.398-.623l-.422-.6063c-.5913-.787-1.1977-1.5624-1.874-2.282-.175-.1737-.3387-.359-.508-.54l-.528-.523-.5357-.521c-.186-.1657-.373-.331-.553-.5087-.7476-.6737-1.5313-1.322-2.347-2.011l.0854-.1827zM60.2986 153.077c.0923 1.26.4567 2.467 1.0563 3.534.3187.521.6547 1.027 1.067 1.467.4164.433.8814.811 1.3894 1.107.512.287 1.0603.492 1.6293.595.5693.096 1.161.062 1.7353-.029 1.154-.212 2.2304-.818 3.1964-1.575.97-.76 1.8363-1.677 2.6693-2.626l1.246-1.454c.4293-.483.8727-.955 1.3397-1.405.9383-.891 1.9703-1.716 3.1623-2.28.5967-.274 1.227-.494 1.8857-.578a5.7462 5.7462 0 011.9663.1l-.0647.295c-.6166-.083-1.234-.06-1.828.067-.5933.136-1.1563.373-1.693.657-1.0696.589-1.9986 1.424-2.8426 2.329-.4204.458-.819.937-1.205 1.427-.3767.491-.7617 1.013-1.1624 1.522-.804 1.016-1.657 2.025-2.6846 2.92-1.012.897-2.2684 1.659-3.728 1.964-.179.045-.3664.058-.5504.082l-.2773.027-.279-.001c-.1863-.007-.371.007-.5583-.02l-.561-.074c-.7397-.147-1.4464-.421-2.077-.805-.6117-.411-1.152-.9-1.601-1.452-.435-.563-.7924-1.171-1.0527-1.813-.261-.642-.416-1.316-.4977-1.987-.0393-.68-.034-1.354.1184-1.999l.2013.005z" fill="#F37059"/>
    <path d="M73.3904 147.586l2.475.333 2.4647.306c.822.089 1.6443.166 2.466.244.8223.072 1.6463.119 2.4703.17l1.0333.064-.718.733c-.8576.876-1.637 1.833-2.3073 2.867-.671 1.034-1.2323 2.141-1.684 3.293a18.0968 18.0968 0 00-.9897 3.581c-.2006 1.226-.2926 2.475-.246 3.724l-.3006.022c-.1847-1.262-.2287-2.556-.1084-3.841.105-1.288.3807-2.563.7704-3.805a19.0018 19.0018 0 011.56-3.594c.645-1.144 1.409-2.237 2.324-3.2l.603 1.524c-.8484-.009-1.6934-.091-2.5357-.184-.421-.049-.842-.095-1.261-.158-.418-.072-.835-.148-1.2507-.228-.4146-.089-.826-.193-1.237-.295-.4093-.112-.815-.239-1.2193-.366-.8037-.277-1.597-.586-2.357-.993l.048-.197z" fill="#F37059"/>
  </g>
</svg>