<svg width="200" height="200" fill="none" xmlns="http://www.w3.org/2000/svg">
  <g>
    <path d="M3.5604 69.3226c6.1954-20.5037 19.414-39.269 37.536-51.6577 8.9874-6.2553 19.0507-11.05 29.6747-14.0733C81.4201.6886 92.5804-.5121 103.63.3186c11.05.739 22.012 3.2106 32.337 7.4006 10.323 4.226 19.746 10.4744 28.036 17.887 8.212 7.4794 15.528 16.131 20.721 26.0154 5.264 9.8166 8.933 20.4543 10.809 31.3883 1.984 10.9367 1.712 22.1631-.021 33.0401-1.8 10.871-5.205 21.536-10.559 31.154-10.536 19.226-27.047 35.288-47.112 44.05-9.95 4.457-20.588 7.329-31.414 8.417-5.427.261-10.8562.606-16.2739.211-5.411-.431-10.7873-1.212-16.0653-2.446-21.1213-4.968-40.324-17.172-53.8214-33.947-.4613-.574-.3703-1.413.203-1.875.561-.451 1.376-.374 1.8427.165l.011.013c13.7157 15.852 32.635 26.853 52.8517 30.844 5.0543.99 10.174 1.544 15.2973 1.77 5.1347.19 10.2439-.338 15.3259-.752 10.129-1.393 19.946-4.445 29.019-8.909 18.254-8.813 32.996-24.096 41.632-41.963 4.43-8.91 7.019-18.62 8.128-28.368 1.008-9.755.725-19.6964-1.551-29.1504-2.106-9.4657-5.563-18.5734-10.437-26.8684-4.927-8.2483-10.955-15.8356-18.086-22.255-7.118-6.4356-15.27-11.6563-23.971-15.7443-8.783-3.9387-18.212-6.3597-27.847-7.4423-9.6492-1.2417-19.5412-.6244-29.1292 1.421-9.638 1.9153-19.0384 5.473-27.6927 10.5166-8.6667 5.0417-16.4813 11.5967-23.485 19.076-6.9496 7.5554-12.6093 16.379-17.1276 25.935l-.029.06c-.21.4457-.7434.6364-1.188.4254-.4054-.1914-.5987-.6487-.473-1.065z" fill="#F4B935"/>
    <path d="M181.224 167.07c.606-10.043.417-20.349.359-30.324-.076-12.995-.636-25.982-.706-38.9762-.143-26.7607-.879-53.5157-1.951-80.2547-5.151.2607-9.827 1.0304-14.957.528-19.003-1.8606-38.143-.642-57.136.7067-4.849.3443-9.6971.705-14.5478 1.028-5.0423.336-5.7873.8843-5.0057 5.7527.6664 4.1486.5604 8.3703.219 12.5436-.1063 1.2987 2.261 63.9209 3.454 92.8899.63 15.3-.6323 30.796 1.3797 45.905.0656.493.1497 1.025.5033 1.376.409.405 1.0464.441 1.622.444 25.6695.093 51.5315.326 77.3025.854 2.205.046 4.523.064 6.46-.988 3.627-1.971 2.793-7.984 3.004-11.485z" fill="#FBF9F0"/>
    <path d="M57.358 117.364c.7417-.466 1.511-.945 2.3863-1.078.6917-.104 1.3967.017 2.0854.139l31.391 5.526c-8.2274 10.724-18.806 19.539-29.291 28.259a171.7046 171.7046 0 01-18.6804-7.029c-5.6896-2.528-12.5806-5.183-17.3956-9.072 1.1736-1.773 4.872-2.827 6.8686-3.854a305.0235 305.0235 0 007.8467-4.183 305.6317 305.6317 0 0014.789-8.708z" fill="#FBF9F0"/>
    <path d="M69.8625 175.522c-10.0716-3.575-20.1433-7.151-30.215-10.726-1.3886-.493-2.8263-1.013-3.7203-1.831-.7753-.71-1.0623-1.573-1.3297-2.412-2.832-8.896-5.2556-17.84-7.2666-26.819-.4197.341-.0194.178.6083.363 11.8837 3.513 23.7673 7.025 35.651 10.538 3.2053 5.88 2.3743 12.908 4.5897 18.958 1.005 2.745 1.7643 9.115 1.6826 11.929z" fill="#DFDDDD"/>
    <path d="M70.0399 175.274c7.9823-6.896 15.9643-13.792 23.9466-20.689 1.1007-.951 2.236-1.944 2.7517-3.022.4473-.934.3816-1.838.307-2.713-.7927-9.27-1.984-18.441-3.572-27.498.5213.168.0866.158-.425.553l-29.07 22.443c-.7147 6.602 2.7627 12.837 3.0333 19.245.1227 2.907 1.8694 9.095 3.0284 11.681z" fill="#C9C6C6"/>
    <path opacity=".4" d="M168.577 125.637c.103.273.246.482.439.601.135.084.307.075.466.063 2.429-.179 4.858-.359 7.287-.539.483-4.16.299-8.356-.039-12.519-.106-1.31.395-4.142-.846-5.047-1.575-1.146-7.639-.737-8.739.97-.857 1.33.049 4.344.185 5.813.301 3.254.09 7.581 1.247 10.658z" fill="#29568A"/>
    <path d="M159.253 117.961c-.068.006-.282-1.834-.289-2.012-.019-.493-.3-.471.196-.84.583-.434 1.867-.055 2.543-.083a78.051 78.051 0 002.602-.148c1.324-.098 2.647-.215 3.966-.365.521-.059 1.061-.094 1.575-.201 1.025-.213.564-.991.928-1.838.253-.588.836-1.085 1.473-1.027.394.036.743.272 1.032.542 1.359 1.27 1.303 2.831 1.363 4.544-4.919 1.038-10.357.987-15.389 1.428z" fill="#29568A"/>
    <path opacity=".5" d="M163.946 32.1919c-.032 6.784.042 13.567.111 20.3487.087 6.7816.252 13.562.495 20.339.244 6.777.57 13.5503.92 20.322.364 6.771.806 13.5384 1.326 20.2984l.043.56-.557-.071c-4.38-.56-8.775-1.003-13.178-1.329-4.403-.335-8.814-.555-13.229-.655l-.427-.01.007-.425c.142-8.437.137-16.8764-.025-25.3134-.164-8.437-.468-16.872-.936-25.2987-.228-4.2137-.505-8.4247-.814-12.6333-.145-2.103-.351-4.2087-.372-6.3374 0-1.0636.049-2.137.256-3.1986.206-1.0544.629-2.1204 1.393-2.9304.757-.8173 1.77-1.3196 2.79-1.645.511-.176 1.037-.2776 1.56-.3926.536-.0914 1.062-.1397 1.588-.1974 2.103-.211 4.206-.3906 6.31-.5703l6.312-.5197 3.156-.251 1.579-.1233.789-.0607.395-.0296.208-.0154c.057-.0033.141.0034.211.0414.069.0376.106.079.138.098l-.049-.0007zm-.252-.004c-.033.0237-.062.0697-.059.1123.004.043.022.0547.014.056l-.187.0164-.394.0333-.789.0683-1.576.1387-3.154.2817-6.305.581c-2.1.2-4.202.4003-6.296.631-.522.0623-1.047.1166-1.545.2063-.503.1163-1.012.2197-1.494.3917-.968.319-1.886.7946-2.547 1.5246-.668.723-1.043 1.676-1.228 2.6727-.185 1-.224 2.04-.214 3.0803.041 2.0854.266 4.1834.432 6.2907.35 4.2097.669 8.4223.938 12.6383.547 8.4317.945 16.8744 1.176 25.3224.227 8.4483.296 16.9014.218 25.3544l-.782-.811c4.437.068 8.874.252 13.302.559 4.427.327 8.845.773 13.248 1.335l-.979.931c-.522-6.771-.965-13.548-1.331-20.3294-.172-3.391-.36-6.7817-.473-10.1754l-.16-5.0906-.131-5.0914-.101-5.0916-.073-5.092-.006-5.0927.026-5.092.055-5.0913c.022-1.697.07-3.394.11-5.0904l.151-5.089.204-5.087-.05-.0013zm-33.819.0037c-.032 6.6354.042 13.2697.111 19.9027.087 6.633.251 13.2643.494 19.8927.243 6.6283.572 13.2527.922 19.8753.364 6.622.806 13.2397 1.326 19.8517l.044.559-.557-.069a254.156 254.156 0 00-13.179-1.301c-4.403-.327-8.815-.543-13.229-.641l-.427-.009.007-.426c.143-8.297.137-16.5967-.028-24.894-.166-8.2974-.474-16.5924-.949-24.8787-.232-4.1433-.509-8.2843-.824-12.4227-.142-2.0676-.365-4.1396-.341-6.2376.007-1.046.073-2.1067.34-3.1447.257-1.0313.769-2.0513 1.594-2.7743.823-.7204 1.838-1.1494 2.854-1.418.252-.0857.513-.1244.769-.184.258-.0544.513-.1174.779-.1457.526-.0703 1.038-.1203 1.557-.171 2.069-.2 4.138-.3723 6.207-.5443l6.209-.4987 3.104-.241 1.553-.1183.777-.0584.388-.0286.207-.0147c.057-.003.14.0057.208.0437.067.0376.103.0773.135.0963l-.051-.0007zm-.251-.004c-.033.0237-.062.068-.059.11.003.0427.021.056.014.0577l-.181.0157-.388.0323-.775.066-1.551.1337-3.102.2716-6.202.56c-2.066.1924-4.133.3854-6.194.605-.513.055-1.034.112-1.532.1834-.248.028-.496.0923-.744.1473-.247.0603-.501.1-.738.1843-.973.2664-1.906.6817-2.629 1.329-.723.6497-1.166 1.5464-1.398 2.508-.239.9637-.295 1.986-.291 3.007-.003 2.0464.237 4.1077.401 6.18.356 4.1394.675 8.282.948 12.428.555 8.2914.956 16.5947 1.189 24.9034.231 8.309.301 16.623.222 24.936l-.782-.811c4.436.066 8.872.243 13.3.545 4.426.32 8.844.755 13.248 1.305l-.977.933c-.522-6.622-.965-13.25-1.331-19.8823-.171-3.3167-.362-6.6327-.47-9.9527l-.161-4.9793-.131-4.98-.102-4.9804-.072-4.9807-.005-4.9813.025-4.9807.055-4.98c.022-1.66.071-3.3196.109-4.979l.151-4.9776c.055-1.659.133-3.3174.203-4.9757l-.05-.0007zm1.016 135.3354c.503-.024 1.01-.112 1.394-.407.389-.286.646-.726.819-1.189.178-.471.285-.956.339-1.47l.207-1.523c.264-2.033.462-4.078.642-6.121.338-4.091.431-8.198.369-12.301-.064-4.104-.294-8.205-.622-12.298-.301-4.095-.698-8.185-1.132-12.273l.358.398c-4.21-.892-8.565-.998-12.895-.898-4.338.108-8.684.418-13.059.466l.424-.44c.124 5.938.045 11.879-.236 17.809-.284 5.931-.788 11.85-1.483 17.744-.174 1.474-.365 2.946-.561 4.416-.091.73-.185 1.46-.205 2.184-.017.72.024 1.445.258 2.092.226.65.685 1.183 1.285 1.541.6.359 1.286.599 1.993.765.351.089.714.144 1.071.216l1.091.15c.735.085 1.47.166 2.207.24 5.888.593 11.821.823 17.735.849l.001.05zm.008.251c-5.941.057-11.875-.09-17.798-.603-.74-.065-1.48-.135-2.219-.21l-1.119-.138c-.373-.069-.747-.122-1.119-.21-.743-.165-1.49-.407-2.187-.812-.346-.205-.676-.465-.948-.782-.131-.163-.274-.32-.365-.51l-.153-.275c-.048-.092-.076-.191-.114-.287-.29-.778-.336-1.578-.33-2.344.011-.769.097-1.516.18-2.262.175-1.469.345-2.939.498-4.41 1.223-11.772 1.657-23.618 1.281-35.432l-.026-.803.815-.017c4.319-.089 8.659-.467 13.043-.578 2.191-.06 4.394-.065 6.603.056 2.208.116 4.424.373 6.61.847l.647.141.067.652c.423 4.097.813 8.203 1.101 12.321.254 4.121.409 8.252.397 12.386.01 1.033-.028 2.067-.041 3.1-.02 1.034-.094 2.066-.138 3.099l-.218 3.093c-.101 1.029-.189 2.059-.302 3.086-.131 1.025-.23 2.053-.388 3.074l-.242 1.531-.121.764-.142.765-.284 1.526c-.054.255-.079.503-.165.77-.075.254-.161.507-.269.755-.209.491-.524.979-.999 1.288-.474.32-1.042.376-1.557.37l.002.049zm11.468-.061l.014-3.095-.016-3.095-.095-6.187c-.082-4.124-.243-8.246-.481-12.363-.239-4.117-.555-8.228-.948-12.332-.367-4.106-.805-8.206-1.323-12.296l-.071-.556.56.043c4.396.341 8.798.611 13.203.809 4.406.191 8.813.341 13.223.408l.435.007-.012.433c-.327 11.893.167 23.812 1.477 35.644.161 1.48.346 2.954.526 4.435.094.743.161 1.497.17 2.26.006.759-.071 1.555-.395 2.296-.324.747-.956 1.328-1.645 1.691-.694.374-1.44.562-2.177.735-.745.147-1.486.257-2.24.322-.75.056-1.492.096-2.237.139l-8.929.448-4.465.208-2.233.101-1.116.05-.559.025-.279.012-.07.003c-.04.001-.087.001-.14-.011-.114-.026-.186-.11-.226-.135l.049.001zm.252.006c.053-.028.075-.117.053-.147-.006-.015-.007-.017-.001-.018l.069-.004.279-.016.558-.032 1.115-.066 2.231-.132 4.461-.27 8.918-.57c.741-.053 1.488-.104 2.219-.17.723-.071 1.454-.191 2.162-.34.698-.174 1.401-.366 2-.703.6-.332 1.083-.797 1.337-1.399.255-.604.324-1.307.306-2.02-.018-.716-.092-1.442-.194-2.172-.2-1.473-.407-2.956-.589-4.436-.734-5.925-1.283-11.877-1.596-17.843-.312-5.967-.419-11.946-.319-17.923l.789.82c-4.423-.025-8.847-.106-13.268-.297-2.21-.091-4.419-.2-6.628-.328-2.209-.122-4.416-.28-6.621-.459l.972-1.02c.508 4.108.943 8.225 1.293 12.349.319 4.127.56 8.26.723 12.394l.108 3.101.048 3.103.015 3.103-.015 3.102-.047 3.101-.106 3.099-.135 3.098c-.052 1.032-.126 2.063-.188 3.094l.051.001z" fill="#13355A"/>
    <path d="M30.8354 74.1318c-1.1247 6.2333-.1337 15.7276 3.2773 21.7783-.057.2813-.088.5727-.0967.8713-3.5133-.2593-7.1173.111-10.1563 1.9874-2.8913 1.7872-4.885 4.6332-5.3847 7.6852-.764-.272-1.0933-1.037-1.3293-1.723-2.7607-8.1049-4.7827-18.6582-3.2747-27.0612 2.4794-13.78 17.0294-23.936 32.4284-27.8634 1.5933-.4073 3.2123-.7626 4.8453-1.0393-10.636 5.4797-18.2957 14.1967-20.3093 25.3647z" fill="#13355A"/>
    <path d="M60.1448 92.3605c-.1703.1457-.3406.2913-.5083.4393-1.278-3.1623-4.9957-5.2876-8.7787-5.589-2.8543-.227-5.652.6864-8.2733 1.6837-3.499 1.333-7.782 3.5053-8.472 7.016-3.411-6.0507-4.402-15.545-3.2773-21.7783 2.0136-11.168 9.6733-19.8847 20.3096-25.3654.8664-.1506 1.7354-.279 2.6074-.38 3.53 14.3034 5.6826 29.0877 6.3926 43.9737zm39.8243 2.1328c-.267 1.876-.7213 3.9204-2.4057 5.115.4574-2.703-4.4647-5.6433-7.1657-6.1516-3.306-.627-6.4866.4393-8.986 2.2686-.0143-.0443-.0283-.089-.0426-.1333 1.8146-12.269-.8777-24.921-7.6767-36.089-1.281-2.0983-2.718-4.167-4.689-5.9146-2.7607-2.444-6.379-4.1154-10.2103-5.4954.443 0 .886.01 1.329.0297 13.8796.5923 22.9906 8.6403 32.3913 16.4213 5.1007 4.2237 7.3104 9.4377 8.0376 14.9697.642 4.8953.125 10.0423-.5819 14.9796z" fill="#29568A"/>
    <path d="M81.3694 95.5917c-1.8516-5.6137-6.481-10.025-13.6383-7.781-2.914.9133-5.3707 2.6563-7.586 4.5497-.71-14.886-2.863-29.6703-6.393-43.9737 1.67-.1973 3.3543-.3036 5.0383-.2936h.003c3.8314 1.38 7.4497 3.0513 10.2104 5.4953 1.971 1.7477 3.408 3.8163 4.689 5.9147 6.799 11.168 9.4913 23.8196 7.6766 36.0886zm5.9224-41.4396c.072-7.8686.0404-15.7389.121-23.6103l.0184-1.4753c.0053-.4847-.011-.9714-.034-1.4587-.0477-.9753-.1387-1.9533-.1957-2.9427-.0523-.9883-.0903-1.993.0623-3.008.0774-.5056.206-1.0146.4244-1.4973.215-.483.535-.931.9313-1.2917.3963-.3613.8607-.6373 1.3443-.8336.4854-.1947.9864-.3207 1.489-.414 1.0187-.1674 2.0434-.136 3.0357-.0287 1.9887.209 3.8957.68 5.8105.5443 3.911-.1743 7.811-.687 11.745-1.016 3.935-.319 7.868-.4933 11.806-.6416 7.875-.2807 15.753-.3227 23.627-.2597 3.925.0653 7.846-.1103 11.789-.186 3.94-.0697 7.9-.0647 11.847.3373 1.971.2064 3.938.5124 5.874.983.966.2407 1.925.5147 2.868.8424l.703.2586.176.0654.088.0326c.006.001.07.03.1.0477a.8353.8353 0 01.093.0657c.202.1863.246.338.308.4796.192.5557.234 1.0474.289 1.554.165 2.003.12 3.9724.077 5.947-.053 1.9724-.145 3.9407-.25 5.9077l-.342 5.8927c-.031.496-.04.9577-.038 1.4563l-.007 1.475-.01 2.95c-.007 3.9337.018 7.8657.126 11.7954l.174 5.901c.042 1.9693.063 3.9393.054 5.9076-.008 3.9374-.075 7.8727-.145 11.8074l-.301-.0044c.002-3.9346 0-7.8696-.06-11.8013-.026-1.966-.08-3.93-.156-5.8927l-.277-5.8946c-.176-3.9377-.269-7.8777-.33-11.815l-.042-2.953-.019-1.4767c-.002-.2533-.01-.4763-.006-.7543l.028-.7534.298-5.895c.091-1.9617.166-3.9227.204-5.88.029-1.9507.055-3.9257-.116-5.811-.024-.233-.052-.463-.089-.6817-.037-.2146-.086-.433-.14-.57-.014-.0606-.079-.1136.028-.004.016.0137.04.0324.063.0447.016.0143.096.0447.066.033l-.084-.0307-.169-.061-.675-.2426c-.906-.307-1.831-.564-2.766-.7894-1.873-.4403-3.789-.7246-5.719-.912-3.864-.3643-7.776-.3423-11.695-.243-3.916.0907-7.873.2574-11.828.1957-7.862-.0617-15.721-.0183-23.568.2627-3.921.1346-7.849.3563-11.752.5983-3.899.275-7.823.7417-11.802.8693l-.3728.0124-.3964.0006c-.2643.0014-.5236-.0173-.783-.0313-.5163-.038-1.022-.0997-1.5196-.171-.993-.1427-1.9564-.326-2.8997-.435-.944-.117-1.8687-.1447-2.75-.0207-.8913.141-1.7487.413-2.3537.951-.6166.522-.9586 1.3217-1.11 2.214-.1556.8927-.1453 1.856-.1126 2.8227.036.9697.1073 1.9547.136 2.952.0136.499.0206 1.0004.0046 1.505l-.039 1.4753-.3043 11.8004c-.1007 3.9343-.2003 7.8686-.3503 11.8027l-.2014-.0031zm3.0436 107.5059c.4777 4.383.3767 8.803.7604 13.156.0493.544.1103 1.086.1797 1.627.0326.271.0776.54.1156.81.0407.267.0724.565.1517.67.0383.051.0593.067.1416.088.08.019.1977.019.3371.018l.8246-.004 1.6494-.007 6.5965.021c8.795.035 17.58.325 26.362.277 4.372-.062 8.777-.269 13.166-.383l13.181-.393c4.395-.125 8.789-.247 13.185-.339 2.198-.045 4.396-.085 6.595-.109 1.1-.011 2.2-.018 3.302-.014.55.003 1.101.008 1.654.022.277.007.554.016.833.032.14.008.28.017.424.032.072.007.145.015.224.028.039.007.079.014.129.027.025.007.053.015.091.032.026.013.038.015.085.05.021.019.129.094.127.264l-.588-.024c.146-3.779.161-7.578.213-11.369l.08-11.381.091-22.763.091-22.764.081-11.3819c.051-3.795.066-7.5874.213-11.3853l.301.0136c-.126 3.7857-.122 7.5827-.153 11.3747l-.021 11.3809.028 22.763.029 22.765-.021 11.384c-.032 3.798-.027 7.585-.154 11.398l-.968-.04c-.005.257.158.361.173.38.06.043.057.037.081.049.021.009.024.009.02.009l-.054-.01c-.05-.007-.111-.013-.173-.019-.124-.01-.257-.017-.389-.023-.266-.01-.538-.015-.809-.018-.544-.006-1.09-.003-1.638.002-1.094.012-2.191.036-3.288.063-2.194.056-4.389.129-6.584.206l-13.173.499-13.174.546-3.294.138-3.295.112c-2.202.065-4.385.16-6.616.175-8.81.027-17.605-.153-26.385-.44l-6.5845-.152-1.646-.046-.823-.022c-.132-.006-.3134.002-.555-.056-.1194-.03-.2587-.083-.3897-.172a1.1395 1.1395 0 01-.3153-.33c-.147-.242-.1827-.45-.2114-.614-.0253-.165-.0346-.285-.053-.43-.0306-.277-.068-.554-.0926-.832a45.0092 45.0092 0 01-.1314-1.664c-.133-2.219-.1326-4.426-.0906-6.624.0346-2.199.0436-4.389-.0477-6.583l.2016-.02zm4.6665-8.105l-6.2993 5.749c-2.0924 1.924-4.1867 3.843-6.252 5.791l-1.54 1.471c-.505.499-1.0337.976-1.4964 1.491-.945 1.047-1.8743 2.134-2.8543 3.173-.9823 1.039-1.992 2.062-3.1643 2.942-.5974.422-1.2154.857-2.045 1.013-.207.037-.434.035-.6647-.006l-.5243-.126c-.3474-.087-.698-.164-1.0424-.259-5.5416-1.454-10.8063-3.677-16.1923-5.397-.6727-.219-1.3487-.423-2.026-.621l-1.018-.289c-.339-.082-.6707-.175-1.0163-.246-1.371-.304-2.7727-.552-4.1704-.836-1.3986-.283-2.7993-.59-4.185-.993-1.382-.41-2.764-.896-4.0423-1.684l-.462-.332c-.1547-.109-.3087-.219-.444-.362l-.419-.404c-.1237-.147-.237-.302-.3553-.453-.447-.618-.7924-1.283-1.0684-1.962-.561-1.357-.9326-2.757-1.2476-4.155-.314-1.399-.5677-2.804-.8357-4.195-.1343-.695-.2717-1.388-.4357-2.065-.1613-.671-.3596-1.371-.5336-2.056-.72-2.755-1.381-5.525-2.0087-8.301-.3127-1.389-.6153-2.78-.907-4.173l-.217-1.046-.0537-.261-.027-.131-.0066-.032c.0016.037-.025-.168.0053-.23a.6835.6835 0 01.0557-.133l.0463-.07c.1097-.138.1827-.19.2633-.259.0784-.064.155-.122.231-.177.6067-.433 1.2147-.797 1.8287-1.168 2.456-1.458 4.9473-2.826 7.4377-4.201l7.485-4.09 7.4753-4.098c1.242-.688 2.4817-1.381 3.7113-2.088.6144-.353 1.2267-.71 1.8307-1.076.3017-.184.6013-.369.8943-.56.146-.095.2907-.192.4294-.291.1333-.096.2833-.209.3576-.289l.127-.136.1737.03 33.4583 5.771.2184.038-.037.218c-.148.87-.0774 1.781.0563 2.675.14.898.352 1.788.5603 2.685.409 1.801.7521 3.609 1.0551 5.427a102.5202 102.5202 0 011.2119 10.981l-.3006.018a102.1203 102.1203 0 00-1.3237-10.929c-.3203-1.806-.6823-3.609-1.1067-5.389-.217-.891-.4416-1.791-.596-2.714-.1466-.923-.237-1.878-.084-2.846l.2574.363-33.5187-5.417.5163-.182c-.107.117-.185.179-.2663.246a5.3794 5.3794 0 01-.2347.179c-.1536.112-.3056.216-.4576.318-.304.203-.6084.395-.9134.585-.6103.379-1.2233.745-1.838 1.108-1.2293.724-2.465 1.431-3.702 2.134-2.4743 1.407-4.9616 2.785-7.4456 4.168l-7.447 4.15c-2.473 1.392-4.9554 2.783-7.3654 4.242-.5943.365-1.205.74-1.7283 1.121-.064.047-.123.094-.1743.136l-.062.055c-.0137.012-.0207.024.005-.009a.3267.3267 0 00.033-.051c.0216-.036.0536-.105.0653-.161.056-.084-.0023-.434.0107-.333l.007.032.0276.13.0557.26.2247 1.039c.302 1.385.6146 2.767.9373 4.147.6407 2.761 1.345 5.506 2.052 8.25l.2697 1.028c.091.34.1813.684.2696 1.049.1737.718.3137 1.424.4497 2.126.2707 1.404.522 2.792.828 4.156.3057 1.36.6673 2.701 1.1773 3.933.2497.618.5564 1.194.9137 1.688.0937.118.1817.241.277.356l.318.303c.096.107.2237.196.3513.285l.377.273c1.0867.671 2.3827 1.141 3.701 1.528 1.3247.386 2.6934.687 4.075.965 1.3837.281 2.7804.528 4.2.842.3527.073.7157.173 1.0734.26l1.0396.295c.691.201 1.3797.409 2.062.631 2.739.864 5.395 1.913 8.055 2.893 2.6577.989 5.3157 1.937 8.0204 2.685.337.098.6766.177 1.0146.267l.5037.129c.063.007.1453.019.2567 0 .219-.032.495-.136.766-.278.2726-.147.5473-.32.8173-.514.5403-.387 1.062-.837 1.5717-1.304.5133-.465 1.012-.956 1.5043-1.456.9883-1.001 1.9263-2.049 2.9163-3.098.2437-.26.5297-.536.7854-.769l.7836-.727 1.5787-1.441a301.159 301.159 0 013.1907-2.84c1.0743-.934 2.1593-1.855 3.2426-2.776 2.169-1.841 4.342-3.673 6.5264-5.494l.1353.151z" fill="#13355A"/>
    <path d="M33.7485 135.544c-.0276.002-.051.007-.047.011 0 0-.0023.003 0 .029.0044.049.0357.119.076.177.0867.122.1894.214.3297.244l.9793.293 1.959.583c1.3014.402 2.605.795 3.9107 1.181l3.9087 1.181 3.9146 1.158c2.6077.779 5.224 1.529 7.8487 2.249 2.6273.709 5.2487 1.442 7.8853 2.118l.273.07.0337.274c1.0533 8.599 2.9773 17.104 4.0007 25.748l-.2987.038c-.3393-2.144-.7587-4.274-1.1633-6.405-.409-2.131-.8474-4.257-1.287-6.384-.881-4.255-1.7624-8.522-2.4047-12.847l.564.634c-2.6593-.62-5.322-1.237-7.9593-1.948-1.3187-.356-2.6424-.695-3.952-1.083l-3.925-1.177c-2.613-.796-5.1994-1.68-7.761-2.631a320.4433 320.4433 0 01-3.816-1.5c-.6334-.256-1.258-.537-1.8854-.81l-.94-.411a1.1917 1.1917 0 01-.1436-.073.805.805 0 01-.1294-.106 1.0085 1.0085 0 01-.1783-.252c-.0437-.093-.082-.189-.079-.318 0-.059.0253-.153.101-.204.0747-.053.1447-.046.2-.041l-.0147.202z" fill="#13355A"/>
    <path d="M50.3538 168.046c-.5853-2.332-1.1786-4.662-1.7343-7-.5797-2.333-1.1123-4.675-1.673-7.012-.5693-2.334-1.0903-4.679-1.64-7.018l-1.661-7.013-.114-.481.4933-.079c.2747-.044.525-.185.763-.409.238-.224.454-.517.6684-.827.2153-.311.4293-.644.6836-.971.1264-.161.275-.332.4197-.475l.4163-.409c.5547-.546 1.107-1.094 1.6787-1.623l.85-.799.8673-.781c2.3147-2.08 4.73-4.047 7.241-5.882 5.0237-3.666 10.3974-6.843 16.0244-9.465l.1293.272c-2.755 1.411-5.431 2.963-8.0483 4.599a95.615 95.615 0 00-7.5764 5.304 98.1277 98.1277 0 00-7.0096 6.006l-.8377.792-.8203.811c-.5517.535-1.0837 1.089-1.6177 1.641l-.4007.414c-.0726.073-.105.119-.1603.179l-.149.19c-.1993.271-.395.589-.6167.927-.2243.338-.4683.703-.8263 1.058-.355.349-.887.682-1.4853.77l.727-1.073c.575 2.335 1.1716 4.666 1.689 7.015.528 2.347 1.0723 4.69 1.5446 7.049.2487 1.177.475 2.359.6977 3.541.233 1.18.4253 2.369.626 3.556.4103 2.372.7713 4.754 1.0493 7.152l-.198.041z" fill="#F37059"/>
    <path d="M64.3323 145.419c1.8497-2.13 3.8693-4.092 5.913-6.027 1.038-.951 2.0797-1.897 3.139-2.823l1.6033-1.372 1.623-1.35c2.175-1.786 4.3797-3.534 6.6194-5.237 2.2386-1.703 4.4999-3.375 6.8126-4.975l.178.243c-2.1603 1.801-4.3413 3.566-6.4763 5.386-2.133 1.821-4.2467 3.662-6.325 5.54-1.0313.948-2.0827 1.872-3.1223 2.808-.513.476-1.055.919-1.5814 1.381l-1.58 1.382c-1.0666.907-2.1366 1.811-3.2453 2.676a50.1082 50.1082 0 01-3.4173 2.513l-.1407-.145z" fill="#13355A"/>
    <path d="M45.9951 124.205c.7393-.057 1.4806-.133 2.224-.174.743-.002 1.4896-.033 2.2343-.009.742.054 1.489.077 2.2293.158.738.093 1.4827.158 2.2177.275 2.946.452 5.839 1.176 8.6917 1.997 2.8466.846 5.654 1.797 8.458 2.736 1.4016.471 2.8043.934 4.2076 1.389l2.1064.674 2.1159.63.2751.082.0339.273c1.338 10.771 1.449 21.607 2.7564 32.337l-.2987.04c-.4177-2.675-.7906-5.36-1.0703-8.053-.2907-2.692-.5453-5.387-.8-8.079-.5147-5.384-1.0097-10.764-1.794-16.086l.5743.66-2.16-.589-2.1423-.63c-1.4193-.441-2.8297-.899-4.237-1.358-1.4083-.454-2.8087-.923-4.2047-1.398l-2.099-.689-2.104-.658-2.106-.639c-.703-.208-1.4096-.396-2.115-.595-.7046-.199-1.4143-.37-2.1223-.556-.3533-.098-.7113-.165-1.0677-.246l-1.068-.25c-.7123-.166-1.4323-.28-2.1506-.423-.7197-.131-1.445-.204-2.1707-.31-.7253-.099-1.455-.147-2.188-.223-.3663-.029-.7327-.023-1.1007-.036l-1.1086-.048-.017-.202z" fill="#F37059"/>
    <path d="M60.1594 126.17c-3.458-1.686-6.97-3.197-10.4796-4.802-1.7397-.829-3.482-1.679-5.164-2.628-1.6737-.931-3.3717-1.82-5.0787-2.694-3.419-1.738-6.9087-3.343-10.422-4.898-3.5147-1.553-7.0627-3.036-10.5967-4.554l.1137-.279c3.6267 1.291 7.223 2.66 10.8057 4.079 3.5836 1.416 7.1426 2.91 10.6466 4.547.877.407 1.75.824 2.6177 1.253.8643.436 1.722.886 2.577 1.341l2.523 1.338c.8423.442 1.6977.866 2.5553 1.288l2.57 1.296c.8494.456 1.7107.889 2.5507 1.373.4213.237.842.478 1.259.724.4133.255.8287.505 1.2377.766.406.267.8073.541 1.2066.817.4034.268.792.562 1.1777.858l-.0997.175z" fill="#F37059"/>
    <path d="M60.1113 126.107c-1.0537-3.239-2.7227-6.203-4.705-8.934-1.9814-2.735-4.2517-5.262-6.6223-7.693-2.3634-2.442-4.8591-4.765-7.3471-7.098-2.471-2.344-5.066-4.567-7.522-6.944l.2024-.223 3.9853 3.2143c1.3287 1.072 2.6553 2.1577 3.9637 3.2607 2.597 2.221 5.1683 4.48 7.6553 6.862.617.599 1.22 1.215 1.8174 1.838.596.623 1.19 1.253 1.7486 1.914.5584.662 1.1137 1.327 1.643 2.016.27.339.5257.692.7877 1.038.2527.355.501.712.7393 1.077.4857.722.9414 1.468 1.3554 2.236.426.762.7976 1.556 1.137 2.36.1673.403.3293.808.4656 1.224.146.411.2764.828.3907 1.248.213.846.408 1.692.5007 2.554l-.1957.05z" fill="#F37059"/>
    <path d="M60.1084 126.076c-.0647-2.951-.0574-5.889-.098-8.832l-.0487-8.829c-.0163-2.944-.0623-5.888-.1317-8.8322-.074-2.9437-.1773-5.8873-.3433-8.8243l.3-.0267c.418 2.929.644 5.8743.874 8.8177.229 2.9435.4036 5.8915.5533 8.8415.088 1.475.119 2.951.1547 4.428.0213 1.477-.0107 2.955-.032 4.433-.037.739-.0617 1.478-.1087 2.217-.0586.738-.109 1.477-.1926 2.214-.0737.738-.182 1.475-.2897 2.21-.062.367-.137.734-.205 1.1-.0643.367-.1433.732-.231 1.096l-.2013-.013z" fill="#F37059"/>
    <path d="M60.1162 126.043c1.0274-3.091 2.225-6.115 3.527-9.105.6727-1.485 1.367-2.963 2.1177-4.414.7597-1.446 1.5537-2.876 2.419-4.264 1.7203-2.781 3.6557-5.436 5.8463-7.865 2.1857-2.4302 4.6124-4.6438 7.2527-6.5578l.1817.2403c-2.4704 2.1013-4.775 4.3727-6.809 6.8655-2.0337 2.493-3.824 5.167-5.3987 7.964-.779 1.403-1.541 2.816-2.2603 4.253l-1.089 2.154c-.3637.718-.6977 1.454-1.0544 2.177-.712 1.449-1.4146 2.906-2.1653 4.348-.7337 1.449-1.5257 2.879-2.3813 4.283l-.1864-.079z" fill="#F37059"/>
    <path d="M89.7124 97.068c.24 1.7483.29 3.497.3526 5.246.0097.874.0237 1.748.0214 2.622-.009.875-.0144 1.749-.0387 2.623l-.1257 5.246c-.0466 1.748-.083 3.497-.1596 5.245h-.3014c-.1606-1.748-.295-3.497-.3836-5.245l-.2824-5.246c-.0956-1.749-.1376-3.497-.0563-5.246.046-.874.106-1.748.231-2.6223.1183-.8744.2743-1.7487.541-2.6227h.2017z" fill="#13355A"/>
    <path d="M60.1383 126.01c1.324-1.436 2.7573-2.76 4.1993-4.068 1.4384-1.313 2.9354-2.557 4.4147-3.82 1.4907-1.25 3.0067-2.469 4.5187-3.692 1.5243-1.208 3.051-2.413 4.5933-3.597 3.087-2.366 6.1844-4.718 9.3344-7.004.7926-.566 1.5793-1.138 2.3866-1.688.3957-.282.816-.545 1.2297-.813l1.2567-.745c.8416-.49 1.7113-.9692 2.6359-1.3205.924-.3497 1.8714-.6014 2.8184-.8304l.0763.2914c-.923.296-1.838.6136-2.701 1.0156-.865.3949-1.6767.8859-2.4853 1.4159l-1.212.802c-.3887.274-.7777.537-1.1633.834-.7754.571-1.5384 1.171-2.305 1.762a556.3464 556.3464 0 00-9.073 7.298l-4.5221 3.667-4.5646 3.61c-3.0557 2.395-6.158 4.709-9.296 7.026l-.1417-.144z" fill="#F37059"/>
  </g>
</svg>