<svg width="818" height="643" fill="none" xmlns="http://www.w3.org/2000/svg">
  <path d="M10.2689 375C53.2829 267.792 362.82 318.179 388.769 189c14.1-70.195 156.5-133.5 259-106.5S815.99 1 912.905 1c9.982 223.667 29.653 611-32.636 611-77.861 0-158.521-23.624-214-62.5-68.5-48-182.5-54.5-386 0C76.7689 604-32.7451 482.208 10.2689 375z" stroke="#295689" stroke-width="2"/>
  <path d="M29.0378 390c43.014-107.208 352.5512-56.821 378.5002-186 14.1-70.195 156.5-133.5 259-106.5S834.759 16 931.673 16c9.983 223.667 29.653 611-32.635 611-77.861 0-158.521-23.624-214-62.5-68.5-48-182.5-54.5-386 0C95.5378 619-13.9762 497.208 29.0378 390z" stroke="#295689" stroke-width="2"/>
  <path d="M47.8067 405c43.014-107.208 352.5513-56.821 378.5003-186 14.1-70.195 156.5-133.5 259-106.5S853.528 31 950.442 31c9.982 223.667 29.653 611-32.635 611-77.861 0-158.521-23.624-214-62.5-68.5-48-182.5-54.5-386 0S4.7927 512.208 47.8067 405z" stroke="#295689" stroke-width="2"/>
</svg>