<svg width="200" height="200" viewBox="0 0 200 200" fill="none" xmlns="http://www.w3.org/2000/svg">
<g clip-path="url(#clip0)">
<path d="M150.663 101.15C150.657 102.547 150.65 103.94 150.64 105.334C150.647 104.384 134.727 109.94 133.163 112.374C131.783 114.52 131.31 117.104 130.503 119.524C129.293 123.147 127.28 126.504 124.647 129.274C124.047 129.907 123.39 130.524 122.58 130.847C120.673 131.607 118.553 130.55 116.843 129.417C111.397 125.804 106.733 121.024 103.213 115.52C100.9 111.907 99.6299 104.54 94.1965 104.99C93.1699 100.587 98.6599 99.6071 101.823 99.1304C105.177 98.6238 107.543 97.6538 108.55 94.4604C108.817 93.6104 108.7 92.5004 108.593 91.3538C108.54 90.7804 108.49 90.1971 108.49 89.6371C108.49 89.4638 108.497 89.2904 108.507 89.1204C108.587 87.9471 108.97 86.8938 110.137 86.2338C111.267 85.5971 126.653 88.8738 126.383 84.7771C126.453 85.8604 126.44 86.9571 126.443 88.0404C126.443 88.6038 126.453 89.1638 126.477 89.7138C126.593 91.9904 127.047 94.1238 128.893 95.8138C129.107 96.0104 129.34 96.2004 129.593 96.3838C129.64 96.4171 129.69 96.4538 129.737 96.4838C132.227 98.2238 135.357 98.7471 138.367 99.2204C142.467 99.8638 146.567 100.507 150.663 101.15Z" fill="#EDD2AE"/>
<path opacity="0.1" d="M129.736 96.4837C127.996 96.3237 126.356 95.4804 124.713 94.8237C122.83 94.0704 120.856 93.5471 118.846 93.2671C116.45 92.9337 113.98 92.9471 111.633 92.2904C110.866 92.0771 109.22 91.7437 108.593 91.3537C108.54 90.7804 108.49 90.1971 108.49 89.6371C109.04 89.7504 109.593 89.8471 110.153 89.9204C114.256 90.4804 118.496 90.0437 122.393 88.6371C123.573 88.2137 124.803 87.6937 126.03 87.9304C126.173 87.9571 126.31 87.9971 126.443 88.0404C126.993 88.2271 127.466 88.5504 127.88 88.9637C127.413 89.2271 126.946 89.4804 126.476 89.7137C126.593 91.9904 127.046 94.1237 128.893 95.8137C129.106 96.0104 129.34 96.2004 129.593 96.3837C129.64 96.4171 129.69 96.4537 129.736 96.4837Z" fill="#454546"/>
<path d="M81.1208 159.97C79.5078 160.041 77.9162 158.92 77.4402 157.377C77.1228 156.35 77.2688 155.243 77.4272 154.179C78.5165 146.864 80.0618 139.618 82.0512 132.495C82.2508 131.78 82.7112 130.895 83.4405 131.034C83.7022 131.084 83.9162 131.266 84.1165 131.442C85.6308 132.768 87.1448 134.095 88.6595 135.422C92.4575 138.75 88.8972 142.475 87.2155 146.273C86.5588 147.755 82.2318 159.92 81.1208 159.97Z" fill="#EDD2AE"/>
<path opacity="0.05" d="M81.1208 159.97C79.5078 160.041 77.9162 158.92 77.4402 157.377C77.1228 156.35 77.2688 155.243 77.4272 154.179C78.5165 146.864 80.0618 139.618 82.0512 132.495C82.2508 131.78 82.7112 130.895 83.4405 131.034C83.7022 131.084 83.9162 131.266 84.1165 131.442C85.6308 132.768 87.1448 134.095 88.6595 135.422C92.4575 138.75 88.8972 142.475 87.2155 146.273C86.5588 147.755 82.2318 159.92 81.1208 159.97Z" fill="#454546"/>
<path d="M93.8699 101.972C88.6935 104.01 85.6745 109.29 83.0579 114.2C81.2109 117.665 79.4019 121.026 77.3286 124.368C76.7929 125.231 75.2419 129.959 75.6782 130.876C75.9312 131.408 76.4609 131.743 76.9656 132.047C82.9219 135.633 89.3382 138.898 96.2729 139.397C96.5539 135.594 97.3139 128.191 97.3139 124.368C97.1929 120.623 96.7795 116.895 96.3669 113.171C96.0782 110.569 95.7899 107.966 95.5012 105.364C95.3075 103.623 95.5822 102.339 93.8699 101.972Z" fill="#FBF9F0"/>
<path opacity="0.05" d="M93.8699 101.972C88.6935 104.01 85.6745 109.29 83.0579 114.2C81.2109 117.665 79.4019 121.026 77.3286 124.368C76.7929 125.231 75.2419 129.959 75.6782 130.876C75.9312 131.408 76.4609 131.743 76.9656 132.047C82.9219 135.633 89.3382 138.898 96.2729 139.397C96.5539 135.594 97.3139 128.191 97.3139 124.368C97.1929 120.623 96.7795 116.895 96.3669 113.171C96.0782 110.569 95.7899 107.966 95.5012 105.364C95.3075 103.623 95.5822 102.339 93.8699 101.972Z" fill="#454546"/>
<path d="M3.56045 69.3226C9.75578 48.8189 22.9744 30.0536 41.0964 17.6649C50.0838 11.4096 60.1471 6.61489 70.7711 3.59156C81.4201 0.688559 92.5804 -0.512108 103.63 0.318559C114.68 1.05756 125.642 3.52923 135.967 7.71923C146.29 11.9452 155.713 18.1936 164.003 25.6062C172.215 33.0856 179.531 41.7372 184.724 51.6216C189.988 61.4382 193.657 72.0759 195.533 83.0099C197.517 93.9466 197.245 105.173 195.512 116.05C193.712 126.921 190.307 137.586 184.953 147.204C174.417 166.43 157.906 182.492 137.841 191.254C127.891 195.711 117.253 198.583 106.427 199.671C101 199.932 95.5708 200.277 90.1531 199.882C84.7421 199.451 79.3658 198.67 74.0878 197.436C52.9665 192.468 33.7638 180.264 20.2664 163.489C19.8051 162.915 19.8961 162.076 20.4694 161.614C21.0304 161.163 21.8454 161.24 22.3121 161.779L22.3231 161.792C36.0388 177.644 54.9581 188.645 75.1748 192.636C80.2291 193.626 85.3488 194.18 90.4721 194.406C95.6068 194.596 100.716 194.068 105.798 193.654C115.927 192.261 125.744 189.209 134.817 184.745C153.071 175.932 167.813 160.649 176.449 142.782C180.879 133.872 183.468 124.162 184.577 114.414C185.585 104.659 185.302 94.7176 183.026 85.2636C180.92 75.7979 177.463 66.6902 172.589 58.3952C167.662 50.1469 161.634 42.5596 154.503 36.1402C147.385 29.7046 139.233 24.4839 130.532 20.3959C121.749 16.4572 112.32 14.0362 102.685 12.9536C93.0358 11.7119 83.1438 12.3292 73.5558 14.3746C63.9178 16.2899 54.5174 19.8476 45.8631 24.8912C37.1964 29.9329 29.3818 36.4879 22.3781 43.9672C15.4285 51.5226 9.76878 60.3462 5.25045 69.9022L5.22145 69.9622C5.01145 70.4079 4.47812 70.5986 4.03345 70.3876C3.62812 70.1962 3.43478 69.7389 3.56045 69.3226Z" fill="#F4B935"/>
<path d="M147.453 56.7667C147.5 60.5834 146.973 64.3467 145.867 67.9167C144.54 72.2134 142.377 76.2267 139.373 79.7267C136.89 82.6167 132.53 86.3501 127.88 88.9634C127.413 89.2267 126.947 89.4801 126.477 89.7134C123.053 91.4467 119.563 92.4767 116.62 92.0467C116.16 91.9767 115.713 91.8601 115.267 91.7434C113.41 91.2467 111.71 90.6301 110.153 89.9201C109.587 89.6667 109.037 89.3967 108.507 89.1201C107.823 88.7601 107.173 88.3867 106.553 87.9967C97.1699 82.1234 94.4565 73.1534 94.0165 72.2267C93.6199 71.3867 93.4299 70.4667 93.2532 69.5534C91.4632 60.2167 89.7932 50.2334 92.9932 41.0667C95.9732 32.5334 102.967 25.3967 111.427 22.2101C117.89 19.7767 125.173 17.9634 131.593 20.5101C144.213 25.5067 147.31 44.8934 147.453 56.7667Z" fill="#EDD2AE"/>
<path opacity="0.1" d="M145.867 67.917C144.54 72.2137 142.377 76.227 139.373 79.727C136.89 82.617 132.53 86.3504 127.88 88.9637C127.413 89.227 126.947 89.4804 126.477 89.7137C123.053 91.447 119.563 92.477 116.62 92.047C116.16 91.977 115.713 91.8604 115.267 91.7437C113.41 91.247 111.71 90.6304 110.153 89.9204C109.587 89.667 109.037 89.397 108.507 89.1204C107.823 88.7604 107.173 88.387 106.553 87.997C107.397 87.9937 108.323 88.1204 109.113 88.0604C110.763 87.9304 112.403 87.677 114.04 87.427C116.763 87.007 119.54 86.5704 121.98 85.2904C125.08 83.667 127.387 80.7737 128.8 77.5737C130.213 74.3704 130.793 70.8637 131.06 67.3737C131.323 63.9504 131.243 60.3004 129.453 57.3704C134.54 59.7104 139.423 62.497 144.023 65.6937C144.55 66.057 145.083 66.4404 145.443 66.9737C145.64 67.2637 145.773 67.5837 145.867 67.917Z" fill="#454546"/>
<path d="M151.51 52.6834V52.6901C151.47 53.7068 151.4 54.8301 151.277 56.0068C151.203 56.7101 151.113 57.4301 151 58.1568C150.15 63.7068 148.067 69.5068 143.19 69.6401C145.537 69.5768 138.607 49.5434 137.847 48.0268C139.01 54.1034 139.183 60.3668 138.36 66.4968C138.343 66.4734 138.323 66.4534 138.307 66.4301C135.16 62.5868 131.89 58.6601 127.53 56.2901C123.953 54.3501 119.877 53.5868 116.017 52.2934C112.647 51.1601 104.99 48.0101 102.387 43.5334C101.347 41.7501 101.11 39.7534 102.27 37.5901C100.023 41.7868 96.9565 46.0768 93.2732 49.1301C84.9899 55.9968 87.1865 40.6034 89.3232 36.1368C87.3999 38.8634 84.3665 40.7834 81.0799 41.3568C83.1832 41.0001 88.0099 32.7468 89.4599 30.9468C91.5865 28.3068 93.5999 24.9668 96.4132 23.0134C97.1332 22.5101 97.9232 22.0934 98.5299 21.4601C98.6832 21.3001 98.8265 21.1268 98.9565 20.9468C99.2332 20.5701 99.4765 20.1668 99.7399 19.7801C102.02 16.4434 105.98 14.5634 109.967 13.9101C116.297 12.8768 124.077 12.1434 129.683 15.4034C135.793 18.9534 142.927 23.7168 146.663 29.8568C147.777 31.6868 148.677 33.6534 149.383 35.7468C149.527 36.1701 149.66 36.5968 149.79 37.0334C150.29 38.7201 150.673 40.4868 150.953 42.3234C151.003 42.6468 151.05 42.9734 151.09 43.3001C151.373 45.4401 151.52 47.6734 151.55 49.9901C151.56 50.7301 151.55 51.6501 151.51 52.6834Z" fill="#F37059"/>
<path opacity="0.15" d="M151.51 52.6904C151.433 53.7971 151.39 54.9004 151.276 56.0071C149.87 56.1704 148.27 55.3004 147.246 54.1837C146.17 53.0097 145.257 51.6547 144.645 50.1814C144.136 48.9561 143.362 46.5311 144.111 45.2507C144.406 44.7464 145.154 44.4487 145.596 44.0461C146.195 43.5011 146.713 42.8687 147.138 42.1797C147.986 40.8021 148.461 39.1871 148.433 37.5657C148.386 34.7414 146.96 32.1521 146.124 29.4537C147.756 31.3234 148.404 33.5551 149.383 35.7474C149.563 36.1507 149.686 36.5941 149.79 37.0341C149.826 37.1974 149.863 37.3607 149.896 37.5241C150.08 38.3874 150.263 39.2507 150.433 40.1174C150.603 40.9874 150.653 41.9607 150.92 42.8041C150.973 42.9707 151.03 43.1374 151.09 43.3007C151.373 45.4407 151.52 47.6741 151.55 49.9907C151.56 50.7304 151.55 51.6504 151.51 52.6904Z" fill="#454546"/>
<path d="M141.252 59.6256C142.569 56.8519 141.198 48.0286 133.657 36.3186C126.239 24.8009 115.583 18.3819 100.856 21.2669C99.9665 21.4412 98.9145 21.5026 98.0095 21.5839C100.336 21.3749 102.935 19.6112 105.52 19.3252C108.55 18.9902 111.639 19.3379 114.643 19.7059C120.688 20.4466 126.71 21.8219 133.898 28.4642C135.316 29.7746 145.921 40.9869 145.921 61.3212C144.733 60.5202 142.723 59.5649 141.252 59.6256Z" fill="#29568A"/>
<path d="M150.814 54.5138C151.197 55.9725 151.204 57.4928 151.03 58.9745C150.488 63.6115 148.088 68.0512 144.22 70.8458C142.225 72.2878 139.634 73.3018 137.176 72.6495C134.851 72.0328 133.127 70.0158 132.353 67.8365C130.663 63.0775 131.118 52.2328 135.6 48.7512C140.754 44.7478 149.296 48.7268 150.814 54.5138Z" fill="#29568A"/>
<path d="M117.609 81.7781C125.275 83.7764 130.596 82.3358 135.289 79.4161C142.052 75.2094 142.223 72.1901 142.997 70.3861C132.585 81.7798 126.501 81.6151 117.609 81.7781Z" fill="#29568A"/>
<path d="M118.131 84.4315C117.011 84.2702 115.912 83.6355 115.43 82.6128C113.491 78.5012 117.787 78.1245 120.532 79.4162C121.393 79.8212 122.292 80.2852 122.786 81.0988C124.459 83.8548 119.838 84.6775 118.131 84.4315Z" fill="#29568A"/>
<path d="M151.678 55.939C152.004 57.305 151.993 58.7334 151.82 60.1274C151.282 64.4904 149.084 68.689 145.592 71.359C143.79 72.7367 141.461 73.7194 139.269 73.1347C137.197 72.582 135.677 70.7067 135.01 68.6684C133.553 64.2167 134.085 54.0224 138.134 50.7C142.791 46.8797 150.387 50.5194 151.678 55.939Z" fill="#13355A"/>
<path d="M171.526 132.677C171.559 133.374 171.129 133.994 170.709 134.547C166.706 139.82 161.913 144.48 156.543 148.314C153.033 143.354 149.949 138.084 147.339 132.584C146.729 136.14 146.179 139.707 145.686 143.284C145.486 144.717 145.296 146.154 145.116 147.59C144.536 152.23 145.019 158.3 143.569 162.694C142.023 167.394 138.566 166.05 133.483 166.234C129.023 166.397 124.563 166.484 120.103 166.544C113.189 166.634 105.843 165.174 99.0962 166.754C97.5828 167.11 96.3962 167.357 95.4595 167.464C91.6495 167.894 92.0262 165.934 91.6662 158.937C90.8362 142.664 91.3328 126.364 91.3262 110.08C91.3252 107.427 91.6002 104.303 93.5162 102.268C95.4878 100.175 98.3175 100.353 100.85 99.5363C101.743 99.2483 102.635 98.9603 103.528 98.6723C104.029 98.5106 104.707 98.4116 104.966 98.8699C105.052 99.0226 105.065 99.2039 105.084 99.3779C105.188 100.305 105.604 100.955 106.013 101.756C106.398 102.508 106.561 103.323 106.782 104.153C107.295 106.078 107.849 107.991 108.443 109.892C109.036 111.792 109.671 113.68 110.345 115.553C110.682 116.49 111.029 117.422 111.386 118.352C111.671 119.095 112.486 120.346 112.486 121.127C112.486 120.851 121.366 113.384 122.43 112.171C126.186 107.884 128.83 102.081 130.483 96.6573C130.906 95.6673 149.233 100.551 151.143 101.011C151.906 101.197 152.7 101.397 153.296 101.911C153.733 102.287 154.026 102.801 154.313 103.304C159.666 112.714 165.226 122.127 170.943 131.254C171.183 131.637 171.43 132.041 171.503 132.484C171.516 132.547 171.523 132.61 171.526 132.677Z" fill="#FBF9F0"/>
<path opacity="0.1" d="M145.713 143.288C145.502 144.723 145.296 146.157 145.117 147.59C144.537 152.23 145.02 158.3 143.57 162.694C142.023 167.394 138.567 166.05 133.483 166.234C129.023 166.397 124.563 166.484 120.103 166.544C113.19 166.634 105.843 165.174 99.0966 166.754C97.5833 167.11 96.3966 167.357 95.4599 167.464C95.8866 166.454 98.7599 165.834 99.4866 165.73C101.683 165.417 103.93 165.547 106.113 165.154C110.127 164.43 114.067 163.327 117.907 161.96C122.133 160.457 126.243 158.634 130.243 156.604C132.419 155.497 134.899 154.483 136.676 152.81C140.505 149.205 141.898 144.422 143.257 139.445C144.507 134.865 146.629 129.854 146.69 125.098C146.706 123.901 147.863 123.718 148.696 124.408C149.185 124.812 149.465 125.411 149.681 126.007C150.318 127.759 150.531 129.631 150.739 131.484C150.928 133.156 151.116 134.829 151.304 136.501C151.43 137.617 151.556 138.736 151.56 139.859C149.788 137.616 148.57 134.94 148.043 132.132C148.001 131.907 147.936 131.647 147.726 131.558C147.408 131.423 146.845 134.629 146.77 135.075C146.314 137.774 146.113 140.568 145.713 143.288Z" fill="#454546"/>
<path d="M90.4985 170.869H115.984V166.188H89.3875L90.4985 170.869Z" fill="#29568A"/>
<path d="M83.9999 135.287C85.9133 147.017 89.4233 158.833 90.5433 170.847C75.8599 169.773 61.1233 170.257 46.4299 170.663C42.6466 170.767 38.8633 170.87 35.0799 170.947C34.1466 170.967 32.9599 171.127 31.7399 171.223C29.2133 169.03 26.8033 166.7 24.5233 164.243C22.3033 153.857 18.9533 133.927 18.2999 130.613C17.3999 126.05 16.9899 124.677 21.9533 124.38C27.4966 124.047 34.5433 124.647 40.1033 124.69C47.9899 124.75 55.8766 124.68 63.7633 124.487C67.8366 124.383 71.8333 123.223 75.9233 123.31C77.7566 123.35 79.9733 123.473 81.5499 124.633C84.2399 126.613 83.4933 132.187 83.9999 135.287Z" fill="#13355A"/>
<path d="M178.357 167.85C178.234 167.898 178.111 167.943 177.989 167.985C173.58 169.505 168.839 169.701 164.176 169.811C156.384 169.994 139.674 169.482 135.783 169.27C133.695 169.156 132.968 168.88 130.904 169.328C129.753 169.577 127.745 171.066 126.904 171.89C125.63 173.14 121.785 173.022 120.298 172.033C118.812 171.044 117.608 169.613 115.967 168.911C110.422 166.54 104.66 173.669 98.7365 172.533C99.8675 165.891 106.943 162.279 113.163 159.688C115.429 158.745 117.954 157.79 120.269 158.604C121.994 159.21 123.25 160.693 124.825 161.621C127.353 163.112 130.47 163.063 133.401 162.917C144.71 162.354 149.75 158.953 160.84 156.958C159.991 157.111 156.574 148.261 157.026 147.276C157.279 146.726 157.799 146.355 158.293 146.004C161.922 143.426 166.104 137.485 169.954 136.042C174.687 144.157 177.038 154.884 180.273 163.755C180.512 164.408 180.753 165.104 180.611 165.784C180.391 166.828 179.376 167.451 178.357 167.85Z" fill="#EDD2AE"/>
<path d="M44.9455 145.829C45.3169 147.734 47.1475 148.669 48.9139 147.692C50.2439 146.956 51.7055 143.661 49.6499 142.94C47.3745 142.142 46.6345 144.67 47.2692 146.308C48.1679 148.626 50.7339 149.047 52.8949 148.404C54.7049 147.866 58.7329 145.536 56.7269 143.161C56.2069 142.545 55.3019 142.585 54.5565 142.666C53.1369 142.82 52.0552 143.999 51.4722 145.237C50.4605 147.387 50.8645 150.531 52.7542 152.117C54.0349 153.192 57.0332 153.223 57.1319 151.017C57.1732 150.091 56.4949 149.231 55.6062 149.017C54.4505 148.739 53.3469 149.573 52.7235 150.477C51.2612 152.598 52.5252 155.55 55.2839 155.037C55.7455 154.951 55.2482 154.3 54.8649 154.371C53.0905 153.967 52.4519 153.117 52.9489 151.822C53.1119 151.344 53.3719 150.934 53.7289 150.591C54.0022 150.22 54.3572 149.946 54.7949 149.77C56.4119 150.569 56.7289 151.222 55.7462 151.729C53.9872 153.391 52.2522 150.78 51.8715 149.245C51.5382 147.9 51.7012 146.447 52.4032 145.242C52.7399 144.664 53.2079 144.054 53.8032 143.719C54.3389 143.417 54.8999 143.295 55.4862 143.352C56.3139 143.536 56.5569 143.972 56.2145 144.66C55.7302 147.593 49.3442 149.631 48.0075 146.266C47.8272 145.812 47.6449 145.041 47.7865 144.563C48.0785 143.578 49.6392 143.324 49.8119 144.378C50.1472 146.426 46.3475 149.181 45.7205 145.965C45.6459 145.585 44.8552 145.366 44.9455 145.829Z" fill="#F6BB35"/>
<g opacity="0.6">
<path opacity="0.6" d="M94.4801 27.3647C94.9157 26.6113 95.5631 26.019 96.2581 25.5293C96.6204 25.2983 96.9514 25.0633 97.3994 24.8713C97.8377 24.689 98.3434 24.6157 98.7844 24.6393C99.2297 24.6553 99.6251 24.701 100.035 24.722C100.443 24.7453 100.837 24.7677 101.218 24.7283C101.975 24.668 102.687 24.264 103.416 23.875L103.581 24.127C103.281 24.4227 102.971 24.718 102.604 24.969C102.422 25.0957 102.228 25.2153 102.018 25.3203C101.809 25.4243 101.578 25.5013 101.352 25.5623C100.897 25.683 100.446 25.7323 100.023 25.7747C99.6044 25.8197 99.1581 25.8407 98.8047 25.8917C98.4424 25.946 98.2057 26.032 97.9351 26.1527C97.7974 26.2227 97.6697 26.276 97.4877 26.382L96.9687 26.651C96.6214 26.8287 96.2604 26.985 95.8791 27.1307C95.4974 27.2773 95.1004 27.4127 94.6221 27.5087L94.4801 27.3647Z" fill="#FBF9F0"/>
</g>
<path opacity="0.15" d="M138.317 66.4369C138.313 66.4336 138.31 66.4336 138.307 66.4303C135.16 62.5869 131.89 58.6602 127.53 56.2902C123.953 54.3502 119.877 53.5869 116.017 52.2936C112.647 51.1603 104.99 48.0102 102.387 43.5336C102.49 41.4269 103.343 42.3902 104.397 43.2069C105.763 44.2702 107.09 45.1802 108.72 45.8069C112.14 47.1269 115.857 47.4036 119.45 48.1302C122.823 48.8136 126.1 49.9002 129.37 50.9836C130.033 51.2036 130.703 51.4269 131.297 51.8002C131.91 52.1836 132.417 52.7169 132.903 53.2536C136.203 56.8936 139.04 61.5769 138.317 66.4369Z" fill="#454546"/>
<g opacity="0.4">
<path opacity="0.4" d="M102.91 18.7788C103.225 18.1438 103.729 17.6508 104.263 17.2371C104.539 17.0398 104.815 16.8465 105.102 16.6738C105.393 16.5068 105.681 16.3425 105.979 16.1965C106.573 15.8958 107.188 15.5928 107.851 15.3915C108.508 15.1891 109.232 15.0778 109.914 15.2368L109.88 15.5361C109.234 15.6288 108.684 15.8831 108.151 16.1811C107.619 16.4851 107.123 16.8701 106.612 17.2775C106.099 17.7001 105.567 18.0495 105.009 18.3351C104.73 18.4788 104.442 18.6031 104.121 18.6985C103.805 18.7998 103.47 18.8841 103.051 18.9221L102.91 18.7788Z" fill="#FBF9F0"/>
</g>
<path d="M91.3102 64.8425C91.4192 64.5835 91.5602 64.3448 91.6942 64.0982C91.8419 63.8622 91.9999 63.6325 92.1622 63.4035C92.4892 62.9475 92.8752 62.5352 93.2916 62.1515C93.7172 61.7792 94.1699 61.4302 94.6616 61.1372C95.1559 60.8502 95.6779 60.6025 96.2262 60.4302C97.3266 60.0752 98.4976 59.9762 99.6239 60.1608C100.745 60.3418 101.841 60.8145 102.644 61.6115L102.447 61.8398C101.54 61.2715 100.52 61.0328 99.5212 60.9995C98.5196 60.9732 97.5229 61.1942 96.6532 61.6082C95.7729 62.0398 94.9659 62.5758 94.1506 63.1635C93.7386 63.4528 93.3336 63.7652 92.8936 64.0652C92.4579 64.3705 92.0069 64.6808 91.4739 64.9608L91.3102 64.8425Z" fill="#13355A"/>
<path d="M111.348 62.4375C112.052 60.9598 113.409 59.8432 114.9 59.1472C116.413 58.4718 118.1 58.1942 119.746 58.3635C121.385 58.5245 122.961 59.0485 124.383 59.8122C125.807 60.5755 127.1 61.5582 128.205 62.7092L127.998 62.9278C126.749 61.9678 125.407 61.1682 124.006 60.5682C122.604 59.9738 121.118 59.6268 119.652 59.6128C118.2 59.6035 116.771 59.8815 115.421 60.3668C114.743 60.6068 114.09 60.9158 113.442 61.2698C112.796 61.6315 112.173 62.0552 111.515 62.5505L111.348 62.4375Z" fill="#13355A"/>
<path d="M95.2419 62.2074C95.2915 62.5144 95.3272 62.8148 95.3962 63.1098C95.4502 63.4051 95.5145 63.6964 95.6009 63.9804C95.7715 64.5478 95.9649 65.1001 96.2229 65.6214C96.4689 66.1531 96.7605 66.6471 97.1352 66.9771C97.4992 67.3204 97.9192 67.3994 98.2789 67.1894C98.6469 66.9808 98.9142 66.4434 99.0666 65.9054C99.2179 65.3661 99.2806 64.7411 99.3556 64.1408C99.4902 62.9298 99.5229 61.7071 99.5026 60.4801L99.8029 60.4564C100.061 61.6801 100.201 62.9388 100.198 64.2018C100.199 64.5174 100.193 64.8338 100.183 65.1504C100.175 65.4551 100.152 65.8171 100.089 66.1574C100.027 66.5031 99.9336 66.8544 99.7722 67.2114C99.6126 67.5641 99.3709 67.9414 98.9649 68.2381C98.5589 68.5388 98.0185 68.6861 97.4982 68.6178C96.9729 68.5501 96.5369 68.2971 96.2195 68.0214C95.8912 67.7461 95.6629 67.4278 95.4622 67.1114C95.2669 66.7768 95.1395 66.4858 95.0095 66.1594C94.7722 65.5154 94.6305 64.8388 94.6312 64.1601C94.6242 63.4851 94.7429 62.8078 95.0399 62.1971L95.2419 62.2074Z" fill="#13355A"/>
<path d="M114.666 61.0053C114.975 62.6843 114.813 64.4097 115.347 65.8717C115.473 66.245 115.625 66.558 115.848 66.8573C116.066 67.1547 116.339 67.4113 116.632 67.6347C117.217 68.0783 117.96 68.316 118.601 68.1603C118.917 68.0783 119.22 67.9033 119.45 67.642C119.685 67.3867 119.854 67.0537 119.974 66.6907C120.213 65.957 120.263 65.1353 120.307 64.2987C120.402 62.629 120.438 60.9563 120.469 59.2807L120.77 59.2723C120.976 60.9473 121.111 62.6337 121.152 64.3227C121.173 65.1573 121.211 66.0523 120.982 66.995C120.865 67.464 120.67 67.956 120.325 68.393C119.99 68.8303 119.5 69.1823 118.939 69.3673C118.377 69.5467 117.777 69.5523 117.25 69.416C116.718 69.285 116.24 69.0527 115.817 68.7567C115.39 68.4637 115.035 68.0847 114.73 67.6663C114.435 67.25 114.204 66.7267 114.083 66.2743C113.83 65.331 113.829 64.401 113.937 63.5373C114.04 62.668 114.233 61.8553 114.465 61.0147L114.666 61.0053Z" fill="#13355A"/>
<path d="M105.831 63.9448C105.923 64.1398 105.999 64.3432 106.078 64.5485C106.142 64.7565 106.191 64.9705 106.236 65.1858C106.264 65.4018 106.299 65.6208 106.321 65.8408C106.324 66.0598 106.332 66.2815 106.324 66.5018C106.28 67.3838 106.055 68.2415 105.755 69.0512C105.445 69.8605 105.042 70.6195 104.611 71.3505C104.181 72.0832 103.715 72.7862 103.24 73.4785L102.978 73.0102L104.581 73.0638C105.115 73.0765 105.649 73.1152 106.183 73.1408L106.186 73.4422C105.652 73.5165 105.119 73.6108 104.585 73.6665L103.785 73.7615C103.518 73.7965 103.251 73.8145 102.985 73.8415L102.077 73.9338L102.535 73.0375C102.914 72.2945 103.281 71.5522 103.606 70.8048C103.934 70.0585 104.196 69.2992 104.455 68.5665C104.713 67.8315 104.941 67.1105 105.122 66.3745C105.314 65.6355 105.47 64.8908 105.636 63.9968L105.831 63.9448Z" fill="#13355A"/>
<path d="M106.397 77.5198C106.558 77.5334 106.717 77.5494 106.872 77.5721L107.342 77.5981C107.499 77.5964 107.654 77.6048 107.808 77.6078L108.27 77.5874C108.881 77.5354 109.486 77.4564 110.063 77.2708C110.643 77.1044 111.205 76.8778 111.723 76.5751C112.251 76.2891 112.729 75.9211 113.161 75.5074L113.915 74.7844L113.922 75.7961C113.927 76.5004 113.88 77.2081 113.742 77.9058C113.611 78.6024 113.378 79.2904 113.027 79.9194C112.671 80.5491 112.199 81.1064 111.576 81.5128C111.262 81.7068 110.909 81.8451 110.531 81.8818C110.156 81.9194 109.741 81.8261 109.447 81.5694L109.634 81.3328C110.163 81.6374 110.788 81.3558 111.237 80.9968C111.457 80.8138 111.657 80.5694 111.829 80.3204C111.998 80.0671 112.154 79.8078 112.268 79.5234C112.503 78.9618 112.636 78.3524 112.687 77.7308C112.744 77.1098 112.719 76.4754 112.649 75.8481L114.079 76.3908C113.615 76.9561 113.028 77.4051 112.411 77.7871C111.78 78.1494 111.093 78.4058 110.386 78.5434C109.679 78.6764 108.95 78.6961 108.251 78.5581C107.554 78.4264 106.88 78.1594 106.335 77.7121L106.397 77.5198Z" fill="#13355A"/>
<path d="M93.3538 31.3937C92.7552 32.0747 92.2108 32.7947 91.7548 33.568C91.2852 34.3317 90.8948 35.1407 90.5675 35.972C89.9082 37.634 89.4902 39.383 89.2898 41.164C89.0545 42.9413 89.0355 44.7467 89.0672 46.554C89.0948 47.4537 89.1025 48.3807 89.2052 49.2363C89.3078 50.0907 89.5492 50.9133 90.1015 51.4587L89.6072 51.385C91.1248 50.6227 92.5972 49.7743 93.9068 48.7187C95.2172 47.6657 96.3438 46.3967 97.2612 44.9773C97.7258 44.2737 98.1158 43.5167 98.5345 42.7623L99.7722 40.5013C100.593 38.9917 101.436 37.494 102.267 35.9903L102.533 36.1317C101.788 37.6813 101.069 39.2447 100.299 40.7813L99.1588 43.094L98.5845 44.2523L98.2808 44.838L97.9532 45.413C97.0582 46.9343 95.9178 48.345 94.5658 49.5167C93.2148 50.6903 91.7018 51.6353 90.1678 52.4787L89.6788 52.7477L89.2462 52.3417C88.8158 51.938 88.4962 51.4347 88.2905 50.9273C88.0812 50.4187 87.9622 49.907 87.8875 49.4127C87.8158 48.9177 87.7832 48.4343 87.7572 47.975C87.7292 47.5147 87.7075 47.0523 87.6895 46.589C87.6455 45.6627 87.6602 44.7297 87.7052 43.795C87.7485 42.8603 87.8322 41.9227 87.9655 40.988C88.1102 40.055 88.3132 39.1283 88.5848 38.2163C88.8768 37.3123 89.2022 36.4163 89.6472 35.5747C90.0775 34.728 90.5898 33.924 91.1818 33.1877C91.4898 32.828 91.8032 32.4767 92.1442 32.1533C92.3088 31.987 92.4858 31.833 92.6602 31.6783C92.8388 31.5277 93.0305 31.3917 93.2128 31.25L93.3538 31.3937Z" fill="#13355A"/>
<path d="M101.35 37.7494C101.323 37.7784 101.313 37.8067 101.26 37.8334C101.223 37.8631 101.13 37.8624 101.086 37.8311C100.994 37.7701 100.976 37.7037 100.951 37.6431C100.918 37.5211 100.893 37.3907 100.995 37.2334C101.054 37.1541 101.167 37.1151 101.251 37.1214C101.325 37.1257 101.392 37.1407 101.457 37.1734C101.589 37.2361 101.678 37.3447 101.738 37.4487C101.859 37.6594 101.899 37.8811 101.934 38.0834L102.049 38.6611C102.122 39.0457 102.176 39.4327 102.288 39.8071L102.434 40.3721L102.507 40.6541L102.602 40.9291C103.071 42.4041 103.737 43.8111 104.68 45.0131C105.596 46.2337 106.762 47.2511 108.058 48.0704C109.351 48.8987 110.779 49.5221 112.25 50.0264C113.727 50.5314 115.25 50.8787 116.804 51.1641C118.356 51.4554 119.939 51.7304 121.477 52.2304C122.245 52.4797 122.998 52.7917 123.712 53.1787C124.427 53.5637 125.09 54.0294 125.721 54.5264C126.983 55.5251 128.075 56.6924 129.163 57.8431L128.949 58.0544C127.787 56.9751 126.606 55.9204 125.352 55.0044C124.72 54.5544 124.066 54.1417 123.377 53.8134C122.69 53.4837 121.971 53.2261 121.23 53.0244C119.748 52.6177 118.197 52.4314 116.622 52.2011C115.045 51.9794 113.431 51.6834 111.865 51.2184C110.291 50.7664 108.75 50.1204 107.316 49.2414C105.891 48.3537 104.613 47.1801 103.615 45.8027C103.482 45.6364 103.378 45.4501 103.268 45.2687L102.94 44.7234C102.824 44.5461 102.745 44.3484 102.65 44.1601C102.558 43.9704 102.469 43.7791 102.384 43.5864C102.216 43.2007 102.099 42.7957 101.957 42.4037C101.818 42.0101 101.752 41.5964 101.653 41.1947L101.586 40.8921L101.543 40.5857C101.513 40.3821 101.485 40.1781 101.462 39.9741C101.402 39.5681 101.393 39.1581 101.38 38.7511L101.373 38.1414C101.378 37.9557 101.374 37.7887 101.335 37.6594C101.316 37.5954 101.293 37.5517 101.269 37.5261C101.259 37.5114 101.237 37.5007 101.223 37.4924C101.222 37.4894 101.258 37.4744 101.258 37.4534C101.249 37.4267 101.208 37.5104 101.214 37.5724C101.212 37.6024 101.227 37.6341 101.209 37.6281C101.201 37.6217 101.161 37.6324 101.166 37.6351C101.16 37.6481 101.178 37.6307 101.189 37.6284L101.35 37.7494Z" fill="#13355A"/>
<path d="M82.5202 40.5088C82.8245 40.0172 83.0865 39.4962 83.3508 38.9692L84.1678 37.4102C84.7088 36.3682 85.2832 35.3438 85.8482 34.3092C87.0195 32.2672 88.2665 30.2398 89.7825 28.3962C91.2858 26.5532 93.0388 24.8612 95.1102 23.6422C97.1692 22.4088 99.5295 21.7152 101.896 21.5798L101.923 21.8798C99.6162 22.2502 97.4298 23.0832 95.5528 24.3618C93.6682 25.6352 92.1058 27.3235 90.7662 29.1722C90.1032 30.1038 89.4568 31.0525 88.8465 32.0332C88.2245 33.0055 87.5978 33.9838 86.9912 34.9822C86.3588 35.9652 85.7222 36.9545 85.0185 37.9085C84.6732 38.3892 84.3055 38.8578 83.9282 39.3195C83.5428 39.7695 83.1618 40.2465 82.6782 40.6342L82.5202 40.5088Z" fill="#13355A"/>
<path d="M101.943 17.1525L103.68 15.7839L103.898 15.6132L104.13 15.4622L104.594 15.1599L105.524 14.5539C106.799 13.8045 108.132 13.1402 109.526 12.6205C112.306 11.5642 115.292 11.0595 118.272 11.0432C121.255 11.0555 124.224 11.5812 127.049 12.5062C129.877 13.4322 132.569 14.7532 135.037 16.4005C140.005 19.6622 144.069 24.2259 146.854 29.4392C147.547 30.7442 148.174 32.0885 148.689 33.4755C149.203 34.8619 149.626 36.2766 149.99 37.7036C150.718 40.5589 151.2 43.4602 151.672 46.3542L151.375 46.4049C150.807 43.5279 150.206 40.6586 149.42 37.8535C149.023 36.4525 148.568 35.0709 148.029 33.7282C147.489 32.3872 146.843 31.0929 146.13 29.8342C144.703 27.3202 142.962 24.9922 140.986 22.8999C139.006 20.8112 136.79 18.9562 134.35 17.4485C131.923 15.9295 129.335 14.6712 126.623 13.8069C123.919 12.9289 121.099 12.4032 118.263 12.3699C115.428 12.3012 112.589 12.7149 109.854 13.5425C108.48 13.9465 107.153 14.5069 105.856 15.1402L104.891 15.6362L104.406 15.8852L104.163 16.0099L103.932 16.1545C103.322 16.5472 102.7 16.9299 102.069 17.3092L101.943 17.1525Z" fill="#13355A"/>
<path d="M91.43 55.1409C91.553 59.2655 92.169 63.3659 93.2723 67.3272C93.8243 69.3075 94.498 71.2525 95.289 73.1472C95.6817 74.0959 96.1153 75.0265 96.563 75.9492C97.0393 76.8582 97.532 77.7565 98.063 78.6305C99.104 80.3899 100.269 82.0692 101.578 83.6232C102.891 85.1719 104.361 86.5952 106.032 87.7515C107.696 88.9132 109.537 89.8252 111.485 90.4292C112.458 90.7349 113.456 90.9629 114.468 91.1155C115.479 91.2752 116.501 91.3725 117.529 91.4089L117.527 91.7102C113.369 91.9712 109.059 90.9132 105.435 88.6335C103.626 87.4955 101.979 86.0935 100.557 84.5025C99.1233 82.9182 97.9403 81.1329 96.9383 79.2759C96.44 78.3442 96.0057 77.3825 95.6177 76.4059C95.1867 75.4502 94.7713 74.4882 94.398 73.5095C93.6423 71.5565 93.0203 69.5552 92.5293 67.5255C92.0263 65.4985 91.692 63.4342 91.4717 61.3652C91.252 59.2959 91.1613 57.2152 91.2277 55.1425L91.43 55.1409Z" fill="#13355A"/>
<path d="M91.4753 102.451C94.0739 100.812 96.8846 99.5215 99.7766 98.4611C100.508 98.2025 101.225 97.9681 101.958 97.7238C102.325 97.6031 102.702 97.4861 103.117 97.3991C103.227 97.3821 103.333 97.3618 103.447 97.3498C103.572 97.3482 103.685 97.3335 103.82 97.3485C104.082 97.3725 104.395 97.4815 104.606 97.6845C104.724 97.7772 104.785 97.8851 104.872 97.9885C104.938 98.0915 104.989 98.1935 105.047 98.2968C105.135 98.4968 105.217 98.6965 105.275 98.8878C105.403 99.2751 105.495 99.6498 105.591 100.025L106.153 102.238C106.93 105.181 107.841 108.09 108.87 110.959C109.901 113.827 111.064 116.649 112.288 119.447L112.015 119.575C110.56 116.877 109.277 114.087 108.092 111.252C106.905 108.417 105.861 105.517 104.946 102.573C104.72 101.837 104.491 101.098 104.294 100.356C104.195 99.9985 104.096 99.6358 103.983 99.3222C103.93 99.1562 103.868 99.0251 103.812 98.8991C103.782 98.8561 103.755 98.8021 103.732 98.7655C103.721 98.7575 103.712 98.7488 103.705 98.7388C103.697 98.7275 103.69 98.7138 103.69 98.7245C103.689 98.7282 103.692 98.7291 103.696 98.7265C103.699 98.7251 103.699 98.7388 103.704 98.7385C103.726 98.7338 103.695 98.7478 103.687 98.7375C103.669 98.7305 103.606 98.7411 103.568 98.7355L103.373 98.7618C103.078 98.8188 102.731 98.9151 102.375 99.0275L100.209 99.7158C98.7716 100.162 97.3459 100.653 95.9106 101.143C94.4809 101.647 93.0376 102.142 91.5703 102.63L91.4753 102.451Z" fill="#13355A"/>
<path d="M90.6557 109.205C91.1804 113.839 91.468 118.491 91.7344 123.142L92.023 130.124C92.1117 132.451 92.2017 134.778 92.2527 137.107C92.423 141.771 92.267 146.443 92.1987 151.09C92.1414 155.736 92.2064 160.397 92.9174 164.99L92.6204 165.04C91.6804 160.453 91.4764 155.749 91.374 151.088C91.275 146.416 91.3027 141.782 91.001 137.149C90.8647 134.825 90.7674 132.5 90.656 130.176C90.5594 127.851 90.4954 125.525 90.4097 123.2C90.3567 120.874 90.2967 118.548 90.3154 116.218L90.3357 112.722L90.3864 110.971C90.3967 110.388 90.4217 109.803 90.455 109.218L90.6557 109.205Z" fill="#13355A"/>
<path d="M84.2723 136.09C84.9527 136.049 85.591 136.152 86.2183 136.292C86.5283 136.374 86.8403 136.45 87.1477 136.543C87.453 136.641 87.7593 136.737 88.06 136.85L89.8714 137.512C90.4737 137.737 91.079 137.952 91.673 138.206L91.5884 138.495C90.9264 138.473 90.275 138.415 89.6337 138.323L87.7077 138.053C87.0623 137.974 86.4387 137.821 85.845 137.566C85.548 137.439 85.2594 137.284 84.9867 137.074C84.712 136.87 84.4483 136.63 84.2153 136.284L84.2723 136.09Z" fill="#13355A"/>
<path d="M148.095 124.492C148.328 127.075 148.142 129.674 147.873 132.241C147.712 133.522 147.542 134.802 147.342 136.075C147.133 137.346 146.927 138.615 146.702 139.88C146.266 142.412 145.86 144.944 145.599 147.491C145.339 150.038 145.248 152.601 145.402 155.16L145.102 155.187C144.694 152.626 144.663 150.013 144.771 147.422C144.875 144.827 145.158 142.248 145.464 139.687C145.609 138.405 145.795 137.132 145.972 135.862L146.558 132.071C146.662 131.442 146.753 130.812 146.867 130.183C146.972 129.555 147.062 128.925 147.19 128.296C147.284 127.666 147.4 127.035 147.523 126.402C147.647 125.769 147.734 125.132 147.893 124.491L148.095 124.492Z" fill="#13355A"/>
<path d="M148.07 131.605C148.159 131.971 148.314 132.351 148.452 132.721L148.895 133.832L149.814 136.044C150.431 137.517 151.076 138.98 151.686 140.457L153.529 144.884L154.435 147.107L154.874 148.228L155.084 148.799L155.183 149.095L155.229 149.258C155.236 149.288 155.243 149.317 155.25 149.359C155.253 149.376 155.257 149.406 155.258 149.437C155.257 149.468 155.26 149.477 155.252 149.525C155.247 149.556 155.237 149.587 155.225 149.616C155.212 149.66 155.124 149.767 155.049 149.794L154.767 149.171C156.265 148.463 157.594 147.417 158.81 146.251C160.034 145.089 161.165 143.814 162.355 142.573C162.95 141.952 163.563 141.34 164.209 140.755C164.856 140.177 165.502 139.636 166.123 139.064C166.744 138.493 167.344 137.904 167.888 137.278C168.433 136.654 168.927 135.987 169.273 135.276C169.618 134.57 169.777 133.801 169.535 133.152C169.429 132.859 169.169 132.457 168.969 132.091L168.335 130.976L165.831 126.497C164.178 123.502 162.55 120.492 160.972 117.455C159.397 114.417 157.858 111.361 156.367 108.28C155.618 106.742 154.888 105.194 154.163 103.644C153.793 102.867 153.48 102.081 152.981 101.498C152.501 100.909 151.778 100.603 150.977 100.428C150.179 100.257 149.311 100.144 148.474 100.001L145.943 99.5912L140.882 98.7682L130.761 97.1225L131.085 96.9115C130.408 99.2995 129.318 101.548 127.968 103.602C126.63 105.666 125.095 107.587 123.481 109.426C121.871 111.271 120.186 113.042 118.532 114.834L113.581 120.233L113.358 120.031L118.207 114.539C119.83 112.71 121.478 110.911 123.053 109.058C124.631 107.207 126.12 105.285 127.403 103.241C128.698 101.208 129.718 99.0085 130.333 96.7135L130.446 96.2919L130.882 96.3562L141.026 97.8552L146.099 98.6049L148.634 98.9822L149.902 99.1712C150.322 99.2342 150.757 99.2942 151.208 99.3905C151.657 99.4859 152.125 99.6199 152.582 99.8425C153.039 100.058 153.481 100.4 153.812 100.786C154.482 101.568 154.808 102.422 155.182 103.166C155.923 104.702 156.67 106.235 157.436 107.759C158.959 110.811 160.531 113.838 162.137 116.847C163.737 119.86 165.361 122.86 167.026 125.838L169.527 130.303L170.156 131.417L170.47 131.974C170.558 132.13 170.724 132.417 170.815 132.691C171.018 133.247 171.051 133.853 170.968 134.391C170.886 134.934 170.706 135.42 170.493 135.863C168.657 139.301 165.501 141.059 163.256 143.451C162.061 144.645 160.892 145.911 159.595 147.092C158.309 148.275 156.866 149.376 155.196 150.123L154.617 148.843C154.541 148.876 154.462 148.93 154.398 148.998C154.34 149.052 154.274 149.178 154.273 149.186C154.25 149.236 154.232 149.292 154.223 149.347L154.217 149.395L154.215 149.42L154.214 149.469C154.215 149.495 154.218 149.516 154.218 149.516C154.221 149.527 154.218 149.513 154.215 149.501L154.188 149.393L154.11 149.131L153.928 148.579L153.532 147.459L152.704 145.216L151.011 140.732C150.437 139.24 149.906 137.73 149.36 136.226L148.561 133.96C148.43 133.582 148.309 133.2 148.188 132.817C148.072 132.429 147.945 132.057 147.87 131.64L148.07 131.605Z" fill="#13355A"/>
<path d="M99.1952 172.436C100.415 172.834 101.731 172.737 102.942 172.381C104.161 172.019 105.307 171.449 106.39 170.761C107.484 170.085 108.536 169.316 109.685 168.66C110.257 168.33 110.851 168.025 111.473 167.768C112.095 167.521 112.732 167.281 113.462 167.211C114.191 167.13 114.978 167.34 115.582 167.721C116.199 168.095 116.697 168.575 117.152 169.049C117.609 169.527 118.036 169.994 118.502 170.385C118.978 170.772 119.489 171.12 120.038 171.402C120.59 171.676 121.165 171.907 121.761 172.064C122.358 172.212 122.968 172.312 123.581 172.329C124.193 172.339 124.804 172.286 125.398 172.152C125.987 172.006 126.554 171.785 127.083 171.494L127.276 171.388L127.477 171.464C127.57 171.5 127.675 171.538 127.728 171.549C127.742 171.554 127.761 171.545 127.674 171.56C127.588 171.585 127.55 171.641 127.567 171.621C127.599 171.578 127.679 171.447 127.758 171.344C127.837 171.237 127.934 171.132 128.02 171.043C128.308 170.751 128.574 170.395 128.888 170.037C129.047 169.859 129.218 169.68 129.412 169.514C129.608 169.339 129.829 169.217 130.039 169.093L130.359 168.906L130.697 168.765L131.036 168.626C131.149 168.581 131.267 168.558 131.382 168.523C132.309 168.256 133.257 168.165 134.183 168.172C135.112 168.176 136.03 168.251 136.936 168.36C138.747 168.574 140.529 168.941 142.29 169.078L147.698 169.386C151.306 169.594 154.911 169.801 158.519 169.87C162.127 169.948 165.738 169.876 169.333 169.575L169.362 169.875C167.563 170.085 165.756 170.239 163.947 170.346C162.137 170.46 160.324 170.482 158.512 170.498C154.887 170.52 151.267 170.403 147.653 170.287L142.225 170.111C140.344 170.001 138.575 169.672 136.805 169.504C135.924 169.417 135.049 169.367 134.192 169.382C133.334 169.392 132.498 169.5 131.745 169.737C131.651 169.768 131.551 169.788 131.463 169.827L131.2 169.944L130.936 170.058L130.701 170.207L130.464 170.353C130.387 170.401 130.334 170.451 130.267 170.507C130.141 170.621 130.014 170.758 129.883 170.912C129.619 171.217 129.341 171.597 128.971 171.98C128.908 172.049 128.87 172.09 128.827 172.15L128.632 172.434C128.622 172.45 128.583 172.496 128.556 172.526L128.511 172.575C128.491 172.595 128.463 172.619 128.438 172.64C128.35 172.72 128.186 172.812 128.043 172.851C127.715 172.932 127.582 172.879 127.447 172.863C127.227 172.812 127.119 172.765 126.989 172.719L127.752 172.662C127.108 173.024 126.418 173.297 125.707 173.476C124.994 173.643 124.265 173.711 123.542 173.702C122.818 173.687 122.106 173.562 121.412 173.386C120.719 173.201 120.055 172.931 119.417 172.609C118.782 172.28 118.189 171.873 117.636 171.416C117.077 170.942 116.621 170.431 116.189 169.977C115.753 169.522 115.339 169.103 114.904 168.826C114.466 168.544 114.053 168.421 113.561 168.451C113.068 168.478 112.481 168.663 111.912 168.865C111.343 169.073 110.782 169.333 110.226 169.625C109.119 170.217 108.003 170.885 106.84 171.518C105.673 172.143 104.427 172.721 103.091 172.963C101.772 173.218 100.341 173.196 99.1255 172.625L99.1952 172.436Z" fill="#13355A"/>
<path d="M131.817 163.251C135.071 162.275 138.368 161.484 141.661 160.681C144.964 159.915 148.265 159.162 151.591 158.479C154.918 157.802 158.281 157.184 161.694 156.992C165.095 156.794 168.565 157.011 171.837 158.015L171.755 158.305C168.462 157.558 165.082 157.475 161.753 157.822C158.42 158.167 155.135 158.901 151.857 159.703C150.221 160.117 148.57 160.508 146.921 160.9C145.269 161.279 143.609 161.621 141.952 161.976C140.288 162.302 138.621 162.614 136.94 162.863C135.263 163.127 133.57 163.322 131.861 163.448L131.817 163.251Z" fill="#13355A"/>
<path d="M170.365 135.59C171.161 137.256 171.897 138.926 172.582 140.649C172.903 141.518 173.21 142.398 173.457 143.301C173.577 143.752 173.682 144.212 173.779 144.667L174.063 146.003C174.463 147.781 174.96 149.543 175.493 151.297L177.149 156.555L176.865 156.654C176.106 154.974 175.36 153.288 174.692 151.564C174.019 149.842 173.387 148.094 172.847 146.304C172.715 145.855 172.576 145.407 172.47 144.951C172.362 144.516 172.25 144.094 172.12 143.668C171.867 142.818 171.608 141.961 171.333 141.097C171.072 140.229 170.798 139.352 170.592 138.444C170.379 137.54 170.206 136.612 170.173 135.653L170.365 135.59Z" fill="#13355A"/>
<path d="M156.473 148.724C157.009 149.297 157.41 149.936 157.776 150.592C157.948 150.925 158.126 151.255 158.288 151.594C158.444 151.935 158.604 152.274 158.746 152.622L159.619 154.699C159.905 155.393 160.201 156.083 160.461 156.791L160.19 156.923C159.713 156.321 159.27 155.703 158.859 155.069L157.62 153.171C157.196 152.543 156.842 151.881 156.583 151.174C156.451 150.821 156.356 150.45 156.298 150.061C156.24 149.672 156.216 149.267 156.292 148.813L156.473 148.724Z" fill="#13355A"/>
<path d="M99.8086 169.003C100.635 167.861 101.667 166.913 102.696 165.98C103.733 165.053 104.827 164.197 105.926 163.348C108.155 161.694 110.46 160.134 112.938 158.832C113.558 158.508 114.191 158.203 114.851 157.936C115.179 157.801 115.519 157.682 115.871 157.582C116.047 157.532 116.231 157.493 116.419 157.459L116.71 157.424C116.806 157.417 116.894 157.423 116.987 157.422L117.535 157.425L118.076 157.489L118.346 157.523L118.609 157.582L119.135 157.703C119.819 157.91 120.49 158.152 121.12 158.462C122.395 159.057 123.573 159.789 124.773 160.461C125.97 161.135 127.187 161.772 128.499 162.131L128.431 162.424C127.048 162.156 125.722 161.62 124.486 160.992C123.238 160.38 122.025 159.718 120.779 159.22C120.16 158.957 119.527 158.772 118.898 158.618L118.425 158.538L118.189 158.498L117.953 158.483L117.484 158.452L117.021 158.474C116.945 158.478 116.863 158.477 116.794 158.486L116.601 158.521C116.466 158.554 116.324 158.591 116.179 158.64C115.888 158.74 115.591 158.86 115.295 158.999C114.703 159.274 114.114 159.593 113.533 159.934C112.377 160.627 111.225 161.352 110.097 162.117C108.961 162.869 107.822 163.626 106.709 164.419L103.322 166.742L101.63 167.911C101.053 168.29 100.512 168.703 99.9656 169.13L99.8086 169.003Z" fill="#13355A"/>
<path d="M87.9754 106.351C86.929 108.232 85.788 110.034 84.7077 111.876L83.8797 113.246C83.6054 113.703 83.344 114.169 83.0634 114.622L81.4354 117.381C80.3584 119.226 79.3214 121.096 78.2964 122.975L75.2527 128.634L74.9834 128.499C75.7974 126.511 76.6397 124.535 77.546 122.587C78.4467 120.637 79.3727 118.695 80.342 116.769C80.5904 116.291 80.8237 115.804 81.0857 115.333L81.87 113.918C82.4127 112.985 82.9987 112.078 83.584 111.172C83.8984 110.732 84.1997 110.284 84.5244 109.851C84.8597 109.426 85.18 108.991 85.535 108.58C85.883 108.165 86.249 107.762 86.6197 107.365C87.0054 106.978 87.389 106.59 87.8114 106.233L87.9754 106.351Z" fill="#13355A"/>
</g>
<defs>
<clipPath id="clip0">
<rect width="200" height="200" fill="white"/>
</clipPath>
</defs>
</svg>
