<svg width="200" height="200" viewBox="0 0 200 200" fill="none" xmlns="http://www.w3.org/2000/svg">
<g clip-path="url(#clip0)">
<path d="M3.56045 69.3226C9.75578 48.8189 22.9744 30.0536 41.0964 17.6649C50.0838 11.4096 60.1471 6.61489 70.7711 3.59156C81.4201 0.688559 92.5804 -0.512108 103.63 0.318559C114.68 1.05756 125.642 3.52923 135.967 7.71923C146.29 11.9452 155.713 18.1936 164.003 25.6062C172.215 33.0856 179.531 41.7372 184.724 51.6216C189.988 61.4382 193.657 72.0759 195.533 83.0099C197.517 93.9466 197.245 105.173 195.512 116.05C193.712 126.921 190.307 137.586 184.953 147.204C174.417 166.43 157.906 182.492 137.841 191.254C127.891 195.711 117.253 198.583 106.427 199.671C101 199.932 95.5708 200.277 90.1531 199.882C84.7421 199.451 79.3658 198.67 74.0878 197.436C52.9665 192.468 33.7638 180.264 20.2664 163.489C19.8051 162.915 19.8961 162.076 20.4694 161.614C21.0304 161.163 21.8454 161.24 22.3121 161.779L22.3231 161.792C36.0388 177.644 54.9581 188.645 75.1748 192.636C80.2291 193.626 85.3488 194.18 90.4721 194.406C95.6068 194.596 100.716 194.068 105.798 193.654C115.927 192.261 125.744 189.209 134.817 184.745C153.071 175.932 167.813 160.649 176.449 142.782C180.879 133.872 183.468 124.162 184.577 114.414C185.585 104.659 185.302 94.7176 183.026 85.2636C180.92 75.7979 177.463 66.6902 172.589 58.3952C167.662 50.1469 161.634 42.5596 154.503 36.1402C147.385 29.7046 139.233 24.4839 130.532 20.3959C121.749 16.4572 112.32 14.0362 102.685 12.9536C93.0358 11.7119 83.1438 12.3292 73.5558 14.3746C63.9178 16.2899 54.5174 19.8476 45.8631 24.8912C37.1964 29.9329 29.3818 36.4879 22.3781 43.9672C15.4285 51.5226 9.76878 60.3462 5.25045 69.9022L5.22145 69.9622C5.01145 70.4079 4.47812 70.5986 4.03345 70.3876C3.62812 70.1962 3.43478 69.7389 3.56045 69.3226Z" fill="#F4B935"/>
<path d="M156.431 194.412C166.482 195.834 165.779 189.431 167.375 181.68C169.429 171.713 189.546 79.7265 192.425 66.1495C193.869 59.3415 198.755 44.8115 194.964 38.1978C193.771 36.1215 188.979 34.6638 186.304 33.6582C179.678 31.1668 141.061 20.8165 128.211 19.2595C119.506 18.2048 117.007 26.5702 115.01 33.4648C112.136 43.3818 105.495 80.7008 102.871 88.5615C100.665 95.1695 87.4282 160.513 85.6705 167.59C85.2465 169.297 84.8252 171.112 85.3692 172.785C87.9292 180.653 98.7695 181.342 105.287 183.332C115.632 186.49 126.075 189.379 136.708 191.402C143.411 192.676 149.862 193.482 156.431 194.412Z" fill="#29568A" stroke="#A8A491" stroke-miterlimit="10"/>
<g opacity="0.8">
<path opacity="0.8" d="M126.346 47.0824L124.333 46.5874C122.164 46.0538 120.838 43.8628 121.371 41.6938L124.272 29.8994C124.806 27.7301 126.997 26.4041 129.166 26.9378L131.179 27.4328C133.348 27.9664 134.674 30.1574 134.14 32.3264L131.239 44.1208C130.706 46.2901 128.515 47.6161 126.346 47.0824Z" fill="#FBF9F0"/>
</g>
<g opacity="0.8">
<g opacity="0.8">
<path opacity="0.8" d="M146.732 118.042C163.444 118.042 176.992 104.494 176.992 87.7819C176.992 71.0699 163.444 57.5222 146.732 57.5222C130.02 57.5222 116.473 71.0699 116.473 87.7819C116.473 104.494 130.02 118.042 146.732 118.042Z" fill="white"/>
</g>
<g opacity="0.8">
<path opacity="0.8" d="M139.117 111.902C125.817 107.702 118.413 93.4658 122.613 80.1658C126.812 66.8658 141.049 59.4621 154.349 63.6618C167.649 67.8615 175.053 82.0985 170.853 95.3985C166.653 108.698 152.417 116.102 139.117 111.902ZM153.747 65.5691C141.499 61.7015 128.387 68.5198 124.52 80.7681C120.652 93.0165 127.471 106.127 139.719 109.995C151.967 113.863 165.078 107.044 168.946 94.7961C172.814 82.5478 165.995 69.4365 153.747 65.5691Z" fill="#13355A"/>
</g>
<g opacity="0.8">
<path opacity="0.8" d="M140.325 108.117C134.878 106.397 130.435 102.677 127.814 97.6408C125.192 92.6048 124.693 86.8315 126.407 81.3842C128.119 75.9478 131.845 71.5048 136.9 68.8742C141.954 66.2428 147.73 65.7388 153.164 67.4548C157.611 68.8588 161.389 71.6018 164.09 75.3862C166.407 78.6322 167.809 82.6128 168.037 86.5955C168.055 86.9048 167.928 87.2048 167.694 87.4082C167.46 87.6112 167.145 87.6945 166.841 87.6328C164.544 87.1702 162.23 88.4902 161.458 90.7028C161.033 91.9205 161.117 93.2242 161.693 94.3748C162.302 95.5898 163.384 96.4712 164.697 96.8208C164.994 96.8992 165.241 97.1142 165.361 97.3992C165.481 97.6842 165.462 98.0092 165.31 98.2785C163.061 102.265 159.502 105.476 155.289 107.321C150.565 109.39 145.25 109.673 140.325 108.117ZM152.562 69.3618C147.638 67.8068 142.404 68.2638 137.823 70.6478C133.243 73.0322 129.866 77.0582 128.315 81.9845C126.761 86.9228 127.213 92.1552 129.588 96.7175C131.963 101.28 135.99 104.651 140.927 106.21C145.391 107.619 150.206 107.363 154.487 105.489C157.945 103.974 160.917 101.444 162.961 98.2982C161.642 97.6575 160.576 96.6082 159.906 95.2708C159.085 93.6328 158.966 91.7765 159.57 90.0438C160.524 87.3115 163.129 85.5355 165.937 85.5415C165.55 82.3282 164.337 79.1732 162.463 76.5485C160.016 73.1192 156.592 70.6342 152.562 69.3618Z" fill="#13355A"/>
</g>
<g opacity="0.8">
<path opacity="0.8" d="M141.485 104.443C137.019 103.033 133.378 99.9856 131.231 95.8616C129.084 91.738 128.676 87.0073 130.083 82.5406C131.485 78.0866 134.537 74.4466 138.679 72.2913C142.819 70.1356 147.552 69.7226 152.004 71.1286C155.648 72.2793 158.743 74.5253 160.954 77.624C162.111 79.2453 162.981 81.0586 163.54 83.0143C163.684 83.517 163.416 84.0456 162.926 84.2269C160.526 85.1153 158.665 87.0126 157.821 89.4326C157.05 91.6423 157.202 94.0103 158.249 96.1009C158.625 96.8513 159.107 97.5409 159.682 98.1513C160.04 98.5313 160.045 99.1223 159.694 99.5086C158.043 101.329 155.985 102.81 153.743 103.791C149.873 105.486 145.52 105.717 141.485 104.443ZM151.402 73.036C147.459 71.791 143.269 72.1566 139.602 74.0653C135.935 75.9743 133.232 79.1976 131.99 83.1413C130.744 87.0983 131.105 91.2879 133.005 94.9379C134.905 98.5879 138.13 101.286 142.087 102.536C145.66 103.664 149.515 103.459 152.941 101.959C154.659 101.206 156.256 100.123 157.603 98.7993C157.163 98.2393 156.781 97.6356 156.461 96.9966C155.169 94.4186 154.981 91.4983 155.932 88.7733C156.868 86.091 158.817 83.9286 161.352 82.7223C160.862 81.3066 160.183 79.9856 159.326 78.786C157.369 76.0433 154.629 74.055 151.402 73.036Z" fill="#13355A"/>
</g>
<g opacity="0.8">
<path opacity="0.8" d="M142.645 100.769C139.161 99.6687 136.321 97.294 134.649 94.0824C132.977 90.8707 132.661 87.1827 133.758 83.698C134.851 80.2263 137.23 77.3893 140.458 75.7093C143.685 74.029 147.374 73.707 150.844 74.803C153.684 75.7 156.096 77.4493 157.818 79.8623C158.105 80.264 158.372 80.6867 158.613 81.1187C158.855 81.552 158.742 82.0977 158.348 82.3997C156.424 83.8737 154.984 85.8667 154.183 88.1633C153.075 91.3363 153.283 94.7414 154.766 97.7507C154.986 98.1967 154.845 98.736 154.436 99.0174C153.73 99.5017 152.978 99.92 152.198 100.262C149.183 101.581 145.79 101.762 142.645 100.769ZM150.242 76.7097C147.282 75.775 144.135 76.0493 141.381 77.4827C138.628 78.916 136.598 81.3367 135.666 84.298C134.729 87.2737 134.998 90.4204 136.423 93.1587C137.849 95.8967 140.272 97.922 143.247 98.8614C145.93 99.7084 148.824 99.5553 151.396 98.429C151.807 98.249 152.21 98.0434 152.6 97.8154C151.222 94.5297 151.109 90.902 152.295 87.5037C153.126 85.1227 154.549 83.0223 156.435 81.3807C156.355 81.26 156.274 81.1407 156.19 81.0237C154.722 78.9663 152.665 77.475 150.242 76.7097Z" fill="#13355A"/>
</g>
<g opacity="0.8">
<path opacity="0.8" d="M152.416 95.6673C152.29 95.7293 151.372 96.3667 150.489 96.6893C148.271 97.4997 145.891 97.766 143.633 97.053C141.127 96.262 139.087 94.5577 137.889 92.2543C136.69 89.952 136.464 87.3037 137.253 84.7977C138.037 82.3053 139.745 80.2687 142.062 79.063C144.379 77.856 147.027 77.6253 149.519 78.412C150.903 78.8493 152.146 79.569 153.188 80.5277C153.844 81.1313 153.893 82.1433 153.322 82.8277C153.314 82.8367 153.307 82.846 153.299 82.855C152.68 83.6003 151.578 83.6703 150.862 83.018C150.167 82.386 149.32 81.8977 148.355 81.616C145.086 80.6633 141.603 82.492 140.531 85.723C139.408 89.1037 141.272 92.7373 144.657 93.806C146.555 94.4053 148.808 94.1873 150.444 93.1763C152.081 92.165 152.068 92.1737 152.081 92.165C152.183 93.3453 152.011 94.535 152.416 95.6673Z" fill="#13355A"/>
</g>
<g opacity="0.8">
<path opacity="0.8" d="M165.076 94.3563C166.33 94.3563 167.346 93.3399 167.346 92.086C167.346 90.8321 166.33 89.8157 165.076 89.8157C163.822 89.8157 162.806 90.8321 162.806 92.086C162.806 93.3399 163.822 94.3563 165.076 94.3563Z" fill="#13355A"/>
</g>
<g opacity="0.8">
<path opacity="0.8" d="M153.263 80.7111L151.97 82.2369L164.455 92.8201L165.748 91.2942L153.263 80.7111Z" fill="#13355A"/>
</g>
<g opacity="0.8">
<path opacity="0.8" d="M144.837 86.4541C144.369 86.3064 144.07 85.8331 144.153 85.3354C144.244 84.7907 144.76 84.4231 145.305 84.5144L148.858 85.1104C149.404 85.2047 149.771 85.7174 149.679 86.2621C149.588 86.8067 149.072 87.1744 148.528 87.0831L144.974 86.4871C144.927 86.4791 144.881 86.4681 144.837 86.4541Z" fill="#13355A"/>
</g>
<g opacity="0.8">
<path opacity="0.8" d="M146.315 88.529C145.848 88.3814 145.548 87.908 145.631 87.4107L146.227 83.857C146.319 83.3124 146.834 82.9447 147.379 83.036C147.925 83.129 148.291 83.6434 148.2 84.1877L147.604 87.7414C147.513 88.286 146.997 88.6537 146.452 88.5624C146.405 88.554 146.359 88.543 146.315 88.529Z" fill="#13355A"/>
</g>
<g opacity="0.8">
<path opacity="0.8" d="M142.696 90.8466C142.681 90.8256 142.675 90.8026 142.679 90.778L143.035 88.5846C143.039 88.5596 143.052 88.5396 143.073 88.525C143.094 88.5093 143.117 88.504 143.142 88.5083L143.678 88.5953C143.742 88.6053 143.784 88.639 143.805 88.6956L144.226 89.7293L144.376 88.8026C144.38 88.7776 144.393 88.7576 144.414 88.743C144.435 88.727 144.458 88.722 144.483 88.726L145.098 88.826C145.122 88.83 145.142 88.8423 145.158 88.864C145.173 88.8843 145.178 88.9073 145.174 88.9323L144.818 91.1256C144.814 91.1503 144.801 91.1706 144.78 91.1853C144.759 91.2006 144.736 91.2063 144.711 91.2023L144.175 91.115C144.136 91.109 144.108 91.096 144.09 91.077C144.073 91.0576 144.059 91.037 144.048 91.0146L143.615 90.0556L143.477 90.9076C143.473 90.9323 143.46 90.9526 143.439 90.9676C143.418 90.983 143.395 90.9886 143.371 90.9846L142.756 90.8846C142.731 90.8803 142.711 90.8673 142.696 90.8466Z" fill="#13355A"/>
<path opacity="0.8" d="M145.208 91.2541C145.193 91.2337 145.188 91.2104 145.192 91.1857L145.548 88.9924C145.552 88.9674 145.565 88.9474 145.586 88.9327C145.607 88.9167 145.63 88.9117 145.655 88.9157L147.366 89.1941C147.391 89.1981 147.411 89.2104 147.426 89.2317C147.441 89.2524 147.447 89.2754 147.443 89.3004L147.359 89.8167C147.355 89.8414 147.343 89.8614 147.321 89.8764C147.3 89.8914 147.277 89.8974 147.253 89.8934L146.281 89.7357L146.241 89.9871L147.144 90.1341C147.169 90.1377 147.189 90.1504 147.204 90.1714C147.219 90.1924 147.225 90.2154 147.221 90.2401L147.138 90.7527C147.134 90.7774 147.121 90.7974 147.1 90.8131C147.079 90.8281 147.056 90.8334 147.031 90.8297L146.128 90.6827L146.024 91.3211C146.02 91.3457 146.007 91.3661 145.986 91.3807C145.965 91.3961 145.942 91.4017 145.918 91.3977L145.269 91.2927C145.244 91.2881 145.224 91.2754 145.208 91.2541Z" fill="#13355A"/>
<path opacity="0.8" d="M147.646 91.4819C147.469 91.2985 147.399 91.0499 147.436 90.7352C147.444 90.6739 147.459 90.5739 147.481 90.4359C147.504 90.2952 147.522 90.1939 147.534 90.1309C147.597 89.8299 147.744 89.6185 147.975 89.4965C148.206 89.3752 148.489 89.3415 148.821 89.3952C149.025 89.4285 149.207 89.4899 149.368 89.5785C149.529 89.6672 149.653 89.7855 149.739 89.9329C149.825 90.0805 149.854 90.2532 149.824 90.4502C149.821 90.4705 149.81 90.4872 149.793 90.4992C149.776 90.5115 149.758 90.5162 149.737 90.5129L149.044 90.4002C149.008 90.3942 148.983 90.3832 148.968 90.3672C148.953 90.3502 148.942 90.3219 148.935 90.2812C148.921 90.2089 148.896 90.1562 148.859 90.1225C148.823 90.0889 148.773 90.0665 148.709 90.0565C148.63 90.0435 148.566 90.0545 148.516 90.0892C148.466 90.1242 148.432 90.1909 148.414 90.2902C148.401 90.3512 148.385 90.4449 148.364 90.5715C148.344 90.6985 148.329 90.7945 148.321 90.8609C148.307 90.9602 148.318 91.0349 148.354 91.0842C148.391 91.1329 148.448 91.1635 148.528 91.1769C148.656 91.1975 148.751 91.1505 148.812 91.0345C148.829 90.9979 148.848 90.9745 148.867 90.9632C148.886 90.9529 148.915 90.9502 148.954 90.9565L149.646 91.0692C149.667 91.0725 149.683 91.0829 149.695 91.0999C149.708 91.1175 149.712 91.1355 149.709 91.1562C149.675 91.3525 149.593 91.5072 149.465 91.6199C149.336 91.7329 149.181 91.8059 149 91.8392C148.819 91.8729 148.627 91.8729 148.423 91.8395C148.082 91.7849 147.823 91.6652 147.646 91.4819Z" fill="#13355A"/>
</g>
</g>
<path d="M128.783 36.0551C130.546 36.0551 131.975 34.626 131.975 32.8631C131.975 31.1002 130.546 29.6711 128.783 29.6711C127.02 29.6711 125.591 31.1002 125.591 32.8631C125.591 34.626 127.02 36.0551 128.783 36.0551Z" fill="#29568A"/>
<path d="M126.809 42.6683C127.549 42.6683 128.149 42.0683 128.149 41.3283C128.149 40.5882 127.549 39.9883 126.809 39.9883C126.068 39.9883 125.469 40.5882 125.469 41.3283C125.469 42.0683 126.068 42.6683 126.809 42.6683Z" fill="#29568A"/>
<path d="M24.9009 154.937C54.5419 154.378 97.3399 129.927 110.653 125.493C115.498 123.879 119.693 122.564 118.945 116.348C118.193 110.092 113.445 102.518 111.106 96.6273C108.346 89.6747 105.063 66.4343 95.7499 65.179C93.2372 64.8403 86.7523 68.839 84.2933 69.8153C73.4562 74.1183 63.6456 80.739 52.5939 84.536C42.5409 87.9896 32.9939 91.6867 22.7523 94.9577C16.9639 96.8063 5.84792 100.629 5.14925 107.914C4.58492 113.797 10.3449 122.831 12.4809 128.21C14.1486 132.41 15.8166 136.61 17.4839 140.81C18.8149 144.162 19.8353 151.374 22.7579 153.721C23.4126 154.247 24.0779 154.953 24.9009 154.937Z" fill="#FBF9F0"/>
<path d="M13.8635 112.996C14.6265 115.539 17.4439 116.313 19.5072 114.657C21.0859 113.39 22.2155 108.528 19.1225 108.41C15.9752 108.29 15.8215 111.493 17.0955 113.551C18.8272 116.348 22.3715 116.185 24.9992 114.874C27.2672 113.742 31.4229 110.308 28.5725 107.622C27.7485 106.845 26.2082 107.097 25.2205 107.444C23.5855 108.019 22.4979 109.778 22.0275 111.367C21.1755 114.243 22.2145 118.024 24.7439 119.787C26.6115 121.089 30.7845 120.648 30.3549 117.601C30.1865 116.408 29.1645 115.393 27.9579 115.285C26.3229 115.139 25.0112 116.552 24.3782 117.908C23.0502 120.752 25.1942 124.384 28.5465 123.247C29.2315 123.014 28.4829 122.056 27.9182 122.247C24.3039 123.473 24.5162 117.7 27.1082 116.624C29.4762 115.641 29.6775 118.458 27.9995 119.248C26.5385 119.935 25.1212 119.15 24.2539 117.943C23.1129 116.354 22.6312 114.277 23.0342 112.359C23.2472 111.344 23.7125 110.328 24.3939 109.541C24.9889 108.854 26.7619 107.688 27.7465 108.284C28.4919 108.735 28.3102 110.187 27.9259 110.792C27.6555 111.217 27.2872 111.598 26.9395 111.957C26.1689 112.753 25.2922 113.388 24.3052 113.889C22.3425 114.886 19.4565 115.432 18.0752 113.225C17.6609 112.563 17.1992 111.392 17.4832 110.602C17.8182 109.67 18.5112 109.557 19.2262 109.936C20.0155 110.354 19.9569 110.811 19.8135 111.668C19.4362 113.924 15.9075 116.059 14.9702 112.934C14.7949 112.348 13.6392 112.248 13.8635 112.996Z" fill="#F37059"/>
<path d="M113.977 124.365C114.857 123.917 115.716 123.425 116.512 122.852C117.303 122.28 118.051 121.62 118.552 120.805C118.796 120.397 118.971 119.953 119.029 119.493C119.08 119.027 118.991 118.575 118.837 118.123L117.834 115.325C116.504 111.592 115.141 107.87 113.751 104.158C110.978 96.7308 108.123 89.3338 105.405 81.8754C104.069 78.1384 102.807 74.3848 101.27 70.7531C100.886 69.8458 100.487 68.9451 100.063 68.0581C99.8538 67.6128 99.6348 67.1731 99.4118 66.7354C99.1914 66.2911 98.9748 65.8828 98.6984 65.5581C98.4231 65.2304 98.1105 65.0361 97.7661 65.0274C97.4148 65.0118 96.9405 65.1781 96.4691 65.3238C95.5294 65.6058 94.6018 65.9291 93.6785 66.2661C89.9888 67.6334 86.4514 69.4094 82.8908 71.1541C81.1108 72.0291 79.3221 72.8974 77.5011 73.7054L76.1301 74.3014L74.7464 74.8714C73.8124 75.2308 72.8811 75.5851 71.9571 75.9261C64.5508 78.7078 57.3321 82.0044 49.9508 84.9361C46.2614 86.4108 42.5221 87.7494 38.7744 89.0504C35.0251 90.3498 31.2604 91.5988 27.4954 92.8428C25.6084 93.4668 23.7304 94.0618 21.9118 94.8244C20.0858 95.5714 18.2991 96.4208 16.5148 97.2818C14.7298 98.1411 12.9481 99.0188 11.1261 99.8178C10.2151 100.217 9.29811 100.605 8.36511 100.954C7.90245 101.138 7.42911 101.296 6.96011 101.463C6.49211 101.627 5.98178 101.791 5.43045 101.776C5.16111 101.774 4.84645 101.67 4.80545 101.726C4.69311 101.778 4.52811 102.01 4.40011 102.198C4.27011 102.392 4.11845 102.615 4.01878 102.805C3.91745 103.006 3.83511 103.219 3.79578 103.445C3.62278 104.356 3.88678 105.327 4.18945 106.249L6.12278 111.871L9.99345 123.119L9.70878 123.218L5.71778 112.012L3.72245 106.406C3.56045 105.93 3.40778 105.444 3.31411 104.933C3.21878 104.425 3.18011 103.885 3.28078 103.345C3.32578 103.074 3.42245 102.809 3.54611 102.56L3.64678 102.376L3.74711 102.215C3.81311 102.108 3.88078 102.001 3.95345 101.894C4.02145 101.787 4.10311 101.679 4.18411 101.57C4.28145 101.462 4.36145 101.34 4.56445 101.233C4.65078 101.181 4.80078 101.153 4.88811 101.16C4.94211 101.159 4.98711 101.163 5.01978 101.169L5.12445 101.185C5.24845 101.206 5.34311 101.217 5.44978 101.22C5.87111 101.227 6.31378 101.091 6.77278 100.923C7.23411 100.752 7.69878 100.592 8.15411 100.405C9.07178 100.05 9.97545 99.6561 10.8741 99.2508C12.6718 98.4394 14.4374 97.5464 16.2158 96.6664C17.9934 95.7854 19.7831 94.9108 21.6251 94.1338C22.0851 93.9388 22.5464 93.7461 23.0144 93.5681C23.4784 93.3808 23.9501 93.2114 24.4224 93.0434C25.3651 92.7074 26.2994 92.3971 27.2384 92.0728C34.7361 89.5011 42.2374 86.9274 49.5594 83.9578C56.8841 80.9774 64.0764 77.6188 71.5134 74.7534L72.9064 74.2194L74.2711 73.6841L75.6245 73.1131L76.9691 72.5151C78.7554 71.6981 80.5271 70.8314 82.3061 69.9614C85.8611 68.2194 89.4358 66.4211 93.2154 65.0188C94.1614 64.6731 95.1141 64.3411 96.0825 64.0501C96.3291 63.9748 96.5498 63.8991 96.8274 63.8268C97.1028 63.7558 97.4288 63.6848 97.8114 63.6968C98.1988 63.7048 98.6035 63.8311 98.9261 64.0214C99.2548 64.2111 99.5051 64.4531 99.7111 64.6941C100.119 65.1764 100.376 65.6901 100.597 66.1291C100.826 66.5781 101.05 67.0291 101.264 67.4844C101.699 68.3921 102.106 69.3101 102.496 70.2331C104.055 73.9274 105.338 77.7004 106.653 81.4304C107.952 85.1658 109.294 88.8978 110.64 92.6251C111.98 96.3554 113.357 100.075 114.646 103.828C115.949 107.575 117.237 111.329 118.47 115.102L119.369 117.94C119.522 118.441 119.614 119.01 119.531 119.554C119.443 120.099 119.22 120.6 118.934 121.041C118.345 121.919 117.539 122.569 116.705 123.125C115.862 123.676 114.972 124.133 114.066 124.545L113.977 124.365Z" fill="#13355A"/>
<path d="M14.4623 131.607L16.8209 137.831L19.1313 144.073C19.9073 146.152 20.6523 148.241 21.4096 150.326L21.9759 151.891C22.1689 152.409 22.3439 152.949 22.5513 153.417C22.7619 153.885 23.0323 154.312 23.3836 154.522C23.7246 154.745 24.1563 154.735 24.6549 154.614C25.1469 154.487 25.7033 154.311 26.2279 154.16L27.823 153.69L31.0103 152.74L37.3743 150.805C41.6123 149.499 45.8386 148.157 50.0656 146.816C58.515 144.119 66.924 141.296 75.2973 138.367C83.669 135.434 91.998 132.378 100.281 129.199L100.391 129.48C92.187 132.87 83.9 136.058 75.5746 139.144C67.25 142.233 58.872 145.181 50.452 148.008C46.2453 149.431 42.0146 150.784 37.777 152.112C35.6596 152.782 33.5273 153.403 31.4 154.039L28.2043 154.978L26.605 155.443L25.8053 155.675C25.5416 155.751 25.273 155.835 24.9533 155.904C24.6383 155.972 24.2823 156.027 23.8823 156.001C23.4833 155.979 23.0443 155.842 22.6983 155.612C22.3459 155.385 22.0773 155.091 21.8786 154.799C21.6773 154.505 21.5303 154.209 21.4066 153.921C21.1636 153.333 21.0156 152.82 20.8319 152.295L20.3009 150.718C19.5989 148.613 18.8683 146.518 18.2073 144.399L16.1839 138.056C15.5469 135.928 14.8753 133.813 14.2703 131.673L14.4623 131.607Z" fill="#13355A"/>
<path d="M35.9663 111.071C36.5316 111.584 37.263 111.873 38.0073 111.924C38.754 111.98 39.5063 111.825 40.2053 111.553C41.6093 111.009 42.8486 110.041 43.7266 108.831C44.6213 107.596 45.3463 106.223 46.17 104.874C46.9913 103.531 47.955 102.191 49.3153 101.211C49.6606 100.969 50.0473 100.76 50.4806 100.625C50.6973 100.559 50.926 100.514 51.161 100.5C51.398 100.479 51.631 100.523 51.8633 100.553C52.3166 100.66 52.7376 100.855 53.088 101.104C53.4386 101.351 53.7543 101.625 54.0396 101.903C54.6176 102.457 55.1366 103.022 55.7163 103.408C56.0063 103.591 56.305 103.711 56.607 103.762C56.9103 103.783 57.2283 103.764 57.5006 103.624C58.0606 103.373 58.4956 102.766 58.875 102.126C59.2583 101.476 59.598 100.764 60.0513 100.074C60.2776 99.7294 60.541 99.3894 60.8693 99.0888C61.1946 98.7884 61.604 98.5371 62.0563 98.4138C62.51 98.2768 62.9783 98.2898 63.3926 98.3388C63.811 98.3888 64.1953 98.4801 64.5616 98.5301C67.502 98.9798 70.669 97.8494 72.662 95.6078C73.677 94.4754 74.53 93.1508 75.623 91.9751C76.1713 91.3931 76.7836 90.8301 77.5423 90.4548C77.7393 90.3771 77.9266 90.2768 78.1323 90.2211C78.3406 90.1754 78.541 90.0928 78.757 90.0868C78.97 90.0678 79.1826 90.0351 79.3946 90.0631C79.606 90.0781 79.8206 90.0854 80.0256 90.1358C80.4346 90.2251 80.8066 90.3611 81.1666 90.4564C81.525 90.5554 81.8723 90.5954 82.239 90.5804C82.9696 90.5508 83.703 90.3204 84.4406 90.0794L88.8923 88.6228L97.7956 85.7091L97.8916 85.9948C94.955 87.0584 92.0263 88.1458 89.08 89.1811L84.6656 90.7501C83.9283 91.0094 83.148 91.2871 82.2763 91.3461C81.8476 91.3774 81.378 91.3321 80.9686 91.2278C80.5596 91.1284 80.195 91.0071 79.858 90.9444C79.194 90.8391 78.535 90.9264 77.9393 91.2458C77.341 91.5598 76.809 92.0624 76.3173 92.6144C75.329 93.7304 74.5146 95.0648 73.449 96.3078C71.2596 98.8611 67.77 100.21 64.3813 99.7708C63.9553 99.7191 63.579 99.6394 63.2476 99.6091C62.9146 99.5784 62.644 99.5871 62.4193 99.6658C61.9586 99.7981 61.546 100.228 61.1646 100.812C60.7846 101.396 60.4553 102.093 60.0396 102.813C59.83 103.174 59.5933 103.546 59.2863 103.909C58.9836 104.269 58.5843 104.629 58.0733 104.868C57.561 105.119 56.991 105.18 56.434 105.127C55.8766 105.042 55.3806 104.821 54.972 104.558C54.1803 104.02 53.6363 103.393 53.103 102.885C52.5756 102.363 52.0556 101.972 51.5903 101.87C51.354 101.827 51.1336 101.824 50.872 101.906C50.6133 101.981 50.3403 102.127 50.0656 102.306C49.513 102.686 48.9786 103.173 48.5086 103.719C48.031 104.264 47.608 104.879 47.1813 105.51C46.3303 106.772 45.5586 108.172 44.5043 109.425C43.4313 110.719 42.014 111.698 40.429 112.189C39.6323 112.416 38.7826 112.511 37.9573 112.371C37.5453 112.307 37.1473 112.164 36.7796 111.977C36.5986 111.878 36.4356 111.747 36.267 111.635C36.1143 111.499 35.971 111.355 35.8263 111.217L35.9663 111.071Z" fill="#13355A"/>
<path d="M86.0303 105.502C86.2973 105.835 86.5353 106.185 86.788 106.527L87.4973 107.579C87.7356 107.929 87.9466 108.294 88.1726 108.651C88.393 109.011 88.6223 109.365 88.835 109.73L88.242 109.54C88.9276 109.215 89.6066 108.875 90.2983 108.561L92.3363 107.643C92.3896 107.615 92.412 107.592 92.4103 107.597C92.4073 107.602 92.4103 107.625 92.4123 107.59C92.4193 107.533 92.3456 107.326 92.286 107.15L91.9233 106.074L91.203 103.92L91.604 104.106L89.2006 104.871C88.4013 105.131 87.594 105.369 86.7897 105.615L86.69 105.33C87.4573 104.978 88.2203 104.614 88.9946 104.283L90.1526 103.776L91.318 103.289L91.7873 103.093L92.0116 103.611L92.923 105.714L93.3786 106.768L93.4936 107.038C93.5346 107.146 93.5903 107.289 93.6136 107.502C93.6423 107.706 93.596 108.031 93.4386 108.269C93.287 108.507 93.107 108.634 92.974 108.721C92.8356 108.809 92.733 108.858 92.6566 108.901L92.406 109.036C92.239 109.128 92.072 109.218 91.9013 109.301L90.8836 109.813C90.206 110.156 89.509 110.457 88.8106 110.756L88.0316 111.089L87.667 110.391C87.472 110.017 87.296 109.632 87.1096 109.253C86.9423 108.863 86.764 108.479 86.6133 108.08L86.3866 107.481L86.1817 106.87C86.0593 106.455 85.9326 106.042 85.8546 105.601L86.0303 105.502Z" fill="#13355A"/>
<path d="M92.8061 122.809C93.1238 122.478 93.5034 122.221 93.8574 121.956L94.9531 121.201C95.3198 120.952 95.6981 120.723 96.0704 120.483C96.4461 120.25 96.8128 120.001 97.1958 119.78L97.0074 120.365L96.2594 118.739L95.5457 117.098L95.3724 116.685L95.2857 116.479C95.2708 116.442 95.2624 116.427 95.2724 116.442C95.2798 116.455 95.3284 116.506 95.3791 116.525C95.4914 116.563 95.4988 116.53 95.4598 116.545L95.2568 116.606L94.8251 116.733C94.2554 116.899 93.7008 117.073 93.1731 117.293C92.6541 117.518 92.1441 117.781 91.7954 118.159C91.7164 118.255 91.6304 118.351 91.5818 118.46C91.5514 118.513 91.5208 118.572 91.5171 118.59C91.5081 118.63 91.5034 118.682 91.5031 118.741C91.5101 118.984 91.5798 119.268 91.6614 119.541C91.8291 120.093 92.0568 120.642 92.2924 121.185L92.6581 121.998L92.8441 122.407L92.9358 122.615L92.9804 122.723L93.0024 122.785L93.0144 122.83C93.0164 122.846 93.0174 122.828 93.0201 122.872C93.0234 122.921 92.9914 122.984 92.9591 123.009L92.8061 122.809ZM92.7758 122.769C92.7444 122.785 92.7131 122.838 92.7174 122.878C92.7211 122.913 92.7168 122.886 92.7168 122.893C92.7144 122.89 92.7148 122.891 92.7121 122.885L92.6911 122.844L92.6394 122.751L92.5281 122.56L92.2974 122.177L91.8368 121.401C91.5318 120.878 91.2494 120.343 91.0078 119.761C90.8908 119.464 90.7748 119.17 90.7261 118.78L90.7178 118.62C90.7204 118.559 90.7238 118.499 90.7321 118.435C90.7458 118.37 90.7681 118.272 90.7861 118.235L90.8431 118.098C90.9148 117.909 91.0254 117.753 91.1341 117.599C91.5991 117.008 92.1781 116.651 92.7458 116.348C93.3174 116.055 93.9018 115.821 94.4648 115.607L94.8781 115.447L94.9771 115.408C95.0118 115.394 95.0321 115.384 95.1078 115.359C95.1764 115.337 95.2634 115.311 95.3898 115.299C95.5128 115.289 95.6914 115.293 95.8871 115.377C96.0814 115.454 96.2534 115.628 96.3261 115.742C96.4048 115.86 96.4321 115.931 96.4481 115.958L96.5511 116.157L96.7568 116.555L97.5331 118.168C97.7758 118.713 98.0141 119.26 98.2364 119.814L98.5391 120.569L97.8728 120.944C97.4874 121.16 97.0831 121.345 96.6894 121.548C96.2884 121.738 95.8834 121.921 95.4714 122.092L94.8484 122.341L94.2121 122.566L92.9288 122.969L92.7758 122.769Z" fill="#13355A"/>
<path d="M100.836 105.218C100.952 105.257 101.122 105.124 101.317 105.034C101.507 104.936 101.701 104.846 101.895 104.761C102.287 104.6 102.68 104.461 103.052 104.303C103.423 104.139 103.785 103.989 104.105 103.785C104.265 103.687 104.425 103.568 104.603 103.445C104.692 103.384 104.784 103.321 104.883 103.261L105.036 103.172L105.117 103.13L105.158 103.109L105.178 103.099C105.137 103.113 105.064 103.158 105.023 103.211C105.001 103.238 104.983 103.267 104.971 103.296C104.956 103.332 104.96 103.317 104.955 103.331C104.948 103.344 104.944 103.359 104.94 103.374C104.937 103.389 104.936 103.405 104.935 103.418L104.934 103.419C104.932 103.422 104.935 103.425 104.931 103.404C104.928 103.38 104.917 103.336 104.909 103.297C104.887 103.212 104.862 103.121 104.832 103.028C104.773 102.841 104.706 102.65 104.636 102.46L104.194 101.311C103.898 100.543 103.584 99.7715 103.28 99.0098L103.877 99.2201C103.443 99.4185 103.057 99.5305 102.66 99.6618C102.265 99.7875 101.876 99.9095 101.493 100.04C101.109 100.172 100.73 100.307 100.371 100.466C100.019 100.623 99.6553 100.814 99.4563 101.037C99.4223 101.064 99.4196 101.09 99.4043 101.113C99.3913 101.138 99.3696 101.156 99.3626 101.196C99.3426 101.267 99.3306 101.346 99.3283 101.43C99.3239 101.6 99.3506 101.786 99.3929 101.975C99.4846 102.355 99.6006 102.756 99.7349 103.129C99.8709 103.507 100.032 103.877 100.217 104.235C100.31 104.414 100.407 104.591 100.514 104.756C100.567 104.839 100.623 104.918 100.684 104.994C100.744 105.07 100.809 105.144 100.86 105.175L100.836 105.218ZM100.715 105.438C100.583 105.371 100.507 105.287 100.428 105.212C100.351 105.134 100.278 105.051 100.21 104.967C100.072 104.798 99.9509 104.624 99.8332 104.449C99.5982 104.096 99.3846 103.726 99.1982 103.341C99.1069 103.148 99.0216 102.952 98.9426 102.753C98.8662 102.559 98.7879 102.365 98.7176 102.149C98.6486 101.934 98.5879 101.702 98.5706 101.436C98.5626 101.303 98.5683 101.16 98.5973 101.01C98.6243 100.87 98.7189 100.654 98.8049 100.542L98.9456 100.365C98.9939 100.307 99.0409 100.272 99.0892 100.225C99.1866 100.131 99.2839 100.056 99.3806 99.9885C99.4783 99.9138 99.5753 99.8511 99.6723 99.7928C99.7696 99.7308 99.8669 99.6718 99.9639 99.6208C100.352 99.4021 100.742 99.2215 101.131 99.0555C101.519 98.8875 101.907 98.7305 102.285 98.5758C102.653 98.4231 103.055 98.2588 103.305 98.1111L104.006 97.6971L104.423 98.5045C104.815 99.2645 105.149 100.022 105.482 100.802C105.655 101.188 105.79 101.59 105.937 101.997C106.008 102.202 106.07 102.412 106.132 102.636C106.163 102.747 106.192 102.866 106.22 102.997C106.234 103.071 106.248 103.135 106.259 103.24C106.265 103.275 106.271 103.357 106.269 103.438L106.268 103.496C106.264 103.541 106.258 103.591 106.248 103.638C106.238 103.685 106.225 103.732 106.209 103.777L106.197 103.811L106.191 103.827L106.171 103.871C106.14 103.933 106.1 103.996 106.051 104.055C105.959 104.172 105.809 104.273 105.715 104.313L105.703 104.318L105.678 104.326L105.628 104.345L105.522 104.391C105.448 104.425 105.369 104.466 105.284 104.513C105.113 104.602 104.925 104.726 104.697 104.826C104.249 105.026 103.804 105.167 103.367 105.241C102.933 105.328 102.511 105.363 102.1 105.407C101.892 105.421 101.689 105.447 101.483 105.466L101.149 105.502C101.035 105.51 100.844 105.501 100.739 105.395L100.715 105.438Z" fill="#13355A"/>
<path d="M93.8959 103.552C94.0089 103.67 94.0915 103.799 94.1905 103.922C94.2779 104.049 94.3629 104.177 94.4385 104.309C94.5959 104.57 94.7252 104.841 94.8495 105.114L94.2722 104.842C94.5715 104.731 94.8648 104.604 95.1695 104.509C95.4725 104.409 95.7785 104.318 96.0878 104.237C96.7035 104.064 97.3205 103.896 97.9395 103.734L98.2415 103.654L98.3088 103.912L98.5002 104.645C98.5638 104.889 98.6125 105.138 98.6695 105.384L98.3848 105.483C98.2338 105.269 98.0935 105.051 97.9595 104.831C97.8305 104.609 97.6928 104.391 97.5712 104.167L98.1972 104.47L96.4908 105.389C96.2069 105.543 95.9239 105.7 95.6262 105.815C95.3319 105.939 95.0228 106.022 94.7115 106.098L93.7755 106.325L93.6009 105.574C93.5325 105.281 93.4932 104.976 93.5072 104.652C93.5072 104.493 93.5289 104.326 93.5542 104.157C93.5909 103.984 93.6255 103.812 93.7065 103.622L93.8959 103.552Z" fill="#13355A"/>
<path d="M89.9535 111.843C90.1955 112.098 90.3835 112.367 90.5415 112.645C90.7062 112.921 90.8278 113.211 90.9528 113.5C91.0212 113.642 91.0719 113.791 91.1275 113.939C91.1855 114.085 91.2382 114.234 91.2875 114.384C91.3898 114.683 91.4978 114.981 91.6095 115.277L91.1842 115.088C91.4992 115.027 91.8132 114.956 92.1259 114.875L93.0668 114.622L93.1879 114.898C92.9325 115.138 92.6542 115.342 92.3659 115.532C92.0782 115.724 91.7725 115.879 91.4658 116.041L91.1005 116.233L90.7128 115.705C90.5162 115.437 90.3239 115.165 90.1349 114.889C89.9375 114.617 89.7785 114.326 89.6665 114.016C89.5562 113.706 89.4695 113.385 89.4705 113.036C89.4845 112.683 89.5299 112.32 89.7619 111.906L89.9535 111.843Z" fill="#13355A"/>
<path d="M92.5301 111.828C92.8518 111.488 93.2114 111.254 93.5911 111.059C93.7848 110.972 93.9764 110.879 94.1741 110.8C94.3744 110.728 94.5731 110.651 94.7791 110.591L96.0051 110.207C96.4138 110.08 96.8228 109.943 97.2314 109.831L97.3668 110.101C97.2048 110.274 97.0398 110.429 96.8658 110.571C96.6944 110.716 96.5214 110.858 96.3404 110.982L95.2621 111.747C94.9051 112.011 94.5158 112.202 94.0834 112.292C93.8678 112.337 93.6388 112.353 93.3894 112.314C93.1414 112.28 92.8771 112.215 92.5821 112.023L92.5301 111.828Z" fill="#13355A"/>
<path d="M95.1075 113.707C95.4961 113.391 95.8761 113.143 96.2768 112.91C96.4785 112.795 96.6871 112.684 96.9055 112.586C97.1215 112.484 97.3415 112.384 97.5705 112.308L97.3108 112.933C97.1675 112.593 97.0651 112.241 96.9671 111.894C96.8705 111.546 96.7815 111.2 96.7005 110.855C96.6178 110.51 96.5361 110.168 96.4461 109.83C96.3511 109.493 96.2661 109.154 96.1645 108.818L96.4405 108.697C96.6785 108.984 96.8838 109.294 97.0688 109.611C97.2645 109.924 97.4185 110.252 97.5831 110.57C97.7458 110.889 97.9058 111.203 98.0715 111.506C98.2348 111.809 98.4175 112.095 98.5691 112.382L98.9788 113.156L98.0688 113.588C97.8678 113.684 97.6641 113.768 97.4525 113.845C97.2385 113.916 97.0218 113.997 96.7781 114.042C96.5381 114.095 96.2728 114.109 96.0065 114.101C95.7335 114.078 95.4595 114.034 95.1688 113.899L95.1075 113.707Z" fill="#13355A"/>
<path d="M99.7674 107.582C99.9434 107.806 100.093 108.042 100.255 108.272C100.335 108.388 100.404 108.509 100.479 108.627C100.549 108.744 100.633 108.863 100.703 109.039C100.774 109.208 100.807 109.46 100.727 109.681C100.648 109.905 100.493 110.077 100.341 110.192C100.033 110.423 99.7164 110.506 99.4137 110.581L99.756 109.993C99.901 110.342 100.088 110.741 100.265 111.131C100.352 111.322 100.452 111.546 100.515 111.746C100.534 111.819 100.572 111.829 100.493 111.771C100.455 111.746 100.39 111.738 100.372 111.742C100.351 111.745 100.366 111.746 100.397 111.734C101.17 111.439 101.995 111.149 102.791 110.857L105.204 109.99C106.009 109.702 106.811 109.409 107.624 109.143L107.528 109.349L107.456 109.071L107.742 108.978L107.867 109.24L107.93 109.373L107.757 109.473C107.011 109.906 106.252 110.306 105.491 110.704L103.194 111.856L102.044 112.431L101.47 112.719C101.374 112.766 101.279 112.816 101.182 112.86L101.036 112.928C100.983 112.953 100.954 112.969 100.867 113.005C100.782 113.038 100.659 113.087 100.464 113.105C100.273 113.128 99.9871 113.077 99.7811 112.947C99.5691 112.819 99.4457 112.659 99.3687 112.539C99.2907 112.415 99.2504 112.317 99.2177 112.236L98.9934 111.684C98.9107 111.495 98.8294 111.298 98.7524 111.093C98.675 110.884 98.5884 110.687 98.5194 110.423L98.2307 109.321L99.1767 109.294C99.3887 109.288 99.5797 109.226 99.6704 109.221C99.7144 109.215 99.708 109.236 99.713 109.285C99.712 109.328 99.7677 109.377 99.7794 109.315C99.7957 109.26 99.7627 109.131 99.7367 108.983C99.7121 108.841 99.6807 108.702 99.6614 108.558C99.6217 108.269 99.5851 107.979 99.5857 107.67L99.7674 107.582Z" fill="#13355A"/>
<path d="M103.016 108.992C102.901 108.884 102.812 108.766 102.718 108.651C102.629 108.533 102.553 108.412 102.477 108.29C102.337 108.042 102.207 107.79 102.111 107.527L101.957 107.105L102.408 106.93C103.034 106.686 103.695 106.547 104.341 106.346C104.665 106.252 104.99 106.153 105.312 106.048L105.796 105.886L106.287 105.737L106.416 106.01C106.289 106.141 106.152 106.254 106.018 106.375L105.597 106.704C105.312 106.916 105.013 107.102 104.715 107.295C104.415 107.484 104.111 107.669 103.803 107.849C103.494 108.027 103.165 108.155 102.82 108.231L103.397 107.071C103.431 107.207 103.464 107.345 103.479 107.488C103.496 107.631 103.499 107.779 103.491 107.93C103.473 108.085 103.456 108.24 103.411 108.405C103.366 108.57 103.312 108.738 103.206 108.924L103.016 108.992Z" fill="#13355A"/>
<path d="M104.956 107.027C105.215 107.063 105.329 107.15 105.41 107.249C105.486 107.349 105.511 107.468 105.513 107.595L105.521 107.975C105.526 108.101 105.511 108.234 105.485 108.37L105.201 108.471C105.004 108.413 104.85 108.341 104.715 108.261L104.333 108.014C104.193 107.936 104.126 107.832 104.158 107.693C104.174 107.624 104.219 107.544 104.316 107.446C104.408 107.35 104.535 107.241 104.766 107.095L104.956 107.027Z" fill="#13355A"/>
<path d="M97.4296 115.587C97.8292 115.334 98.2379 115.107 98.6549 114.901C99.0679 114.685 99.4879 114.487 99.9126 114.301L100.232 114.165C100.341 114.12 100.478 114.056 100.673 114.031C100.77 114.019 100.888 114.02 101.014 114.053C101.138 114.083 101.267 114.156 101.355 114.237C101.533 114.403 101.595 114.558 101.65 114.655C101.87 115.063 102.081 115.475 102.28 115.893C102.324 115.989 102.366 116.047 102.363 116.042C102.361 116.041 102.338 116.026 102.316 116.023C102.294 116.019 102.29 116.025 102.308 116.024C102.339 116.026 102.454 115.988 102.566 115.953L102.898 115.849L104.223 115.432L106.878 114.611L107.139 114.53L107.221 114.769L107.608 115.904L107.973 117.048L107.692 117.156L107.106 116.098L106.553 115.027L107.117 115.287C106.274 115.68 105.424 116.054 104.578 116.438L103.308 117.009L102.99 117.152L102.821 117.227C102.75 117.256 102.655 117.292 102.524 117.319C102.393 117.345 102.216 117.364 102.01 117.319C101.804 117.275 101.607 117.165 101.477 117.052C101.216 116.82 101.132 116.626 101.061 116.514L100.731 115.903L100.423 115.281C100.378 115.168 100.349 115.153 100.443 115.242C100.489 115.284 100.586 115.337 100.662 115.353C100.741 115.371 100.796 115.364 100.815 115.36C100.896 115.314 100.552 115.411 100.352 115.467C99.4472 115.69 98.5172 115.847 97.5009 115.776L97.4296 115.587Z" fill="#13355A"/>
<path d="M99.1995 117.44C99.3608 117.431 99.4982 117.485 99.6058 117.552C99.7175 117.618 99.7979 117.704 99.8685 117.792C100.005 117.971 100.071 118.171 100.111 118.373L100.223 118.963C100.263 119.15 100.287 119.345 100.327 119.495L100.114 119.709C99.9635 119.672 99.8338 119.6 99.7302 119.527C99.6222 119.454 99.5222 119.38 99.4365 119.301C99.2699 119.143 99.1122 118.989 98.9522 118.851C98.7822 118.718 98.6882 118.569 98.6872 118.4C98.6859 118.315 98.7125 118.222 98.7805 118.098C98.8405 117.975 98.9372 117.843 99.0612 117.588L99.1995 117.44Z" fill="#13355A"/>
<path d="M104.063 116.022C104.179 116.132 104.282 116.24 104.377 116.347C104.471 116.454 104.561 116.558 104.643 116.664C104.816 116.871 104.96 117.086 105.121 117.289L105.493 117.759L104.918 118.008C104.656 118.122 104.386 118.214 104.111 118.295L103.287 118.54L102.459 118.776C102.185 118.859 101.906 118.928 101.623 118.99L101.51 118.71C101.732 118.496 101.964 118.311 102.2 118.132C102.433 117.948 102.679 117.796 102.919 117.627L103.642 117.133C103.88 116.96 104.131 116.819 104.399 116.722L104.006 118.115C103.904 117.98 103.832 117.826 103.758 117.676C103.692 117.521 103.646 117.356 103.623 117.184C103.613 117.098 103.609 117.01 103.615 116.919C103.617 116.83 103.622 116.741 103.644 116.647C103.677 116.465 103.744 116.276 103.871 116.083L104.063 116.022Z" fill="#13355A"/>
<path d="M103.712 113.538C104.029 113.155 104.405 112.91 104.796 112.7C104.996 112.607 105.193 112.508 105.398 112.425C105.605 112.348 105.81 112.267 106.023 112.204C106.445 112.07 106.867 111.934 107.292 111.807C107.717 111.68 108.138 111.542 108.574 111.442L108.691 111.72C108.348 112.042 107.991 112.331 107.619 112.586L106.508 113.359C106.142 113.627 105.747 113.824 105.31 113.924C105.092 113.974 104.862 113.996 104.61 113.966C104.361 113.943 104.097 113.884 103.79 113.724L103.712 113.538Z" fill="#13355A"/>
<path d="M107.432 115.319C107.589 115.057 107.751 114.938 107.921 114.845C108.09 114.757 108.27 114.712 108.46 114.679C108.649 114.645 108.839 114.6 109.028 114.546C109.215 114.488 109.411 114.438 109.615 114.384L109.784 114.633C109.705 114.889 109.579 115.107 109.43 115.301C109.277 115.486 109.109 115.665 108.929 115.841C108.753 116.026 108.532 116.132 108.284 116.122C108.161 116.117 108.03 116.08 107.891 115.984C107.755 115.893 107.614 115.762 107.466 115.518L107.432 115.319Z" fill="#13355A"/>
<path d="M104.322 113.415C104.564 113.56 104.665 113.673 104.744 113.795C104.818 113.916 104.852 114.044 104.88 114.186C104.909 114.327 104.955 114.47 105.016 114.609C105.08 114.746 105.144 114.893 105.224 115.046L105.037 115.282C104.792 115.301 104.562 115.246 104.354 115.151C104.153 115.05 103.957 114.92 103.769 114.766C103.572 114.617 103.454 114.399 103.466 114.157C103.472 114.036 103.514 113.908 103.618 113.781C103.717 113.656 103.861 113.533 104.121 113.428L104.322 113.415Z" fill="#13355A"/>
<path d="M89.342 106.798C89.382 106.562 89.4247 106.477 89.4731 106.427C89.521 106.381 89.5757 106.388 89.6377 106.416C89.6994 106.444 89.763 106.47 89.8287 106.494C89.8937 106.516 89.9654 106.555 90.0447 106.603L90.1387 106.889C90.1281 107.068 90.0937 107.205 90.0487 107.321C90.0014 107.429 89.9481 107.535 89.8904 107.644C89.8347 107.763 89.7567 107.806 89.6664 107.741C89.6214 107.709 89.5727 107.646 89.5207 107.527C89.4697 107.413 89.4164 107.262 89.3604 106.999L89.342 106.798Z" fill="#13355A"/>
<path d="M101.756 102.409C101.698 102.176 101.714 102.076 101.749 102.007C101.786 101.941 101.849 101.924 101.925 101.927L102.152 101.936C102.226 101.937 102.311 101.955 102.401 101.985L102.55 102.246C102.577 102.423 102.581 102.56 102.575 102.679L102.545 103.016C102.542 103.139 102.5 103.196 102.406 103.16C102.359 103.143 102.297 103.099 102.208 103.007C102.121 102.92 102.016 102.8 101.856 102.584L101.756 102.409Z" fill="#13355A"/>
<path d="M93.7887 119.444C93.7591 119.202 93.7947 119.098 93.8457 119.026C93.8987 118.958 93.9751 118.94 94.0621 118.943L94.3221 118.952C94.4077 118.953 94.5024 118.972 94.6017 119.003L94.731 119.275C94.733 119.458 94.7154 119.6 94.6891 119.725L94.5994 120.074C94.5751 120.203 94.5181 120.262 94.4154 120.225C94.3641 120.207 94.3001 120.162 94.2117 120.065C94.1261 119.975 94.0244 119.85 93.8754 119.626L93.7887 119.444Z" fill="#13355A"/>
<path d="M41.9334 126.112C41.7084 126.127 41.4794 125.994 41.3587 125.812C41.2317 125.63 41.173 125.413 41.1774 125.19C41.1944 124.708 41.5434 124.364 41.872 124.14C42.217 123.915 42.566 123.784 42.9037 123.627C43.2457 123.477 43.5904 123.332 43.938 123.194C45.33 122.643 46.7784 122.239 48.243 121.916C49.7094 121.616 51.217 121.433 52.6984 121.353C54.169 121.267 55.6167 121.169 56.925 120.683C58.2254 120.191 59.4197 119.281 60.7124 118.536C61.9914 117.774 63.2997 117.063 64.6354 116.409C67.3047 115.099 70.0744 113.996 72.9194 113.156L73.012 113.442C70.2614 114.517 67.5744 115.721 65.013 117.15C63.73 117.859 62.4857 118.632 61.2637 119.433C60.6504 119.835 60.0634 120.248 59.438 120.678C58.8124 121.102 58.1414 121.525 57.3824 121.849C55.8557 122.504 54.2537 122.615 52.7884 122.736C52.0497 122.8 51.3407 122.825 50.6267 122.91C49.913 122.987 49.203 123.095 48.4957 123.218C47.0767 123.447 45.6704 123.765 44.2637 124.125L43.2107 124.412C42.8577 124.512 42.4974 124.603 42.218 124.719C41.9364 124.826 41.6927 125.004 41.6304 125.226C41.5944 125.349 41.6004 125.502 41.6494 125.63C41.6917 125.765 41.7854 125.872 41.9347 125.91L41.9334 126.112Z" fill="#13355A"/>
<path d="M44.6554 135.091C46.5138 134.464 48.3828 133.951 50.2288 133.352L51.6171 132.921C52.0781 132.771 52.5354 132.611 52.9988 132.47L54.3781 132.011C54.8338 131.846 55.2944 131.694 55.7524 131.536C57.5811 130.89 59.3855 130.171 61.1645 129.39C62.9431 128.608 64.6871 127.747 66.4165 126.851L66.5655 127.113C64.9461 128.219 63.2638 129.241 61.5228 130.155C59.7844 131.075 58.0061 131.927 56.1934 132.709C54.3821 133.493 52.5154 134.157 50.5968 134.627C50.1134 134.731 49.6341 134.848 49.1491 134.942C48.6598 135.02 48.1751 135.112 47.6824 135.168C47.1908 135.228 46.6944 135.265 46.1991 135.298C45.6991 135.31 45.2011 135.324 44.6954 135.289L44.6554 135.091Z" fill="#13355A"/>
<path d="M102.908 34.9264C101.673 33.7644 100.262 32.8031 98.754 32.0597C97.2517 31.3041 95.6494 30.7561 94.0064 30.4344C90.7277 29.7867 87.2677 29.9864 84.173 31.1971C81.0694 32.3731 78.3477 34.5067 76.3647 37.1737C74.3724 39.8397 73.133 43.0537 72.867 46.3691C72.7347 48.0377 72.7764 49.7774 72.3797 51.5154C72.1747 52.3774 71.854 53.2407 71.339 53.9904C71.0957 54.3721 70.7924 54.7127 70.4777 55.0364C70.1504 55.3487 69.8004 55.6364 69.424 55.8811C67.9074 56.8661 66.164 57.2727 64.4787 57.5684C62.7824 57.8607 61.0884 58.0341 59.4337 58.3607C58.608 58.5264 57.7934 58.7307 57.0077 59.0091C56.225 59.2954 55.4944 59.6804 54.805 60.1431C53.4364 61.0844 52.3487 62.4107 51.5664 63.882C49.9857 66.8171 49.7537 70.5367 51.268 73.5521L51.001 73.6917C50.172 72.1657 49.7824 70.413 49.8017 68.6694L49.8004 68.3417L49.8294 68.0157L49.8884 67.3624C49.9487 66.9304 50.0347 66.5 50.1274 66.0724C50.359 65.229 50.6374 64.3924 51.043 63.6117C51.83 62.0464 52.948 60.6127 54.3964 59.5661C55.1217 59.0527 55.9174 58.6127 56.743 58.2904C57.5704 57.9757 58.4184 57.7431 59.2667 57.5527C60.964 57.1777 62.666 56.9641 64.3104 56.6401C65.9464 56.3167 67.5597 55.8781 68.8404 55.0041C69.1597 54.7871 69.4484 54.5374 69.7177 54.2711C69.974 53.9931 70.2224 53.7071 70.4187 53.3814C70.8337 52.7511 71.088 52.0254 71.255 51.2587C71.58 49.7131 71.5174 48.0291 71.6167 46.2777C71.736 44.5051 72.082 42.7207 72.7194 41.0514C73.3454 39.3767 74.2087 37.7947 75.2667 36.3551C77.392 33.4864 80.336 31.2074 83.7044 29.9547C87.084 28.7284 90.7984 28.5961 94.2124 29.4764C95.9194 29.9161 97.5624 30.5787 99.0694 31.4627C100.558 32.3741 101.935 33.4674 103.05 34.7821L102.908 34.9264Z" fill="#F37059"/>
<path d="M42.4943 66.1992C42.7419 66.2849 42.9889 66.3762 43.2339 66.4732L43.9583 66.7915L44.6579 67.1626L45.3423 67.5652C46.2349 68.1359 47.0663 68.8056 47.8336 69.5422C48.5833 70.2952 49.2896 71.0999 49.8819 71.9862C50.4846 72.8646 50.9986 73.8029 51.4173 74.7806L50.6303 74.8179C51.2903 73.0116 52.2686 71.3339 53.4916 69.8712C54.1023 69.1392 54.7733 68.4596 55.4953 67.8426C56.2143 67.2212 57.001 66.6832 57.818 66.2082L57.9773 66.4639C57.2256 67.0126 56.5423 67.6399 55.8939 68.2879C55.2493 68.9412 54.6699 69.6506 54.1356 70.3842C53.0759 71.8592 52.2713 73.5006 51.7763 75.2126L51.2563 77.0102L50.3139 75.2819L49.9586 74.6306L49.5746 73.9969C49.4363 73.7922 49.3093 73.5812 49.1766 73.3739L48.7546 72.7676C48.1633 71.9806 47.5569 71.2052 46.8806 70.4856C46.7056 70.3119 46.5419 70.1266 46.3726 69.9456L45.8446 69.4226L45.3089 68.9016C45.1229 68.7359 44.9359 68.5706 44.7559 68.3929C44.0083 67.7192 43.2246 67.0709 42.4089 66.3819L42.4943 66.1992Z" fill="#F37059"/>
<path d="M60.2986 153.077C60.3909 154.337 60.7553 155.544 61.3549 156.611C61.6736 157.132 62.0096 157.638 62.4219 158.078C62.8383 158.511 63.3033 158.889 63.8113 159.185C64.3233 159.472 64.8716 159.677 65.4406 159.78C66.0099 159.876 66.6016 159.842 67.1759 159.751C68.3299 159.539 69.4063 158.933 70.3723 158.176C71.3423 157.416 72.2086 156.499 73.0416 155.55L74.2876 154.096C74.7169 153.613 75.1603 153.141 75.6273 152.691C76.5656 151.8 77.5976 150.975 78.7896 150.411C79.3863 150.137 80.0166 149.917 80.6753 149.833C81.3329 149.752 82.0003 149.788 82.6416 149.933L82.5769 150.228C81.9603 150.145 81.3429 150.168 80.7489 150.295C80.1556 150.431 79.5926 150.668 79.0559 150.952C77.9863 151.541 77.0573 152.376 76.2133 153.281C75.7929 153.739 75.3943 154.218 75.0083 154.708C74.6316 155.199 74.2466 155.721 73.8459 156.23C73.0419 157.246 72.1889 158.255 71.1613 159.15C70.1493 160.047 68.8929 160.809 67.4333 161.114C67.2543 161.159 67.0669 161.172 66.8829 161.196L66.6056 161.223L66.3266 161.222C66.1403 161.215 65.9556 161.229 65.7683 161.202L65.2073 161.128C64.4676 160.981 63.7609 160.707 63.1303 160.323C62.5186 159.912 61.9783 159.423 61.5293 158.871C61.0943 158.308 60.7369 157.7 60.4766 157.058C60.2156 156.416 60.0606 155.742 59.9789 155.071C59.9396 154.391 59.9449 153.717 60.0973 153.072L60.2986 153.077Z" fill="#F37059"/>
<path d="M73.3904 147.586L75.8654 147.919L78.3301 148.225C79.1521 148.314 79.9744 148.391 80.7961 148.469C81.6184 148.541 82.4424 148.588 83.2664 148.639L84.2997 148.703L83.5817 149.436C82.7241 150.312 81.9447 151.269 81.2744 152.303C80.6034 153.337 80.0421 154.444 79.5904 155.596C79.1401 156.749 78.8067 157.951 78.6007 159.177C78.4001 160.403 78.3081 161.652 78.3547 162.901L78.0541 162.923C77.8694 161.661 77.8254 160.367 77.9457 159.082C78.0507 157.794 78.3264 156.519 78.7161 155.277C79.1084 154.036 79.6307 152.829 80.2761 151.683C80.9211 150.539 81.6851 149.446 82.6001 148.483L83.2031 150.007C82.3547 149.998 81.5097 149.916 80.6674 149.823C80.2464 149.774 79.8254 149.728 79.4064 149.665C78.9884 149.593 78.5714 149.517 78.1557 149.437C77.7411 149.348 77.3297 149.244 76.9187 149.142C76.5094 149.03 76.1037 148.903 75.6994 148.776C74.8957 148.499 74.1024 148.19 73.3424 147.783L73.3904 147.586Z" fill="#F37059"/>
</g>
<defs>
<clipPath id="clip0">
<rect width="200" height="200" fill="white"/>
</clipPath>
</defs>
</svg>
