<svg width="80" height="81" viewBox="0 0 80 81" fill="none" xmlns="http://www.w3.org/2000/svg">
<g clip-path="url(#clip0)">
<path d="M53.7642 27.1533H26.2081L0.374617 76.2771C-0.729468 78.3771 0.734975 80.9677 3.10745 80.9994C3.12724 80.9999 3.14749 80.9999 3.1682 80.9999H76.8046C76.8248 80.9999 76.8451 80.9999 76.8653 80.9994C79.2378 80.9677 80.7022 78.3771 79.5981 76.2771L53.7642 27.1533Z" fill="#F6BB35"/>
<path d="M10.0831 73.6363L22.4978 51.0852H57.475L69.8892 73.6363H10.0831Z" fill="#13355A"/>
<path d="M29.8614 0H50.1114C52.1447 0 53.7932 1.64853 53.7932 3.68182V27.6136H26.1796V3.68182C26.1796 1.64853 27.8276 0 29.8614 0Z" fill="#F6BB35"/>
<path d="M39.5262 73.6364H10.0716C9.05498 73.6364 8.23071 72.8121 8.23071 71.7955C8.23071 70.7789 9.05498 69.9546 10.0716 69.9546H39.5262C40.5428 69.9546 41.3671 70.7789 41.3671 71.7955C41.3671 72.8121 40.5428 73.6364 39.5262 73.6364Z" fill="white"/>
<path d="M39.9864 46.0226H24.3387C23.322 46.0226 22.4977 45.1984 22.4977 44.1817C22.4977 43.1651 23.322 42.3408 24.3387 42.3408H39.9864C41.003 42.3408 41.8273 43.1651 41.8273 44.1817C41.8273 45.1984 41.003 46.0226 39.9864 46.0226Z" fill="white"/>
<path d="M29.4012 59.8295H18.265C17.2484 59.8295 16.4241 59.0053 16.4241 57.9886C16.4241 56.972 17.2484 56.1477 18.265 56.1477H29.4007C30.4173 56.1477 31.2416 56.972 31.2416 57.9886C31.2416 59.0053 30.4178 59.8295 29.4012 59.8295Z" fill="white"/>
<path d="M30.9637 16.5787C30.4528 15.6154 30.1928 14.6618 30.0183 13.7073C29.8573 12.7418 29.7924 11.8231 29.7652 10.8162C29.7321 9.7696 29.889 8.76079 30.0271 7.78971C30.1693 6.81771 30.3226 5.87608 30.4192 4.94366L30.4818 4.33984L30.9153 4.16772C31.5767 3.90539 32.2689 3.74431 32.961 3.66377C33.6518 3.57172 34.3505 3.6044 35.0238 3.6923V4.52439C34.7182 4.64957 34.425 4.76279 34.1443 4.8981C33.8645 5.03755 33.5948 5.17423 33.3375 5.32289C32.823 5.61789 32.3535 5.94419 31.9334 6.29581L32.7779 4.97496C32.9592 6.00771 33.0586 7.02435 33.2017 7.9853C33.3269 8.9481 33.5382 9.846 33.6008 10.6643C33.6298 10.8507 33.6316 11.1121 33.6307 11.3597C33.6307 11.6078 33.615 11.8567 33.5994 12.1053C33.5607 12.6028 33.4852 13.1012 33.3449 13.6001C33.0508 14.5974 32.5666 15.5965 31.5215 16.575L30.9637 16.5787Z" fill="white"/>
</g>
<defs>
<clipPath id="clip0">
<rect width="79.9723" height="81" fill="white"/>
</clipPath>
</defs>
</svg>
