<svg width="265" height="274" viewBox="0 0 265 274" fill="none" xmlns="http://www.w3.org/2000/svg">
<g clip-path="url(#clip0)">
<path d="M92.9061 152.352C93.9423 154.129 94.1309 156.246 94.2158 158.288C94.7204 170.401 92.3905 182.475 92.4508 194.598C92.4714 198.704 92.7659 202.802 92.9664 206.905C93.5272 218.379 93.3468 229.887 92.4325 241.339C91.8791 248.268 90.4164 255.286 90.4072 262.165C90.4068 262.632 90.3437 263.2 89.9081 263.396C89.593 263.537 89.2263 263.407 88.9062 263.278C87.1334 262.563 86.5516 261.663 86.0419 259.84C85.1359 256.387 85.3474 252.241 85.0355 248.684C84.403 241.464 83.8084 234.241 83.238 227.016C82.1174 212.814 81.0931 198.606 80.0683 184.397C79.7304 179.708 79.392 175.012 79.4609 170.312C79.513 166.795 79.7957 163.285 80.2181 159.793C80.5747 156.843 80.4606 152.213 81.8306 149.551C84.1372 145.071 91.0329 149.14 92.9061 152.352Z" fill="#A47E64"/>
<path opacity="0.2" d="M92.9061 152.352C93.9423 154.129 94.1309 156.246 94.2158 158.288C94.7204 170.401 92.3905 182.475 92.4508 194.598C92.4714 198.704 92.7659 202.802 92.9664 206.905C93.5272 218.379 93.3468 229.887 92.4325 241.339C91.8791 248.268 90.4164 255.286 90.4072 262.165C90.4068 262.632 90.3437 263.2 89.9081 263.396C89.593 263.537 89.2263 263.407 88.9062 263.278C87.1334 262.563 86.5516 261.663 86.0419 259.84C85.1359 256.387 85.3474 252.241 85.0355 248.684C84.403 241.464 83.8084 234.241 83.238 227.016C82.1174 212.814 81.0931 198.606 80.0683 184.397C79.7304 179.708 79.392 175.012 79.4609 170.312C79.513 166.795 79.7957 163.285 80.2181 159.793C80.5747 156.843 80.4606 152.213 81.8306 149.551C84.1372 145.071 91.0329 149.14 92.9061 152.352Z" fill="#454546"/>
<path d="M111.264 190.118C110.971 187.763 110.622 185.417 110.2 183.086C109.795 180.752 109.342 178.428 108.81 176.122C108.274 173.818 107.715 171.52 107.072 169.245C106.761 168.106 106.413 167.003 105.943 165.962C105.473 164.932 104.889 163.945 104.095 163.252C103.701 162.906 103.268 162.628 102.794 162.456C102.558 162.393 102.287 162.296 102.11 162.298C101.918 162.302 101.898 162.311 101.786 162.415C101.681 162.526 101.558 162.734 101.47 162.989L101.329 163.358C101.286 163.483 101.263 163.613 101.228 163.74C101.148 163.992 101.141 164.261 101.097 164.523C101.099 164.789 101.063 165.055 101.098 165.324C101.159 166.4 101.519 167.467 102.049 168.444C102.573 169.427 103.295 170.309 104.108 171.072C107.471 174.079 112.53 175.165 116.809 173.661C118.943 172.922 120.841 171.527 122.299 169.772C123.753 168.013 124.779 165.888 125.21 163.645C125.415 162.527 125.544 161.365 125.3 160.318C125.186 159.796 124.968 159.32 124.64 158.958C124.314 158.594 123.872 158.375 123.38 158.301C122.388 158.174 121.28 158.623 120.551 159.381C119.795 160.159 119.315 161.217 118.974 162.311C118.632 163.411 118.41 164.58 118.16 165.737C117.918 166.896 117.692 168.059 117.476 169.224C117.05 171.553 116.68 173.895 116.367 176.243C115.742 180.941 115.344 185.671 115.175 190.411L114.763 190.399C114.798 185.643 115.03 180.879 115.567 176.142C115.828 173.774 116.146 171.411 116.522 169.055C116.714 167.879 116.914 166.703 117.131 165.53C117.357 164.361 117.55 163.185 117.892 161.983C118.239 160.793 118.737 159.56 119.677 158.542C120.16 158.023 120.747 157.62 121.402 157.348C122.051 157.071 122.788 156.94 123.548 157.019C124.305 157.106 125.084 157.473 125.617 158.052C126.156 158.621 126.473 159.327 126.636 160.002C126.971 161.373 126.825 162.668 126.629 163.909C126.194 166.412 125.104 168.783 123.521 170.772C121.936 172.754 119.83 174.378 117.385 175.277C114.953 176.174 112.276 176.366 109.747 175.851C107.209 175.341 104.827 174.193 102.844 172.455C101.867 171.557 101.026 170.521 100.402 169.338C99.7721 168.164 99.3218 166.849 99.2433 165.437C99.2049 165.088 99.2423 164.728 99.2497 164.374C99.3026 164.019 99.325 163.659 99.4296 163.311C99.4766 163.137 99.5136 162.959 99.5716 162.788L99.7657 162.281C99.8926 161.957 100.063 161.568 100.455 161.142C100.65 160.935 100.938 160.719 101.275 160.596C101.607 160.473 101.927 160.45 102.187 160.461C102.723 160.49 103.025 160.622 103.407 160.728C104.13 160.993 104.782 161.408 105.313 161.901C106.386 162.895 107.021 164.093 107.529 165.263C108.023 166.44 108.382 167.648 108.653 168.817C109.216 171.145 109.741 173.483 110.124 175.846C110.524 178.205 110.859 180.573 111.115 182.947C111.325 185.327 111.511 187.707 111.541 190.092L111.264 190.118Z" fill="#A8A491"/>
<path d="M67.6255 143.045C67.6584 142.745 67.6908 142.423 67.7123 142.082C67.7351 141.715 67.757 141.339 67.6492 140.987C67.4876 140.459 67.0606 140.063 66.6761 139.666C65.1152 138.056 64.6599 135.934 62.7885 134.711C55.8608 130.186 48.9195 125.681 41.9649 121.194C42.17 121.326 42.1718 122.73 42.2056 122.996C42.2937 123.697 42.3755 124.4 42.4513 125.102C42.5969 126.458 42.7198 127.816 42.8189 129.175C43.0038 131.71 43.0221 134.228 43.1545 136.751C43.1545 138.351 43.3235 139.968 43.4075 141.567C43.4829 143.002 43.7103 144.428 42.992 145.757C42.0065 147.58 39.8679 146.944 38.3257 147.836C36.927 148.645 36.8548 150.663 37.6576 152.026C38.46 153.388 39.8629 154.307 41.0799 155.352C45.932 159.517 47.95 165.842 51.4535 171.102C57.2258 179.768 67.0108 185.477 72.6164 194.243C72.0524 193.361 73.9307 188.056 74.1417 186.88C74.6308 184.154 75.0395 181.415 75.3669 178.668C76.0213 173.172 76.3519 167.641 76.3551 162.11C76.3574 157.754 77.2374 152.538 77.6315 148.194C77.6854 147.599 77.7009 146.906 77.2287 146.516C77.0109 146.335 76.7246 146.255 76.4478 146.179C74.0636 145.483 71.8697 145.849 69.4691 145.636C68.0607 145.51 67.4314 144.829 67.6255 143.045Z" fill="#A47E64"/>
<path d="M88.476 203.878C89.6555 202.534 90.7817 201.146 91.6877 199.616C94.5455 194.79 94.1236 190.262 92.5344 185.161C89.5861 175.696 85.9534 166.848 84.8555 156.871C84.6646 155.139 84.5683 153.396 84.5665 151.653C84.5655 150.762 84.5897 149.87 84.6386 148.979C84.6637 148.52 84.9793 147.488 84.5368 147.164C84.3135 147.001 84.0198 146.969 83.7417 146.94C81.0556 146.664 78.396 146.181 75.7592 145.611C75.0468 145.458 73.5366 144.974 72.8461 145.368C72.273 145.695 72.5246 147.089 72.5063 147.699C72.4474 149.716 72.3881 151.734 72.3292 153.751C72.2109 157.786 72.0931 161.82 71.9748 165.855C71.8058 171.629 71.4903 177.825 67.8926 182.414C68.0717 182.239 60.8572 173.387 60.2006 172.544C57.6108 169.221 55.0206 165.898 52.4308 162.575C50.3329 159.884 48.235 157.192 46.137 154.5C45.1009 153.171 44.0651 151.842 43.029 150.512C42.3202 149.603 41.6841 148.612 40.8411 147.811C39.6126 146.644 38.2824 147.711 36.8178 148.188C36.0388 148.443 35.2652 148.687 34.4952 148.966C31.5228 150.044 28.5312 151.073 25.5227 152.05C25.3035 152.122 25.066 152.206 24.9463 152.399C24.7559 152.705 25.2907 153.156 25.4514 153.406C27.0708 155.911 28.6896 158.416 30.309 160.921C30.8026 161.685 31.2967 162.45 31.7329 163.246C32.6133 164.855 33.2495 166.583 34.1555 168.179C35.0898 169.823 36.2895 171.315 37.1626 172.994C37.9892 174.583 38.0244 176.205 38.5596 177.847C39.7665 181.551 39.8218 185.532 39.8323 189.383C39.8697 203.048 35.8132 216.777 34.4427 230.396C34.3587 231.233 34.2829 232.11 34.6131 232.888C34.8692 233.49 35.3456 233.974 35.8209 234.433C40.5703 239.023 46.4302 242.537 51.9358 246.177C57.4478 249.822 63.3529 252.903 69.5243 255.346C72.6292 256.575 75.909 257.886 79.1915 258.587C81.3383 259.045 87.791 264.091 89.0907 262.595C90.2118 261.305 89.2843 255.81 89.2121 254.152C89.0911 251.37 88.8472 248.593 88.5349 245.825C88.0718 241.724 86.4091 225.257 86.3041 220.756C86.2082 216.641 86.0283 212.546 85.9561 208.38C85.9474 207.877 85.9415 207.361 86.1041 206.883C86.2981 206.313 86.7142 205.845 87.1211 205.394C87.5741 204.892 88.0289 204.388 88.476 203.878Z" fill="#13355A"/>
<path d="M146.793 81.1715C146.131 81.313 145.469 81.2582 144.843 81.0482C143.281 80.5367 141.975 79.0845 141.651 77.4314C141.226 75.3079 142.158 73.0976 143.679 71.5449C143.82 71.3988 143.962 71.2664 144.113 71.1339L143.67 71.1659L143.61 71.1705C143.629 71.1568 143.651 71.1431 143.67 71.1339C144.451 70.6818 145.277 71.8007 145.528 72.714C146.273 75.4723 146.697 78.3173 146.793 81.1715Z" fill="#B78D70"/>
<path d="M199.2 104.201C199.04 105.393 196.666 104.037 195.652 104.681C188.811 109.028 181.623 112.837 174.184 116.061C174.097 116.097 174.006 116.139 173.919 116.175C173.832 115.613 173.746 115.052 173.654 114.49C173.444 113.115 173.23 111.745 173.015 110.375C172.988 110.357 172.956 110.334 172.928 110.316C169.563 108.014 166.202 105.713 162.836 103.411C158.192 100.237 153.465 96.9814 150.068 92.5015C147.885 89.6199 146.382 86.4461 145.387 83.1033C145.186 82.4274 145.003 81.7379 144.843 81.0483C144.117 77.9612 143.775 74.76 143.679 71.5451C143.674 71.4172 143.674 71.2893 143.67 71.166V71.1341C143.578 67.3255 143.829 63.4986 144.186 59.8179C144.464 56.9591 144.314 52.4884 145.821 49.4835C145.976 49.1684 146.154 48.8716 146.35 48.593C146.784 47.9765 147.318 47.4559 147.981 47.0677C152.31 44.5332 161.868 48.3692 166.22 49.6068C175.705 52.3103 185.765 55.8266 191.442 63.8913C195.784 70.0609 196.83 78.08 195.848 85.5602C195.442 88.629 194.761 91.9078 195.182 94.899C195.36 96.1914 195.743 97.4289 196.442 98.5706C196.657 98.9177 197.031 99.4839 197.438 100.137C198.305 101.534 199.314 103.329 199.2 104.201Z" fill="#C49372"/>
<path d="M177.963 109.921C181.182 108.071 194.637 100.209 198.618 99.645C200.351 106.046 201.005 112.738 200.543 119.354C193.825 122.79 185.045 120.063 177.891 119.781C174.87 119.662 172.862 120.838 172.44 117.058C172.117 114.178 175.837 111.143 177.963 109.921Z" fill="#C2BFB2"/>
<path d="M199.557 103.393C199.886 103.254 200.245 103.114 200.589 103.206C200.983 103.311 201.233 103.686 201.444 104.035C203.466 107.368 205.22 110.865 206.683 114.478C201.273 115.072 195.836 115.3 190.422 115.758C188.404 115.929 186.269 115.666 184.257 115.525C183.016 115.439 181.726 115.399 180.5 115.173C179.955 115.073 177.448 113.537 177.061 114.154C178.138 112.437 180.276 111.804 182.126 110.976C185.046 109.67 196.641 104.625 199.557 103.393Z" fill="#454546"/>
<path d="M16.3254 126.653C16.213 128.052 16.6304 129.44 17.741 130.314C18.4228 130.85 19.3101 131.16 19.8344 131.843C21.377 133.852 19.3293 135.457 19.2056 137.498C19.1252 138.824 19.8938 140.301 21.2327 140.586C21.5414 140.652 21.8652 140.653 22.1634 140.755C24.1357 141.429 25.6459 144.867 27.7256 146.031C29.0139 146.752 30.7364 146.108 31.6922 145.003C32.2621 144.344 32.7604 143.468 33.6381 143.343C34.4158 143.233 35.0889 143.673 35.8109 143.82C36.7133 144.003 37.7851 144.001 38.6819 143.801C39.7583 143.56 40.7959 142.861 41.1009 141.832C41.1644 141.617 41.1995 141.384 41.3425 141.209C41.5471 140.957 41.9467 140.967 42.2111 140.777C43.3984 139.921 43.2664 137.798 43.2084 136.251C43.1596 134.948 42.97 130.919 42.8906 129.615C42.5052 123.233 41.99 122.065 40.2862 119.487C39.0126 117.56 37.3932 115.859 35.5195 114.467C31.8986 111.776 26.3446 112.472 24.8545 117.061C24.7134 117.496 24.5851 117.991 24.1819 118.225C23.6923 118.51 23.0722 118.263 22.5013 118.258C21.2327 118.247 20.2468 119.764 20.8053 120.869C21.0245 121.302 21.224 121.577 21.156 122.054C19.6718 121.899 18.1881 122.519 17.283 123.88C16.7414 124.695 16.4039 125.676 16.3254 126.653Z" fill="#F37059"/>
<path d="M46.1558 63.9659C53.0651 59.5267 61.6838 58.0019 71.1158 61.2355C73.3274 61.9936 75.524 62.8457 77.5123 64.076C86.0456 69.3564 90.6634 82.8053 91.1246 92.2875C91.3096 96.0961 91.453 101.067 90.4785 104.76C89.5218 108.385 88.4719 111.287 88.5564 115.193C88.613 117.816 88.1193 119.781 85.8104 121.534C82.7982 123.821 78.6115 122.796 75.3532 121.666C72.5041 120.678 69.6545 119.689 66.8053 118.701C66.3372 118.539 67.6091 129.099 71.7355 130.915C74.5253 132.143 76.9082 131.262 79.4422 129.956C80.556 129.382 83.1691 127.992 84.4331 128.654C86.7644 129.875 83.6577 133.677 82.4909 134.818C80.7734 136.497 78.5736 137.587 76.3679 138.539C70.8135 140.936 62.8935 141.748 57.1633 139.336C56.0755 138.878 55.0448 138.284 53.931 137.894C52.2372 137.301 50.3439 137.218 49.2721 135.646C48.3633 134.313 47.5975 132.316 46.9348 130.837C46.454 129.762 42.6833 124.727 43.1728 123.857C42.6285 124.816 41.622 125.498 40.5296 125.648C35.4702 126.346 32.6658 116.133 31.7196 112.59C30.3122 107.319 29.6148 101.785 29.6158 96.3304C29.6185 83.1551 36.063 70.4506 46.1558 63.9659Z" fill="#A47E64"/>
<path opacity="0.2" d="M42.5778 124.196C42.4851 124.195 42.4097 124.21 42.4143 124.26C42.6604 126.928 43.0943 129.116 44.2332 131.552C46.6636 136.752 50.2123 141.465 55.7247 143.558C58.5922 144.647 61.6468 145.132 64.6786 145.595C66.0482 145.804 67.4647 146.008 68.8041 145.652C68.7493 145.667 68.5877 145.471 68.5356 145.444C68.4461 145.398 68.342 145.393 68.2493 145.343C68.042 145.233 67.8844 145.031 67.7913 144.819C67.6638 144.529 67.636 144.207 67.6227 143.891C67.5903 143.102 67.6396 142.31 67.7702 141.532C67.7812 141.468 67.7912 141.398 67.7575 141.342C67.7328 141.302 67.6894 141.277 67.6474 141.255C66.967 140.9 66.1153 141.092 65.3664 141.086C64.4489 141.078 63.5292 141.027 62.6236 140.874C60.8499 140.573 59.1223 140.028 57.4857 139.284C56.7385 138.944 55.9878 138.383 55.2096 138.182C54.1278 137.902 52.7797 137.967 51.7591 137.501C50.5841 136.964 50.1434 135.648 49.61 134.563C49.2122 133.753 48.7122 132.999 48.214 132.247C47.2837 130.844 46.237 129.523 45.273 128.143C44.736 127.374 44.2391 126.579 43.7583 125.774C43.519 125.372 43.2751 124.971 43.0577 124.558C42.9929 124.436 43.0253 124.343 42.8997 124.253C42.87 124.233 42.707 124.198 42.5778 124.196Z" fill="#454546"/>
<path opacity="0.2" d="M77.5128 64.076C86.046 69.3565 90.6639 82.8053 91.1251 92.2875C91.31 96.0961 91.4534 101.067 90.4789 104.759C89.4491 108.662 88.8203 112.982 88.4888 116.982C88.4618 117.305 88.3915 117.691 88.091 117.813C87.501 116.008 86.3689 114.396 84.8875 113.211C83.5819 112.166 82.2164 111.818 81.6748 110.178C80.4542 106.483 80.3099 102.108 79.9952 98.2466C79.7354 95.0563 79.5518 91.8487 79.781 88.6561C80.0459 84.9704 79.7806 83.4305 77.5338 80.3918C75.8441 78.1062 73.7307 76.0343 70.9167 75.2602C64.4183 73.4733 54.0753 77.9719 50.3863 83.3739C45.5502 90.4554 42.5449 98.7873 41.8069 107.334C40.9278 103.901 42.0563 100.295 43.3422 96.9921C48.0847 84.8101 55.1457 73.5701 63.7849 63.7586C64.8773 62.5183 66.0399 61.2666 67.5492 60.5935C70.6728 59.2011 74.9157 62.469 77.5128 64.076Z" fill="#454546"/>
<path d="M79.9002 89.6401C79.781 92.1614 79.634 94.6342 79.7687 97.1103C79.8071 98.3469 79.9062 99.5799 80.0486 100.807C80.1825 102.036 80.3738 103.259 80.6122 104.474C81.0871 106.904 81.8045 109.291 82.7585 111.587L82.9357 112.019L82.98 112.126L83.0024 112.18L83.0316 112.269C83.0727 112.387 83.1005 112.509 83.0914 112.642C83.0996 112.776 83.0535 112.891 83.0188 113.01C82.9713 113.114 82.9156 113.217 82.853 113.301C82.7252 113.467 82.5827 113.598 82.4366 113.705C81.8484 114.127 81.2236 114.341 80.577 114.499C80.2583 114.57 79.913 114.637 79.539 114.601C79.176 114.564 78.8348 114.431 78.5353 114.248C77.9361 113.883 77.4954 113.262 77.3972 112.564L77.8046 112.497C77.953 113.039 78.3663 113.479 78.8545 113.692C79.097 113.801 79.355 113.854 79.5993 113.853C79.7262 113.848 79.829 113.837 79.9642 113.805C80.0971 113.775 80.235 113.735 80.3706 113.689C80.9076 113.508 81.4634 113.235 81.8146 112.911C81.9922 112.756 82.058 112.576 82.0064 112.633C82.0091 112.645 82 112.648 81.9954 112.649L81.9972 112.648L81.9703 112.594L81.9164 112.487L81.6999 112.057C80.5341 109.767 79.6121 107.344 78.9348 104.842C78.2389 102.345 77.8964 99.7397 77.9512 97.1436C77.9777 96.4947 78.0119 95.8467 78.079 95.2018C78.1768 94.5584 78.2339 93.9145 78.3937 93.2816C78.6458 92.0111 79.0568 90.7676 79.6281 89.5903L79.9002 89.6401Z" fill="#13355A"/>
<path d="M57.0363 104.942C57.0203 104.705 57.0103 104.465 57.0098 104.222L57.0674 103.497L57.2199 102.782L57.4396 102.081C57.7779 101.156 58.3346 100.321 58.9808 99.5707C59.6567 98.8464 60.4504 98.2213 61.3404 97.7641C62.2327 97.3157 63.2114 97.0156 64.2147 96.9421C66.2258 96.7805 68.2096 97.4248 69.7782 98.5619C71.3478 99.6917 72.5707 101.343 72.9941 103.216L72.5972 103.33C71.8876 101.658 70.5993 100.366 69.1316 99.5218C67.657 98.682 65.9335 98.3491 64.3978 98.6487C62.8616 98.9492 61.4742 99.7602 60.2923 100.828C59.6955 101.362 59.1653 101.976 58.6639 102.65C58.1707 103.332 57.7355 104.081 57.3117 104.96L57.0363 104.942Z" fill="#13355A"/>
<path d="M83.8367 102.024C83.7632 101.529 83.8139 101.013 83.9522 100.52C84.1048 100.032 84.3427 99.5739 84.6313 99.1515C85.2519 98.3459 86.0534 97.6541 87.0265 97.2887C87.5115 97.1129 88.0298 96.9992 88.5591 97.0239C88.8194 97.0581 89.0824 97.0577 89.3692 97.2115C89.6418 97.3613 89.8227 97.6157 89.9254 97.8582C90.3246 98.8428 90.2341 99.8301 90.5337 100.724L90.3433 100.804C89.8674 99.9095 89.8341 98.835 89.414 98.1094C89.3135 97.9326 89.1875 97.8244 89.0674 97.7847C88.9715 97.7449 88.7417 97.7486 88.5417 97.7449C88.1326 97.7682 87.727 97.9016 87.3475 98.0842C86.9671 98.2692 86.61 98.5176 86.2794 98.7907C85.9387 99.0547 85.6341 99.3666 85.356 99.6976C85.0683 100.025 84.829 100.383 84.5833 100.758C84.3651 101.143 84.1564 101.547 83.9741 102.023L83.8367 102.024Z" fill="#13355A"/>
<path d="M65.3193 98.1476C65.4764 99.4875 65.4563 100.786 65.6984 101.965C65.7993 102.558 65.9961 103.105 66.2751 103.589C66.4076 103.814 66.5491 104.011 66.7523 104.176C66.9437 104.345 67.1665 104.492 67.4095 104.597C67.8922 104.812 68.4594 104.866 68.9178 104.699C69.3795 104.537 69.6983 104.143 69.823 103.586C69.9513 103.031 69.9074 102.384 69.8723 101.727C69.8403 101.074 69.7951 100.355 70.0906 99.666L70.4755 99.8153C70.3842 100.4 70.5673 101.004 70.7048 101.643C70.85 102.283 71.0377 102.965 70.9637 103.784C70.9231 104.185 70.8189 104.642 70.5545 105.05C70.3029 105.453 69.9234 105.819 69.4869 106.024C68.6128 106.458 67.6561 106.455 66.8021 106.202C66.3742 106.07 65.9491 105.884 65.5814 105.594C65.3906 105.461 65.2202 105.294 65.0535 105.122C64.9019 104.946 64.7435 104.731 64.633 104.551C64.4042 104.192 64.2567 103.798 64.1233 103.413C64.0169 103.022 63.9338 102.629 63.9014 102.247C63.8274 101.475 63.9324 100.742 64.1219 100.054C64.316 99.3664 64.6042 98.7235 65.0449 98.1143L65.3193 98.1476Z" fill="#13355A"/>
<path d="M86.3351 98.1354C86.436 99.1337 86.2826 100.122 86.3799 101.045C86.4141 101.502 86.4872 101.969 86.6845 102.341C86.774 102.532 86.905 102.689 87.0384 102.772C87.1745 102.852 87.2841 102.874 87.4215 102.8C87.554 102.735 87.7019 102.565 87.7841 102.397C87.8709 102.218 87.9193 101.998 87.9485 101.771C88.0024 101.315 88.0061 100.811 88.0326 100.324C88.0769 99.3438 88.1138 98.3633 88.1787 97.3833L88.3851 97.386C88.4929 98.3683 88.5395 99.3493 88.602 100.331C88.6244 100.826 88.6829 101.295 88.666 101.843C88.6468 102.365 88.5299 103.086 87.8444 103.548C87.6681 103.661 87.4371 103.732 87.1978 103.737C86.9598 103.732 86.732 103.661 86.5575 103.551C86.2041 103.334 85.9958 103.044 85.8506 102.77C85.5565 102.204 85.5017 101.64 85.4734 101.098C85.4711 100.55 85.5556 100.041 85.6876 99.552C85.8118 99.0625 85.9945 98.6012 86.1977 98.1268L86.3351 98.1354Z" fill="#13355A"/>
<path d="M53.7314 113.346C47.5413 109.441 45.9585 97.0055 50.7562 90.1541C56.0389 82.6109 68.2657 82.3086 73.2471 89.2627C77.674 95.4432 78.0434 104.438 73.0521 111.396C69.7326 116.023 58.5483 116.384 53.7314 113.346Z" stroke="#F6BB35" stroke-width="3" stroke-miterlimit="10"/>
<path d="M52.5742 89.395C52.266 87.5715 52.687 85.6644 53.4798 83.972C53.9027 83.1345 54.4173 82.3381 55.0338 81.6248C55.6567 80.9183 56.3613 80.279 57.1477 79.7584C58.7132 78.7071 60.517 78.0632 62.3533 77.8504C64.1868 77.6353 66.0701 77.8253 67.7684 78.4957L67.6392 78.8875C65.9061 78.55 64.1626 78.6235 62.5273 78.9948C60.8928 79.3748 59.3708 80.1214 58.1451 81.1553C56.9208 82.1942 55.9316 83.4478 55.09 84.8137C54.663 85.4959 54.2926 86.2184 53.9209 86.9714C53.5579 87.7299 53.2268 88.5241 52.85 89.3981L52.5742 89.395Z" fill="#13355A"/>
<path d="M52.7496 78.8675C48.8003 82.3637 45.9603 86.7514 44.2405 91.7254C41.5969 99.3727 41.7307 106.793 42.6271 114.769C42.4472 113.168 41.6494 111.351 41.363 109.697C41.0726 108.018 40.8498 106.438 39.8145 105.023C38.9756 103.875 37.9184 102.838 36.6018 102.303C35.2853 101.767 33.6787 101.806 32.538 102.655C31.5717 103.374 31.0533 104.571 30.8985 105.766C30.7437 106.96 30.9104 108.17 31.0766 109.363C31.2862 110.866 31.8626 112.616 31.8256 114.075C30.2291 113.994 28.8088 111.018 28.2229 109.727C27.1525 107.369 28.4965 102.893 26.4593 101.614C23.9567 100.043 27.8334 94.3074 27.6251 92.2935C27.4886 90.9687 26.6209 89.8298 26.3168 88.5328C25.5258 85.1599 28.5595 82.2728 30.7186 79.5634C30.9972 79.2136 31.2707 78.8433 31.3858 78.4113C31.5169 77.919 31.4301 77.3998 31.405 76.891C31.1954 72.6641 35.188 69.4656 39.0541 67.7435C38.1381 66.4233 39.5405 64.6076 41.0808 64.1487C42.6212 63.6902 44.3268 63.9308 45.8169 63.3285C50.7781 61.3237 51.8257 55.9561 58.1935 55.6131C64.5763 55.2697 69.8892 59.6765 74.0526 63.9486C75.3747 65.3054 76.9566 66.9252 77.7333 68.6678C78.1028 69.4958 78.4627 74.6429 78.5864 74.742C75.6039 72.3627 68.711 72.0622 65.0645 72.7596C60.5257 73.6268 56.2043 75.8092 52.7496 78.8675Z" fill="#F37059"/>
<path d="M74.1143 62.4059C78.6627 64.4595 80.9072 70.1089 81.2195 74.8336C83.1412 74.7701 85.4688 75.1364 86.7785 76.7493C87.6841 77.8668 88.339 79.2363 89.5295 80.0442C89.972 76.3612 88.1504 72.4982 85.0268 70.4967C84.7331 70.3085 84.4157 70.1217 84.2459 69.8167C84.055 69.4733 84.092 69.0559 84.0879 68.6631C84.0637 66.1816 82.3242 63.7343 79.8578 63.1991C79.3979 63.0991 78.9138 63.0598 78.4973 62.8406C77.3986 62.2625 77.252 60.787 76.7031 59.6732C76.0893 58.4283 74.8897 57.5712 73.6361 56.9757C71.129 55.7842 68.4772 55.887 65.8331 55.4714C65.3472 55.3951 62.1016 54.7823 62.0455 55.5353C62.0094 56.0162 61.9733 56.4971 61.9372 56.978C61.8062 58.7284 63.2282 59.6312 64.9238 60.0851C66.3742 60.4733 67.8776 60.6322 69.3581 60.8633C70.8002 61.0884 71.9118 61.6181 73.3014 62.0862C73.5804 62.1798 73.8512 62.2867 74.1143 62.4059Z" fill="#F37059"/>
<path opacity="0.4" d="M95.1419 176.771C92.6157 171.878 91.3982 166.186 92.4654 160.784C94.9451 148.232 108.473 142.823 120.036 145.552C122.306 146.088 124.539 146.94 126.384 148.366C129.272 150.598 130.967 154.025 132.243 157.443C135.415 165.94 135.82 174.899 128.811 181.505C127.17 183.051 125.404 184.459 123.798 186.042C122.273 187.546 120.956 189.191 118.839 189.903C117.714 190.283 116.502 190.29 115.314 190.271C114.065 190.252 112.573 189.954 111.351 190.174C110.159 190.389 109.095 190.897 107.839 190.805C105.478 190.631 102.865 187.01 101.351 185.385C98.9318 182.789 96.7736 179.931 95.1419 176.771Z" fill="#F6BB35"/>
<path d="M110.674 202.784C111.626 203.046 112.632 203.004 113.617 202.939C114.838 202.858 116.145 202.711 117.07 201.91C118.175 200.951 118.409 199.353 118.57 197.899C116.12 198.32 113.671 198.742 111.221 199.163C108.489 199.632 107.487 201.909 110.674 202.784Z" fill="#A8A491"/>
<path d="M119.897 189.302C120.605 190.347 120.536 191.608 119.72 192.541C120.679 192.418 121.562 193.197 121.558 193.895C121.554 194.594 120.966 195.187 120.401 195.734C121.252 195.601 121.94 196.465 121.623 197.035C121.306 197.605 120.45 197.896 119.659 198.14C118.301 198.56 116.943 198.98 115.585 199.4C113.291 200.11 110.872 200.834 108.305 200.652C106.807 200.546 105.116 199.959 104.768 198.911C104.389 197.768 105.749 196.51 104.79 195.528C104.635 195.369 104.428 195.234 104.288 195.069C103.402 194.023 105.663 192.854 105.018 191.732C104.874 191.482 104.597 191.274 104.446 191.025C104.204 190.626 104.343 190.143 104.777 189.871C104.64 189.555 104.877 189.379 105.176 189.209C105.475 189.038 105.838 189.029 106.181 189.041C108.608 189.125 110.967 190.053 113.393 189.959C115.549 189.877 117.763 188.984 119.897 189.302Z" fill="#A8A491"/>
<path d="M110.294 197.264C110.657 197.435 111.049 197.448 111.442 197.423C111.837 197.392 112.231 197.337 112.638 197.25C113.46 197.112 114.282 196.983 115.11 196.88C116.763 196.666 118.41 196.405 120.062 196.157L120.104 196.359C119.308 196.636 118.505 196.889 117.693 197.102C116.881 197.319 116.066 197.527 115.249 197.726C114.842 197.834 114.429 197.909 114.017 197.989C113.603 198.058 113.185 198.1 112.768 198.149C112.347 198.18 111.885 198.196 111.424 198.098C110.973 198.015 110.465 197.79 110.21 197.373L110.294 197.264Z" fill="#13355A"/>
<path d="M105.666 192.475C106.558 192.565 107.417 192.713 108.288 192.798C109.154 192.906 110.023 192.974 110.896 193.02C112.642 193.102 114.402 192.953 116.124 192.573L116.18 192.772C115.349 193.117 114.478 193.377 113.589 193.546C112.699 193.718 111.794 193.828 110.883 193.878C110.427 193.909 109.97 193.897 109.513 193.878C109.057 193.845 108.606 193.772 108.156 193.698C107.263 193.505 106.385 193.193 105.627 192.608L105.666 192.475Z" fill="#13355A"/>
<path d="M132.431 146.654C133.658 144.417 135.043 142.266 136.572 140.223" stroke="#F37059" stroke-width="4" stroke-miterlimit="10" stroke-linecap="round"/>
<path d="M134.712 150.328C136.547 149.562 144.346 143.213 146.69 141.303" stroke="#F37059" stroke-width="4" stroke-miterlimit="10" stroke-linecap="round"/>
<path d="M137.266 154.694C139.932 154.445 142.582 154.029 145.197 153.45" stroke="#F37059" stroke-width="4" stroke-miterlimit="10" stroke-linecap="round"/>
<path d="M88.455 86.3659C90.0917 86.1449 91.6996 87.2139 92.7056 88.6703C94.7172 91.582 94.64 95.6006 94.4706 99.2708C94.4021 100.763 93.1792 109.651 87.4348 108.239C79.8847 106.383 80.8528 87.3916 88.455 86.3659Z" stroke="#F6BB35" stroke-width="2" stroke-miterlimit="10"/>
<path d="M76.9145 99.3374C78.4211 98.2628 80.5953 98.2308 82.1329 99.2602" stroke="#F6BB35" stroke-width="3" stroke-miterlimit="10"/>
<path d="M92.4239 216.226C91.6722 216.577 90.8739 216.812 89.9789 216.795C89.1418 216.779 88.2577 216.203 88.26 215.427C88.2618 214.86 88.7061 214.389 89.124 213.976C90.3584 212.756 91.5366 211.428 92.8563 210.288C94.14 209.179 95.7977 208.39 97.281 207.51C97.734 207.241 98.6085 206.974 99.1633 206.996C101.44 207.085 103.716 207.211 105.988 207.374C107.81 207.504 109.695 207.901 111.323 208.685C113.708 209.832 115.841 211.504 118.318 212.46C120.978 213.487 124.01 213.235 126.778 212.725C126.934 213.517 129.113 222.36 129.481 222.203C123.218 224.878 116.778 227.596 109.898 228.027C109.748 224.607 108.774 221.22 107.069 218.184C106.208 216.651 105.789 214.741 103.667 214.232C103.121 214.101 102.546 214.181 101.982 214.166C100.297 214.122 98.5998 213.227 97.0019 213.726C95.3776 214.234 94.0048 215.488 92.4239 216.226Z" fill="#C49372"/>
<path opacity="0.1" d="M108.775 221.387C108.875 221.092 109.127 220.849 109.628 220.691C112.004 219.941 114.552 220.711 117 221.173C120.382 221.811 123.877 221.847 127.272 221.28C127.801 221.191 128.534 221.026 129.006 221.353C129.285 221.547 129.108 221.97 129.464 222.195C123.449 225.117 116.618 227.568 109.899 228.027C110.069 228.015 109.374 224.138 109.289 223.794C109.089 222.978 108.548 222.051 108.775 221.387Z" fill="#454546"/>
<path d="M124.325 225.136C123.923 225.469 123.403 225.606 122.9 225.725C122.553 225.807 122.197 225.889 121.841 225.839C121.53 225.793 121.243 225.652 120.964 225.501C120.01 224.985 119.197 224.213 118.261 223.702C117.594 223.341 116.818 223.199 116.11 222.903C117.11 223.715 118.197 224.551 118.658 225.83C119.115 227.099 118.589 228.839 117.311 229.122C116.233 229.36 115.233 228.506 114.47 227.675C113.868 229.775 110.963 230.684 109.337 229.278C108.904 230.246 108.26 231.173 107.314 231.598C106.374 232.027 105.1 231.785 104.593 230.858C100.063 229.036 95.4045 227.556 90.6689 226.428C87.3078 225.629 83.9559 225.259 80.5994 225.04C77.832 224.857 75.0646 224.78 72.2881 224.647C69.7125 224.528 67.1323 224.359 64.5476 224.021C55.3183 222.811 46.1302 221.3 36.9923 219.487C36.3256 219.354 35.6269 219.204 35.1017 218.752C34.6359 218.35 34.3665 217.761 34.1107 217.19C28.3659 204.298 23.3562 191.242 19.8308 177.446C18.4242 171.943 17.1456 165.559 18.2918 159.892C18.8672 157.042 21.1323 153.814 23.886 152.174C26.3702 150.685 29.2518 150.489 31.6493 153.019C32.517 153.937 33.0969 155.101 33.6586 156.252C39.8921 168.915 41.9745 184.246 45.0799 198.019C45.4087 199.489 45.7329 206.001 47.1714 206.275C53.962 207.586 67.9863 210.226 73.174 211.86C76.768 212.993 84.8966 214.203 88.6641 214.559C91.4863 214.829 94.9296 213.162 97.5463 212.102C99.9666 211.125 101.359 210.235 104.154 210.55C106.807 210.851 109.333 211.879 111.717 213.121C114.749 214.701 117.955 216.441 120.329 218.934C121.681 220.35 123.028 221.761 124.375 223.177C124.531 223.336 124.686 223.505 124.777 223.715C124.983 224.204 124.732 224.802 124.325 225.136Z" fill="#A47E64"/>
<path opacity="0.2" d="M80.5852 225.464C75.2144 225.282 69.8408 224.718 64.5476 224.022C55.3183 222.811 46.1302 221.3 36.9923 219.487C36.3256 219.354 35.6269 219.204 35.1017 218.752C34.6359 218.35 34.3665 217.761 34.1107 217.19C28.3659 204.298 23.3562 191.242 19.8308 177.446C18.4242 171.943 17.1456 165.559 18.2918 159.892C18.8759 157.004 21.7908 151.435 25.4021 151.634C25.8546 151.658 26.2615 152.224 25.9716 152.572C25.8683 152.696 25.709 152.757 25.5574 152.814C24.7669 153.11 24.0248 153.516 23.3699 154.049C19.4663 157.223 21.3743 171.125 21.7456 174.055C22.0164 176.191 22.2963 178.361 23.1521 180.337C23.9969 182.289 25.3852 184.007 25.9341 186.061C26.3045 187.447 26.2698 188.904 26.3972 190.333C26.6657 193.345 27.8736 195.637 29.0221 198.345C29.9884 200.622 30.0879 203.167 31.4173 205.34C32.1521 206.542 33.5152 209.752 34.7916 210.226C35.804 210.601 37.1585 209.952 37.9075 210.729C37.9814 210.806 38.0467 210.903 38.0408 211.009C38.0349 211.115 37.9595 211.203 37.8883 211.282C37.3713 211.856 36.8539 212.431 36.337 213.004C35.999 213.379 35.6584 213.758 35.4145 214.2C36.2666 213.744 37.3046 213.777 38.2422 214.014C39.7437 214.394 41.0274 214.924 42.5682 215.165C44.731 215.504 46.828 216.153 48.8738 216.92C50.8275 217.653 52.4906 218.744 54.4018 219.507C58.7657 221.247 63.3621 222.402 68.0319 222.922C69.38 223.072 70.7331 223.169 72.0848 223.28C77.8612 223.75 83.6189 224.45 89.3395 225.378C86.4319 225.548 83.5093 225.562 80.5852 225.464Z" fill="#454546"/>
<path d="M92.4239 216.226C91.6722 216.577 90.8739 216.812 89.9789 216.795C89.1418 216.779 88.2577 216.203 88.26 215.427C88.2618 214.86 88.7061 214.39 89.124 213.976C90.2857 212.828 91.3922 211.489 92.6841 210.469C93.7404 209.635 95.0323 209.162 96.1694 208.448C96.3713 208.321 96.5667 208.18 96.7955 208.102C97.4394 207.882 97.8235 208.484 98.0788 208.974C98.4861 209.759 98.693 210.185 99.7154 210.191C100.034 210.193 100.366 210.136 100.661 210.255C100.755 210.292 100.849 210.358 100.869 210.457C100.902 210.632 100.698 210.746 100.535 210.818C100.273 210.934 100.029 211.089 99.8132 211.278C99.4145 211.627 98.9615 211.888 98.5423 212.211C97.5358 212.989 96.5284 213.767 95.5228 214.546C94.6031 215.258 93.4742 215.735 92.4239 216.226Z" fill="#C49372"/>
<path d="M94.6287 221.052C94.6921 221.243 94.715 221.448 94.6944 221.644C94.6364 222.204 94.3053 222.705 93.9605 223.167C93.8665 223.293 93.7943 223.506 93.9468 223.565C94.0569 223.607 94.1674 223.51 94.2414 223.423C95.7657 221.626 102.323 216.102 104.071 220.402C104.113 220.505 104.163 220.626 104.278 220.658C104.359 220.681 104.446 220.65 104.524 220.618C105.127 220.371 105.709 220.05 106.36 219.947C108.474 219.613 109.202 221.175 108.329 222.88C108.198 223.134 108.029 223.384 108.006 223.665C107.988 223.878 108.058 224.088 108.111 224.297C108.766 226.902 107.067 228.94 105.162 230.74C104.107 231.737 102.765 232.53 101.272 232.717C101.036 232.747 100.774 232.756 100.58 232.626C100.396 232.504 100.319 232.288 100.178 232.124C99.6072 231.462 98.3719 231.896 97.6116 231.425C96.9015 230.986 96.7444 229.845 95.8954 229.759C95.6087 229.731 95.3301 229.847 95.0451 229.89C94.3108 230.002 93.5719 229.612 93.1061 229.073C92.2156 228.042 92.5161 226.944 91.0306 226.43C89.4135 225.871 88.0613 224.624 88.6956 222.811C89.1486 221.517 92.4156 219.814 93.8811 220.274C94.2555 220.391 94.5113 220.698 94.6287 221.052Z" fill="#C49372"/>
<path d="M83.1302 81.3654C83.1955 80.7133 83.5125 80.0653 83.9883 79.5707C84.4578 79.0647 85.0656 78.7026 85.7095 78.4715C87.0023 78.0326 88.476 78.0783 89.7172 78.7213C90.9269 79.3378 91.8676 80.3365 92.5065 81.4449C93.1495 82.5559 93.5514 83.7766 93.6893 85.0174L93.2842 85.0968C92.8321 83.9688 92.2448 82.9395 91.5356 82.0755C90.8246 81.2142 89.9373 80.5676 88.9961 80.279C88.1129 80.0338 87.1672 80.0383 86.2502 80.2082C85.7926 80.3005 85.3373 80.4142 84.872 80.5977C84.4075 80.7863 83.9349 81.0352 83.3905 81.4595L83.1302 81.3654Z" fill="#13355A"/>
<path d="M131.659 207.146C132.754 213.189 134.507 219.128 136.88 224.841C134.923 225.947 132.257 225.188 130.641 223.675C129.025 222.163 128.212 220.078 127.447 218.064C124.501 210.318 122.01 208.158 131.659 207.146Z" fill="#C2BFB2"/>
<path d="M171.863 200.359C172.349 202.574 173.329 204.701 173.684 206.989C174.169 210.102 177.317 218.499 174.982 221.084C174.601 221.506 174.065 221.777 173.533 222.017C170.85 223.229 167.931 223.901 165.036 224.565C157.038 226.401 149.015 227.932 141.046 229.694C140.321 229.855 139.551 230.01 138.845 229.789C137.8 229.464 137.226 228.44 136.774 227.501C133.007 219.682 130.365 211.391 128.94 202.919C128.973 203.114 146.196 201.701 147.727 201.45C155.643 200.151 163.601 199.076 171.586 198.226C171.605 198.951 171.709 199.66 171.863 200.359Z" fill="#454546"/>
<path d="M174.747 256.242C166.557 226.731 163.342 195.847 165.279 165.281C165.963 154.474 167.372 143.421 172.432 133.847C178.099 152.981 183.906 171.358 186.494 191.145C187.395 198.036 188.107 204.972 187.997 211.92C187.796 224.616 184.86 237.091 181.941 249.448C181.384 251.804 180.787 254.244 179.278 256.136C177.77 258.028 176.951 257.242 174.747 256.242Z" fill="#525151"/>
<path opacity="0.5" d="M174.747 256.242C166.557 226.731 163.342 195.847 165.279 165.281C165.963 154.474 167.372 143.421 172.432 133.847C178.099 152.981 183.906 171.358 186.494 191.145C187.395 198.036 188.107 204.972 187.997 211.92C187.796 224.616 184.86 237.091 181.941 249.448C181.384 251.804 180.787 254.244 179.278 256.136C177.77 258.028 176.951 257.242 174.747 256.242Z" fill="#454546"/>
<path d="M242.883 184.673C243.201 181.434 243.085 178.097 242.431 174.646C239.938 161.49 224.372 126.362 223.425 124.214C221.192 119.15 212.871 111.315 205.124 109.818C201.342 109.086 197.461 109.152 193.616 109.374C185.673 109.831 176.509 111.179 172.428 118.008C169.979 122.107 170.064 127.189 170.371 131.954C172.07 158.333 180.657 183.535 179.859 210.115C179.679 216.088 179.113 222.042 178.548 227.992C177.534 238.657 176.52 249.323 175.506 259.988C189.271 256.766 197.669 249.592 207.647 239.707C217.213 230.229 225.812 219.773 233.249 208.546C238.196 201.078 242.046 193.216 242.883 184.673Z" fill="#525151"/>
<path d="M208.941 124.714C210.56 134.344 212.277 143.975 213.108 153.754C213.927 163.549 213.318 173.401 212.28 183.114C211.765 187.979 211.169 192.828 210.624 197.678C210.094 202.527 209.566 207.396 208.867 212.238C207.479 221.912 205.452 231.581 201.743 240.664L201.359 240.511C204.76 231.363 206.581 221.745 207.747 212.086C208.342 207.249 208.742 202.4 209.19 197.525C209.645 192.654 210.151 187.797 210.572 182.943C210.791 180.516 210.962 178.089 211.139 175.666C211.312 173.242 211.444 170.818 211.516 168.396C211.581 165.976 211.664 163.554 211.613 161.141C211.575 158.726 211.468 156.31 211.298 153.892C210.746 144.209 209.245 134.538 208.668 124.75L208.941 124.714Z" fill="#13355A"/>
<path d="M211.863 113.846C206.559 111.248 200.726 109.77 194.873 109.734C191.95 109.753 189.031 110.072 186.198 110.77C185.499 110.969 184.779 111.136 184.1 111.361C183.417 111.585 182.747 111.849 182.093 112.149C180.787 112.749 179.546 113.493 178.405 114.363C176.117 116.092 174.2 118.33 172.967 120.906C171.725 123.473 171.265 126.38 171.244 129.274C171.219 132.179 171.605 135.098 172.032 138.022L173.293 146.82L183.232 217.233L182.824 217.293C180.865 205.602 179.027 193.893 177.158 182.188L171.594 147.069C171.138 144.14 170.658 141.218 170.222 138.284C169.779 135.347 169.359 132.343 169.369 129.256C169.369 127.715 169.495 126.154 169.807 124.612C170.113 123.079 170.584 121.527 171.291 120.102C172.68 117.237 174.793 114.779 177.315 112.91C178.585 111.987 179.954 111.208 181.391 110.586C182.109 110.276 182.845 110.006 183.593 109.779C184.348 109.548 185.079 109.397 185.822 109.204C188.802 108.554 191.861 108.242 194.896 108.393C197.928 108.557 200.929 109.07 203.812 109.935C206.675 110.862 209.44 112.06 211.991 113.599L211.863 113.846Z" fill="#13355A"/>
<path d="M170.264 137.677C169.062 147.129 167.618 156.542 166.866 166.009C166.676 168.375 166.49 170.741 166.386 173.11C166.279 175.477 166.217 177.852 166.185 180.229C166.105 184.982 166.16 189.736 166.232 194.489C166.326 199.243 166.497 203.996 166.755 208.745C166.88 211.12 167.03 213.493 167.189 215.866C167.339 218.244 167.545 220.597 167.842 222.953C169.008 232.378 171.526 241.592 173.508 250.91L173.105 250.999C170.817 241.767 168.112 232.605 166.705 223.104C166.35 220.738 166.083 218.334 165.881 215.965C165.665 213.59 165.47 211.211 165.3 208.831C164.951 204.071 164.688 199.304 164.504 194.532C164.175 184.993 164.118 175.41 165.066 165.85C166.088 156.32 167.765 146.915 169.991 137.633L170.264 137.677Z" fill="#13355A"/>
<g opacity="0.7">
<path opacity="0.7" d="M119.053 149.697C119.495 149.671 119.946 149.731 120.378 149.834C120.81 149.946 121.221 150.111 121.627 150.285C122.434 150.645 123.164 151.133 123.856 151.654C125.222 152.731 126.438 153.938 127.491 155.334C128.535 156.733 129.354 158.278 129.944 159.899C130.53 161.517 130.909 163.229 130.861 164.953C130.858 165.067 130.763 165.157 130.649 165.154C130.549 165.151 130.467 165.077 130.451 164.981L130.449 164.964C130.174 163.321 129.59 161.78 128.875 160.33C128.146 158.886 127.23 157.547 126.153 156.399C125.619 155.837 125.017 155.28 124.447 154.717C123.866 154.162 123.295 153.601 122.708 153.067C122.425 152.787 122.126 152.529 121.835 152.261C121.552 151.982 121.247 151.741 120.959 151.464C120.358 150.943 119.774 150.447 119.023 149.971L118.988 149.949C118.924 149.909 118.905 149.824 118.946 149.76C118.969 149.721 119.011 149.7 119.053 149.697Z" fill="white"/>
</g>
<path opacity="0.5" d="M218.085 220.468C217.98 223.878 217.822 227.328 216.86 230.602C214.656 238.096 208.403 243.865 201.381 247.288C207.745 222.365 210.402 196.669 213.04 171.082C213.464 166.974 213.888 162.853 213.818 158.723C213.728 153.385 209.448 143.102 211.499 138.563C217.908 164.815 218.913 193.571 218.085 220.468Z" fill="#454546"/>
<path d="M143.508 55.3848C143.995 55.5903 144.409 55.9031 144.784 56.252C145.152 56.6091 145.489 56.9982 145.776 57.4233C146.356 58.2672 146.856 59.1646 147.209 60.1163L147.023 60.2053L146.084 59.034C145.772 58.6527 145.443 58.2901 145.097 57.948C144.745 57.611 144.42 57.2644 144.127 56.8804C143.838 56.4899 143.573 56.0789 143.418 55.4903L143.508 55.3848Z" fill="#13355A"/>
<path opacity="0.7" d="M131.463 169.573C131.339 169.837 131.032 170.107 130.79 169.943C130.889 169.51 130.814 167.303 131.109 167.287C131.873 167.247 131.631 169.214 131.463 169.573Z" fill="white"/>
<path d="M180.831 200.085C181.16 204.722 181.061 209.38 180.715 214.022C180.513 216.341 180.258 218.656 179.913 220.958L178.871 227.829L176.728 241.555C176.351 243.84 176.055 246.137 175.64 248.431C175.226 250.722 174.629 253.002 173.69 255.147L173.309 254.988C174.86 250.644 175.036 246.007 175.599 241.402L177.173 227.578C177.426 225.275 177.731 222.964 178.035 220.682C178.36 218.411 178.671 216.139 178.905 213.855C179.183 211.576 179.408 209.289 179.677 206.996L180.076 203.548C180.25 202.397 180.355 201.243 180.555 200.085H180.831Z" fill="#13355A"/>
<path d="M0.0520804 94.8885C8.53969 66.7989 26.6493 41.0904 51.4769 24.1175C63.7895 15.5476 77.5763 8.97895 92.1311 4.83698C106.72 0.859875 122.01 -0.785039 137.148 0.352975C152.286 1.3654 167.305 4.75159 181.449 10.4919C195.592 16.2815 208.502 24.8417 219.859 34.9971C231.11 45.2438 241.132 57.0966 248.246 70.6381C255.458 84.0869 260.485 98.6605 263.055 113.64C265.773 128.623 265.4 144.004 263.027 158.905C260.561 173.798 255.896 188.409 248.56 201.586C234.127 227.925 211.506 249.93 184.017 261.934C170.386 268.041 155.812 271.976 140.98 273.465C133.544 273.823 126.107 274.296 118.685 273.755C111.271 273.165 103.906 272.094 96.675 270.404C67.7388 263.598 41.4311 246.878 22.9398 223.896C22.3077 223.11 22.4324 221.961 23.2179 221.328C23.9864 220.71 25.103 220.815 25.7423 221.554L25.7574 221.571C44.5479 243.289 70.4673 258.36 98.1642 263.827C105.089 265.184 112.103 265.943 119.122 266.252C126.156 266.512 133.156 265.789 140.119 265.222C153.994 263.314 167.444 259.133 179.874 253.017C204.882 240.943 225.078 220.006 236.91 195.528C242.979 183.322 246.526 170.018 248.045 156.663C249.427 143.3 249.039 129.68 245.92 116.728C243.036 103.76 238.299 91.2822 231.622 79.918C224.872 68.6178 216.613 58.2231 206.844 49.4287C197.092 40.6118 185.925 33.4595 174.004 27.8589C161.971 22.4629 149.053 19.1462 135.853 17.6629C122.634 15.9618 109.082 16.8076 95.9461 19.6097C82.7421 22.2337 69.8636 27.1077 58.0072 34.0175C46.1339 40.9246 35.4278 49.905 25.8327 60.1516C16.3117 70.5025 8.55795 82.5909 2.36784 95.6826L2.32811 95.7648C2.04041 96.3754 1.30974 96.6366 0.700547 96.3475C0.144784 96.0854 -0.120083 95.4588 0.0520804 94.8885Z" fill="#F6BB35"/>
<path d="M207.781 62.1058C207.571 67.7548 206.918 72.4813 204.785 77.8197C202.703 83.0303 198.853 89.7387 200.881 95.4744C198.913 94.4835 197.451 92.5929 196.862 90.4602C196.3 91.9444 195.743 93.4194 195.182 94.899C195.141 95.0041 195.099 95.1137 195.058 95.2187C195.017 95.1639 194.976 95.1091 194.94 95.0543C194.419 94.351 193.903 93.6432 193.382 92.9399C192.926 92.3189 192.474 91.7024 192.017 91.0813C191.104 91.8668 190.336 92.8349 189.779 93.9035C189.711 94.0359 189.642 94.1729 189.578 94.3099C188.848 92.9628 188.268 91.5334 187.857 90.0538C187.66 89.3734 187.505 88.6838 187.386 87.9851C187.3 88.2728 187.204 88.5605 187.089 88.8391C186.272 90.9306 184.806 92.7481 183.135 94.2095C182.925 94.3921 182.002 94.9675 180.934 95.616C179.577 96.438 177.979 97.3833 177.335 97.7806C177.148 97.8993 177.038 97.9678 177.038 97.977C177.015 94.6616 175.422 91.8896 174.682 88.7203C174.394 87.2818 174.157 85.8479 174.006 84.382C173.992 84.2678 173.979 84.1582 173.965 84.0532C173.851 83.2449 173.645 82.7197 173.284 82.1352C173.097 81.8247 172.86 81.4959 172.572 81.1031C172.161 80.546 171.75 79.9889 171.458 79.3632C171.129 78.6417 170.969 77.8517 170.818 77.0708C170.503 75.477 170.161 73.8558 170.129 72.2255C170.101 70.682 169.074 67.9648 168.078 66.8095C166.256 64.7042 163.005 65.2933 161.21 67.1291C160.648 67.7045 160.219 68.3941 159.826 69.0974C156.703 74.6459 155.187 81.5187 157.26 87.6883C158.899 92.5563 162.845 94.5154 167.713 95.2461C168.937 95.4288 170.293 95.5703 171.129 96.4837C171.773 97.1824 171.951 98.1825 172.102 99.1186C172.567 102.046 173.705 106.918 172.928 110.316C172.8 110.873 172.622 111.389 172.38 111.85C171.736 113.093 170.64 113.947 168.882 114.12C168.731 114.138 168.576 114.148 168.412 114.152C163.251 114.307 157.931 114.659 152.78 114.303C147.976 113.969 148.067 113.732 147.346 108.846C146.346 102.028 142.359 93.0906 143.012 86.4096C143.149 84.9848 144.094 83.5509 145.387 83.1033C145.684 82.9983 145.999 82.9481 146.327 82.9618C147.62 83.0166 149.186 83.9162 150.022 82.9252C150.246 82.6558 150.342 82.3042 150.424 81.9662C150.428 81.9525 150.428 81.9388 150.433 81.9251C151.15 78.9614 152.049 76.1255 153.008 73.2485C153.707 71.1524 155.141 69.1613 154.858 66.9693C154.634 65.1929 153.328 63.7818 152.474 62.2063C150.94 59.3749 153.109 56.7171 152.657 53.6666C152.579 53.1277 152.428 52.566 152.036 52.1916C151.643 51.8171 151.09 51.6938 150.574 51.534C149.451 51.1869 148.515 50.6891 147.748 50.0726C147.2 49.6388 146.738 49.141 146.35 48.593C142.309 42.8756 146.446 31.6735 149.026 26.4858C150.045 24.4445 151.218 22.4169 152.976 20.9601C153.2 23.1156 153.182 25.2939 152.913 27.4448C157.447 20.9236 163.818 16.5487 171.759 16.5122C171.494 18.6631 171.225 20.814 170.955 22.9649C171.065 23.0517 171.202 23.111 171.334 23.1476C172.581 23.5038 173.837 22.7274 175.107 22.458C176.376 22.1886 178.143 23.0197 177.773 24.2618C185.902 24.1111 192.816 23.7321 198.607 29.9245C206.754 38.6423 208.21 50.7302 207.781 62.1058Z" fill="#4DB5B1"/>
<path d="M169.214 87.8774C170.185 89.7242 170.855 91.6915 171.449 93.6803C171.59 94.1799 171.718 94.6831 171.835 95.1887C171.955 95.6937 172.087 96.1965 172.177 96.7085C172.376 97.7277 172.556 98.7516 172.681 99.7814C172.952 101.839 173.132 103.901 173.257 105.96C173.384 108.019 173.49 110.073 173.563 112.13L173.152 112.166C172.755 110.134 172.415 108.095 172.104 106.067C171.785 104.039 171.43 102.029 170.986 100.049C170.54 98.0698 170.08 96.1134 169.688 94.1278C169.606 93.6273 169.498 93.1328 169.409 92.6313C169.335 92.1263 169.242 91.6253 169.179 91.1129C169.048 90.0905 168.928 89.0584 168.953 87.9656L169.214 87.8774Z" fill="#13355A"/>
<path d="M79.4787 75.478C77.4324 74.2646 75.1646 73.4645 72.8383 73.0942C70.5112 72.7293 68.1306 72.733 65.8148 73.1193C63.5059 73.5294 61.2436 74.2231 59.1571 75.2802C57.0815 76.3502 55.1512 77.7184 53.4487 79.324C50.0114 82.5152 47.4034 86.5654 45.6689 90.9375C43.9295 95.3192 43.0929 100.032 42.7961 104.758C42.6522 107.128 42.6317 109.505 42.7814 111.869C42.8034 112.157 42.8152 112.482 42.8513 112.72C42.8906 113.003 42.9586 113.327 42.9404 113.723C42.9285 113.92 42.8924 114.149 42.77 114.381C42.7426 114.439 42.7002 114.495 42.6632 114.549C42.6595 114.556 42.6367 114.586 42.6052 114.619C42.5773 114.648 42.5481 114.674 42.5179 114.697C42.4572 114.743 42.391 114.778 42.3152 114.804C42.1727 114.855 41.9425 114.869 41.7361 114.733C41.5357 114.593 41.4955 114.444 41.4722 114.402C41.3534 114.11 41.2429 113.823 41.1416 113.532C40.7333 112.369 40.4429 111.199 40.0962 110.072C39.9241 109.505 39.735 108.963 39.5163 108.414C39.298 107.859 39.0756 107.314 38.829 106.788C38.3404 105.739 37.7293 104.758 36.8831 104.056C36.0634 103.383 34.9281 103.006 33.8892 103.15C33.3686 103.214 32.8919 103.435 32.5192 103.775C32.1448 104.121 31.8858 104.593 31.7233 105.115C31.3926 106.167 31.431 107.376 31.42 108.553C31.4538 109.733 31.5301 110.914 31.7091 112.083C32.0452 114.424 32.6918 116.722 33.5951 118.912C34.513 121.097 35.6826 123.182 37.1224 125.07C37.469 125.552 37.8604 125.999 38.2376 126.457C38.4294 126.679 38.623 126.893 38.8336 127.056C38.8847 127.107 38.9381 127.125 38.9897 127.157L39.0669 127.203C39.0916 127.211 39.1139 127.211 39.1368 127.218L39.2048 127.238C39.2249 127.232 39.2446 127.228 39.2642 127.226C39.3044 127.233 39.3478 127.195 39.3921 127.176C39.577 127.06 39.7629 126.809 39.9524 126.583C40.1396 126.347 40.352 126.113 40.5803 125.897C41.042 125.463 41.632 125.162 42.243 125.011L42.3426 125.412C41.7955 125.567 41.2959 125.841 40.8968 126.238C40.6977 126.439 40.5132 126.653 40.3351 126.891C40.1437 127.123 39.9939 127.385 39.6642 127.617C39.5702 127.668 39.4866 127.729 39.3624 127.741C39.3044 127.752 39.2455 127.76 39.1875 127.766C39.1336 127.759 39.0797 127.749 39.0258 127.738C38.9728 127.727 38.9158 127.717 38.8678 127.7L38.7422 127.636C38.6609 127.591 38.5682 127.549 38.5093 127.495C38.2326 127.292 38.0152 127.059 37.8079 126.834C37.4092 126.378 36.9959 125.932 36.6269 125.45C35.0925 123.565 33.844 121.453 32.8521 119.228C31.873 116.997 31.1529 114.644 30.751 112.23C30.5391 111.024 30.4318 109.802 30.3702 108.577C30.3606 107.358 30.2669 106.122 30.641 104.786C30.8286 104.131 31.1661 103.451 31.7137 102.924C32.264 102.394 32.9891 102.056 33.7107 101.952C34.4359 101.832 35.1542 101.908 35.8278 102.099C36.5041 102.287 37.1348 102.615 37.6987 103.055C38.7847 103.921 39.5094 105.071 40.0666 106.197C40.346 106.762 40.5894 107.332 40.8214 107.889C41.0598 108.454 41.2831 109.06 41.4708 109.64C41.854 110.811 42.1636 111.959 42.5627 113.024C42.6604 113.29 42.7696 113.553 42.8764 113.803C42.8755 113.822 42.8495 113.652 42.5746 113.455C42.2878 113.267 41.9846 113.294 41.8238 113.353C41.7357 113.382 41.6626 113.422 41.5937 113.473C41.5594 113.499 41.5261 113.528 41.4936 113.562L41.4366 113.626C41.4238 113.636 41.4169 113.657 41.4096 113.664C41.3831 113.713 41.3955 113.704 41.3955 113.643C41.4005 113.517 41.3608 113.272 41.305 112.954C41.242 112.551 41.2352 112.297 41.2041 111.979C41.0036 109.541 40.9794 107.097 41.0808 104.664C41.2694 99.7882 42.1211 94.8749 43.9245 90.2466C45.7429 85.6425 48.524 81.3713 52.2162 77.9896C54.0844 76.3255 56.18 74.9231 58.4433 73.8367C60.7147 72.7772 63.1415 72.058 65.6175 71.7927C68.0904 71.5246 70.5979 71.6516 73.0059 72.1863C74.1992 72.5028 75.3765 72.87 76.4848 73.3969C77.6128 73.8737 78.6453 74.5441 79.6271 75.2455L79.4787 75.478Z" fill="#13355A"/>
<path d="M62.7885 57.0745C60.4668 55.8698 57.6327 55.9977 55.396 57.1202C54.8388 57.4129 54.3237 57.7673 53.8579 58.1842C53.3916 58.6066 52.961 59.077 52.5569 59.5789C51.7426 60.5767 50.9973 61.6658 50.1667 62.7276C49.3419 63.782 48.3857 64.8479 47.0773 65.547C46.4138 65.8745 45.6763 66.0836 44.9269 66.1197C44.1665 66.1704 43.4523 66.0005 42.8011 65.853C42.1503 65.7 41.5316 65.5361 40.963 65.5073C40.3858 65.4721 39.8108 65.5598 39.3889 65.8014C39.2848 65.8626 39.187 65.9302 39.1044 66.0101C39.0578 66.0457 39.0258 66.0941 38.9843 66.1339C38.9546 66.175 38.9313 66.206 38.9057 66.2457C38.8153 66.406 38.7673 66.6248 38.7801 66.8472C38.792 67.0696 38.8733 67.2874 38.9792 67.4326C39.0925 67.5801 39.1989 67.6235 39.335 67.6377L39.1884 68.8761C38.8185 68.8113 38.4454 68.7994 38.0755 68.8707C37.7079 68.9556 37.3471 69.099 37.006 69.3045C36.331 69.7296 35.7387 70.348 35.278 71.0585C34.8003 71.7709 34.4783 72.5432 34.2363 73.3898C33.9902 74.2424 33.8025 75.1311 33.5901 76.0367C33.3782 76.94 33.1366 77.8647 32.7631 78.7653C32.395 79.6631 31.858 80.5385 31.1712 81.2468C29.8062 82.6711 28.1407 83.5479 26.8452 84.7279C26.2191 85.3024 25.6834 85.9984 25.3295 86.7606C24.9824 87.5196 24.808 88.3589 25.0048 89.1133C25.1075 89.4896 25.2802 89.8303 25.5414 90.1545C25.8003 90.4815 26.1282 90.7952 26.451 91.1555C26.7785 91.5072 27.0849 91.9524 27.2767 92.4347C27.4726 92.9155 27.5671 93.432 27.5726 93.9321C27.5863 95.9432 26.6278 97.6681 26.2716 99.3582C26.1159 100.214 26.088 101.115 26.3067 101.935C26.5145 102.753 27.0351 103.457 27.8179 103.686L28.0626 103.757L28.0462 104.008C27.7973 107.764 29.1819 111.624 31.7913 114.381L31.4945 114.667C30.0957 113.299 28.991 111.623 28.2508 109.791C27.5027 107.96 27.1502 105.96 27.2228 103.962L27.5877 104.478C27.0552 104.331 26.5483 104.016 26.1853 103.593C25.8177 103.172 25.5838 102.675 25.434 102.179C25.1404 101.178 25.1523 100.165 25.2989 99.1856C25.4656 98.1736 25.8103 97.3187 26.0378 96.4556C26.2816 95.5984 26.4565 94.7472 26.4218 93.9663C26.4054 93.5768 26.3204 93.2165 26.1757 92.8922C26.0282 92.5648 25.8355 92.2894 25.5386 91.9862C25.2523 91.683 24.8988 91.3674 24.5527 90.9592C24.2033 90.5546 23.8951 90.0139 23.7348 89.454C23.4106 88.3055 23.6462 87.1478 24.0604 86.1861C24.4874 85.2143 25.1053 84.3749 25.8546 83.6525C27.311 82.2871 28.928 81.3651 30.0016 80.154C31.0812 79.0023 31.5315 77.4163 31.8941 75.6512C32.0772 74.7722 32.2475 73.846 32.4959 72.898C32.6202 72.4345 32.7864 71.9143 32.9978 71.4362C33.2102 70.9558 33.4513 70.4891 33.744 70.0475C34.3153 69.1616 35.0569 68.3432 36.0356 67.718C36.5315 67.413 37.0955 67.1741 37.7047 67.0367C38.3212 66.9106 38.9683 66.9202 39.5871 67.0362L39.2934 69.5219C38.9381 69.5068 38.5596 69.4219 38.2436 69.236C37.9184 69.0611 37.6695 68.8163 37.4782 68.5642C37.1074 68.0523 36.9462 67.5089 36.911 66.9659C36.8831 66.4234 36.9822 65.8503 37.2919 65.3091C37.3699 65.1785 37.4704 65.0406 37.5622 64.9283C37.6526 64.8319 37.738 64.7282 37.8385 64.6437C38.0317 64.4629 38.2458 64.3136 38.465 64.188C40.2611 63.2317 42.0234 63.782 43.2244 64.067C43.8469 64.2181 44.388 64.3282 44.8611 64.3067C45.3561 64.299 45.8292 64.1834 46.296 63.9798C47.2262 63.5313 48.0852 62.681 48.9122 61.7174C49.7502 60.7589 50.5265 59.6725 51.4828 58.6628C51.9554 58.1573 52.4705 57.6668 53.0386 57.2229C53.614 56.7777 54.2515 56.4037 54.9114 56.1169C56.2408 55.5597 57.6811 55.32 59.0762 55.4711C60.4672 55.5903 61.8176 56.057 62.9268 56.8366L62.7885 57.0745Z" fill="#13355A"/>
<path d="M66.7062 57.7137C67.2099 56.5972 68.3196 55.7688 69.5558 55.4884C70.176 55.3473 70.8354 55.3226 71.483 55.456C71.8063 55.5227 72.1205 55.6428 72.4214 55.7898C72.5753 55.8592 72.7036 55.9556 72.8456 56.0387C72.989 56.1209 73.1196 56.2159 73.242 56.3191C74.2677 57.1155 74.9463 58.1485 75.6007 59.0888C75.9291 59.5637 76.2547 60.0181 76.6081 60.4186C76.9611 60.8195 77.3315 61.1739 77.7466 61.3936C77.8452 61.4643 77.9562 61.4968 78.0631 61.5406C78.169 61.5876 78.2772 61.6301 78.3932 61.6443C78.6202 61.7009 78.8408 61.7347 79.0988 61.7246C79.6098 61.7201 80.2172 61.6109 80.9067 61.6858C82.2836 61.8242 83.4394 62.6517 84.2093 63.6563C84.592 64.1683 84.903 64.7354 85.1021 65.3405C85.3026 65.9369 85.4172 66.5548 85.457 67.169C85.5428 68.4002 85.3624 69.604 85.0875 70.7575L84.7847 70.2776C86.162 70.6274 87.3695 71.4558 88.2417 72.5271C89.118 73.5975 89.6505 74.9461 89.7021 76.317L89.2902 76.3444C89.1171 75.0748 88.4792 73.9291 87.6343 73.0431C86.7872 72.1508 85.6762 71.5507 84.5368 71.3407L83.902 71.2238L84.0216 70.5237C84.2098 69.4245 84.2915 68.3198 84.1463 67.2868C84.0774 66.7704 83.9472 66.2767 83.7586 65.8187C83.5778 65.3716 83.3134 64.9656 83.006 64.6058C82.3808 63.8956 81.5369 63.4294 80.7524 63.4248C80.3761 63.3997 79.855 63.528 79.1435 63.5582C78.7896 63.581 78.369 63.5445 77.9786 63.4568C77.7781 63.4276 77.5877 63.3645 77.3991 63.291C77.21 63.2207 77.0164 63.154 76.8511 63.0517C76.6835 62.9544 76.499 62.8649 76.3487 62.7535L75.8994 62.4147C75.635 62.1749 75.382 61.9174 75.1742 61.6612C74.7417 61.1479 74.3915 60.6286 74.0681 60.1391C73.7453 59.645 73.4284 59.1796 73.132 58.7454C72.8333 58.3092 72.5255 57.9106 72.1876 57.6073C72.1086 57.5192 72.0264 57.4411 71.9387 57.3776C71.8529 57.3132 71.7679 57.2256 71.6811 57.174C71.5108 57.0612 71.3259 56.9552 71.1199 56.8853C70.7167 56.7178 70.2481 56.6387 69.7636 56.6502C68.7923 56.6739 67.7611 57.0379 66.946 57.8526L66.7062 57.7137Z" fill="#13355A"/>
<path d="M40.5868 122.467C40.6127 121.651 40.0974 120.972 39.4356 120.951C38.7739 120.93 38.2164 121.575 38.1905 122.391C38.1645 123.208 38.6798 123.887 39.3416 123.908C40.0033 123.929 40.5608 123.284 40.5868 122.467Z" fill="#F6BB35"/>
<path d="M38.5797 127.155C38.3235 128.199 38.0659 129.258 38.1024 130.332C38.1239 130.964 38.2595 131.616 38.6477 132.114C39.0359 132.612 39.7218 132.914 40.32 132.711C41.1215 132.44 41.4197 131.453 41.4165 130.606C41.4064 128.177 40.1396 125.766 39.7008 123.393C39.2048 123.297 39.2532 124.41 39.161 124.785C38.9674 125.575 38.7733 126.365 38.5797 127.155Z" fill="#F6BB35"/>
<path d="M45.2516 127.626L48.0925 131.71C49.035 133.068 49.9703 134.448 50.9663 135.734C51.0887 135.889 51.2206 136.052 51.338 136.177C51.3955 136.238 51.4517 136.3 51.5175 136.343C51.575 136.392 51.6444 136.439 51.7248 136.485C52.0317 136.667 52.3856 136.84 52.7564 136.984C53.4935 137.281 54.2757 137.519 55.0608 137.738C56.6358 138.172 58.2465 138.516 59.8626 138.819C61.4765 139.134 63.1004 139.412 64.7275 139.626C65.5408 139.732 66.355 139.823 67.1647 139.884C67.5693 139.915 67.9721 139.934 68.3685 139.941C68.5662 139.944 68.7612 139.942 68.9498 139.933L69.5522 139.89C71.1678 139.763 72.7726 139.491 74.3271 139.062C75.1057 138.85 75.8651 138.583 76.6168 138.3C77.357 137.992 78.09 137.663 78.7805 137.262C79.4687 136.86 80.1409 136.426 80.746 135.913C81.3597 135.411 81.9296 134.857 82.4242 134.242C83.4161 133.018 84.1522 131.575 84.4354 130.042C84.4632 129.849 84.5016 129.658 84.5162 129.465C84.5381 129.265 84.5568 129.083 84.539 128.961C84.5313 128.901 84.5176 128.852 84.5084 128.838C84.4988 128.821 84.5062 128.83 84.5062 128.83C84.5326 128.831 84.4861 128.811 84.3527 128.873C84.1185 128.982 83.7577 129.301 83.4143 129.541C83.0677 129.789 82.7142 130.024 82.3543 130.249C80.9081 131.135 79.3677 131.875 77.7247 132.341C76.0939 132.803 74.3257 133.032 72.6091 132.586C71.7583 132.357 70.95 131.919 70.3066 131.315C69.6608 130.711 69.1722 129.973 68.8096 129.197C67.3757 126.052 67.4442 122.619 66.7619 119.428L67.1629 119.33C67.5958 120.96 67.7954 122.614 68.1205 124.228C68.2767 125.036 68.4603 125.833 68.6827 126.612C68.9046 127.389 69.1718 128.149 69.5348 128.844C69.8901 129.543 70.3458 130.171 70.9053 130.66C71.4651 131.148 72.1328 131.48 72.8534 131.649C74.3147 131.98 75.9126 131.739 77.4032 131.257C78.9056 130.778 80.3368 130.033 81.6607 129.159C81.9904 128.937 82.3123 128.707 82.6261 128.467L83.0868 128.098C83.2398 127.974 83.4622 127.784 83.7545 127.637C83.9056 127.563 84.0865 127.488 84.3258 127.456C84.5596 127.42 84.8783 127.456 85.1377 127.59C85.3962 127.714 85.6209 127.947 85.7387 128.171C85.8634 128.398 85.9067 128.598 85.9346 128.774C85.9597 128.95 85.962 129.103 85.9588 129.244C85.9538 129.385 85.9428 129.481 85.9351 129.602C85.9227 129.833 85.8853 130.06 85.857 130.289C85.5684 132.114 84.7541 133.799 83.6595 135.226C83.112 135.945 82.4799 136.593 81.8036 137.177C81.1337 137.773 80.3971 138.279 79.6436 138.745C76.599 140.597 73.1333 141.436 69.7015 141.758L69.0466 141.81C68.8028 141.823 68.5708 141.83 68.3447 141.824C67.8935 141.814 67.457 141.789 67.0272 141.753C66.1669 141.683 65.3243 141.582 64.4863 141.467C62.8118 141.232 61.155 140.948 59.5078 140.599C57.8651 140.229 56.2275 139.833 54.6041 139.307C53.7926 139.038 52.9857 138.752 52.1714 138.379C51.7659 138.193 51.3531 137.992 50.9288 137.687L50.7699 137.571L50.6009 137.423C50.4831 137.324 50.3936 137.216 50.3037 137.107C50.2032 136.991 50.1548 136.91 50.0835 136.814C50.0169 136.72 49.9502 136.627 49.8936 136.537C48.9569 135.095 48.1418 133.665 47.3175 132.211C46.5412 130.735 45.7361 129.281 45.0182 127.773L45.2516 127.626Z" fill="#13355A"/>
<path d="M150.25 24.5033C149.469 25.65 148.796 26.8588 148.258 28.1274C147.702 29.3864 147.253 30.6907 146.884 32.0182C146.141 34.6728 145.629 37.4014 145.159 40.1469C144.919 41.5046 144.707 42.8563 144.741 44.1756C144.767 45.4903 145.071 46.7644 145.784 47.7687C146.489 48.7774 147.634 49.5076 148.799 50.2853C149.383 50.6772 149.983 51.0886 150.542 51.5973C151.098 52.1011 151.614 52.7203 151.939 53.4546C152.284 54.1871 152.381 54.994 152.383 55.7306C152.387 56.4723 152.309 57.1778 152.279 57.8514C152.244 58.5264 152.263 59.1721 152.415 59.7662C152.576 60.3585 152.879 60.9284 153.253 61.4865C153.622 62.0463 154.055 62.5984 154.453 63.2035C154.651 63.5072 154.843 63.8219 155.01 64.1584C155.158 64.5018 155.322 64.8407 155.419 65.2028C155.878 66.6354 155.822 68.1584 155.535 69.5667C155.241 70.9842 154.715 72.3218 154.097 73.595C153.476 74.8741 152.743 76.0669 152.079 77.2848C151.411 78.501 150.784 79.7344 150.33 81.0268C150.11 81.6743 149.925 82.3342 149.82 83.0073C149.72 83.6805 149.688 84.3627 149.735 85.0422L149.324 85.0824C149.236 84.3719 149.23 83.6503 149.299 82.9343C149.372 82.2187 149.527 81.5154 149.721 80.8263C150.115 79.4467 150.717 78.1493 151.35 76.8939C151.979 75.634 152.664 74.417 153.209 73.1739C153.757 71.9291 154.201 70.644 154.418 69.3489C154.629 68.0588 154.611 66.7491 154.187 65.5992C153.819 64.4379 152.932 63.5122 152.059 62.2943C151.628 61.6915 151.208 60.9887 150.96 60.1681C150.722 59.3442 150.688 58.5273 150.701 57.7934C150.737 56.3229 150.863 55.0361 150.38 54.1698C149.947 53.2564 148.933 52.5582 147.785 51.8134C147.209 51.4398 146.594 51.0553 145.979 50.5909C145.368 50.1287 144.744 49.5697 144.238 48.8697C143.728 48.1792 143.377 47.3819 143.171 46.5845C142.961 45.7858 142.88 44.9866 142.869 44.213C142.852 42.6627 143.098 41.2077 143.373 39.8122C143.96 37.0731 144.579 34.2988 145.595 31.6145C146.094 30.2728 146.701 28.9627 147.427 27.7242C148.183 26.5035 149.011 25.3235 150.033 24.3325L150.25 24.5033Z" fill="#13355A"/>
<path d="M147.338 83.5671C146.859 83.2177 146.246 83.1547 145.689 83.2857C145.127 83.4141 144.614 83.7401 144.238 84.153C143.867 84.5562 143.618 85.1078 143.471 85.6636C143.322 86.2271 143.276 86.8267 143.27 87.4323C143.307 89.8901 143.579 92.3949 144.123 94.8084C144.614 97.241 145.463 99.575 146.273 101.98C147.062 104.381 147.829 106.873 147.968 109.499L147.989 110.483L147.948 111.463C147.893 112.081 147.913 112.621 148.143 112.842C148.34 113.093 149.005 113.225 149.605 113.38C150.209 113.53 150.816 113.663 151.427 113.784C153.87 114.261 156.363 114.504 158.858 114.497C160.106 114.494 161.355 114.43 162.597 114.304C163.838 114.187 165.061 113.974 166.245 113.62C166.836 113.443 167.418 113.235 167.973 112.972C168.534 112.722 169.064 112.413 169.561 112.06C170.064 111.712 170.497 111.281 170.887 110.818C171.27 110.346 171.556 109.806 171.786 109.243L172.176 109.379C171.967 109.997 171.69 110.601 171.304 111.139C170.913 111.668 170.465 112.165 169.946 112.573C168.923 113.411 167.721 113.99 166.492 114.409C165.262 114.833 163.981 115.108 162.708 115.281C161.439 115.462 160.159 115.581 158.875 115.636C156.307 115.745 153.719 115.613 151.166 115.203C150.528 115.1 149.891 114.985 149.258 114.851C148.932 114.777 148.65 114.729 148.279 114.629C147.917 114.526 147.434 114.366 147.003 113.936C146.577 113.508 146.393 112.937 146.337 112.505C146.275 112.061 146.294 111.688 146.303 111.366L146.307 110.484L146.255 109.609C146.026 107.27 145.296 104.944 144.472 102.585C143.666 100.231 142.825 97.7443 142.343 95.1741C141.886 92.5958 141.701 90.0198 141.921 87.3779C141.996 86.7057 142.102 86.0088 142.366 85.3334C142.635 84.6589 142.99 84.0137 143.584 83.5013C144.169 83.025 144.86 82.7314 145.579 82.6743C145.937 82.6464 146.303 82.6766 146.643 82.7893C146.982 82.9072 147.286 83.1063 147.517 83.3584L147.338 83.5671Z" fill="#13355A"/>
<path opacity="0.2" d="M197.07 100.263C196.851 100.418 196.529 100.501 196.332 100.547C194.642 100.936 193.175 101.667 191.601 102.406C189.958 103.177 188.322 103.974 186.781 104.935C186.253 105.264 185.772 105.668 185.227 105.968C184.857 106.172 184.463 106.325 184.08 106.5C182.485 107.226 180.92 108.111 179.401 108.988C178.241 109.657 177.136 110.421 176.099 111.269C175.834 111.487 173.371 113.495 173.469 113.705C173.26 113.251 173.324 112.74 173.255 112.259C173.175 111.705 173.033 111.149 172.912 110.604C172.275 111.242 172.322 112.305 171.625 112.971C171.408 113.179 171.15 113.34 170.894 113.5C169.633 114.289 167.968 114.163 166.544 114.215C165.013 114.271 163.483 114.334 161.951 114.382C158.895 114.477 155.832 114.515 152.78 114.304C147.976 113.97 148.067 113.733 147.345 108.846C146.345 102.028 142.359 93.0914 143.012 86.4104C143.149 84.9856 144.094 83.5516 145.386 83.1041C145.185 82.4282 145.003 81.7387 144.843 81.0491C143.281 80.5376 141.975 79.0854 141.651 77.4323C141.226 75.3088 142.158 73.0985 143.678 71.5459C143.674 71.418 143.674 71.2901 143.669 71.1668L143.61 71.1714C143.628 71.1577 143.651 71.144 143.669 71.1349C143.578 67.3263 143.829 63.4994 144.185 59.8187C144.377 57.8477 144.212 55.7603 144.699 53.8308C145.084 52.3047 146.25 50.8876 145.322 49.2975C144.341 47.6165 143.421 46.4319 143.453 44.3454C143.474 42.9919 143.793 41.663 144.11 40.3473C144.663 38.0539 144.702 34.2773 146.671 32.6826C146.358 35.8135 148.167 38.7202 149.902 41.3451C153.066 46.1319 156.464 47.548 161.947 48.9495C168.039 50.5068 172.878 52.2823 177.092 57.2988C181.206 62.197 183.557 68.3538 185.021 74.5809C185.469 76.4888 186.033 78.5173 186.225 80.4673C186.431 82.5593 186.151 84.6143 186.642 86.699C187.016 88.2836 187.699 89.7755 188.378 91.2556C188.718 91.9972 189.059 92.7393 189.399 93.4809C190.369 95.5962 190.751 93.0402 191.226 92.7411C192.4 92.0009 193.724 92.9252 194.427 93.991C194.641 94.3198 194.801 94.6806 194.938 95.0551C195.103 95.4935 195.23 95.9501 195.39 96.3931C195.701 97.2703 196.12 98.106 196.605 98.8993C196.809 99.234 197.4 99.5254 197.294 99.9679C197.267 100.088 197.182 100.185 197.07 100.263Z" fill="#454546"/>
<path d="M165.887 62.4872C167.615 62.7644 169.224 63.6357 170.48 64.8609C171.726 66.0971 172.636 67.6927 173 69.4422C173.182 70.3149 173.195 71.2328 173.078 72.1055C172.97 72.9828 172.77 73.8262 172.6 74.6583C172.43 75.4889 172.288 76.3128 172.291 77.1229C172.29 77.9367 172.455 78.7039 172.777 79.4679C173.087 80.2337 173.488 80.9877 173.842 81.7905C174.019 82.1923 174.185 82.6075 174.315 83.0449L174.663 84.2935C175.109 85.958 175.502 87.634 175.864 89.3136C176.588 92.6724 177.207 96.0426 177.944 99.3721L176.89 99.1324C178.261 97.3171 179.644 95.5101 181.039 93.7136L185.211 88.3126L186.406 86.7645L186.331 88.7172C186.225 91.4695 187.979 94.2561 190.506 95.3512L189.635 95.8344C189.788 94.8306 190.014 93.8597 190.305 92.8948C190.452 92.413 190.618 91.9344 190.816 91.4599C191.016 90.9855 191.242 90.5137 191.557 90.0516L192.129 89.2109L192.621 90.1073C193.122 91.0188 193.623 91.907 194.222 92.6911C194.818 93.4734 195.519 94.1442 196.347 94.5534L195.448 95.2156C195.301 94.3036 195.351 93.361 195.612 92.4669C195.871 91.5741 196.356 90.727 197.048 90.073L197.879 89.2885L198.092 90.405C198.243 91.1923 198.567 91.9513 199.029 92.6116C199.259 92.9359 199.536 93.2556 199.815 93.5085C199.948 93.6268 200.088 93.7209 200.204 93.7684C200.324 93.8173 200.386 93.8141 200.431 93.8008L200.03 94.4616C199.907 93.4862 199.867 92.502 199.947 91.5298C200.038 90.5612 200.191 89.6009 200.436 88.6724C200.91 86.8088 201.612 85.0406 202.33 83.3107C203.049 81.5758 203.785 79.8802 204.348 78.1239C204.923 76.3708 205.383 74.5779 205.743 72.7631C206.467 69.1326 206.786 65.4213 206.881 61.7045C206.929 59.8454 206.921 57.9831 206.876 56.1203C206.831 54.2567 206.754 52.3953 206.607 50.5435C206.309 46.8468 205.733 43.1478 204.421 39.6927C203.763 37.9733 202.951 36.3019 201.893 34.7995C200.856 33.2861 199.62 31.896 198.196 30.726C195.388 28.3367 191.961 26.6909 188.358 25.8799C186.551 25.4999 184.702 25.2931 182.851 25.3497C181.003 25.425 179.168 25.7232 177.393 26.2516L177.268 25.8584C179.069 25.2839 180.941 24.9423 182.832 24.8295C184.727 24.735 186.626 24.9104 188.491 25.2657C192.21 26.0214 195.769 27.6668 198.718 30.1027C201.711 32.4947 203.951 35.7909 205.335 39.3424C206.747 42.9053 207.388 46.6943 207.747 50.4467C207.924 52.3277 208.029 54.2074 208.102 56.0843C208.175 57.9625 208.211 59.8458 208.189 61.7319C208.151 65.503 207.875 69.2956 207.175 73.0407C206.828 74.9122 206.376 76.7703 205.802 78.5956C205.238 80.4296 204.497 82.1965 203.81 83.9163C203.118 85.6406 202.47 87.3486 202.056 89.0743C201.84 89.936 201.717 90.8001 201.647 91.6586C201.586 92.518 201.637 93.367 201.75 94.2027L201.875 95.1293L200.997 95.4434C200.468 95.6325 199.906 95.5384 199.543 95.3836C199.165 95.2279 198.896 95.0288 198.662 94.8292C198.23 94.4456 197.904 94.0689 197.586 93.6355C196.97 92.7779 196.534 91.7928 196.322 90.748L198.297 91.3768C197.419 92.223 197.034 93.6241 197.26 94.9224L197.664 97.2427L195.532 96.196C194.369 95.6252 193.46 94.7301 192.756 93.8131C192.048 92.8898 191.505 91.9248 190.993 91.0033L193.086 91.1129C192.892 91.401 192.703 91.7814 192.539 92.1796C192.374 92.5806 192.228 93.0067 192.097 93.4414C191.838 94.3109 191.631 95.2256 191.501 96.1079L191.262 97.7382L189.754 97.0779C188.115 96.36 186.77 95.1251 185.848 93.6528C184.926 92.1796 184.408 90.4324 184.476 88.6505L186.683 89.4479L182.495 94.8361L180.4 97.5295L178.279 100.203L176.718 102.172L176.232 99.737C175.556 96.349 175.009 92.9665 174.362 89.6246C174.039 87.9537 173.687 86.2946 173.284 84.652L172.984 83.4276C172.892 83.0682 172.761 82.6983 172.61 82.3216C172.309 81.5658 171.927 80.7886 171.609 79.9277C171.451 79.4971 171.309 79.0409 171.224 78.5555C171.143 78.0732 171.106 77.5882 171.123 77.1151C171.15 76.1671 171.342 75.2766 171.542 74.4318C171.745 73.5865 171.966 72.775 172.092 71.9749C172.157 71.5739 172.198 71.1789 172.2 70.7853L172.193 70.1934L172.133 69.6011C171.899 68.0243 171.156 66.4995 170.055 65.2774C168.942 64.0718 167.484 63.142 165.84 62.7594L165.887 62.4872Z" fill="#13355A"/>
<path d="M152.295 27.7602C152.51 27.3634 152.734 26.9684 152.966 26.5761L153.732 25.4454L154.599 24.385L155.537 23.3817C156.851 22.1026 158.348 21.0048 159.963 20.1193C161.589 19.2566 163.319 18.5684 165.122 18.1679C166.92 17.7501 168.778 17.5889 170.62 17.6889L171.254 17.7236L171.171 18.3337C170.861 20.5997 170.242 22.8186 169.32 24.9006L168.959 24.2622C169.806 24.4083 170.736 24.0827 171.6 23.6397C172.476 23.1968 173.363 22.6159 174.423 22.335C174.957 22.1957 175.518 22.1565 176.071 22.2496C176.62 22.341 177.177 22.5853 177.573 23.0173C177.988 23.4644 178.141 24.0749 178.076 24.6403C178.02 25.1997 177.683 25.7984 177.102 26.0071L176.949 25.6235C177.332 25.4399 177.524 25.0125 177.529 24.5887C177.537 24.1631 177.367 23.7379 177.081 23.4972C176.467 22.9593 175.486 22.9123 174.664 23.1931C173.806 23.4772 173.017 24.0539 172.108 24.5923C171.646 24.8622 171.153 25.1166 170.599 25.2997C170.049 25.4819 169.423 25.5897 168.776 25.5166L167.788 25.4047L168.151 24.4097C168.892 22.3812 169.371 20.2677 169.537 18.1383L170.558 19.3334C168.866 19.3411 167.186 19.5868 165.553 19.9919C163.931 20.4362 162.322 20.9664 160.818 21.7455C160.451 21.9537 160.073 22.1428 159.695 22.3346L158.599 22.9812C158.247 23.2173 157.883 23.4402 157.523 23.6712C157.178 23.9215 156.838 24.1786 156.478 24.4183L155.46 25.2175L154.464 26.0646L153.482 26.9565L153.021 27.4374L152.528 27.9077L152.295 27.7602Z" fill="#13355A"/>
<path d="M37.907 211.073C38.581 210.175 39.4167 209.398 40.325 208.719C41.2457 208.056 42.2545 207.515 43.3057 207.077C45.4214 206.225 47.702 205.857 49.9703 205.792C52.2495 205.778 54.4995 206.103 56.6833 206.617C58.8652 207.143 60.991 207.824 63.0816 208.553C65.1755 209.279 67.2492 210.006 69.3535 210.646C71.456 211.291 73.579 211.869 75.7217 212.368C80.0053 213.373 84.3719 214.017 88.771 214.288L88.7564 214.701C84.3134 214.774 79.8619 214.289 75.4797 213.481C73.2882 213.074 71.1053 212.601 68.9489 212.031C66.7893 211.469 64.6503 210.816 62.5432 210.182C60.4289 209.563 58.3474 208.927 56.2513 208.466C54.1643 207.989 52.0614 207.631 49.9781 207.61C48.9323 207.572 47.8874 207.64 46.8504 207.756C45.8105 207.865 44.7853 208.076 43.7724 208.346C41.7667 208.931 39.825 209.841 38.1166 211.255L37.907 211.073Z" fill="#13355A"/>
<path d="M101.958 210.712C101.399 210.763 100.877 210.994 100.416 211.311C99.952 211.626 99.5351 212.011 99.1118 212.397C98.688 212.78 98.2413 213.163 97.7541 213.487C97.27 213.813 96.7622 214.097 96.2526 214.366L93.1956 215.941C92.185 216.44 91.1657 217.095 89.8962 217.201C89.2724 217.254 88.5536 217.064 88.0814 216.547C87.9627 216.415 87.8567 216.257 87.7965 216.063C87.7334 215.871 87.7389 215.642 87.796 215.46C87.9161 215.087 88.1225 214.863 88.2906 214.631C88.992 213.693 89.8044 212.845 90.6803 212.081C92.4293 210.543 94.3985 209.315 96.3612 208.135C96.8512 207.842 97.3435 207.534 97.8778 207.274C98.4053 207.014 98.999 206.805 99.5981 206.743C100.747 206.592 101.916 206.532 103.077 206.606C104.24 206.676 105.382 206.873 106.509 207.084L108.197 207.402C108.757 207.505 109.334 207.603 109.898 207.78C110.474 207.958 110.98 208.234 111.502 208.467C112.022 208.711 112.539 208.96 113.053 209.215C114.082 209.725 115.1 210.256 116.107 210.807C118.121 211.908 120.09 213.088 122.014 214.336L121.903 214.51C119.947 213.321 117.942 212.217 115.916 211.162C114.901 210.638 113.876 210.134 112.841 209.651C112.324 209.409 111.804 209.174 111.283 208.944L110.498 208.602C110.232 208.483 110 208.397 109.734 208.321C109.212 208.17 108.662 208.09 108.092 207.998L106.396 207.721C105.268 207.537 104.151 207.371 103.038 207.326C101.925 207.278 100.813 207.357 99.7045 207.526C98.6893 207.648 97.7842 208.254 96.8088 208.867C94.8812 210.093 92.9586 211.303 91.2986 212.785C90.4698 213.524 89.6916 214.311 89.0345 215.188C88.8605 215.409 88.7011 215.633 88.6833 215.721C88.6714 215.769 88.6728 215.762 88.6783 215.791C88.6851 215.819 88.7139 215.873 88.7641 215.93C89.0002 216.188 89.3884 216.321 89.846 216.296C90.3063 216.283 90.8155 216.135 91.3119 215.936C91.8023 215.741 92.3243 215.473 92.8431 215.234C93.8783 214.748 94.9145 214.244 95.9553 213.784C96.4699 213.548 96.9723 213.302 97.4472 213.019C97.9244 212.742 98.3564 212.402 98.8103 212.047C99.2666 211.701 99.7319 211.34 100.252 211.052C100.512 210.91 100.783 210.78 101.07 210.696C101.359 210.615 101.656 210.573 101.95 210.575L101.958 210.712Z" fill="#13355A"/>
<path d="M107.285 211.387C109.715 212.587 112.12 213.799 114.516 215.089C116.881 216.44 119.113 218.019 121.176 219.79C121.697 220.226 122.205 220.678 122.71 221.131L123.463 221.818C123.734 222.055 123.98 222.374 124.143 222.704C124.475 223.38 124.611 224.111 124.479 224.883C124.396 225.27 124.212 225.626 123.949 225.919C123.69 226.212 123.332 226.451 122.91 226.522C122.482 226.603 122.051 226.45 121.745 226.285L120.845 225.814C120.246 225.506 119.634 225.2 119.042 224.841C118.436 224.49 117.912 224.024 117.367 223.704C117.229 223.624 117.089 223.551 116.946 223.489C116.838 223.441 116.692 223.416 116.533 223.399L116.029 223.355C115.85 223.331 115.666 223.323 115.433 223.202L115.698 222.738C116.564 223.243 117.289 223.967 117.812 224.813C118.335 225.662 118.657 226.623 118.698 227.638C118.7 227.895 118.672 228.164 118.576 228.422C118.481 228.68 118.315 228.916 118.11 229.094C117.693 229.449 117.159 229.6 116.643 229.6C116.116 229.599 115.624 229.425 115.184 229.199C114.742 228.972 114.346 228.687 113.958 228.409L114.237 228.325C114.05 228.799 113.719 229.208 113.318 229.506C112.917 229.806 112.45 230.006 111.966 230.105C111.481 230.203 110.975 230.202 110.491 230.084C110.009 229.967 109.55 229.723 109.2 229.365L109.43 229.318C108.801 230.865 107.361 232.03 105.732 232.327L105.694 232.124C107.241 231.794 108.566 230.633 109.098 229.186L109.211 228.878L109.452 229.113C110.074 229.72 111.034 229.888 111.878 229.69C112.726 229.5 113.499 228.931 113.778 228.148L113.91 227.777L114.243 228.008C115.013 228.541 115.823 229.059 116.641 229.041C117.045 229.033 117.451 228.893 117.718 228.649C117.985 228.406 118.089 228.067 118.07 227.65C118.015 226.8 117.704 225.916 117.224 225.183C116.743 224.441 116.086 223.815 115.325 223.393L115.807 222.55C115.804 222.547 115.849 222.563 115.903 222.573C115.958 222.583 116.031 222.591 116.104 222.597L116.613 222.632C116.796 222.65 117.01 222.671 117.254 222.77C117.433 222.843 117.604 222.928 117.766 223.019C118.091 223.203 118.383 223.408 118.66 223.604C118.932 223.798 119.188 223.963 119.472 224.127C120.031 224.451 120.631 224.736 121.241 225.034L122.147 225.486C122.426 225.622 122.595 225.656 122.759 225.625C123.102 225.577 123.495 225.137 123.574 224.691C123.59 224.635 123.59 224.584 123.598 224.526C123.6 224.458 123.604 224.389 123.601 224.32C123.6 224.183 123.588 224.044 123.563 223.908C123.518 223.635 123.432 223.37 123.308 223.134C123.178 222.888 123.041 222.707 122.823 222.51L122.084 221.828C121.587 221.379 121.089 220.932 120.578 220.499C118.533 218.774 116.433 217.103 114.154 215.714C113.03 215.016 111.834 214.34 110.678 213.649C109.518 212.95 108.361 212.246 107.22 211.512L107.285 211.387Z" fill="#13355A"/>
<path d="M90.0985 221.238C88.9505 221.611 88.2079 222.856 88.4331 223.966C88.5344 224.523 88.8386 225.031 89.2528 225.392C89.6674 225.746 90.2401 225.92 90.826 226.129C91.1201 226.236 91.4242 226.35 91.7206 226.527C92.0147 226.7 92.3015 226.957 92.4741 227.29C92.659 227.628 92.6896 227.959 92.7938 228.183C92.8919 228.413 93.0531 228.62 93.2596 228.786C93.6765 229.124 94.2204 229.294 94.7889 229.315C95.3602 229.342 95.9512 229.247 96.5558 229.146L97.0933 229.056L96.9015 229.565C96.7987 229.837 96.8887 230.162 97.101 230.447C97.317 230.736 97.6075 230.956 97.9632 231.113C98.3203 231.279 98.7199 231.404 99.1236 231.581C99.325 231.67 99.5278 231.772 99.7209 231.901C99.9178 232.029 100.088 232.189 100.237 232.326C100.532 232.607 100.822 232.774 101.189 232.818C101.546 232.868 101.931 232.789 102.297 232.655C103.038 232.383 103.692 231.874 104.326 231.343C105.585 230.277 106.693 229.007 107.55 227.601C107.958 226.893 108.225 226.104 108.299 225.288C108.32 225.085 108.324 224.879 108.323 224.675C108.32 224.474 108.295 224.282 108.197 224.139C108 223.842 107.541 223.715 107.228 223.898L107.122 223.722C107.539 223.464 108.113 223.587 108.416 223.987C108.572 224.198 108.605 224.451 108.62 224.666C108.631 224.882 108.638 225.098 108.626 225.315C108.593 226.184 108.328 227.04 107.924 227.809C107.082 229.312 105.998 230.647 104.728 231.807C104.099 232.371 103.419 232.961 102.548 233.313C102.117 233.485 101.629 233.611 101.101 233.557C100.84 233.536 100.574 233.458 100.333 233.338C100.084 233.223 99.8785 233.049 99.7155 232.911C99.5469 232.767 99.4195 232.657 99.2789 232.573C99.1355 232.485 98.9738 232.408 98.798 232.338C98.4464 232.196 98.0395 232.082 97.6089 231.9C97.4006 231.813 97.1568 231.689 96.949 231.536C96.7389 231.383 96.5467 231.204 96.3786 230.989C96.2105 230.776 96.0703 230.517 95.9941 230.214C95.9169 229.913 95.9233 229.558 96.0384 229.246L96.7065 230.054C96.1005 230.16 95.4493 230.279 94.7428 230.253C94.0418 230.234 93.2714 230.003 92.6709 229.508C92.3677 229.261 92.1033 228.93 91.9421 228.542C91.7841 228.145 91.7553 227.858 91.6649 227.72C91.579 227.561 91.4516 227.419 91.2543 227.283C91.0566 227.149 90.8018 227.033 90.5278 226.92C89.9857 226.689 89.319 226.477 88.7513 225.96C88.2029 225.458 87.9033 224.757 87.8316 224.056C87.764 223.349 87.9714 222.617 88.4061 222.095C88.8313 221.571 89.4245 221.195 90.062 221.105L90.0985 221.238Z" fill="#13355A"/>
<path d="M92.0074 220.421C92.6093 220.115 93.2413 219.845 93.9039 219.676C94.0692 219.632 94.235 219.591 94.4026 219.555C94.5688 219.522 94.7757 219.468 95.0269 219.55C95.2794 219.625 95.4625 219.908 95.4794 220.139C95.5054 220.371 95.4607 220.571 95.3981 220.756C95.2534 221.141 95.0565 221.4 94.8634 221.696C94.6656 221.984 94.4437 222.254 94.2003 222.505C93.7176 223.008 93.1691 223.449 92.5714 223.811L92.3202 223.242C93.3988 222.912 94.4108 222.35 95.4073 221.752C96.4033 221.149 97.3796 220.483 98.4322 219.925C99.4798 219.369 100.62 218.911 101.827 218.803C102.443 218.749 103.059 218.847 103.622 219.105C103.899 219.239 104.173 219.428 104.337 219.72C104.51 220.012 104.487 220.381 104.365 220.665C104.343 220.718 104.282 220.742 104.23 220.72C104.18 220.699 104.156 220.641 104.173 220.591C104.258 220.33 104.246 220.057 104.104 219.854C103.967 219.648 103.733 219.504 103.484 219.407C102.979 219.22 102.402 219.153 101.875 219.235C100.758 219.404 99.72 219.893 98.745 220.488C97.7678 221.087 96.833 221.782 95.8475 222.452C94.8675 223.125 93.8048 223.761 92.5892 224.144C92.2595 224.247 91.9083 224.064 91.8046 223.735C91.716 223.454 91.8361 223.158 92.0772 223.012L92.0873 223.006C92.6125 222.689 93.1052 222.311 93.5372 221.869C93.7514 221.647 93.9573 221.417 94.1533 221.177C94.3368 220.945 94.5515 220.646 94.6378 220.476C94.688 220.376 94.7136 220.27 94.7186 220.225C94.7127 220.18 94.7583 220.248 94.7698 220.216C94.7825 220.195 94.6684 220.168 94.5104 220.184C94.3487 220.194 94.187 220.209 94.0249 220.226C93.3792 220.306 92.7243 220.403 92.0622 220.549L92.054 220.551C92.0165 220.559 91.98 220.535 91.9718 220.498C91.964 220.466 91.98 220.435 92.0074 220.421Z" fill="#13355A"/>
<path d="M98.4829 226.339C98.8359 226.066 99.1634 225.745 99.4935 225.432L100.498 224.505C101.167 223.884 101.863 223.293 102.56 222.699C103.269 222.119 103.999 221.562 104.757 221.035C105.526 220.523 106.29 219.99 107.249 219.709C107.491 219.645 107.755 219.596 108.055 219.645C108.202 219.67 108.363 219.731 108.494 219.839C108.631 219.955 108.699 220.059 108.777 220.184C109.069 220.703 108.968 221.288 108.801 221.735C108.445 222.655 107.841 223.375 107.234 224.068C105.991 225.433 104.593 226.619 103.146 227.736C103.101 227.77 103.037 227.762 103.002 227.717C102.969 227.674 102.974 227.614 103.013 227.578L103.018 227.574C104.355 226.343 105.681 225.089 106.801 223.693C107.346 222.999 107.869 222.247 108.112 221.494C108.23 221.118 108.224 220.776 108.085 220.587C108.056 220.544 107.988 220.471 107.988 220.481C107.977 220.475 107.96 220.47 107.914 220.467C107.825 220.458 107.657 220.483 107.485 220.543C106.772 220.802 106.004 221.3 105.291 221.808C104.559 222.309 103.841 222.851 103.125 223.401C102.401 223.941 101.683 224.497 100.925 225.011C100.17 225.526 99.4255 226.069 98.5569 226.454L98.5537 226.456C98.5185 226.471 98.4774 226.456 98.4619 226.42C98.4487 226.392 98.4583 226.358 98.4829 226.339Z" fill="#13355A"/>
<path d="M27.8352 152.301C26.5497 152.034 25.2085 152.269 24.0476 152.834C22.8785 153.395 21.8753 154.265 21.0784 155.274C20.6779 155.779 20.3322 156.326 20.0527 156.902C19.7728 157.473 19.565 158.094 19.3882 158.713C19.0489 159.962 18.9092 161.264 18.8955 162.571C18.8576 165.186 19.264 167.833 19.6412 170.47C20.0372 173.106 20.5327 175.724 21.0729 178.332C22.1789 183.544 23.6403 188.68 25.4386 193.694C26.3405 196.205 27.3237 198.665 28.3654 201.14C29.3966 203.687 30.0327 206.303 30.8291 208.838C31.6201 211.365 32.5361 213.87 34.0564 215.965C34.4322 216.488 34.8505 216.977 35.3076 217.425C35.7602 217.878 36.2543 218.287 36.785 218.642C37.8358 219.374 39.0345 219.862 40.2931 220.209C42.8162 220.909 45.4986 221.069 48.1656 221.55C50.7886 222.019 53.4391 222.38 56.0924 222.714C61.4002 223.378 66.7268 223.924 72.0579 224.404C77.389 224.88 82.7279 225.306 88.0714 225.562L88.0549 225.975C77.3347 225.637 66.6459 224.82 55.9759 223.676C53.3085 223.381 50.6425 223.059 47.9769 222.624C45.3908 222.214 42.6778 222.12 39.9615 221.436C38.6139 221.098 37.2343 220.575 36.0274 219.774C35.4172 219.384 34.8482 218.929 34.3286 218.429C33.8043 217.932 33.3253 217.392 32.8978 216.819C31.1716 214.524 30.1715 211.885 29.3116 209.32C28.4531 206.748 27.764 204.161 26.7547 201.811C26.2314 200.609 25.6651 199.348 25.161 198.103C24.6541 196.849 24.1632 195.588 23.7033 194.316C22.7813 191.773 21.9141 189.207 21.1907 186.599C20.4632 183.993 19.8216 181.363 19.2736 178.714C18.7101 176.067 18.3078 173.389 17.979 170.706C17.8159 169.362 17.6698 168.027 17.5556 166.667C17.4524 165.308 17.3725 163.925 17.4629 162.529C17.5547 161.135 17.7826 159.727 18.2311 158.375C18.4649 157.7 18.7243 157.044 19.08 156.406C19.4307 155.775 19.8495 155.188 20.323 154.654C21.2738 153.59 22.4653 152.749 23.7832 152.24C24.4422 151.986 25.1372 151.827 25.8377 151.78C26.5396 151.741 27.2411 151.831 27.8987 152.032L27.8352 152.301Z" fill="#13355A"/>
<g opacity="0.4">
<path opacity="0.4" d="M201.419 42.8172C201.198 42.4418 201.043 42.0495 200.826 41.6824C200.634 41.3061 200.45 40.9298 200.236 40.569C199.83 39.837 199.407 39.1232 198.969 38.4213C198.525 37.7226 198.061 37.0371 197.551 36.3864C197.064 35.7178 196.516 35.0963 195.968 34.4743C194.841 33.2587 193.577 32.1599 192.189 31.2306L190.036 29.8675C189.689 29.6396 189.358 29.4989 188.95 29.3688C188.552 29.2405 188.14 29.1231 187.731 29.0039L187.824 28.6021C188.252 28.6477 188.678 28.6902 189.115 28.75C189.333 28.7829 189.559 28.8135 189.792 28.8838C190.026 28.9528 190.252 29.05 190.453 29.1423C191.247 29.52 191.985 29.8273 192.795 30.2447C194.369 31.058 195.842 32.0882 197.195 33.2742C198.551 34.4565 199.699 35.8936 200.532 37.4938C200.926 38.3062 201.28 39.1387 201.472 40.0265C201.691 40.9001 201.775 41.8157 201.683 42.7386L201.419 42.8172Z" fill="white"/>
</g>
<path d="M158.857 70.7857C158.973 69.9244 159.309 69.0901 159.78 68.3407C160.261 67.594 160.9 66.9515 161.622 66.4181C162.348 65.8829 163.185 65.5075 164.076 65.2828C164.966 65.0755 165.965 65.0066 166.94 65.4317C167.421 65.6441 167.849 66.0222 168.14 66.4391C168.437 66.8574 168.626 67.3045 168.775 67.7329C169.044 68.5845 169.269 69.4102 169.418 70.2733C169.723 71.9858 169.817 73.7353 169.676 75.4638C169.414 78.9216 168.306 82.2964 166.489 85.2177C166.035 85.9493 165.536 86.6462 165.005 87.3257C164.459 87.9947 163.835 88.6468 163.041 89.098C162.645 89.3222 162.217 89.4917 161.755 89.5679C161.287 89.646 160.816 89.6013 160.375 89.4679C159.936 89.3355 159.516 89.1172 159.181 88.7843C158.84 88.4642 158.61 87.9924 158.602 87.5084L159.014 87.4947C159.098 88.2331 159.824 88.7172 160.543 88.8491C161.281 89.003 161.99 88.8007 162.621 88.3847C163.247 87.9737 163.763 87.3727 164.23 86.7192C164.689 86.0484 165.125 85.3515 165.51 84.6341C167.045 81.7594 167.899 78.5527 167.963 75.356C167.983 73.759 167.869 72.1671 167.551 70.6167C167.388 69.8536 167.218 69.0481 167.001 68.3352C166.892 67.9954 166.767 67.7091 166.629 67.5036C166.487 67.294 166.352 67.1794 166.158 67.0716C165.775 66.8369 165.098 66.783 164.423 66.8812C163.729 66.9711 163.03 67.2232 162.363 67.5465C161.708 67.8932 161.069 68.3283 160.526 68.8864C160.236 69.1522 159.985 69.4591 159.749 69.7851C159.636 69.9509 159.524 70.1208 159.427 70.2998C159.31 70.4724 159.226 70.6601 159.126 70.8473L158.857 70.7857Z" fill="#13355A"/>
<g opacity="0.4">
<path opacity="0.4" d="M202.828 45.2871C203.501 45.8036 203.957 46.5005 204.296 47.2384C204.448 47.6152 204.594 47.9956 204.704 48.3879L204.84 48.9825C204.881 49.1816 204.903 49.3848 204.935 49.5848C205.036 50.3908 205.07 51.2014 205.023 52.0042C204.978 52.8061 204.878 53.603 204.655 54.3688L204.247 54.3067C204.139 53.5162 204.008 52.7632 203.866 52.0307C203.719 51.2982 203.512 50.589 203.25 49.9118C202.971 49.2373 202.744 48.5806 202.594 47.8801C202.553 47.7061 202.519 47.5284 202.501 47.3417C202.475 47.1585 202.458 46.9695 202.463 46.7658C202.449 46.5717 202.462 46.3598 202.478 46.1411C202.5 45.9187 202.518 45.6935 202.59 45.4282L202.828 45.2871Z" fill="white"/>
</g>
<g opacity="0.4">
<path opacity="0.4" d="M163.188 68.3236C163.317 68.1921 163.472 68.0984 163.629 67.9829C163.786 67.8779 163.983 67.8372 164.174 67.7806C164.27 67.7473 164.372 67.7363 164.477 67.7432L164.795 67.7514C165.008 67.7664 165.208 67.8642 165.416 67.9299C166.202 68.3391 166.622 69.0593 166.846 69.7274C167.079 70.4055 167.193 71.0786 167.248 71.7468C167.304 72.4139 167.326 73.0743 167.267 73.7319L166.856 73.7602C166.586 73.1368 166.342 72.5331 166.109 71.9554C165.874 71.381 165.595 70.833 165.271 70.4083C164.93 69.9836 164.663 69.7068 164.532 69.52C164.488 69.4945 164.463 69.4132 164.409 69.3561C164.349 69.3155 164.303 69.1995 164.197 69.1355C164.147 69.0967 164.094 69.0711 164.033 69.0177C163.973 68.967 163.907 68.9168 163.83 68.8862C163.676 68.8008 163.507 68.7177 163.289 68.5811L163.188 68.3236Z" fill="white"/>
</g>
</g>
<defs>
<clipPath id="clip0">
<rect width="264.953" height="274" fill="white"/>
</clipPath>
</defs>
</svg>
