<svg width="81" height="81" viewBox="0 0 81 81" fill="none" xmlns="http://www.w3.org/2000/svg">
<g clip-path="url(#clip0)">
<path d="M65.8646 66.6737C82.8144 49.7239 85.0427 24.4711 70.8416 10.2699C56.6405 -3.93118 31.3876 -1.70293 14.4378 15.2469C-2.512 32.1967 -4.74027 57.4495 9.46086 71.6507C23.662 85.8518 48.9148 83.6235 65.8646 66.6737Z" fill="#F6BB35"/>
<path d="M68.7162 17.246C73.4786 17.246 77.3392 13.3854 77.3392 8.623C77.3392 3.86065 73.4786 0 68.7162 0C63.9539 0 60.0932 3.86065 60.0932 8.623C60.0932 13.3854 63.9539 17.246 68.7162 17.246Z" fill="#F6BB35"/>
<path d="M8.623 77.3393C13.3854 77.3393 17.246 73.4786 17.246 68.7163C17.246 63.9539 13.3854 60.0933 8.623 60.0933C3.86065 60.0933 0 63.9539 0 68.7163C0 73.4786 3.86065 77.3393 8.623 77.3393Z" fill="#F6BB35"/>
<path d="M24.2551 16.7558C24.5141 15.9274 24.9272 15.2198 25.396 14.5541C25.6256 14.2167 25.8911 13.9142 26.1493 13.6012C26.4204 13.3034 26.7043 13.0171 26.9915 12.7341C28.1593 11.6231 29.5123 10.7195 30.9483 9.98975C31.6541 9.60482 32.4018 9.29549 33.1293 8.96357C33.8821 8.67913 34.6156 8.3615 35.3864 8.13838C36.8952 7.61145 38.4866 7.35053 40.0526 7.17627L40.2246 7.99178C39.5381 8.41682 38.8526 8.75612 38.1957 9.14935C37.5369 9.53705 36.8952 9.92475 36.271 10.3337C35.6362 10.7126 35.0332 11.1469 34.4362 11.5664C33.8591 12.0292 33.2764 12.4584 32.7398 12.9563C31.6642 13.9419 30.5671 14.815 29.3334 15.5632C28.7203 15.9417 28.0523 16.2626 27.3032 16.53C26.5471 16.7918 25.7321 17.0117 24.6902 17.1062L24.2551 16.7558Z" fill="white"/>
<path d="M14.8405 67.6435C17.1732 68.2668 19.4925 68.8237 21.8095 69.3133C24.131 69.7844 26.4536 70.1822 28.7881 70.4335C31.118 70.7216 33.4617 70.8276 35.7985 70.8C38.1367 70.7903 40.4689 70.5888 42.7803 70.2417C47.3926 69.5216 51.8985 67.9745 56.0018 65.6741C60.1038 63.3696 63.766 60.2574 66.6864 56.5081L67.3659 56.9907C67.0465 57.5107 66.7321 58.0386 66.4006 58.5572L65.3315 60.0628C64.9475 60.5432 64.5681 61.0328 64.174 61.5108L62.9214 62.8832L61.5956 64.1925L60.2015 65.4367C59.7203 65.8318 59.2261 66.213 58.7328 66.5966L57.2023 67.679C53.0477 70.4708 48.3469 72.4965 43.3939 73.6522C38.4548 74.8416 33.263 74.9563 28.3017 74.0735C25.8202 73.6351 23.3902 72.9404 21.0875 71.9515C18.7821 70.9816 16.5808 69.7646 14.6275 68.1594L14.8405 67.6435Z" fill="#13355A"/>
<path d="M26.0834 63.713C27.3564 63.713 28.3884 62.681 28.3884 61.408C28.3884 60.135 27.3564 59.103 26.0834 59.103C24.8104 59.103 23.7784 60.135 23.7784 61.408C23.7784 62.681 24.8104 63.713 26.0834 63.713Z" fill="#13355A"/>
<path d="M41.5269 66.2484C42.7999 66.2484 43.8319 65.2164 43.8319 63.9434C43.8319 62.6704 42.7999 61.6384 41.5269 61.6384C40.2539 61.6384 39.2219 62.6704 39.2219 63.9434C39.2219 65.2164 40.2539 66.2484 41.5269 66.2484Z" fill="#13355A"/>
<path d="M34.6119 57.9503C35.8849 57.9503 36.9169 56.9183 36.9169 55.6453C36.9169 54.3723 35.8849 53.3403 34.6119 53.3403C33.3389 53.3403 32.3069 54.3723 32.3069 55.6453C32.3069 56.9183 33.3389 57.9503 34.6119 57.9503Z" fill="#13355A"/>
</g>
<defs>
<clipPath id="clip0">
<rect width="80.1914" height="81" fill="white"/>
</clipPath>
</defs>
</svg>
