<svg width="72" height="72" viewBox="0 0 72 72" fill="none" xmlns="http://www.w3.org/2000/svg">
<path d="M72 36C72 38.8268 71.6727 41.5759 71.0591 44.2105C67.3445 60.1364 53.055 72 36 72C35.4559 72 34.9159 71.9877 34.38 71.9632C32.265 71.8691 30.1991 71.595 28.1945 71.1491C12.0641 67.5859 0 53.2023 0 36C0 27.9409 2.64682 20.5036 7.12227 14.5064C7.12227 14.5064 7.12227 14.5064 7.12636 14.5023C8.61955 12.4895 10.3255 10.6405 12.2073 8.98773C18.5482 3.39136 26.8773 0 36 0C46.6977 0 56.3073 4.66773 62.8977 12.0805C68.5595 18.4377 72 26.8159 72 36Z" fill="#F6BB35"/>
<path d="M42.6805 13.0952C41.0114 14.4452 38.6182 17.4606 36.394 16.8097C33.3982 15.9326 33.4518 12.1817 29.2934 12.3265C27.5077 12.3887 25.7924 13.0195 24.1531 13.7313C22.7303 14.3486 21.303 15.0572 20.239 16.1854C19.1749 17.3137 18.529 18.9488 18.9458 20.4428C19.8589 23.7143 21.9502 21.9937 23.7903 21.5678C24.1949 21.4742 24.6154 21.4864 25.0282 21.5355C27.0086 21.7699 30.9383 23.3126 30.834 25.6522C30.7264 28.0679 29.5654 30.4177 27.7122 31.971C26.71 32.8113 25.4991 33.4478 24.7545 34.5229C23.2585 36.6833 24.1896 39.637 23.7453 42.2269C23.6524 42.769 23.443 43.3654 22.9402 43.5884C22.6964 43.6964 22.419 43.6976 22.1535 43.6743C18.7188 43.3703 16.758 39.6947 13.3131 42.6647C11.4333 44.2855 10.9608 46.6881 12.8827 48.468C15.0627 50.4869 19.2821 49.3558 21.9854 49.2547C23.6168 49.1937 25.2826 49.1369 26.847 49.6032C28.3774 50.0598 29.7336 51.0027 30.8393 52.1552C31.8592 53.2176 32.8144 54.543 34.2606 54.8208C34.7703 54.9186 35.2976 54.8719 35.8126 54.9407C39.4171 55.4234 40.8461 59.941 39.3828 62.7678C38.1187 65.2101 36.4537 69.4401 34.3796 71.9642C32.9204 71.8991 31.1024 71.9294 29.7098 71.4512C28.0101 70.8678 28.3676 70.7361 27.405 69.3963C26.0292 67.4817 24.354 66.2982 22.3536 64.8402C20.2492 63.3066 18.1084 61.7369 16.5829 59.6272C14.8332 57.2078 14.5477 54.5115 13.4329 51.8639C12.5939 49.8712 11.4529 49.9534 9.96546 48.4165C8.11228 46.5019 8.73001 43.3397 7.80137 40.8442C7.44137 39.8828 6.85228 39.0278 6.32455 38.1483C6.25092 38.0215 6.17319 37.8947 6.10364 37.7637C4.14819 34.3151 3.72682 30.1628 4.1891 26.2233C4.6391 22.3533 6.15273 18.8433 6.98728 15.0878C7.02819 14.8956 7.07319 14.7033 7.12637 14.5028C8.31601 12.8996 10.465 9.62239 12.3811 9.0472C12.6368 8.97029 13.221 9.76311 13.626 9.71075C14.2372 9.63179 14.7633 9.34993 15.3618 9.23416C16.3321 9.04639 17.3602 8.73588 18.2806 8.3767C22.1347 6.87166 25.0036 2.64902 29.1391 2.78239C30.8131 2.83639 32.3804 3.63779 34.0462 3.80879C35.8462 3.99329 37.6343 3.43407 39.4409 3.33629C45.0057 3.0352 46.7771 9.78152 42.6805 13.0952Z" fill="#13355A"/>
<path d="M11.4173 17.2976C11.6194 16.5547 11.9626 15.9133 12.3566 15.3074C12.5488 15.0006 12.7747 14.7236 12.9931 14.4377C13.2234 14.1644 13.466 13.9013 13.7115 13.6408C14.7105 12.6168 15.8805 11.7712 17.1298 11.0766C17.7431 10.7117 18.396 10.413 19.0301 10.0948C19.6883 9.81739 20.3281 9.5122 21.0043 9.28843C22.3249 8.77134 23.7277 8.48743 25.1104 8.28125L25.2896 8.9988C24.6948 9.39848 24.0983 9.72166 23.5284 10.0923C22.9569 10.4576 22.401 10.8229 21.861 11.2063C21.3108 11.5634 20.79 11.968 20.2745 12.3599C19.7783 12.789 19.2751 13.1891 18.8161 13.6485C17.8948 14.5579 16.9507 15.3688 15.8817 16.0724C15.3503 16.4283 14.7686 16.7347 14.1132 16.9969C13.4513 17.2543 12.7358 17.476 11.8149 17.5938L11.4173 17.2976Z" fill="white"/>
<path d="M72 36C72 37.6311 71.8908 39.2617 71.6719 40.8776C71.5774 41.5759 71.5934 42.7971 71.2371 43.4074C70.7224 44.289 71.0485 43.9458 69.9758 44.1585C69.5083 44.2526 69.2898 44.7759 68.9764 45.135C68.3538 45.8485 67.1167 45.8959 66.4413 45.2316C66.1656 44.9604 65.9876 44.6053 65.7348 44.3124C65.482 44.0194 65.1028 43.7793 64.7256 43.8656C64.1983 43.9863 64.0064 44.6241 63.9098 45.1563C63.6288 46.7043 63.3473 48.2519 63.0663 49.7999C62.6318 52.1914 61.7028 53.5247 60.1286 55.2924C58.3 57.346 57.2732 59.9928 55.6 62.1814C54.2357 63.9626 50.004 67.5647 48.6659 64.2056C47.8174 62.0755 48.7383 59.5297 48.2359 57.3742C47.6346 54.7929 46.1537 52.2896 43.7891 51.0828C42.1691 50.2564 40.2668 50.0969 38.6755 49.2214C31.5458 45.2995 37.2191 34.9352 40.4068 30.492C41.5673 28.8741 43.0953 27.2353 45.0823 27.1056C46.3116 27.0254 51.6126 28.1647 52.2446 26.7562C52.4684 26.2579 52.1464 25.6509 51.6784 25.3698C51.21 25.0888 50.6406 25.0503 50.0953 25.0196C49.1204 24.9644 48.1455 24.9088 47.1707 24.8535C42.559 24.5917 42.4759 18.5822 45.934 16.4676C47.232 15.6739 48.8038 15.4866 50.3227 15.3978C52.0082 15.2992 53.6993 15.2988 55.3848 15.3966C56.6333 15.469 57.9073 15.5929 59.1182 15.2808C61.0871 14.7735 61.1419 12.6737 62.7137 12.1374C62.775 12.1169 62.8364 12.0964 62.8978 12.0801C68.5596 18.4378 72 26.8159 72 36Z" fill="#13355A"/>
</svg>
