<svg width="268" height="274" viewBox="0 0 268 274" fill="none" xmlns="http://www.w3.org/2000/svg">
<g clip-path="url(#clip0)">
<path d="M144.795 34.3375C148.816 33.5717 153.228 34.9093 155.979 37.7283C158.291 35.9473 161.777 35.5979 164.448 36.8798C167.119 38.1617 168.817 40.9989 168.573 43.7727C168.616 43.2805 171.772 43.7326 172.198 43.8239C174.854 44.392 177.268 46.6004 177.578 49.1454C177.599 49.3226 177.612 49.5066 177.552 49.6761C177.475 49.8902 177.29 50.0574 177.09 50.1862C176.176 50.7757 163.597 50.9177 158.458 50.699C150.549 50.3748 142.641 50.8013 134.732 50.4771C133.31 50.4186 131.57 49.4034 131.098 48.1613C130.589 46.821 132.048 45.5236 133.483 45.0185C135.182 44.4212 137.083 44.3276 138.839 44.7559C131.267 42.3657 140.999 35.0605 144.795 34.3375Z" fill="#DADADA"/>
<path d="M97.2654 90.4478C97.4595 90.3099 97.6303 90.1341 97.77 89.908C98.1728 89.2564 103.315 74.4229 103.626 74.0987C103.63 74.0955 103.633 74.0923 103.636 74.0891C104.097 73.6174 104.903 73.8941 105.036 74.5398C105.198 75.3235 105.307 76.1163 105.255 76.9122C105.141 78.6736 102.753 97.2722 101.781 101.624C102.471 100.711 103.839 99.8483 104.452 99.0715C104.736 98.7121 105.726 97.2905 105.827 96.8439C105.916 96.4502 105.985 96.0415 106.196 95.6977C106.408 95.3538 106.807 95.0871 107.202 95.1688C107.766 95.2853 107.974 95.9726 108.045 96.5443C108.751 102.196 103.513 110.08 98.9163 113.045C97.4723 113.976 95.8493 114.737 94.8035 116.1C93.7089 117.528 93.4175 119.395 93.1618 121.175C92.9837 122.413 93.1824 126.18 91.7338 126.609C91.2077 126.766 90.6428 126.655 90.109 126.526C87.9846 126.013 79.2015 123.237 80.4939 120.489C82.1995 116.861 84.281 113.609 85.0016 109.635C85.7241 105.65 84.3011 101.783 86.0675 97.8755C87.0923 95.6086 88.3992 93.2554 90.6447 91.984C91.5548 91.4694 92.8485 91.3219 93.8555 91.1159C94.9058 90.9013 96.3448 91.1022 97.2654 90.4478Z" fill="#6E4F3A"/>
<path d="M75.64 218.248C77.8539 218.857 80.0747 219.662 81.8305 221.142C83.3768 222.444 84.4728 224.193 85.4734 225.95C87.5699 229.63 89.3815 233.53 90.1748 237.691C90.968 241.851 90.6789 246.314 88.7481 250.084C82.8864 244.486 77.0241 238.889 71.1624 233.291C70.012 232.193 68.8425 231.069 68.0853 229.671C67.0656 227.787 66.8829 225.579 66.7213 223.443C66.1696 216.178 69.3147 216.507 75.64 218.248Z" fill="#D2EEF9"/>
<path opacity="0.2" d="M75.64 218.248C77.8539 218.857 80.0747 219.662 81.8305 221.142C83.3768 222.444 84.4728 224.193 85.4734 225.95C87.5699 229.63 89.3815 233.53 90.1748 237.691C90.968 241.851 90.6789 246.314 88.7481 250.084C82.8864 244.486 77.0241 238.889 71.1624 233.291C70.012 232.193 68.8425 231.069 68.0853 229.671C67.0656 227.787 66.8829 225.579 66.7213 223.443C66.1696 216.178 69.3147 216.507 75.64 218.248Z" fill="#444545"/>
<path d="M79.4481 119.4C79.3006 119.389 79.3737 119.76 79.5363 119.95C79.7162 120.145 79.9651 120.371 80.1783 120.577C80.635 120.984 81.1012 121.38 81.5963 121.737C82.5808 122.457 83.6312 123.085 84.7395 123.582C85.8424 124.088 86.9904 124.491 88.1673 124.767C88.7568 124.898 89.3505 125.01 89.9492 125.08L90.8684 125.179L91.1223 125.214C91.1735 125.224 91.2114 125.227 91.305 125.257C91.3233 125.262 91.3726 125.284 91.4018 125.3C91.4443 125.326 91.4434 125.322 91.3868 125.294C91.3183 125.267 91.3246 125.272 91.3246 125.272C91.4265 125.281 91.6018 125.288 91.7475 125.294C91.9051 125.304 92.0293 125.292 92.2745 125.329C92.3914 125.351 92.5394 125.392 92.686 125.499C92.8326 125.604 92.9449 125.774 92.991 125.928C93.081 126.242 93.0271 126.456 93.0006 126.631L92.9225 127.088L92.6001 128.904C92.4837 129.507 92.391 130.115 92.3083 130.724L92.0453 132.55C91.8914 133.77 91.7598 134.994 91.6302 136.217C91.5352 137.445 91.4068 138.668 91.3393 139.898C90.9853 144.81 90.8826 149.743 90.9009 154.68C90.9164 159.617 91.0653 164.559 91.1297 169.508C91.2205 174.459 91.2073 179.413 91.205 184.358C91.1991 189.308 91.1301 194.265 90.862 199.217C90.5972 204.168 90.1081 209.117 89.2103 214.001C88.3202 218.883 87.0311 223.701 85.2112 228.32L84.8267 228.17C86.5109 223.53 87.6243 218.715 88.4157 213.862C89.1993 209.004 89.5774 204.087 89.7332 199.163C89.8971 194.238 89.8414 189.304 89.7628 184.364C89.6738 179.414 89.5962 174.479 89.414 169.544C89.2327 164.605 89.0733 159.653 89.0262 154.687C88.9993 149.72 89.1368 144.739 89.529 139.763C89.6318 138.52 89.7962 137.279 89.9272 136.039C90.093 134.8 90.2611 133.562 90.4515 132.327L90.7698 130.479C90.8712 129.863 90.9826 129.248 91.1178 128.636C91.2488 128.024 91.3648 127.41 91.5087 126.801L91.6123 126.348C91.6484 126.244 91.6224 126.189 91.663 126.344C91.6863 126.419 91.7658 126.541 91.8603 126.604C91.9544 126.669 92.0156 126.671 92.0156 126.671C92.0343 126.663 91.821 126.646 91.6735 126.633C91.5032 126.615 91.3868 126.609 91.1379 126.574L91.0506 126.558C91.0351 126.556 90.9219 126.525 90.863 126.497C90.7346 126.434 90.7095 126.411 90.7643 126.445C90.7926 126.463 90.8598 126.489 90.8666 126.491C90.894 126.501 90.9164 126.504 90.9027 126.501C90.899 126.499 90.8995 126.498 90.8826 126.495C90.8369 126.483 90.7652 126.47 90.6986 126.458L89.7775 126.307C89.139 126.198 88.5107 126.043 87.8905 125.869C86.6548 125.504 85.4583 125.022 84.3349 124.412C83.2147 123.795 82.174 123.051 81.2186 122.223C80.7382 121.812 80.2902 121.366 79.8591 120.908L79.5513 120.55C79.4458 120.418 79.3554 120.338 79.2381 120.165C79.1385 120.006 79.0764 119.838 79.0558 119.647C79.0494 119.551 79.0513 119.443 79.1065 119.33C79.1586 119.211 79.2983 119.133 79.4047 119.127L79.4481 119.4Z" fill="#13355A"/>
<path d="M162.728 80.1454C162.785 79.875 160.583 77.8063 160.182 77.4656C159.092 76.5409 157.561 75.876 156.288 75.1439C154.457 74.0913 152.097 73.236 150.029 74.2507C148.072 75.2111 145.062 78.1853 144.725 78.2356C144.517 78.2662 134.398 72.904 132.82 72.8364C132.442 72.8204 132.042 72.8812 131.752 73.0876C131.152 73.515 131.278 74.3379 131.624 74.9357C132.059 75.6892 132.742 76.3167 133.438 76.9117C135.899 79.0174 138.654 80.8742 141.624 82.4319C142.392 82.8347 143.213 83.2521 143.629 83.9334C144.566 85.4683 144.438 86.4359 146.3 87.3429C148.45 88.3905 150.574 89.3993 152.987 89.9934C153.932 90.2263 154.926 90.4067 155.9 90.277C158.42 89.9418 158.213 87.9407 159.109 86.4387C160.341 84.3741 162.728 82.6205 162.728 80.1454Z" fill="#F6D6C5"/>
<path d="M63.9027 55.8388C64.5987 54.9543 65.6678 54.1907 67.1597 53.6514C69.3357 52.8655 71.7378 53.0408 74.0188 53.4281C74.9883 53.5929 75.9519 53.7939 76.9068 54.0304C76.7342 51.8827 79.6089 48.9468 81.178 47.6855C83.3649 45.9278 86.073 44.8441 88.7888 44.2043C91.1644 43.6458 93.9194 43.4198 96.01 44.9208C94.6647 42.6421 99.688 38.1905 101.312 36.8392C104.258 34.3887 107.819 32.6643 111.592 31.9675C118.851 30.6272 126.658 33.1557 131.875 38.3654C135.256 41.742 136.383 47.6672 133.33 51.3438C136.615 51.8179 139.925 53.1504 141.996 55.7438C144.067 58.3368 144.533 62.3609 142.451 64.9452C140.564 67.2879 121.402 68.8593 100.719 68.1761C91.5338 67.8729 82.5293 68.167 73.3525 67.572C72.4566 67.514 71.556 67.4551 70.6815 67.2518C68.8722 66.8312 67.2606 65.8124 65.7805 64.6899C63.336 62.8363 61.8176 58.4902 63.9027 55.8388Z" fill="#FAC6BD"/>
<path d="M68.8809 228.689C68.7758 228.123 51.6189 224.392 49.7831 223.757C45.3762 222.236 40.8141 221.158 36.5489 219.227C34.2747 218.195 32.5256 217.441 31.0323 215.427C30.8862 215.235 30.7355 215.025 30.7172 214.788C30.6944 214.514 30.8405 214.267 31.0049 214.044C31.0369 213.993 31.0734 213.952 31.1054 213.907C31.9502 212.779 32.6307 211.527 33.1193 210.208C33.2243 209.924 33.3248 209.637 33.4116 209.349C33.6445 208.573 33.818 207.783 33.923 206.979C33.9367 206.874 33.9504 206.773 33.9596 206.673C33.9778 206.509 33.9915 206.34 34.0052 206.175C34.0052 206.166 34.0098 206.157 34.0098 206.148V206.134C34.0098 206.116 34.0144 206.093 34.0144 206.075C34.0281 205.924 34.0372 205.773 34.0463 205.618C34.0509 205.522 34.0509 205.422 34.0509 205.326C34.0555 205.18 34.0555 205.029 34.0555 204.883C36.5397 206.541 39.4441 209.07 42.1476 210.235C42.6225 210.44 43.0975 210.632 43.5815 210.81C45.9699 211.719 48.445 212.308 51.0389 212.263C53.24 212.221 55.4046 211.742 57.5738 211.358C59.8297 210.961 62.1085 210.669 64.3964 210.486C64.8028 210.45 65.2047 210.422 65.6111 210.395C66.0861 210.363 66.6021 210.345 66.9994 210.605C67.6753 211.039 67.7072 211.989 67.6753 212.788C67.657 213.217 67.6479 213.646 67.6387 214.08C67.6342 214.336 67.6342 214.592 67.6342 214.847C67.6022 219.012 67.9356 223.177 68.6343 227.278C68.648 227.387 68.6662 227.492 68.6845 227.602C68.7484 227.967 68.8124 228.328 68.8809 228.689Z" fill="#6E4F3A"/>
<path d="M181.831 118.409C178.706 104.787 167.045 93.5218 153.324 90.8672C156.264 87.756 159.205 84.6442 162.144 81.533C162.991 80.637 163.875 79.7145 165.02 79.2565C166.755 78.5619 168.717 79.0665 170.5 79.6296C194.457 87.1975 214.783 99.949 229.222 120.221C239.478 134.62 247.155 150.392 252.813 167.109C257.884 182.092 245.437 202.91 238.251 215.975C235.574 220.841 232.635 225.785 228.114 229.01C225.289 231.025 221.996 232.255 218.862 233.745C208.095 238.863 199.157 247.065 189.355 253.849C185.222 256.71 180.879 259.347 176.134 261.008C172.261 262.364 168.19 263.046 164.142 263.722C148.446 266.342 132.751 268.963 117.056 271.584C115.208 271.892 113.26 272.192 111.504 271.539C102.271 268.104 129.923 232.896 133.821 227.808C145.563 212.481 158.294 197.93 169.734 182.368C177.016 172.462 184.007 161.409 184.248 149.116C184.45 138.916 184.113 128.354 181.831 118.409Z" fill="#BCE3E2"/>
<path opacity="0.2" d="M197.559 166.997C198.29 166.764 199.029 166.553 199.777 166.368C204.687 165.151 209.798 165.071 214.857 164.997C223.71 164.868 233.5 165.076 240.035 171.051C243.903 174.588 246.015 179.72 246.848 184.895C247.674 190.03 248.081 196.369 246.227 201.162C244.245 206.285 240.898 211.164 238.252 215.975C235.576 220.841 232.636 225.786 228.115 229.011C225.29 231.026 221.997 232.256 218.863 233.746C208.097 238.864 199.159 247.065 189.357 253.85C185.223 256.711 180.881 259.348 176.135 261.009C172.262 262.365 168.191 263.046 164.143 263.722C148.448 266.343 132.753 268.964 117.057 271.584C115.21 271.892 113.261 272.193 111.506 271.54C102.272 268.105 129.924 232.896 133.822 227.809C140.918 218.546 148.376 209.571 155.689 200.48C159.437 195.819 162.989 190.99 166.765 186.356C170.277 182.045 175.217 179.459 179.929 176.377C185.517 172.724 191.228 169.015 197.559 166.997Z" fill="#444545"/>
<path d="M158.483 229.07C159.345 231.806 160.403 234.441 161.551 237.061C162.097 238.38 162.694 239.681 163.279 240.987L165.05 244.905C166.246 247.514 167.49 250.104 168.728 252.7C169.964 255.297 171.235 257.881 172.367 260.535L171.992 260.709C170.573 258.207 169.098 255.737 167.695 253.222C166.281 250.713 164.872 248.197 163.504 245.649C162.811 244.378 162.174 243.079 161.549 241.771C161.221 241.124 160.972 240.439 160.682 239.774C160.397 239.106 160.128 238.429 159.869 237.748C159.622 237.063 159.382 236.372 159.176 235.669C158.968 234.968 158.771 234.259 158.63 233.534C158.305 232.103 158.136 230.603 158.211 229.118L158.483 229.07Z" fill="#13355A"/>
<path d="M170.211 116.892C167.984 117.821 165.899 119.013 164.094 120.623C157.771 126.266 151.567 132.104 145.294 137.836C144.589 138.479 143.834 139.221 143.775 140.174C143.693 141.512 144.972 142.465 145.955 143.377C148.684 145.911 149.814 149.806 149.785 153.53C149.757 157.253 148.703 160.884 147.657 164.458C149.669 164.048 151.82 163.648 153.725 164.416C155.63 165.183 156.996 167.623 155.895 169.357C153.807 169.994 151.718 170.632 149.629 171.269C149.172 171.409 148.678 171.576 148.421 171.978C148.074 172.522 148.308 173.235 148.567 173.825C149.902 176.861 151.7 179.692 153.879 182.19C155.093 183.581 156.543 184.932 158.36 185.255C162.58 186.006 165.453 181.207 167.003 177.211C171.639 165.265 176.306 153.21 178.899 140.623C180.615 132.293 182.246 124.673 181.692 116.009C181.652 115.394 181.56 114.696 181.056 114.343C180.587 114.014 179.953 114.119 179.394 114.24C176.294 114.909 173.13 115.675 170.211 116.892Z" fill="#F6D6C5"/>
<path d="M80.8136 228.736C75.1664 234.915 75.6039 244.34 76.383 252.674C71.9026 252.6 67.9013 250.063 63.9379 247.972C59.1931 245.599 53.8885 244.238 49.2529 241.676C44.3268 238.954 39.6652 235.002 34.8204 231.94C33.5298 231.124 32.2229 230.294 31.1908 229.169C30.1491 228.033 29.4468 226.654 28.7431 225.297C28.3891 224.615 28.0453 223.925 27.6484 223.266C27.3425 222.757 26.4716 221.969 26.3369 221.433C26.0414 220.258 27.4288 218.302 27.9507 217.332C28.7641 215.821 29.6774 214.364 30.683 212.975C31.009 214.006 31.9493 214.702 32.8521 215.297C36.1598 217.479 39.714 219.286 43.424 220.678C45.084 221.301 46.8266 222.027 48.6067 222.107C50.3854 222.186 51.6093 222.962 53.2615 223.604C56.2193 224.752 59.2493 225.716 62.3272 226.488C68.3639 228.001 74.5892 228.773 80.8136 228.736Z" fill="#D2EEF9"/>
<path opacity="0.2" d="M66.3907 244.901C69.3645 246.66 71.7948 248.91 74.7769 251.404C79.592 255.432 84.5573 259.283 89.7026 262.881C69.8581 255.981 52.3399 243.014 34.8208 231.939C33.5303 231.124 32.2233 230.294 31.1912 229.169C30.1496 228.033 29.4472 226.654 28.7435 225.297C28.3896 224.614 28.0457 223.925 27.6489 223.265C27.3429 222.757 26.4721 221.969 26.3373 221.432C26.0419 220.257 27.4292 218.302 27.9512 217.332C29.3372 214.757 30.7455 210.803 33.7294 213.028C36.2858 214.935 38.0572 220.338 39.6743 223.036C44.7031 231.428 53.0249 239.584 62.3729 242.997C63.8548 243.537 65.1686 244.178 66.3907 244.901Z" fill="#444545"/>
<path d="M106.067 168.272C103.779 174.053 92.011 170.044 90.3533 176.035C89.609 178.739 91.0794 182.995 88.3257 183.529C87.6224 183.661 86.9146 183.406 86.2479 183.15C83.3572 182.04 80.4665 180.931 77.5758 179.821C77.5712 182.533 77.6077 185.401 78.996 187.735C80.3888 190.064 83.654 191.502 85.9099 189.995C87.2023 189.137 88.2937 187.397 89.7916 187.794C90.5634 187.995 91.0611 188.73 91.3991 189.447C93.486 193.895 91.7644 199.403 88.4353 203.015C85.1108 206.632 80.4756 208.723 75.8998 210.513C71.3468 212.294 66.5884 213.888 61.7751 214.683C60.2453 214.939 58.7109 215.112 57.1719 215.19C54.7607 215.304 52.3495 215.181 49.9566 214.738C47.4221 214.272 44.9835 213.445 42.6819 212.317C42.5951 212.281 42.5084 212.235 42.4216 212.194C39.2478 210.614 36.5443 208.682 34.0098 206.148C34.4989 201.866 31.2652 197.75 29.1189 193.914C24.365 185.415 24.8491 174.254 30.3199 166.203C32.4206 163.111 35.1834 160.458 36.8183 157.102C39.0423 152.553 38.9783 147.174 41.0379 142.548C43.3532 137.365 48.1984 133.611 53.5049 131.592C58.0624 129.862 62.9625 129.277 67.8488 129.131C70.5934 129.843 73.2466 130.921 75.7172 132.364C79.471 134.561 81.2337 138.022 82.4987 141.767V141.771C84.5308 147.754 85.3072 154.453 90.9379 157.832C93.897 159.613 97.5869 159.559 100.866 160.645C104.145 161.728 107.337 165.061 106.067 168.272Z" fill="#6E4F3A"/>
<path opacity="0.2" d="M82.5626 141.762C82.5946 143.379 81.8502 144.557 79.3066 144.589C74.6486 144.648 68.6571 141.785 63.9671 140.931C60.6426 140.324 57.0395 139.872 54.0255 141.401C51.2079 142.831 49.4269 145.804 48.6825 148.872C47.9381 151.946 48.0888 155.152 48.2487 158.307C48.3811 161.02 48.5181 163.728 48.6505 166.44C48.7099 167.619 48.7693 168.82 48.5135 169.97C48.0021 172.281 46.317 174.126 45.1707 176.195C43.0153 180.086 42.8189 185.004 44.6593 189.055C47.1435 194.521 49.5867 200.321 54.4685 204.175C57.3911 206.486 61.3413 208.098 64.3964 210.486C65.3919 211.258 66.2916 212.121 67.0268 213.112C67.2597 213.427 67.4652 213.751 67.6387 214.08C67.6342 214.336 67.6342 214.591 67.6342 214.847C67.6022 219.012 67.9356 223.177 68.6343 227.278C68.648 227.387 68.6662 227.492 68.6845 227.602C65.0631 227.821 59.7475 224.204 56.665 223.761C54.7836 223.487 52.8701 223.46 50.9932 223.172C46.4494 222.483 42.2755 220.336 38.1974 218.226C36.2977 217.24 32.1283 215.948 31.0049 214.043C31.0369 213.993 31.0734 213.952 31.1054 213.906C31.9502 212.778 32.6307 211.527 33.1193 210.207C33.2243 209.924 33.3248 209.637 33.4116 209.349C33.6445 208.573 33.818 207.782 33.923 206.979C33.9367 206.878 33.9504 206.773 33.9596 206.673C33.9778 206.508 33.9915 206.339 34.0052 206.175C34.0052 206.166 34.0098 206.157 34.0098 206.148V206.134C34.0098 206.116 34.0144 206.093 34.0144 206.075C34.0281 205.924 34.0418 205.769 34.0463 205.618C34.0509 205.522 34.0509 205.422 34.0509 205.326C34.0463 201.38 31.1237 197.498 29.1189 193.913C24.365 185.415 24.8491 174.254 30.3199 166.203C32.4206 163.111 35.1834 160.458 36.8183 157.102C39.0423 152.553 38.9783 147.174 41.0379 142.548C43.3532 137.364 48.1984 133.611 53.5049 131.592C58.0624 129.861 62.9625 129.277 67.8488 129.131C68.6525 129.108 69.4608 129.094 70.2646 129.09C72.9224 129.076 75.7902 129.222 77.8772 130.866C79.7769 132.359 80.6355 134.784 81.4027 137.081C81.937 138.675 82.5352 140.378 82.5626 141.762Z" fill="#444545"/>
<path opacity="0.2" d="M57.1719 215.189C58.6561 215.002 60.227 214.801 61.7751 214.683C60.2453 214.938 58.7109 215.112 57.1719 215.189Z" fill="#444545"/>
<path d="M66.4528 156.455C66.5436 156.8 66.6172 157.134 66.7368 157.455C66.8345 157.779 66.9537 158.093 67.0967 158.392C67.3793 158.991 67.7045 159.556 68.1 160.062C68.484 160.572 68.9494 161.05 69.417 161.305C69.8769 161.572 70.3353 161.566 70.7089 161.299C71.093 161.018 71.3606 160.427 71.4679 159.822C71.5213 159.515 71.5368 159.198 71.5199 158.885C71.5053 158.579 71.4368 158.26 71.3546 157.918C71.1953 157.246 70.9834 156.559 70.8665 155.829C70.7409 155.106 70.7646 154.304 71.0701 153.603L71.4574 153.746C71.23 155.08 71.9574 156.233 72.4671 157.598C72.5337 157.771 72.5977 157.947 72.6589 158.129C72.7178 158.321 72.779 158.537 72.8137 158.742C72.8904 159.158 72.9219 159.581 72.8982 160.01C72.8712 160.438 72.7963 160.876 72.6374 161.32C72.4771 161.76 72.2296 162.222 71.8058 162.619C71.3907 163.015 70.7683 163.309 70.1728 163.34C69.5563 163.396 68.9653 163.22 68.5123 162.979C68.0479 162.742 67.6976 162.425 67.3866 162.115C67.0967 161.793 66.8419 161.471 66.6185 161.117C66.1906 160.403 65.8911 159.62 65.8116 158.808C65.7171 158.005 65.8153 157.179 66.176 156.455L66.4528 156.455Z" fill="#13355A"/>
<path d="M67.8844 145.004C67.4136 145.088 66.9291 145.06 66.456 145.017C65.9865 144.954 65.5285 144.852 65.0832 144.761C64.6348 144.678 64.2096 144.556 63.789 144.494C63.3707 144.43 62.9542 144.403 62.5359 144.415C60.8627 144.416 59.2059 144.99 57.7505 145.889C56.2924 146.797 55.1041 148.128 54.1835 149.638C53.2642 151.153 52.6304 152.847 52.128 154.582L51.7253 154.491C51.918 152.656 52.3472 150.804 53.1734 149.073C53.989 147.349 55.1745 145.702 56.7924 144.465C58.3821 143.235 60.4485 142.439 62.5784 142.598C63.1036 142.65 63.6324 142.736 64.1302 142.894C64.622 143.063 65.0691 143.246 65.4805 143.47C66.3158 143.894 67.0117 144.351 67.8862 144.728L67.8844 145.004Z" fill="#13355A"/>
<path d="M75.7021 156.203C73.7023 155.696 71.7853 154.977 69.8704 154.975C67.9785 154.899 66.1527 155.64 64.6841 156.865C63.9498 157.478 63.3218 158.226 62.8223 159.052C62.3359 159.884 61.9624 160.801 61.7358 161.759C61.2728 163.678 61.3417 165.726 61.7642 167.697L61.3659 167.805C60.6152 165.863 60.2795 163.688 60.6029 161.523C60.7595 160.44 61.0741 159.37 61.5632 158.349C62.0633 157.336 62.7245 156.395 63.5429 155.584C64.3503 154.762 65.3449 154.103 66.4477 153.658C67.546 153.206 68.7977 153.052 69.9563 153.161C70.5367 153.229 71.1034 153.328 71.6405 153.495C72.1743 153.672 72.6913 153.862 73.1735 154.117C74.1471 154.604 75.018 155.21 75.8121 155.951L75.7021 156.203Z" fill="#13355A"/>
<path d="M82.0461 141.494C86.0237 139.728 87.7645 134.724 86.9859 130.442C86.2068 126.16 83.465 122.509 80.5236 119.301C74.0585 112.251 65.887 106.332 56.4915 104.534C43.2952 102.009 29.0755 108.314 18.9476 116.4C18.6064 113.616 13.6584 110.823 10.9472 111.541C10.3654 113.82 10.4951 116.276 11.3135 118.482C8.67529 117.81 5.7645 117.163 3.33047 118.383C0.896892 119.603 -0.105492 123.589 2.23629 124.978C4.27851 126.188 7.86015 125.075 8.58305 127.337C9.02328 128.738 4.97447 133.359 4.25796 134.466C3.30216 135.943 2.00659 137.52 1.40516 139.178C-0.895982 145.526 0.123298 151.766 1.00192 158.247C2.59295 169.985 5.91018 182.092 14.6718 190.587C20.4833 196.223 28.7554 200.593 30.2921 208.541C36.4342 202.996 39.857 194.569 39.3208 186.312C36.173 188.373 31.6808 188.354 28.786 185.95C25.8912 183.546 25.1295 178.811 27.421 175.827C29.1746 173.544 32.1238 172.671 34.8893 172.485C36.4109 172.382 37.5362 172.286 38.898 172.788C39.9999 173.194 40.299 175.302 41.8435 174.893C42.1864 174.802 42.4691 174.563 42.718 174.31C46.7508 170.217 43.4939 157.433 43.2363 152.073C43.1144 149.528 43.007 146.89 43.9638 144.529C46.3937 138.532 54.2543 137.08 60.6942 137.709C67.1341 138.339 73.9923 140.081 79.8135 137.256C80.4533 138.386 81.093 139.517 81.7333 140.647" fill="#13355A"/>
<path d="M30.5533 212.917C32.1128 214.505 33.9235 215.817 35.8579 216.89C37.7988 217.956 39.8515 218.81 41.9512 219.525C44.0505 220.248 46.2037 220.815 48.3646 221.367L54.8749 222.986L61.392 224.597L67.8963 226.259L74.407 227.93C76.5844 228.522 78.7608 229.205 80.8368 230.216L81.6419 230.609L80.9939 231.231C78.469 233.657 76.6172 236.763 75.5582 240.11C74.5042 243.459 74.2622 247.079 74.9673 250.523L75.1892 251.606L74.1933 251.136C65.6143 247.093 56.8299 243.426 48.3395 239.107C44.0925 236.957 39.9305 234.624 35.9419 232.015C34.9359 231.376 33.9628 230.689 32.9855 230.007C32.0059 229.333 31.0405 228.616 30.1409 227.818C29.2399 227.024 28.4033 226.133 27.7457 225.105C27.4196 224.59 27.1548 224.035 26.9511 223.456C26.7588 222.872 26.6561 222.261 26.6255 221.647L27.0379 221.633C27.0822 222.206 27.1918 222.769 27.3845 223.308C27.5895 223.843 27.8494 224.356 28.1699 224.834C28.8161 225.788 29.6377 226.622 30.5323 227.371C31.426 228.123 32.3854 228.799 33.3778 229.445C34.3674 230.094 35.3423 230.762 36.3543 231.375C40.3629 233.886 44.5396 236.122 48.8049 238.177C57.3313 242.304 66.1678 245.786 74.8541 249.718L73.4356 250.843C72.6141 247.133 72.8123 243.23 73.8919 239.595C74.9627 235.955 76.9543 232.565 79.7107 229.894L80.018 231.878C78.1215 230.962 76.0323 230.323 73.9161 229.746L67.4369 228.055L60.9394 226.366L54.4634 224.593L47.9815 222.809C45.8164 222.193 43.6651 221.474 41.5512 220.642C39.4469 219.792 37.354 218.855 35.4506 217.586C33.5467 216.334 31.7753 214.86 30.3501 213.104L30.5533 212.917Z" fill="#13355A"/>
<path d="M76.4264 238.854C78.2654 240.537 80.1861 242.043 82.2206 243.449C84.224 244.89 86.3096 246.256 88.2942 247.806C90.2766 249.345 92.2234 251.022 93.7436 253.087C94.5017 254.115 95.1456 255.236 95.61 256.427C96.0818 257.617 96.3416 258.878 96.4476 260.137L96.0375 260.185C95.7918 258.976 95.368 257.825 94.8383 256.75C94.2957 255.678 93.6021 254.7 92.8276 253.795C91.2607 251.99 89.3103 250.538 87.2722 249.185C85.2286 247.835 83.1101 246.513 81.1369 244.909C80.1564 244.102 79.1993 243.244 78.354 242.266C77.5046 241.297 76.7406 240.23 76.2145 239.033L76.4264 238.854Z" fill="#13355A"/>
<path d="M68.1767 216.882C69.0037 217.027 69.8284 217.197 70.645 217.403C71.4633 217.604 72.2629 217.87 73.0699 218.12C74.6719 218.656 76.2177 219.352 77.737 220.103C80.741 221.669 83.5444 223.686 85.8689 226.191C87.0288 227.441 88.0759 228.811 88.9281 230.292C89.7871 231.769 90.4648 233.345 90.9735 234.965C91.4703 236.591 91.7923 238.26 91.974 239.938C92.1535 241.616 92.1567 243.304 92.0768 244.979L91.664 244.968C91.5073 241.65 91.0447 238.356 89.8912 235.322C88.729 232.296 86.9466 229.577 84.6276 227.377C83.4673 226.28 82.2397 225.25 80.9309 224.323C79.634 223.382 78.295 222.481 76.8762 221.704C75.4797 220.888 74.0412 220.133 72.5812 219.379C71.1094 218.655 69.6239 217.917 68.1059 217.15L68.1767 216.882Z" fill="#13355A"/>
<path d="M2.88749 94.8885C11.3756 66.7989 29.4847 41.0904 54.3123 24.1175C66.6249 15.5476 80.4117 8.97895 94.9666 4.83698C109.556 0.859875 124.845 -0.785039 139.983 0.352975C155.121 1.3654 170.14 4.75159 184.285 10.4919C198.427 16.2815 211.338 24.8417 222.694 34.9971C233.945 45.2438 243.968 57.0966 251.082 70.6381C258.294 84.0869 263.32 98.6605 265.891 113.64C268.608 128.623 268.235 144.004 265.862 158.905C263.396 173.798 258.731 188.409 251.396 201.586C236.962 227.925 214.341 249.93 186.852 261.934C173.221 268.041 158.647 271.976 143.815 273.465C136.38 273.823 128.942 274.296 121.52 273.755C114.107 273.165 106.741 272.094 99.5104 270.404C70.5742 263.598 44.2665 246.878 25.7752 223.896C25.1431 223.11 25.2678 221.961 26.0533 221.328C26.8218 220.71 27.9384 220.815 28.5777 221.554L28.5928 221.571C47.3833 243.289 73.3027 258.36 101 263.827C107.924 265.184 114.938 265.943 121.957 266.252C128.991 266.512 135.992 265.789 142.954 265.222C156.83 263.314 170.28 259.133 182.71 253.017C207.717 240.943 227.914 220.006 239.745 195.528C245.815 183.322 249.361 170.018 250.881 156.663C252.262 143.3 251.874 129.68 248.755 116.728C245.871 103.76 241.135 91.2822 234.458 79.918C227.707 68.6178 219.448 58.2231 209.679 49.4287C199.927 40.6118 188.76 33.4595 176.839 27.8589C164.807 22.4629 151.889 19.1462 138.688 17.6629C125.469 15.9618 111.917 16.8076 98.7816 19.6097C85.5775 22.2337 72.699 27.1077 60.8426 34.0175C48.9693 40.9246 38.2632 49.905 28.6682 60.1516C19.1471 70.5025 11.3934 82.5909 5.20325 95.6826L5.16352 95.7648C4.87582 96.3754 4.14515 96.6366 3.53596 96.3475C2.98019 96.0854 2.71533 95.4588 2.88749 94.8885Z" fill="#F6BB35"/>
<path d="M245.657 183.944C245.593 184.314 244.972 185.465 244.168 186.721C242.597 189.159 240.327 191.991 240.053 190.306C239.615 187.625 238.254 185.109 236.249 183.282C237.153 186.036 237.843 188.858 238.313 191.717C238.464 192.648 238.592 193.612 238.354 194.525C237.368 198.412 231.641 198.138 228.5 200.626C226.408 196.978 224.321 193.329 222.23 189.685C223.417 193.324 224.011 197.156 223.979 200.987C223.974 201.736 223.937 202.512 223.627 203.193C223.102 204.344 221.919 205.015 220.805 205.613C218.951 206.609 217.01 207.755 215.01 208.97C213.361 209.965 211.671 211.011 209.945 212.052C202.753 216.395 194.957 220.711 187.235 221.601C185.623 221.788 184.011 221.825 182.413 221.683C181.924 221.638 181.481 221.505 181.075 221.295C179.184 220.313 178.184 217.729 177.59 215.505C176.91 212.956 176.225 210.399 175.549 207.851C175.462 207.527 175.371 207.198 175.284 206.869C174.965 210.143 174.645 213.418 174.321 216.692C174.161 218.318 173.96 220.048 172.905 221.295C170.233 224.451 149.195 221.213 149.094 221.706C152.697 204.554 156.296 187.077 154.57 169.637C152.533 149.05 153.305 129.167 173.718 117.495C173.983 117.344 174.248 117.198 174.517 117.052C178.54 114.887 182.952 113.49 187.477 112.873C191.144 112.371 194.88 112.38 198.538 112.91C202.333 113.449 206.045 114.549 209.502 116.207C221.248 121.842 229.463 133.186 234.085 145.365C237.637 154.718 241.396 164.426 243.885 174.121C244.51 176.555 246.04 181.634 245.657 183.944Z" fill="#696A6A"/>
<path d="M79.1906 56.4469C77.5904 55.1769 75.7331 54.2398 73.7749 53.7699C71.83 53.2936 69.7581 53.242 67.9009 53.8868C66.977 54.2083 66.1084 54.6809 65.3928 55.2961C64.6731 55.9189 64.0804 56.703 63.6721 57.5771C63.2575 58.4471 62.9958 59.391 62.9067 60.345C62.8159 61.2971 62.904 62.268 63.2214 63.1434C63.5269 64.0207 64.0434 64.8061 64.7494 65.382C65.4367 65.9857 66.334 66.3547 67.2633 66.5917C69.1453 67.0493 71.2236 66.9675 73.2877 67.0333L85.6666 67.2794C93.9194 67.4534 102.173 67.5703 110.428 67.6635C118.683 67.7498 126.939 67.7836 135.195 67.7681L135.199 68.1809C126.944 68.5065 118.685 68.6609 110.425 68.7938C102.165 68.9298 93.9035 68.9878 85.641 68.9956C81.5095 69.0152 77.379 68.9623 73.248 68.9075C72.2104 68.8951 71.1975 68.8837 70.1234 68.8316C69.0539 68.7759 67.9438 68.681 66.814 68.3951C65.6915 68.1028 64.5361 67.6361 63.5753 66.8013C62.5985 65.9953 61.8765 64.8915 61.4984 63.7243C61.113 62.5529 61.0435 61.335 61.1833 60.1719C61.3267 59.0078 61.6614 57.8771 62.2067 56.8473C62.7396 55.8139 63.4908 54.8823 64.411 54.1421C65.3421 53.3858 66.408 52.91 67.4953 52.6077C69.6937 52.0053 71.9761 52.2195 74.0197 52.8789C75.0436 53.2237 76.0067 53.7069 76.9072 54.2667C77.8105 54.8234 78.6389 55.4883 79.3705 56.2372L79.1906 56.4469Z" fill="#F79B8B"/>
<path d="M78.6069 48.948C79.1919 47.3962 80.1788 45.9869 81.4374 44.8644C82.7101 43.7602 84.2504 42.9391 85.9209 42.5405C87.5928 42.1391 89.3596 42.2121 91.0191 42.646C92.6768 43.0889 94.2583 43.9022 95.5319 45.0914L94.4811 45.5129C94.5282 44.9037 94.6113 44.29 94.7917 43.6926C94.9734 43.0971 95.2282 42.5231 95.547 41.992C96.1977 40.9353 97.0576 40.0777 97.9271 39.3114C98.8094 38.5455 99.6625 37.8336 100.61 37.1267C101.064 36.7577 101.559 36.449 102.048 36.1311C102.294 35.9754 102.532 35.8055 102.786 35.6621L103.551 35.2402C107.659 33.0336 112.342 31.9791 116.974 32.1317C121.607 32.2737 126.208 33.7318 129.988 36.412C131.861 37.7674 133.512 39.5023 134.548 41.6002C135.572 43.6812 135.998 46.1079 135.469 48.3904L135.066 48.3009C135.47 46.1079 134.953 43.8388 133.905 41.9262C132.865 39.9973 131.256 38.4177 129.435 37.1956C128.518 36.5896 127.553 36.0462 126.541 35.6042C126.03 35.3959 125.53 35.1644 125.013 34.9749C124.489 34.8045 123.969 34.6223 123.444 34.4611C121.329 33.8469 119.127 33.5706 116.936 33.5578C112.551 33.5414 108.18 34.6885 104.425 36.8381L103.719 37.2363C103.485 37.3715 103.267 37.5322 103.04 37.6788C102.591 37.9779 102.134 38.2665 101.721 38.6127C100.884 39.2433 99.9831 40.0192 99.1725 40.7225C98.3518 41.4312 97.6335 42.1591 97.1339 42.9565C96.89 43.3574 96.7005 43.7767 96.5599 44.2178C96.4211 44.6599 96.3548 45.132 96.3105 45.6147L96.0799 48.1433L94.2807 46.4294C93.2495 45.4471 91.9713 44.6818 90.5693 44.258C89.176 43.8022 87.6718 43.6913 86.2068 43.8968C84.7395 44.1045 83.2942 44.7005 82.0429 45.601C81.4054 46.0367 80.8058 46.545 80.2729 47.1268L79.8856 47.5752L79.5244 48.0488L79.1778 48.5397L78.8609 49.0548L78.6069 48.948Z" fill="#F79B8B"/>
<path d="M131.239 54.492C131.525 54.2381 131.838 54.0281 132.148 53.8048C132.468 53.6025 132.799 53.4148 133.135 53.2321C133.81 52.87 134.536 52.6014 135.289 52.4028C136.046 52.2238 136.831 52.106 137.628 52.1169C138.423 52.1361 139.229 52.2594 139.984 52.5334C141.549 53.0896 142.784 54.266 143.497 55.678C143.852 56.3858 144.076 57.1677 144.097 57.9659C144.128 58.7628 143.898 59.5683 143.471 60.2223L143.112 60.0182C143.621 58.671 143.209 57.296 142.484 56.237C141.747 55.1702 140.609 54.3897 139.47 54.1705C138.243 53.9363 137 53.9988 135.681 54.1779C135.02 54.2596 134.347 54.3875 133.635 54.4866C132.925 54.5948 132.19 54.7076 131.371 54.7354L131.239 54.492Z" fill="#F79B8B"/>
<path d="M180.219 114.64C178.727 114.587 177.246 114.837 175.847 115.304C174.444 115.764 173.105 116.406 171.838 117.173C169.309 118.724 166.99 120.612 164.693 122.564C162.389 124.51 160.034 126.394 157.707 128.312L150.704 134.039L147.179 136.874L145.417 138.292C144.857 138.741 144.334 139.235 144.078 139.768C143.826 140.298 143.926 140.777 144.376 141.227C144.599 141.453 144.886 141.664 145.19 141.889C145.503 142.114 145.805 142.382 146.106 142.635C146.69 143.171 147.215 143.772 147.665 144.424C148.115 145.078 148.471 145.79 148.759 146.521C149.332 147.989 149.578 149.549 149.632 151.087C149.689 152.629 149.558 154.16 149.335 155.666C148.888 158.683 148.06 161.603 147.31 164.515L146.928 164.208C147.836 163.777 148.763 163.349 149.752 163.062C150.734 162.775 151.802 162.64 152.833 162.862L152.751 163.267C151.8 163.106 150.826 163.27 149.908 163.582C148.986 163.894 148.106 164.345 147.222 164.812L146.472 165.209L146.656 164.356C147.296 161.4 148.031 158.483 148.363 155.533C148.531 154.062 148.606 152.586 148.503 151.14C148.404 149.696 148.123 148.276 147.571 146.996C147.292 146.359 146.962 145.749 146.553 145.198C146.142 144.649 145.678 144.145 145.159 143.696C144.885 143.482 144.634 143.267 144.334 143.063C144.029 142.849 143.681 142.615 143.328 142.28C142.981 141.951 142.613 141.455 142.482 140.849C142.406 140.554 142.405 140.239 142.437 139.942C142.478 139.646 142.561 139.371 142.669 139.126C143.123 138.157 143.789 137.577 144.396 137.046L146.118 135.579L149.562 132.645C151.875 130.711 154.179 128.765 156.517 126.86C158.871 124.975 161.193 123.051 163.574 121.198C164.758 120.27 165.96 119.321 167.228 118.452C167.859 118.013 168.5 117.584 169.16 117.178C169.827 116.783 170.506 116.403 171.207 116.061C172.604 115.377 174.067 114.779 175.605 114.461C177.14 114.16 178.727 114.065 180.239 114.364L180.219 114.64Z" fill="#13355A"/>
<path d="M154.346 170.309C154.139 170.51 153.911 170.685 153.675 170.854L153.312 171.096L152.928 171.302C152.407 171.563 151.856 171.786 151.28 171.915C150.129 172.194 148.908 172.18 147.738 171.927L148.503 171.489C148.245 172.278 148.397 173.174 148.766 174.051C149.138 174.931 149.708 175.763 150.306 176.595L152.112 179.12C152.72 179.957 153.31 180.807 153.893 181.664L153.567 181.917L152.453 180.818L151.369 179.696C150.644 178.951 149.961 178.172 149.254 177.412C148.547 176.636 147.817 175.805 147.234 174.765C146.949 174.244 146.685 173.661 146.568 172.997C146.438 172.338 146.467 171.595 146.685 170.913L147.035 169.815L148.161 170.067C148.617 170.17 149.083 170.248 149.558 170.287C149.795 170.3 150.034 170.33 150.276 170.335L151.009 170.344C151.502 170.336 152.007 170.313 152.533 170.267C153.057 170.215 153.602 170.151 154.198 170.074L154.346 170.309Z" fill="#13355A"/>
<path d="M181.172 112.844C179.44 110.559 177.482 108.454 175.346 106.559C173.209 104.665 170.92 102.947 168.48 101.475C166.043 99.9997 163.47 98.7613 160.816 97.7479C158.159 96.7419 155.406 95.9916 152.609 95.5235L152.148 95.4463L152.122 94.9778C151.971 92.2725 152.855 89.5398 154.483 87.4236C155.28 86.3536 156.208 85.3878 157.244 84.5585C158.287 83.7374 159.418 83.0359 160.613 82.4642C161.808 81.8925 163.091 81.4929 164.384 81.2257C165.673 80.9572 166.988 80.8275 168.298 80.8111C170.922 80.7604 173.517 81.1499 176.034 81.744C178.55 82.3546 181.011 83.1364 183.406 84.0507L186.995 85.438C187.598 85.659 188.184 85.9193 188.77 86.1783L190.533 86.9496L192.295 87.7209C192.884 87.9743 193.45 88.278 194.029 88.5543L197.48 90.2513L200.854 92.0994C201.412 92.415 201.987 92.699 202.531 93.0401L204.173 94.0398L205.816 95.0394C206.365 95.3696 206.912 95.703 207.438 96.071L210.626 98.2224C211.164 98.5708 211.671 98.9631 212.185 99.3472L213.724 100.499L215.263 101.652C215.774 102.037 216.254 102.463 216.752 102.867L219.707 105.326L222.537 107.928C223.5 108.775 224.376 109.712 225.275 110.625L226.618 112L227.287 112.689L227.92 113.412L230.45 116.305C231.276 117.284 232.035 118.318 232.83 119.322L234.008 120.839L235.095 122.423L236.182 124.007C236.535 124.541 236.929 125.048 237.242 125.608L239.216 128.904L239.707 129.729L240.147 130.583L241.026 132.291L241.905 133.998C242.058 134.279 242.19 134.57 242.313 134.866L242.695 135.747L244.223 139.269L243.839 139.422C241.798 134.756 239.42 130.249 236.624 126.006C236.305 125.457 235.905 124.959 235.547 124.436L234.444 122.885L233.341 121.334L232.149 119.85C231.345 118.868 230.577 117.858 229.744 116.902L227.192 114.08L226.555 113.375L225.881 112.704L224.529 111.366C223.625 110.478 222.745 109.565 221.777 108.744L218.937 106.217L215.975 103.835C215.477 103.444 214.996 103.031 214.484 102.658L212.945 101.545L211.406 100.431C210.892 100.06 210.385 99.6815 209.847 99.3458L206.669 97.2666C206.145 96.9104 205.6 96.5884 205.052 96.2702L203.417 95.3057L201.781 94.3412C201.241 94.0119 200.668 93.7398 200.113 93.4361L196.758 91.6587L193.329 90.0325C192.754 89.7681 192.193 89.4763 191.608 89.2347L189.859 88.4986L188.111 87.7624C187.529 87.5154 186.947 87.2665 186.351 87.0574L182.795 85.7394C180.418 84.8749 178.026 84.1087 175.61 83.5406C173.196 82.9825 170.749 82.6327 168.333 82.6925C167.126 82.7154 165.926 82.8209 164.756 83.0638C163.596 83.3013 162.478 83.6424 161.407 84.1498C160.342 84.6553 159.331 85.2773 158.402 86.002C157.479 86.7345 156.659 87.5853 155.962 88.5123C154.553 90.3636 153.767 92.61 153.837 94.8746L152.907 93.8329C155.807 94.38 158.645 95.2185 161.372 96.3158C164.106 97.3977 166.702 98.8037 169.14 100.421C171.572 102.046 173.874 103.866 175.925 105.935C177.973 108.003 179.842 110.244 181.398 112.68L181.172 112.844Z" fill="#13355A"/>
<path d="M151.381 205.205C148.195 209.899 144.556 214.256 140.946 218.606C137.298 222.926 133.631 227.215 130.144 231.641C126.665 236.07 123.423 240.688 120.636 245.579C117.846 250.466 115.551 255.636 113.8 260.998L113.405 260.878C114.835 255.383 117.003 250.077 119.64 245.026C122.27 239.965 125.413 235.18 128.783 230.594C129.621 229.442 130.486 228.314 131.36 227.192C132.236 226.071 133.139 224.978 134.028 223.869C135.839 221.684 137.708 219.556 139.565 217.424C141.453 215.318 143.342 213.223 145.284 211.171C146.238 210.132 147.21 209.106 148.194 208.088C149.184 207.076 150.132 206.027 151.161 205.037L151.381 205.205Z" fill="#13355A"/>
<path d="M145.308 27.4248C146.98 28.1436 148.472 29.172 149.912 30.2593C150.611 30.8293 151.302 31.411 151.965 32.0239L152.934 32.9701C153.25 33.2911 153.554 33.6254 153.865 33.9524C155.083 35.2836 156.23 36.6755 157.289 38.13C158.348 39.5826 159.342 41.0828 160.203 42.656L159.853 42.8748C158.725 41.4865 157.56 40.1507 156.379 38.8447C155.191 37.5436 153.941 36.3093 152.634 35.1484C151.324 33.9894 150.015 32.8546 148.749 31.6558C148.118 31.0535 147.486 30.4498 146.889 29.7858C146.579 29.4688 146.288 29.1241 145.996 28.7733C145.707 28.4194 145.414 28.066 145.154 27.6545L145.308 27.4248Z" fill="#B4B5B5"/>
<path d="M145.479 41.5657C145.664 39.6518 146.286 37.8169 147.051 36.0583L147.695 34.7705C147.933 34.3535 148.157 33.9288 148.406 33.5178L149.195 32.3136C149.473 31.9222 149.766 31.5418 150.051 31.1564C151.231 29.6448 152.544 28.2415 153.977 26.9811C155.409 25.7202 156.946 24.5804 158.6 23.647L158.822 23.9945C157.366 25.1873 156.025 26.4751 154.771 27.8232C153.524 29.1777 152.406 30.6367 151.433 32.1739C150.462 33.7142 149.578 35.281 148.684 36.8556C148.46 37.2492 148.25 37.6507 148.011 38.0416C147.782 38.437 147.571 38.8421 147.311 39.2316C147.09 39.6358 146.836 40.0317 146.575 40.4322C146.321 40.8345 146.067 41.2414 145.747 41.6387L145.479 41.5657Z" fill="#B4B5B5"/>
<path opacity="0.2" d="M215.01 208.97C213.361 209.965 211.671 211.011 209.945 212.052C202.753 216.395 194.957 220.711 187.235 221.601C185.623 221.789 184.011 221.825 182.413 221.684C181.924 221.638 181.481 221.505 181.075 221.295C178.545 217.245 176.905 212.737 175.549 207.851C175.462 207.527 175.371 207.198 175.284 206.869C174.965 210.144 174.645 213.418 174.321 216.692C174.161 218.318 173.96 220.049 172.905 221.295C170.233 224.451 149.195 221.213 149.094 221.706C152.697 204.554 156.296 187.077 154.57 169.637C152.533 149.051 153.305 129.167 173.718 117.495C173.983 117.344 174.248 117.198 174.517 117.052C180.257 113.892 185.975 112.079 192.519 112.024C194.56 112.006 196.743 112.038 198.538 112.91C198.917 113.093 199.277 113.312 199.615 113.577C196.072 113.193 191.962 113.454 188.642 114.878C185.746 116.116 184.381 118.833 183.367 121.87C181.974 126.039 181.107 130.423 180.531 134.771C179.33 143.872 179.664 153.147 181.111 162.198C182.851 173.071 186.167 183.62 190.199 193.845C192.665 200.092 194.076 207.394 201.721 209.121C203.374 209.491 205.082 209.513 206.776 209.518C209.511 209.532 212.338 209.495 215.01 208.97Z" fill="#444545"/>
<path d="M159.704 222.166C162.872 221.839 166.04 221.771 169.208 221.686L171.584 221.667L172.773 221.659L173.367 221.655L173.663 221.656L173.738 221.656C173.767 221.657 173.73 221.654 173.701 221.657C173.674 221.66 173.647 221.666 173.621 221.676C173.579 221.687 173.541 221.706 173.512 221.729C173.494 221.738 173.478 221.751 173.467 221.767C173.442 221.805 173.537 221.647 173.575 221.5C173.625 221.346 173.665 221.169 173.701 220.991C173.774 220.631 173.826 220.251 173.87 219.869C173.954 219.103 174.023 218.323 174.07 217.54C174.253 214.404 174.271 211.235 174.255 208.076C174.2 204.919 174.107 201.744 174.083 198.576L174.495 198.559C174.844 201.72 175.17 204.863 175.412 208.043C175.624 211.223 175.789 214.394 175.784 217.617C175.775 218.424 175.775 219.235 175.694 220.064C175.656 220.481 175.613 220.899 175.534 221.344C175.495 221.569 175.45 221.795 175.376 222.053C175.338 222.182 175.291 222.321 175.225 222.477C175.145 222.644 175.071 222.825 174.833 223.087C174.756 223.164 174.67 223.237 174.581 223.301C174.462 223.379 174.324 223.45 174.176 223.497C174.092 223.521 174.004 223.539 173.916 223.55C173.871 223.556 173.827 223.559 173.783 223.561L173.738 223.563L173.663 223.564C173.564 223.565 173.465 223.57 173.367 223.568L172.773 223.559L171.584 223.542L169.208 223.505C167.624 223.441 166.04 223.359 164.456 223.187C162.872 223.025 161.288 222.81 159.704 222.445L159.704 222.166Z" fill="#13355A"/>
<path d="M176.687 211.216C177.096 212.106 177.478 213.006 177.87 213.902C178.268 214.796 178.629 215.703 179.008 216.604C179.38 217.508 179.765 218.406 180.125 219.314L181.202 222.039L180.695 221.669L182.106 221.677L183.516 221.614L184.923 221.502L186.324 221.326C188.187 221.047 190.026 220.605 191.835 220.059C195.448 218.94 198.932 217.368 202.235 215.47C205.543 213.573 208.704 211.405 211.809 209.153C214.913 206.899 217.975 204.571 221.139 202.379L221.382 202.714C219.875 203.905 218.402 205.137 216.912 206.35L212.414 209.966C209.392 212.354 206.305 214.701 202.992 216.758C201.337 217.791 199.629 218.75 197.865 219.615L196.532 220.244L195.177 220.833L193.795 221.362L192.392 221.845L190.971 222.279C190.492 222.409 190.012 222.537 189.528 222.649L188.065 222.942L186.589 223.173L185.103 223.34L183.608 223.437L182.109 223.433L180.612 223.354L179.854 223.314L179.623 222.631C179.31 221.706 179.024 220.77 178.723 219.84C178.428 218.908 178.16 217.965 177.878 217.028C177.621 216.081 177.339 215.144 177.112 214.186C176.879 213.231 176.623 212.284 176.429 211.314L176.687 211.216Z" fill="#13355A"/>
<path d="M228.751 170.438C229.799 171.578 230.804 172.768 231.711 174.037C232.584 175.324 233.419 176.648 234.126 178.043C234.836 179.434 235.457 180.876 235.967 182.356C236.481 183.833 236.937 185.339 237.228 186.881C237.544 188.417 237.745 189.977 237.849 191.542C237.87 191.934 237.904 192.325 237.914 192.717L237.932 193.894C237.937 194.662 237.954 195.526 237.602 196.412C237.423 196.853 237.135 197.253 236.807 197.57C236.477 197.888 236.109 198.136 235.736 198.342C234.982 198.747 234.232 199.006 233.452 199.223C231.896 199.649 230.271 199.807 228.666 199.682L228.268 199.651L228.157 199.277C227.477 196.988 226.525 194.777 225.328 192.703C224.726 191.668 224.07 190.664 223.354 189.703C222.999 189.22 222.623 188.753 222.238 188.293C222.068 188.067 221.751 187.789 221.692 187.268C221.685 187.143 221.682 187.086 221.689 187.129C221.706 187.169 221.707 187.16 221.683 187.135C221.624 187.078 221.497 187 221.383 186.931L221.985 186.43C223.827 192.025 224.503 197.983 223.969 203.819L223.558 203.787C223.619 202.337 223.605 200.886 223.517 199.442C223.422 197.998 223.279 196.561 223.064 195.136C222.63 192.286 221.907 189.487 220.908 186.799L220.216 184.938L221.942 185.94C222.101 186.032 222.247 186.1 222.456 186.277C222.562 186.377 222.711 186.516 222.802 186.787C222.876 187.061 222.848 187.173 222.859 187.164C222.862 187.152 222.86 187.154 222.914 187.231C222.96 187.296 223.039 187.377 223.151 187.505C223.569 187.969 223.978 188.44 224.367 188.929C225.149 189.904 225.878 190.923 226.539 191.987C227.858 194.117 228.931 196.406 229.723 198.798L228.779 198.048C230.195 198.11 231.62 197.923 232.964 197.506C233.626 197.294 234.322 197.033 234.855 196.736C235.401 196.429 235.747 196.08 235.886 195.706C236.048 195.306 236.077 194.656 236.053 193.896C236.04 193.524 236.037 193.153 236.035 192.781C236.03 192.41 235.999 192.039 235.983 191.668C235.897 190.183 235.718 188.701 235.429 187.239C235.298 186.505 235.123 185.781 234.968 185.05C234.775 184.33 234.609 183.599 234.372 182.89C233.966 181.448 233.424 180.049 232.865 178.651C232.315 177.246 231.634 175.894 230.906 174.561C230.206 173.205 229.369 171.929 228.541 170.618L228.751 170.438Z" fill="#13355A"/>
<path d="M236.358 177.526C237.094 178.246 237.759 179.039 238.385 179.863C239.007 180.691 239.555 181.575 240.059 182.484C240.562 183.394 241.006 184.34 241.365 185.319C241.731 186.296 242.036 187.298 242.274 188.316L241.396 187.925C242.148 187.471 242.901 187.018 243.664 186.58C244.03 186.361 244.461 186.13 244.743 185.935C244.884 185.834 244.985 185.734 245.04 185.646C245.093 185.565 245.124 185.465 245.145 185.294C245.165 185.133 245.169 184.904 245.175 184.692C245.179 184.478 245.192 184.264 245.189 184.05C245.192 183.622 245.184 183.194 245.172 182.765C245.142 181.908 245.077 181.05 244.973 180.196C244.754 178.488 244.42 176.789 243.971 175.114C243.536 173.438 242.951 171.794 242.398 170.119C241.283 166.785 240.184 163.447 239.043 160.125C237.9 156.803 236.733 153.49 235.525 150.191L235.909 150.041C236.625 151.649 237.337 153.261 238.015 154.886C238.682 156.516 239.337 158.15 239.983 159.788C241.273 163.065 242.543 166.348 243.786 169.637L244.721 172.11C245.034 172.95 245.327 173.8 245.591 174.662C246.126 176.382 246.562 178.15 246.811 179.96C246.938 180.865 247.026 181.777 247.074 182.695C247.102 183.154 247.099 183.615 247.09 184.075C247.089 184.306 247.073 184.536 247.065 184.766C247.053 185 247.053 185.203 247.011 185.531C246.974 185.838 246.866 186.285 246.611 186.666C246.366 187.037 246.071 187.279 245.82 187.456C245.565 187.633 245.341 187.753 245.157 187.857L244.582 188.18C243.82 188.617 243.044 189.031 242.268 189.443L240.847 190.198L240.565 188.686C240.387 187.732 240.159 186.784 239.892 185.843C239.609 184.907 239.292 183.975 238.919 183.059C238.544 182.145 238.127 181.241 237.668 180.348C237.221 179.446 236.685 178.59 236.15 177.712L236.358 177.526Z" fill="#13355A"/>
<g opacity="0.6">
<path opacity="0.6" d="M118.665 36.2514C119.076 36.1925 119.485 36.1779 119.897 36.1478C120.308 36.1386 120.721 36.1405 121.136 36.1537C121.967 36.1788 122.803 36.2953 123.631 36.5126C124.451 36.7483 125.271 37.0721 126.015 37.5543C126.2 37.6753 126.374 37.8137 126.552 37.9452C126.717 38.0891 126.898 38.2393 127.047 38.38C127.345 38.6567 127.63 38.9503 127.92 39.2403C129.068 40.408 130.196 41.6597 131.03 43.1252C131.87 44.5838 132.35 46.2511 132.381 47.9051L131.97 47.9384C131.615 46.3657 130.952 44.9555 130.046 43.7344C129.132 42.5128 127.971 41.4816 126.738 40.4852C126.431 40.234 126.11 39.9943 125.803 39.7353C125.65 39.6093 125.529 39.5335 125.396 39.4266C125.257 39.3358 125.125 39.2376 124.981 39.1522C124.412 38.8069 123.788 38.5083 123.108 38.2548C122.434 37.984 121.705 37.7666 120.957 37.4931C120.206 37.2292 119.426 36.9501 118.645 36.5277L118.665 36.2514Z" fill="white"/>
</g>
<g opacity="0.6">
<path opacity="0.6" d="M135.048 55.5505C135.657 55.0962 136.441 54.9793 137.174 55.0615L137.719 55.1697C137.895 55.2245 138.077 55.266 138.249 55.3345L138.75 55.5693C138.912 55.6574 139.064 55.7624 139.219 55.8588C139.823 56.2762 140.351 56.7909 140.759 57.3845C141.168 57.9741 141.478 58.6367 141.582 59.334L141.188 59.456C140.783 58.9144 140.333 58.4883 139.869 58.1243C139.4 57.7645 138.879 57.5014 138.349 57.3384C137.809 57.1909 137.327 57.0502 136.838 56.8498C136.715 56.8064 136.591 56.7539 136.465 56.6817C136.338 56.626 136.208 56.5575 136.07 56.4611C135.934 56.3949 135.788 56.2949 135.63 56.1903C135.472 56.0867 135.303 55.9848 135.104 55.8214L135.048 55.5505Z" fill="white"/>
</g>
<path d="M134.638 2.31885C123.902 6.34802 115.18 12.8898 108.524 20.2713C101.867 27.6529 97.1513 35.8806 93.0207 44.1979C89.5943 38.9604 82.3827 35.1605 74.5275 34.4545C84.1902 38.9298 91.5516 45.8867 95.2534 54.1153C98.7688 34.1823 114.046 14.6027 134.638 2.31885Z" fill="#13355A"/>
<path d="M108.455 54.3138C108.699 53.5813 108.556 52.8018 108.175 52.1693C107.793 51.5359 107.239 51.0057 106.596 50.6381C105.951 50.2586 105.218 50.0303 104.478 49.8576C103.735 49.6878 102.964 49.6088 102.191 49.5923C101.417 49.5772 100.634 49.6179 99.8872 49.7302C99.1401 49.8366 98.4066 50.0248 97.802 50.3545C97.1901 50.6837 96.7727 51.1509 96.6083 51.7633C96.4247 52.3748 96.4786 53.1192 96.59 53.8845L96.8129 55.4148L95.5776 54.496C94.6793 53.8279 93.734 53.2091 92.7636 52.6524C91.8503 52.1241 90.7876 51.8208 89.7103 51.6724C87.5553 51.3916 85.2514 51.6971 83.3284 52.7324C82.3717 53.247 81.5177 53.953 80.9136 54.8417L80.6989 55.1824C80.6245 55.2947 80.5523 55.4084 80.5081 55.5358C80.4085 55.7843 80.2875 56.0277 80.2012 56.2807C80.0377 56.7857 79.9664 57.3356 79.9454 57.8826C79.9226 58.4311 79.9564 58.9869 80.0573 59.5285C80.1514 60.071 80.3016 60.6053 80.5304 61.0989C80.7574 61.5903 81.0446 62.0653 81.4456 62.4196C81.8388 62.7808 82.3196 63.0338 82.8453 63.159L82.7695 63.5649C82.1639 63.4718 81.5744 63.2188 81.0834 62.8297C80.5834 62.4466 80.2153 61.9305 79.9167 61.3949C79.6107 60.8569 79.4143 60.2715 79.2805 59.6778C79.139 59.0841 79.0691 58.4763 79.0627 57.8625C79.0559 57.2488 79.1006 56.6286 79.2664 56.0025C79.3527 55.6961 79.4755 55.4052 79.5824 55.1047C79.6303 54.9513 79.7061 54.8125 79.7861 54.675L80.0199 54.2581C80.683 53.1666 81.647 52.2885 82.717 51.6414C84.8738 50.3381 87.411 49.8905 89.9035 50.0965C91.1525 50.2143 92.4175 50.5052 93.6057 51.1203C94.6848 51.6633 95.7 52.2949 96.6804 52.9972L94.7487 54.1635C94.6181 53.3224 94.472 52.3437 94.7679 51.2336C94.9246 50.6901 95.2196 50.144 95.6073 49.7079C95.9973 49.2704 96.4548 48.947 96.9115 48.7064C98.7628 47.7876 100.555 47.7839 102.264 47.8963C103.983 48.0515 105.772 48.4986 107.254 49.6133C107.98 50.1887 108.604 50.9171 108.906 51.803C109.221 52.6629 109.214 53.6977 108.707 54.422L108.455 54.3138Z" fill="#F79B8B"/>
<g opacity="0.6">
<path opacity="0.6" d="M103.288 51.1211C103.774 50.7768 104.363 50.7612 104.883 50.8695C105.409 50.9841 105.893 51.2444 106.299 51.5951C106.706 51.9445 107.064 52.3578 107.32 52.8363C107.58 53.3095 107.7 53.8766 107.616 54.3972L107.203 54.4091C106.959 53.9853 106.66 53.7131 106.347 53.4903C106.042 53.2624 105.688 53.103 105.321 53.0053C104.945 52.9208 104.625 52.8103 104.324 52.6002C104.171 52.498 104.028 52.366 103.872 52.1669C103.712 51.9801 103.548 51.7554 103.304 51.3969L103.288 51.1211Z" fill="white"/>
</g>
<g opacity="0.6">
<path opacity="0.6" d="M191.559 115.097C195.589 114.548 199.76 115.288 203.56 116.778C207.364 118.307 210.83 120.574 213.886 123.249C216.953 125.92 219.673 128.953 222.078 132.201C224.481 135.449 226.6 138.905 228.341 142.54L227.973 142.727C225.939 139.275 223.705 135.958 221.174 132.893C218.64 129.836 215.853 126.997 212.777 124.558C211.231 123.351 209.651 122.2 207.991 121.188C206.343 120.16 204.646 119.216 202.868 118.459C201.106 117.664 199.281 117.021 197.403 116.5C195.522 115.999 193.585 115.615 191.573 115.373L191.559 115.097Z" fill="white"/>
</g>
<path d="M181.676 114.195C179.328 114.814 177.078 115.729 174.976 116.905C172.885 118.105 170.96 119.564 169.194 121.192C167.449 122.846 165.882 124.676 164.463 126.614C163.061 128.568 161.866 130.662 160.802 132.815C159.757 134.98 158.886 137.225 158.167 139.519C157.49 141.822 156.984 144.186 156.593 146.566C156.23 148.952 155.997 151.359 155.857 153.773C155.743 156.19 155.695 158.612 155.727 161.038C155.864 170.747 157.183 180.438 157.46 190.217C157.524 192.661 157.534 195.108 157.457 197.553C157.361 199.999 157.185 202.441 156.886 204.872C156.565 207.299 156.127 209.712 155.542 212.09C154.925 214.461 154.157 216.791 153.23 219.058L152.848 218.9C153.702 216.627 154.394 214.301 154.936 211.941C155.44 209.572 155.82 207.181 156.085 204.776C156.327 202.367 156.448 199.947 156.489 197.526C156.511 195.104 156.448 192.68 156.331 190.257C155.829 180.568 154.336 170.913 154.011 161.072C153.942 158.614 153.913 156.146 154.03 153.676C154.157 151.206 154.382 148.735 154.741 146.275C155.12 143.815 155.676 141.388 156.387 138.98C157.15 136.595 158.056 134.256 159.172 132.014C160.343 129.8 161.647 127.658 163.163 125.663C163.533 125.159 163.95 124.69 164.342 124.202L164.94 123.479L165.583 122.794L166.226 122.11C166.439 121.881 166.65 121.65 166.892 121.448L168.293 120.198C170.227 118.607 172.304 117.195 174.539 116.091C176.813 115.068 179.185 114.291 181.617 113.923L181.676 114.195Z" fill="#13355A"/>
</g>
<defs>
<clipPath id="clip0">
<rect width="267.788" height="274" fill="white"/>
</clipPath>
</defs>
</svg>
