<svg width="265" height="274" viewBox="0 0 265 274" fill="none" xmlns="http://www.w3.org/2000/svg">
<g clip-path="url(#clip0)">
<path d="M235.619 86.224C227.863 90.8122 220.694 97.1297 215.876 104.795C212.374 110.366 211.278 116.026 211.19 122.542C211.168 124.136 211.405 125.844 211.154 127.396C210.864 129.178 210.07 131.067 209.41 132.742C208.88 134.088 206.06 139.507 204.204 137.091C203.461 136.123 203.079 134.935 202.682 133.781C201.871 131.424 199.594 127.981 196.751 130.501C194.793 132.235 193.9 133.777 191.965 135.538C190.959 136.454 189.783 137.159 188.616 137.859C187.344 138.621 186.366 139.918 185.191 140.85C184.445 141.441 183.605 142.015 182.653 142.041C178.499 142.156 183.357 138.178 183.623 137.113C182.334 138.391 181.044 139.67 179.754 140.948C178.959 141.736 174.853 144.065 175.174 141.272C175.246 140.642 175.66 140.108 176.091 139.643C177.017 138.645 177.721 137.463 178.535 136.36C179.365 135.235 180.225 133.982 181.283 133.052C180.029 134.156 178.774 135.26 177.52 136.363C177.192 136.651 176.846 136.95 176.42 137.047C175.592 137.236 174.344 136.005 174.477 135.312C174.565 134.856 174.875 134.48 175.175 134.126C177.085 131.87 178.994 129.615 180.904 127.359C181.27 126.926 181.636 126.494 182.002 126.062C182.854 125.054 182.561 124.7 182.273 123.413C182.237 123.251 182.187 123.085 182.073 122.966C181.689 122.566 181.034 122.978 180.665 123.391C180.067 124.062 179.51 124.768 178.996 125.505C178.496 126.223 177.997 127.006 177.204 127.376C175.646 128.104 174.8 127.159 175.168 125.572C175.632 123.572 178.237 121.533 179.651 120.069C181.298 118.362 183.317 116.876 184.473 114.789C186.127 111.802 190.017 109.395 192.581 107.147C194.671 105.315 196.748 103.471 198.839 101.641C200.563 100.132 201.669 98.3595 203.319 96.8123C207.448 92.9411 211.924 89.6367 215.926 85.6176C220.167 81.3578 223.637 75.5832 228.443 72.0107" fill="#E2B698"/>
<path d="M142.741 125.692C142.12 130.204 141.266 134.679 140.325 139.054C140.015 140.502 139.695 141.968 139.079 143.31C138.485 144.603 137.622 145.749 136.745 146.863C132.329 152.466 124.493 162.878 117.666 165.271C116.757 165.591 115.775 165.596 114.811 165.596C108.669 165.596 101.404 168.217 96.0882 164.404C90.4164 160.339 83.3837 156.325 79.2828 150.128C78.8718 149.507 78.4837 148.872 78.1138 148.224C74.5974 142.013 72.8667 134.506 71.1405 127.674C70.9532 126.939 70.7706 126.194 70.5925 125.441C67.0305 110.476 65.1125 92.57 75.8441 80.2354C76.2643 79.7513 76.7072 79.2718 77.1685 78.806C79.5614 76.3811 82.5023 74.2074 86.0552 72.3533C105.295 62.3249 129.233 66.6678 138.745 87.7567C144.34 99.7899 144.495 112.892 142.741 125.692Z" fill="#F9DDB7"/>
<path d="M93.9957 173.046C93.8199 173.514 93.6281 174.027 93.7911 174.499C93.945 174.944 94.3729 175.227 94.7793 175.465C102.792 180.158 113.352 180.129 121.339 175.393C122.352 174.792 123.403 174.012 123.659 172.862C123.768 172.369 123.717 171.857 123.666 171.356C123.266 167.456 122.866 163.558 122.465 159.659C113.46 161.386 105.062 160.391 96.1557 158.964C95.1999 163.645 95.631 168.413 93.9957 173.046Z" fill="#F9DDB7"/>
<path opacity="0.1" d="M93.9957 173.046C93.8199 173.514 93.6281 174.027 93.7911 174.499C93.945 174.944 94.3729 175.227 94.7793 175.465C102.792 180.158 113.352 180.129 121.339 175.393C122.352 174.792 123.403 174.012 123.659 172.861C123.768 172.369 123.717 171.857 123.666 171.355C123.271 168.003 123.04 164.622 122.699 161.276C121.317 162.666 119.733 163.857 118.013 164.799C116.957 165.377 115.838 165.866 114.652 166.073C113.821 166.218 112.972 166.223 112.128 166.226C110.529 166.23 108.929 166.228 107.33 166.218C103.964 166.198 100.531 166.136 97.3481 165.04C96.5809 164.775 95.7009 164.183 95.4132 165.071C95.1588 165.857 95.2501 166.919 95.1501 167.746C94.9346 169.531 94.6305 171.356 93.9957 173.046Z" fill="#454546"/>
<path d="M100.157 143.351C98.1582 142.379 96.3704 140.786 94.1601 140.549C94.7072 145.957 97.3106 151.362 101.908 154.263C106.505 157.164 113.177 156.924 116.888 152.952C119.796 149.841 120.431 145.302 120.929 141.073C121.072 139.857 112.555 143.533 111.823 143.766C108.167 144.931 103.656 145.051 100.157 143.351Z" fill="white"/>
<path d="M126.313 169.446C127.646 171.401 126.346 178.447 126.258 180.226C126.048 184.47 125.838 188.714 125.628 192.958C124.733 211.032 123.843 229.225 126.225 247.163C126.894 252.205 127.822 257.207 128.881 262.179C129.734 266.179 131.409 269.64 126.258 270.986C124.664 271.402 122.99 271.36 121.346 271.261C115.995 270.939 102.172 270.415 98.8277 265.71C96.9992 263.136 96.7179 257.216 95.947 254.113C95.0017 250.309 94.0706 246.501 93.1541 242.689C90.1259 230.099 87.2402 217.374 86.8256 204.43C86.6342 198.458 86.684 192.444 87.3443 186.5C87.7092 183.213 88.2193 179.848 89.3952 176.741C89.6158 176.158 89.7227 175.369 90.1985 174.926C90.8278 174.34 91.3726 174.65 92.085 174.506C92.8211 174.357 93.0093 174.176 93.4787 173.507C93.6098 173.32 94.9574 172.457 94.7752 172.346C96.4859 173.384 100.548 177.707 108.728 177.619C116.907 177.531 122.364 173.143 122.802 172.239C122.851 172.137 123.579 169.139 123.666 169.066C123.793 168.958 123.971 168.938 124.137 168.923C124.671 168.873 125.222 168.825 125.734 168.986C125.966 169.059 126.157 169.218 126.313 169.446Z" fill="#63BFBB"/>
<path d="M152.16 178.732C157.281 178.275 162.556 180.935 165.233 185.324C167.452 188.963 167.874 193.373 168.421 197.599C169.965 209.535 173.208 221.141 176.204 232.77C177.697 238.563 179.171 244.375 180.277 250.257C181.263 255.501 179.144 258.007 174.388 260.334C164.533 265.156 153.858 268.278 142.968 269.588C137.527 270.243 132.018 270.463 126.545 270.181C123.252 270.011 123.092 270.122 121.837 267.195C120.869 264.938 120.611 262.061 120.511 259.634C120.364 256.028 121.065 252.448 121.762 248.907C123.01 242.575 124.257 236.244 125.504 229.913C126.662 224.04 127.848 218.081 130.567 212.748C132.77 208.429 135.904 204.669 138.835 200.806C143.699 194.395 148.355 185.822 152.16 178.732Z" fill="#FBD4CD"/>
<path opacity="0.1" d="M159.064 194.863C159.804 194.546 160.319 195.63 160.397 196.432C161.511 207.803 162.045 219.231 161.999 230.655C161.979 235.776 161.841 240.904 162.214 246.011C162.565 250.808 163.362 255.576 164.604 260.222C165.349 263.006 166.165 263.307 163.886 264.725C161.723 266.091 155.729 269.071 155.861 264.314C156.062 257.105 157.908 250.207 156.875 243.054C155.858 236.008 157.049 227.899 157.249 220.748C157.492 212.099 158.097 203.461 159.064 194.863Z" fill="#454546"/>
<path d="M92.8294 222.513C94.1277 227.799 95.4653 233.182 98.3158 237.819C100.303 241.051 102.982 243.843 104.721 247.216C106.178 250.039 106.923 253.171 107.533 256.289C108.395 260.701 111.571 268.206 105.341 268.872C99.6255 269.483 92.8216 266.224 87.6837 264.122C84.8062 262.944 81.9566 261.694 79.033 260.632C76.8159 259.826 72.6415 259.567 70.8108 258.28C67.7077 256.097 67.3867 245.44 66.3783 241.452C64.7754 235.11 62.9881 228.805 61.8884 222.349C59.8864 210.596 60.1818 198.587 60.5102 186.668C60.5928 183.672 60.9815 181.074 61.6665 178.145C61.9989 176.722 62.3912 175.199 63.5041 174.252C65.0869 172.906 67.5702 173.272 69.3152 174.4C71.0601 175.529 72.3123 177.255 73.7727 178.733C76.7972 181.794 81.3867 183.103 83.7152 186.666C86.3539 190.704 86.5352 196.888 87.659 201.465C89.3834 208.481 91.1064 215.497 92.8294 222.513Z" fill="#FBD4CD"/>
<path d="M72.0447 184.693C71.9396 197.736 68.9439 210.746 63.3269 222.524C62.9159 222.588 62.5186 222.574 62.1304 222.505C61.7788 222.442 61.4409 222.327 61.1121 222.177C59.7512 221.551 58.5684 220.268 57.582 219.071C50.1384 210.007 42.6947 200.946 35.251 191.886C30.7026 186.351 26.1497 180.807 22.1767 174.852C20.1445 171.811 18.0575 168.884 15.9569 165.97C13.2214 162.175 10.4723 158.408 7.82819 154.458C5.62705 151.17 3.62685 147.612 3.06515 143.699C2.49432 139.721 3.44419 135.698 4.38492 131.793C5.83255 125.797 9.95625 120.272 12.0889 114.349C14.6234 107.289 16.4729 100.005 19.0896 92.972C23.6471 80.7333 30.214 63.8686 40.6808 55.1509C41.2425 55.5482 43.6811 57.4296 46.6312 59.6719C46.6357 59.6764 46.6403 59.6764 46.6449 59.6856C52.1431 63.8641 59.3995 69.3075 59.6005 68.8098C50.7183 90.6887 43.4756 113.234 37.9454 136.196C37.7353 137.068 37.5252 137.977 37.7307 138.849C37.9545 139.78 38.6166 140.538 39.256 141.251C48.6359 151.708 58.0159 162.162 67.3958 172.619C68.7978 174.181 70.2271 175.784 71.0491 177.716C71.0948 177.825 71.1404 177.935 71.1815 178.044C71.2227 178.154 71.2638 178.268 71.3003 178.378C71.3414 178.487 71.3734 178.597 71.4099 178.707C71.4099 178.711 71.4099 178.716 71.4099 178.716C71.4464 178.83 71.4784 178.939 71.5058 179.049C71.5378 179.163 71.5652 179.277 71.5926 179.392C71.7889 180.186 71.9031 181.008 71.967 181.835C71.9762 181.953 71.9853 182.072 71.9944 182.191C72.0447 183.022 72.0492 183.862 72.0447 184.693Z" fill="#FBD4CD"/>
<path opacity="0.1" d="M108.108 263.437C108.071 264.893 107.884 266.533 106.733 267.432C105.852 268.122 104.642 268.172 103.523 268.14C95.8781 267.944 88.4892 265.514 81.2328 263.112C77.2461 261.788 73.031 260.313 70.3961 257.043C67.8753 253.92 67.2633 249.727 66.5509 245.777C66.0166 242.818 64.7882 239.927 64.2539 237.028C63.557 233.245 63.7708 228.718 62.1149 225.318C59.7562 220.474 55.8759 216.777 53.5633 211.964C55.4539 212.304 57.2409 211.365 58.104 209.638C58.9525 207.941 58.894 205.95 58.7835 204.056C58.0875 192.15 57.5432 179.015 52.4427 168.07C49.8904 162.593 45.5575 158.06 42.1786 153.105C37.8997 146.831 33.8719 140.392 29.7573 134.008C29.6477 133.834 29.5335 133.661 29.4879 133.46C29.3189 132.729 30.0998 132.117 30.8305 131.971C31.5657 131.82 32.3603 131.912 33.027 131.569C33.8079 131.172 34.2007 130.299 34.5386 129.491C36.6347 124.459 38.7262 119.426 40.8223 114.394C41.7265 112.225 42.4983 110.152 42.786 107.827C43.4715 102.289 51.8234 80.5525 52.7482 74.5779C52.9624 73.1956 53.177 71.7977 53.0615 70.4035C52.9085 68.5595 52.0988 66.7936 51.0622 65.3053C58.7739 62.332 59.8489 68.0006 57.7062 73.5495C55.032 80.4753 52.4349 87.4235 50.0438 94.453C45.3771 108.173 41.3384 122.106 37.9453 136.195C37.7353 137.067 37.5252 137.976 37.7307 138.848C37.9545 139.78 38.6166 140.538 39.256 141.25C48.6359 151.708 58.0158 162.161 67.3958 172.619C68.7977 174.181 70.2271 175.784 71.0491 177.715C71.0948 177.825 71.1404 177.934 71.1815 178.044C71.2226 178.154 71.2637 178.268 71.3003 178.377C71.3414 178.487 71.3733 178.597 71.4099 178.715C71.4464 178.829 71.4784 178.939 71.5058 179.049C71.7524 179.957 71.8802 180.889 71.967 181.834C71.9761 181.953 71.9853 182.072 71.9944 182.191C72.1679 184.442 72.1223 186.757 72.7251 188.958C73.9535 193.461 76.0816 197.69 78.2279 201.809C84.4477 213.764 91.3205 225.373 98.8053 236.58C101.422 240.498 104.135 244.407 105.833 248.8C107.628 253.436 108.226 258.468 108.108 263.437Z" fill="#454546"/>
<path opacity="0.1" d="M63.8018 236.689C63.9571 237.361 64.0804 238.037 64.1763 238.713L63.8018 236.689Z" fill="#454546"/>
<path d="M98.6774 244.485C92.3969 235.842 88.5655 226.515 83.9006 216.687C77.2949 202.773 71.0646 188.747 65.2156 174.623C66.2838 177.203 83.4914 173.836 85.7962 172.893C87.095 172.362 88.1321 171.744 89.5108 171.653C91.2333 171.539 92.9691 171.512 94.6948 171.437C95.1693 180.083 96.1416 188.702 97.6043 197.237C98.2957 201.272 99.0957 205.212 99.5195 209.257C99.9675 213.531 100.443 217.801 100.973 222.066C101.357 225.152 101.601 228.392 102.437 231.401C104.745 239.712 107.366 247.609 107.441 256.378C104.905 252.303 101.544 248.43 98.6774 244.485Z" fill="#FEF0EE"/>
<path opacity="0.2" d="M73.0909 181.733C73.1831 181.539 73.2877 181.346 73.406 181.153C75.3938 177.906 79.0773 177.199 82.5937 176.742C84.9382 176.437 87.3339 176.44 89.6208 175.841C91.9078 175.242 94.1624 173.899 95.094 171.727C85.1756 171.808 75.2619 172.413 65.4075 173.54C64.0228 173.701 70.0732 188.984 70.6144 190.392C73.7019 198.426 77.4192 206.218 81.7232 213.671C80.4354 205.809 78.0644 198.124 74.697 190.903C73.3 187.909 71.6492 184.77 73.0909 181.733Z" fill="#454546"/>
<path d="M121.436 253.725C121.817 252.354 122.197 250.983 122.577 249.612C123.001 248.082 123.415 246.549 123.85 245.021C124.182 243.858 124.87 242.988 125.345 241.883C127.727 236.343 130.174 230.829 132.931 225.464C134.329 222.744 135.803 220.062 137.378 217.441C143.865 206.645 150.472 194.356 152.755 181.874C152.943 180.852 153.103 179.782 152.801 178.787C151.956 176 148.301 175.453 145.389 175.495C137.814 175.604 131.186 168.841 123.966 168.841C122.978 168.841 122.467 175.859 122.39 176.497C121.632 182.736 121.123 189.007 120.65 195.273C120.056 203.135 119.57 211.004 119.178 218.878C118.81 226.254 118.512 233.637 118.406 241.022C118.322 246.925 118.133 253.244 120.464 258.794C120.932 257.104 120.968 255.415 121.436 253.725Z" fill="#FEF0EE"/>
<path d="M75.5199 138.41C75.529 139.292 75.3098 140.209 74.8897 140.99C74.3782 141.936 73.5745 142.675 72.5287 142.881C71.1085 143.16 69.6517 142.379 68.7247 141.269C67.8022 140.155 67.3044 138.762 66.8295 137.396C65.5828 133.848 58.5319 116.221 66.6879 118.933C67.2131 119.107 67.7976 119.367 68.4552 119.719C73.0311 122.176 75.4697 133.807 75.5199 138.41Z" fill="#F9DDB7"/>
<path d="M141.729 122.449C142.341 120.595 143.01 118.652 144.468 117.355C146.506 115.542 149.457 116.041 150.76 118.417C152.298 121.223 151.919 124.771 150.536 127.657C149.153 130.542 146.887 132.896 144.618 135.153C143.59 136.176 142.327 137.26 140.767 137.052C139.091 136.827 139.103 135.277 139.113 133.849C139.14 129.919 139.872 125.995 141.27 122.32" fill="#F9DDB7"/>
<path d="M145.518 116.751C145.344 117.856 143.554 122.792 142.741 125.692C142.426 126.788 142.257 127.592 142.367 127.784C139.887 123.409 137.394 118.55 138.257 113.59C138.554 111.864 139.257 110.234 139.677 108.531C142.49 97.1504 131.343 79.3084 119.095 79.2491C113.953 79.2217 110.606 82.0895 105.984 83.286C105.221 83.4869 104.445 83.5646 103.669 83.5646C100.075 83.5691 96.385 81.8612 92.791 82.1672C88.8728 82.5051 85.0459 83.939 81.7625 86.0808C75.5655 90.1269 73.4055 97.0956 73.7297 104.297C73.7343 104.352 73.7343 104.407 73.7389 104.462C73.9261 108.088 74.844 111.668 74.7892 115.298C74.7253 119.162 73.5288 122.998 71.387 126.213C71.1085 125.952 70.8436 125.692 70.5924 125.441C67.9301 122.728 66.9437 120.381 65.9801 116.326C64.601 110.522 63.2127 104.663 63.2355 98.7259C63.2629 93.0221 64.6923 87.1677 68.3502 82.4823C68.4963 82.295 68.6425 82.1078 68.7977 81.9251C69.5147 81.0666 70.355 80.0939 70.0992 79.0481C69.9394 78.3905 69.3594 77.8471 69.2909 77.1758C69.2133 76.3949 69.8526 75.7099 70.4783 75.1528C74.57 71.5314 79.9587 69.0791 85.667 68.2388C84.4112 68.2708 83.6668 66.8049 84.1417 65.7774C84.6212 64.7499 85.8268 64.1471 86.9913 63.7407C93.0787 61.5989 99.9287 62.5396 106.368 63.5854C115.739 65.1107 129.781 65.8642 133.247 76.3949C140.298 75.888 142.618 82.569 143.851 88.7158C145.627 97.5614 146.924 107.8 145.518 116.751Z" fill="#A8A491"/>
<path opacity="0.2" d="M104.422 85.0121C99.9972 84.834 95.5402 83.1169 91.2475 84.2084C85.2971 85.7291 81.4429 92.4147 79.9359 97.9221C77.9996 104.978 78.6617 112.768 81.9634 119.321C82.3333 120.061 82.7444 120.81 82.7992 121.632C82.8403 122.244 82.6804 122.852 82.5206 123.445C81.5798 126.971 80.2098 130.752 79.9861 134.382C79.7532 138.209 80.3742 142.059 81.3561 145.749C82.3059 149.324 83.6623 152.905 86.1831 155.613C86.5986 156.06 87.037 156.499 87.4937 156.919L88.9459 160.508C87.3567 159.549 85.7949 158.554 84.2605 157.512C83.1827 156.782 82.1096 156.024 81.2282 155.065C79.6344 153.334 78.6161 150.968 77.9813 148.726C77.3602 146.525 76.2186 144.511 75.392 142.356C75.2185 141.904 75.0495 141.447 74.8897 140.99C74.3782 141.936 73.5745 142.675 72.5287 142.881C71.1085 143.159 69.6517 142.379 68.7247 141.269C67.8022 140.155 67.3044 138.762 66.8295 137.396C65.5828 133.848 58.5319 116.221 66.6879 118.933C66.4322 118.143 66.2039 117.28 65.9801 116.326C64.601 110.522 63.2127 104.662 63.2355 98.7258C63.2629 93.022 64.6923 87.1676 68.3502 82.4822C70.8573 79.5458 74.1499 76.3674 77.9128 77.1346C77.6662 77.6918 77.415 78.2489 77.1684 78.806C76.7209 79.8015 76.278 80.8017 75.8304 81.8018C82.7489 78.5229 90.9004 77.9338 98.2162 80.1897C100.271 80.8245 102.445 81.9068 103.669 83.5645C103.993 84.0075 104.253 84.487 104.422 85.0121Z" fill="#454546"/>
<path d="M190.813 199.339C189.72 198.897 188.801 198.066 188.17 196.596C187.754 195.625 187.337 194.653 186.92 193.682C186.476 192.646 186.034 191.439 186.551 190.438C186.736 190.08 187.034 189.779 187.156 189.396C187.556 188.142 185.931 187.022 186.05 185.711C186.099 185.17 186.441 184.706 186.621 184.193C187.405 181.958 185.554 179.677 187.146 177.543C188.471 175.766 191.501 175.208 193.545 174.762C193.924 174.679 194.309 174.604 194.697 174.621C195.243 174.644 195.764 174.845 196.274 175.045C200.315 176.627 207.459 178.425 208.18 171.902C208.242 171.344 208.169 170.782 208.108 170.223C207.846 167.84 207.433 165.397 207.804 163.002C207.984 161.845 208.353 160.691 209.099 159.77C209.521 159.251 210.4 158.394 211.114 158.37C212.352 158.329 212.32 160.289 212.559 161.202C213.419 164.487 214.387 167.785 214.387 171.212C214.628 174.202 216.11 176.872 217.095 179.653C218.039 182.317 217.934 185.192 218.284 188.002C220.843 189.033 223.237 190.533 225.79 191.491C228.446 192.488 231.26 193.187 234.005 193.919C234.692 194.102 242.376 196.119 242.376 195.043C241.748 202.558 238.595 209.839 233.544 215.439C226.33 210.696 219.162 204.867 211.512 200.892C207.743 198.935 203.299 198.961 199.169 199.235C196.366 199.42 193.183 200.298 190.813 199.339Z" fill="#D8B288"/>
<path opacity="0.1" d="M190.813 199.339C190.009 199.014 189.067 198.365 188.679 197.558C188.214 196.593 188.983 195.306 188.059 194.6C187.484 194.159 186.66 193.808 186.612 193.085C192.894 194.231 199.176 195.378 205.458 196.524C207.167 196.836 208.702 197.363 210.333 197.854C211.541 198.218 213.277 198.009 214.357 198.49C215.556 199.024 217.079 201.838 218.297 202.83C219.723 203.991 221.113 204.965 222.763 205.811C227.436 208.207 232.706 209.632 237.983 209.1C238.875 209.01 236.706 212.02 236.645 212.091C235.732 213.161 234.54 214.333 233.543 215.438C226.33 210.694 219.162 204.866 211.511 200.891C207.743 198.933 203.299 198.96 199.169 199.234C196.367 199.42 193.185 200.298 190.813 199.339Z" fill="#454546"/>
<path opacity="0.1" d="M204.739 176.554C204.364 176.623 203.99 176.647 203.61 176.543C206.153 176.394 207.907 174.376 208.18 171.901C208.241 171.344 208.168 170.781 208.107 170.223C207.845 167.839 207.432 165.396 207.803 163.001C207.95 162.06 208.203 160.916 208.827 160.163C208.844 160.143 209.784 158.716 209.902 159.415C210.194 161.139 209.541 162.864 209.273 164.592C209.023 166.209 209.11 167.857 209.199 169.491C209.242 170.308 209.287 171.127 209.411 171.936C209.636 173.394 210.199 174.879 210.156 176.367C210.086 178.792 209.403 177.606 208.144 176.631C207.534 176.159 206.685 176.152 205.927 176.289C205.524 176.363 205.131 176.483 204.739 176.554Z" fill="#454546"/>
<path d="M253.583 110.042L251.318 132.268C250.03 132.045 248.738 131.825 247.446 131.615C238.376 130.158 229.22 129.076 220.16 127.903C217.954 127.619 212.798 126.642 211.209 128.61C208.551 131.908 204.67 133.593 201.213 135.858C198.117 137.885 195.176 140.21 191.728 141.662C190.837 142.036 189.673 142.315 189.011 141.607C188.641 141.21 188.572 140.612 188.664 140.077C188.979 138.21 190.828 137.091 192.344 135.958C193.084 135.406 193.783 134.798 194.431 134.136C195.404 133.15 196.263 132.054 196.989 130.875C197.212 130.51 197.409 129.994 197.103 129.697C196.92 129.519 196.642 129.51 196.39 129.51C194.45 129.505 193.025 129.469 191.18 128.884C189.422 128.332 187.641 127.843 185.855 127.405C185.736 127.377 185.622 127.345 185.503 127.323C182.088 126.491 178.631 125.843 175.169 125.249C173.292 124.93 167.945 124.062 167.566 121.518C167.442 120.678 168.251 119.947 169.086 119.792C169.328 119.746 169.57 119.737 169.812 119.746C170.406 119.769 171.009 119.925 171.598 120.034C172.584 120.217 173.598 120.263 174.594 120.18C174.379 119.765 173.854 119.637 173.397 119.536C171.867 119.208 168.675 118.66 167.94 116.979C167.675 116.376 168.036 115.641 168.584 115.28C169.214 114.865 170.1 115.052 170.456 114.486C170.803 113.919 170.228 113.029 170.858 112.348C171.338 111.832 172.1 111.727 172.804 111.654C174.744 111.444 176.379 111.645 178.274 111.741C180.553 111.855 182.942 111.394 185.229 111.335C182.896 111.394 179.781 110.846 177.626 109.924C177.494 109.869 177.361 109.809 177.261 109.7C176.982 109.398 177.137 108.901 177.398 108.581C177.886 107.978 178.663 107.668 179.43 107.567C180.197 107.467 180.978 107.553 181.75 107.608C184.211 107.777 186.791 107.64 189.239 107.348C194.614 106.704 200.523 106.526 205.779 108.07C207.442 108.558 209.058 109.197 210.693 109.759C217.004 111.924 223.48 111.992 230.056 111.645C237.906 111.234 245.747 110.7 253.583 110.042Z" fill="#EFC5A8"/>
<path d="M211.492 35.9799C209.373 37.8294 206.848 39.1675 204.254 40.4324C201.204 41.9166 198.062 43.3003 195.381 45.3005C194.847 45.6978 194.313 46.1088 193.883 46.6066C193.486 47.0678 193.185 47.5975 192.883 48.1227C190.787 51.7988 188.897 55.5755 186.805 59.2516C185.654 61.2747 183.923 63.1013 182.992 65.2157C182.91 65.3984 182.846 65.5856 182.795 65.782C182.215 67.9146 183.115 70.6318 180.658 72.1159C180.046 72.4813 179.288 72.5543 178.562 72.5589C176.653 72.5772 174.744 72.2073 173.005 71.472C172.68 71.3396 172.356 71.1889 172 71.1798C171.137 71.1661 170.516 71.9789 169.685 72.2027C168.703 72.463 167.652 71.8008 167.2 70.9423C166.748 70.0884 166.739 69.0928 166.744 68.1384C166.744 67.7685 166.739 67.3803 166.725 66.9876C166.68 65.4806 166.561 63.8457 166.561 62.4209C166.556 62.4164 166.561 62.4163 166.561 62.4163V62.357C161.99 66.8323 157.418 71.3076 152.843 75.783C152.318 76.3036 151.696 76.8561 150.929 76.8516C150.021 76.8424 149.326 75.9839 149.253 75.1391C149.176 74.2897 149.559 73.4722 149.97 72.7096C154.528 64.2613 163.415 57.7812 166.145 48.6707C162.2 48.625 158.291 48.0177 154.4 47.4149C152.966 47.1911 151.496 46.9536 150.258 46.2504C148.865 45.4649 146.947 42.9761 149.427 42.3413C150.24 42.1358 151.413 42.6244 152.258 42.6609C153.541 42.7157 154.838 42.5194 156.094 42.3048C160.122 41.6061 164.159 39.5876 168.164 39.3867C172.242 39.1857 176.809 39.1538 180.471 37.2221C182.174 36.327 183.581 35.0255 185.01 33.7788C189.723 29.6505 194.851 25.9333 200.304 22.6909L211.492 35.9799Z" fill="#876F50"/>
<path d="M96.9645 111.479C96.5886 111.274 96.2461 111.04 95.8918 110.825C95.5443 110.603 95.1794 110.412 94.8291 110.206C94.4734 110.008 94.1035 109.846 93.7482 109.661C93.3929 109.475 93.013 109.351 92.6504 109.193C91.1785 108.607 89.6071 108.366 88.0435 108.508C86.4767 108.648 84.9423 109.216 83.5463 110.043C82.1447 110.872 80.8921 111.962 79.7103 113.132L79.3997 112.86C80.3573 111.454 81.5036 110.131 82.9192 109.07C84.323 108.006 85.9867 107.163 87.8353 106.804C88.0636 106.744 88.2965 106.715 88.5317 106.696C88.7664 106.67 89.0025 106.65 89.2391 106.634C89.7117 106.611 90.1853 106.665 90.6593 106.695C91.1237 106.777 91.5891 106.877 92.0425 106.999C92.4796 107.168 92.9321 107.305 93.3463 107.513L93.9537 107.85C94.1528 107.966 94.3633 108.061 94.5373 108.214C94.8921 108.506 95.278 108.748 95.5844 109.087C95.8995 109.412 96.2055 109.743 96.4708 110.104C96.7193 110.485 96.9631 110.861 97.1531 111.277L96.9645 111.479Z" fill="#13355A"/>
<path d="M132.712 109.364C132.422 109.04 132.173 108.699 131.907 108.373L131.1 107.415L130.255 106.509C129.968 106.216 129.667 105.939 129.376 105.653C128.187 104.538 126.828 103.629 125.353 102.941C123.874 102.258 122.257 101.859 120.606 101.712C118.952 101.565 117.271 101.691 115.603 101.954L115.512 101.552C117.139 100.965 118.879 100.589 120.664 100.556C122.446 100.513 124.273 100.761 126.022 101.361C127.779 101.936 129.406 102.981 130.645 104.351C130.932 104.713 131.244 105.052 131.502 105.431C131.737 105.828 131.999 106.199 132.189 106.616C132.38 107.032 132.55 107.455 132.692 107.884C132.803 108.332 132.912 108.772 132.957 109.234L132.712 109.364Z" fill="#13355A"/>
<path d="M83.0832 121.765C83.971 120.256 85.072 118.905 86.3442 117.663C87.0005 117.067 87.7005 116.498 88.4805 116.027C89.2628 115.564 90.1145 115.179 91.0228 114.973C92.8988 114.535 94.8661 115.036 96.3357 116.13C97.0741 116.676 97.6942 117.374 98.1399 118.165C98.5948 118.952 98.8373 119.841 98.924 120.723L98.5153 120.78C98.292 119.966 97.9002 119.233 97.4262 118.601C96.9412 117.972 96.3366 117.466 95.679 117.083C94.3578 116.324 92.7458 116.152 91.4598 116.632C90.0757 117.138 88.8331 118.04 87.5471 119.026C86.8991 119.514 86.2556 120.041 85.5547 120.538C84.8601 121.041 84.1331 121.54 83.2914 121.947L83.0832 121.765Z" fill="#13355A"/>
<path d="M112.951 118.291C113.852 116.698 115.205 115.359 116.834 114.392C117.661 113.934 118.564 113.573 119.52 113.403C120.474 113.24 121.47 113.238 122.418 113.459C124.329 113.896 125.941 115.078 127.12 116.492C127.718 117.199 128.229 117.964 128.68 118.756C129.13 119.549 129.483 120.387 129.813 121.226L129.435 121.391C128.979 120.624 128.476 119.895 127.965 119.191C127.437 118.498 126.867 117.852 126.263 117.269C125.05 116.109 123.579 115.307 122.085 115.143C120.589 114.993 119.129 115.345 117.686 115.997C116.959 116.313 116.246 116.714 115.501 117.13C114.76 117.554 114.012 118.02 113.163 118.467L112.951 118.291Z" fill="#13355A"/>
<path d="M89.8693 116.324L90.0606 118.118C90.1391 118.686 90.2497 119.217 90.4588 119.677C90.5611 119.913 90.6798 120.124 90.8246 120.292C90.9721 120.47 91.1575 120.626 91.3557 120.767C91.7516 121.05 92.2343 121.228 92.6901 121.255C93.1522 121.291 93.5628 121.113 93.8642 120.775C94.1651 120.453 94.2985 119.924 94.3574 119.352C94.4218 118.779 94.419 118.163 94.5067 117.529C94.5834 116.9 94.8099 116.228 95.2666 115.735L95.5854 115.997C95.083 117.025 95.4602 118.105 95.5127 119.416C95.5328 119.743 95.5196 120.103 95.4634 120.482C95.3913 120.862 95.2684 121.282 95.0068 121.656C94.8876 121.852 94.7355 122.015 94.5706 122.171C94.4172 122.334 94.2135 122.466 94.0144 122.583C93.6057 122.818 93.1458 122.937 92.7056 122.971C91.816 123.042 90.9831 122.799 90.2857 122.341C89.9291 122.121 89.6227 121.815 89.3455 121.471C89.2107 121.303 89.0906 121.087 88.9947 120.901C88.9048 120.716 88.8267 120.528 88.7632 120.337C88.5184 119.564 88.5445 118.79 88.7057 118.118C88.8705 117.441 89.1578 116.845 89.5948 116.289L89.8693 116.324Z" fill="#13355A"/>
<path d="M118.516 114.602C118.647 115.219 118.781 115.809 118.916 116.389C119.062 116.967 119.222 117.532 119.414 118.077C119.591 118.626 119.826 119.152 120.103 119.619C120.37 120.085 120.728 120.489 121.069 120.656C121.238 120.737 121.401 120.741 121.594 120.702C121.788 120.665 121.993 120.52 122.192 120.371C122.581 120.029 122.917 119.553 123.183 119.039C123.725 118.001 124.002 116.812 124.159 115.611L124.572 115.625C124.741 116.889 124.684 118.226 124.237 119.517C124.01 120.162 123.713 120.811 123.183 121.419C122.893 121.711 122.574 122.016 122.083 122.204C121.609 122.394 120.987 122.438 120.468 122.264C119.973 122.095 119.538 121.833 119.244 121.536C118.919 121.244 118.686 120.927 118.476 120.604C118.068 119.959 117.832 119.281 117.673 118.603C117.522 117.922 117.487 117.229 117.571 116.548C117.657 115.869 117.849 115.197 118.24 114.588L118.516 114.602Z" fill="#13355A"/>
<path d="M101.739 131.622C101.965 133.017 103.076 133.924 104.241 134.342C104.845 134.57 105.509 134.665 106.196 134.718C106.881 134.781 107.603 134.779 108.329 134.806C109.757 134.844 111.181 134.805 112.363 134.188C112.934 133.883 113.437 133.404 113.765 132.83C114.087 132.258 114.252 131.578 114.066 130.928L114.455 130.791C114.828 131.506 114.832 132.436 114.511 133.208C114.207 133.991 113.673 134.683 112.955 135.183C112.246 135.676 111.455 135.974 110.666 136.167C109.878 136.359 109.097 136.448 108.35 136.523C107.613 136.595 106.865 136.667 106.054 136.616C105.251 136.574 104.39 136.407 103.572 136.033C102.735 135.639 102 135 101.576 134.184C101.138 133.394 101.014 132.347 101.464 131.597L101.739 131.622Z" fill="#13355A"/>
<path d="M116.067 142.549C114.261 143.381 112.359 144.038 110.393 144.45L108.91 144.724L107.408 144.912L105.893 144.982L104.373 144.951C102.346 144.84 100.313 144.434 98.4144 143.657C96.5156 142.889 94.736 141.804 93.2079 140.442L94.267 139.818C94.5907 141.337 94.952 142.837 95.4018 144.303C95.852 145.766 96.3941 147.199 97.128 148.517C97.8605 149.834 98.782 151.038 99.9187 151.998C101.052 152.967 102.397 153.649 103.856 154.064C105.31 154.486 106.835 154.708 108.363 154.745C109.89 154.777 111.429 154.641 112.905 154.26C114.379 153.887 115.803 153.265 116.965 152.303C118.135 151.354 118.974 150.02 119.31 148.533L119.714 148.617C119.457 150.205 118.632 151.722 117.415 152.828C116.205 153.951 114.685 154.662 113.139 155.126C111.583 155.594 109.967 155.803 108.351 155.833C106.733 155.858 105.108 155.691 103.51 155.296C102.712 155.095 101.918 154.834 101.148 154.469C100.777 154.266 100.389 154.088 100.033 153.858C99.6867 153.615 99.3095 153.407 98.9921 153.126C97.6545 152.074 96.5699 150.743 95.7137 149.322C94.0067 146.455 93.1308 143.292 92.4252 140.221L91.6055 136.652L94.4537 139.026C95.8712 140.207 97.4102 141.236 99.1163 141.937C100.817 142.635 102.627 143.1 104.493 143.295L105.899 143.416L107.32 143.443L108.751 143.407L110.187 143.292L111.628 143.121C112.104 143.033 112.589 142.974 113.074 142.898L114.519 142.615C114.994 142.492 115.482 142.398 115.969 142.292L116.067 142.549Z" fill="#13355A"/>
<path d="M92.0663 132.281C91.3301 133.131 90.5912 133.874 89.8866 134.657L89.3578 135.238C89.1888 135.439 89.0308 135.648 88.8523 135.84L88.3559 136.449C88.2042 136.663 88.0366 136.866 87.8764 137.075C87.2512 137.922 86.71 138.836 86.2538 139.797C85.7985 140.759 85.4551 141.775 85.1697 142.816L84.7628 142.746C84.7272 141.618 84.8706 140.471 85.1793 139.366C85.4834 138.258 85.9081 137.171 86.4447 136.127C86.9667 135.075 87.6955 134.12 88.6025 133.367C88.8349 133.185 89.0701 133.007 89.3199 132.849C89.5838 132.708 89.8332 132.552 90.1122 132.438C90.388 132.321 90.6812 132.233 90.9721 132.152C91.2808 132.096 91.584 132.042 91.9156 132.049L92.0663 132.281Z" fill="#13355A"/>
<path d="M61.5609 193.265C61.6705 198.806 61.8961 204.32 62.3528 209.828L62.6889 213.959L63.0803 218.087L63.4949 222.214L63.9297 226.343C64.5192 231.847 65.17 237.352 65.7116 242.871C66.255 248.389 66.7176 253.923 66.8702 259.47L66.4578 259.489C65.9614 253.972 65.3335 248.479 64.5795 242.996L62.2249 226.543C62.0409 225.167 61.8359 223.794 61.6715 222.415L61.1906 218.275C61.0372 216.892 60.9467 215.504 60.8216 214.118L60.5398 209.951C60.4983 208.557 60.4435 207.164 60.4174 205.771C60.4321 204.375 60.4298 202.981 60.4768 201.587C60.5408 200.192 60.6385 198.799 60.7431 197.409C60.9244 196.019 61.0568 194.633 61.2851 193.254L61.5609 193.265Z" fill="#13355A"/>
<path d="M90.6342 171.862C88.6491 172.391 86.6416 172.844 84.6176 173.222C82.5937 173.602 80.5492 173.867 78.4987 174.076C76.4478 174.28 74.3869 174.413 72.3232 174.437C70.26 174.469 68.195 174.423 66.1336 174.3L66.7601 173.645C66.9747 175.405 67.4506 177.138 67.8812 178.917C68.3164 180.697 68.7082 182.474 69.1818 184.211C69.6613 185.945 70.2321 187.64 71.0039 189.244C71.3857 190.057 71.8067 190.814 72.2675 191.617C72.7224 192.416 73.1594 193.224 73.5859 194.037C75.3002 197.286 76.7748 200.644 78.1759 204.019C79.576 207.395 80.8976 210.797 82.2607 214.173C84.9829 220.917 87.8983 227.617 91.985 233.62C94.008 236.627 96.4096 239.364 98.7638 242.154C101.112 244.943 103.419 247.823 105.162 251.063L104.799 251.261C102.986 248.117 100.618 245.35 98.2048 242.632C95.7973 239.908 93.3057 237.2 91.1726 234.183C86.884 228.172 83.7509 221.452 80.8953 214.735C79.46 211.371 78.0754 208.003 76.6186 204.677C75.1582 201.353 73.6329 198.073 71.9501 194.894C71.5273 194.101 71.0943 193.313 70.6454 192.537L69.9563 191.325C69.7326 190.903 69.5042 190.484 69.3028 190.051C68.4708 188.328 67.8771 186.505 67.3857 184.704C66.903 182.899 66.5185 181.109 66.0975 179.352C65.6669 177.6 65.2321 175.759 65.0371 173.841L64.8969 172.461L66.2528 172.571C68.2671 172.734 70.2879 172.848 72.3132 172.892C74.3376 172.919 76.367 172.923 78.3973 172.84C80.4291 172.767 82.4539 172.578 84.4852 172.385C86.5178 172.195 88.5395 171.896 90.5702 171.594L90.6342 171.862Z" fill="#13355A"/>
<path d="M128.18 169.19C129.767 170.959 131.638 172.452 133.682 173.621C135.721 174.8 137.938 175.655 140.226 176.138C141.372 176.387 142.524 176.503 143.714 176.605C144.901 176.708 146.121 176.803 147.341 177.081C148.558 177.346 149.784 177.866 150.801 178.675C151.81 179.478 152.668 180.657 152.85 182.047C153.04 183.43 152.604 184.729 152.113 185.851C151.601 186.984 151.054 188.019 150.527 189.099L147.337 195.521C145.21 199.802 143.091 204.087 140.928 208.35L134.473 221.157C133.4 223.293 132.312 225.422 131.263 227.561C130.217 229.702 129.228 231.871 128.286 234.059C127.351 236.25 126.49 238.471 125.692 240.715C124.905 242.963 124.212 245.241 123.598 247.542C122.998 249.846 122.512 252.179 122.117 254.528C121.741 256.88 121.492 259.251 121.339 261.629L120.927 261.609C121.009 259.213 121.191 256.816 121.5 254.433C121.822 252.052 122.261 249.684 122.816 247.344C123.383 245.007 124.032 242.689 124.776 240.401C125.53 238.117 126.349 235.855 127.243 233.623C128.144 231.394 129.092 229.185 130.098 227.003C131.106 224.819 132.147 222.669 133.181 220.515L139.391 207.587C141.448 203.271 143.558 198.982 145.658 194.687C146.7 192.535 147.796 190.411 148.862 188.272C149.885 186.126 151.281 183.984 151.05 182.288C150.976 181.453 150.471 180.649 149.721 180.005C149.345 179.686 148.913 179.409 148.451 179.183C147.993 178.957 147.502 178.786 146.968 178.648C145.91 178.371 144.763 178.242 143.571 178.106C142.382 177.984 141.124 177.779 139.928 177.447C137.528 176.794 135.247 175.772 133.203 174.412C131.191 173.01 129.376 171.335 127.968 169.37L128.18 169.19Z" fill="#13355A"/>
<path d="M159.557 195.354C159.143 201.208 159.12 207.05 159.223 212.914C159.238 215.845 159.267 218.781 159.257 221.723C159.246 224.664 159.199 227.612 158.993 230.555C158.215 242.292 156.821 253.975 154.92 265.568L154.512 265.506C155.158 259.67 155.789 253.84 156.253 247.997C156.712 242.156 157.071 236.304 157.28 230.458C157.366 227.551 157.403 224.638 157.383 221.716L157.406 212.918C157.465 209.977 157.551 207.023 157.856 204.078L158.102 201.872C158.201 201.137 158.286 200.403 158.395 199.671C158.662 198.212 158.91 196.754 159.283 195.319L159.557 195.354Z" fill="#13355A"/>
<path d="M95.6826 177.081C96.1 179.021 96.4699 180.973 96.8133 182.928L97.7427 188.801C98.3724 192.707 98.9236 196.647 99.4173 200.582C99.8712 204.525 100.252 208.476 100.582 212.43C100.748 214.407 100.897 216.385 101.037 218.364C101.108 219.353 101.172 220.343 101.226 221.333C101.283 222.321 101.353 223.283 101.473 224.258C101.929 228.147 102.881 231.986 103.765 235.852L104.092 237.308C104.199 237.806 104.285 238.304 104.361 238.798C104.513 239.786 104.634 240.761 104.837 241.702C104.938 242.175 105.06 242.629 105.215 243.085L105.686 244.495C106 245.437 106.307 246.386 106.582 247.347C106.858 248.309 107.101 249.283 107.288 250.27C107.471 251.254 107.634 252.228 107.794 253.21C108.108 255.171 108.384 257.137 108.634 259.105C109.133 263.042 109.518 266.989 109.884 270.935L109.473 270.976C108.975 267.045 108.423 263.123 107.835 259.213C107.533 257.26 107.204 255.312 106.839 253.372C106.655 252.406 106.464 251.429 106.259 250.477C106.053 249.532 105.792 248.597 105.498 247.668C105.205 246.739 104.877 245.815 104.54 244.888L104.031 243.493C103.851 243.007 103.697 242.488 103.576 241.986C103.33 240.974 103.18 239.976 103.005 239.019C102.919 238.54 102.827 238.07 102.717 237.614L102.36 236.182C101.394 232.354 100.336 228.491 99.7698 224.469C99.6228 223.472 99.5241 222.438 99.4447 221.447L99.2118 218.492C99.0569 216.522 98.8939 214.552 98.714 212.585L98.1966 206.683C98.0162 204.716 97.8144 202.752 97.6116 200.787C97.2376 196.849 96.7764 192.944 96.4138 188.981L95.8991 183.057C95.7717 181.078 95.568 179.112 95.4109 177.13L95.6826 177.081Z" fill="#13355A"/>
<path d="M125.376 169.953C124.998 169.479 124.241 169.558 123.774 169.89C123.538 170.054 123.368 170.296 123.242 170.575C123.116 170.851 123.045 171.158 122.997 171.475C122.904 172.107 122.878 172.803 122.824 173.479L122.678 175.517L122.075 183.661L121.771 187.732L121.489 191.804L120.952 199.951C120.62 205.384 120.377 210.824 120.21 216.267C120.044 221.71 119.98 227.156 119.95 232.605L119.538 232.61C119.222 227.162 119.118 221.705 119.071 216.246C119.02 210.786 119.087 205.325 119.238 199.863C119.298 197.132 119.444 194.404 119.595 191.676C119.767 188.95 120.019 186.229 120.265 183.509C120.425 182.152 120.564 180.793 120.741 179.438C120.937 178.085 121.102 176.73 121.335 175.381C121.45 174.707 121.55 174.032 121.677 173.359C121.81 172.684 121.893 172.028 122.091 171.295C122.305 170.586 122.661 169.783 123.447 169.361C123.819 169.174 124.228 169.095 124.632 169.15C125.032 169.204 125.426 169.447 125.606 169.798L125.376 169.953Z" fill="#13355A"/>
<path d="M152.787 180.692L158.466 181.173L161.301 181.446C162.242 181.546 163.194 181.599 164.175 181.803C164.663 181.907 165.156 182.044 165.634 182.265C166.112 182.484 166.57 182.802 166.944 183.214C167.32 183.626 167.583 184.137 167.741 184.64C167.904 185.146 167.984 185.651 168.042 186.139L168.581 191.823C168.896 195.606 169.206 199.386 169.607 203.152C170.006 206.919 170.497 210.671 171.104 214.401C171.729 218.126 172.499 221.83 173.574 225.444C173.86 226.34 174.115 227.254 174.425 228.136C174.732 229.024 175.068 229.906 175.408 230.791C176.09 232.557 176.783 234.359 177.277 236.213C178.302 239.882 179.161 243.596 179.84 247.342C180.173 249.22 180.493 251.085 180.705 252.994C180.889 254.904 180.858 256.819 180.77 258.718L180.357 258.703C180.375 256.809 180.334 254.916 180.084 253.059C179.963 252.136 179.769 251.208 179.6 250.276C179.427 249.346 179.244 248.418 179.048 247.494C178.268 243.793 177.31 240.133 176.191 236.526C175.658 234.734 174.943 233.024 174.206 231.266C173.84 230.389 173.474 229.502 173.131 228.597C172.786 227.687 172.509 226.774 172.194 225.862C171.008 222.201 170.136 218.456 169.413 214.694C168.681 210.932 168.175 207.139 167.742 203.349C167.329 199.555 167.054 195.757 166.769 191.97L166.414 186.311C166.353 185.425 166.206 184.693 165.807 184.213C165.407 183.717 164.704 183.343 163.871 183.109C163.049 182.868 162.104 182.741 161.165 182.574L158.355 182.089C156.488 181.713 154.615 181.388 152.753 180.966L152.787 180.692Z" fill="#13355A"/>
<path d="M62.6241 225.074C61.1518 223.726 59.7389 222.309 58.4145 220.811C57.1012 219.306 55.8321 217.758 54.6425 216.153C52.2696 212.936 50.1206 209.57 47.9665 206.224C45.8119 202.876 43.6633 199.537 41.2882 196.363C38.9304 193.176 36.4393 190.086 33.8545 187.07C28.7317 180.999 23.3261 175.143 18.2758 168.952C13.1949 162.798 8.58398 156.176 4.93019 149.045C4.00772 147.265 3.15558 145.427 2.49935 143.501C2.16873 142.539 1.90203 141.552 1.70293 140.548C1.51158 139.541 1.36225 138.531 1.36956 137.482C1.34764 135.399 1.80568 133.372 2.44912 131.453C3.09987 129.53 3.93603 127.694 4.83155 125.901C5.72844 124.109 6.69247 122.361 7.63274 120.611C8.10174 119.736 8.56708 118.861 9.00594 117.978C9.43977 117.101 9.86904 116.183 10.3216 115.294C12.1263 111.728 14.1402 108.292 15.5751 104.621C16.9483 100.931 17.947 97.0573 19.1284 93.2524C19.7134 91.3462 20.3441 89.4438 21.0537 87.5787C21.7501 85.7096 22.4799 83.8532 23.2457 82.012C26.299 74.6427 29.872 67.4909 33.9322 60.6304L34.2884 60.8391C30.3524 67.7512 26.9452 74.9492 23.9924 82.3175C23.2549 84.1601 22.5539 86.0169 21.8867 87.8856C21.2067 89.7484 20.6121 91.6275 20.0554 93.5332L18.4288 99.2744C18.1562 100.234 17.8771 101.194 17.584 102.152C17.2931 103.104 16.993 104.073 16.63 105.026C15.1993 108.832 13.2086 112.327 11.477 115.872C11.0399 116.762 10.6445 117.64 10.2015 118.566C9.76355 119.477 9.30506 120.369 8.84428 121.257C7.91999 123.027 6.98245 124.774 6.123 126.543C5.26447 128.311 4.47672 130.101 3.88214 131.93C3.29213 133.755 2.90487 135.631 2.94826 137.46C2.94826 138.361 3.09759 139.312 3.28436 140.23C3.4789 141.153 3.73601 142.067 4.05796 142.967C4.69592 144.77 5.53025 146.523 6.45226 148.253C10.1535 155.216 14.6654 161.681 19.728 167.767C24.7331 173.892 30.1108 179.766 35.2419 185.902C37.7851 188.989 40.2433 192.161 42.5677 195.434C44.905 198.702 47.0399 202.103 49.0693 205.526C51.1161 208.943 53.1565 212.344 55.39 215.612C56.4847 217.262 57.6583 218.854 58.8813 220.411C59.5069 221.177 60.1302 221.947 60.7961 222.681C61.4322 223.443 62.1341 224.143 62.8113 224.871L62.6241 225.074Z" fill="#13355A"/>
<path d="M33.101 135.247C33.402 135.18 33.7271 135.211 34.0153 135.316C34.3052 135.419 34.5605 135.582 34.7966 135.756C35.2715 136.114 35.6474 136.523 36.0506 136.909C36.8343 137.705 37.6385 138.487 38.3819 139.322C39.145 140.14 39.8853 140.98 40.5931 141.844C41.3105 142.701 42.0293 143.559 42.717 144.438C43.4075 145.316 44.0852 146.203 44.7492 147.099C45.4173 147.993 46.0914 148.881 46.7339 149.79L50.6032 155.23C53.1738 158.855 55.7937 162.437 58.6497 165.825C61.5048 169.21 64.6229 172.378 68.0858 175.15L67.836 175.479C64.132 172.957 60.8394 169.857 57.7902 166.572C54.7324 163.286 51.9426 159.77 49.2154 156.239C47.8372 154.483 46.5298 152.68 45.1977 150.906C43.8847 149.116 42.6093 147.306 41.2763 145.545C40.6433 144.637 39.9697 143.765 39.3204 142.872C38.6902 141.962 38.0006 141.105 37.3585 140.203C36.7142 139.301 36.031 138.436 35.3743 137.538C35.0478 137.085 34.7391 136.607 34.3975 136.234C34.2244 136.045 34.0381 135.875 33.8321 135.748C33.6298 135.612 33.3997 135.528 33.1444 135.52L33.101 135.247Z" fill="#13355A"/>
<path d="M102.261 83.6238L101.28 83.2722C100.953 83.1576 100.637 83.0146 100.297 82.942C99.6264 82.7735 98.9702 82.5634 98.2834 82.4844L97.2691 82.3141L96.2439 82.2346L95.7324 82.1945C95.5616 82.1849 95.3899 82.1958 95.2191 82.1958L94.1939 82.2091C91.4631 82.336 88.7742 83.0119 86.2685 84.0951C83.7458 85.15 81.4237 86.6575 79.328 88.4088C77.2329 90.1615 75.3509 92.2123 74.1289 94.6053C73.5156 95.8004 73.127 97.0836 72.9297 98.4184C72.7356 99.7537 72.7219 101.126 72.795 102.503C72.8676 103.881 73.0206 105.267 73.1548 106.664C73.295 108.062 73.3927 109.474 73.4416 110.882C73.5398 113.7 73.443 116.523 73.1598 119.324C73.0201 120.721 72.8374 122.14 72.4036 123.508C71.9794 124.868 71.2761 126.202 70.1655 127.151L69.8924 126.842C70.8751 125.902 71.4574 124.636 71.7898 123.326C72.1205 122.006 72.2479 120.636 72.3369 119.249C72.5132 116.476 72.5041 113.696 72.3041 110.934C72.2036 109.551 72.0575 108.182 71.8675 106.803C71.6816 105.423 71.4752 104.024 71.3556 102.592C71.2336 101.162 71.1966 99.6912 71.3651 98.2038C71.5337 96.7206 71.9396 95.2136 72.589 93.8481C73.8727 91.0894 75.9049 88.859 78.1005 86.9602L78.9408 86.2556C79.2239 86.0245 79.5313 85.824 79.8254 85.6076C80.1258 85.3993 80.4131 85.1724 80.7241 84.9801L81.6534 84.3974C81.9589 84.1965 82.2777 84.0175 82.6019 83.8471L83.5668 83.3242C83.8929 83.1585 84.2299 83.0133 84.561 82.8571C84.8971 82.7119 85.2177 82.5319 85.5679 82.4182C88.2979 81.3642 91.2338 80.7349 94.1711 80.8587L95.2671 80.9404C95.4488 80.9569 95.631 80.9624 95.8123 80.9884L96.353 81.0861L97.4276 81.2843C97.7806 81.3756 98.1308 81.4766 98.4779 81.5811C99.8662 82.0031 101.179 82.6237 102.382 83.3749L102.261 83.6238Z" fill="#13355A"/>
<path d="M139.455 118.948C139.063 118.907 138.681 118.663 138.456 118.33C138.234 117.994 138.129 117.613 138.069 117.241C138.011 116.866 138.003 116.489 138.026 116.116C138.048 115.739 138.117 115.372 138.162 115.028C138.266 114.328 138.388 113.631 138.465 112.927L138.595 111.874L138.691 110.818C138.941 108.007 139.044 105.183 138.827 102.383C138.652 99.5836 138.157 96.8098 137.299 94.1643C136.449 91.5179 135.182 89.0104 133.476 86.8293C131.792 84.6405 129.561 82.8965 127.056 81.7064C125.804 81.1096 124.487 80.641 123.134 80.3036C121.78 79.9693 120.393 79.7647 118.992 79.6551C117.595 79.5478 116.191 79.5478 114.821 79.7574C113.451 79.9688 112.121 80.3839 110.967 81.1415C109.791 81.8813 108.701 82.8376 107.392 83.5153C106.743 83.8564 106.021 84.1122 105.268 84.1674C104.516 84.23 103.765 84.0843 103.075 83.8226L103.224 83.4372C103.878 83.6441 104.557 83.734 105.216 83.6432C105.877 83.5578 106.506 83.2988 107.091 82.9495C108.267 82.2508 109.299 81.2799 110.518 80.4469C111.121 80.0305 111.811 79.6519 112.508 79.3925C113.208 79.1231 113.931 78.9262 114.662 78.7874C116.125 78.5102 117.608 78.4595 119.068 78.5184C121.974 78.6312 124.938 79.1824 127.666 80.399C130.395 81.5904 132.9 83.4203 134.814 85.7534C136.756 88.0491 138.155 90.7617 139.105 93.5761C139.601 94.9817 139.896 96.439 140.166 97.8893C140.29 98.6168 140.369 99.3488 140.472 100.078C140.531 100.81 140.604 101.541 140.642 102.273C140.751 105.203 140.543 108.124 140.033 110.978C139.911 111.692 139.779 112.404 139.605 113.106C139.45 113.812 139.261 114.511 139.07 115.206L138.92 115.721C138.872 115.877 138.83 116.036 138.797 116.197C138.728 116.518 138.687 116.847 138.689 117.17C138.694 117.805 138.862 118.469 139.503 118.675L139.455 118.948Z" fill="#13355A"/>
<path d="M69.1727 120.985C68.5247 119.284 67.8794 117.576 67.3323 115.834C66.7916 114.091 66.2893 112.329 65.8943 110.54C65.1166 106.959 64.6521 103.299 64.5439 99.6391C64.4818 97.8106 64.4329 95.9967 64.4617 94.1536C64.496 92.316 64.622 90.4587 64.9841 88.6261C65.3527 86.7944 65.9596 84.9956 66.8638 83.3402C67.7652 81.6884 68.9836 80.1755 70.5176 79.0379L71.0496 79.9326C70.6916 80.086 70.2719 80.1362 69.8874 80.0527C69.4978 79.9755 69.1759 79.7714 68.9087 79.543C68.6375 79.3129 68.4288 79.0361 68.2657 78.7388C68.0963 78.4443 67.9854 78.12 67.9223 77.7839C67.8525 77.4492 67.8611 77.0907 67.9306 76.7418C68.0045 76.3747 68.1466 76.1039 68.305 75.8098C68.6338 75.2426 69.0919 74.7887 69.5745 74.416C70.5536 73.6694 71.6204 73.2059 72.6388 72.6853C73.6722 72.1788 74.7148 71.6861 75.7747 71.2276C77.8964 70.3202 80.098 69.547 82.3923 69.1484C83.5399 68.9621 84.7039 68.8588 85.8698 68.8963C87.0352 68.9493 88.1915 69.1356 89.3117 69.4575L89.1966 69.8539C88.097 69.595 86.9758 69.4699 85.8556 69.4721C84.7331 69.4877 83.6212 69.6502 82.5243 69.8694C80.3286 70.3348 78.2183 71.1618 76.1738 72.1268C75.1518 72.6136 74.144 73.136 73.1411 73.6739C72.1406 74.2274 71.1135 74.7366 70.339 75.3846C69.5682 76.0139 69.0535 76.8797 69.2567 77.5273C69.3371 77.8871 69.564 78.2675 69.828 78.4676C69.9563 78.5676 70.0874 78.6374 70.1824 78.6416C70.2787 78.6511 70.3463 78.6342 70.4413 78.5963L76.4931 76.1714L71.4012 80.2098C70.0988 81.2427 69.0672 82.6045 68.3055 84.1124C67.5419 85.624 67.0396 87.2739 66.7551 88.9672C66.145 92.3644 66.3464 95.9588 66.3975 99.5706C66.4446 101.362 66.5761 103.143 66.7172 104.923C66.7912 105.812 66.8944 106.699 67.0031 107.585C67.1035 108.473 67.2245 109.359 67.3666 110.243C67.6351 112.013 67.9337 113.791 68.3178 115.557L69.4344 120.896L69.1727 120.985Z" fill="#13355A"/>
<path d="M141.09 137.478C142.509 136.483 143.801 135.319 144.953 134.035C146.1 132.744 147.094 131.328 147.977 129.851C148.856 128.37 149.593 126.808 150.212 125.203C150.81 123.596 151.397 121.94 151.306 120.332C151.264 119.53 151.038 118.785 150.594 118.147C150.159 117.519 149.528 117.039 148.839 116.902C148.754 116.881 148.666 116.879 148.58 116.865C148.533 116.861 148.537 116.864 148.481 116.88C148.386 116.911 148.24 117.005 148.104 117.121C147.826 117.358 147.555 117.673 147.298 118C147.04 118.329 146.792 118.677 146.543 119.031C146.287 119.389 146.055 119.743 145.735 120.128C145.64 120.228 145.582 120.322 145.354 120.472C145.282 120.507 145.201 120.567 144.988 120.575C144.884 120.577 144.761 120.548 144.645 120.476C144.546 120.415 144.48 120.332 144.436 120.265C144.304 120.014 144.332 119.938 144.315 119.839C144.304 119.505 144.347 119.297 144.381 119.06C144.456 118.605 144.557 118.169 144.651 117.745C144.828 116.931 144.936 116.085 145.012 115.234C145.16 113.53 145.185 111.799 145.186 110.069C145.17 106.606 144.968 103.134 144.707 99.6665C144.575 97.9325 144.424 96.1995 144.258 94.4669L144 91.8689L143.864 90.5734C143.818 90.1564 143.754 89.7363 143.682 89.3171C143.387 87.6393 142.949 85.9743 142.373 84.3723C141.797 82.7749 141.086 81.2131 140.104 79.8828C139.139 78.5639 137.806 77.4821 136.273 77.425C135.896 77.4067 135.51 77.4405 135.134 77.5291C134.773 77.6141 134.4 77.7634 134.007 77.9374C133.615 78.1086 133.203 78.3023 132.738 78.4493C132.28 78.6005 131.742 78.685 131.203 78.6146C130.909 78.5763 130.699 78.3132 130.719 78.0219C130.809 76.7921 130.429 75.5385 129.773 74.4425C129.114 73.3392 128.191 72.4072 127.132 71.6217C126.074 70.8335 124.899 70.1814 123.696 69.5544C122.488 68.9255 121.275 68.3182 120.045 67.7387C115.131 65.4156 110.002 63.5506 104.763 62.0714C103.448 61.6988 102.149 61.3517 100.817 61.1202C99.4889 60.8832 98.1441 60.7297 96.7942 60.6704C94.0953 60.5484 91.3776 60.7763 88.7354 61.3558C87.4238 61.6102 86.173 62.1313 85.2377 63.0391C84.3098 63.9342 83.7755 65.2384 83.9198 66.529C84.0308 67.8199 84.7756 69.0233 85.8538 69.7567C86.9306 70.5088 88.2892 70.7851 89.614 70.7344L89.6341 71.1468C88.2449 71.2317 86.7758 70.9778 85.5675 70.1745C84.3596 69.3923 83.4823 68.0606 83.3229 66.5897C83.1248 65.1215 83.7097 63.5903 84.7496 62.5473C85.7844 61.4883 87.2028 60.896 88.5659 60.606C91.2648 59.9648 94.0505 59.6821 96.8307 59.7589C98.2208 59.7963 99.6091 59.9301 100.985 60.1507C102.36 60.3649 103.725 60.7051 105.044 61.054C110.357 62.4546 115.584 64.2516 120.611 66.5216C121.867 67.0856 123.115 67.6861 124.341 68.3026C125.574 68.9228 126.826 69.5891 128.005 70.4403C129.18 71.2847 130.284 72.3533 131.082 73.6511C131.48 74.301 131.807 75.0065 132.03 75.7605C132.246 76.5158 132.349 77.3209 132.305 78.1301L131.416 77.0396C131.879 77.1063 132.53 76.8373 133.347 76.4487C133.753 76.2633 134.216 76.0605 134.757 75.9249C135.269 75.7979 135.804 75.7408 136.348 75.7596C137.439 75.7892 138.509 76.1906 139.362 76.7697C140.229 77.3469 140.914 78.0767 141.5 78.8361C142.659 80.3705 143.444 82.051 144.084 83.7544C144.707 85.4669 145.175 87.2096 145.499 89.002C145.579 89.4513 145.65 89.9034 145.704 90.3683L145.848 91.6785L146.121 94.2893C146.3 96.0305 146.456 97.775 146.577 99.524C146.827 103.021 147.017 106.527 147.022 110.063C147.026 111.832 146.964 113.607 146.762 115.403C146.66 116.302 146.527 117.205 146.305 118.126C146.202 118.553 146.104 118.955 146.035 119.338C146.018 119.431 146.003 119.522 145.993 119.601C145.981 119.679 145.98 119.756 145.979 119.741C145.978 119.747 145.976 119.703 145.969 119.681C145.963 119.647 145.954 119.614 145.942 119.582C145.931 119.546 145.891 119.446 145.851 119.389C145.834 119.363 145.775 119.274 145.726 119.227C145.667 119.167 145.63 119.136 145.535 119.072C145.448 119.015 145.348 118.973 145.25 118.948C145.16 118.925 145.082 118.914 144.994 118.914C144.9 118.915 144.828 118.927 144.794 118.933C144.748 118.942 144.702 118.955 144.658 118.972C144.584 119.001 144.566 119.01 144.52 119.036C144.421 119.097 144.427 119.108 144.432 119.099C144.44 119.092 144.461 119.07 144.484 119.045C144.691 118.809 144.957 118.431 145.21 118.084C145.469 117.728 145.738 117.362 146.033 116.997C146.333 116.631 146.645 116.264 147.082 115.897C147.309 115.717 147.558 115.523 147.976 115.378C148.079 115.342 148.199 115.313 148.331 115.296C148.398 115.289 148.462 115.281 148.537 115.283C148.606 115.283 148.697 115.286 148.719 115.292C148.866 115.314 149.017 115.327 149.162 115.364C150.346 115.63 151.261 116.413 151.846 117.295C152.142 117.742 152.367 118.225 152.521 118.735C152.676 119.252 152.745 119.768 152.752 120.27C152.771 121.282 152.57 122.235 152.301 123.121C152.032 124.012 151.689 124.83 151.342 125.654C150.628 127.291 149.793 128.874 148.818 130.367C146.839 133.325 144.294 135.94 141.244 137.711L141.09 137.478Z" fill="#13355A"/>
<path d="M69.4179 121.772C68.9818 120.62 68.3452 119.511 67.4008 118.775C66.9263 118.411 66.3934 118.151 65.8216 118.078C65.2531 117.994 64.6585 118.067 64.1498 118.29C63.6397 118.512 63.2241 118.889 63.0236 119.379C62.8154 119.871 62.7994 120.458 62.8328 121.06C62.9218 122.291 63.0478 123.537 63.2287 124.765C63.9411 129.685 65.3399 134.504 67.4515 138.991C67.9524 140.102 68.5566 141.144 69.3412 142.005C70.112 142.859 71.0961 143.505 72.1054 143.467C72.231 143.478 72.3561 143.443 72.4812 143.428C72.6086 143.416 72.7283 143.383 72.8488 143.344C73.089 143.264 73.3247 143.146 73.5512 143.001C73.6626 142.929 73.7804 142.844 73.8795 142.765C73.953 142.705 74.0302 142.624 74.1147 142.521C74.2869 142.317 74.4709 142.013 74.8093 141.723C75.1376 141.443 75.7007 141.172 76.3282 141.423C76.6259 141.555 76.7889 141.743 76.9054 141.863L77.2315 142.251C77.3379 142.383 77.4516 142.51 77.5511 142.645L77.832 143.065C78.0302 143.34 78.1777 143.639 78.3375 143.933C78.9535 145.118 79.3262 146.374 79.6472 147.6C79.9692 148.827 80.2455 150.04 80.6309 151.189C81.0159 152.337 81.5141 153.422 82.2265 154.34C82.9402 155.255 83.8878 156.008 84.8975 156.706C86.9799 158.076 89.0509 159.547 91.1205 160.927C93.1993 162.302 95.3205 163.619 97.5792 164.584C99.7999 165.581 102.271 165.797 104.752 165.801C107.237 165.809 109.753 165.6 112.303 165.739C112.932 165.769 113.599 165.853 114.177 165.895C114.468 165.91 114.746 165.9 114.997 165.838C115.244 165.78 115.48 165.658 115.722 165.498L118.755 163.302C120.778 161.817 122.852 160.382 124.813 158.844C128.757 155.776 132.119 152.012 135.911 148.699L136.187 149.006C134.357 150.719 132.608 152.508 130.855 154.309C129.107 156.115 127.274 157.867 125.318 159.474C123.352 161.083 121.33 162.546 119.338 164.075L116.309 166.368C116.021 166.568 115.664 166.772 115.259 166.875C114.864 166.979 114.479 166.994 114.129 166.984C113.421 166.946 112.87 166.884 112.247 166.868C109.805 166.787 107.313 167.045 104.759 167.093C103.482 167.117 102.184 167.091 100.876 166.925C100.223 166.841 99.5679 166.721 98.9176 166.552C98.2678 166.384 97.6193 166.157 97.0225 165.915C94.5994 164.928 92.3937 163.606 90.2547 162.247C89.1861 161.565 88.1357 160.867 87.09 160.176L85.5241 159.149L83.9294 158.123C82.8498 157.402 81.7383 156.572 80.8277 155.449C79.9203 154.329 79.3239 153.034 78.8969 151.772C78.0416 149.248 77.7169 146.747 76.672 144.792C76.5382 144.554 76.4172 144.305 76.2574 144.092L76.0336 143.759C75.9542 143.653 75.8637 143.557 75.782 143.454L75.5299 143.146C75.4441 143.044 75.4313 143.076 75.5902 143.151C75.951 143.28 76.0514 143.113 76.0135 143.161C75.9651 143.189 75.8167 143.385 75.5655 143.703C75.4363 143.859 75.2714 144.044 75.0522 144.221C74.8833 144.355 74.7358 144.459 74.5627 144.57C74.2248 144.786 73.8489 144.976 73.4366 145.111C73.2311 145.178 73.0146 145.235 72.8013 145.261C72.5867 145.29 72.3748 145.334 72.1542 145.324C71.2752 145.349 70.4166 145.08 69.7271 144.683C69.0297 144.285 68.4662 143.779 67.9808 143.245C67.0208 142.176 66.324 140.959 65.802 139.747C64.7722 137.391 63.9246 134.96 63.267 132.482C62.6136 130.005 62.1131 127.484 61.8993 124.935C61.7815 123.658 61.7217 122.396 61.6979 121.102C61.6993 120.443 61.7326 119.689 62.0788 118.96C62.4254 118.222 63.0972 117.674 63.8032 117.434C64.5137 117.187 65.2577 117.163 65.9536 117.319C66.3011 117.4 66.6414 117.517 66.9542 117.694C67.2592 117.866 67.5373 118.07 67.7912 118.297C68.8064 119.223 69.3503 120.459 69.68 121.68L69.4179 121.772Z" fill="#13355A"/>
<path d="M173.775 67.8442C174.759 65.9581 175.677 64.0552 176.412 62.0765C176.797 61.0955 177.142 60.0982 177.441 59.0871C177.52 58.8305 177.59 58.5939 177.599 58.3852C177.61 58.1774 177.547 58.0299 177.438 57.9564C177.331 57.8765 177.118 57.8587 176.905 57.8966C176.696 57.9244 176.467 58.0582 176.24 58.1505C175.337 58.577 174.604 59.3392 173.962 60.1566C173.316 60.9795 172.737 61.871 172.119 62.7432C171.498 63.6113 170.835 64.4785 169.985 65.1658C169.567 65.5165 169.083 65.7828 168.578 65.9924L168.208 66.1339C168.148 66.1581 168.087 66.1824 168.033 66.2088C167.976 66.2358 167.934 66.2636 167.937 66.2719C167.925 66.3143 167.877 66.4216 167.83 66.4732C167.782 66.5322 167.731 66.5828 167.679 66.6299C167.576 66.724 167.467 66.8052 167.358 66.8861L167.235 66.7208C167.425 66.5491 167.654 66.3828 167.698 66.1737C167.755 66.0394 167.853 66.0038 167.909 65.9668C167.975 65.9294 168.036 65.9015 168.098 65.8705L168.464 65.7019C168.919 65.47 169.353 65.2042 169.728 64.8548C170.491 64.1707 171.087 63.3081 171.653 62.4231C172.22 61.5358 172.748 60.6055 173.39 59.7169C174.028 58.836 174.788 57.9486 175.855 57.3837C176.129 57.2591 176.365 57.0979 176.734 57.0202C177.073 56.9527 177.507 56.9111 177.956 57.2015C178.411 57.4979 178.553 58.0578 178.525 58.4263C178.508 58.8072 178.409 59.1045 178.341 59.3534C178.037 60.3918 177.668 61.4102 177.257 62.4098C176.381 64.384 175.332 66.2983 173.893 67.9172L173.775 67.8442Z" fill="#13355A"/>
<path d="M178 60.1105C178.258 59.6255 178.632 59.1903 179.091 58.8565C179.544 58.513 180.089 58.2815 180.665 58.1861L180.962 58.1372L180.991 58.4592C181.086 59.4967 181.038 60.5406 180.976 61.5782C180.913 62.6176 180.736 63.6464 180.532 64.6643C180.322 65.6818 180.046 66.6846 179.717 67.6674C179.39 68.6506 179 69.6128 178.54 70.5389L178.352 70.4544C178.685 69.4817 178.985 68.5045 179.235 67.5181C179.482 66.5303 179.661 65.5297 179.8 64.5278C179.944 63.5259 179.993 62.5162 180.051 61.5133L180.113 60.0068L180.142 58.4975L180.778 59.0286C180.555 59.0478 180.325 59.0711 180.099 59.1341C179.875 59.1962 179.643 59.2652 179.422 59.3698C179.194 59.4634 178.98 59.5917 178.756 59.7214C178.533 59.8547 178.33 60.02 178.113 60.1899L178 60.1105Z" fill="#13355A"/>
<path d="M180.259 66.1447C180.381 65.7168 180.683 65.3278 181.098 65.1012C181.512 64.8825 182.053 64.8314 182.517 65.0574L182.626 65.1108L182.644 65.2497C182.826 66.6178 182.913 68.0285 182.632 69.4327C182.492 70.1301 182.259 70.8333 181.837 71.4512C181.401 72.0526 180.76 72.5376 180.045 72.7417C179.334 72.9536 178.621 72.9646 177.939 72.9842C177.252 73.0011 176.547 73.0112 175.846 72.892C175.148 72.7801 174.454 72.512 173.895 72.0627C173.337 71.6197 172.909 71.0005 172.742 70.3068L172.942 70.2543C173.153 70.8868 173.6 71.3973 174.127 71.7594C174.659 72.1271 175.277 72.317 175.922 72.3759C176.567 72.4403 177.229 72.3869 177.907 72.3234C178.59 72.2586 179.25 72.2042 179.805 71.9946C180.358 71.7941 180.783 71.4147 181.094 70.937C181.404 70.4525 181.588 69.8647 181.71 69.2491C181.968 68.0102 181.924 66.669 181.947 65.3168L182.184 65.6739C181.973 65.4985 181.632 65.4378 181.298 65.5383C181.128 65.5798 180.955 65.6529 180.801 65.7648C180.649 65.878 180.508 66.0205 180.388 66.1927L180.259 66.1447Z" fill="#13355A"/>
<path d="M169.147 59.8786L166.51 62.6127L163.836 65.3093L158.486 70.6993L155.781 73.364L154.427 74.6952C153.971 75.1354 153.542 75.5889 153.043 76.0245C152.548 76.4488 151.966 76.8543 151.247 76.9927C150.534 77.1352 149.728 76.8799 149.233 76.3451C148.733 75.82 148.466 75.1213 148.457 74.4084C148.466 73.6923 148.71 73.0411 149.02 72.4589C149.336 71.8771 149.713 71.3538 150.087 70.8427C150.47 70.3349 150.84 69.8162 151.235 69.3179C152.018 68.3165 152.825 67.336 153.648 66.3715C155.292 64.4398 156.991 62.5638 158.621 60.633C160.251 58.7036 161.82 56.7203 163.183 54.5982C164.546 52.4797 165.696 50.2133 166.454 47.8066L166.651 47.8669C165.951 50.3133 164.862 52.6469 163.524 54.8133C162.192 56.987 160.652 59.021 159.055 60.9943C157.456 62.9675 155.802 64.8869 154.2 66.8355C153.398 67.8096 152.617 68.796 151.861 69.7988C151.48 70.2979 151.126 70.8149 150.758 71.3213C150.394 71.836 150.045 72.3447 149.779 72.8598C149.516 73.369 149.344 73.9147 149.35 74.4002C149.365 74.8792 149.569 75.3788 149.89 75.7076C150.216 76.0369 150.633 76.1615 151.084 76.0807C151.531 75.9939 151.998 75.6967 152.434 75.3126C152.863 74.9313 153.315 74.46 153.771 74.0257L155.131 72.7005L157.851 70.0518C161.525 66.5674 165.186 63.0698 169.051 59.7786L169.147 59.8786Z" fill="#13355A"/>
<path d="M181.541 50.4885C180.074 50.9013 178.559 51.1662 177.029 51.2429C175.499 51.3201 173.961 51.2013 172.449 50.9415C170.94 50.6657 169.454 50.2282 168.042 49.6235C167.34 49.3272 166.654 49.023 165.948 48.8358C165.24 48.6591 164.5 48.5659 163.757 48.5303C162.268 48.4431 160.75 48.5517 159.21 48.4951C158.44 48.4668 157.662 48.3919 156.898 48.2289C156.147 48.0695 155.404 47.8786 154.668 47.6626C153.198 47.2301 151.761 46.7018 150.352 46.1145L149.3 45.6642C148.954 45.5122 148.592 45.3583 148.245 45.1491C147.905 44.9395 147.541 44.6756 147.338 44.2362C147.24 44.0225 147.201 43.7645 147.24 43.5252C147.278 43.285 147.383 43.0699 147.514 42.89C148.049 42.1707 148.933 41.8967 149.717 41.8547C150.517 41.8008 151.282 41.9177 152.028 41.9643C153.527 42.0694 155.036 42.0424 156.532 41.8812C158.029 41.7241 159.503 41.42 160.96 41.0204C162.419 40.6258 163.866 40.1582 165.342 39.7668C171.303 38.0932 177.584 39.5819 183.394 37.6685L183.46 37.8639C180.562 38.8905 177.46 39.0554 174.435 39.1869C171.403 39.312 168.366 39.4481 165.487 40.303C164.038 40.7172 162.603 41.2117 161.132 41.6396C159.665 42.0748 158.145 42.4164 156.61 42.5932C155.074 42.7781 153.522 42.8256 151.975 42.737C151.196 42.6954 150.453 42.5982 149.774 42.6562C149.437 42.6831 149.109 42.7502 148.846 42.8676C148.575 42.9877 148.33 43.1768 148.189 43.3772C148.048 43.591 148.039 43.728 148.112 43.8878C148.183 44.0531 148.408 44.2495 148.689 44.4098C148.971 44.5746 149.298 44.7112 149.651 44.861L150.689 45.3021C152.077 45.8761 153.486 46.3899 154.918 46.8073C155.634 47.0155 156.356 47.1991 157.082 47.3512C157.784 47.4987 158.506 47.5681 159.243 47.5932C160.717 47.6485 162.24 47.5247 163.812 47.6247C164.599 47.6832 165.385 47.7987 166.175 48.0174C166.962 48.2485 167.672 48.5887 168.357 48.8974C169.708 49.5217 171.122 49.9596 172.572 50.2994C174.025 50.614 175.517 50.7848 177.015 50.7816C178.515 50.8136 180.023 50.6606 181.506 50.3542L181.541 50.4885Z" fill="#13355A"/>
<path d="M190.445 120.285C188.066 120.607 185.671 120.767 183.276 120.856C180.881 120.948 178.485 121.002 176.084 120.98L175.182 120.964C175.039 120.962 174.87 120.959 174.714 120.941L174.259 120.889L172.481 120.65C171.309 120.496 170.113 120.35 168.986 120.474C168.441 120.536 167.863 120.735 167.806 121.098C167.712 121.514 168.03 121.958 168.469 122.316C169.343 123.067 170.385 123.611 171.486 123.997C173.699 124.78 176.097 124.977 178.469 125.356C179.063 125.451 179.658 125.558 180.249 125.693C180.845 125.831 181.416 125.989 181.995 126.137C183.153 126.433 184.314 126.715 185.479 126.98C190.139 128.038 194.87 128.803 199.641 129.147L199.628 129.353C194.833 129.177 190.061 128.503 185.353 127.559C184.175 127.322 183.002 127.066 181.831 126.798C181.248 126.663 180.657 126.513 180.094 126.395C179.522 126.278 178.94 126.185 178.354 126.104C176.012 125.776 173.574 125.638 171.187 124.852C170.004 124.451 168.847 123.859 167.862 123.023C167.612 122.813 167.345 122.562 167.129 122.21C167.024 122.031 166.932 121.827 166.887 121.599C166.843 121.378 166.833 121.148 166.888 120.891C166.944 120.636 167.087 120.385 167.262 120.206C167.439 120.026 167.633 119.91 167.818 119.824C168.189 119.656 168.535 119.594 168.869 119.55C170.193 119.415 171.4 119.586 172.606 119.747L174.38 120.049L174.804 120.113L174.996 120.134L175.213 120.145L176.102 120.183C180.861 120.28 185.655 120.386 190.428 120.148L190.445 120.285Z" fill="#13355A"/>
<path d="M172.862 120.065C171.614 119.879 170.405 119.37 169.367 118.614C168.859 118.215 168.368 117.819 167.965 117.249C167.775 116.965 167.605 116.608 167.622 116.199C167.638 115.799 167.847 115.399 168.16 115.166C168.789 114.706 169.488 114.664 170.135 114.646L172.013 114.683C173.259 114.704 174.505 114.755 175.751 114.789L190.7 115.28L190.694 115.486C188.199 115.544 185.705 115.553 183.211 115.567L175.729 115.601C174.482 115.6 173.235 115.619 171.988 115.601C170.769 115.628 169.356 115.435 168.734 115.891C168.602 115.987 168.553 116.098 168.535 116.239C168.52 116.37 168.563 116.57 168.688 116.782C168.932 117.202 169.39 117.651 169.821 118.03C170.255 118.429 170.731 118.793 171.25 119.1C171.512 119.247 171.77 119.412 172.046 119.547C172.321 119.681 172.603 119.805 172.892 119.93L172.862 120.065Z" fill="#13355A"/>
<path d="M172.077 114.577C171.941 114.647 171.775 114.675 171.619 114.639C171.465 114.602 171.329 114.515 171.222 114.408C171.008 114.191 170.884 113.904 170.847 113.605C170.808 113.31 170.895 112.969 171.106 112.745C171.301 112.515 171.559 112.342 171.831 112.23C172.379 112.002 172.963 111.957 173.522 111.914L175.204 111.794C177.448 111.658 179.692 111.546 181.937 111.443C184.18 111.341 186.429 111.237 188.674 111.176L190.357 111.12L190.777 111.104L190.88 111.1L190.904 111.098C190.876 111.334 190.999 110.569 190.837 111.627C190.989 111.666 190.864 111.637 190.891 111.645L190.865 111.643L190.657 111.625L189.82 111.557L186.46 111.314C184.218 111.146 181.975 110.996 179.733 110.714C179.171 110.642 178.611 110.566 178.047 110.454C177.906 110.432 177.763 110.396 177.62 110.36L177.406 110.308C177.331 110.288 177.236 110.253 177.157 110.213C176.83 110.052 176.571 109.756 176.471 109.395C176.373 109.03 176.43 108.628 176.705 108.314C176.845 108.157 177.041 108.062 177.211 108.019C177.385 107.972 177.545 107.963 177.691 107.954L179.375 107.874L192.839 107.236L199.571 106.917C200.699 106.875 201.801 106.785 202.953 106.785C204.094 106.797 205.23 106.916 206.346 107.119C210.826 107.93 214.974 109.768 219.245 111.094C221.382 111.76 223.556 112.296 225.784 112.472C228.009 112.665 230.26 112.646 232.505 112.699L245.982 112.938L245.979 113.145L232.5 113.095C230.255 113.074 228.007 113.126 225.743 112.962C223.473 112.815 221.235 112.296 219.074 111.655C216.906 111.011 214.785 110.254 212.657 109.56C210.531 108.865 208.392 108.221 206.217 107.855C205.131 107.668 204.036 107.566 202.948 107.564C202.409 107.563 201.861 107.598 201.293 107.631L199.611 107.727L192.882 108.109L179.419 108.773L177.74 108.857C177.611 108.863 177.508 108.874 177.447 108.892C177.381 108.91 177.376 108.921 177.373 108.925C177.368 108.922 177.347 108.968 177.338 109.013C177.329 109.056 177.331 109.1 177.344 109.148C177.368 109.245 177.454 109.348 177.56 109.399C177.592 109.413 177.602 109.418 177.655 109.433L177.841 109.478C177.965 109.508 178.087 109.54 178.223 109.561C178.747 109.664 179.298 109.739 179.847 109.809C182.053 110.072 184.29 110.269 186.526 110.45L189.887 110.726L190.732 110.802L190.944 110.823L190.97 110.825C191.05 110.844 190.83 110.787 191.156 110.868C190.815 112.963 191.028 111.451 190.947 111.919L190.917 111.92L190.807 111.924L190.383 111.935L188.697 111.975L181.964 112.128C179.719 112.164 177.474 112.208 175.23 112.276L173.547 112.314C172.991 112.327 172.441 112.346 171.95 112.52C171.472 112.692 171.018 113.06 171.073 113.582C171.089 113.832 171.185 114.09 171.354 114.279C171.518 114.473 171.782 114.565 172.018 114.451L172.077 114.577Z" fill="#13355A"/>
<path d="M198.436 129.939C197.441 130.694 196.749 131.744 195.959 132.726C195.17 133.726 194.15 134.534 193.135 135.265C192.123 136.007 191.088 136.712 190.277 137.614C189.466 138.499 188.856 139.624 188.969 140.755L188.576 140.486C189.356 140.274 190.111 139.911 190.92 139.607C191.734 139.298 192.575 139.102 193.399 138.915C194.223 138.727 195.038 138.549 195.812 138.273C196.589 138 197.341 137.651 198.065 137.244C199.522 136.445 200.876 135.442 202.253 134.461L206.376 131.515L208.44 130.044C209.131 129.556 209.801 129.055 210.536 128.595C211.993 127.674 213.669 127.142 215.357 126.893C218.771 126.456 222.145 127.101 225.487 127.468L225.465 127.673C223.78 127.531 222.099 127.345 220.421 127.238C218.745 127.121 217.063 127.115 215.425 127.365C213.798 127.645 212.217 128.19 210.852 129.1C210.177 129.543 209.5 130.072 208.823 130.573L206.792 132.09L202.728 135.117C201.376 136.12 200.022 137.169 198.508 138.038C197.75 138.469 196.952 138.848 196.118 139.146C195.279 139.451 194.427 139.64 193.608 139.833C192.785 140.016 191.992 140.199 191.247 140.477C190.491 140.755 189.705 141.132 188.817 141.371L188.126 141.557L188.056 140.85C187.981 140.095 188.158 139.344 188.477 138.716C188.789 138.079 189.214 137.538 189.676 137.056C190.614 136.09 191.703 135.393 192.74 134.707C193.792 134.029 194.776 133.337 195.592 132.413C196.443 131.526 197.252 130.484 198.356 129.826L198.436 129.939Z" fill="#13355A"/>
<path d="M187.181 182.736C186.824 182.258 186.458 181.771 186.214 181.199C185.974 180.632 185.866 179.975 185.997 179.335C186.114 178.686 186.51 178.128 186.963 177.693C187.422 177.255 187.952 176.918 188.499 176.638C189.608 176.1 190.785 175.776 191.966 175.534C193.153 175.301 194.342 175.14 195.568 175.135C196.797 175.145 197.985 175.375 199.154 175.592C200.329 175.814 201.48 176.089 202.646 176.159C203.227 176.195 203.81 176.181 204.377 176.075C204.661 176.022 204.937 175.951 205.213 175.854C205.49 175.759 205.77 175.647 206.07 175.567C206.367 175.487 206.69 175.436 207.013 175.488C207.334 175.536 207.636 175.683 207.88 175.88C208.374 176.277 208.684 176.814 208.978 177.332L208.799 177.435C208.481 176.94 208.141 176.443 207.689 176.128C207.237 175.802 206.707 175.768 206.18 175.955C205.914 176.039 205.648 176.159 205.364 176.271C205.08 176.386 204.774 176.48 204.471 176.55C203.861 176.693 203.235 176.734 202.62 176.724C201.386 176.702 200.19 176.478 199.028 176.302C197.854 176.129 196.693 175.957 195.571 175.994C194.448 176.054 193.274 176.215 192.151 176.454C191.024 176.688 189.904 176.982 188.896 177.455C187.886 177.892 186.958 178.553 186.648 179.492C186.486 179.959 186.499 180.503 186.646 181.041C186.766 181.592 187.047 182.109 187.293 182.657L187.181 182.736Z" fill="#13355A"/>
<path d="M189.896 189.593C189.553 189.836 189.086 189.882 188.669 189.793C188.243 189.712 187.864 189.473 187.542 189.219C187.226 188.948 186.96 188.645 186.713 188.349C186.476 188.054 186.219 187.772 185.978 187.449C185.743 187.133 185.481 186.756 185.431 186.284C185.377 185.814 185.556 185.391 185.751 185.041C185.958 184.682 186.211 184.39 186.407 184.077C186.599 183.769 186.751 183.433 186.626 183.103L186.815 183.02C186.928 183.204 186.973 183.442 186.949 183.665C186.93 183.889 186.854 184.095 186.77 184.284C186.603 184.662 186.393 184.996 186.263 185.309C186.132 185.632 186.073 185.949 186.145 186.183C186.204 186.418 186.397 186.653 186.646 186.91C186.898 187.159 187.172 187.441 187.44 187.738C187.69 188.028 187.906 188.313 188.145 188.539C188.373 188.783 188.594 188.977 188.862 189.146C189.134 189.303 189.434 189.45 189.84 189.466L189.896 189.593Z" fill="#13355A"/>
<path d="M188.95 194.28C188.394 194.717 187.494 194.637 186.923 194.164C186.665 193.959 186.402 193.735 186.181 193.445C185.965 193.153 185.805 192.786 185.768 192.424C185.689 191.703 185.84 191.042 186.052 190.414C186.269 189.789 186.556 189.206 186.863 188.641L187.052 188.725C186.892 189.356 186.72 189.975 186.608 190.578C186.499 191.168 186.474 191.804 186.614 192.282C186.691 192.515 186.785 192.691 186.938 192.873C187.087 193.058 187.278 193.265 187.504 193.467C187.81 193.803 188.193 194.056 188.894 194.155L188.95 194.28Z" fill="#13355A"/>
<path d="M188.937 194.342C187.731 196.031 187.839 197.396 189.775 198.255C191.59 199.062 193.656 199.004 195.641 198.932C197.071 198.88 198.501 198.827 199.931 198.775C206.219 198.545 210.818 199.857 215.843 203.648C219.374 206.312 223.112 209.151 226.888 211.482" stroke="#13355A" stroke-miterlimit="10"/>
<path d="M206.221 175.672C206.974 174.887 207.543 173.934 207.867 172.91C208.215 171.889 208.317 170.81 208.187 169.739C208.076 168.666 207.817 167.584 207.795 166.445C207.773 165.307 207.982 164.194 208.219 163.116C208.477 162.053 208.689 160.946 209.209 159.902C209.718 158.87 210.641 157.931 211.872 157.692C212.024 157.664 212.179 157.648 212.335 157.647C212.416 157.649 212.484 157.645 212.575 157.654C212.665 157.664 212.783 157.682 212.91 157.763C213.042 157.846 213.119 157.983 213.153 158.079C213.189 158.181 213.201 158.258 213.216 158.321L213.303 158.724L213.651 160.336L214.326 163.566C214.54 164.649 214.728 165.745 214.824 166.856C214.872 167.411 214.896 167.969 214.889 168.529C214.881 169.091 214.837 169.644 214.801 170.189C214.727 171.275 214.706 172.361 215.057 173.354L216.193 176.447C216.947 178.513 217.61 180.645 217.881 182.846C218.019 183.944 218.069 185.066 217.898 186.172C217.725 187.286 217.168 188.285 217.243 189.367L217.037 189.38C216.926 188.226 217.471 187.171 217.589 186.126C217.716 185.057 217.641 183.971 217.481 182.9C217.161 180.746 216.463 178.679 215.663 176.642L214.448 173.572C214.02 172.446 214.028 171.244 214.081 170.146C214.106 169.592 214.137 169.052 214.134 168.523C214.13 167.992 214.095 167.46 214.038 166.928C213.924 165.863 213.72 164.802 213.486 163.738L212.757 160.529L212.398 158.92L212.308 158.518C212.292 158.444 212.28 158.395 212.281 158.402C212.281 158.402 212.316 158.489 212.402 158.543C212.479 158.591 212.506 158.584 212.482 158.583C212.458 158.58 212.389 158.583 212.345 158.582C212.244 158.584 212.142 158.595 212.041 158.614C211.638 158.693 211.235 158.907 210.888 159.206C210.538 159.508 210.264 159.882 210.039 160.322C209.589 161.194 209.373 162.258 209.102 163.323C208.831 164.373 208.603 165.41 208.586 166.44C208.561 167.468 208.792 168.543 208.839 169.681C208.913 170.82 208.743 172.012 208.303 173.065C207.855 174.116 207.181 175.064 206.318 175.772L206.221 175.672Z" fill="#13355A"/>
<path d="M194.267 105.267L198.116 102.28L200.02 100.766L201.901 99.2216C204.431 97.1926 206.883 95.0696 209.3 92.9077C214.126 88.5753 218.71 83.9639 222.98 79.0698L223.137 79.2041C221.116 81.7546 218.967 84.2028 216.755 86.5934C214.544 88.9854 212.246 91.2998 209.878 93.543C209.28 94.0974 208.689 94.6595 208.085 95.2066L206.253 96.8287C205.014 97.89 203.746 98.9156 202.469 99.9294C199.869 101.899 197.215 103.804 194.347 105.38L194.267 105.267Z" fill="#13355A"/>
<path d="M214.732 110.249C214.962 108.961 215.392 107.724 215.884 106.515C216.418 105.325 217 104.153 217.69 103.044C219.067 100.829 220.687 98.7645 222.551 96.9565L222.7 97.0995C221.895 98.1124 221.107 99.1275 220.393 100.193C219.681 101.259 219.021 102.354 218.429 103.481L217.563 105.18C217.432 105.47 217.274 105.746 217.131 106.029L216.714 106.886C216.141 108.023 215.581 109.164 214.864 110.29L214.732 110.249Z" fill="#13355A"/>
<path opacity="0.2" d="M204.254 40.4325C201.204 41.9167 198.062 43.3004 195.381 45.3006C194.847 45.6979 194.313 46.1089 193.883 46.6067C193.486 47.0679 193.185 47.5976 192.883 48.1228C190.787 51.799 188.897 55.5756 186.805 59.2518C185.654 61.2748 183.923 63.1015 182.992 65.2158C182.91 65.3985 182.846 65.5857 182.795 65.7821C182.745 65.7319 182.704 65.6771 182.668 65.6177C182.613 65.5309 182.576 65.4305 182.503 65.3528C182.302 65.1199 181.937 65.1519 181.645 65.2524C181.138 65.4259 180.681 65.7456 180.348 66.1703C180.352 65.0651 180.188 63.8321 180.521 62.7818C180.841 61.7863 180.946 60.7085 180.882 59.6673C180.868 59.439 180.846 59.2015 180.713 59.0143C180.526 58.754 180.156 58.6672 179.841 58.7312C179.526 58.7951 179.247 58.9869 178.996 59.1833C178.416 59.6354 177.969 60.1651 177.352 60.5624C178.032 60.124 177.982 59.1056 177.946 58.4161C177.932 58.1969 177.909 57.964 177.786 57.7813C177.599 57.521 177.233 57.4388 176.918 57.5027C176.608 57.5712 176.334 57.7539 176.064 57.932C175.133 58.5576 174.429 59.2152 173.648 60.0235C172.749 60.9597 172.128 62.1242 171.52 63.2659C171.292 63.6951 171.15 64.1609 170.822 64.5034C170.461 64.8825 169.968 65.2067 169.525 65.4761C169.123 65.7227 168.584 65.8186 168.223 66.0744C167.808 66.3712 167.607 66.7731 167.077 66.9649C166.999 66.9968 166.922 67.0197 166.84 67.0151C166.798 67.0151 166.762 67.006 166.725 66.9877C166.68 65.4807 166.561 63.8458 166.561 62.4165C166.629 62.3388 166.703 62.2658 166.771 62.1927C167.182 61.7634 167.716 61.357 168.082 60.8958C168.438 60.4437 168.639 59.7952 168.94 59.302C169.557 58.2882 170.292 57.352 171.109 56.4935C172.744 54.7901 174.699 53.4338 176.74 52.2693C177.446 51.8656 178.184 51.3857 178.942 51.0898C179.59 50.8368 180.319 50.8514 181.017 50.6952C182.525 50.3577 183.944 49.6873 185.265 48.8978C186.792 47.9849 188.201 46.8989 189.687 45.9235C190.256 45.549 190.72 45.4623 191.342 45.2545C192.204 44.9663 193.04 44.4731 193.864 44.0886C194.734 43.6831 204.073 39.5964 204.004 39.3594C204.108 39.7156 204.19 40.0718 204.254 40.4325Z" fill="#454546"/>
<path d="M0.0520728 94.8885C8.53968 66.7989 26.6493 41.0904 51.4769 24.1175C63.7895 15.5476 77.5763 8.97895 92.1311 4.83698C106.72 0.859875 122.01 -0.785039 137.148 0.352975C152.286 1.3654 167.305 4.75159 181.449 10.4919C195.592 16.2815 208.502 24.8417 219.859 34.9971C231.11 45.2438 241.132 57.0966 248.246 70.6381C255.458 84.0869 260.485 98.6605 263.055 113.64C265.773 128.623 265.4 144.004 263.027 158.905C260.561 173.798 255.896 188.409 248.56 201.586C234.127 227.925 211.506 249.93 184.017 261.934C170.386 268.041 155.811 271.976 140.98 273.465C133.544 273.823 126.107 274.296 118.684 273.755C111.271 273.165 103.906 272.094 96.675 270.404C67.7388 263.598 41.4311 246.878 22.9398 223.896C22.3077 223.11 22.4324 221.961 23.2179 221.328C23.9864 220.71 25.103 220.815 25.7423 221.554L25.7574 221.571C44.5478 243.289 70.4673 258.36 98.1642 263.827C105.089 265.184 112.103 265.943 119.122 266.252C126.156 266.512 133.156 265.789 140.119 265.222C153.994 263.314 167.444 259.133 179.874 253.017C204.882 240.943 225.078 220.006 236.91 195.528C242.979 183.322 246.526 170.018 248.045 156.663C249.427 143.3 249.039 129.68 245.92 116.728C243.036 103.76 238.299 91.2822 231.622 79.918C224.872 68.6178 216.613 58.2231 206.844 49.4287C197.092 40.6118 185.925 33.4595 174.004 27.8589C161.971 22.4629 149.053 19.1462 135.853 17.6629C122.634 15.9618 109.082 16.8076 95.9461 19.6097C82.7421 22.2337 69.8636 27.1077 58.0072 34.0175C46.1339 40.9246 35.4278 49.905 25.8327 60.1516C16.3117 70.5025 8.55795 82.5909 2.36783 95.6826L2.3281 95.7648C2.0404 96.3754 1.30973 96.6366 0.700539 96.3475C0.144776 96.0854 -0.120091 95.4588 0.0520728 94.8885Z" fill="#F4B935"/>
<path d="M91.2155 45.547C90.9689 47.2687 89.124 47.876 87.6535 48.3601C83.2421 49.8169 79.5979 53.283 75.771 56.1782C72.2958 58.8086 69.09 60.0097 65.0531 60.8088C62.9524 61.229 62.9889 61.4162 61.7377 63.5671C60.564 65.5947 59.8516 64.0923 58.9748 66.0696C57.8012 68.7092 55.1434 68.1155 52.2299 66.3573C48.9784 64.4028 45.4118 61.0006 43.2472 59.0415C42.6033 58.457 42.0782 58.0003 41.7311 57.7492C41.9275 57.393 42.1375 57.0459 42.3567 56.708C42.3659 56.6897 42.375 56.676 42.3887 56.6577C42.5166 56.4522 42.649 56.2513 42.786 56.0504C43.0783 55.6165 43.3477 55.2512 43.5852 54.9178C44.7725 53.2875 45.3616 52.534 45.6402 49.3282C45.9096 46.2229 45.8913 43.2865 46.59 40.2132C46.6357 40.0214 46.6814 39.825 46.7316 39.6332C47.4166 36.7425 48.3573 33.9203 49.2935 31.1027C50.458 27.5955 51.6225 24.0883 52.7824 20.5811C53.2756 19.1015 54.536 12.2926 56.6778 12.4341C57.1436 12.4661 57.5318 12.8223 57.7373 13.2379C57.9382 13.6534 57.9793 14.1284 58.0067 14.5942C58.1483 17.1515 57.9656 19.3983 57.2852 21.8552C56.5636 24.4445 55.7416 27.0338 55.6046 29.7372C55.6001 29.8697 55.5955 30.0112 55.664 30.13C56.3444 31.3219 57.3902 28.7371 57.4496 28.5179C57.7921 27.2438 64.327 12.6807 66.1125 9.32422C66.6834 8.25105 67.4003 7.15962 68.3867 6.42439C72.1542 3.63415 70.3093 10.3472 69.8298 11.7446C69.1905 13.5895 66.3409 22.321 65.3773 24.892C65.085 25.6775 64.6238 26.7643 64.6329 27.6183C64.6421 28.2531 64.9161 29.1116 65.5417 28.0978C66.0851 27.221 66.6286 26.3442 67.172 25.4628C70.3504 20.3299 72.5013 14.7494 75.8396 9.71695C76.7575 8.33325 78.3512 4.71189 80.4062 4.91282C80.6483 4.93565 80.872 5.04982 81.0684 5.19595C82.443 6.24172 81.8584 8.18255 81.42 9.55255C80.187 13.4114 74.4787 24.2892 73.6704 26.2209C73.4055 26.8465 70.734 31.2625 71.9944 31.2853C72.3186 31.2945 72.5926 31.0753 72.8392 30.8652C73.5334 30.2807 74.2275 29.6961 74.9216 29.107C75.7071 28.4449 76.4972 27.7781 77.173 27.0018C80.1642 23.5768 82.4704 19.5399 86.7493 17.5031C86.9868 17.3935 87.2334 17.2885 87.4937 17.2976C87.9458 17.3113 88.3248 17.663 88.5669 18.0511C89.7907 20.0239 87.4891 22.5402 86.1739 24.4445C83.3015 28.5956 80.904 32.2717 78.027 36.4228C77.2552 37.1992 76.9264 38.6285 76.5291 39.6149C76.0816 40.7292 75.3007 41.6973 74.6385 42.7066C74.159 43.4418 73.6567 44.2273 73.6293 45.1086C73.6156 45.5242 73.7206 45.958 73.9901 46.2731C74.812 47.223 75.9126 46.2001 76.657 45.716C80.0089 43.5423 84.3472 43.0902 88.2426 42.9258C89.841 42.8573 91.4804 43.6838 91.2155 45.547Z" fill="#F9DDB7"/>
<path d="M43.06 56.5674C43.2774 57.5063 43.6697 58.3963 44.2336 59.164C44.7953 59.9339 45.4922 60.5966 46.2599 61.1697C47.7815 62.3396 49.5291 63.2155 51.2668 64.1248C53.0112 65.0258 54.7721 65.9747 56.3682 67.2415C56.7687 67.5543 57.1477 67.9005 57.5167 68.258C57.8793 68.6238 58.2766 69.0554 58.4972 69.6701C58.7241 70.3039 58.6196 70.9711 58.4625 71.483C58.2971 72.0128 58.1145 72.4439 57.9469 72.9092C56.5312 76.5662 55.1475 80.235 53.8159 83.9235C52.487 87.613 51.2001 91.317 49.9278 95.026C47.3878 102.447 45.046 109.935 42.8577 117.47C40.668 125.005 38.692 132.602 36.8726 140.238L36.4703 140.147C37.9887 132.435 39.7862 124.777 41.7695 117.166C43.7418 109.551 45.9238 101.987 48.3003 94.4826C49.4661 90.7224 50.7484 87.0001 52.0531 83.286C52.7048 81.4283 53.4094 79.5902 54.1113 77.7512C54.8082 75.9104 55.527 74.0783 56.254 72.2489C56.4326 71.799 56.6481 71.3072 56.7673 70.9597C56.8906 70.5893 56.9025 70.3752 56.8577 70.2254C56.7865 69.8509 55.9823 69.0837 55.3338 68.5092C53.9579 67.3 52.2847 66.3378 50.6229 65.3011C48.956 64.2695 47.2079 63.258 45.6776 61.8871C44.9246 61.1943 44.2423 60.4002 43.7226 59.5079C43.1929 58.621 42.8856 57.6154 42.7883 56.6185L43.06 56.5674Z" fill="#13355A"/>
<path opacity="0.1" d="M52.5267 66.9465C51.7138 66.4944 50.9055 66.0378 50.0927 65.5857C49.088 65.024 48.0742 64.4577 47.1517 63.7636C45.4986 62.5306 44.1514 60.8911 43.2472 59.0416C42.8728 58.2973 42.5759 57.5118 42.3567 56.7081C42.3567 56.7035 42.3522 56.6989 42.3522 56.6944C42.3659 56.6807 42.3796 56.6715 42.3887 56.6578C42.9139 56.1738 43.3066 55.5755 43.5852 54.9179C44.7725 53.2876 45.3616 52.5341 45.6402 49.3283C45.9096 46.223 45.8913 43.2866 46.59 40.2133C46.6357 40.0215 46.6814 39.8251 46.7316 39.6333C46.654 41.4326 46.6357 43.2501 47.0695 44.9946C47.1654 45.3645 47.275 45.7252 47.3892 46.0906C47.8915 47.6935 48.8186 49.0543 49.3803 50.5659C50.047 52.3652 50.2799 54.5024 50.7092 56.3793C50.9649 57.4935 51.5951 64.275 52.2299 66.3574C52.3303 66.6817 52.4308 66.8917 52.5267 66.9465Z" fill="#454546"/>
<path d="M48.6131 55.3689C47.1335 52.9893 46.1873 50.2789 45.8407 47.4878C45.6753 46.0922 45.6479 44.6738 45.7913 43.2732C45.921 41.874 46.1649 40.4825 46.5325 39.1244C47.2668 36.4031 48.4364 33.8389 49.5995 31.3122C50.1977 30.0418 50.743 28.8051 51.0736 27.4707C51.4198 26.1455 51.6243 24.7796 51.7892 23.4046C52.1203 20.6582 52.2847 17.8337 53.1172 15.0996L53.462 14.0872L53.8794 13.099C54.0264 12.7729 54.1986 12.4368 54.4379 12.119C54.6831 11.8039 54.9877 11.5052 55.432 11.3449C55.8549 11.2006 56.3285 11.1896 56.7723 11.4157C56.9925 11.5253 57.1893 11.7198 57.3108 11.9436C57.4295 12.1669 57.4747 12.3957 57.4957 12.5966C57.5286 12.999 57.5222 13.3145 57.5363 13.6734L57.5596 14.7206C57.6122 17.5136 57.5861 20.3088 57.4756 23.1009C57.3624 25.8929 57.1482 28.6804 56.866 31.4606L55.9764 31.2487C57.5606 27.131 59.3114 23.0826 61.1586 19.0827C62.0829 17.0829 63.0323 15.0951 64.0009 13.1172L65.4691 10.158C65.7212 9.663 65.9536 9.18213 66.2221 8.67569C66.4934 8.17655 66.7957 7.68929 67.1515 7.22988C67.5077 6.7723 67.9178 6.3371 68.4251 5.98729C68.9297 5.64114 69.5713 5.40641 70.2299 5.42787C70.3116 5.42559 70.3915 5.4434 70.4723 5.45117L70.5934 5.46715L70.6536 5.47537L70.6838 5.47948C70.7048 5.48404 70.74 5.49501 70.7669 5.50505C70.8907 5.54661 70.9692 5.61922 71.0418 5.70005C71.0861 5.76216 71.14 5.84983 71.1541 5.90052C71.2016 6.02291 71.2149 6.1179 71.2268 6.20877C71.2619 6.56223 71.2263 6.84491 71.193 7.13581C71.1181 7.70847 71.0012 8.25419 70.8765 8.79808C70.3632 10.9636 69.7138 13.0684 69.0612 15.1736C67.7511 19.3786 66.3149 23.5434 65.0248 27.7328L64.5667 27.2136C65.0828 27.1278 65.5572 26.8994 65.913 26.5373C66.1002 26.351 66.2244 26.1637 66.3783 25.8984L66.8291 25.1317C67.4255 24.1069 68.0045 23.0726 68.5662 22.0282C69.1343 20.9906 69.6517 19.9175 70.2294 18.8721L71.9264 15.7234C73.0639 13.6273 74.2458 11.5559 75.513 9.52372C76.1528 8.51129 76.8081 7.50753 77.5603 6.54899C77.7493 6.3097 77.9471 6.07452 78.1626 5.84618C78.3791 5.61785 78.6056 5.39454 78.9257 5.19954C78.996 5.14885 79.1111 5.10912 79.2097 5.07122C79.3166 5.04108 79.5084 5.02372 79.5705 5.04108C79.7486 5.05615 79.9244 5.09405 80.0934 5.14931C80.4313 5.26165 80.7346 5.45071 80.9885 5.6795C81.4976 6.14028 81.8264 6.74536 81.9895 7.38789C82.1534 8.04549 82.11 8.70446 81.9872 9.32415C81.7228 10.5731 81.1533 11.6413 80.6889 12.7286L77.7881 19.2539L71.9866 32.3041L71.4743 31.9661L81.4639 21.3217C82.3224 20.4495 83.2165 19.601 84.2121 18.8657C85.2049 18.1355 86.2876 17.4807 87.5028 17.1341C88.1024 16.9427 88.7386 16.8665 89.3701 16.8555C89.687 16.871 90.0049 16.8715 90.3159 16.9395L90.5502 16.9793C90.6287 16.9943 90.6954 16.9952 90.8237 17.0468C90.9369 17.1012 91.0479 17.198 91.1004 17.3103C91.1571 17.4204 91.1762 17.5277 91.1831 17.625C91.1972 18.0095 91.0886 18.31 90.9867 18.6114C90.8789 18.9096 90.7515 19.1936 90.6168 19.4722C90.346 20.0284 90.0451 20.5627 89.7336 21.0902C87.2069 25.2874 84.1385 29.0672 81.367 33.064L77.1223 38.9979L75.0002 41.9649C74.6527 42.4581 74.2787 42.9572 73.9531 43.4449C73.6352 43.9262 73.5357 44.5341 73.2781 45.109L72.9931 44.9885C73.2311 44.4542 73.3256 43.8267 73.6754 43.2741C74.0211 42.7471 74.3727 42.2708 74.7216 41.7667L76.8177 38.781L81.0095 32.8092C83.7444 28.79 86.7922 24.9604 89.2432 20.8011C89.5446 20.2805 89.8346 19.7535 90.0894 19.2183C90.2159 18.9507 90.3332 18.6808 90.4278 18.4118C90.5205 18.1502 90.5976 17.8579 90.583 17.6693C90.5798 17.625 90.5698 17.5962 90.5661 17.5916C90.5643 17.5839 90.5721 17.6053 90.5753 17.5994L90.4305 17.5752L90.2195 17.5419C89.94 17.4816 89.6542 17.4862 89.3701 17.4734C88.8025 17.4903 88.2312 17.5601 87.6827 17.7423C86.5749 18.067 85.5565 18.6908 84.6121 19.3991C83.665 20.1111 82.8005 20.9454 81.9653 21.809L72.0816 32.531C71.888 32.7411 71.5601 32.7548 71.3501 32.5607C71.1838 32.4077 71.1409 32.1712 71.2254 31.9748L71.2281 31.9684L76.9132 18.8667L79.7559 12.3158C80.2185 11.2143 80.7588 10.1471 80.9624 9.11592C81.0629 8.60354 81.0812 8.08202 80.9656 7.64499C80.8501 7.19198 80.6017 6.75769 80.2761 6.47273C80.1144 6.32979 79.9368 6.22476 79.755 6.16631C79.6637 6.13754 79.5719 6.11836 79.4778 6.11151L79.4431 6.10694C79.4376 6.10694 79.4586 6.11242 79.4659 6.11242C79.4824 6.11744 79.5175 6.10054 79.5148 6.10328C79.5034 6.11881 79.5066 6.10009 79.4641 6.13342C79.3312 6.21471 79.1285 6.39327 78.9513 6.58964C78.7691 6.78509 78.5896 7.00063 78.4151 7.2244C77.7169 8.12449 77.0762 9.11546 76.4547 10.1124C75.2212 12.1171 74.0558 14.1863 72.9379 16.2769L71.2688 19.4188C70.9866 19.9449 70.7153 20.4604 70.4495 20.9956L69.6207 22.5917C69.059 23.6512 68.4795 24.7015 67.8821 25.7413L67.4309 26.5195L67.3118 26.7209C67.2624 26.8012 67.2117 26.8812 67.1556 26.9583C67.046 27.1136 66.9227 27.262 66.7861 27.3995C66.2454 27.9584 65.5038 28.311 64.775 28.4325L64.7722 28.4329C64.3206 28.5078 63.8941 28.2028 63.8187 27.7516C63.7972 27.6232 63.8082 27.4931 63.8429 27.3762C65.122 23.1351 66.5267 18.9781 67.8091 14.7822C68.4548 12.6921 69.0987 10.5896 69.5905 8.50079C69.7093 7.98201 69.8189 7.45776 69.8814 6.96958C69.9125 6.73577 69.928 6.4741 69.9134 6.36541C69.9129 6.34532 69.9042 6.33162 69.9248 6.38961L69.933 6.40468L69.9527 6.44807C69.9682 6.4773 69.986 6.5015 70.0093 6.52799C70.0823 6.62389 70.1741 6.69284 70.3244 6.75312C70.3559 6.765 70.4052 6.7755 70.4235 6.77778L70.4075 6.77641L70.3755 6.77322L70.3121 6.76591C70.27 6.76317 70.2271 6.7481 70.1856 6.75175C69.8549 6.74627 69.5175 6.85176 69.1718 7.08512C68.8297 7.32122 68.5009 7.65915 68.2045 8.04229C67.9072 8.42681 67.6392 8.85653 67.3958 9.3068C67.1611 9.75022 66.9067 10.2745 66.6633 10.754L65.2042 13.7036C64.2416 15.6746 63.299 17.6542 62.382 19.6448C60.549 23.626 58.8146 27.6506 57.2491 31.7346C57.0719 32.199 56.5518 32.4315 56.0873 32.2543C55.6992 32.1059 55.4736 31.7163 55.5133 31.3218C55.796 28.5681 55.9846 25.8057 56.1216 23.0411C56.2641 20.2764 56.3225 17.5072 56.3038 14.7379L56.2928 13.6995L56.2851 13.1802C56.2823 13.004 56.281 12.8327 56.2705 12.7208C56.2609 12.6035 56.2385 12.5395 56.2298 12.5213C56.2198 12.5108 56.2312 12.5099 56.2015 12.4934C56.154 12.456 55.9691 12.4345 55.8325 12.4852C55.7974 12.4962 55.7695 12.5103 55.7398 12.5254C55.7005 12.5496 55.6608 12.5743 55.622 12.6062C55.5439 12.6688 55.4649 12.7473 55.3882 12.8469C55.2348 13.0446 55.0895 13.304 54.9525 13.6018L54.5571 14.5073L54.2255 15.4449C53.4108 17.9894 53.2117 20.7518 52.8391 23.5347C52.6455 24.9271 52.4089 26.3354 52.0194 27.7219C51.9257 28.069 51.8239 28.4146 51.697 28.7544C51.5805 29.0969 51.4613 29.438 51.3083 29.7691C51.027 30.4523 50.7151 31.0569 50.4151 31.6899C49.2026 34.196 48.0107 36.6876 47.2463 39.3194C46.5047 41.9471 46.0653 44.698 46.3224 47.4334C46.57 50.1657 47.407 52.8596 48.7921 55.2603L48.6131 55.3689Z" fill="#13355A"/>
<path d="M73.3653 47.0419C74.8139 46.504 76.1829 45.7971 77.5758 45.1244C78.9627 44.4435 80.3806 43.7713 81.9 43.3443C82.6589 43.1329 83.438 42.9931 84.2226 42.9013C85.0144 42.8411 85.7803 42.7876 86.5844 42.8292C87.3795 42.8758 88.1942 43.0169 88.9482 43.3713C89.7039 43.7156 90.3611 44.3248 90.7506 45.0687L90.8442 45.2472L90.7232 45.4052C89.6459 46.8141 88.1586 47.7849 86.6799 48.6147C85.1921 49.4467 83.6682 50.1719 82.2886 51.093C79.5253 52.9594 77.3493 55.6181 74.6198 57.6877C73.2575 58.7148 71.7145 59.5784 70.0175 59.9505L69.7001 60.0177C69.5809 60.0414 69.4795 60.0496 69.3736 60.0642L68.747 60.1451C68.3306 60.2017 67.915 60.2647 67.5013 60.3369C66.6742 60.4816 65.8527 60.6579 65.0522 60.8972C64.2566 61.1392 63.463 61.4356 62.7999 61.9078C62.4779 62.1402 62.2058 62.4627 61.924 62.7736C61.6482 63.0883 61.381 63.4121 61.128 63.7473C60.1097 65.0839 59.2593 66.5457 58.4118 68.007L58.2323 67.9048C59.0374 66.4192 59.8484 64.925 60.8453 63.5349C61.0942 63.1874 61.36 62.8517 61.6354 62.5229C61.7733 62.3585 61.9144 62.1973 62.0601 62.0393C62.1975 61.8795 62.3797 61.7133 62.5547 61.5781C63.2798 61.0397 64.0977 60.7205 64.9142 60.4506C65.7344 60.1857 66.5692 59.9875 67.4072 59.8218C67.8264 59.7386 68.247 59.6656 68.668 59.5989L69.2982 59.503C69.4005 59.487 69.5129 59.4738 69.5896 59.455L69.886 59.3852C71.4692 59.0007 72.905 58.1577 74.1996 57.137C76.8058 55.0921 78.9243 52.389 81.7904 50.3637C83.2289 49.354 84.7834 48.6275 86.2232 47.8018C87.6572 46.9775 89.0317 46.0825 89.9852 44.8431L89.9314 45.5034C89.6286 44.9303 89.1564 44.4837 88.5536 44.2028C87.954 43.917 87.2521 43.7841 86.531 43.7412C85.8186 43.6941 85.029 43.7311 84.2975 43.7562C83.5586 43.8156 82.8229 43.9193 82.0972 44.0932C80.6514 44.4563 79.2344 45.0184 77.8078 45.619C76.388 46.2295 74.9157 46.7867 73.4087 47.1721L73.3653 47.0419Z" fill="#13355A"/>
<path opacity="0.2" d="M101.833 166.048C97.4399 165.792 93.7454 162.6 89.4345 161.714L88.9459 160.508L87.4937 156.919L87.48 156.882C87.8088 157.184 88.1376 157.481 88.4664 157.777C88.4846 157.796 88.5029 157.809 88.5212 157.828C92.4576 161.143 97.4125 163.65 101.833 166.048Z" fill="#454546"/>
<path opacity="0.1" d="M104.902 85.0305L104.6 85.7337C104.559 85.4826 104.5 85.2451 104.422 85.0122C104.582 85.0213 104.742 85.0259 104.902 85.0305Z" fill="#454546"/>
<path opacity="0.2" d="M131.619 171.84C134.028 173.553 136.207 175.687 138.964 176.756C140.419 177.321 142.001 177.571 143.369 178.323C143.772 178.545 143.866 178.59 143.844 179.049C141.468 179.088 139.054 179.122 136.763 178.491C132.349 177.274 128.7 173.676 124.138 173.294C123.86 173.271 123.575 173.259 123.322 173.143C122.699 172.858 122.495 172.023 122.698 171.368C123.874 167.561 129.658 170.447 131.619 171.84Z" fill="#454546"/>
<path d="M94.7492 171.536C95.8192 172.954 97.3308 173.761 98.9515 174.399C100.574 175.064 102.258 175.616 103.953 176.104C105.659 176.567 107.404 176.907 109.171 177.094C110.939 177.292 112.724 177.311 114.514 177.252L114.553 177.663C112.772 178.049 110.933 178.266 109.088 178.249C107.241 178.252 105.388 178.08 103.546 177.772C101.705 177.45 99.9032 176.918 98.2139 176.06C97.3677 175.616 96.5211 175.079 95.8256 174.332C95.1301 173.607 94.5739 172.66 94.4999 171.657L94.7492 171.536Z" fill="#13355A"/>
<path opacity="0.2" d="M198.564 131.118C197.948 131.531 197.356 131.982 196.819 132.495C196.493 132.806 196.207 133.302 195.845 133.555C195.458 133.824 194.859 133.911 194.431 134.136C195.404 133.149 196.263 132.053 196.989 130.875C197.212 130.51 197.409 129.994 197.103 129.697C196.92 129.519 196.642 129.51 196.39 129.51C194.45 129.505 193.025 129.469 191.18 128.884C190.135 128.553 189.08 128.249 188.021 127.963C187.147 127.726 186.347 127.813 185.466 127.653C183.473 127.293 181.54 126.594 179.78 125.591C180.964 125.509 182.121 125.9 183.28 126.151C184.753 126.47 186.262 126.567 187.763 126.706C191.789 127.08 195.78 127.765 199.761 128.477C199.918 128.505 200.08 128.535 200.215 128.621C200.576 128.85 200.596 129.4 200.377 129.766C200.157 130.133 199.771 130.36 199.406 130.582C199.122 130.755 198.84 130.933 198.564 131.118Z" fill="#454546"/>
</g>
<defs>
<clipPath id="clip0">
<rect width="264.953" height="274" fill="white"/>
</clipPath>
</defs>
</svg>
