<svg width="402" height="234" viewBox="0 0 402 234" fill="none" xmlns="http://www.w3.org/2000/svg">
<g clip-path="url(#clip0)">
<path d="M127.889 205.72L44.2963 211.148C38.0885 211.551 32.7301 206.832 32.3279 200.609L21.2184 28.6343C20.8162 22.4106 25.5231 17.0386 31.7309 16.6354L115.324 11.2079C121.532 10.8046 126.89 15.5235 127.292 21.7472L138.402 193.722C138.803 199.946 134.097 205.318 127.889 205.72Z" fill="#20A39E"/>
<path d="M40.712 55.6695L37.7998 55.8586C34.661 56.0624 31.952 53.6768 31.7488 50.5299L30.6435 33.4211C30.4403 30.2742 32.8198 27.5583 35.9587 27.3546L38.8709 27.1655C42.0097 26.9617 44.7187 29.3473 44.9219 32.4942L46.0272 49.603C46.2304 52.7499 43.8509 55.4658 40.712 55.6695Z" fill="#454546"/>
<g opacity="0.8">
<g opacity="0.8">
<path opacity="0.8" d="M79.4548 141.388C102.985 141.388 122.06 122.264 122.06 98.6737C122.06 75.0834 102.985 55.9597 79.4548 55.9597C55.9245 55.9597 36.8495 75.0834 36.8495 98.6737C36.8495 122.264 55.9245 141.388 79.4548 141.388Z" fill="white"/>
</g>
<g opacity="0.8">
<path opacity="0.8" d="M79.4548 134.378C59.8171 134.378 43.8406 118.362 43.8406 98.6737C43.8406 78.986 59.8171 62.9688 79.4548 62.9688C99.0925 62.9688 115.068 78.986 115.068 98.6737C115.068 118.362 99.0925 134.378 79.4548 134.378ZM79.4548 65.7919C61.3701 65.7919 46.6566 80.5429 46.6566 98.6737C46.6566 116.805 61.3701 131.555 79.4548 131.555C97.5395 131.555 112.252 116.805 112.252 98.6737C112.252 80.5429 97.5395 65.7919 79.4548 65.7919Z" fill="#13355A"/>
</g>
<g opacity="0.8">
<path opacity="0.8" d="M79.4721 128.77C71.4306 128.77 63.888 125.65 58.2331 119.985C52.5776 114.321 49.4599 106.762 49.4524 98.7005C49.4453 90.655 52.5654 83.0908 58.2364 77.4012C63.9068 71.7111 71.4485 68.5774 79.4721 68.5774C86.0376 68.5774 92.2731 70.6637 97.5047 74.6095C101.992 77.994 105.561 82.7567 107.556 88.0205C107.711 88.4294 107.668 88.8872 107.44 89.2603C107.212 89.633 106.824 89.8786 106.39 89.9252C103.11 90.2785 100.563 93.0387 100.464 96.3455C100.41 98.165 101.075 99.8843 102.336 101.188C103.669 102.565 105.496 103.291 107.406 103.204C107.838 103.183 108.26 103.368 108.542 103.7C108.825 104.033 108.937 104.478 108.847 104.906C107.517 111.228 104.101 117.063 99.2258 121.338C93.7604 126.13 86.7449 128.77 79.4721 128.77ZM79.4721 71.4006C72.2013 71.4006 65.3669 74.2402 60.2282 79.3962C55.089 84.5527 52.2623 91.4069 52.2684 98.6977C52.2749 106.006 55.0998 112.857 60.223 117.988C65.3462 123.12 72.182 125.946 79.4721 125.946C86.0625 125.946 92.4195 123.555 97.3724 119.212C101.373 115.703 104.291 111.035 105.701 105.931C103.658 105.629 101.782 104.669 100.316 103.154C98.519 101.298 97.5714 98.8501 97.6488 96.2608C97.7708 92.1776 100.515 88.6802 104.288 87.4944C102.406 83.3336 99.4393 79.6028 95.8109 76.8657C91.0726 73.2907 85.4223 71.4006 79.4721 71.4006Z" fill="#13355A"/>
</g>
<g opacity="0.8">
<path opacity="0.8" d="M79.4721 123.331C72.879 123.331 66.6979 120.776 62.0675 116.138C57.4366 111.5 54.883 105.305 54.8778 98.6953C54.8717 92.1041 57.4277 85.9068 62.0741 81.2453C66.7195 76.5838 72.8982 74.0166 79.4721 74.0166C84.8525 74.0166 89.9602 75.7246 94.2429 78.9557C96.4835 80.6463 98.4204 82.7176 100.001 85.1121C100.407 85.728 100.271 86.5528 99.6899 87.0055C96.8444 89.2212 95.1496 92.5662 95.0421 96.1826C94.9436 99.4848 96.1516 102.608 98.4448 104.976C99.2675 105.827 100.207 106.55 101.237 107.127C101.878 107.487 102.137 108.28 101.83 108.949C100.384 112.101 98.2491 114.969 95.6551 117.243C91.1777 121.169 85.4307 123.331 79.4721 123.331ZM79.4721 76.8398C73.651 76.8398 68.1796 79.1129 64.0659 83.2408C59.9513 87.3687 57.6886 92.857 57.6938 98.6934C57.6985 104.549 59.9588 110.035 64.0579 114.141C68.157 118.247 73.6308 120.508 79.4726 120.508C84.7483 120.508 89.8373 118.594 93.8012 115.119C95.7893 113.375 97.4738 111.238 98.7212 108.884C97.8933 108.317 97.1241 107.667 96.4234 106.943C93.5961 104.022 92.1056 100.17 92.2271 96.0984C92.3473 92.0895 94.0472 88.3507 96.9387 85.6499C95.6809 83.9527 94.2091 82.4635 92.55 81.2119C88.7588 78.3516 84.2372 76.8398 79.4721 76.8398Z" fill="#13355A"/>
</g>
<g opacity="0.8">
<path opacity="0.8" d="M79.4721 117.892C74.3278 117.892 69.5087 115.903 65.9019 112.291C62.2951 108.679 60.307 103.849 60.3023 98.6916C60.2977 93.554 62.2895 88.7235 65.9108 85.0906C69.5322 81.4567 74.3485 79.4556 79.4721 79.4556C83.6661 79.4556 87.6455 80.7853 90.9806 83.3016C91.5358 83.7209 92.0736 84.1754 92.58 84.6549C93.0888 85.1353 93.1686 85.9178 92.7673 86.4918C90.8097 89.2933 89.7209 92.5884 89.6186 96.0205C89.4768 100.762 91.1988 105.257 94.4668 108.678C94.9511 109.184 94.9905 109.97 94.5597 110.523C93.8181 111.474 92.9851 112.358 92.083 113.149C88.5945 116.208 84.1161 117.892 79.4721 117.892ZM79.4721 82.2783C75.1013 82.2783 70.9927 83.9853 67.9031 87.0852C64.814 90.185 63.115 94.3059 63.1188 98.6883C63.1226 103.092 64.8178 107.213 67.8924 110.293C70.9674 113.373 75.0797 115.069 79.4726 115.069C83.4337 115.069 87.2546 113.632 90.2301 111.023C90.706 110.606 91.1589 110.158 91.586 109.685C88.3434 105.848 86.6533 101.013 86.8045 95.9348C86.911 92.3767 87.9309 88.9447 89.7674 85.9328C89.6092 85.8044 89.4491 85.6783 89.2877 85.5559C86.4445 83.4118 83.0503 82.2783 79.4721 82.2783Z" fill="#13355A"/>
</g>
<g opacity="0.8">
<path opacity="0.8" d="M90.4282 106.872C90.2855 107.009 89.3229 108.257 88.2744 109.067C85.6391 111.101 82.5571 112.471 79.2225 112.471C75.5237 112.471 72.0619 111.044 69.4759 108.453C66.8899 105.863 65.4636 102.394 65.4608 98.686C65.4575 94.998 66.887 91.5302 69.4867 88.922C72.0863 86.3125 75.5438 84.8765 79.2225 84.8765C81.2669 84.8765 83.2409 85.3169 85.0464 86.1648C86.1826 86.6983 86.6778 88.0403 86.2014 89.2039C86.1948 89.2194 86.1887 89.235 86.1822 89.2505C85.6673 90.5167 84.2171 91.0794 82.979 90.5058C81.7784 89.9502 80.4347 89.6528 79.0188 89.6843C74.2264 89.7911 70.3258 93.7332 70.2554 98.5382C70.1817 103.566 74.225 107.665 79.2229 107.665C82.0253 107.665 84.9577 106.414 86.7261 104.357C88.4946 102.301 88.4805 102.317 88.4945 102.301C89.131 103.846 89.4051 105.52 90.4282 106.872Z" fill="#13355A"/>
</g>
<g opacity="0.8">
<path opacity="0.8" d="M105.909 99.8753C107.674 99.8753 109.105 98.4405 109.105 96.6706C109.105 94.9006 107.674 93.4658 105.909 93.4658C104.143 93.4658 102.712 94.9006 102.712 96.6706C102.712 98.4405 104.143 99.8753 105.909 99.8753Z" fill="#13355A"/>
</g>
<g opacity="0.8">
<path opacity="0.8" d="M85.226 86.3751L84.1363 88.9788L105.386 97.9176L106.476 95.314L85.226 86.3751Z" fill="#13355A"/>
</g>
<g opacity="0.8">
<path opacity="0.8" d="M76.3464 97.692C75.6556 97.692 75.0529 97.1825 74.9539 96.4771C74.846 95.705 75.382 94.9912 76.1521 94.8825L81.1763 94.1744C81.9493 94.069 82.6584 94.6035 82.7669 95.3756C82.8753 96.1478 82.3388 96.8616 81.5687 96.9703L76.5445 97.6784C76.4783 97.6873 76.4117 97.692 76.3464 97.692Z" fill="#13355A"/>
</g>
<g opacity="0.8">
<path opacity="0.8" d="M79.2117 99.8565C78.5208 99.8565 77.9182 99.3469 77.8192 98.6416L77.1128 93.6046C77.0049 92.8325 77.5409 92.1187 78.311 92.01C79.0835 91.9027 79.7932 92.4396 79.9016 93.2112L80.6079 98.2482C80.7159 99.0204 80.1799 99.7342 79.4097 99.8429C79.3431 99.8518 79.2764 99.8565 79.2117 99.8565Z" fill="#13355A"/>
</g>
<g opacity="0.8">
<path opacity="0.8" d="M75.3345 104.515C75.3054 104.493 75.288 104.464 75.2834 104.429L74.8314 101.325C74.8262 101.29 74.8351 101.257 74.8567 101.229C74.8788 101.199 74.9069 101.182 74.9426 101.177L75.6996 101.066C75.7888 101.053 75.8602 101.08 75.9123 101.148L76.9157 102.36L76.7247 101.049C76.7195 101.014 76.7284 100.981 76.7505 100.952C76.7721 100.922 76.8002 100.905 76.8359 100.9L77.7037 100.773C77.7384 100.768 77.7708 100.776 77.8004 100.799C77.8295 100.82 77.8468 100.848 77.8515 100.884L78.3035 103.988C78.3087 104.023 78.2997 104.057 78.2777 104.085C78.2556 104.114 78.2279 104.132 78.1923 104.137L77.4352 104.247C77.3808 104.256 77.3376 104.25 77.3057 104.232C77.2742 104.214 77.2461 104.192 77.2226 104.166L76.2347 103.059L76.4102 104.264C76.4154 104.299 76.4065 104.332 76.3849 104.361C76.3628 104.39 76.3347 104.408 76.2995 104.413L75.4317 104.54C75.396 104.545 75.3636 104.536 75.3345 104.515Z" fill="#13355A"/>
<path opacity="0.8" d="M78.8808 103.996C78.8517 103.975 78.8343 103.946 78.8296 103.911L78.3781 100.807C78.373 100.771 78.3819 100.739 78.4035 100.71C78.4251 100.68 78.4537 100.663 78.4889 100.658L80.9045 100.305C80.9393 100.3 80.9717 100.308 81.0012 100.33C81.0303 100.352 81.0477 100.38 81.0524 100.416L81.1589 101.147C81.1641 101.182 81.1556 101.214 81.1336 101.243C81.1115 101.272 81.0834 101.29 81.0482 101.295L79.6772 101.495L79.7289 101.851L81.0036 101.665C81.0388 101.659 81.0712 101.668 81.1003 101.69C81.1293 101.711 81.1472 101.74 81.1519 101.775L81.2575 102.501C81.2626 102.536 81.2542 102.568 81.2321 102.598C81.2105 102.628 81.1824 102.644 81.1467 102.65L79.8715 102.836L80.003 103.739C80.0081 103.774 79.9997 103.807 79.9776 103.836C79.9556 103.865 79.9274 103.883 79.8922 103.888L78.977 104.022C78.9423 104.027 78.9104 104.018 78.8808 103.996Z" fill="#13355A"/>
<path opacity="0.8" d="M82.2496 103.266C81.9342 103.095 81.7348 102.789 81.6517 102.35C81.6362 102.264 81.6137 102.124 81.5851 101.928C81.556 101.729 81.5367 101.585 81.5269 101.495C81.4837 101.064 81.5916 100.717 81.8502 100.454C82.1093 100.193 82.4735 100.027 82.9428 99.9583C83.2305 99.9164 83.5009 99.9216 83.7548 99.9724C84.0087 100.023 84.225 100.13 84.4034 100.292C84.5822 100.454 84.693 100.674 84.7371 100.952C84.7413 100.981 84.7343 101.008 84.7164 101.031C84.6986 101.055 84.6756 101.069 84.647 101.073L83.6694 101.216C83.6182 101.224 83.5792 101.22 83.5525 101.205C83.5253 101.188 83.499 101.155 83.4718 101.103C83.423 101.012 83.3662 100.952 83.3033 100.921C83.2404 100.892 83.1639 100.883 83.0747 100.896C82.963 100.912 82.8809 100.954 82.8293 101.023C82.7772 101.091 82.7598 101.195 82.7772 101.337C82.7865 101.424 82.8044 101.558 82.8302 101.737C82.8565 101.917 82.8781 102.052 82.8945 102.145C82.9184 102.285 82.9644 102.38 83.0344 102.431C83.1033 102.481 83.1939 102.498 83.3061 102.482C83.4877 102.455 83.5952 102.351 83.6276 102.169C83.6356 102.113 83.6501 102.073 83.6717 102.05C83.6928 102.028 83.7304 102.012 83.7848 102.004L84.7624 101.861C84.7915 101.857 84.8173 101.864 84.8413 101.881C84.8652 101.9 84.8788 101.922 84.8835 101.951C84.9206 102.23 84.8765 102.473 84.7521 102.679C84.6268 102.885 84.4499 103.05 84.2218 103.171C83.9932 103.294 83.7346 103.376 83.4474 103.417C82.9639 103.488 82.565 103.437 82.2496 103.266Z" fill="#13355A"/>
</g>
</g>
<path d="M235.739 233.971L152.185 227.979C145.98 227.534 141.309 222.13 141.753 215.91L154.016 44.014C154.46 37.7932 159.85 33.1109 166.055 33.5556L249.609 39.5473C255.814 39.9924 260.485 45.3959 260.041 51.6168L247.778 223.512C247.334 229.733 241.944 234.416 235.739 233.971Z" fill="#F37059"/>
<g opacity="0.8">
<path opacity="0.8" d="M211.003 67.8181L201.161 67.1123C199.093 66.9641 197.536 65.1629 197.684 63.0893L198.384 53.2774C198.532 51.2038 200.328 49.643 202.397 49.7912L212.238 50.497C214.306 50.6452 215.863 52.4464 215.715 54.52L215.015 64.3319C214.868 66.4055 213.071 67.9663 211.003 67.8181Z" fill="#454546"/>
</g>
<g opacity="0.8">
<path opacity="0.8" d="M221.777 68.5996L221.418 68.5737C219.349 68.4255 217.793 66.6243 217.94 64.5507L218.641 54.7388C218.789 52.6652 220.585 51.1044 222.653 51.2527L223.013 51.2785C225.081 51.4268 226.638 53.2279 226.49 55.3015L225.79 65.1134C225.642 67.187 223.845 68.7478 221.777 68.5996Z" fill="#454546"/>
</g>
<g opacity="0.8">
<path opacity="0.8" d="M191.484 56.6716L191.125 56.6457C189.057 56.4975 187.5 54.6963 187.648 52.6227L187.664 52.386C187.812 50.3124 189.609 48.7517 191.677 48.8999L192.036 48.9258C194.105 49.074 195.661 50.8751 195.514 52.9488L195.497 53.1854C195.349 55.259 193.552 56.8198 191.484 56.6716Z" fill="#454546"/>
</g>
<g opacity="0.8">
<g opacity="0.8">
<path opacity="0.8" d="M201.771 169.152C225.301 169.152 244.376 150.028 244.376 126.438C244.376 102.848 225.301 83.7241 201.771 83.7241C178.24 83.7241 159.165 102.848 159.165 126.438C159.165 150.028 178.24 169.152 201.771 169.152Z" fill="white"/>
</g>
<g opacity="0.8">
<path opacity="0.8" d="M201.795 162.145C200.192 162.145 198.571 162.037 196.939 161.813C187.514 160.519 179.156 155.623 173.404 148.026C167.652 140.43 165.195 131.043 166.485 121.594C169.149 102.089 187.143 88.3955 206.602 91.0625C216.027 92.3564 224.385 97.2523 230.137 104.849C235.889 112.445 238.346 121.832 237.055 131.281C234.615 149.151 219.306 162.145 201.795 162.145ZM201.749 93.5539C185.621 93.5539 171.524 105.52 169.277 121.977C166.822 139.941 179.404 156.556 197.322 159.015C198.823 159.222 200.318 159.322 201.793 159.322C217.92 159.323 232.018 147.356 234.265 130.898C235.454 122.197 233.191 113.552 227.895 106.556C222.597 99.5607 214.9 95.0521 206.22 93.8607C204.719 93.6541 203.224 93.5539 201.749 93.5539Z" fill="#13355A"/>
</g>
<g opacity="0.8">
<path opacity="0.8" d="M201.795 156.537C200.437 156.537 199.075 156.446 197.716 156.259C189.749 155.165 182.698 151.048 177.862 144.667C173.025 138.286 170.959 130.372 172.042 122.384C173.125 114.413 177.238 107.342 183.627 102.476C190.016 97.6099 197.914 95.5325 205.861 96.6227C212.366 97.5158 218.262 100.431 222.911 105.052C226.898 109.016 229.79 114.22 231.054 119.706C231.152 120.132 231.047 120.58 230.771 120.918C230.494 121.257 230.075 121.451 229.64 121.435C226.339 121.324 223.447 123.726 222.901 126.99C222.601 128.784 223.028 130.579 224.102 132.043C225.176 133.505 226.757 134.447 228.552 134.694C228.652 134.708 228.751 134.72 228.851 134.729C229.285 134.768 229.676 135.007 229.91 135.375C230.144 135.743 230.196 136.199 230.049 136.61C227.876 142.693 223.701 148.01 218.293 151.581C213.372 154.831 207.634 156.537 201.795 156.537ZM198.098 153.461C204.627 154.358 211.249 152.853 216.744 149.223C221.183 146.291 224.705 142.063 226.792 137.198C224.809 136.62 223.081 135.415 221.833 133.715C220.304 131.63 219.697 129.076 220.123 126.522C220.797 122.493 223.99 119.401 227.887 118.739C226.586 114.362 224.152 110.261 220.928 107.056C216.716 102.87 211.374 100.229 205.478 99.42C198.277 98.43 191.12 100.314 185.33 104.724C179.541 109.134 175.813 115.54 174.833 122.764C173.85 130.006 175.722 137.177 180.104 142.958C184.485 148.74 190.876 152.47 198.098 153.461Z" fill="#13355A"/>
</g>
<g opacity="0.8">
<path opacity="0.8" d="M201.795 151.098C200.682 151.098 199.566 151.023 198.452 150.87C191.92 149.973 186.141 146.602 182.181 141.377C178.221 136.151 176.529 129.665 177.418 123.117C178.305 116.586 181.675 110.794 186.909 106.807C192.144 102.819 198.613 101.119 205.125 102.011C210.455 102.743 215.285 105.13 219.091 108.914C221.081 110.892 222.72 113.208 223.962 115.796C224.282 116.461 224.035 117.26 223.398 117.63C220.279 119.438 218.147 122.522 217.551 126.09C217.007 129.348 217.781 132.607 219.732 135.265C220.433 136.219 221.266 137.064 222.208 137.777C222.795 138.22 222.943 139.041 222.548 139.662C220.69 142.587 218.187 145.139 215.308 147.039C211.279 149.7 206.578 151.098 201.795 151.098ZM198.834 148.072C204.06 148.79 209.362 147.585 213.759 144.681C215.966 143.224 217.924 141.336 219.478 139.174C218.735 138.499 218.06 137.751 217.464 136.938C215.057 133.66 214.102 129.641 214.774 125.623C215.435 121.668 217.626 118.195 220.855 115.912C219.839 114.059 218.582 112.383 217.108 110.918C213.74 107.569 209.464 105.456 204.743 104.808C198.979 104.015 193.248 105.524 188.613 109.054C183.978 112.585 180.994 117.714 180.209 123.497C179.422 129.299 180.919 135.042 184.424 139.668C187.929 144.294 193.047 147.279 198.834 148.072Z" fill="#13355A"/>
</g>
<g opacity="0.8">
<path opacity="0.8" d="M201.794 145.659C200.926 145.659 200.057 145.6 199.187 145.481C194.091 144.781 189.585 142.154 186.501 138.085C183.416 134.016 182.1 128.96 182.793 123.85C183.485 118.76 186.111 114.245 190.19 111.137C194.27 108.03 199.313 106.704 204.389 107.399C208.544 107.969 212.306 109.828 215.271 112.775C215.763 113.264 216.234 113.788 216.672 114.333C217.112 114.879 217.084 115.665 216.609 116.179C214.291 118.688 212.766 121.805 212.2 125.192C211.418 129.869 212.516 134.556 215.291 138.391C215.702 138.959 215.635 139.743 215.133 140.232C214.27 141.074 213.325 141.836 212.324 142.497C209.185 144.57 205.522 145.659 201.794 145.659ZM199.57 142.684C203.495 143.224 207.475 142.319 210.775 140.14C211.303 139.791 211.812 139.409 212.299 138.998C209.606 134.755 208.585 129.734 209.423 124.725C210.009 121.214 211.485 117.952 213.712 115.218C213.573 115.069 213.431 114.923 213.288 114.78C210.761 112.268 207.551 110.683 204.007 110.197C199.678 109.602 195.374 110.735 191.894 113.385C188.414 116.036 186.173 119.888 185.584 124.231C184.992 128.594 186.114 132.908 188.743 136.377C191.372 139.846 195.217 142.087 199.57 142.684Z" fill="#13355A"/>
</g>
<g opacity="0.8">
<path opacity="0.8" d="M211.534 136.053C211.374 136.169 210.251 137.275 209.103 137.934C206.217 139.591 202.978 140.529 199.674 140.076C196.009 139.573 192.773 137.688 190.561 134.77C188.35 131.852 187.406 128.222 187.905 124.547C188.401 120.892 190.286 117.651 193.215 115.421C196.144 113.189 199.763 112.237 203.408 112.737C205.434 113.015 207.33 113.72 209.004 114.805C210.058 115.488 210.367 116.885 209.737 117.973C209.729 117.988 209.72 118.002 209.712 118.017C209.03 119.202 207.518 119.562 206.368 118.825C205.254 118.112 203.963 117.634 202.556 117.473C197.794 116.926 193.395 120.302 192.676 125.053C191.922 130.024 195.373 134.635 200.325 135.314C203.102 135.696 206.176 134.855 208.207 133.058C210.237 131.26 210.221 131.276 210.237 131.26C210.658 132.878 210.703 134.574 211.534 136.053Z" fill="#13355A"/>
</g>
<g opacity="0.8">
<path opacity="0.8" d="M228.251 131.256C230.016 131.256 231.447 129.821 231.447 128.051C231.447 126.281 230.016 124.846 228.251 124.846C226.485 124.846 225.054 126.281 225.054 128.051C225.054 129.821 226.485 131.256 228.251 131.256Z" fill="#13355A"/>
</g>
<g opacity="0.8">
<path opacity="0.8" d="M209.149 115.038L207.718 117.469L227.562 129.215L228.994 126.784L209.149 115.038Z" fill="#13355A"/>
</g>
<g opacity="0.8">
<path opacity="0.8" d="M199.017 125.056C198.241 125.056 197.611 124.427 197.609 123.65C197.606 122.87 198.234 122.236 199.011 122.233L204.085 122.215C204.087 122.215 204.089 122.215 204.09 122.215C204.865 122.215 205.495 122.843 205.498 123.621C205.501 124.401 204.873 125.035 204.095 125.038L199.022 125.056C199.02 125.056 199.018 125.056 199.017 125.056Z" fill="#13355A"/>
</g>
<g opacity="0.8">
<path opacity="0.8" d="M201.562 127.59C200.787 127.59 200.157 126.962 200.154 126.184L200.136 121.097C200.134 120.318 200.762 119.683 201.539 119.68C201.541 119.68 201.543 119.68 201.544 119.68C202.32 119.68 202.95 120.309 202.952 121.087L202.97 126.174C202.973 126.953 202.345 127.588 201.567 127.59C201.566 127.59 201.564 127.59 201.562 127.59Z" fill="#13355A"/>
</g>
<g opacity="0.8">
<path opacity="0.8" d="M196.899 131.666C196.872 131.64 196.859 131.609 196.859 131.574L196.831 128.437C196.831 128.401 196.844 128.37 196.869 128.345C196.895 128.318 196.925 128.305 196.961 128.305L197.726 128.298C197.816 128.297 197.883 128.334 197.926 128.408L198.756 129.746L198.744 128.42C198.744 128.385 198.757 128.354 198.782 128.328C198.808 128.302 198.839 128.289 198.874 128.289L199.751 128.281C199.786 128.28 199.817 128.293 199.843 128.319C199.869 128.345 199.882 128.375 199.883 128.41L199.91 131.547C199.91 131.582 199.898 131.614 199.872 131.639C199.846 131.666 199.816 131.679 199.78 131.679L199.015 131.686C198.96 131.686 198.918 131.675 198.889 131.653C198.86 131.631 198.835 131.605 198.816 131.576L197.986 130.345L197.996 131.564C197.997 131.6 197.984 131.631 197.959 131.656C197.933 131.683 197.902 131.696 197.867 131.696L196.991 131.704C196.955 131.704 196.924 131.691 196.899 131.666Z" fill="#13355A"/>
<path opacity="0.8" d="M200.482 131.634C200.456 131.608 200.442 131.577 200.442 131.542L200.415 128.405C200.414 128.37 200.427 128.339 200.453 128.313C200.479 128.286 200.509 128.274 200.544 128.273L202.985 128.251C203.021 128.251 203.052 128.264 203.077 128.29C203.104 128.315 203.117 128.346 203.117 128.381L203.123 129.12C203.124 129.155 203.112 129.186 203.086 129.212C203.06 129.238 203.029 129.251 202.994 129.251L201.609 129.264L201.612 129.623L202.9 129.612C202.936 129.612 202.967 129.624 202.992 129.65C203.019 129.676 203.032 129.706 203.032 129.742L203.039 130.475C203.039 130.51 203.027 130.542 203.001 130.568C202.975 130.594 202.945 130.607 202.909 130.607L201.621 130.618L201.629 131.531C201.629 131.566 201.617 131.597 201.591 131.623C201.566 131.649 201.535 131.663 201.5 131.663L200.574 131.671C200.539 131.672 200.508 131.659 200.482 131.634Z" fill="#13355A"/>
<path opacity="0.8" d="M203.919 131.368C203.63 131.156 203.473 130.826 203.45 130.379C203.446 130.291 203.443 130.149 203.441 129.951C203.439 129.751 203.44 129.605 203.442 129.514C203.457 129.081 203.611 128.752 203.903 128.527C204.195 128.303 204.578 128.188 205.053 128.184C205.344 128.181 205.611 128.223 205.856 128.308C206.1 128.394 206.3 128.529 206.455 128.714C206.609 128.898 206.69 129.131 206.696 129.413C206.696 129.442 206.686 129.467 206.665 129.488C206.644 129.509 206.619 129.52 206.591 129.52L205.603 129.529C205.551 129.529 205.513 129.52 205.489 129.501C205.464 129.481 205.442 129.444 205.422 129.39C205.386 129.293 205.339 129.225 205.28 129.187C205.221 129.148 205.147 129.13 205.056 129.13C204.943 129.131 204.857 129.162 204.796 129.222C204.734 129.283 204.704 129.384 204.701 129.527C204.699 129.614 204.698 129.749 204.7 129.929C204.702 130.111 204.704 130.248 204.709 130.342C204.713 130.485 204.746 130.585 204.808 130.645C204.87 130.704 204.957 130.733 205.071 130.733C205.255 130.731 205.375 130.643 205.432 130.467C205.447 130.413 205.467 130.375 205.492 130.355C205.515 130.336 205.555 130.326 205.61 130.326L206.598 130.317C206.627 130.317 206.652 130.326 206.673 130.348C206.694 130.368 206.705 130.393 206.705 130.422C206.704 130.704 206.628 130.939 206.476 131.126C206.325 131.314 206.127 131.452 205.884 131.541C205.641 131.631 205.374 131.677 205.084 131.68C204.596 131.685 204.208 131.581 203.919 131.368Z" fill="#13355A"/>
</g>
</g>
<path d="M366.941 194.796L283.229 197.881C277.013 198.11 271.788 193.243 271.56 187.01L265.246 14.792C265.018 8.55937 269.872 3.32146 276.089 3.09232L359.8 0.00801521C366.017 -0.221131 371.242 4.64553 371.47 10.8781L377.784 183.097C378.013 189.329 373.158 194.568 366.941 194.796Z" fill="#F6BB35"/>
<g opacity="0.8">
<path opacity="0.8" d="M353.952 30.0262L285.085 32.5638C283.013 32.64 281.271 31.0181 281.195 28.9403L280.901 20.915C280.825 18.8376 282.442 17.0915 284.515 17.0152L353.382 14.4777C355.454 14.4015 357.196 16.0234 357.272 18.1012L357.566 26.1265C357.642 28.2039 356.024 29.95 353.952 30.0262Z" fill="#454546"/>
</g>
<g opacity="0.8">
<g opacity="0.8">
<path opacity="0.8" d="M321.147 129.104C344.677 129.104 363.752 109.98 363.752 86.3902C363.752 62.8 344.677 43.6763 321.147 43.6763C297.617 43.6763 278.542 62.8 278.542 86.3902C278.542 109.98 297.617 129.104 321.147 129.104Z" fill="white"/>
</g>
<g opacity="0.8">
<path opacity="0.8" d="M321.162 122.095C320.826 122.095 320.49 122.09 320.153 122.081C310.643 121.815 301.807 117.852 295.271 110.922C288.735 103.993 285.282 94.9265 285.547 85.3927C285.813 75.8594 289.765 67.0003 296.678 60.4477C303.589 53.8942 312.626 50.4274 322.142 50.6989C341.772 51.2494 357.295 67.7075 356.747 87.3878C356.208 106.729 340.341 122.095 321.162 122.095ZM321.135 53.5084C303.47 53.5084 288.859 67.659 288.363 85.4722C287.858 103.596 302.154 118.753 320.231 119.259C328.979 119.505 337.317 116.316 343.682 110.282C350.047 104.248 353.688 96.0892 353.933 87.3097C354.438 69.1859 340.141 54.0293 322.064 53.5221C321.753 53.5127 321.443 53.5084 321.135 53.5084ZM355.34 87.3487H355.344H355.34Z" fill="#13355A"/>
</g>
<g opacity="0.8">
<path opacity="0.8" d="M321.169 116.487C320.888 116.487 320.608 116.483 320.326 116.475C312.288 116.25 304.835 112.92 299.34 107.1C293.845 101.279 290.939 93.6355 291.156 85.5768C291.373 77.535 294.702 70.0611 300.529 64.532C306.357 59.0028 313.987 56.0898 322.003 56.3067C328.566 56.4907 334.742 58.7502 339.861 62.8419C344.251 66.3515 347.687 71.2121 349.534 76.529C349.678 76.9421 349.622 77.399 349.384 77.7651C349.145 78.1311 348.751 78.3659 348.316 78.4008C345.028 78.6624 342.404 81.3495 342.213 84.6522C342.108 86.4693 342.725 88.2075 343.95 89.5452C345.176 90.8843 346.849 91.6499 348.661 91.7002C348.76 91.7026 348.862 91.7035 348.964 91.7021C348.971 91.7021 348.978 91.7021 348.985 91.7021C349.412 91.7021 349.817 91.8964 350.085 92.2314C350.356 92.5721 350.456 93.0196 350.354 93.4435C348.849 99.726 345.272 105.463 340.28 109.599C334.898 114.057 328.141 116.487 321.169 116.487ZM321.145 59.1181C314.163 59.1181 307.557 61.7521 302.465 66.5825C297.184 71.5927 294.168 78.3659 293.971 85.653C293.773 92.9584 296.406 99.886 301.385 105.159C306.364 110.432 313.118 113.449 320.405 113.653C326.986 113.845 333.413 111.625 338.485 107.423C342.582 104.028 345.629 99.4432 347.18 94.3798C345.145 94.0204 343.298 93.0087 341.875 91.4536C340.131 89.548 339.252 87.0744 339.401 84.4884C339.636 80.4099 342.478 76.9901 346.282 75.9112C344.516 71.7 341.655 67.8868 338.104 65.0491C333.467 61.3423 327.871 59.295 321.923 59.1289C321.664 59.1214 321.404 59.1181 321.145 59.1181Z" fill="#13355A"/>
</g>
<g opacity="0.8">
<path opacity="0.8" d="M321.169 111.048C320.939 111.048 320.709 111.045 320.478 111.038C313.888 110.854 307.78 108.127 303.28 103.361C298.78 98.5943 296.4 92.3311 296.579 85.7244C296.757 79.1352 299.484 73.0117 304.258 68.4824C309.033 63.9527 315.266 61.5591 321.852 61.7436C327.229 61.8941 332.287 63.7447 336.479 67.0944C338.67 68.8457 340.549 70.9706 342.062 73.4098C342.451 74.0365 342.292 74.8581 341.699 75.2943C338.793 77.4295 337.006 80.7255 336.797 84.3378C336.606 87.6357 337.727 90.7911 339.953 93.2227C340.753 94.0965 341.672 94.8465 342.685 95.4516C343.316 95.829 343.552 96.6289 343.226 97.2895C341.694 100.399 339.48 103.205 336.823 105.407C332.416 109.058 326.88 111.048 321.169 111.048ZM321.149 64.5568C315.559 64.5568 310.27 66.6648 306.195 70.5325C301.967 74.5433 299.552 79.9656 299.395 85.8002C299.236 91.6535 301.342 97.2006 305.326 101.42C309.309 105.639 314.718 108.053 320.557 108.216C325.836 108.376 330.971 106.593 335.03 103.229C337.066 101.542 338.81 99.453 340.122 97.1352C339.311 96.5451 338.56 95.8742 337.879 95.1303C335.134 92.1311 333.752 88.2399 333.987 84.1731C334.218 80.1694 336.022 76.4795 338.988 73.8606C337.777 72.1276 336.347 70.5975 334.724 69.3012C331.014 66.3359 326.536 64.6985 321.774 64.5653C321.565 64.5597 321.356 64.5568 321.149 64.5568Z" fill="#13355A"/>
</g>
<g opacity="0.8">
<path opacity="0.8" d="M321.166 105.609C320.988 105.609 320.809 105.607 320.629 105.602C315.487 105.457 310.724 103.334 307.22 99.6224C303.716 95.9099 301.863 91.0263 302.002 85.8708C302.141 80.7359 304.266 75.9629 307.988 72.432C311.708 68.9012 316.573 67.0332 321.7 67.1791C325.893 67.2967 329.833 68.7375 333.098 71.3465C333.637 71.7775 334.163 72.2481 334.659 72.744C335.154 73.2385 335.212 74.0229 334.795 74.5852C332.76 77.3307 331.579 80.5938 331.382 84.0221C331.108 88.757 332.704 93.299 335.876 96.8105C336.345 97.3304 336.363 98.1172 335.917 98.6578C335.149 99.588 334.292 100.448 333.368 101.214C329.933 104.059 325.619 105.609 321.166 105.609ZM320.708 102.78C324.659 102.905 328.527 101.562 331.574 99.038C332.061 98.6343 332.527 98.1995 332.966 97.7384C329.832 93.8114 328.277 88.9306 328.57 83.8593C328.776 80.3049 329.891 76.903 331.811 73.9448C331.656 73.8116 331.5 73.6813 331.342 73.5552C328.559 71.331 325.197 70.1025 321.621 70.0022C317.244 69.8757 313.097 71.4717 309.923 74.4831C306.748 77.4954 304.935 81.5669 304.817 85.9475C304.698 90.3497 306.277 94.5172 309.265 97.6815C312.253 100.846 316.317 102.657 320.708 102.78Z" fill="#13355A"/>
</g>
<g opacity="0.8">
<path opacity="0.8" d="M331.888 94.8931C331.742 95.0257 330.744 96.2468 329.674 97.0264C326.983 98.9857 323.864 100.269 320.53 100.175C316.833 100.072 313.412 98.5486 310.9 95.8863C308.387 93.2255 307.058 89.7177 307.158 86.0109C307.258 82.3239 308.784 78.898 311.455 76.3637C314.126 73.8281 317.622 72.4894 321.3 72.5924C323.343 72.6499 325.304 73.1453 327.085 74.0431C328.206 74.6082 328.664 75.9633 328.155 77.1133C328.149 77.1288 328.142 77.1439 328.135 77.1594C327.585 78.411 326.12 78.9323 324.898 78.3249C323.713 77.7358 322.379 77.4008 320.962 77.3928C316.169 77.365 312.16 81.1965 311.955 85.9978C311.742 91.0216 315.669 95.2318 320.665 95.3716C323.466 95.4502 326.432 94.2818 328.257 92.2755C330.082 90.2692 330.068 90.2857 330.082 90.2692C330.675 91.8313 330.903 93.513 331.888 94.8931Z" fill="#13355A"/>
</g>
<g opacity="0.8">
<path opacity="0.8" d="M347.646 88.3336C349.412 88.3336 350.843 86.8988 350.843 85.1288C350.843 83.3589 349.412 81.9241 347.646 81.9241C345.881 81.9241 344.45 83.3589 344.45 85.1288C344.45 86.8988 345.881 88.3336 347.646 88.3336Z" fill="#13355A"/>
</g>
<g opacity="0.8">
<path opacity="0.8" d="M327.261 74.2418L326.1 76.8132L347.094 86.3436L348.255 83.7721L327.261 74.2418Z" fill="#13355A"/>
</g>
<g opacity="0.8">
<path opacity="0.8" d="M318.107 85.3227C317.4 85.3227 316.79 84.7896 316.709 84.0683C316.622 83.2938 317.179 82.5951 317.951 82.5085L322.993 81.942C323.762 81.8554 324.462 82.413 324.549 83.1874C324.635 83.9619 324.079 84.6607 323.306 84.7472L318.265 85.3138C318.212 85.3199 318.159 85.3227 318.107 85.3227Z" fill="#13355A"/>
</g>
<g opacity="0.8">
<path opacity="0.8" d="M320.911 87.5665C320.203 87.5665 319.594 87.0334 319.513 86.3121L318.947 81.2572C318.861 80.4827 319.417 79.784 320.19 79.6974C320.958 79.609 321.659 80.168 321.746 80.9429L322.311 85.9978C322.398 86.7723 321.841 87.471 321.069 87.5576C321.016 87.5642 320.963 87.5665 320.911 87.5665Z" fill="#13355A"/>
</g>
<g opacity="0.8">
<path opacity="0.8" d="M316.866 92.1136C316.837 92.0915 316.821 92.0623 316.817 92.027L316.452 88.9112C316.448 88.8764 316.458 88.8439 316.481 88.8157C316.503 88.7865 316.532 88.7701 316.567 88.7663L317.327 88.6769C317.417 88.6665 317.487 88.6957 317.537 88.7653L318.507 90.0052L318.353 88.6882C318.348 88.6534 318.358 88.6209 318.38 88.5931C318.403 88.564 318.432 88.547 318.468 88.5433L319.338 88.4407C319.373 88.4364 319.405 88.4459 319.434 88.4694C319.463 88.4915 319.479 88.5207 319.483 88.556L319.847 91.6718C319.852 91.7066 319.842 91.7391 319.819 91.7673C319.797 91.7965 319.768 91.8129 319.733 91.8167L318.973 91.9061C318.918 91.9127 318.875 91.9061 318.844 91.8868C318.812 91.868 318.785 91.8445 318.763 91.8181L317.805 90.6842L317.947 91.8948C317.952 91.9296 317.942 91.9621 317.92 91.9899C317.897 92.019 317.868 92.036 317.832 92.0397L316.962 92.1423C316.927 92.1461 316.894 92.1367 316.866 92.1136Z" fill="#13355A"/>
<path opacity="0.8" d="M320.425 91.695C320.397 91.6724 320.38 91.6437 320.376 91.6084L320.012 88.4921C320.008 88.4573 320.017 88.4248 320.04 88.397C320.062 88.3679 320.092 88.3509 320.127 88.3472L322.551 88.062C322.586 88.0578 322.619 88.0672 322.647 88.0907C322.676 88.1128 322.693 88.142 322.696 88.1773L322.782 88.9109C322.786 88.9461 322.777 88.9781 322.754 89.0068C322.731 89.036 322.703 89.052 322.667 89.0558L321.291 89.2181L321.333 89.5752L322.613 89.4247C322.648 89.4204 322.68 89.4298 322.709 89.4529C322.738 89.4755 322.754 89.5047 322.758 89.5399L322.843 90.2683C322.847 90.3036 322.838 90.3356 322.815 90.3648C322.793 90.3935 322.764 90.4095 322.728 90.4137L321.448 90.5643L321.555 91.4715C321.559 91.5063 321.549 91.5388 321.527 91.567C321.504 91.5962 321.475 91.6126 321.44 91.6164L320.521 91.7241C320.486 91.727 320.454 91.718 320.425 91.695Z" fill="#13355A"/>
<path opacity="0.8" d="M323.814 91.0592C323.503 90.879 323.313 90.568 323.241 90.1271C323.228 90.0405 323.21 89.8993 323.187 89.7031C323.163 89.5036 323.148 89.3592 323.141 89.2688C323.109 88.8355 323.227 88.492 323.493 88.237C323.758 87.9829 324.128 87.8276 324.599 87.7721C324.887 87.7382 325.158 87.7504 325.41 87.8088C325.662 87.8671 325.876 87.9801 326.049 88.1471C326.223 88.3137 326.328 88.5372 326.365 88.8167C326.368 88.8454 326.36 88.8717 326.342 88.8943C326.323 88.9183 326.3 88.9315 326.271 88.9348L325.29 89.0505C325.239 89.0566 325.2 89.051 325.173 89.035C325.147 89.0185 325.121 88.9837 325.096 88.9315C325.049 88.8392 324.994 88.7771 324.932 88.7451C324.87 88.7136 324.794 88.7028 324.704 88.7131C324.592 88.7263 324.508 88.7663 324.455 88.8331C324.401 88.9004 324.381 89.0039 324.394 89.146C324.401 89.2335 324.415 89.3672 324.436 89.5469C324.457 89.7271 324.475 89.8631 324.489 89.9563C324.508 90.0974 324.553 90.1939 324.62 90.2466C324.688 90.2983 324.778 90.3176 324.89 90.3049C325.073 90.2833 325.183 90.1826 325.22 90.0014C325.23 89.9454 325.246 89.9059 325.268 89.8838C325.29 89.8617 325.328 89.8476 325.382 89.841L326.364 89.7252C326.393 89.7219 326.418 89.7295 326.442 89.7483C326.465 89.7666 326.478 89.7902 326.482 89.8193C326.511 90.0988 326.461 90.3402 326.33 90.543C326.2 90.7463 326.018 90.9048 325.786 91.0201C325.555 91.1359 325.294 91.2102 325.005 91.2446C324.521 91.301 324.124 91.2399 323.814 91.0592Z" fill="#13355A"/>
</g>
</g>
<path d="M37.9557 40.0001C40.4378 40.0001 42.45 37.9828 42.45 35.4943C42.45 33.0058 40.4378 30.9885 37.9557 30.9885C35.4735 30.9885 33.4614 33.0058 33.4614 35.4943C33.4614 37.9828 35.4735 40.0001 37.9557 40.0001Z" fill="#20A39E"/>
<path d="M38.8943 49.6195C39.9363 49.6195 40.781 48.7726 40.781 47.7279C40.781 46.6833 39.9363 45.8364 38.8943 45.8364C37.8523 45.8364 37.0076 46.6833 37.0076 47.7279C37.0076 48.7726 37.8523 49.6195 38.8943 49.6195Z" fill="#20A39E"/>
<path d="M349.648 26.558L349.289 26.5322C347.221 26.3839 345.664 24.5828 345.812 22.5092L345.829 22.2725C345.977 20.1989 347.773 18.6381 349.841 18.7864L350.201 18.8122C352.269 18.9604 353.826 20.7616 353.678 22.8352L353.661 23.0719C353.514 25.1455 351.716 26.7063 349.648 26.558Z" fill="#F6BB35"/>
<path d="M219.741 196.716C219.458 196.657 219.197 196.508 218.999 196.271C218.532 195.71 218.605 194.876 219.162 194.409C221.63 192.336 223.258 189.672 223.874 186.699C224.497 183.694 224.048 180.57 222.572 177.663C222.244 177.013 222.501 176.216 223.151 175.887C223.798 175.556 224.592 175.812 224.925 176.466C226.672 179.912 227.202 183.637 226.456 187.237C225.718 190.798 223.78 193.978 220.857 196.433C220.535 196.704 220.121 196.795 219.741 196.716Z" fill="#13355A"/>
<path d="M230.369 204.945C230.099 204.889 229.846 204.749 229.651 204.526C229.167 203.98 229.218 203.147 229.764 202.661C233.785 199.087 236.462 194.548 237.5 189.538C238.539 184.527 237.887 179.297 235.62 174.411C235.312 173.749 235.596 172.962 236.257 172.655C236.914 172.344 237.702 172.63 238.008 173.295C240.52 178.701 241.238 184.503 240.083 190.075C238.927 195.649 235.963 200.686 231.511 204.64C231.187 204.928 230.762 205.027 230.369 204.945Z" fill="#13355A"/>
<path d="M239.459 212.002C239.194 211.947 238.943 211.811 238.749 211.593C238.261 211.054 238.303 210.216 238.844 209.728C244.204 204.869 247.779 198.728 249.179 191.971C250.58 185.214 249.742 178.153 246.754 171.552C246.453 170.887 246.747 170.104 247.409 169.802C248.069 169.499 248.852 169.79 249.153 170.459C252.374 177.573 253.276 185.199 251.761 192.509C250.246 199.819 246.391 206.453 240.611 211.688C240.286 211.982 239.855 212.085 239.459 212.002Z" fill="#13355A"/>
<path d="M249.143 219.515C248.881 219.461 248.633 219.327 248.44 219.113C247.947 218.575 247.983 217.739 248.522 217.247C255.304 211.013 259.833 203.17 261.617 194.562C263.401 185.955 262.366 176.954 258.622 168.532C258.324 167.866 258.622 167.084 259.289 166.787C259.947 166.49 260.73 166.788 261.028 167.456C265.001 176.387 266.097 185.945 264.2 195.101C262.302 204.254 257.498 212.586 250.302 219.195C249.976 219.494 249.545 219.599 249.143 219.515Z" fill="#13355A"/>
<path d="M362.659 69.5044C362.405 69.678 362.101 69.7721 361.78 69.7585C361.019 69.7232 360.461 69.0885 360.533 68.3413C360.851 65.0278 360.107 61.9407 358.383 59.4069C356.641 56.8463 354.012 55.0155 350.779 54.1158C350.057 53.9135 349.664 53.1644 349.905 52.4417C350.145 51.7209 350.925 51.2964 351.652 51.4978C355.485 52.5669 358.615 54.7529 360.702 57.8208C362.767 60.8561 363.659 64.5366 363.284 68.4617C363.242 68.8941 363.001 69.2706 362.659 69.5044Z" fill="#13355A"/>
<path d="M376.62 67.1573C376.378 67.323 376.087 67.4175 375.778 67.4114C375.016 67.3987 374.443 66.7809 374.493 66.03C374.865 60.4947 373.526 55.3081 370.621 51.038C367.715 46.768 363.389 43.6277 358.112 41.9536C357.397 41.7273 357.031 40.9645 357.297 40.2489C357.558 39.5351 358.355 39.1356 359.072 39.3652C364.913 41.2153 369.708 44.7029 372.939 49.4524C376.171 54.2028 377.66 59.9522 377.247 66.0784C377.218 66.5245 376.973 66.916 376.62 67.1573Z" fill="#13355A"/>
<path d="M388.575 65.163C388.337 65.3258 388.051 65.4208 387.746 65.4175C386.987 65.4128 386.403 64.7988 386.447 64.0492C386.873 56.6046 385.028 49.6243 381.109 43.8655C377.191 38.1067 371.382 33.8358 364.309 31.5161C363.596 31.2822 363.24 30.5157 363.512 29.8029C363.781 29.0914 364.579 28.699 365.294 28.9357C372.918 31.4356 379.19 36.0505 383.428 42.2798C387.667 48.5106 389.665 56.046 389.203 64.0713C389.177 64.5212 388.931 64.9202 388.575 65.163Z" fill="#13355A"/>
<path d="M401.309 63.0342C401.073 63.1951 400.79 63.2911 400.489 63.2883C399.726 63.2888 399.14 62.6799 399.18 61.9299C399.655 52.4502 397.271 43.5624 392.28 36.2264C387.289 28.8904 379.908 23.4215 370.935 20.4097C370.223 20.1735 369.872 19.4032 370.15 18.6908C370.422 17.9851 371.225 17.5978 371.938 17.8364C381.456 21.0284 389.291 26.839 394.599 34.6408C399.907 42.4416 402.444 51.878 401.936 61.9327C401.914 62.3872 401.669 62.7881 401.309 63.0342Z" fill="#13355A"/>
<path d="M7.21736 176.21C6.92309 176.298 6.60488 176.295 6.3031 176.184C5.58925 175.917 5.25086 175.142 5.54701 174.453C6.85691 171.394 7.08782 168.226 6.21674 165.286C5.33628 162.315 3.3895 159.768 0.583374 157.922C-0.0422426 157.509 -0.189143 156.676 0.260475 156.061C0.707747 155.447 1.57929 155.282 2.21101 155.696C5.53621 157.886 7.85236 160.925 8.90694 164.485C9.95073 168.007 9.67993 171.785 8.12833 175.408C7.9589 175.808 7.61441 176.092 7.21736 176.21Z" fill="#13355A"/>
<path d="M21.2278 178.244C20.9467 178.327 20.6411 178.329 20.3483 178.228C19.6264 177.983 19.2688 177.219 19.5448 176.52C21.5821 171.362 21.8849 166.013 20.4168 161.058C18.9487 156.103 15.7836 151.79 11.2672 148.582C10.6552 148.148 10.5383 147.31 11.01 146.709C11.4756 146.109 12.3561 145.972 12.969 146.41C17.9692 149.958 21.4751 154.745 23.1079 160.256C24.7412 165.768 24.4108 171.699 22.1533 177.407C21.99 177.823 21.638 178.122 21.2278 178.244Z" fill="#13355A"/>
<path d="M33.2201 179.999C32.9442 180.082 32.6419 180.084 32.3533 179.988C31.6314 179.751 31.2621 178.988 31.5319 178.287C34.2024 171.327 34.5676 164.116 32.5879 157.433C30.6083 150.751 26.3745 144.907 20.344 140.536C19.7358 140.095 19.6302 139.256 20.1056 138.66C20.5782 138.065 21.4578 137.935 22.067 138.379C28.5672 143.091 33.1366 149.403 35.2781 156.632C37.4202 163.862 37.0311 171.649 34.1494 179.151C33.9889 179.572 33.6327 179.876 33.2201 179.999Z" fill="#13355A"/>
<path d="M45.9943 181.865C45.7212 181.946 45.4222 181.951 45.1369 181.856C44.4104 181.624 44.0368 180.864 44.3033 180.162C47.6393 171.279 48.0725 162.086 45.5504 153.573C43.0282 145.061 37.6623 137.596 30.032 131.984C29.426 131.541 29.3256 130.701 29.8076 130.107C30.2821 129.519 31.1635 129.395 31.7699 129.84C39.8635 135.79 45.5583 143.719 48.2406 152.773C50.9223 161.825 50.4694 171.588 46.9269 181.008C46.7673 181.433 46.412 181.74 45.9943 181.865Z" fill="#13355A"/>
</g>
<defs>
<clipPath id="clip0">
<rect width="402" height="234" fill="white"/>
</clipPath>
</defs>
</svg>
