<svg width="265" height="274" viewBox="0 0 265 274" fill="none" xmlns="http://www.w3.org/2000/svg">
<g clip-path="url(#clip0)">
<path d="M203.92 98.9362C200.562 98.9362 197.213 98.0978 194.346 96.3866L193.797 96.0588L195.294 88.2534L197.088 88.5977L195.835 95.1322C201.684 98.301 209.514 97.6379 214.699 93.4663L215.844 94.8892C212.52 97.5635 208.214 98.9358 203.92 98.9362Z" fill="#13355A"/>
<path d="M146.416 179.252C143.718 175.77 139.611 173.769 135.263 171.651C131.425 169.781 127.457 167.848 124.399 164.773C123.203 163.571 122.15 162.27 121.132 161.011C119.659 159.191 118.268 157.47 116.459 155.989C115.512 155.214 114.41 154.587 113.244 153.924C111.382 152.865 109.456 151.77 108.102 149.981C107.82 149.608 107.493 148.783 106.893 147.233C106.389 145.93 105.478 143.58 104.988 142.944L103.508 142.946C102.41 145.798 102.431 149.01 103.584 151.848C104.035 152.956 104.641 153.993 105.283 155.092C105.77 155.924 106.274 156.785 106.704 157.683C107.982 160.347 108.228 162.816 107.415 164.82L105.722 164.133C106.499 162.22 105.789 159.999 105.057 158.473C104.659 157.643 104.196 156.851 103.706 156.013C103.06 154.908 102.392 153.765 101.892 152.536C100.479 149.06 100.542 145.097 102.062 141.663L102.303 141.12L105.247 141.117C105.247 141.117 105.248 141.117 105.248 141.117C106.32 141.117 106.959 142.347 108.596 146.573C108.955 147.498 109.401 148.65 109.562 148.883C110.685 150.367 112.367 151.324 114.147 152.336C115.328 153.008 116.549 153.702 117.616 154.576C119.57 156.176 121.087 158.05 122.552 159.862C123.542 161.085 124.565 162.349 125.694 163.486C128.535 166.341 132.362 168.206 136.063 170.008C140.408 172.125 144.901 174.314 147.86 178.133L146.416 179.252Z" fill="#13355A"/>
<path d="M215.721 86.405C211.113 82.3945 204.567 80.8505 198.64 82.374L198.186 80.6048C204.687 78.933 211.865 80.6281 216.92 85.0267L215.721 86.405Z" fill="#13355A"/>
<path d="M171.204 82.6294L170.042 81.2197C173.695 78.2089 178.659 76.9306 183.321 77.8033L182.985 79.599C178.849 78.8254 174.445 79.9579 171.204 82.6294Z" fill="#13355A"/>
<path d="M83.7148 174.492L83.5166 172.676C84.0509 172.617 85.741 172.17 90.7593 170.372L91.3758 172.092C85.8141 174.085 84.3601 174.421 83.7148 174.492Z" fill="#13355A"/>
<path d="M126.858 96.6332C126.246 96.6332 125.687 96.4076 125.382 96.2847C125.237 96.2263 124.946 96.1148 124.538 95.9582C107.383 89.3717 104.657 86.8267 104.2 85.3457C104.048 84.8557 104.119 84.3639 104.398 83.9602C107.919 78.8661 111.815 76.1873 117.031 75.2735L117.188 76.1731L117.031 75.2735C122.821 74.2611 128.913 77.5824 130.61 82.6802C132.041 86.9733 130.466 91.5358 128.934 95.0312C128.774 95.3979 128.531 95.9523 127.987 96.3098C127.622 96.5496 127.231 96.6332 126.858 96.6332ZM105.977 84.8886C106.255 85.4572 108.446 87.8231 125.193 94.253C125.614 94.4147 125.914 94.5298 126.064 94.5905C126.744 94.8645 126.931 94.8165 126.983 94.7837C127.075 94.7229 127.201 94.4357 127.261 94.2978C128.661 91.102 130.11 86.9591 128.877 83.2569C127.454 78.983 122.287 76.2078 117.346 77.0728C112.688 77.8879 109.178 80.3009 105.977 84.8886Z" fill="#13355A"/>
<path d="M126.361 163.511C124.885 162.198 123.661 160.559 122.824 158.77L124.478 157.996C125.211 159.562 126.282 160.996 127.574 162.145L126.361 163.511Z" fill="#13355A"/>
<path d="M142.409 180.437L142.06 178.644C144.958 178.081 151.398 175.637 153.276 173.915L154.511 175.26C152.217 177.366 145.289 179.877 142.409 180.437Z" fill="#13355A"/>
<path d="M193.567 138.267L190.726 143.214L192.31 144.124L195.151 139.177L193.567 138.267Z" fill="#13355A"/>
<path d="M184.599 197.879C182.57 208.492 182.599 220.012 185.619 230.464C186.433 233.282 187.481 236.027 188.528 238.769C189.416 241.095 190.111 245.347 191.819 247.181C196.352 252.046 202.276 245.359 205.491 242.604C211.244 237.676 216.878 232.61 222.427 227.453C232.298 218.279 245.227 208.763 249.999 195.709C251.544 191.483 245.588 186.719 243.66 183.159C241.125 178.475 239.442 173.324 238.796 168.035C229.704 174.272 220.09 180.191 210.998 186.428C203.551 191.537 193.615 198.4 184.599 197.879Z" fill="#29568A"/>
<path d="M56.0339 196.359C60.4463 192.943 66.1108 190.773 71.6163 191.682C72.0812 195.979 71.0811 200.422 68.8197 204.106C67.9539 205.517 66.914 206.812 65.8418 208.074C63.5004 210.828 60.9189 213.493 57.677 215.093C53.8173 216.999 43.0847 217.059 43.9999 210.74C44.6771 206.067 52.5039 199.093 56.0339 196.359Z" fill="#8FD1CE"/>
<path d="M44.6113 212.355C46.5412 211.698 48.3948 211.003 50.1607 210.085C51.054 209.653 51.9198 209.165 52.7729 208.654C53.6309 208.151 54.4634 207.601 55.2891 207.038C56.9349 205.899 58.4963 204.624 60.0151 203.292C61.5336 201.958 62.9917 200.547 64.4855 199.167L64.7809 199.456C63.5191 201.063 62.2213 202.645 60.8065 204.136C59.3986 205.633 57.9145 207.083 56.3038 208.422C54.6954 209.764 52.9044 210.933 50.9302 211.732C49.9425 212.124 48.9195 212.443 47.861 212.604C46.8079 212.773 45.7279 212.819 44.657 212.628L44.6113 212.355Z" fill="#20A39E"/>
<path d="M46.0827 241.635L44.2569 241.576C44.6697 228.837 43.8477 216 41.8124 203.422C41.6256 202.265 41.4279 201.109 41.2306 199.953C40.7059 196.88 40.1633 193.702 39.8277 190.537C39.2559 185.133 39.2724 179.639 39.2888 174.327L39.4245 129.578L41.2511 129.583L41.1155 174.332C41.0995 179.596 41.0826 185.039 41.6443 190.344C41.9736 193.453 42.5111 196.6 43.0312 199.645C43.2294 200.806 43.4276 201.968 43.6157 203.13C45.6689 215.824 46.4991 228.779 46.0827 241.635Z" fill="#20A39E"/>
<path d="M38.1088 187.567C34.5327 183.128 30.5478 178.927 25.7272 175.884C20.9066 172.841 15.1618 171.016 9.49408 171.628C8.91001 175.079 9.98637 178.571 11.0499 181.905C11.4582 183.186 11.8701 184.474 12.4958 185.664C14.4868 189.448 18.484 191.851 22.6283 192.901C26.773 193.952 31.1127 193.827 35.3862 193.694C37.1882 193.638 38.9911 193.586 40.7926 193.531C40.2305 191.444 39.5765 189.389 38.1088 187.567Z" fill="#8FD1CE"/>
<path d="M40.3803 193.928C38.4203 193.186 36.5895 192.217 34.7505 191.263C33.8454 190.761 32.938 190.263 32.0411 189.747C31.1488 189.222 30.2542 188.701 29.3724 188.158C27.6009 187.082 25.8044 185.967 24.2129 184.563C23.4192 183.862 22.6781 183.089 22.0538 182.224C21.4232 181.364 20.945 180.389 20.6473 179.371L21.0382 179.239C21.899 181.096 23.353 182.503 24.9532 183.673C26.5689 184.843 28.3754 185.758 30.2249 186.668C32.0868 187.583 33.9121 188.561 35.6533 189.685C36.5206 190.254 37.3777 190.839 38.191 191.502C39.0089 192.157 39.8008 192.857 40.5178 193.688L40.3803 193.928Z" fill="#20A39E"/>
<path d="M151.593 79.1827C151.905 81.0765 152.643 86.8839 153.619 88.4251C156.956 93.6933 160.559 94.7664 163.896 100.035C165.788 98.0407 166.87 94.9632 165.257 90.007C163.281 83.9334 162.023 81.2961 160.206 75.1517C159.88 74.0474 154.274 64.557 153.541 63.7752C150.854 60.9064 128.559 56.2922 132.231 57.7367C138.496 60.2018 150.879 74.8603 151.593 79.1827Z" fill="#CBC8BD"/>
<g opacity="0.1">
<path opacity="0.1" d="M151.593 79.1827C151.905 81.0765 152.643 86.8839 153.619 88.4251C156.956 93.6933 160.559 94.7664 163.896 100.035C165.788 98.0407 166.87 94.9632 165.257 90.007C163.281 83.9334 162.023 81.2961 160.206 75.1517C159.88 74.0474 154.274 64.557 153.541 63.7752C150.854 60.9064 128.559 56.2922 132.231 57.7367C138.496 60.2018 150.879 74.8603 151.593 79.1827Z" fill="#454546"/>
</g>
<path d="M201.691 142.992L155.735 192.974L126.966 169.27L91.0694 113.018L144.611 73.5723L168.6 102.748L176.899 112.842L201.691 142.992Z" fill="#CBC8BD"/>
<path d="M98.3847 118.786C106.112 121.413 114.796 120.366 122.218 116.973C129.64 113.58 135.892 107.993 141.068 101.683C145.498 96.2841 149.372 89.7277 148.759 82.7713C147.878 72.7808 137.4 65.5865 127.372 65.7271C117.344 65.8678 108.187 71.7268 101.203 78.9248C92.0133 88.3979 79.7449 112.45 98.3847 118.786Z" fill="#D3D1C8"/>
<path d="M104.377 86.0985C106.286 85.9601 108.13 86.7319 109.884 87.4977C115.716 90.0441 121.504 92.6928 127.243 95.4419C128.29 92.2795 129.42 89.2006 129.403 85.8697C129.386 82.5388 128.197 79.0553 125.567 77.0113C122.188 74.3846 117.206 74.7576 113.432 76.7761C109.658 78.7941 106.817 82.1593 104.073 85.4446C104.459 85.8263 103.836 86.1378 104.377 86.0985Z" fill="#A8A491"/>
<path d="M108.298 103.976C98.4317 88.7905 101.139 85.7609 102.038 83.6735C105.071 76.6235 109.729 69.8973 115.128 64.4428C120.528 58.9884 124.973 55.2387 132.23 57.7367C134.366 58.4719 139.666 60.5333 141.626 61.3868C144.06 62.4463 145.783 62.4846 148.686 62.4508C151.372 57.5558 148.887 50.9908 144.299 47.8092C139.711 44.6276 133.685 44.2609 128.181 45.2003C110.638 48.1942 96.9627 63.1833 90.9187 79.9216C89.6195 83.5196 88.5974 87.3173 88.9134 91.13C89.3861 96.8273 92.7883 102 96.5302 106.142C98.1605 107.947 99.4857 109.984 102.135 109.567C103.252 109.39 108.377 104.097 108.298 103.976Z" fill="#CBC8BD"/>
<path d="M208.329 118.65C208.202 118.924 201.168 142.373 191.144 130.165C188.122 126.485 171.631 106.435 168.6 102.747C164.961 92.1204 160.122 81.9052 154.204 72.3622C153.215 70.7607 152.05 69.0692 150.258 68.497C148.958 68.0855 147.552 68.3413 146.187 68.3111C140.77 68.1906 136.584 63.713 133.08 59.5815C132.628 59.0495 132.146 58.427 132.231 57.7343C132.432 56.0127 136.473 57.8548 137.246 58.2362C138.818 59.0093 140.298 60.0784 142.035 60.3295C143.767 60.5807 145.87 59.5815 145.986 57.8348C146.041 56.9913 145.63 56.1885 145.188 55.4706C140.896 48.5535 132.021 44.8234 124.074 46.6003C123.903 43.6087 127.307 41.5957 130.303 41.4701C133.3 41.3495 136.292 42.3538 139.269 41.972C142.647 41.5404 145.855 39.3516 149.203 39.9942C152.757 40.6769 154.91 44.2361 156.452 47.5141C161.557 58.3718 167.174 70.7511 177.952 77.1412C179.463 78.0349 181.114 78.8779 182.043 80.369C182.831 81.639 182.977 83.1903 183.057 84.6808C183.475 92.3619 208.825 117.586 208.329 118.65Z" fill="#D6A88E"/>
<path d="M132.498 160.572C132.463 160.577 132.422 160.582 132.387 160.587C126.915 161.31 122.102 164.432 117.147 166.876C106.766 171.986 95.2502 174.256 83.8906 176.474C83.1978 175.224 82.4297 173.954 81.6415 172.679C79.4577 169.135 77.1187 165.501 75.7482 161.796C74.0115 157.113 76.3405 156.571 79.7993 153.373C87.7659 146.019 95.4411 138.319 103.252 130.804C104.381 129.715 105.586 128.585 107.112 128.219C108.246 127.942 109.446 128.128 110.581 128.409C117.267 130.076 122.784 135.066 126.283 140.999C129.782 146.932 131.464 153.764 132.498 160.572Z" fill="#D3D1C8"/>
<g opacity="0.1">
<path opacity="0.1" d="M132.387 160.587C126.915 161.309 122.102 164.432 117.147 166.876C106.766 171.986 95.2506 174.255 83.8906 176.474C83.7056 176.51 81.8735 173.04 81.7086 172.698C82.3977 171.875 83.9983 172.121 84.977 171.969C86.5461 171.724 88.0983 171.329 89.6231 170.891C92.6965 170.009 95.6812 168.847 98.6587 167.689C100.589 166.939 102.519 166.188 104.412 165.349C113.399 161.368 121.742 155.106 126.207 146.349C128.084 142.671 129.916 149.76 130.365 151.165C130.609 151.928 132.764 160.535 132.387 160.587Z" fill="#454546"/>
</g>
<path d="M76.8452 157.87C80.5355 161.716 82.4818 166.657 84.3185 171.489C86.0447 176.028 87.438 181.785 83.4929 185.156C79.0938 188.914 71.8648 186.384 67.4808 182.81C61.4628 177.904 53.1843 167.606 55.47 159.443C58.2488 149.518 70.7363 151.504 76.8452 157.87Z" fill="#CBC8BD"/>
<path d="M73.4384 160.33C76.5666 163.942 78.2485 168.552 79.8372 173.058C81.3305 177.293 82.5594 182.654 79.2974 185.74C75.6606 189.181 69.5887 186.753 65.8833 183.385C60.7974 178.764 53.762 169.109 55.5827 161.555C57.7967 152.369 68.2603 154.351 73.4384 160.33Z" fill="#D3D1C8"/>
<path d="M71.7401 121.143L59.0219 125.738L52.7838 127.993C52.6286 128.048 52.4824 128.112 52.3454 128.19C52.0395 128.341 51.77 128.541 51.5508 128.765C51.2494 129.08 51.0348 129.441 50.9389 129.838L49.7196 134.793L48.8154 138.479L44.0889 157.727C43.1801 161.435 37.9056 161.435 36.9923 157.727L32.2658 138.479L30.1423 129.838C30.0464 129.441 29.8318 129.08 29.5304 128.765C29.3112 128.541 29.0463 128.345 28.7403 128.194C28.6033 128.112 28.4572 128.048 28.3019 127.993L22.0639 125.738L9.34113 121.143C6.1262 119.979 6.1262 115.431 9.34113 114.271L22.0639 109.677L28.3019 107.421C28.4572 107.366 28.6033 107.297 28.7449 107.22C29.0463 107.064 29.3112 106.868 29.5304 106.644C29.8318 106.329 30.0464 105.968 30.1423 105.571L30.7268 103.196L32.2658 96.931L36.9923 77.6825C37.9056 73.9743 43.1801 73.9743 44.0889 77.6825L48.8154 96.931L50.9389 105.571C51.0348 105.968 51.2494 106.329 51.5508 106.644C51.77 106.868 52.0349 107.069 52.3409 107.224C52.4824 107.297 52.6286 107.366 52.7838 107.421L59.0219 109.677L71.7401 114.271C74.9596 115.431 74.9596 119.979 71.7401 121.143Z" fill="#F6BB35"/>
<path d="M33.0394 93.8207C34.2039 89.1234 35.404 84.4239 37.1023 79.8572C37.5403 78.7196 38.0216 77.5953 38.6212 76.5098C38.9226 75.9682 39.2569 75.4357 39.7003 74.9471C39.9318 74.7096 40.178 74.4671 40.5383 74.3091C40.7251 74.2164 40.8799 74.1913 41.0429 74.1493C41.2041 74.105 41.3726 74.0959 41.5375 74.0685C42.2047 74.0055 42.8851 74.1173 43.5039 74.374C44.1227 74.6329 44.6707 75.0544 45.0963 75.5755C45.526 76.0847 45.7941 76.7674 45.9302 77.367L46.374 79.1265L49.9269 93.2019L51.7033 100.24L52.5916 103.759L52.8135 104.638L52.8692 104.858L52.8971 104.968L52.9204 105.047C52.9532 105.15 52.9943 105.252 53.0505 105.349C53.2661 105.741 53.6524 106.066 54.105 106.273L67.7004 111.194L71.1135 112.427L72.8201 113.043L73.2466 113.197C73.3873 113.247 73.5622 113.333 73.7174 113.401C73.8795 113.469 74.0362 113.548 74.1805 113.653C74.3257 113.755 74.4823 113.841 74.6152 113.959C75.7245 114.87 76.2898 116.354 76.1145 117.751C76.0304 118.451 75.7788 119.132 75.3742 119.719C74.9787 120.317 74.3878 120.765 73.764 121.077C73.6065 121.148 73.4393 121.227 73.2882 121.287L72.8616 121.442L72.0086 121.75L70.302 122.366L66.8889 123.6L60.0626 126.067L56.6495 127.3L54.9411 127.913C54.3319 128.127 53.8858 128.272 53.5177 128.599C53.3336 128.752 53.1843 128.933 53.0715 129.125C52.9542 129.329 52.9126 129.488 52.8341 129.821L52.3961 131.582L51.5202 135.103L48.0171 149.191L46.2658 156.235C46.111 156.827 46.0078 157.384 45.7525 158.059C45.4657 158.681 45.0707 159.284 44.5026 159.699C43.9469 160.116 43.2979 160.405 42.6175 160.514C41.9371 160.613 41.2407 160.562 40.5817 160.36C39.9255 160.142 39.33 159.753 38.8514 159.251C38.3746 158.737 38.0769 158.098 37.8892 157.447L37.0279 153.915L35.3218 146.86L31.9096 132.75L31.4831 130.987L31.2698 130.105C31.1972 129.824 31.1305 129.48 31.0542 129.275C30.8798 128.813 30.5072 128.413 30.0459 128.147C29.8117 128.006 29.5801 127.92 29.2815 127.814L28.4293 127.502L21.6118 125.011L14.7942 122.52L11.3856 121.274C11.1002 121.167 10.8207 121.074 10.5298 120.955C10.2302 120.823 9.9293 120.693 9.66535 120.492C9.13105 120.116 8.66799 119.611 8.39353 119.011C7.83686 117.827 7.85832 116.371 8.54423 115.243C8.87988 114.684 9.34614 114.19 9.91834 113.871C10.5056 113.549 11.0828 113.38 11.6477 113.172L18.4831 110.73L25.3185 108.288L28.7362 107.068L29.5906 106.763C29.8596 106.666 30.1144 106.538 30.3478 106.379C30.8099 106.06 31.1789 105.6 31.3114 105.067L31.7123 105.166C31.5593 105.818 31.1241 106.366 30.599 106.74C30.3341 106.927 30.045 107.076 29.7445 107.189L28.8947 107.507L25.4948 108.777L18.6955 111.318L11.8948 113.855L11.044 114.17C10.8942 114.22 10.7728 114.278 10.6545 114.335C10.5367 114.397 10.4038 114.434 10.2978 114.514C9.83523 114.779 9.47264 115.179 9.20777 115.629C8.66342 116.535 8.66753 117.726 9.12009 118.659C9.34203 119.135 9.71284 119.52 10.1366 119.813C10.3444 119.971 10.5896 120.069 10.8298 120.174C11.0929 120.279 11.3943 120.377 11.6742 120.478L15.0969 121.686L21.9419 124.1L28.7869 126.515L29.6427 126.817C29.9048 126.906 30.2816 127.041 30.5853 127.223C31.2132 127.579 31.7817 128.141 32.0735 128.887C32.1105 128.979 32.1411 129.074 32.1671 129.172L32.2274 129.403L32.3389 129.843L32.5622 130.722L33.0083 132.481L36.5781 146.552L38.3627 153.588L39.2537 157.095C39.3953 157.544 39.5925 157.962 39.9003 158.285C40.2136 158.598 40.5917 158.847 41.026 158.988C41.464 159.113 41.9307 159.142 42.3828 159.074C42.8349 158.996 43.2472 158.798 43.5961 158.535C43.9546 158.274 44.1839 157.887 44.3752 157.485C44.5159 157.115 44.662 156.45 44.7999 155.875L46.485 148.815L49.8548 134.694L50.6973 131.164L51.1184 129.399C51.1567 129.245 51.1754 129.137 51.2522 128.879C51.3257 128.658 51.4166 128.445 51.528 128.248C51.7513 127.856 52.0376 127.516 52.3587 127.243C52.6788 126.966 53.0304 126.747 53.3958 126.58C53.8022 126.4 54.0351 126.332 54.3301 126.218L56.033 125.591L59.4425 124.347L66.261 121.859L69.6704 120.615L71.3752 119.993L72.2273 119.682L72.6534 119.526L72.9447 119.392C73.6855 119.05 74.1449 118.344 74.2449 117.538C74.349 116.727 74.0202 115.903 73.4265 115.409C73.3562 115.341 73.2617 115.3 73.1836 115.24C73.1073 115.176 73.0151 115.133 72.9183 115.095C72.8123 115.052 72.7589 115.011 72.6127 114.958L72.1862 114.803L70.481 114.183L67.0706 112.942L60.2499 110.46L56.8395 109.219L55.1343 108.598L54.2817 108.288L53.8561 108.131L53.6108 108.036C53.5177 108.001 53.4259 107.957 53.3346 107.915C52.6094 107.567 51.9189 107.01 51.4837 106.201C51.3745 106.001 51.2869 105.784 51.2202 105.56L51.1741 105.392L51.1467 105.281L51.0946 105.06L50.8868 104.177L50.0552 100.644L48.3916 93.5787C47.2906 88.8663 46.1494 84.164 45.1068 79.4375L44.7081 77.667L44.6583 77.4455L44.6104 77.2715C44.5853 77.156 44.5396 77.0482 44.4962 76.9395C44.4086 76.7217 44.2875 76.5194 44.1478 76.3294C43.5811 75.57 42.6061 75.1174 41.6375 75.1832C41.5179 75.2024 41.395 75.201 41.2767 75.2316C41.1603 75.2572 41.0183 75.2832 40.9785 75.3129C40.9173 75.3193 40.8278 75.4015 40.7452 75.4458C40.6598 75.5198 40.5703 75.5947 40.4826 75.6814C40.1305 76.0458 39.8049 76.5203 39.514 77.0167C38.924 78.0118 38.4349 79.1028 37.9613 80.1974C36.0885 84.6102 34.7236 89.2673 33.307 93.891L33.0394 93.8207Z" fill="#13355A"/>
<path d="M59.1361 125.875C60.5609 127.565 59.0904 130.113 56.9121 129.725L52.5646 128.948L55.4782 138.986C55.7796 140.022 55.3869 140.931 54.7019 141.475C53.8205 142.183 52.4642 142.283 51.5006 141.278L48.8154 138.479L40.5406 129.853L32.2658 138.479L29.5806 141.278C27.8727 143.064 24.918 141.356 25.6076 138.986L28.5257 128.944L24.1691 129.725C21.9954 130.113 20.5203 127.565 21.9497 125.875L22.0639 125.738L28.8362 117.705L22.0639 109.677L21.9497 109.54C20.5203 107.846 21.9954 105.298 24.1691 105.686L28.5211 106.467L25.9364 97.5616L25.6076 96.4291C24.918 94.0544 27.8727 92.351 29.5806 94.132L32.2658 96.9314L40.5406 105.562L48.8154 96.9314L51.5006 94.132C53.2131 92.351 56.1678 94.0544 55.4782 96.4291L52.5646 106.462L56.9121 105.686C59.0904 105.298 60.5609 107.846 59.1361 109.54L59.0219 109.677L52.2495 117.705L59.0219 125.738L59.1361 125.875Z" fill="#FAD686"/>
<path d="M0.0521033 94.8885C8.53971 66.7989 26.6493 41.0904 51.4769 24.1175C63.7895 15.5476 77.5763 8.97895 92.1312 4.83698C106.72 0.859875 122.01 -0.785039 137.148 0.352975C152.286 1.3654 167.305 4.75159 181.449 10.4919C195.592 16.2815 208.502 24.8417 219.859 34.9971C231.11 45.2438 241.132 57.0966 248.246 70.6381C255.458 84.0869 260.485 98.6605 263.055 113.64C265.773 128.623 265.4 144.004 263.027 158.905C260.561 173.798 255.896 188.409 248.561 201.586C234.127 227.925 211.506 249.93 184.017 261.934C170.386 268.041 155.812 271.976 140.98 273.465C133.544 273.823 126.107 274.296 118.685 273.755C111.271 273.165 103.906 272.094 96.675 270.404C67.7388 263.598 41.4311 246.878 22.9398 223.896C22.3078 223.11 22.4324 221.961 23.2179 221.328C23.9865 220.71 25.103 220.815 25.7423 221.554L25.7574 221.571C44.5479 243.289 70.4674 258.36 98.1642 263.827C105.089 265.184 112.103 265.943 119.122 266.252C126.156 266.512 133.156 265.789 140.119 265.222C153.994 263.314 167.444 259.133 179.874 253.017C204.882 240.943 225.078 220.006 236.91 195.528C242.979 183.322 246.526 170.018 248.045 156.663C249.427 143.3 249.039 129.68 245.92 116.728C243.036 103.76 238.299 91.2822 231.622 79.918C224.872 68.6178 216.613 58.2231 206.844 49.4287C197.092 40.6118 185.925 33.4595 174.004 27.8589C161.971 22.4629 149.053 19.1462 135.853 17.6629C122.634 15.9618 109.082 16.8076 95.9462 19.6097C82.7421 22.2337 69.8637 27.1077 58.0072 34.0175C46.1339 40.9246 35.4278 49.905 25.8328 60.1516C16.3117 70.5025 8.55798 82.5909 2.36786 95.6826L2.32813 95.7648C2.04043 96.3754 1.30976 96.6366 0.70057 96.3475C0.144807 96.0854 -0.12006 95.4588 0.0521033 94.8885Z" fill="#F6BB35"/>
<path d="M174.072 190.741C170.081 195.404 165.438 199.51 160.318 202.893C155.77 205.9 150.183 208.41 144.992 206.734C140.861 205.398 137.995 201.734 135.389 198.265C132.116 193.908 128.849 189.556 125.581 185.199C123.326 182.192 120.736 178.974 117.052 178.246C113.011 177.453 109.778 179.953 105.878 179.727C103.774 179.612 101.736 178.964 99.7282 178.322C98.1116 177.805 93.7596 176.404 93.323 176.028C93.0568 175.797 92.8563 175.471 92.781 175.134C92.7257 174.918 92.7307 174.692 92.8111 174.476C95.2456 173.804 97.7755 172.915 99.9543 171.615C101.501 170.696 103.267 169.968 104.563 168.653C107.133 166.043 107.067 162.308 105.858 159.06C105.396 157.835 100.818 142.444 103.83 142.52C106.214 142.585 106.164 146.089 106.907 148.353C108.086 151.932 112.429 153.097 115.556 155.2C119.602 157.926 121.906 162.665 125.841 165.556C129.139 167.975 133.281 168.879 137.096 170.36C140.916 171.841 144.791 174.311 145.956 178.236C147.583 178.477 148.973 177.142 150.514 176.57C151.463 176.214 152.472 176.163 153.461 176.329C154.897 176.565 156.302 177.263 157.462 178.171C159.42 179.702 160.88 181.765 162.582 183.572C163.189 184.22 163.832 184.837 164.505 185.415C165.288 186.097 166.106 186.73 166.964 187.312C169.148 188.798 171.547 189.962 174.072 190.741Z" fill="#D6A88E"/>
<path d="M199.179 147.005C200.143 147.028 201.114 146.892 202.011 146.598C205.293 145.52 207.81 142.92 210.185 140.412C215.25 135.064 220.316 129.717 225.381 124.37C227.379 122.26 229.498 119.878 229.611 116.974C229.644 116.121 229.517 115.189 229.997 114.484C230.543 113.681 231.629 113.515 232.575 113.293C238.734 111.848 242.531 105.312 243.167 99.0179C243.54 95.3285 242.337 90.6774 238.704 89.933C236.394 89.4599 234.165 90.829 231.912 91.5226C225.66 93.4479 218.921 90.0261 214.242 85.454C209.563 80.8818 206.134 75.1388 201.345 70.6822C199.483 68.9487 197.38 67.3992 194.962 66.6055C191.267 65.3926 186.989 66.1406 183.924 68.5354C180.461 71.2421 180.245 74.4593 179.283 78.3291C178.303 82.2761 175.945 84.8631 174.09 88.5301C173.743 89.216 173.411 89.9449 173.425 90.7134C173.475 93.521 177.374 94.1485 180.169 93.8699C179.334 99.9719 178.499 106.074 177.664 112.176C177.571 112.862 177.484 113.595 177.788 114.217C178.163 114.983 179.021 115.367 179.82 115.668C187.093 118.401 195.078 119.215 202.754 118.006C202.943 122.602 198.308 126.238 193.725 126.647C189.143 127.057 184.708 125.133 180.526 123.217C178.609 126.725 180.012 131.335 182.859 134.141C185.707 136.946 189.668 138.29 193.559 139.21C193.769 140.632 193.617 142.105 193.119 143.453C192.214 145.904 198.432 146.72 199.448 146.812C202.888 147.124 206.59 147.79 209.776 146.009C212.729 144.357 214.332 141.067 215.497 137.889C216.33 135.619 217.032 133.301 217.6 130.95C218.027 129.183 218.429 127.298 219.683 125.982L199.179 147.005Z" fill="#D6A88E"/>
<g opacity="0.1">
<path opacity="0.1" d="M228.507 120.478C227.684 121.888 226.509 123.173 225.38 124.368C222.589 127.314 219.798 130.261 217.012 133.208C217.218 132.46 217.419 131.707 217.599 130.949C218.031 129.182 218.433 127.3 219.683 125.979L199.372 146.807C198.268 146.691 193.173 145.978 193.038 144.01C200.291 144.442 207.6 139.849 210.316 133.098C212.143 128.555 211.997 123.429 213.634 118.811C214.287 116.979 215.216 115.237 215.617 113.334C216.641 108.475 214.015 103.526 210.562 99.9613C207.108 96.3971 202.812 93.7516 199.262 90.2832C196.09 87.1811 193.575 83.4259 191.858 79.3401C190.774 76.7499 187.897 70.4652 189.755 67.8896C192.822 71.1073 195.693 74.541 198.65 77.8642C201.762 81.3732 205.065 85.0073 209.472 86.6089C211.294 87.2715 213.237 87.5578 215.054 88.2204C217.127 88.9735 218.989 90.2033 220.832 91.418C223.502 93.1798 226.278 95.0622 227.769 97.8936C229.009 100.263 229.205 103.019 229.325 105.689C229.551 110.639 229.596 115.673 228.507 120.478Z" fill="#454546"/>
</g>
<path d="M191.448 143.796C178.9 151.818 165.766 161.216 151.254 165.22C147.031 166.387 156.414 179.998 157.745 181.543C163.102 187.768 170.021 192.802 178.555 192.899C179.489 192.909 180.423 193.287 181.357 193.264C186.754 179.321 193.672 165.968 201.95 153.518C203.242 151.574 204.619 149.495 204.622 147.16C202.272 147.44 199.864 147.717 197.561 147.171C195.258 146.625 193.044 145.079 192.381 142.807C191.845 142.924 191.911 143.5 191.448 143.796Z" fill="#29568A"/>
<path d="M227.72 107.552C227.17 108.809 226.531 110.027 225.807 111.192C228.035 106.141 227.952 97.4097 223.88 93.1006C221.74 90.8365 216.947 90.23 214.057 89.3473C210.353 88.217 206.646 87.0731 203.145 85.3953C196.537 82.2283 191.555 75.8674 190.061 68.695C186.557 76.109 180.133 82.0936 172.49 85.0637C171.319 74.8851 175.442 63.6981 183.111 56.9038C182.562 56.0083 181.817 55.5987 181.172 54.7694C180.528 53.9401 180.207 52.6573 180.922 51.8883C181.637 51.1192 183.341 51.9983 182.803 52.9007C183.12 52.0504 183.436 51.2005 183.752 50.3502C184.239 49.0419 184.981 47.5239 186.368 47.3696C187.448 47.2495 188.447 48.1002 188.863 49.1049C189.278 50.1096 189.244 51.2357 189.203 52.3221C189.346 48.5409 197.839 46.7873 200.647 46.5699C224.189 44.7474 235.211 54.5552 239.652 72.4753C240.489 75.8546 239.767 89.5756 239.7 90.862C238.517 90.3086 235.743 89.9058 234.465 90.3565C232.7 90.9789 231.499 93.3605 230.939 94.9908C230.199 97.1458 230.015 99.4455 229.568 101.68C229.166 103.697 228.543 105.669 227.72 107.552Z" fill="#F47E6A"/>
<path d="M219.411 124.785C217.667 129.18 216.597 133.937 213.837 137.776C209.58 143.701 202.206 146.306 196.059 150.235C190.048 154.078 185.003 159.417 181.507 165.636C174.814 177.54 174.573 193.763 183.654 203.963C187.156 207.896 191.732 210.693 195.679 214.179C199.603 217.642 202.768 221.984 203.259 227.322C205.242 224.138 203.557 220.397 205.442 216.931C205.81 216.256 206.266 215.576 206.962 215.25C208.303 214.622 209.948 215.65 210.526 217.014C211.104 218.377 210.914 219.928 210.714 221.395C215.622 219.683 218.641 213.815 217.181 208.826C221.403 209 225.429 205.42 225.75 201.207C225.954 198.527 224.866 195.707 225.87 193.214C226.954 190.523 229.989 189.314 232.553 187.955C241.598 183.157 247.385 173.379 248.831 163.244C250.277 153.108 247.775 142.708 243.36 133.47C241.556 129.697 239.52 125.979 238.346 121.945C237.179 117.934 237.436 113.738 238.096 109.657C235.742 111.554 232.958 112.914 230.014 113.604C224.849 114.815 221.259 120.127 219.411 124.785Z" fill="#F47E6A"/>
<g opacity="0.1">
<path opacity="0.1" d="M248.83 163.242C247.385 173.377 241.597 183.155 232.551 187.954C229.991 189.314 226.954 190.524 225.87 193.215C224.866 195.705 225.955 198.526 225.749 201.207C225.428 205.418 221.402 209.002 217.18 208.826C218.641 213.816 215.624 219.684 210.715 221.396C210.825 220.573 210.936 219.72 210.906 218.886C211.257 217.33 211.206 215.659 210.855 213.379C210.002 207.823 208.601 202.12 209.936 196.658C211.894 188.687 219.118 183.255 223.35 176.217C229.013 166.793 230.521 152.115 227.352 141.593C226.394 138.412 224.635 135.542 223.241 132.527C221.848 129.51 220.801 126.16 221.405 122.893C221.963 119.878 223.91 117.235 226.37 115.404C228.402 113.891 230.616 113.297 232.875 112.29C234.55 111.544 235.947 110.299 237.895 110.615C237.7 114.475 237.24 118.136 238.344 121.942C239.519 125.978 241.557 129.693 243.359 133.468C247.776 142.706 250.276 153.107 248.83 163.242Z" fill="#454546"/>
</g>
<path d="M48.6523 195.666C48.6131 195.666 48.5742 195.664 48.5345 195.659C48.034 195.594 47.6805 195.137 47.7449 194.637L48.9898 184.959C49.4647 181.268 49.9557 177.453 51.4955 173.913C53.2551 169.868 56.2376 166.909 59.679 165.794C60.158 165.639 60.6745 165.901 60.8293 166.381C60.9851 166.861 60.722 167.376 60.2421 167.532C57.2989 168.486 54.7214 171.077 53.171 174.641C51.7344 177.944 51.2604 181.628 50.8019 185.192L49.557 194.87C49.4972 195.33 49.1044 195.666 48.6523 195.666Z" fill="#29568A"/>
<path d="M53.8141 234.921C53.3108 234.921 52.9026 234.514 52.9007 234.011C52.8436 219.282 52.7578 197.023 57.6597 182.427C57.8204 181.949 58.3378 181.692 58.8159 181.853C59.2941 182.013 59.5516 182.531 59.3909 183.009C54.5858 197.318 54.6708 219.395 54.7274 234.004C54.7292 234.508 54.3219 234.919 53.8177 234.921C53.8163 234.921 53.8154 234.921 53.8141 234.921Z" fill="#29568A"/>
<path d="M62.5382 218.929C62.0368 218.929 61.6285 218.525 61.6249 218.023C61.5701 210.575 61.6066 197.305 62.4702 192.12C63.526 185.781 65.7216 180.523 68.9959 176.492C69.3147 176.1 69.8901 176.042 70.2805 176.359C70.6719 176.677 70.7317 177.252 70.4139 177.643C67.341 181.425 65.2746 186.397 64.2717 192.419C63.431 197.469 63.3968 210.619 63.4516 218.009C63.4552 218.513 63.0492 218.925 62.5451 218.929C62.5428 218.929 62.5405 218.929 62.5382 218.929Z" fill="#29568A"/>
<path d="M71.6049 251.815C71.1766 251.815 70.7948 251.513 70.7094 251.077C67.6465 235.408 67.2177 211.292 69.712 194.982C69.7878 194.483 70.2541 194.136 70.7528 194.217C71.2514 194.294 71.5935 194.76 71.5172 195.258C69.0508 211.389 69.4736 235.235 72.5018 250.727C72.5986 251.222 72.2758 251.702 71.7807 251.799C71.7218 251.81 71.6629 251.815 71.6049 251.815Z" fill="#29568A"/>
<path d="M59.4415 244.019C58.9963 244.019 58.6063 243.693 58.5392 243.239C57.6994 237.547 57.4254 226.807 57.5984 221.613C57.6153 221.108 58.0473 220.708 58.5414 220.73C59.0456 220.747 59.4411 221.169 59.4242 221.673C59.2306 227.467 59.584 237.807 60.3462 242.972C60.4197 243.471 60.0749 243.935 59.5758 244.009C59.531 244.016 59.4858 244.019 59.4415 244.019Z" fill="#29568A"/>
<path d="M48.4711 213.423C47.9669 213.423 47.5577 213.013 47.5577 212.509V206.115C47.5577 205.611 47.9669 205.202 48.4711 205.202C48.9752 205.202 49.3844 205.611 49.3844 206.115V212.509C49.3844 213.014 48.9757 213.423 48.4711 213.423Z" fill="#29568A"/>
<path d="M64.0534 161.01C63.6753 161.01 63.3214 160.773 63.1903 160.395C63.1451 160.265 62.9492 160.155 62.8122 160.18C62.3176 160.281 61.834 159.965 61.7326 159.471C61.6299 158.977 61.9473 158.493 62.4414 158.392C63.4798 158.176 64.5681 158.793 64.9165 159.796C65.0818 160.273 64.8298 160.793 64.353 160.958C64.2539 160.993 64.153 161.01 64.0534 161.01Z" fill="#29568A"/>
<path d="M69.3677 162.15C69.0439 162.15 68.7302 161.978 68.5644 161.674C68.4379 161.441 68.1379 161.281 67.878 161.307C67.367 161.35 66.9318 160.981 66.8857 160.479C66.84 159.977 67.2108 159.533 67.7132 159.488C68.7115 159.399 69.6928 159.926 70.1687 160.801C70.4098 161.243 70.2463 161.798 69.8029 162.039C69.6645 162.115 69.5152 162.15 69.3677 162.15Z" fill="#29568A"/>
<path d="M67.4698 165.731C67.1364 165.731 66.8145 165.548 66.6542 165.23C66.556 165.036 66.3053 164.896 66.0929 164.913C65.5847 164.939 65.1513 164.571 65.1147 164.068C65.0782 163.565 65.4559 163.127 65.9591 163.09C66.9172 163.023 67.8515 163.548 68.284 164.405C68.5119 164.855 68.3315 165.404 67.8817 165.632C67.7488 165.699 67.6081 165.731 67.4698 165.731Z" fill="#29568A"/>
<path d="M229.497 112.39C230.194 112.76 231 112.642 231.723 112.346C232.457 112.064 233.152 111.644 233.817 111.184C235.15 110.253 236.41 109.199 237.675 108.108L238.62 107.33C238.906 107.069 239.18 106.796 239.431 106.499C239.938 105.909 240.36 105.245 240.736 104.552C241.469 103.157 241.948 101.599 242.219 100.023C242.477 98.4471 242.476 96.815 242.106 95.2792C241.742 93.7535 240.95 92.3072 239.713 91.3724C238.504 90.465 236.784 90.2445 235.272 90.6536C234.515 90.861 233.796 91.2263 233.231 91.7597C232.663 92.2894 232.291 93.0178 232.224 93.8042L231.812 93.7781C231.806 92.8918 232.163 91.9871 232.774 91.3099C233.376 90.6189 234.187 90.1463 235.041 89.8595C235.898 89.569 236.815 89.4635 237.731 89.5444C238.645 89.627 239.571 89.9097 240.379 90.4472C241.948 91.4966 242.992 93.1689 243.502 94.9134C244.021 96.6666 244.111 98.4914 243.917 100.271C243.728 102.049 243.232 103.782 242.418 105.432C242.011 106.257 241.463 107.019 240.846 107.727C240.535 108.08 240.194 108.409 239.837 108.72C239.661 108.863 239.452 109.037 239.3 109.151L238.816 109.522C237.49 110.513 236.104 111.547 234.53 112.33C233.744 112.723 232.906 113.06 231.995 113.228C231.537 113.298 231.058 113.323 230.585 113.241C230.35 113.197 230.115 113.139 229.901 113.029C229.686 112.924 229.5 112.772 229.338 112.616L229.497 112.39Z" fill="#13355A"/>
<path d="M227.899 122.781C228.127 119.715 228.149 116.643 227.97 113.598C227.922 112.837 227.837 112.08 227.763 111.322C227.646 110.571 227.575 109.812 227.419 109.07L227.211 107.952C227.147 107.578 227.039 107.215 226.955 106.846C226.86 106.48 226.789 106.108 226.674 105.748L226.338 104.668C225.436 101.789 223.907 99.15 221.937 96.931C219.952 94.7043 217.343 93.137 214.587 91.8903C211.827 90.6304 208.899 89.6732 206.047 88.4265C204.617 87.81 203.224 87.0889 201.865 86.3245C200.522 85.5285 199.207 84.6855 197.958 83.7502C192.952 80.0293 188.803 75.1718 185.965 69.6342L186.737 69.521C185.93 73.5118 184.337 77.3437 182.015 80.681C179.699 84.0128 176.607 86.8446 172.956 88.6347L172.771 88.2658C174.526 87.3259 176.139 86.1395 177.571 84.775C179.001 83.4059 180.266 81.8747 181.353 80.228C183.521 76.9286 184.964 73.1734 185.637 69.3091L185.982 67.334L186.958 69.1154C189.864 74.4169 193.998 79.0055 198.887 82.4812C200.109 83.3534 201.39 84.1334 202.694 84.8677C204.017 85.5714 205.353 86.2267 206.749 86.7916C209.536 87.9333 212.466 88.9042 215.363 90.1856C216.812 90.8222 218.234 91.5825 219.585 92.4872C220.261 92.9388 220.912 93.4357 221.54 93.9659C221.852 94.2307 222.136 94.5294 222.435 94.8103C222.722 95.1034 223.045 95.3628 223.297 95.688C223.823 96.3159 224.381 96.921 224.822 97.611C225.051 97.9485 225.298 98.2764 225.502 98.6284L226.093 99.6957C226.189 99.8747 226.295 100.049 226.382 100.232L226.631 100.785L227.126 101.892L227.535 103.027C227.675 103.404 227.807 103.783 227.901 104.172L228.212 105.33C228.318 105.715 228.378 106.109 228.463 106.497C228.636 107.274 228.75 108.057 228.849 108.841C228.959 109.625 228.981 110.414 229.051 111.196C229.076 111.981 229.111 112.765 229.108 113.546C229.097 115.11 229.053 116.669 228.858 118.213C228.7 119.758 228.471 121.292 228.173 122.81L227.899 122.781Z" fill="#13355A"/>
<path d="M55.2891 83.89C55.0334 83.89 54.7799 83.7836 54.5991 83.5758C54.268 83.1954 54.3087 82.6182 54.6895 82.2876C58.036 79.3804 61.3285 76.3208 64.4754 73.1935C64.8334 72.8378 65.4111 72.8391 65.7673 73.1976C66.1226 73.5557 66.1208 74.1338 65.7632 74.4891C62.5871 77.6451 59.2648 80.7326 55.8873 83.6667C55.7143 83.8165 55.5015 83.89 55.2891 83.89Z" fill="#F37059"/>
<path d="M60.006 89.1767C59.6338 89.1767 59.284 88.9475 59.1484 88.5771C58.9749 88.1031 59.2183 87.5789 59.6918 87.4058L64.7846 85.5421C65.259 85.369 65.7833 85.612 65.9559 86.086C66.1295 86.5596 65.886 87.0843 65.4125 87.2574L60.3197 89.1206C60.2165 89.1585 60.1101 89.1767 60.006 89.1767Z" fill="#F37059"/>
<path d="M51.881 79.274C51.744 79.274 51.6052 79.243 51.4737 79.1777C51.0225 78.9521 50.8389 78.4036 51.0645 77.9524C52.2249 75.628 53.1099 73.1666 53.6963 70.6357C53.81 70.1444 54.2995 69.8379 54.7918 69.9521C55.2832 70.0658 55.5892 70.5563 55.4754 71.0476C54.8571 73.7182 53.9232 76.3157 52.6985 78.7685C52.5391 79.0886 52.2162 79.274 51.881 79.274Z" fill="#F37059"/>
<path d="M82.0128 152.261C86.1538 146.583 90.9205 141.365 96.0438 136.538C98.6263 134.145 101.311 131.864 104.073 129.68C104.76 129.13 105.459 128.595 106.159 128.061C106.513 127.795 106.841 127.527 107.252 127.254C107.655 126.99 108.162 126.731 108.745 126.677C109.317 126.623 109.834 126.746 110.286 126.887C110.739 127.032 111.135 127.207 111.559 127.369C112.392 127.705 113.201 128.092 113.995 128.506C117.166 130.183 119.972 132.477 122.345 135.127C124.723 137.78 126.64 140.821 128.106 144.042C129.576 147.266 130.615 150.667 131.304 154.123C131.477 154.988 131.624 155.857 131.756 156.728L131.935 158.037C132.001 158.489 131.983 159.009 131.777 159.462C131.581 159.919 131.242 160.283 130.877 160.565C130.509 160.847 130.114 161.078 129.707 161.265C128.896 161.652 128.053 161.928 127.208 162.18L127.088 161.785C127.911 161.505 128.728 161.2 129.481 160.803C130.223 160.413 130.95 159.903 131.208 159.223C131.342 158.885 131.346 158.524 131.272 158.125L131.045 156.84C130.888 155.984 130.717 155.132 130.52 154.287C129.736 150.905 128.613 147.607 127.088 144.519C125.567 141.429 123.616 138.572 121.28 136.094C118.943 133.619 116.218 131.517 113.204 130.025C112.449 129.658 111.683 129.316 110.899 129.024C110.513 128.888 110.095 128.72 109.742 128.62C109.392 128.513 109.105 128.471 108.922 128.497C108.757 128.514 108.547 128.6 108.259 128.794C107.983 128.978 107.619 129.273 107.28 129.535C106.593 130.068 105.908 130.601 105.235 131.15C103.885 132.242 102.526 133.324 101.198 134.444C99.8725 135.566 98.5637 136.709 97.2764 137.876C94.677 140.184 92.1535 142.577 89.6409 144.996C88.386 146.207 87.1466 147.437 85.9319 148.694C85.303 149.303 84.6929 149.931 84.0764 150.554L83.1613 151.499L82.2288 152.433L82.0128 152.261Z" fill="#13355A"/>
<path d="M167.52 197.266L164.096 200.095L160.628 202.867C159.472 203.8 158.258 204.681 156.97 205.476C155.676 206.257 154.293 206.954 152.774 207.345C152.018 207.543 151.23 207.653 150.437 207.653C150.041 207.671 149.645 207.625 149.249 207.593C148.865 207.535 148.489 207.459 148.109 207.392L147.541 207.287L146.986 207.124C146.618 207.009 146.242 206.917 145.882 206.782L144.813 206.341C144.45 206.208 144.127 205.994 143.783 205.823C143.441 205.645 143.102 205.464 142.789 205.243C142.47 205.03 142.143 204.829 141.833 204.606C141.229 204.139 140.618 203.68 140.067 203.158C138.93 202.148 137.925 201.016 136.98 199.856C135.073 197.542 133.437 195.065 131.648 192.738C129.834 190.414 128.032 188.058 126.175 185.772C124.304 183.496 122.368 181.27 120.221 179.263C118.092 177.238 115.734 175.455 113.176 174.009L113.372 173.646C116.028 174.992 118.537 176.676 120.766 178.669C123.026 180.633 125.07 182.819 127.042 185.048C129.001 187.296 130.888 189.558 132.785 191.851C134.684 194.173 136.392 196.588 138.298 198.757C138.765 199.311 139.263 199.823 139.752 200.344L140.515 201.084C140.763 201.34 141.026 201.571 141.292 201.799C141.808 202.279 142.369 202.687 142.92 203.107C143.202 203.306 143.498 203.48 143.785 203.669C144.068 203.865 144.371 204.022 144.675 204.175C145.27 204.512 145.901 204.753 146.523 205.02C146.839 205.142 147.169 205.222 147.49 205.326L147.975 205.476L148.475 205.57C148.807 205.631 149.145 205.703 149.473 205.757C149.788 205.782 150.101 205.826 150.42 205.812C150.737 205.826 151.058 205.781 151.378 205.759C151.698 205.703 152.018 205.664 152.339 205.582C153.63 205.312 154.896 204.732 156.138 204.068C157.387 203.403 158.585 202.589 159.824 201.795L163.541 199.358C164.812 198.588 166.054 197.778 167.354 197.046L167.52 197.266Z" fill="#13355A"/>
<path d="M153.987 174.689C153.677 175.159 153.285 175.587 152.851 175.923C152.425 176.281 151.961 176.574 151.49 176.844C150.536 177.369 149.546 177.808 148.524 178.151C147.506 178.502 146.479 178.821 145.439 179.094C144.4 179.366 143.355 179.628 142.275 179.743L142.196 179.338C143.174 178.906 144.123 178.438 145.078 177.995C146.03 177.544 146.968 177.065 147.883 176.56C148.791 176.035 149.714 175.586 150.666 175.222C150.908 175.135 151.146 175.046 151.391 174.972C151.645 174.908 151.883 174.821 152.142 174.768C152.664 174.648 153.162 174.548 153.801 174.485L153.987 174.689Z" fill="#13355A"/>
<path d="M106.439 164.425C106.765 163.515 106.817 162.534 106.681 161.589C106.55 160.638 106.22 159.725 105.829 158.849C105.035 157.091 103.855 155.503 102.889 153.724C101.91 151.943 101.321 149.894 101.219 147.836C101.11 145.774 101.481 143.679 102.325 141.78L102.49 141.408L102.896 141.408L104.752 141.406L105.216 141.406H105.246L105.345 141.415C105.413 141.424 105.48 141.44 105.544 141.46C105.644 141.499 105.715 141.543 105.796 141.593C105.906 141.679 106.005 141.771 106.069 141.847C106.344 142.168 106.495 142.454 106.656 142.747C107.258 143.907 107.694 145.065 108.152 146.224L108.826 147.945C108.94 148.227 109.056 148.508 109.177 148.764C109.233 148.882 109.306 149.025 109.335 149.058L109.607 149.388C110.348 150.261 111.308 150.959 112.324 151.605C113.342 152.255 114.436 152.834 115.508 153.504C116.59 154.152 117.625 154.976 118.528 155.852C120.36 157.617 121.84 159.643 123.394 161.54C124.931 163.461 126.658 165.149 128.682 166.522C130.689 167.909 132.88 169.045 135.087 170.153C137.296 171.262 139.536 172.351 141.655 173.672C143.768 174.989 145.768 176.569 147.3 178.566L146.974 178.819C145.403 176.938 143.403 175.488 141.283 174.282C139.169 173.053 136.921 172.045 134.672 171.003C132.424 169.959 130.159 168.877 128.023 167.497C125.881 166.143 123.927 164.353 122.316 162.439C120.678 160.538 119.175 158.604 117.428 157.013C116.541 156.205 115.663 155.542 114.622 154.952C113.599 154.349 112.485 153.796 111.374 153.129C110.264 152.471 109.144 151.661 108.206 150.586L107.863 150.175C107.645 149.875 107.597 149.734 107.503 149.557C107.348 149.232 107.224 148.937 107.101 148.641L106.404 146.904C105.939 145.776 105.512 144.605 105.006 143.626C104.889 143.395 104.735 143.149 104.676 143.085C104.656 143.058 104.676 143.089 104.718 143.111C104.776 143.156 104.819 143.177 104.911 143.21C104.981 143.237 105.058 143.256 105.135 143.263C105.172 143.267 105.213 143.267 105.246 143.265H105.217L104.753 143.262L102.897 143.252L104.009 142.527C103.643 143.342 103.377 144.203 103.197 145.083C103.011 145.962 102.917 146.866 102.934 147.77C102.955 148.674 103.067 149.577 103.267 150.463C103.467 151.351 103.783 152.2 104.184 153.06C104.946 154.794 106.027 156.511 106.74 158.465C107.091 159.441 107.303 160.477 107.334 161.521C107.348 162.043 107.312 162.566 107.212 163.076C107.107 163.586 106.929 164.077 106.694 164.529L106.439 164.425Z" fill="#13355A"/>
<path d="M202.737 116.839C203.206 117.968 203.275 119.268 202.966 120.469C202.676 121.681 202.037 122.792 201.195 123.715C200.353 124.653 199.267 125.344 198.13 125.84C196.977 126.314 195.758 126.598 194.537 126.73C192.088 126.996 189.642 126.767 187.271 126.228C184.899 125.684 182.606 124.807 180.477 123.627L181.357 123.328C180.018 126.507 180.693 130.354 182.701 133.215C183.709 134.649 185.04 135.863 186.591 136.666C187.36 137.083 188.197 137.345 189.046 137.54C189.931 137.695 190.833 137.863 191.735 137.954C195.341 138.411 199.019 138.293 202.59 137.588C206.162 136.881 209.607 135.53 212.745 133.653C212.842 133.595 212.969 133.627 213.028 133.725C213.084 133.82 213.056 133.942 212.965 134.002L212.96 134.005C211.416 135.026 209.784 135.926 208.081 136.681C206.376 137.436 204.591 138.01 202.773 138.444C199.132 139.299 195.336 139.556 191.598 139.217C190.657 139.153 189.739 139.017 188.795 138.885C187.809 138.696 186.834 138.414 185.937 137.964C184.128 137.091 182.575 135.751 181.382 134.153C180.183 132.556 179.368 130.668 179.011 128.668C178.654 126.669 178.847 124.525 179.647 122.59C179.904 121.968 180.617 121.673 181.238 121.93C181.273 121.944 181.308 121.96 181.341 121.978L181.382 122C183.374 123.055 185.482 123.909 187.685 124.426C188.784 124.687 189.903 124.863 191.026 124.984C192.151 125.106 193.273 125.152 194.375 125.069C195.478 125.011 196.562 124.82 197.58 124.468C198.599 124.118 199.573 123.635 200.356 122.908C201.158 122.19 201.781 121.265 202.206 120.249C202.63 119.226 202.727 118.074 202.478 116.937L202.475 116.922C202.459 116.847 202.506 116.774 202.581 116.757C202.647 116.743 202.712 116.778 202.737 116.839Z" fill="#13355A"/>
<path d="M180.734 95.634C180.992 96.5985 180.991 97.6237 180.88 98.6151C180.744 99.6056 180.49 100.568 180.22 101.509C179.957 102.453 179.632 103.364 179.385 104.278C179.149 105.183 178.94 106.145 178.757 107.077C178.363 108.948 178.103 110.836 178.12 112.708C178.118 112.825 178.125 112.941 178.126 113.058L178.131 113.233C178.132 113.257 178.131 113.303 178.135 113.308C178.142 113.275 178.139 113.24 178.128 113.209C178.124 113.195 178.113 113.175 178.109 113.17L178.127 113.199L178.163 113.257C178.19 113.297 178.205 113.332 178.241 113.378L178.434 113.643C178.718 113.997 179.018 114.35 179.348 114.679C180.002 115.341 180.704 115.967 181.458 116.522C182.974 117.616 184.663 118.5 186.479 118.948C188.274 119.402 190.225 119.475 192.141 119.506C194.061 119.516 195.99 119.413 197.887 119.129C198.833 118.983 199.775 118.795 200.671 118.502C201.116 118.353 201.555 118.173 201.921 117.922C202.296 117.675 202.546 117.326 202.415 116.96C202.377 116.853 202.433 116.735 202.54 116.696C202.642 116.66 202.754 116.709 202.797 116.806L202.801 116.815C202.921 117.085 202.912 117.437 202.773 117.705C202.642 117.975 202.441 118.182 202.233 118.346C201.814 118.681 201.353 118.906 200.889 119.104C199.958 119.5 198.992 119.745 198.024 119.945C196.085 120.341 194.122 120.551 192.151 120.645C191.164 120.69 190.175 120.702 189.183 120.677C188.688 120.667 188.194 120.645 187.672 120.585C187.416 120.556 187.156 120.539 186.9 120.498L186.138 120.35C184.099 119.941 182.187 119.051 180.461 117.919C179.605 117.338 178.784 116.703 178.042 115.967C177.666 115.606 177.312 115.212 176.963 114.793L176.702 114.448C176.661 114.398 176.606 114.306 176.56 114.236L176.488 114.122L176.453 114.065C176.426 114.015 176.391 113.936 176.365 113.869C176.311 113.728 176.273 113.577 176.254 113.432C176.246 113.356 176.249 113.355 176.246 113.313L176.237 113.118C176.232 112.988 176.223 112.858 176.222 112.728C176.189 110.649 176.538 108.63 176.982 106.69C177.106 106.207 177.236 105.727 177.372 105.252C177.51 104.781 177.638 104.305 177.817 103.812C178.17 102.855 178.547 101.952 178.942 101.077C179.684 99.3193 180.445 97.6246 180.463 95.6828V95.6678C180.464 95.5915 180.526 95.5299 180.603 95.5308C180.665 95.5317 180.719 95.5751 180.734 95.634Z" fill="#13355A"/>
<path d="M187.162 88.23C187.807 91.0595 188.179 94.0013 187.784 96.9907C187.562 98.4748 187.133 99.9147 186.628 101.286C186.115 102.657 185.566 103.992 185.016 105.327L184.206 107.332C183.939 108.004 183.665 108.671 183.452 109.328C183.011 110.634 182.868 112.019 183.573 113.135C184.239 114.251 185.561 114.888 186.904 115.224C188.266 115.56 189.703 115.666 191.135 115.662L191.151 116.075C189.701 116.221 188.214 116.304 186.718 116.04C185.972 115.909 185.219 115.707 184.495 115.355C183.775 115.006 183.09 114.471 182.596 113.756C182.099 113.049 181.82 112.182 181.779 111.326C181.73 110.471 181.878 109.66 182.07 108.912C182.267 108.156 182.503 107.465 182.726 106.777L183.415 104.707C183.864 103.326 184.389 101.973 184.843 100.638C184.948 100.302 185.064 99.9741 185.187 99.6462L185.509 98.6648C185.597 98.3378 185.698 98.0113 185.777 97.6834C185.846 97.3546 185.933 97.0277 185.989 96.6961C186.269 95.3805 186.392 94.0123 186.512 92.5994C186.625 91.186 186.682 89.7383 186.886 88.2624L187.162 88.23Z" fill="#13355A"/>
<path d="M183.711 94.6093C183.302 94.6491 182.904 94.6418 182.502 94.6792C182.103 94.6883 181.704 94.7066 181.304 94.7276C180.505 94.7715 179.704 94.7865 178.879 94.7646C178.058 94.718 177.199 94.6523 176.334 94.3463C175.903 94.2002 175.487 93.9581 175.105 93.6755C174.933 93.512 174.733 93.3699 174.595 93.1772L174.374 92.9009C174.301 92.8114 174.23 92.6772 174.164 92.5648C173.919 92.0726 173.874 91.5277 173.935 91.0556C173.999 90.5806 174.148 90.1536 174.323 89.7554C174.679 88.9595 175.158 88.274 175.659 87.6201C176.672 86.3213 177.813 85.1627 179.017 84.0854L179.312 84.3745C178.346 85.671 177.402 86.9693 176.601 88.2932C176.208 88.9544 175.86 89.6399 175.659 90.3002C175.56 90.6272 175.502 90.9482 175.507 91.2117C175.515 91.4771 175.59 91.6492 175.676 91.752L175.917 91.9762C175.962 92.0269 176.016 92.0662 176.072 92.0995L176.227 92.2164C176.458 92.3411 176.683 92.4685 176.973 92.5525C177.535 92.7361 178.243 92.853 179 92.9489C179.758 93.0617 180.567 93.1626 181.375 93.3772C182.183 93.5814 182.997 93.8631 183.749 94.334L183.711 94.6093Z" fill="#13355A"/>
<path d="M196.327 88.4515C196.3 89.0662 196.23 89.6731 196.183 90.2841L195.968 92.103C195.905 92.7108 195.795 93.31 195.707 93.9132L195.427 95.7198L195.135 95.0677C196.645 95.9413 198.293 96.5633 199.993 96.9761C201.694 97.3876 203.461 97.5652 205.225 97.4807C206.987 97.399 208.747 97.0761 210.426 96.4939L211.668 96.0107L212.871 95.4321L214.034 94.7713L215.143 94.0169L215.402 94.3384L214.361 95.2545L213.239 96.0847L212.039 96.8071L210.78 97.4373C209.061 98.1968 207.214 98.6882 205.325 98.9179C203.436 99.1403 201.495 99.1179 199.592 98.7649L198.179 98.4274C197.717 98.2794 197.252 98.136 196.796 97.9666C196.353 97.7661 195.904 97.5766 195.467 97.3634L194.202 96.6318L193.429 96.1852L193.639 95.3769C193.792 94.7864 193.931 94.1927 194.096 93.6045C194.275 93.0186 194.429 92.4282 194.637 91.8482C194.826 91.2641 195.046 90.6864 195.271 90.1097C195.513 89.5361 195.751 88.9616 196.056 88.3999L196.327 88.4515Z" fill="#13355A"/>
<path d="M198.379 81.3555C198.748 81.182 199.133 81.0495 199.515 80.8947L200.7 80.576C201.1 80.4878 201.506 80.4326 201.912 80.3645C202.32 80.3257 202.729 80.301 203.14 80.2695L204.372 80.2832C204.781 80.3157 205.192 80.3339 205.601 80.3796L206.818 80.575C207.219 80.6591 207.617 80.7627 208.015 80.8568C209.598 81.2856 211.127 81.8953 212.55 82.6862C213.973 83.4744 215.309 84.4229 216.456 85.5609L216.185 85.8724C214.852 85.0043 213.454 84.3014 212.03 83.7201C210.601 83.1465 209.117 82.7483 207.621 82.5278C206.121 82.3232 204.642 82.1921 203.145 82.0884C202.771 82.0619 202.396 82.0515 202.017 82.0104C201.638 81.983 201.258 81.9752 200.868 81.9172C200.484 81.9026 200.09 81.8555 199.688 81.8048C199.288 81.7633 198.881 81.7249 198.448 81.6245L198.379 81.3555Z" fill="#13355A"/>
<path d="M183.127 78.8365C181.989 78.9456 180.922 78.9844 179.855 79.0826L179.058 79.1539C178.793 79.1881 178.531 79.2365 178.265 79.258L177.473 79.3772C177.213 79.4343 176.948 79.4735 176.684 79.5224C175.634 79.7366 174.602 80.0645 173.606 80.4905C172.61 80.9189 171.666 81.4678 170.754 82.0834L170.491 81.7651C171.218 80.8732 172.102 80.0905 173.087 79.4562C174.07 78.8168 175.135 78.2812 176.257 77.8601C177.374 77.4226 178.582 77.2048 179.785 77.2646C180.086 77.2888 180.386 77.3171 180.682 77.371C180.979 77.4473 181.274 77.503 181.561 77.6103C181.849 77.714 182.13 77.8501 182.403 77.9903C182.672 78.162 182.936 78.3309 183.178 78.5643L183.127 78.8365Z" fill="#13355A"/>
<path d="M237.845 109.989C238.078 112.114 238.359 114.23 238.823 116.313C239.226 118.406 239.766 120.47 240.337 122.523C241.519 126.621 242.889 130.667 244.315 134.706C245.695 138.761 247.083 142.83 248.226 146.987C249.395 151.135 250.2 155.426 250.436 159.751C250.681 164.072 250.424 168.447 249.418 172.68C248.407 176.898 246.588 180.988 243.778 184.337C242.391 186.017 240.756 187.495 238.982 188.737C237.215 189.987 235.361 191.07 233.604 192.269C231.845 193.46 230.187 194.803 228.886 196.466C228.24 197.295 227.674 198.19 227.265 199.154C226.859 200.119 226.606 201.147 226.555 202.191C226.55 202.304 226.453 202.392 226.339 202.386C226.228 202.381 226.141 202.287 226.143 202.176C226.16 201.077 226.392 199.983 226.786 198.956C227.184 197.928 227.746 196.971 228.393 196.085C229.686 194.304 231.386 192.859 233.144 191.607C234.903 190.342 236.727 189.213 238.416 187.952C240.107 186.701 241.619 185.26 242.904 183.621C245.504 180.364 247.123 176.419 248.013 172.353C248.892 168.27 249.051 164.04 248.723 159.86C248.376 155.671 247.595 151.547 246.418 147.483C245.287 143.404 243.947 139.356 242.594 135.291C241.281 131.212 239.975 127.094 239.041 122.868C238.597 120.749 238.171 118.626 237.914 116.475C237.658 114.326 237.538 112.16 237.569 110.006V110.003C237.569 109.927 237.632 109.865 237.709 109.866C237.78 109.866 237.837 109.92 237.845 109.989Z" fill="#13355A"/>
<path d="M225.766 116.41C223.376 117.735 221.663 119.952 220.453 122.368C219.188 124.77 218.241 127.346 217.081 129.862C216.494 131.117 215.853 132.364 215.071 133.535L214.454 134.393C214.248 134.678 214.05 134.97 213.81 135.228C213.342 135.751 212.915 136.318 212.398 136.792C210.425 138.795 208.145 140.44 205.806 141.919C201.106 144.844 196.09 147.151 191.867 150.528C187.633 153.86 184.46 158.417 182.412 163.404C181.404 165.907 180.645 168.519 180.203 171.189C179.763 173.857 179.591 176.575 179.693 179.286C179.802 181.997 180.137 184.703 180.701 187.364C181.27 190.024 182.035 192.646 182.986 195.202C184.855 200.33 187.661 205.069 190 210.059C191.158 212.556 192.235 215.118 192.902 217.81C193.579 220.492 193.864 223.3 193.535 226.06C193.521 226.174 193.419 226.254 193.306 226.241C193.194 226.227 193.114 226.128 193.125 226.017L193.125 226.012C193.377 223.302 193.028 220.574 192.299 217.967C192.129 217.312 191.89 216.674 191.689 216.027C191.446 215.392 191.215 214.754 190.958 214.125C190.439 212.868 189.882 211.626 189.272 210.404C188.068 207.955 186.738 205.559 185.453 203.123C184.165 200.69 182.947 198.187 181.929 195.602C179.899 190.434 178.546 184.95 178.253 179.344C178.101 176.545 178.232 173.723 178.645 170.933C179.06 168.144 179.805 165.404 180.821 162.762C181.839 160.121 183.185 157.595 184.837 155.273C186.477 152.946 188.478 150.85 190.699 149.062C192.912 147.263 195.334 145.819 197.732 144.441C200.139 143.072 202.547 141.778 204.849 140.375C207.161 138.995 209.367 137.48 211.26 135.655C211.76 135.222 212.162 134.706 212.614 134.231C212.845 133.996 213.033 133.73 213.231 133.471L213.824 132.691C214.566 131.616 215.242 130.471 215.875 129.28C217.132 126.89 218.204 124.331 219.646 121.922C220.375 120.726 221.207 119.57 222.209 118.57C222.444 118.307 222.714 118.077 222.984 117.849C223.25 117.617 223.514 117.385 223.816 117.198C224.116 117.012 224.387 116.787 224.707 116.638L225.642 116.163C225.71 116.129 225.793 116.156 225.828 116.224C225.861 116.291 225.836 116.372 225.771 116.407L225.766 116.41Z" fill="#13355A"/>
<path d="M194.087 225.41C193.644 224.405 193.637 223.244 193.895 222.176L194.146 221.389C194.256 221.137 194.353 220.878 194.476 220.631L194.895 219.921C195.051 219.695 195.222 219.48 195.385 219.261C196.082 218.417 196.918 217.696 197.859 217.164C198.795 216.63 199.833 216.264 200.894 216.189C201.008 216.182 201.106 216.267 201.115 216.381C201.121 216.472 201.068 216.553 200.988 216.586L200.964 216.596C200.02 216.988 199.204 217.522 198.49 218.134C197.778 218.752 197.195 219.491 196.762 220.286C196.344 221.094 195.989 221.88 195.641 222.688C195.563 222.893 195.481 223.097 195.372 223.302C195.279 223.509 195.206 223.723 195.079 223.938C194.997 224.157 194.88 224.382 194.758 224.619C194.646 224.856 194.536 225.104 194.361 225.377L194.328 225.429C194.287 225.493 194.202 225.511 194.139 225.47C194.114 225.456 194.097 225.434 194.087 225.41Z" fill="#13355A"/>
<path d="M206.178 213.037C206.682 214.193 207.033 215.416 207.295 216.659C207.531 217.907 207.655 219.18 207.665 220.458C207.68 221.737 207.535 223.015 207.301 224.275C207.058 225.534 206.712 226.779 206.229 227.974L205.358 227.179C206.806 226.411 208.143 225.435 209.32 224.295C210.501 223.16 211.538 221.873 212.373 220.459C213.21 219.05 213.865 217.527 214.283 215.937C214.704 214.348 214.893 212.697 214.834 211.051L214.834 211.038C214.824 210.754 215.046 210.515 215.33 210.505C215.358 210.504 215.389 210.506 215.417 210.509C218.854 210.972 222.515 209.861 225.129 207.515C227.74 205.168 229.285 201.631 229.224 198.068C229.222 197.954 229.313 197.861 229.427 197.858C229.536 197.857 229.627 197.94 229.636 198.047L229.637 198.052C229.787 199.891 229.525 201.778 228.871 203.535C228.204 205.285 227.164 206.911 225.8 208.243C223.068 210.902 219.139 212.327 215.241 211.953L216.288 210.98C216.419 212.769 216.28 214.581 215.884 216.339C215.485 218.096 214.848 219.808 213.954 221.383C213.055 222.952 211.952 224.415 210.639 225.67C209.318 226.915 207.823 227.974 206.209 228.802L206.185 228.814C205.595 229.117 204.872 228.884 204.569 228.294C204.4 227.965 204.4 227.589 204.534 227.273C204.996 226.196 205.392 225.083 205.666 223.932C205.972 222.787 206.154 221.61 206.278 220.419L206.348 219.522L206.38 218.619L206.388 217.712L206.354 216.802L206.302 215.886L206.208 214.968C206.12 214.36 206.024 213.747 205.918 213.127L205.916 213.114C205.903 213.039 205.953 212.967 206.029 212.954C206.092 212.944 206.153 212.98 206.178 213.037Z" fill="#13355A"/>
<path d="M239.859 86.4687C239.449 80.1004 238.707 73.7336 236.757 67.7175C235.813 64.7103 234.565 61.7963 232.906 59.1358C231.252 56.4766 229.18 54.0841 226.754 52.1223C224.32 50.1664 221.513 48.6722 218.562 47.5817C215.606 46.4948 212.503 45.7856 209.357 45.4472C206.211 45.1088 203.02 45.1307 199.875 45.5445C196.732 45.9596 193.629 46.772 190.732 48.0767C190.628 48.1233 190.506 48.0771 190.459 47.9735C190.413 47.8726 190.456 47.7538 190.554 47.7045L190.557 47.7027C193.439 46.2573 196.56 45.2627 199.758 44.7462C202.955 44.216 206.22 44.0827 209.464 44.322C212.707 44.5668 215.94 45.1723 219.049 46.2245C222.155 47.2748 225.154 48.7562 227.817 50.7761C230.491 52.7836 232.718 55.3427 234.497 58.1457C236.265 60.9643 237.538 64.0431 238.491 67.1777C239.402 70.3296 239.98 73.5537 240.212 76.7896C240.276 77.5979 240.3 78.408 240.346 79.215C240.377 80.0228 240.387 80.8307 240.396 81.6371C240.349 83.2533 240.305 84.8626 240.134 86.4659L240.133 86.4746C240.124 86.5504 240.056 86.6057 239.981 86.5974C239.914 86.5897 239.863 86.5344 239.859 86.4687Z" fill="#13355A"/>
<path d="M173.824 73.8915C173.138 72.3109 173.042 70.4856 173.381 68.7814C173.679 67.0538 174.464 65.4486 175.38 63.9937C176.298 62.5255 177.429 61.2331 178.55 59.9736C179.109 59.348 179.686 58.7032 180.365 58.1237C181.038 57.5446 181.821 57.0181 182.725 56.7171L182.675 57.8944C181.63 57.43 180.651 56.8272 179.757 56.1226C179.309 55.7705 178.884 55.3905 178.484 54.9859C178.285 54.7868 178.076 54.5681 177.885 54.3027C177.697 54.0392 177.523 53.7155 177.46 53.3401C177.39 52.9665 177.444 52.5715 177.584 52.2391C177.724 51.9039 177.937 51.6235 178.18 51.3947C178.67 50.9412 179.298 50.6581 179.972 50.6206C180.612 50.5878 181.224 50.7385 181.768 50.9503C182.316 51.1636 182.813 51.4372 183.291 51.7038L182.684 52.2893C182.226 51.3148 181.871 50.2494 181.849 49.12C181.842 48.5579 181.917 47.9893 182.123 47.4454C182.331 46.9098 182.648 46.4216 183.061 46.0229C183.471 45.6252 183.987 45.3151 184.562 45.1849C184.852 45.1274 185.141 45.0922 185.447 45.1402C185.745 45.1881 186.034 45.2817 186.284 45.4347C186.789 45.7311 187.185 46.1823 187.407 46.718C187.512 46.9869 187.582 47.2765 187.573 47.5738C187.563 47.8701 187.48 48.1638 187.337 48.4222C187.282 48.5218 187.157 48.5579 187.057 48.5026C186.961 48.4496 186.924 48.3318 186.97 48.2341L186.976 48.2218C187.379 47.376 186.746 46.3677 185.965 46.0142C185.188 45.6366 184.25 45.9745 183.664 46.6298C183.365 46.9545 183.14 47.3532 183.007 47.7687C182.879 48.177 182.842 48.6364 182.875 49.0876C182.945 49.9973 183.295 50.9056 183.759 51.76C183.955 52.1217 183.822 52.5738 183.46 52.7697C183.239 52.8894 182.985 52.8862 182.776 52.7834L182.725 52.7578C181.764 52.2783 180.828 51.8897 180.06 51.9934C179.745 52.0285 179.407 52.2066 179.187 52.4441C178.959 52.6898 178.915 52.9231 178.966 53.0528C178.995 53.2035 179.226 53.4949 179.612 53.8351C179.984 54.1749 180.376 54.4909 180.785 54.7809C181.599 55.3677 182.492 55.8307 183.406 56.2153C184.014 56.471 184.299 57.1706 184.044 57.7784C183.91 58.0963 183.655 58.326 183.355 58.436L183.311 58.452C182.718 58.6671 182.151 59.0534 181.603 59.5485C181.061 60.0485 180.52 60.6308 179.948 61.2413C178.813 62.4506 177.769 63.6859 176.823 64.9545C176.369 65.5998 175.929 66.2528 175.554 66.935C175.189 67.6173 174.853 68.3247 174.607 69.0668C174.098 70.545 173.851 72.1383 174.085 73.801L174.087 73.8161C174.098 73.8919 174.045 73.9618 173.969 73.9723C173.907 73.9823 173.848 73.9472 173.824 73.8915Z" fill="#13355A"/>
<path d="M95.3223 174.885C97.3189 175.434 99.0747 176.547 100.904 177.106C102.723 177.722 104.684 177.892 106.671 177.996C108.659 178.089 110.67 178.029 112.683 177.946C114.696 177.863 116.713 177.713 118.74 177.667L118.77 178.078C116.776 178.448 114.786 178.83 112.768 179.1C110.752 179.379 108.72 179.623 106.638 179.712C105.596 179.769 104.543 179.732 103.472 179.624C102.4 179.506 101.317 179.228 100.29 178.816C99.7876 178.588 99.288 178.358 98.8314 178.076C98.3793 177.786 97.9349 177.505 97.534 177.179C96.7156 176.548 95.9621 175.892 95.205 175.135L95.3223 174.885Z" fill="#13355A"/>
<path d="M79.5431 186.321C80.3729 185.669 80.8433 184.686 81.0684 183.673C81.1835 183.164 81.2447 182.641 81.2716 182.116C81.299 181.589 81.3136 181.063 81.2753 180.528C81.2141 178.393 80.8574 176.279 80.3199 174.225C79.7742 172.171 78.9979 170.181 78.0192 168.301C77.0662 166.408 75.9085 164.617 74.5686 162.975C73.2334 161.329 71.6944 159.851 70.0139 158.567C68.3219 157.305 66.5345 156.122 64.5722 155.462C62.641 154.802 60.4608 154.657 58.7086 155.625C57.8336 156.096 57.0619 156.781 56.5363 157.612C56.2819 158.03 56.0768 158.477 55.9677 158.946C55.864 159.415 55.8453 159.895 55.9092 160.37L54.9612 160.511C54.8256 159.392 55.0347 158.221 55.5197 157.224C55.7553 156.721 56.0449 156.254 56.3609 155.816C56.6737 155.388 56.9852 154.962 57.3665 154.552C57.7405 154.143 58.2122 153.779 58.7136 153.53C59.2146 153.273 59.7402 153.104 60.2617 152.972C61.3052 152.734 62.3592 152.565 63.4242 152.533C65.5495 152.458 67.6826 152.777 69.6764 153.49C71.678 154.181 73.5279 155.282 75.1125 156.674L74.8408 156.985C73.2384 155.699 71.4049 154.717 69.4549 154.14C67.5163 153.533 65.4737 153.293 63.4689 153.435C62.4665 153.498 61.4746 153.695 60.5175 153.948C60.0467 154.084 59.5987 154.249 59.2055 154.469C58.8073 154.689 58.489 154.954 58.1862 155.306C57.8871 155.649 57.5966 156.07 57.3144 156.487C57.0432 156.891 56.8075 157.306 56.6271 157.73C56.2568 158.579 56.1394 159.463 56.2741 160.347L54.6041 160.594C54.4918 159.95 54.4981 159.285 54.6219 158.646C54.7534 158.007 55.0069 157.412 55.3229 156.865C55.9727 155.777 56.9043 154.911 57.9811 154.293C58.52 153.982 59.1068 153.751 59.716 153.579C60.3426 153.414 60.9394 153.351 61.5541 153.324C62.778 153.289 63.9795 153.497 65.1047 153.845C66.2322 154.195 67.2908 154.68 68.2931 155.233C68.7959 155.507 69.2809 155.806 69.744 156.129C70.207 156.454 70.6957 156.744 71.1322 157.105C72.9342 158.467 74.6161 160.011 76.0163 161.788C77.4329 163.548 78.6517 165.46 79.6504 167.48C80.6145 169.515 81.383 171.646 81.8365 173.847C82.3311 176.039 82.4562 178.299 82.3502 180.519C82.327 181.631 82.1598 182.78 81.7662 183.863C81.5703 184.404 81.3132 184.93 80.9729 185.399C80.6378 185.872 80.1916 186.263 79.7039 186.544L79.5431 186.321Z" fill="#13355A"/>
<path d="M102.584 109.136L106.22 105.391L108.061 103.543L108.983 102.62C109.14 102.463 109.291 102.319 109.372 102.197C109.458 102.066 109.463 102.011 109.447 101.938C109.422 101.769 109.094 101.365 108.851 101.047C108.591 100.716 108.321 100.39 108.04 100.072C107.477 99.4372 106.871 98.8299 106.255 98.2211C105.027 97.0018 103.723 95.8044 102.702 94.2367C101.706 92.6772 101.209 90.7857 101.251 88.9453C101.281 87.0972 101.763 85.3244 102.396 83.6635C103.033 81.998 103.829 80.4225 104.639 78.8763L105.868 76.576C106.28 75.8189 106.71 75.0206 107.181 74.279C109.052 71.2746 111.322 68.5661 113.777 66.0636C115.005 64.8118 116.295 63.6231 117.63 62.4883C118.298 61.9221 118.976 61.3672 119.669 60.8302C120.361 60.2931 121.051 59.7638 121.822 59.2839C123.348 58.3359 125.042 57.7102 126.77 57.328C128.501 56.9462 130.271 56.8015 132.03 56.838C135.544 56.927 139.055 57.6815 142.217 59.2291L142.037 59.6008C138.884 58.2052 135.419 57.639 132.021 57.6449C128.633 57.6837 125.182 58.413 122.428 60.2388C121.758 60.684 121.081 61.2334 120.422 61.78C119.76 62.3267 119.114 62.8906 118.477 63.4656C117.207 64.6187 115.98 65.8183 114.812 67.0696C112.482 69.5726 110.35 72.2674 108.647 75.1727C108.437 75.5367 108.222 75.8983 108.035 76.2719C107.841 76.6418 107.647 77.0071 107.449 77.4067C107.058 78.1935 106.653 78.9621 106.259 79.7279C105.472 81.2596 104.723 82.7849 104.147 84.3325C103.583 85.8783 103.137 87.4378 103.11 88.9727C103.067 90.5039 103.451 91.9771 104.248 93.2823C104.294 93.3654 104.333 93.4526 104.385 93.5334L104.557 93.7677L104.9 94.239C105.11 94.5545 105.398 94.8728 105.671 95.1852C106.224 95.8149 106.83 96.4241 107.419 97.0717C108.014 97.716 108.615 98.3768 109.187 99.0833C109.468 99.4404 109.756 99.7966 110.008 100.184C110.139 100.373 110.259 100.574 110.383 100.768C110.506 100.98 110.695 101.257 110.769 101.717C110.805 101.943 110.782 102.216 110.704 102.436C110.628 102.659 110.515 102.833 110.408 102.967C110.186 103.239 109.993 103.379 109.838 103.517L108.846 104.366L106.858 106.06C105.496 107.151 104.169 108.279 102.775 109.336L102.584 109.136Z" fill="#13355A"/>
<path d="M107.594 74.1807C110.029 72.5902 112.607 71.2046 115.302 70.079C118.004 68.9711 120.81 68.1034 123.679 67.5125C126.541 66.9124 129.481 66.5713 132.442 66.6914C135.39 66.8088 138.403 67.4349 141.047 68.9373C143.702 70.4187 145.777 72.8432 147.032 75.5672C148.311 78.2971 148.854 81.3116 148.824 84.29C148.801 85.7814 148.636 87.2715 148.313 88.7301C147.984 90.1805 147.539 91.5985 146.996 92.9748C145.92 95.7372 144.401 98.2836 142.755 100.703C141.927 101.912 141.047 103.08 140.148 104.228C139.7 104.805 139.24 105.37 138.781 105.935L138.08 106.781C137.802 107.103 137.531 107.339 137.251 107.596C136.133 108.58 134.962 109.454 133.764 110.296C132.565 111.136 131.338 111.93 130.088 112.685C125.087 115.696 119.705 118.116 114.043 119.596C111.216 120.34 108.312 120.806 105.388 120.959C103.92 121.006 102.47 121.035 100.987 120.883C99.5168 120.71 98.0728 120.346 96.701 119.792C95.3296 119.239 94.0359 118.477 92.9088 117.511C91.7813 116.546 90.8351 115.37 90.1355 114.066C89.424 112.764 88.982 111.331 88.7194 109.893C88.4518 108.45 88.3344 106.995 88.2234 105.55L88.6349 105.516C88.7806 106.957 88.9327 108.395 89.2286 109.794C89.5195 111.194 89.9775 112.547 90.6826 113.766C92.0668 116.228 94.3779 118.056 96.9983 119.047C98.3076 119.548 99.6908 119.87 101.084 120.007C102.464 120.125 103.923 120.072 105.337 119.999C108.182 119.796 111.006 119.289 113.755 118.509C119.261 116.964 124.487 114.479 129.339 111.458C130.551 110.699 131.739 109.903 132.893 109.067C134.043 108.232 135.177 107.353 136.197 106.425C136.317 106.31 136.452 106.192 136.56 106.078L136.729 105.907L136.864 105.754L137.531 104.921C137.975 104.357 138.42 103.792 138.85 103.22C139.714 102.078 140.556 100.924 141.339 99.7385C142.907 97.3712 144.288 94.8974 145.296 92.3013C145.8 91.0048 146.208 89.6759 146.506 88.3315C146.793 86.998 146.937 85.6312 146.95 84.2662C146.952 81.5427 146.488 78.7922 145.348 76.3554C144.232 73.9136 142.443 71.8298 140.139 70.5132C137.859 69.1378 135.133 68.477 132.362 68.3016C129.581 68.1071 126.748 68.4117 123.933 68.8323C121.119 69.2702 118.344 69.9954 115.64 70.9411C112.916 71.8444 110.299 73.0601 107.74 74.4159L107.594 74.1807Z" fill="#13355A"/>
<path d="M144.718 73.4844C146.97 75.7074 149.011 78.1063 151.062 80.4951C152.065 81.7085 153.071 82.9187 154.059 84.143C155.041 85.3732 156.026 86.6003 156.991 87.8433L162.815 95.2724L165.748 98.9682C166.738 100.187 167.701 101.439 168.736 102.599L168.442 102.889C167.275 101.798 166.176 100.666 165.106 99.5052C164.028 98.3512 162.963 97.1877 161.92 96.0063L155.657 88.9247C154.605 87.7516 153.599 86.5418 152.584 85.339C151.584 84.1242 150.626 82.8757 149.651 81.6409C148.708 80.38 147.78 79.1082 146.918 77.7812C146.05 76.4596 145.219 75.1083 144.503 73.6597L144.718 73.4844Z" fill="#13355A"/>
<path d="M93.3157 102.22C92.3677 101.517 91.5461 100.644 90.8264 99.6953C90.1223 98.734 89.5423 97.6809 89.0733 96.5817C88.1399 94.376 87.7248 91.9717 87.6859 89.5815C87.6823 87.1899 88.0513 84.8171 88.6582 82.5315C89.277 80.2463 90.093 78.0333 91.0347 75.8879C92.8924 71.5847 95.1748 67.4505 97.9788 63.6894C100.776 59.9329 104.096 56.5334 107.954 53.8779L108.195 54.2127C104.586 57.1157 101.47 60.5562 98.9012 64.358C96.3357 68.1629 94.2656 72.2802 92.6189 76.5496C91.8001 78.6891 91.0392 80.8377 90.4944 83.0165C89.9327 85.1879 89.535 87.3868 89.5035 89.5897C89.3898 93.9532 90.5013 98.4422 93.497 102.011L93.3157 102.22Z" fill="#13355A"/>
<path d="M42.5376 132.15C44.2944 133.739 46.0832 135.296 47.8135 136.912C48.6816 137.706 49.5593 138.538 50.4201 139.302C51.2773 140.045 52.229 140.611 53.1989 140.461C53.673 140.4 54.0671 140.178 54.2881 139.827C54.5155 139.477 54.5872 138.991 54.5498 138.468C54.5169 137.943 54.3854 137.396 54.2516 136.822C54.1168 136.255 53.9629 135.693 53.8104 135.132C53.1921 132.887 52.3628 130.7 51.3357 128.611L50.822 127.566L51.9751 127.713C52.8779 127.828 53.6771 128.12 54.431 128.325C55.185 128.539 55.8924 128.646 56.5637 128.52C56.8925 128.461 57.1929 128.344 57.4272 128.169C57.6615 128.003 57.8391 127.751 57.9506 127.493C58.1666 126.965 58.025 126.268 57.7455 125.602C57.4505 124.933 57.019 124.289 56.5285 123.692L54.9375 121.858L51.7266 118.172L51.3878 117.783L51.7477 117.426C52.8765 116.306 53.9511 115.131 54.9672 113.906C55.475 113.294 55.9682 112.669 56.4486 112.034L57.1564 111.073C57.3861 110.747 57.6277 110.422 57.8122 110.11C58.1835 109.476 58.4812 108.739 58.4433 108.092C58.4182 107.447 57.9583 107.045 57.2331 106.992C56.8792 106.957 56.4655 106.965 56.065 106.956L54.8594 106.939L52.4482 106.905L51.86 106.897L52.1235 106.38C53.288 104.093 54.2867 101.72 55.106 99.2843C55.3101 98.6719 55.5142 98.0709 55.6202 97.4608C55.7275 96.8553 55.7344 96.2315 55.5083 95.6954C55.3937 95.4195 55.2421 95.2026 55.011 95.046C54.7836 94.8884 54.5027 94.7921 54.2178 94.7628C53.6483 94.6898 53.03 94.9601 52.966 95.4967L52.5569 95.4433C52.5879 95.0569 52.8496 94.6857 53.1857 94.5016C53.5204 94.3085 53.8976 94.25 54.2607 94.2719C54.6247 94.2952 54.9868 94.4003 55.3087 94.6044C55.6357 94.8021 55.891 95.146 56.0335 95.4689C56.3463 96.1443 56.3536 96.8914 56.2623 97.5645C56.1691 98.2454 55.9823 98.8893 55.7965 99.5076C55.043 102.002 54.1041 104.445 52.9907 106.81L52.4523 105.937L54.8639 105.895L56.0695 105.875C56.4728 105.873 56.8568 105.847 57.3377 105.878C57.5747 105.896 57.8295 105.934 58.0958 106.02C58.3602 106.105 58.6369 106.252 58.8602 106.448C59.3429 106.828 59.5964 107.468 59.6347 108.003C59.6832 108.55 59.5877 109.037 59.453 109.485C59.3155 109.935 59.1306 110.35 58.9118 110.746C58.6812 111.158 58.4511 111.483 58.2273 111.824L57.5313 112.834C57.0596 113.502 56.5696 114.158 56.0636 114.801C55.0516 116.088 53.9766 117.328 52.8427 118.513L52.8816 117.15L56.1892 120.751L57.8592 122.577C58.4415 123.253 58.9753 123.99 59.3927 124.874C59.5959 125.32 59.7658 125.811 59.843 126.366C59.9192 126.915 59.8987 127.554 59.6589 128.16C59.5356 128.456 59.3849 128.743 59.1904 128.987C59.0114 129.243 58.768 129.47 58.5182 129.657C58.0099 130.036 57.4395 130.242 56.9025 130.344C55.8334 130.557 54.7685 130.364 53.9351 130.135C53.0857 129.911 52.3701 129.655 51.7431 129.575L53.019 127.784C54.0844 129.987 54.9407 132.288 55.5741 134.648C55.7325 135.238 55.8618 135.835 55.9873 136.432C56.1015 137.015 56.2422 137.657 56.2677 138.382C56.2919 139.087 56.2056 139.97 55.664 140.754C55.4037 141.133 55.022 141.461 54.6215 141.667C54.2182 141.88 53.7953 141.988 53.3875 142.025C52.9788 142.063 52.5797 142.036 52.1961 141.954C51.8125 141.873 51.4339 141.726 51.1161 141.559C50.4617 141.223 49.952 140.758 49.505 140.315C49.057 139.863 48.6738 139.432 48.2665 138.996L47.0586 137.691L45.8516 136.385L44.6757 135.047C43.8912 134.155 43.1029 133.268 42.3453 132.349L42.5376 132.15Z" fill="#13355A"/>
<path d="M27.2849 102.962C27.3397 102.437 27.1776 101.939 26.9388 101.463C26.6949 100.986 26.4022 100.517 26.1437 99.9841C25.8875 99.4502 25.6903 98.8844 25.5624 98.2994C25.4473 97.7122 25.4026 97.1098 25.4254 96.5075C25.4409 96.2148 25.4491 95.8924 25.5816 95.512C25.7117 95.1242 26.0273 94.7685 26.3638 94.5753C27.0461 94.1657 27.8092 94.1908 28.4453 94.3347C29.097 94.4858 29.6582 94.7808 30.1633 95.0895C30.6707 95.3992 31.1228 95.7293 31.5867 96.0691C33.4239 97.4331 35.0556 99.0214 36.6229 100.628C38.1938 102.235 39.7049 103.873 41.3183 105.397L40.7356 105.422C41.7138 104.414 42.7522 103.467 43.8428 102.587C44.9287 101.701 46.0891 100.912 47.2787 100.181L47.5043 100.527C46.4001 101.36 45.3708 102.279 44.3697 103.212C43.3733 104.153 42.4467 105.158 41.5608 106.189L41.1242 106.698L40.563 106.233C38.8126 104.784 37.1763 103.225 35.5287 101.736C33.8806 100.246 32.2064 98.8411 30.4647 97.5916C30.0227 97.3007 29.5765 96.9637 29.1637 96.6943C28.7513 96.4253 28.3599 96.2244 28.0174 96.1371C27.6681 96.0376 27.3795 96.0832 27.2548 96.1225C27.226 96.1312 27.2132 96.1353 27.2078 96.1307C27.2023 96.1289 27.2041 96.107 27.1868 96.1294C27.1502 96.1636 27.1087 96.37 27.0712 96.618C26.994 97.0884 26.973 97.5743 27.0036 98.0624C27.016 98.5543 27.0995 99.0466 27.2205 99.537C27.3352 100.031 27.5507 100.574 27.6736 101.175C27.8101 101.762 27.837 102.467 27.5539 103.025L27.2849 102.962Z" fill="#13355A"/>
<path d="M27.4406 107.535C26.7757 107.12 26.1122 106.705 25.4103 106.438C24.7093 106.175 23.9631 106.074 23.322 106.31C22.6771 106.523 22.1022 107.04 21.9931 107.614C21.8593 108.179 22.2442 108.759 22.7182 109.381L25.4665 113.209L26.8387 115.124L27.5196 116.085C27.7302 116.407 28.001 116.702 28.2092 117.229C28.3074 117.485 28.3581 117.825 28.2987 118.135C28.2435 118.443 28.1192 118.69 27.9987 118.894C27.8745 119.101 27.7544 119.263 27.6448 119.422L27.3073 119.904L25.9578 121.835L23.2325 125.678C22.7607 126.329 22.3401 126.907 22.3671 127.392C22.3671 127.878 22.7653 128.419 23.322 128.71C23.5996 128.863 23.8905 128.953 24.207 128.979C24.534 129.011 24.8746 128.983 25.219 128.92C25.9108 128.791 26.6109 128.507 27.3288 128.203L28.5992 127.667L28.0686 128.929C27.1223 131.179 26.4077 133.529 25.9446 135.931C25.7099 137.132 25.54 138.346 25.4345 139.565C25.3715 140.169 25.3669 140.743 25.4765 141.293C25.5838 141.835 25.8295 142.316 26.2323 142.508C26.4383 142.611 26.6675 142.637 26.905 142.607C27.1438 142.566 27.3927 142.469 27.6329 142.327C28.1183 142.046 28.5563 141.631 29.0253 141.216L31.8055 138.744L37.3873 133.822L37.6649 134.127C35.8876 135.859 34.1322 137.615 32.337 139.327L29.6495 141.902C29.2084 142.318 28.7536 142.797 28.1439 143.183C27.8407 143.374 27.4854 143.542 27.0721 143.624C26.6561 143.698 26.183 143.659 25.7784 143.472C25.3619 143.288 25.023 142.954 24.8052 142.606C24.5828 142.255 24.4549 141.889 24.3682 141.534C24.1992 140.831 24.1924 140.111 24.2344 139.474C24.2969 138.209 24.4271 136.945 24.6248 135.69C25.0166 133.18 25.6879 130.71 26.5999 128.325L27.9603 129.659C27.2406 129.988 26.462 130.348 25.5418 130.552C25.0824 130.651 24.5874 130.709 24.0745 130.675C23.5412 130.648 22.9813 130.495 22.5064 130.247C22.0218 130.002 21.5779 129.66 21.214 129.194C20.8482 128.74 20.5815 128.113 20.55 127.439C20.5267 126.752 20.7628 126.146 21.0062 125.705C21.2578 125.25 21.5026 124.928 21.7172 124.609C22.6132 123.32 23.4864 122.014 24.4015 120.738L25.7738 118.823L26.1168 118.345C26.2346 118.18 26.3446 118.03 26.4022 117.935C26.4647 117.837 26.4766 117.785 26.472 117.81C26.4652 117.841 26.4821 117.906 26.472 117.861C26.4615 117.824 26.4131 117.726 26.3277 117.596L26.0117 117.13C25.7884 116.807 25.5706 116.48 25.3569 116.151L24.064 114.181C23.1991 112.87 22.3721 111.532 21.535 110.202C21.3341 109.869 21.0866 109.488 20.9007 109.004C20.7144 108.529 20.6208 107.889 20.8002 107.321C20.9637 106.753 21.3245 106.308 21.7218 105.999C22.1223 105.686 22.5694 105.477 23.0379 105.37C23.4946 105.254 24.0229 105.263 24.4508 105.368C24.8906 105.467 25.2998 105.631 25.6701 105.834C26.4168 106.236 27.0232 106.769 27.6009 107.31L27.4406 107.535Z" fill="#13355A"/>
<g opacity="0.1">
<path opacity="0.1" d="M174.072 190.74C170.081 195.404 165.438 199.51 160.318 202.893C155.77 205.9 150.183 208.41 144.992 206.733C140.861 205.398 137.995 201.734 135.389 198.265C132.116 193.908 128.849 189.555 125.581 185.198C123.327 182.192 120.736 178.973 117.052 178.246C113.011 177.453 109.778 179.953 105.878 179.727C103.774 179.611 101.736 178.964 99.7283 178.321C98.1117 177.804 93.7596 176.404 93.3231 176.028C93.0568 175.796 92.8564 175.47 92.781 175.134C95.0452 172.92 108.257 174.933 109.989 174.225C110.446 174.034 110.893 173.804 111.38 173.708C113.809 173.211 117.077 175.922 119.06 177.031C126.812 181.334 134.583 186.73 140.836 193.081C142.392 194.663 143.872 196.347 145.687 197.624C147.501 198.902 149.739 199.751 151.93 199.402C153.448 199.16 154.824 198.366 156.062 197.454C158.33 195.785 160.787 192.941 160.812 189.944C160.824 188.564 160.168 187.278 159.528 186.056C158.851 184.761 158.172 183.465 157.414 182.216C156.728 181.084 152.505 174.85 154.872 174.232C156.898 173.704 159.828 178.83 160.669 180.139C161.833 181.956 163.003 183.889 164.504 185.415C165.232 186.168 166.04 186.82 166.963 187.312C169.148 188.798 171.547 189.962 174.072 190.74Z" fill="#454546"/>
</g>
<g opacity="0.1">
<path opacity="0.1" d="M22.0639 109.677L28.8362 117.705L22.0639 125.738L9.34113 121.144C6.1262 119.979 6.1262 115.431 9.34113 114.271L22.0639 109.677Z" fill="#454546"/>
</g>
<g opacity="0.1">
<path opacity="0.1" d="M48.8154 138.479L44.0889 157.727C43.1801 161.436 37.9056 161.436 36.9923 157.727L32.2658 138.479L40.5406 129.853L48.8154 138.479Z" fill="#454546"/>
</g>
</g>
<defs>
<clipPath id="clip0">
<rect width="264.953" height="274" fill="white"/>
</clipPath>
</defs>
</svg>
