<svg width="236" height="236" viewBox="0 0 236 236" fill="none" xmlns="http://www.w3.org/2000/svg">
<path d="M35.1178 57.2559L91.9922 132.049L134.731 99.5488L77.8566 24.7561L35.1178 57.2559Z" fill="#FBF9F0"/>
<path d="M115.669 75.5074C117.02 77.8619 118.453 80.1657 119.891 82.4612L120.991 84.1698L122.112 85.8639L123.239 87.5525L124.39 89.2253C125.941 91.4433 127.55 93.6193 129.185 95.7751C130.828 97.9239 132.531 100.028 134.29 102.084L134.641 102.494L134.23 102.846C131.034 105.579 127.776 108.242 124.466 110.839C121.156 113.436 117.797 115.973 114.363 118.405C107.506 123.286 100.384 127.767 93.1946 132.116L93.0078 131.813C94.7648 130.661 96.5167 129.503 98.2627 128.337C100.006 127.167 101.759 126.014 103.491 124.829C106.958 122.467 110.374 120.036 113.723 117.519C117.07 114.999 120.365 112.412 123.597 109.748C126.831 107.084 130.009 104.354 133.19 101.625L133.071 103.127C131.265 101.072 129.573 98.9206 127.92 96.7427C127.1 95.6481 126.281 94.5534 125.498 93.4328L124.338 91.7419L123.201 90.0356L122.108 88.3014L121.04 86.5526C120.351 85.3726 119.688 84.1777 119.033 82.9808C117.718 80.5889 116.528 78.1286 115.458 75.6195L115.669 75.5074Z" fill="#13355A"/>
<path d="M81.0533 117.796C81.0738 117.644 81.0254 117.441 80.9735 117.258C80.9192 117.07 80.8531 116.883 80.7807 116.698C80.6368 116.328 80.4727 115.963 80.3032 115.601C79.9618 114.877 79.5933 114.163 79.2156 113.455C78.4577 112.04 77.6604 110.645 76.8466 109.259C76.0316 107.875 75.1989 106.5 74.3454 105.14C73.9163 104.466 73.4891 103.771 73.0297 103.141L71.5374 101.244C67.5867 96.1653 63.6864 91.0488 59.7582 85.9528C57.8038 83.3977 55.8225 80.8627 53.8901 78.2911L48.0798 70.5857C44.2121 65.4444 40.3193 60.322 36.4721 55.1654L36.1846 54.78L36.5366 54.4633C38.1327 53.0269 39.806 51.7061 41.5013 50.4206C43.1981 49.1376 44.9213 47.8958 46.6547 46.671C50.1235 44.2245 53.6297 41.8393 57.1374 39.46C60.6448 37.0807 64.1533 34.705 67.6155 32.2679C71.0654 29.8202 74.5177 27.3509 77.6655 24.5503L77.8952 24.3462L78.0766 24.5873L89.4101 39.6587L89.1273 39.8738L83.2981 32.4614C81.3487 29.9952 79.4308 27.5054 77.4968 25.0278L78.1576 25.0868C76.5862 26.5449 74.933 27.8913 73.2574 29.2027C71.5799 30.5121 69.8752 31.7802 68.1602 33.0322C64.7284 35.5338 61.2553 37.9701 57.7876 40.4076C54.3204 42.845 50.8469 45.2696 47.4284 47.7562C45.7198 48.9999 44.0241 50.2582 42.3638 51.5511C40.7059 52.8448 39.0752 54.1719 37.5585 55.5765L37.6792 54.2552C39.6463 56.8009 41.5933 59.3615 43.5415 61.9217C45.4865 64.4839 47.4504 67.0319 49.3687 69.6141L55.1527 77.3396C57.0859 79.9104 58.9613 82.5253 60.8686 85.1162C64.6914 90.2913 68.4147 95.5415 72.1073 100.815L73.4781 102.802C73.9607 103.495 74.3611 104.174 74.7851 104.866C75.6186 106.247 76.4285 107.639 77.2214 109.041C78.0152 110.443 78.7834 111.86 79.5154 113.297C79.88 114.016 80.2356 114.74 80.5652 115.479C80.7288 115.849 80.8869 116.222 81.0269 116.604C81.0974 116.796 81.1615 116.99 81.215 117.19C81.2629 117.393 81.3223 117.591 81.2873 117.841L81.0533 117.796Z" fill="#13355A"/>
<g opacity="0.2">
<path opacity="0.2" d="M54.7099 56.8508C58.7116 61.3077 62.5423 65.9042 66.382 70.4932L72.0606 77.443C73.9525 79.7605 75.8504 82.0729 77.7163 84.4117L100.155 112.436L99.8799 112.66C95.9363 108.156 92.0742 103.585 88.1912 99.0315L76.571 85.3467C74.6271 83.0716 72.7222 80.7651 70.8098 78.4645C68.9104 76.1533 67.0468 73.8129 65.1698 71.4832C63.3231 69.1291 61.4772 66.7742 59.7123 64.3529L57.0655 60.7208C56.2199 59.4803 55.34 58.2676 54.5254 57.0019L54.7099 56.8508Z" fill="#13355A"/>
</g>
<g opacity="0.2">
<path opacity="0.2" d="M68.2526 49.7996C70.8345 51.5821 73.1288 53.7577 75.2335 56.0909C76.2676 57.2749 77.258 58.4993 78.1804 59.7733C79.0964 61.052 79.9633 62.3662 80.7543 63.7251C82.3548 66.4411 83.6418 69.2794 85.2002 71.9521C86.7519 74.6358 88.4995 77.2102 90.2521 79.7834L89.9642 79.9918C87.9681 77.5894 86.0915 75.0846 84.3592 72.4579C82.6089 69.8293 81.1728 67.0374 79.4898 64.4914C78.6382 63.2181 77.7764 61.9547 76.8564 60.7342C75.9505 59.5043 75.0301 58.2834 74.0464 57.1116C73.0898 55.9171 72.0967 54.7504 71.1055 53.5677C70.1017 52.3971 69.1038 51.2049 68.0996 49.9821L68.2526 49.7996Z" fill="#13355A"/>
</g>
<g opacity="0.2">
<path opacity="0.2" d="M74.3296 43.5204C75.7303 44.8896 76.9437 46.4047 78.1576 47.9194C78.7436 48.6923 79.3313 49.464 79.9016 50.2487C80.4645 51.039 81.0285 51.828 81.5717 52.632C82.6663 54.234 83.7504 55.8431 84.8136 57.4656C85.8779 59.0873 86.9403 60.7098 87.9516 62.3658L87.657 62.5652C86.4148 61.0674 85.1884 59.5625 83.9954 58.0364C82.7965 56.5142 81.589 54.9998 80.3708 53.4953C79.1507 51.992 77.9723 50.4611 76.8993 48.8512C76.3671 48.0429 75.8463 47.226 75.3834 46.3642C74.9133 45.5079 74.4763 44.6257 74.1396 43.6647L74.3296 43.5204Z" fill="#13355A"/>
</g>
<path d="M148.45 99.3959L118.411 10.3682L67.538 27.5335L97.5772 116.561L148.45 99.3959Z" fill="#FBF9F0"/>
<path d="M130.979 47.9898C129.223 40.7147 127.665 33.3999 126.054 26.098C125.274 22.4424 124.503 18.7824 123.664 15.1476L123.342 13.789L123.176 13.1133C123.147 13.004 123.123 12.8808 123.09 12.7825L122.994 12.4899C122.944 12.283 122.827 12.1335 122.752 11.951L122.585 11.7292C122.557 11.693 122.532 11.6529 122.502 11.6186L122.399 11.5313C122.15 11.2697 121.788 11.138 121.409 11.033C120.619 10.8638 119.712 10.9311 118.82 11.0467C117.923 11.1746 117.021 11.374 116.122 11.5872C112.525 12.4836 108.953 13.627 105.366 14.6811C101.78 15.7518 98.1801 16.7792 94.5665 17.757C87.3398 19.7146 80.0517 21.4343 72.7275 22.9659L72.6523 22.6186C79.9133 20.827 87.1475 18.9539 94.3053 16.8193C97.8859 15.7585 101.445 14.6312 105.004 13.4925L110.347 11.7748C112.135 11.2084 113.924 10.6416 115.766 10.1527C116.69 9.91314 117.622 9.6854 118.598 9.5257C119.579 9.38096 120.604 9.25863 121.769 9.49896C121.91 9.51705 122.064 9.5851 122.211 9.62915C122.359 9.68697 122.506 9.7149 122.651 9.80458C122.797 9.88285 122.941 9.96466 123.083 10.0492C123.224 10.1354 123.346 10.2585 123.475 10.3663L123.663 10.5362C123.719 10.5975 123.767 10.6636 123.819 10.7281C123.918 10.8583 124.022 10.9897 124.111 11.1242L124.325 11.5372L124.426 11.7457L124.496 11.9506L124.633 12.3628C124.676 12.4993 124.695 12.5988 124.727 12.7184L124.902 13.4079L125.238 14.7822C126.091 18.443 126.83 22.1088 127.586 25.7751C128.301 29.4488 129.002 33.1245 129.594 36.8215L130.476 42.3679C130.722 44.2264 131.01 46.0758 131.214 47.9426L130.979 47.9898Z" fill="#13355A"/>
<path d="M67.6492 27.4963C70.3396 34.8525 72.9498 42.2349 75.5025 49.6371C76.7981 53.3317 78.0454 57.0428 79.3005 60.7511L83.0675 71.8757L90.4979 94.1604L97.845 116.474L97.4839 116.294L111.767 111.587L111.881 111.924L104.808 114.481C102.452 115.337 100.084 116.159 97.7223 117L97.2939 117.153L97.1382 116.709L89.3466 94.5494C86.7589 87.1591 84.1326 79.7817 81.5685 72.3835C80.2901 68.6831 79.0059 64.9845 77.7811 61.2656C76.5409 57.5521 75.2877 53.8426 74.1207 50.1044C72.936 46.372 71.721 42.6499 70.6303 38.8857C69.4959 35.1364 68.419 31.3675 67.4238 27.5719L67.6492 27.4963Z" fill="#13355A"/>
<g opacity="0.2">
<path opacity="0.2" d="M85.0226 45.2552C86.7218 48.8464 88.1119 52.5693 89.4091 56.3205L90.3263 59.1533C90.615 60.1028 90.9163 61.0488 91.1952 62.0014L92.0011 64.8676L92.7532 67.7484C93.7224 71.598 94.5849 75.4731 95.3268 79.3698C96.0698 83.2662 96.7156 87.181 97.2034 91.1152L96.8517 91.1671C96.071 87.2837 95.2855 83.4094 94.3655 79.5673C93.4427 75.7264 92.4377 71.9091 91.3238 68.1264L89.6262 62.4636C89.3214 61.5267 89.0665 60.5752 88.7845 59.6312L87.9207 56.8051C87.3586 54.9159 86.7903 53.0283 86.2711 51.1191C85.7263 49.2189 85.2366 47.2955 84.8008 45.3418L85.0226 45.2552Z" fill="#13355A"/>
</g>
<g opacity="0.2">
<path opacity="0.2" d="M102.443 52.347C103.369 53.8012 104.053 55.369 104.707 56.9467C105.009 57.7452 105.307 58.5456 105.578 59.3551C105.838 60.1685 106.093 60.9831 106.318 61.8067C106.775 63.452 107.189 65.1076 107.549 66.7745C107.91 68.4407 108.24 70.1131 108.478 71.7997L108.13 71.8682L106.583 67.0172C106.063 65.4085 105.504 63.8155 104.905 62.241C104.304 60.6668 103.723 59.0943 103.237 57.4836C102.998 56.6765 102.766 55.8662 102.595 55.028C102.414 54.1937 102.265 53.3441 102.224 52.4403L102.443 52.347Z" fill="#13355A"/>
</g>
<g opacity="0.2">
<path opacity="0.2" d="M108.317 39.7868C108.45 42.6412 109.377 45.3249 110.141 48.1031C110.509 49.4903 110.882 50.8761 111.237 52.2669C111.584 53.6597 111.935 55.0513 112.264 56.4484L114.263 64.8256C114.924 67.6195 115.597 70.4102 116.224 73.2131L115.88 73.3016C114.965 70.573 114.152 67.8181 113.313 65.0699L110.832 56.8166C110.41 55.4434 110.036 54.0573 109.652 52.674C109.286 51.2863 108.963 49.8872 108.625 48.4925C108.327 47.0906 108.011 45.6848 107.854 44.2079C107.77 43.4739 107.735 42.7274 107.758 41.9812C107.812 41.2339 107.871 40.4893 108.079 39.7734L108.317 39.7868Z" fill="#13355A"/>
</g>
<g opacity="0.2">
<path opacity="0.2" d="M118.601 45.7297C118.763 46.0409 118.888 46.361 119.032 46.6757L119.41 47.6339C119.665 48.2711 119.878 48.9189 120.095 49.5651L120.709 51.5153C120.901 52.169 121.102 52.8204 121.285 53.4772C121.664 54.7874 122.064 56.0921 122.474 57.3952L123.746 61.2943L123.416 61.4249C122.736 60.2205 122.102 58.991 121.537 57.7335C120.965 56.4784 120.413 55.2122 119.88 53.9362C119.334 52.665 118.892 51.3552 118.593 50.0057C118.53 49.665 118.453 49.3283 118.401 48.985C118.361 48.6384 118.303 48.2966 118.288 47.9438C118.24 47.2433 118.24 46.5313 118.371 45.7895L118.601 45.7297Z" fill="#13355A"/>
</g>
<path d="M125.418 15.8682L110.234 108.598L163.223 117.275L178.407 24.5449L125.418 15.8682Z" fill="#FBF9F0"/>
<path d="M134.644 111.643C132.592 111.471 130.553 111.25 128.519 110.999L125.468 110.625L122.422 110.232C120.392 109.972 118.362 109.714 116.33 109.485C114.299 109.261 112.263 109.079 110.231 109.008L109.754 108.991L109.838 108.534L112.341 94.8925L114.871 81.256L115.221 81.3177L114.185 88.1763L113.104 95.027L110.928 108.726L110.244 107.901C112.332 107.845 114.401 107.935 116.466 108.048C118.532 108.158 120.587 108.348 122.632 108.608L125.689 109.063C126.198 109.143 126.703 109.249 127.209 109.34C127.716 109.429 128.221 109.538 128.723 109.653C130.737 110.094 132.732 110.655 134.685 111.408L134.644 111.643Z" fill="#13355A"/>
<path d="M116.286 70.1058L117.327 63.1757L118.413 56.2542L119.541 49.341C119.911 47.0352 120.284 44.7307 120.678 42.4297C121.446 37.8242 122.208 33.2178 122.92 28.6052C123.618 23.9949 124.388 19.3784 124.849 14.7658L124.902 14.2308L125.416 14.339L178.592 25.5541L178.521 25.9022L165.168 23.3876L151.826 20.8137L125.147 15.6519L126.184 14.872C125.995 17.2367 125.734 19.5684 125.433 21.891C125.143 24.2168 124.827 26.5339 124.482 28.8475C124.135 31.1603 123.789 33.4727 123.42 35.7808L122.246 42.6928L121.643 46.1455L120.985 49.5884L119.653 56.4705L118.168 63.3247C117.921 64.467 117.633 65.6021 117.366 66.7404C117.098 67.8787 116.821 69.0155 116.521 70.1483L116.286 70.1058Z" fill="#13355A"/>
<path d="M165.582 98.8175C166.796 93.3274 167.924 87.8435 168.818 82.3152C169.737 76.7853 170.23 71.2216 170.775 65.6131C171.055 62.8075 171.461 60.014 171.894 57.2371C172.328 54.4578 172.795 51.6848 173.292 48.9169C173.79 46.1494 174.316 43.3866 174.895 40.6337C175.483 37.8831 176.089 35.1333 176.94 32.437L177.279 32.5464C176.523 35.2368 176.014 38.0007 175.51 40.758C175.002 43.516 174.547 46.2855 174.12 49.0585C173.694 51.8319 173.297 54.61 172.935 57.3905C172.578 60.1757 172.226 62.9436 172.054 65.7327C171.86 68.5226 171.734 71.3353 171.494 74.1583C171.361 75.5664 171.209 76.9734 171.035 78.3776C170.954 79.0804 170.85 79.7806 170.736 80.4787L170.393 82.5729C169.448 88.1499 168.014 93.6578 165.812 98.8824L165.582 98.8175Z" fill="#13355A"/>
<g opacity="0.2">
<path opacity="0.2" d="M131.651 29.0111C132.43 29.0441 133.199 29.1952 133.958 29.3679C134.713 29.5578 135.451 29.7942 136.183 30.0298C137.645 30.5081 139.058 31.0395 140.52 31.2877C141.979 31.5788 143.481 31.6752 144.995 31.7224C146.509 31.7778 148.044 31.7621 149.585 31.8258C152.663 31.934 155.735 32.1766 158.787 32.5649C161.838 32.9515 164.873 33.4605 167.867 34.1484L167.797 34.4969C164.757 34.1032 161.724 33.7413 158.681 33.5403C155.638 33.3425 152.594 33.2544 149.556 33.3039C148.041 33.3366 146.513 33.3763 144.946 33.357C143.384 33.3201 141.787 33.1682 140.202 32.8201C139.414 32.6239 138.632 32.3792 137.899 32.0815C137.167 31.7762 136.457 31.4627 135.772 31.1182C135.081 30.7886 134.408 30.4428 133.723 30.1286C133.046 29.7848 132.344 29.5213 131.618 29.2471L131.651 29.0111Z" fill="#13355A"/>
</g>
<g opacity="0.2">
<path opacity="0.2" d="M129.091 44.7452C129.619 44.5619 130.187 44.5006 130.751 44.4852C131.316 44.486 131.875 44.5627 132.423 44.6614C132.973 44.7543 133.502 44.9136 134.026 45.0623L135.58 45.5063C136.606 45.8178 137.641 46.1026 138.676 46.3803C139.709 46.6706 140.751 46.9255 141.792 47.1882C143.877 47.6984 145.988 48.1086 148.113 48.4481C150.239 48.7804 152.381 49.0058 154.531 49.1919L154.516 49.547C152.343 49.6403 150.159 49.6139 147.984 49.4365C145.809 49.2607 143.635 48.9976 141.473 48.6318C139.313 48.2656 137.171 47.7538 135.11 46.9994C134.599 46.8008 134.078 46.614 133.587 46.4019C133.097 46.1833 132.614 45.9937 132.138 45.7899C131.178 45.4045 130.235 45.0862 129.139 44.9789L129.091 44.7452Z" fill="#13355A"/>
</g>
<g opacity="0.2">
<path opacity="0.2" d="M127.661 51.6761C129.23 51.5546 130.774 51.6556 132.321 51.7426C133.091 51.8114 133.862 51.8751 134.632 51.9577C135.4 52.0482 136.169 52.1347 136.935 52.2433L141.536 52.871C143.07 53.0862 144.604 53.2888 146.133 53.5389L146.096 53.8925C144.538 53.9209 142.983 53.9181 141.433 53.8626L136.782 53.7136C135.232 53.666 133.688 53.5551 132.159 53.2994C131.395 53.1657 130.633 53.0146 129.879 52.7881C129.124 52.569 128.373 52.3058 127.637 51.9129L127.661 51.6761Z" fill="#13355A"/>
</g>
<g opacity="0.2">
<path opacity="0.2" d="M127.322 58.9929C127.863 58.8485 128.429 58.8084 128.992 58.8021C129.555 58.8135 130.116 58.8835 130.667 58.9799C131.772 59.1785 132.818 59.5479 133.854 59.8669C134.878 60.2134 135.903 60.5407 136.937 60.849C137.965 61.1731 139.006 61.4567 140.046 61.745C142.131 62.3028 144.245 62.7598 146.379 63.1131C148.513 63.4741 150.669 63.6979 152.832 63.8777L152.818 64.2329C150.632 64.3328 148.43 64.3076 146.24 64.1003C144.049 63.9095 141.864 63.5976 139.693 63.1807C137.524 62.7646 135.378 62.171 133.331 61.3423C132.317 60.9257 131.354 60.4986 130.39 60.11C129.42 59.7304 128.449 59.4122 127.351 59.2293L127.322 58.9929Z" fill="#13355A"/>
</g>
<g opacity="0.2">
<path opacity="0.2" d="M123.878 81.1989C124.633 81.0801 125.403 81.0711 126.169 81.0947C126.935 81.136 127.696 81.2339 128.449 81.3582C129.957 81.6119 131.411 82.0273 132.872 82.3537C135.783 83.0834 138.705 83.7579 141.632 84.4203C144.56 85.076 147.509 85.6408 150.469 86.1529C153.43 86.6596 156.407 87.0718 159.389 87.462L159.354 87.8156C156.335 87.7208 153.326 87.4502 150.322 87.1229C147.317 86.7945 144.319 86.3756 141.334 85.8686C139.837 85.631 138.356 85.3195 136.874 85.0036C135.398 84.6669 133.936 84.272 132.477 83.8685C131.017 83.4393 129.604 82.9489 128.204 82.4957C127.501 82.2774 126.799 82.0623 126.084 81.8865C125.371 81.6804 124.643 81.5651 123.891 81.4373L123.878 81.1989Z" fill="#13355A"/>
</g>
<path d="M153.759 26.5262L117.321 113.139L166.815 133.961L203.253 47.348L153.759 26.5262Z" fill="#FBF9F0"/>
<path d="M162.642 133.714C158.968 131.609 155.247 129.591 151.519 127.593L148.71 126.118L145.89 124.665L143.063 123.226L140.223 121.815L137.369 120.432L134.502 119.077L131.631 117.732L128.747 116.413C124.894 114.673 121.007 113.009 117.088 111.422L117.494 110.421C117.444 110.375 117.36 110.326 117.25 110.32C117.14 110.311 117.024 110.36 116.965 110.415C116.829 110.579 116.926 110.456 116.927 110.427L117.05 110.159L117.297 109.621L117.788 108.543L118.77 106.386L120.743 102.074L124.7 93.4564L132.62 76.2221L140.56 58.9964C143.212 53.2565 145.849 47.5127 148.533 41.7842L148.855 41.9352L133.607 76.6701L125.959 94.0279L122.13 102.705L120.204 107.039L119.232 109.202L118.745 110.284L118.5 110.827L118.376 111.099L118.345 111.167C118.361 111.131 118.265 111.366 118.119 111.52C117.972 111.694 117.712 111.855 117.465 111.904C117.218 111.958 117.022 111.929 116.893 111.904L117.688 109.942C121.639 111.504 125.539 113.195 129.404 114.96L132.297 116.296L135.174 117.663L138.024 119.089L140.859 120.542L143.679 122.023L146.485 123.531C148.344 124.557 150.175 125.633 152.008 126.704C155.671 128.849 159.259 131.12 162.765 133.511L162.642 133.714Z" fill="#13355A"/>
<path d="M170.914 123.894C173.414 117.429 175.94 110.975 178.502 104.537L182.34 94.8779L186.206 85.231C188.78 78.7984 191.291 72.3419 193.804 65.8884C195.052 62.6584 196.285 59.4228 197.47 56.1719C198.059 54.5455 198.643 52.9171 199.189 51.28C199.468 50.4623 199.728 49.6414 199.977 48.8189C200.222 47.9965 200.447 47.1693 200.601 46.359L200.869 46.8157L161.2 31.4364L161.327 31.104L171.332 34.7183L181.317 38.3842L201.286 45.7211L201.86 45.9323L201.759 46.5294C201.603 47.4576 201.378 48.3123 201.14 49.16C200.898 50.0041 200.646 50.8426 200.377 51.6706C199.851 53.3336 199.288 54.9778 198.721 56.6207C197.58 59.9023 196.394 63.163 195.192 66.4179L193.375 71.2936L191.51 76.1493C190.261 79.3841 189.007 82.6165 187.701 85.8277C186.401 89.0416 185.107 92.2575 183.785 95.4616L179.728 105.037C176.982 111.403 174.151 117.734 171.135 123.985L170.914 123.894Z" fill="#13355A"/>
<g opacity="0.2">
<path opacity="0.2" d="M135.032 104.886C137.458 100.096 139.951 95.3562 142.31 90.5465L144.101 86.9514L145.849 83.3347L147.549 79.696C148.095 78.4735 148.668 77.2632 149.226 76.0463C151.443 71.1701 153.531 66.2349 155.512 61.2557C157.488 56.2742 159.335 51.2403 161.051 46.1604L161.389 46.2705C159.925 51.4397 158.226 56.5405 156.421 61.6046C154.619 66.6708 152.661 71.6838 150.578 76.6465C150.045 77.8819 149.529 79.1253 148.981 80.3544L147.307 84.0286C146.74 85.2491 146.126 86.4476 145.538 87.6578L143.706 91.2553C143.059 92.4357 142.425 93.6227 141.768 94.7968C141.086 95.958 140.427 97.1313 139.713 98.2731L137.557 101.689C136.782 102.795 136.047 103.922 135.239 105.005L135.032 104.886Z" fill="#13355A"/>
</g>
<g opacity="0.2">
<path opacity="0.2" d="M148.909 111.915C148.9 111.357 148.949 110.798 149.025 110.243C149.118 109.69 149.24 109.141 149.395 108.602C149.696 107.52 150.155 106.497 150.613 105.487C151.603 103.496 152.699 101.615 153.805 99.7206L157.134 94.0547C158.249 92.1686 159.352 90.2767 160.498 88.408L160.808 88.581C159.907 90.5862 158.979 92.5761 158.004 94.54L155.096 100.44C154.142 102.409 153.069 104.348 152.009 106.194C151.74 106.655 151.487 107.123 151.235 107.587C150.972 108.047 150.74 108.519 150.492 108.988C150.009 109.932 149.581 110.898 149.146 111.94L148.909 111.915Z" fill="#13355A"/>
</g>
<g opacity="0.2">
<path opacity="0.2" d="M161.936 117.806C161.841 116.032 162.366 114.281 163.022 112.66C163.718 111.042 164.585 109.533 165.468 108.057L168.115 103.614C169.003 102.136 169.879 100.652 170.797 99.1908L171.108 99.3639C170.434 100.961 169.733 102.544 168.986 104.1L166.759 108.777C166.018 110.345 165.216 111.84 164.448 113.306C164.057 114.039 163.691 114.773 163.309 115.514L162.172 117.831L161.936 117.806Z" fill="#13355A"/>
</g>
<g opacity="0.2">
<path opacity="0.2" d="M155.034 116.423C155.071 115.565 155.24 114.715 155.462 113.881C155.701 113.052 156.018 112.246 156.373 111.462C157.093 109.895 158.023 108.454 158.915 107.018L159.603 105.956C159.823 105.602 160.022 105.25 160.234 104.897C160.628 104.168 161.002 103.426 161.364 102.67C162.1 101.166 162.771 99.6219 163.444 98.0776C164.777 94.9821 166.028 91.8441 167.267 88.7009C168.508 85.5574 169.69 82.3915 170.991 79.2633L171.322 79.3927C170.303 82.6157 169.256 85.8328 168.186 89.0451C167.121 92.2602 166.009 95.4616 164.809 98.6452C164.512 99.4409 164.202 100.238 163.876 101.024C163.531 101.809 163.212 102.598 162.839 103.378C162.495 104.164 162.061 104.922 161.64 105.691C161.406 106.069 161.173 106.463 160.937 106.827L160.223 107.88C159.249 109.259 158.285 110.602 157.411 111.99C156.984 112.689 156.574 113.397 156.217 114.138C155.831 114.871 155.55 115.647 155.272 116.453L155.034 116.423Z" fill="#13355A"/>
</g>
<path d="M164.53 126.142C164.196 128.478 161.293 129.308 158.953 129.615C161.568 131.653 162.949 135.767 162.457 139.047C162.237 140.499 149.225 139.633 147.849 139.751C142.173 140.227 140.607 143.94 135.663 145.022C136.12 144.924 136.497 145.054 136.808 145.364C138.916 147.449 137.988 157.632 137.901 159.068C137.732 161.841 137.315 164.626 137.205 167.399C137.154 168.669 137.189 169.936 137.264 171.202C137.469 174.703 137.972 178.212 137.795 181.787C137.775 182.184 137.736 182.574 137.685 182.955C137.685 182.959 137.685 182.963 137.681 182.967C137.634 183.341 137.567 183.706 137.488 184.064C137.484 184.076 137.484 184.084 137.48 184.096C136.89 186.822 135.628 189.127 134.81 191.62C134.786 191.683 134.766 191.746 134.747 191.805C134.645 192.124 134.55 192.446 134.468 192.773C134.302 193.402 134.176 194.055 134.106 194.728C133.952 196.179 133.834 197.634 133.756 199.09C133.736 199.385 133.72 199.68 133.708 199.975C133.488 204.557 133.59 209.151 133.85 213.745C133.85 213.749 133.85 213.753 133.854 213.753C134.106 218.237 134.515 222.721 134.92 227.193C132.788 228.259 130.2 227.933 127.643 227.433C125.673 227.048 123.722 226.564 122.007 226.536C119.651 226.493 117.279 226.462 114.946 226.769C114.852 226.776 114.754 226.792 114.659 226.804C114.349 226.847 114.038 226.898 113.727 226.957C112.976 227.099 112.221 227.284 111.469 227.484C107.772 228.483 104.09 229.935 100.425 229.05C100.153 228.983 99.8778 228.896 99.6261 228.778C99.3744 228.656 99.1423 228.503 98.9653 228.291C98.9496 228.275 98.9378 228.263 98.926 228.247C98.6074 227.846 98.5208 227.339 98.5326 226.816V226.804C98.5326 226.717 98.5366 226.631 98.5405 226.544C98.5602 226.32 98.5877 226.092 98.6192 225.872C98.8552 224.216 99.0754 222.579 99.2721 220.955C99.2839 220.853 99.2996 220.75 99.3114 220.648C99.453 219.48 99.5828 218.312 99.7008 217.144C99.7638 216.51 99.8267 215.881 99.8818 215.248C99.9329 214.693 99.9801 214.139 100.023 213.584C100.417 208.777 100.582 203.971 100.468 198.968C100.456 198.492 100.444 198.016 100.428 197.54C100.322 194.362 100.153 191.172 99.4727 188.064C98.5995 184.084 96.9042 180.336 95.2994 176.587C91.5038 167.741 88.1172 158.718 85.1554 149.561C82.5751 141.584 80.0066 135.905 85.6156 128.726C85.769 128.53 85.9224 128.333 86.0718 128.132C86.2174 127.94 86.3629 127.747 86.5006 127.554C88.4515 124.879 90.6188 121.43 92.963 117.949C93.258 117.508 93.553 117.068 93.852 116.635C93.907 116.557 93.9582 116.482 94.0093 116.407C96.6643 112.56 99.5278 108.812 102.556 106.18C103.367 105.476 104.189 104.851 105.023 104.324C105.027 104.32 105.03 104.32 105.03 104.32C105.676 103.915 106.328 103.569 106.989 103.289C107.095 103.246 107.202 103.203 107.308 103.16C112.319 101.216 118.007 100.918 123.305 100.391C125.421 100.178 127.541 99.9696 129.633 99.5763C135.16 98.5379 140.737 96.233 146.216 97.4956C146.771 97.6254 147.345 97.8063 147.731 98.2232C148.211 98.7424 148.293 99.5055 148.301 100.21C148.348 103.081 145.886 108.682 142.472 109.119C146.047 108.662 149.367 109.874 152.781 110.409C155.963 110.908 158.559 111.243 160.392 114.275C161.273 115.731 161.529 117.772 160.388 119.038C162.154 119.573 162.965 122.008 163.893 123.605C164.341 124.372 164.652 125.261 164.53 126.142Z" fill="#EDC9B3"/>
<path opacity="0.1" d="M133.854 213.753C134.106 218.237 134.515 222.721 134.92 227.193C132.788 228.259 130.2 227.933 127.644 227.433C129.284 225.482 130.68 223.346 131.345 220.904C131.813 219.185 131.896 217.387 131.974 215.61C132.033 214.264 132.092 212.919 132.151 211.574C133.095 211.798 133.567 212.781 133.85 213.745C133.85 213.749 133.85 213.753 133.854 213.753Z" fill="#454546"/>
<path opacity="0.1" d="M137.685 182.955C137.685 182.959 137.685 182.963 137.681 182.967C137.661 183.345 137.626 183.714 137.579 184.076C137.488 184.764 137.355 185.413 137.197 185.968C136.635 187.943 135.53 189.705 134.81 191.62C134.786 191.683 134.767 191.746 134.747 191.805C134.645 192.124 134.55 192.446 134.468 192.773C134.302 193.402 134.177 194.055 134.106 194.728C133.366 201.721 123.977 203.157 119.832 207.641C117.59 210.068 116.484 213.34 115.918 216.597C115.375 219.704 114.274 223.5 114.946 226.769C114.852 226.776 114.754 226.792 114.659 226.804C114.349 226.847 114.038 226.898 113.727 226.957C112.976 227.099 112.221 227.284 111.469 227.484C107.772 228.483 104.09 229.935 100.425 229.05C100.153 228.983 99.8778 228.896 99.6261 228.778C98.9653 228.126 98.6506 227.366 98.5405 226.544C98.3006 224.774 99.0086 222.737 99.2721 220.955C99.2839 220.853 99.2996 220.751 99.3114 220.648C99.453 219.48 99.5828 218.312 99.7008 217.144C99.7638 216.51 99.8267 215.881 99.8818 215.248C99.9329 214.693 99.9801 214.139 100.023 213.584C100.409 208.722 100.578 203.845 100.468 198.968C100.456 198.492 100.444 198.016 100.428 197.54C100.322 194.362 100.153 191.172 99.4727 188.065C98.5995 184.084 96.9042 180.336 95.2994 176.587C91.5038 167.741 88.1172 158.718 85.1554 149.561C82.5751 141.584 80.0066 135.905 85.6156 128.726C85.769 128.53 85.9224 128.333 86.0718 128.132C86.2174 127.94 86.3629 127.747 86.5006 127.554C88.8055 124.459 90.8233 121.155 92.963 117.949C93.258 117.508 93.553 117.068 93.852 116.635C93.907 116.556 93.9582 116.482 94.0093 116.407C96.6643 112.56 99.5278 108.812 102.556 106.18C103.288 105.543 104.118 104.65 105.023 104.324C105.027 104.32 105.031 104.32 105.031 104.32C105.53 104.139 106.049 104.127 106.588 104.418C108.893 105.669 109.07 108.776 108.649 111.085C108.637 111.152 108.622 111.227 108.574 111.278C108.508 111.349 108.397 111.361 108.299 111.364C107.682 111.388 107.037 111.408 106.478 111.14C106.112 110.963 105.813 110.676 105.479 110.452C104.295 109.661 102.494 111.062 101.687 111.943C100.279 113.481 99.3429 115.376 97.9584 116.926C96.212 118.877 94.6898 121.017 93.1676 123.149C91.8381 125.009 90.5086 126.874 89.1792 128.738C87.3423 131.314 86.3983 133.859 85.706 136.908C86.9332 137.006 87.4957 135.472 88.243 134.5C89.0454 133.462 90.3238 132.947 91.4133 132.215C92.5815 131.432 93.5452 130.382 94.4813 129.328C97.2779 126.189 99.9604 122.944 102.879 119.916C104.354 118.382 105.888 116.903 107.516 115.53C109.039 114.252 110.49 112.458 112.535 113.532C115.009 114.834 117.393 116.305 119.666 117.925C120.135 118.26 120.607 118.61 120.933 119.078C121.263 119.55 121.432 120.167 121.236 120.706C120.437 122.877 116.716 120.49 115.509 120.132C112.94 119.381 110.266 120.266 107.925 121.371C105.593 122.468 103.284 123.77 101.066 125.025C98.7411 126.343 97.6398 128.891 95.6456 130.606C94.6701 131.444 93.5098 132.046 92.554 132.907C91.2009 134.131 90.3316 135.806 89.7338 137.529C88.9117 139.901 88.5498 142.434 88.6796 144.943C88.8094 147.563 90.6778 151.119 93.7458 148.731C97.1363 146.092 96.7902 140.589 100.543 137.887C102.612 136.396 105.306 135.952 107.335 134.406C108.547 133.486 109.448 132.227 110.427 131.063C114.164 126.618 120.933 120.509 126.766 124.183C128.021 124.97 129.272 125.76 130.526 126.547C133.472 128.404 133.15 130.803 129.504 129.54C125.877 128.286 122.727 127.503 118.951 129.076C116.681 130.02 114.679 131.499 112.701 132.962C110.805 134.367 108.905 135.775 107.005 137.179C105.349 138.406 103.67 139.649 102.352 141.238C100.775 143.13 99.6261 145.64 99.4412 148.118C99.276 150.36 101.16 151.807 103.127 152.641C106.612 154.12 106.883 150.116 109.935 149.451C110.105 149.416 110.285 149.392 110.443 149.463C110.75 149.6 110.809 150.002 110.816 150.336C110.903 153.431 110.399 156.511 110.447 159.607C110.498 162.577 111.155 165.613 112.099 168.421C113.487 172.567 114.876 176.713 116.532 180.764C117.999 184.355 118.99 187.655 122.4 189.905C124.095 191.022 126.211 191.628 128.194 191.168C131.27 190.456 134.479 186.995 135.537 184.119C135.982 182.92 136.426 181.716 136.694 180.465C136.8 179.985 136.883 179.494 137.13 179.073C137.63 180.111 137.764 181.551 137.685 182.955Z" fill="#454546"/>
<path d="M156.803 119.707C157.82 119.315 158.765 118.724 159.515 117.955C159.889 117.571 160.207 117.137 160.421 116.665C160.626 116.193 160.72 115.68 160.612 115.205C160.563 114.967 160.471 114.74 160.339 114.531C160.215 114.32 160.053 114.126 159.868 113.951C159.497 113.597 159.058 113.324 158.571 113.078C157.615 112.552 156.603 112.137 155.581 111.755C151.457 110.27 147.026 109.859 142.634 109.725C138.224 109.61 133.813 109.853 129.408 110.169C127.206 110.337 125.005 110.546 122.807 110.779L119.509 111.146C118.41 111.278 117.306 111.39 116.239 111.564C115.17 111.743 114.132 111.984 113.155 112.391C112.174 112.791 111.245 113.33 110.372 113.957C108.621 115.215 107.094 116.8 105.584 118.41C104.829 119.216 104.074 120.034 103.295 120.832L100.998 123.225C99.4693 124.829 97.9384 126.437 96.349 127.994C94.7627 129.552 93.1142 131.058 91.3489 132.429C90.4781 133.126 89.5152 133.732 88.6566 134.379C88.2259 134.706 87.8369 135.06 87.5245 135.475C87.2162 135.892 86.9743 136.367 86.7701 136.869C85.8958 138.867 85.7601 141.088 85.7742 143.288C85.7817 143.838 85.7707 144.399 85.8096 144.933C85.8517 145.472 85.9398 146.008 86.0916 146.522C86.247 147.031 86.4637 147.531 86.8028 147.916C87.134 148.31 87.6115 148.538 88.1208 148.523L88.1307 148.879C87.831 148.892 87.519 148.844 87.2358 148.72C86.9534 148.597 86.7021 148.409 86.4995 148.187C86.0881 147.743 85.8395 147.2 85.6543 146.656C85.4741 146.108 85.3644 145.544 85.3026 144.976C85.244 144.399 85.2393 143.852 85.2145 143.294C85.1752 142.181 85.1697 141.055 85.2916 139.925C85.4025 138.8 85.6771 137.652 86.0944 136.596C86.2977 136.062 86.5534 135.52 86.9062 135.019C87.2638 134.521 87.7106 134.101 88.1598 133.744C89.0715 133.024 89.962 132.439 90.8022 131.733C92.4951 130.353 94.0818 128.834 95.6142 127.255C97.1502 125.68 98.6327 124.043 100.126 122.406L102.386 119.956C103.135 119.157 103.864 118.335 104.609 117.508C106.098 115.859 107.642 114.179 109.513 112.775C110.448 112.077 111.468 111.456 112.57 110.981C113.673 110.494 114.849 110.202 115.983 110.011C117.126 109.818 118.226 109.701 119.326 109.561L122.636 109.17C124.847 108.932 127.066 108.743 129.288 108.581C133.732 108.223 138.211 108.214 142.677 108.403C147.137 108.573 151.687 109.142 155.939 110.793C156.993 111.218 158.036 111.679 159.021 112.255C159.52 112.524 160.043 112.887 160.477 113.341C160.915 113.789 161.277 114.397 161.361 115.069C161.463 115.74 161.282 116.399 160.997 116.94C160.703 117.482 160.31 117.935 159.875 118.322C159.005 119.098 157.965 119.622 156.883 119.932L156.803 119.707Z" fill="#13355A"/>
<path d="M157.057 131.321C158.506 130.896 159.768 130.005 160.943 129.06C161.525 128.574 162.121 128.087 162.619 127.557C163.115 127.025 163.494 126.411 163.541 125.752C163.587 125.1 163.355 124.393 162.971 123.844C162.581 123.284 162.01 122.862 161.376 122.541C160.09 121.909 158.588 121.672 157.101 121.559C155.584 121.459 154.053 121.376 152.529 121.313C151.004 121.239 149.477 121.181 147.951 121.142C144.897 121.069 141.842 121.072 138.788 121.154C137.262 121.195 135.736 121.259 134.211 121.338C132.684 121.412 131.161 121.494 129.65 121.636C126.635 121.924 123.637 122.47 120.905 123.726C118.159 124.949 115.672 126.728 113.393 128.731C111.108 130.735 109.006 132.958 106.916 135.194L106.853 135.261L106.769 135.285C105.312 135.699 103.873 136.176 102.537 136.857C101.202 137.533 99.9827 138.434 99.0025 139.559C98.0357 140.68 97.3564 142.064 97.0831 143.525C96.8073 144.98 96.978 146.543 97.7336 147.824L97.428 148.005C96.5792 146.665 96.344 144.993 96.5906 143.438C96.8368 141.876 97.5012 140.378 98.5176 139.145C99.5296 137.924 100.806 136.936 102.193 136.193C103.58 135.444 105.056 134.917 106.529 134.46L106.284 134.612C108.322 132.323 110.387 130.029 112.674 127.923C114.953 125.817 117.493 123.906 120.374 122.555C123.251 121.162 126.417 120.526 129.502 120.17C132.601 119.823 135.66 119.668 138.745 119.557C140.286 119.511 141.826 119.464 143.368 119.469C144.909 119.477 146.45 119.502 147.99 119.545C149.531 119.593 151.07 119.658 152.609 119.743C154.149 119.846 155.676 119.968 157.222 120.109C158.016 120.184 158.814 120.314 159.611 120.51C160.407 120.71 161.205 120.975 161.969 121.391C162.729 121.798 163.456 122.396 163.947 123.19C164.194 123.583 164.372 124.017 164.478 124.459C164.587 124.898 164.634 125.379 164.567 125.857C164.502 126.335 164.323 126.791 164.084 127.174C163.845 127.56 163.557 127.884 163.257 128.171C162.654 128.75 162.016 129.182 161.37 129.618C160.72 130.051 160.049 130.46 159.343 130.805C158.642 131.157 157.888 131.421 157.115 131.553L157.057 131.321Z" fill="#13355A"/>
<path d="M116.668 141.234C119.706 140.332 122.369 138.564 124.964 136.766C127.578 134.988 130.205 133.113 133.23 131.929C134.738 131.329 136.335 130.969 137.931 130.763C139.53 130.555 141.135 130.49 142.728 130.463C145.904 130.445 149.083 130.331 152.297 130.606C153.899 130.75 155.506 131.004 157.074 131.461C158.639 131.917 160.177 132.581 161.522 133.571C161.877 133.792 162.166 134.101 162.485 134.37C162.814 134.632 163.066 134.972 163.347 135.282C163.914 135.879 164.418 136.743 164.459 137.718C164.469 137.959 164.451 138.226 164.353 138.507C164.267 138.784 164.021 139.095 163.754 139.24C163.492 139.39 163.271 139.447 163.084 139.505L162.495 139.678C161.706 139.894 160.907 140.053 160.108 140.178C158.508 140.427 156.905 140.535 155.316 140.621L152.941 140.747C152.141 140.794 151.339 140.82 150.545 140.84C148.957 140.882 147.383 140.907 145.839 141.073C145.453 141.115 145.069 141.164 144.69 141.229C144.499 141.26 144.31 141.294 144.123 141.334L143.844 141.391C143.783 141.404 143.686 141.436 143.594 141.465C142.863 141.69 142.141 141.969 141.437 142.292C140.029 142.939 138.68 143.73 137.416 144.636C136.153 145.543 134.969 146.564 133.936 147.714C132.901 148.858 132.018 150.143 131.452 151.549C130.895 152.952 130.713 154.491 131.081 155.935C131.264 156.655 131.599 157.322 131.953 158.048L133.002 160.183C133.703 161.608 134.395 163.045 135.028 164.513C135.655 165.986 136.231 167.475 136.678 169.03C137.105 170.586 137.384 172.178 137.53 173.774C137.839 176.97 137.704 180.162 137.602 183.333C137.541 184.921 137.455 186.526 137.156 188.112C137.017 188.907 136.791 189.687 136.536 190.447L136.353 191.021L136.129 191.581C135.97 191.95 135.849 192.336 135.657 192.691C134.328 195.628 132.109 198.146 129.404 199.876C126.702 201.638 123.583 202.597 120.46 203.188L120.395 202.839C123.475 202.195 126.523 201.187 129.111 199.425C131.7 197.688 133.785 195.247 135.026 192.401C135.207 192.057 135.317 191.681 135.465 191.323L135.673 190.78L135.843 190.222C136.079 189.479 136.283 188.739 136.404 187.974C136.669 186.45 136.732 184.884 136.768 183.305C136.825 180.137 136.909 176.972 136.562 173.871C136.397 172.321 136.104 170.794 135.675 169.315C135.23 167.848 134.641 166.382 134.008 164.956C133.367 163.527 132.663 162.119 131.943 160.708L130.865 158.583L130.597 158.048C130.508 157.872 130.419 157.695 130.331 157.485C130.141 157.089 130.006 156.669 129.878 156.246C129.414 154.524 129.622 152.674 130.24 151.073C130.865 149.466 131.824 148.052 132.921 146.807C134.019 145.556 135.261 144.461 136.584 143.484C137.91 142.511 139.322 141.659 140.819 140.949C141.568 140.594 142.343 140.282 143.149 140.024C143.249 139.992 143.337 139.959 143.501 139.918L143.816 139.85C144.022 139.803 144.228 139.763 144.433 139.728C144.845 139.652 145.257 139.594 145.667 139.544C147.308 139.343 148.926 139.308 150.506 139.263C151.298 139.24 152.073 139.212 152.849 139.163L155.23 139.027C156.804 138.936 158.354 138.822 159.859 138.582C160.611 138.462 161.351 138.308 162.069 138.111L162.604 137.957C162.798 137.903 162.933 137.848 162.926 137.848C162.926 137.848 162.889 137.874 162.863 137.907C162.839 137.94 162.831 137.961 162.831 137.961C162.831 137.961 162.852 137.889 162.845 137.778C162.84 137.561 162.773 137.317 162.654 137.068C162.533 136.816 162.369 136.587 162.114 136.312C161.876 136.053 161.673 135.761 161.391 135.542C161.119 135.315 160.883 135.048 160.574 134.86C159.427 134.009 158.067 133.406 156.633 132.984C155.197 132.555 153.681 132.321 152.148 132.16C149.085 131.83 145.904 131.872 142.74 131.824C139.602 131.805 136.499 131.969 133.629 132.98C130.74 133.989 128.095 135.742 125.406 137.427C124.05 138.259 122.675 139.084 121.237 139.8C119.805 140.521 118.296 141.114 116.732 141.463L116.668 141.234Z" fill="#13355A"/>
<path d="M137.386 146.007C138.162 147.739 138.595 149.596 138.894 151.468C139.153 153.347 139.236 155.257 139.082 157.154C138.937 159.049 138.617 160.934 138.069 162.753C137.525 164.57 136.77 166.331 135.74 167.916L135.433 167.736C136.203 166.04 136.736 164.276 137.106 162.494C137.47 160.707 137.622 158.889 137.605 157.077C137.585 155.264 137.46 153.467 137.34 151.654C137.314 151.201 137.267 150.749 137.249 150.291C137.227 149.833 137.179 149.379 137.178 148.913C137.146 148.452 137.135 147.985 137.131 147.513C137.125 147.04 137.113 146.566 137.156 146.071L137.386 146.007Z" fill="#13355A"/>
<path d="M108.974 149.384C109.159 150.038 109.212 150.643 109.259 151.25C109.269 151.553 109.294 151.854 109.308 152.156L109.346 153.064C109.375 153.671 109.446 154.279 109.545 154.886C109.646 155.493 109.798 156.091 109.948 156.699L109.619 156.833C109.199 156.317 108.849 155.744 108.58 155.137C108.307 154.53 108.073 153.899 107.88 153.248C107.672 152.599 107.597 151.916 107.692 151.242C107.74 150.906 107.834 150.572 108.003 150.252C108.167 149.932 108.385 149.624 108.738 149.352L108.974 149.384Z" fill="#13355A"/>
<path d="M84.4618 147.689C83.8053 145.584 83.1162 143.506 82.4865 141.38C82.1875 140.313 81.9382 139.224 81.7985 138.108C81.6585 136.994 81.6274 135.849 81.806 134.712C81.9802 133.578 82.3822 132.459 83.0112 131.483C83.6291 130.503 84.4547 129.667 85.3232 128.947C86.961 127.604 88.1815 125.801 89.288 123.933C90.3929 122.058 91.4891 120.112 92.721 118.271C93.9384 116.419 95.2482 114.628 96.6303 112.895C98.0188 111.166 99.4777 109.498 101.022 107.901C101.796 107.101 102.62 106.323 103.54 105.644C104.451 104.96 105.492 104.399 106.569 104.016C107.646 103.63 108.747 103.382 109.835 103.169L113.081 102.555L119.568 101.334L132.544 98.9068L139.032 97.6958L142.277 97.0904L143.899 96.7876C144.445 96.6853 145.006 96.5984 145.583 96.5917C146.155 96.585 146.763 96.6633 147.31 96.9555C147.582 97.103 147.818 97.3127 148.013 97.5522C148.203 97.7977 148.339 98.0746 148.43 98.3554C148.619 98.9214 148.653 99.489 148.688 100.048C148.708 100.61 148.687 101.172 148.629 101.731C148.379 103.962 147.454 106.112 145.981 107.799L145.711 107.567C147.089 105.898 147.916 103.804 148.094 101.675C148.134 101.142 148.14 100.608 148.105 100.077C148.059 99.5472 148.003 99.0127 147.838 98.5568C147.681 98.0946 147.394 97.7438 146.995 97.5361C146.595 97.3331 146.101 97.2678 145.594 97.2867C145.085 97.3036 144.565 97.3933 144.037 97.5042L142.422 97.8413L139.191 98.5151L132.729 99.863L119.804 102.553L113.34 103.89L110.116 104.56C109.057 104.787 108.031 105.042 107.077 105.404C106.123 105.766 105.27 106.247 104.459 106.876C103.651 107.5 102.894 108.226 102.151 108.999C100.659 110.561 99.2362 112.207 97.8906 113.904C96.5556 115.611 95.2501 117.342 94.0568 119.152C93.4573 120.055 92.874 120.969 92.3174 121.9C91.7561 122.826 91.2169 123.79 90.6257 124.741C89.4367 126.628 88.0765 128.558 86.1928 130.026C85.372 130.672 84.6573 131.362 84.1015 132.186C83.554 133.006 83.1547 133.921 82.9435 134.909C82.5191 136.897 82.8023 139.07 83.257 141.182C83.6948 143.314 84.2553 145.465 84.6907 147.622L84.4618 147.689Z" fill="#13355A"/>
<path d="M85.3494 150.953C86.3111 152.332 87.049 153.857 87.6764 155.413C88.288 156.977 88.7813 158.579 89.2548 160.179C90.2004 163.385 90.9607 166.605 92.3232 169.607C93.5929 172.662 95.0376 175.656 96.4186 178.694C97.7976 181.731 99.1216 184.823 100.073 188.055C101.026 191.294 101.553 194.632 101.812 197.974C102.072 201.318 102.046 204.673 101.847 208.008C101.43 214.682 100.313 221.285 98.7467 227.764L98.4006 227.683C99.7025 221.164 100.65 214.572 100.875 207.958C100.984 204.654 100.901 201.348 100.575 198.078C100.243 194.812 99.6486 191.576 98.6586 188.485C97.6423 185.385 96.3419 182.366 94.9483 179.362C93.5717 176.351 92.1466 173.327 90.8769 170.205L90.425 169.024C90.2759 168.627 90.1386 168.214 89.9955 167.81C89.7363 166.995 89.4834 166.183 89.2784 165.364C88.8627 163.728 88.4827 162.105 88.1401 160.482C87.7861 158.862 87.4038 157.258 86.929 155.685C86.4885 154.098 85.9052 152.563 85.1504 151.085L85.3494 150.953Z" fill="#13355A"/>
<path d="M131.931 199.518C132.132 201.376 132.211 203.207 132.403 205.034L132.528 206.403C132.578 206.859 132.641 207.313 132.68 207.769L132.846 209.134C132.917 209.587 132.972 210.042 133.035 210.497C133.305 212.312 133.675 214.114 134.131 215.897C134.589 217.68 135.156 219.436 135.775 221.177L135.446 221.312C134.563 219.665 133.795 217.947 133.174 216.174C132.545 214.403 132.013 212.592 131.579 210.751C131.143 208.912 130.868 207.028 130.841 205.135C130.851 204.661 130.846 204.188 130.868 203.716C130.911 203.242 130.937 202.77 131.006 202.299C131.072 201.828 131.167 201.359 131.265 200.893C131.39 200.427 131.512 199.964 131.692 199.507L131.931 199.518Z" fill="#13355A"/>
<path opacity="0.2" d="M137.205 167.399C137.154 168.669 137.19 169.936 137.264 171.202C136.907 170.616 136.6 169.775 136.352 169.145C136.108 168.524 135.864 167.89 135.62 167.261C134.775 165.086 133.89 162.903 132.655 160.917C132.179 160.15 131.659 159.402 131.254 158.596C128.635 153.357 131.459 147.04 136.808 145.364C138.916 147.449 137.988 157.632 137.902 159.068C137.733 161.841 137.316 164.626 137.205 167.399Z" fill="#454546"/>
</svg>
