<svg width="162" height="215" viewBox="0 0 162 215" fill="none" xmlns="http://www.w3.org/2000/svg">
<path d="M150.114 208.03C150.114 210.689 119.278 210.681 91.1706 210.681C25.1222 210.681 25.2178 210.975 25.2178 208.03C25.2178 205.086 63.0632 205.38 91.1706 205.38C119.278 205.38 150.114 205.372 150.114 208.03Z" fill="#B8C2CD"/>
<path d="M93.758 102.8C93.5434 103.05 93.3086 103.291 93.0252 103.457C92.1749 103.962 91.1957 103.867 90.2971 104.38C88.0611 105.656 85.6965 106.703 83.2514 107.508C79.2406 108.833 75.0093 109.504 70.7836 109.47C70.1423 109.464 70.5088 109.094 70.1366 108.569C69.312 107.397 68.671 106.104 68.0324 104.819C66.3062 101.341 64.5797 97.8599 62.8535 94.382C66.9158 93.3987 70.8925 92.4065 74.6857 90.666C74.7372 90.6432 74.7858 90.6201 74.8373 90.5972C76.114 93.0345 77.2078 95.5661 78.1067 98.1641C78.4273 99.0959 86.3059 97.8459 87.2391 97.6739C88.3844 97.4619 90.5171 97.324 91.4649 96.6331C92.3238 96.005 92.6643 94.5401 93.406 93.6682C93.7038 93.3183 94.0444 92.9829 94.471 92.8195C94.9003 92.6591 95.4386 92.7077 95.7477 93.0461C95.9482 93.264 96.0284 93.5621 96.0885 93.8518C96.7497 96.9798 95.8594 100.395 93.758 102.8Z" fill="#D89F79"/>
<path opacity="0.1" d="M83.2514 107.508C79.2406 108.833 75.0093 109.504 70.7836 109.47C70.1422 109.464 70.5088 109.094 70.1366 108.569C69.312 107.397 68.671 106.104 68.0323 104.819C66.3062 101.341 64.5797 97.8599 62.8535 94.382C66.9134 93.3992 70.7149 91.9708 74.662 90.7093C75.115 91.9719 73.8286 92.9074 72.9785 93.5855C71.459 94.7972 70.5659 96.7583 70.6489 98.7022C70.6923 99.7229 70.987 100.718 71.3637 101.667C71.7149 102.552 72.2484 103.227 72.6834 104.045C73.1961 105.009 73.3722 106.034 74.3537 106.683C75.0522 107.141 75.9227 107.227 76.7556 107.291C78.9173 107.448 81.0843 107.523 83.2514 107.508Z" fill="#454546"/>
<path d="M39.0811 193.523C40.8598 193.535 42.6322 193.443 44.4002 193.466C44.1654 197.103 50.5998 197.799 53.2381 198.124C54.3114 198.256 55.4006 198.361 56.4715 198.211C57.7686 198.028 58.9917 197.477 60.288 197.288C62.6821 196.939 65.17 198.008 66.5839 199.972C67.8486 201.729 68.3737 205.203 66.2957 206.648C65.082 207.492 62.7781 206.741 61.4807 206.459C55.2551 205.108 48.8277 205.302 42.5179 205.825C41.7287 205.89 39.9172 206.442 39.3752 205.687C38.9109 205.04 39.314 202.548 39.2874 201.725C39.1981 198.993 39.0102 196.257 39.0811 193.523Z" fill="#454546"/>
<path d="M25.1386 196.55C27.0225 196.563 28.8995 196.465 30.7717 196.49C30.5229 200.342 37.3373 201.078 40.1314 201.423C41.2681 201.563 42.4216 201.674 43.5559 201.515C44.9298 201.321 46.225 200.738 47.5978 200.537C49.958 200.193 52.4036 201.147 53.9423 202.966C54.6788 203.837 55.1962 204.898 55.3658 206.031C55.5155 207.031 55.4299 208.578 54.9592 209.489C54.6633 210.062 52.4082 210.658 51.7688 210.677C50.7923 210.707 49.8078 210.456 48.8606 210.25C42.2671 208.819 35.4603 209.025 28.7777 209.579C27.9418 209.648 26.0235 210.233 25.4493 209.433C24.9577 208.748 25.3846 206.108 25.3562 205.237C25.2625 202.343 25.0637 199.446 25.1386 196.55Z" fill="#454546"/>
<path d="M78.8144 88.8595C73.9417 92.7247 68.3593 95.6866 62.4302 97.5589C61.9893 97.6965 61.5455 97.8315 61.1019 97.9575C60.6839 97.0284 60.1545 96.0937 59.8308 95.1302C59.5217 94.2213 59.5904 93.4299 59.4444 92.4694C59.1238 90.382 58.0789 88.4524 58.0158 86.3134C57.9673 84.7049 58.4911 83.1365 59.0063 81.6111C59.7334 79.4664 60.4577 77.3186 61.1849 75.174C61.5541 74.0845 61.9236 72.992 62.2928 71.8995C62.4817 71.3346 62.6736 70.7727 62.8654 70.2077C62.9427 69.9726 63.1002 69.0207 63.3235 68.9261C63.4265 68.8801 63.5467 68.9089 63.6527 68.9403C64.8323 69.2873 65.8257 69.9726 66.7101 70.7985C67.652 71.6816 68.468 72.7254 69.2553 73.6945C70.8156 75.6214 72.347 77.5709 73.8244 79.561C75.2702 81.5052 76.7131 83.4864 77.9069 85.5996C78.2163 86.1441 79.5931 88.24 78.8144 88.8595Z" fill="#8DD4F0"/>
<path opacity="0.1" d="M66.8542 95.2971C66.3328 95.5073 65.8114 95.7196 65.2801 95.9174C64.2913 96.2851 63.3116 97.2837 62.4302 97.5589C61.9893 97.6965 61.5455 97.8315 61.1019 97.9575C60.6839 97.0284 60.1544 96.0937 59.8308 95.1302C59.5217 94.2213 59.5904 93.4299 59.4444 92.4694C59.1238 90.382 58.0789 88.4524 58.0158 86.3134C57.9673 84.7049 58.491 83.1365 59.0062 81.6111C59.7334 79.4664 60.4577 77.3186 61.1848 75.174C61.5541 74.0845 61.9236 72.992 62.2928 71.8995C62.4817 71.3346 62.6736 70.7727 62.8654 70.2077C62.9427 69.9726 63.1002 69.0207 63.3235 68.9261C63.4265 68.8801 63.5467 68.9089 63.6527 68.9403C64.8323 69.2873 65.8257 69.9726 66.7101 70.7982C67.1249 71.1855 65.874 75.1788 65.8195 75.8759C65.6585 77.9308 66.0001 80.1289 66.3274 82.1526C66.9996 86.3064 68.2302 90.3433 69.4562 94.3595C68.5594 94.6161 67.7069 94.9534 66.8542 95.2971Z" fill="#454546"/>
<path d="M53.7353 115.328C53.4347 115.328 52.8678 118.118 52.198 122.221C50.4546 132.91 48.0125 152.513 47.7348 154.922C46.2203 168.152 44.8033 181.218 44.7002 194.519C44.7002 194.64 44.6946 194.772 44.6114 194.858C44.5255 194.947 44.3852 194.952 44.262 194.952C43.2086 194.952 42.1521 194.952 41.0957 194.955C40.6205 194.952 40.1482 194.955 39.673 194.955C39.5155 194.955 39.3467 194.952 39.2179 194.861C39.0405 194.737 39.0003 194.496 38.9745 194.282C36.9647 176.986 38.5079 158.865 38.8315 141.414C38.8401 141.024 38.8457 140.637 38.8516 140.25C38.8374 140.76 38.8057 141.277 38.7601 141.795C38.6257 143.332 38.3622 144.907 38.0531 146.481C37.5465 149.084 36.9223 151.691 36.5587 154.142C35.8144 159.145 35.1159 164.158 34.4518 169.172C33.1549 178.944 31.3828 188.719 31.3684 198.534C30.8931 198.537 30.415 198.539 29.9397 198.539C28.411 198.548 26.885 198.556 25.3563 198.562C25.2074 198.565 25.0413 198.559 24.9356 198.453C24.8669 198.385 24.8355 198.287 24.8097 198.192C23.0119 191.941 18.2796 158.87 16.8969 148.562C16.3586 144.542 15.8176 140.517 15.6717 136.462C15.4884 131.27 16.0095 126.068 17.169 121.005C17.8189 118.16 19.7769 107.399 22.571 106.055C23.8593 105.435 28.8377 108.369 30.2521 108.896C32.7886 109.842 35.3566 110.714 37.9473 111.508C43.1254 113.097 48.4046 114.373 53.7353 115.328Z" fill="#C2BFB2"/>
<path opacity="0.1" d="M53.7356 115.328C53.435 115.328 52.868 118.117 52.1983 122.22C51.5197 122.415 50.807 122.533 50.0742 122.567C43.9333 122.857 36.4039 124.778 32.8082 130.22C30.4206 133.836 30.1544 138.409 29.9999 142.742C29.3328 161.331 29.3127 179.945 29.9397 198.54C28.4111 198.548 26.885 198.557 25.3563 198.563C25.2074 198.566 25.0413 198.56 24.9356 198.454C24.8669 198.385 24.8355 198.287 24.8098 198.193C23.0119 191.942 18.2796 158.871 16.8969 148.563C16.3586 144.543 15.8176 140.517 15.6717 136.463C15.4884 131.27 16.0095 126.069 17.169 121.005C17.8189 118.161 19.7769 107.4 22.571 106.055C23.8593 105.436 28.8377 108.369 30.2521 108.897C32.7886 109.843 35.3566 110.714 37.9474 111.509C43.1257 113.097 48.4049 114.373 53.7356 115.328Z" fill="#454546"/>
<path d="M54.5663 56.5735C56.7141 61.2992 60.6419 65.1869 65.3855 67.2818C63.5418 68.3738 61.9879 69.9513 60.9231 71.8127C60.7399 72.133 60.5652 72.4687 60.2904 72.7146C60.0181 72.9584 59.6676 73.0952 59.318 73.2013C56.4753 74.0646 53.1576 73.0452 51.2876 70.7337C50.3452 69.5689 49.7991 68.1085 49.673 66.6196C49.5576 65.2571 50.283 63.934 49.9457 62.6427C49.8064 62.1095 49.548 61.615 49.3875 61.0877C49.1678 60.3656 49.1377 59.5867 49.3009 58.8498C49.3234 58.7482 49.3599 58.6345 49.4549 58.5923C49.5499 58.5501 49.6583 58.5996 49.7517 58.6453C50.4802 59.0014 52.0153 59.4854 52.8093 59.0796C53.0994 58.9312 54.6981 56.8637 54.5663 56.5735Z" fill="#D89F79"/>
<path opacity="0.1" d="M54.5663 56.5735C56.7141 61.2992 60.6419 65.1869 65.3855 67.2818C63.5418 68.3738 61.9879 69.9513 60.9231 71.8127C60.7399 72.133 60.5652 72.4687 60.2904 72.7146C60.0181 72.9584 59.6676 73.0952 59.318 73.2013C56.4753 74.0646 53.1576 73.0452 51.2876 70.7337C50.3452 69.5689 49.7991 68.1085 49.673 66.6196C49.5576 65.2571 50.283 63.934 49.9457 62.6427C49.8064 62.1095 49.548 61.615 49.3875 61.0877C49.1678 60.3656 49.1377 59.5867 49.3009 58.8498C49.3234 58.7482 49.3599 58.6345 49.4549 58.5923C49.5499 58.5501 49.6583 58.5996 49.7517 58.6453C50.4802 59.0014 52.0153 59.4854 52.8093 59.0796C53.0994 58.9312 54.6981 56.8637 54.5663 56.5735Z" fill="#454546"/>
<path d="M110.872 87.5956C113.393 85.6888 115.405 83.1668 117.216 80.5503C119.067 77.8773 120.859 75.1264 122.119 72.1277C126.656 61.3277 126.739 51.5936 126.646 50.7188C126.366 48.1006 125.385 48.0283 125 47.6359C125.012 47.6652 124.607 47.5499 124.599 47.7225C124.568 48.379 124.818 50.0351 124.76 50.1547C124.568 50.5546 125.454 50.823 125.255 51.2195C124.857 52.0123 124.446 52.7984 124.024 53.5788C123.18 55.1402 122.294 56.6783 121.387 58.204C120.462 59.7606 119.516 61.3043 118.569 62.848C115.668 67.5793 112.767 72.3107 109.866 77.042C108.438 79.3713 107.01 81.7005 105.581 84.0298C104.99 84.9946 104.269 85.8791 103.627 86.8097C103.261 87.34 102.906 87.8802 102.598 88.4467C102.292 89.01 102.155 89.4623 101.622 89.8759C102.391 90.4516 102.93 90.6641 103.875 90.5295C104.711 90.4104 105.537 90.2207 106.341 89.9624C107.972 89.4378 109.505 88.6289 110.872 87.5956Z" fill="#6E6B6B"/>
<path d="M98.6252 38.4493C98.2358 41.9933 97.6173 45.5115 96.7758 48.9751C96.3809 50.6008 95.8997 52.2869 94.7604 53.514C93.1257 55.2746 90.4775 55.7334 88.7111 57.365C87.2623 58.7039 86.5811 60.6566 85.5761 62.357C83.3001 66.202 79.0889 68.8285 74.6399 69.1811C72.6387 69.3388 70.6262 69.0636 68.6451 68.7309C66.9018 68.4356 65.1667 68.0972 63.4405 67.7159C61.6054 67.3087 59.7303 66.8271 58.2188 65.7088C55.5478 63.7389 54.5515 60.2151 54.2107 56.9148C53.6982 51.9486 54.2764 46.9453 54.8576 41.9876C53.9702 43.083 52.0578 42.6958 51.219 41.5603C50.3802 40.4248 50.3545 38.8908 50.512 37.4887C50.6579 36.1899 50.9357 34.9023 51.3336 33.658C51.7487 32.3621 52.3243 31.0718 53.3147 30.1398C54.3054 29.208 55.7882 28.7033 57.0649 29.1763C58.9001 29.853 58.4793 31.5991 58.9744 33.0444C58.9859 33.0845 59.0031 33.1248 59.0173 33.1648C61.7943 27.1921 66.4091 22.1773 72.0806 18.9544C74.5112 17.5725 77.1365 16.523 79.8934 15.8662C81.8058 15.4104 83.8127 15.1408 85.7363 15.5593C90.2196 16.537 93.0508 20.8609 95.3499 24.8408C96.7613 27.2781 98.1784 29.7899 98.6536 32.5682C98.9858 34.507 98.8399 36.4938 98.6252 38.4493Z" fill="#D89F79"/>
<path opacity="0.1" d="M98.6252 38.4493C98.2358 41.9933 97.6173 45.5115 96.7758 48.9751C96.3809 50.6008 95.8997 52.2869 94.7604 53.514C93.1257 55.2746 90.4775 55.7334 88.7111 57.365C87.2623 58.7039 86.5811 60.6566 85.5761 62.357C83.3001 66.202 79.0889 68.8285 74.6399 69.1811C72.6387 69.3388 70.6262 69.0636 68.6451 68.7309C66.9018 68.4356 65.1667 68.0972 63.4405 67.7159C61.6054 67.3087 59.7303 66.8271 58.2188 65.7088C55.5478 63.7389 54.5515 60.2151 54.2107 56.9148C53.6982 51.9486 54.2764 46.9453 54.8576 41.9876C53.9702 43.083 52.0578 42.6958 51.219 41.5603C50.3802 40.4248 50.3545 38.8908 50.512 37.4887C50.6579 36.1899 50.9357 34.9023 51.3336 33.658C51.7487 32.3621 52.3243 31.0718 53.3147 30.1398C54.3054 29.208 55.7882 28.7033 57.0649 29.1763C58.9001 29.853 58.4793 31.5991 58.9744 33.0444C58.9859 33.0845 59.0031 33.1248 59.0173 33.1648C61.7943 27.1921 66.4091 22.1773 72.0806 18.9544C74.5112 17.5725 77.1365 16.523 79.8934 15.8662C81.8058 15.4104 83.8127 15.1408 85.7363 15.5593C90.2196 16.537 93.0508 20.8609 95.3499 24.8408C96.7613 27.2781 98.1784 29.7899 98.6536 32.5682C98.9858 34.507 98.8399 36.4938 98.6252 38.4493Z" fill="#454546"/>
<path d="M79.9695 25.3141C81.9071 27.4477 83.8445 29.5813 85.7821 31.7152C85.8074 30.2629 85.8323 28.8105 85.8575 27.3582C89.4111 31.8815 91.7732 37.3353 92.6429 43.0245C93.2203 43.0933 93.8238 42.8952 94.2489 42.4977C94.2269 44.9584 94.5234 47.4215 95.1284 49.8064C95.2288 50.202 95.3538 50.6215 95.6686 50.8811C95.9337 51.0999 96.2922 51.1673 96.6357 51.1797C99.447 51.2826 101.364 48.4064 102.451 45.8079C103.609 43.0406 104.513 40.0913 104.392 37.0931C104.271 34.095 102.988 31.0253 100.516 29.3303C101.249 29.2658 101.983 29.2016 102.716 29.1371C101.021 22.3226 95.4585 16.6165 88.6938 14.7552C85.6778 13.9253 82.4478 13.8812 79.3934 14.5324C77.8365 14.8643 76.317 15.3811 74.8905 16.0898C74.1834 16.441 73.4992 16.8393 72.8471 17.2852C72.0821 17.8082 71.7574 18.1054 71.4513 18.963C71.4051 19.0923 71.3587 19.2355 71.4075 19.3637C71.4636 19.5115 72.1508 19.6204 72.3124 19.6854C72.7642 19.8673 73.2185 20.0485 73.6554 20.2648C76.2104 21.5298 78.0563 23.2071 79.9695 25.3141Z" fill="#F37059"/>
<path opacity="0.4" d="M77.7115 27.5307C75.0289 27.5794 72.4666 28.0325 70.0275 29.1881C65.8592 31.1637 62.2377 34.3264 59.8214 38.2689C59.9244 38.1026 59.1715 36.3936 59.1143 36.1127C58.9284 35.2068 58.7993 34.2804 58.9225 33.3572C58.9367 33.254 58.9539 33.1479 58.974 33.0447C58.9855 33.0847 59.0027 33.125 59.0169 33.1651C61.7939 27.1924 66.4087 22.1775 72.0802 18.9547C72.2061 18.9375 72.3322 18.9232 72.461 18.9146C74.3533 18.7913 76.1283 19.8034 77.6372 20.9534C79.6899 22.5161 81.502 24.3971 82.988 26.5073C84.3648 28.4625 78.871 27.5106 77.7115 27.5307Z" fill="#F37059"/>
<path d="M75.6478 10.3952C74.8815 9.11976 73.795 8.07056 72.6758 7.09097C72.0149 6.51235 71.3078 5.93669 70.4591 5.71282C69.0806 5.34947 67.6107 6.0036 66.5489 6.95605C65.6954 7.72172 65.0202 8.68573 64.5922 9.75025C63.9654 11.3095 63.8777 13.0258 63.8082 14.7055C63.7709 15.6071 63.7414 16.5389 64.0693 17.3795C64.6274 18.8106 66.3622 19.8362 67.8629 19.9641C70.9753 20.2299 73.6361 18.171 75.717 16.1234C77.3348 14.531 76.7496 12.2287 75.6478 10.3952Z" fill="#F37059"/>
<path d="M66.9318 51.1738C67.1035 51.4213 67.8087 51.6425 67.4907 51.184C67.3193 50.9365 66.6141 50.7155 66.9318 51.1738Z" fill="#AA7461"/>
<path d="M70.4427 52.8255C70.4123 53.1983 70.937 53.7261 70.9823 53.1682C71.0129 52.7954 70.488 52.2679 70.4427 52.8255Z" fill="#AA7461"/>
<path d="M72.2341 56.0397C72.7163 56.0397 72.8636 55.4076 72.3015 55.4076C71.8193 55.4076 71.672 56.0397 72.2341 56.0397Z" fill="#AA7461"/>
<path d="M76.6402 56.0301C77.1155 56.0301 77.2759 55.4176 76.7127 55.4176C76.2375 55.4176 76.077 56.0301 76.6402 56.0301Z" fill="#AA7461"/>
<path d="M67.9809 54.5629C68.0265 54.8892 68.594 55.3614 68.5162 54.807C68.4709 54.481 67.9034 54.0088 67.9809 54.5629Z" fill="#AA7461"/>
<path d="M74.3091 56.3144C74.3767 56.5848 74.9314 57.079 74.7967 56.5399C74.729 56.2693 74.1744 55.7753 74.3091 56.3144Z" fill="#AA7461"/>
<path d="M75.9078 57.6278C75.944 57.6692 75.9942 57.7119 76.0608 57.7549C76.2126 57.8525 76.4144 57.8675 76.5789 57.7931C76.6226 56.9178 75.5418 57.2083 75.9078 57.6278Z" fill="#AA7461"/>
<path d="M82.7435 61.229C82.6906 61.4852 82.9445 62.1874 83.0564 61.6459C83.1095 61.3898 82.8557 60.6872 82.7435 61.229Z" fill="#AA7461"/>
<path d="M84.7509 62.2369C85.2079 62.3231 85.4923 61.7816 84.9377 61.6768C84.4807 61.5905 84.1963 62.1321 84.7509 62.2369Z" fill="#AA7461"/>
<path d="M83.0256 63.9502C83.3503 64.1243 84.0456 63.8642 83.5529 63.5997C83.2282 63.4253 82.533 63.6857 83.0256 63.9502Z" fill="#AA7461"/>
<path d="M81.8629 60.046C81.8817 59.6918 81.3738 59.1532 81.3443 59.7125C81.3255 60.0667 81.8334 60.6053 81.8629 60.046Z" fill="#AA7461"/>
<path d="M80.9388 62.3011C81.1851 62.5029 81.9227 62.4857 81.4905 62.1318C81.2441 61.93 80.5065 61.9472 80.9388 62.3011Z" fill="#AA7461"/>
<path d="M63.5585 53.8105C63.7645 54.0429 64.4936 54.159 64.123 53.7414C63.917 53.5092 63.1879 53.3928 63.5585 53.8105Z" fill="#AA7461"/>
<path d="M63.6945 47.4475C63.8998 47.6714 64.6288 47.7897 64.2518 47.3785C64.0466 47.1549 63.3172 47.0366 63.6945 47.4475Z" fill="#AA7461"/>
<path d="M68.9529 49.8542C69.0667 49.5379 68.7717 48.8606 68.582 49.3871C68.4682 49.7034 68.7631 50.3809 68.9529 49.8542Z" fill="#AA7461"/>
<path d="M75.4871 54.3079C75.8464 54.3079 76.3493 53.7637 75.7904 53.7637C75.4313 53.7637 74.9282 54.3079 75.4871 54.3079Z" fill="#AA7461"/>
<path d="M72.4166 58.1339C72.445 58.1497 72.4762 58.1613 72.5097 58.1677C72.5706 58.0046 72.4212 57.9127 72.2803 57.9549C72.2929 58.0315 72.3452 58.0938 72.4166 58.1339Z" fill="#AA7461"/>
<path d="M50.5658 59.1186C50.3579 58.7695 50.0906 58.4701 49.7324 58.2811C48.8021 57.7904 47.5892 57.4676 46.5835 57.147C45.2756 56.7299 43.9702 56.3037 42.6846 55.821C41.2743 55.291 29.6951 72.9431 28.5579 74.788C24.1551 81.9317 22.6117 88.7706 20.2592 96.5382C18.5003 102.346 16.4727 108.151 15.998 114.208C29.284 115.397 42.0591 120.679 55.4889 120.484C55.4731 120.484 55.4329 118.585 55.4297 118.41C55.2751 109.755 56.2797 101.083 58.3853 92.6881C59.4431 88.4712 60.7781 84.3238 62.3798 80.2824C63.184 78.253 64.0552 76.2506 64.9923 74.279C65.5032 73.2043 67.0863 71.3609 66.1871 70.1142C66.0908 69.9806 65.9636 69.8726 65.8359 69.7689C65.2152 69.2658 64.5409 68.829 63.8285 68.4684C63.7343 68.4208 63.6372 68.3738 63.5322 68.363C63.262 68.3353 62.8703 68.6799 62.6301 68.7997C62.2365 68.9965 61.8407 69.1884 61.4468 69.3843C60.8645 69.674 60.2725 69.9538 59.7088 70.2787C58.5686 70.9358 57.3117 71.4472 56.1429 72.0594C55.6164 72.3351 55.091 72.6501 54.545 72.8732C54.5221 72.8823 52.5483 67.4627 52.4297 66.9252C51.9416 64.7096 51.7175 62.4349 51.0453 60.2616C50.9243 59.8721 50.7754 59.4701 50.5658 59.1186Z" fill="#1CAAE2"/>
<path opacity="0.1" d="M50.5658 59.1186C50.3579 58.7694 50.0906 58.4701 49.7324 58.2811C48.8021 57.7904 47.5892 57.4676 46.5835 57.147C45.2756 56.7299 43.9702 56.3037 42.6846 55.821C41.2742 55.291 29.6951 72.9431 28.5579 74.788C24.1551 81.9317 22.6117 88.7705 20.2592 96.5382C18.5003 102.346 16.4727 108.151 15.998 114.208C22.7085 114.809 29.2575 116.452 35.8212 117.894C37.6584 118.298 39.419 119.003 41.2547 119.421C43.4126 119.914 45.6642 119.987 47.8642 120.177C48.209 117.304 48.2544 114.168 48.959 111.365C49.679 108.502 50.9372 105.667 51.945 102.893C53.353 99.0188 54.5425 94.7446 56.4777 91.1071C58.4824 87.3386 60.1611 83.3388 61.941 79.4395C62.3338 78.579 62.7278 77.7163 63.2145 76.9052C63.6401 76.1965 64.1341 75.5314 64.5701 74.8291C65.198 73.8181 65.7028 72.7364 66.2056 71.6574C66.2961 71.4633 66.3886 71.2577 66.3696 71.0446C66.3443 70.7638 66.1342 70.5399 65.9357 70.3399C64.8103 69.2066 64.4121 67.8336 62.6293 68.8008C62.2356 68.9975 61.8398 69.1894 61.4459 69.3853C60.8636 69.6751 60.2717 69.9548 59.7079 70.2797C58.5678 70.9368 57.3109 71.4483 56.1421 72.0605C55.6156 72.3362 55.0902 72.6512 54.5441 72.8743C54.5213 72.8834 52.5475 67.4638 52.4289 66.9263C51.9408 64.7107 51.7167 62.436 51.0445 60.2626C50.9243 59.8721 50.7754 59.4701 50.5658 59.1186Z" fill="#454546"/>
<path d="M94.9567 93.1211C94.953 93.1415 94.5381 94.2447 94.3138 94.7704C94.0197 95.4597 93.5303 96.2703 92.5184 96.3458C91.3326 94.8405 91.4174 92.317 92.045 90.6271C92.1687 90.2938 92.2951 89.9557 92.5071 89.6706C92.9525 89.0707 94.3111 88.3209 95.0193 88.8482C95.3426 89.089 95.4827 89.5061 95.5401 89.9055C95.6222 90.4755 95.5726 91.0641 95.396 91.612C95.2286 92.1313 95.0517 92.5908 94.9567 93.1211Z" fill="#D89F79"/>
<path d="M101.26 90.0081C101.406 90.0936 101.559 90.1911 101.624 90.347C101.739 90.6203 101.534 90.9146 101.34 91.138C100.531 92.0668 99.6694 92.9673 98.6374 93.6381C97.5499 94.3449 95.3724 95.3479 94.6425 94.0284C94.1335 93.1079 94.3607 90.8743 94.8008 89.935C96.0915 87.1814 99.3646 88.8971 101.26 90.0081Z" fill="#D89F79"/>
<path d="M88.9587 107.304C92.4159 102.148 94.4633 96.2708 96.6928 90.5311C97.2129 89.1922 98.0954 87.6155 99.5916 87.6391C100.905 87.6598 101.813 89.0525 101.752 90.3049C101.691 91.5572 100.957 92.6752 100.272 93.7446C97.3519 98.2983 95.052 103.097 92.6517 107.902C92.1529 108.901 90.4498 112.991 89.3792 113.179C85.842 113.8 88.3595 108.198 88.9587 107.304Z" fill="#6E6B6B"/>
<path d="M125.991 50.1364C125.994 50.1393 125.994 50.145 125.991 50.1479C125.988 50.3543 125.977 50.5637 125.96 50.7701C125.21 60.6136 122.499 70.3596 117.274 78.5229C116.913 79.0878 116.538 79.6441 116.154 80.1915C114.531 82.5055 112.691 84.6732 110.621 86.6601C109.43 87.8071 106.341 89.9633 102.318 89.8542C101.792 89.8399 101.491 89.7023 101.245 89.229C101.061 88.8764 100.933 88.4978 100.833 88.1108C100.423 86.505 100.518 84.8334 100.449 83.1935C100.191 76.9945 101.497 70.7294 104.265 65.1754C106.85 59.9971 110.698 55.4638 115.344 52.0287C115.553 51.8739 115.762 51.7217 115.974 51.5729C117.786 50.2882 119.716 49.1673 121.734 48.2382C122.45 47.9084 123.168 47.6362 123.821 47.5988C124.511 47.5588 125.13 47.7765 125.599 48.4618C125.931 48.9466 126.003 49.54 125.991 50.1364Z" fill="#D2EEF9"/>
<path d="M101.977 88.4518C101.928 87.5327 102.001 86.595 102.053 85.6934C102.147 84.0661 102.353 82.4474 102.606 80.8381C103.401 75.7776 104.995 70.8417 107.33 66.2832C109.908 61.2511 113.385 56.6861 117.532 52.8486C118.698 51.7701 119.914 50.736 121.188 49.7876C122.357 48.9168 123.505 47.8843 125.001 47.636C123.664 46.931 122.186 46.5545 120.701 46.322C119.95 46.2043 119.193 46.1218 118.436 46.0525C117.798 45.9939 117.399 46.1697 116.794 46.3288C114.628 46.899 112.583 47.8123 110.697 49.0227C106.807 51.5202 103.672 55.1072 101.306 59.0538C98.9923 62.912 97.3203 67.2319 96.6422 71.6901C96.5 72.6251 96.4037 73.5676 96.3634 74.5126C96.2199 77.8881 96.0889 81.2918 96.6747 84.6213C96.858 85.6627 97.0249 86.7579 97.6149 87.6598C97.9482 88.1691 98.2485 88.1989 98.7328 88.4905C99.1667 88.7515 99.5223 89.1153 99.9427 89.3927C100.297 89.6265 100.766 89.7128 101.159 89.8899C101.562 90.0713 101.97 90.2543 102.405 90.3293C102.251 90.303 102.129 89.6698 102.105 89.5475C102.036 89.186 101.997 88.8189 101.977 88.4518Z" fill="#6E6B6B"/>
<path d="M95.38 95.0158C94.0786 95.4208 93.609 97.3705 94.5826 98.3254C93.4572 98.5901 92.5263 99.5506 92.2955 100.685C92.0648 101.819 92.5459 103.068 93.4778 103.753C92.6889 103.926 92.4737 105.058 92.9079 105.739C93.342 106.421 94.1489 106.748 94.9043 107.034C96.5261 107.648 98.1479 108.263 99.7697 108.877C101.652 109.59 103.917 110.374 104.957 108.059C105.369 107.144 105.43 106.118 105.576 105.125C105.824 103.434 106.259 101.326 107.34 99.9909C108.41 98.6689 109.438 97.9021 109.372 95.9792C109.318 94.4301 108.505 92.9469 107.296 91.9794C105.739 90.7332 103.633 90.3476 101.646 90.5091C100.028 90.6405 97.7494 90.992 96.3232 91.816C95.7936 92.1221 95.453 92.3914 95.2207 93.0122C95.1581 93.1797 94.9843 95.1391 95.38 95.0158Z" fill="#D89F79"/>
<path d="M31.5888 122.109C31.5545 122.327 31.4715 122.521 31.3283 122.688C31.314 122.705 31.2995 122.722 31.2853 122.736C30.7328 123.347 29.9683 123.717 29.2269 124.075C28.0704 124.629 26.8307 125.3 25.554 125.52C24.1455 125.764 24.1742 125.102 23.5901 123.883C22.4164 121.44 21.2424 118.997 20.0687 116.554C17.7211 111.672 15.949 104.492 13.6016 99.6057C13.2179 98.8056 12.8285 97.9913 12.6683 97.1168C12.425 95.7865 12.7285 94.4186 13.1122 93.1227C13.1495 92.9993 13.1865 92.8759 13.2208 92.7555C14.3489 88.9707 14.9959 87.2131 16.3842 83.3708C17.1458 81.2662 17.9618 79.1788 18.8663 77.1315C19.1411 76.5094 19.8455 74.2844 20.6641 73.1489C20.6641 73.1489 20.6641 73.1459 20.6671 73.1459C20.9392 72.7702 21.2225 72.5122 21.5089 72.4749C21.924 72.4203 22.2733 72.796 22.5682 73.3206C23.0405 74.1578 23.3783 75.3707 23.6448 75.8095C24.6524 77.4726 25.8808 79.0294 27.4066 80.2482C27.8131 80.575 28.2338 80.8935 28.6463 81.2173C28.8352 81.3635 29.0214 81.5127 29.2044 81.6618C29.9745 82.2926 30.6987 82.9693 31.2684 83.7806C31.423 83.9986 31.5689 84.2364 31.6033 84.5033C31.6406 84.7785 31.5574 85.051 31.4517 85.312C31.4289 85.3636 31.4088 85.4122 31.3859 85.4638C31.0395 86.2752 30.7103 87.0322 30.3926 87.7463C28.357 92.3253 26.7424 95.1813 23.224 99.6458C25.4284 102.955 29.488 116.417 30.2611 118.249C30.6384 119.141 31.7892 120.936 31.5888 122.109Z" fill="#D89F79"/>
<path d="M45.822 56.8231C43.2312 62.3685 40.7921 67.9913 38.5131 73.6743C37.5254 76.1374 36.5693 78.6147 35.6387 81.1006C35.1005 82.5457 34.5708 84.0023 33.8438 85.3644C33.1368 86.689 32.7759 87.7815 31.2729 87.0046C31.2043 86.9701 31.1356 86.9328 31.0698 86.8927C29.0144 85.7887 27.2192 84.0741 25.6849 82.3452C24.4567 80.9604 23.3174 79.4551 22.3039 77.8609C21.8515 77.1468 21.4221 76.4158 21.0242 75.6733C19.9248 73.6232 19.0402 71.4697 18.4361 69.2649C18.3932 69.1131 18.3532 68.961 18.313 68.8091C18.2987 68.7519 18.2872 68.6973 18.273 68.6401C18.233 68.4737 18.2013 68.3017 18.2043 68.1327C18.2043 68.0582 18.2099 67.9808 18.2271 67.9091C18.2872 67.6366 18.4563 67.4159 18.6221 67.2152C19.1891 66.5242 19.7872 65.8617 20.4143 65.228C20.5289 65.1106 20.6434 64.9958 20.7578 64.884C20.7921 64.8496 20.8264 64.8182 20.8578 64.7865C21.0239 64.626 21.19 64.4653 21.3588 64.3105C21.3674 64.3019 21.376 64.2933 21.3846 64.2877C21.5593 64.1243 21.734 63.9636 21.9143 63.8061C21.9457 63.7746 21.98 63.7459 22.0144 63.7171C22.1947 63.5567 22.378 63.3989 22.5612 63.2441C22.7303 63.1009 22.8991 62.9603 23.0708 62.8227C24.5595 61.6155 26.1311 60.5432 27.7487 59.5598C28.2926 59.2271 28.8394 58.9059 29.3919 58.5934C30.6574 57.8766 31.9427 57.2029 33.2253 56.5547C34.5622 55.8779 35.9221 55.1612 37.3794 54.969C38.8453 54.7769 40.0735 54.84 41.4906 55.27C41.6395 55.316 42.3608 55.5683 43.1738 55.8578C44.3937 56.2897 45.822 56.8086 45.822 56.8231Z" fill="#8DD4F0"/>
<path d="M20.864 125.861C23.3056 125.934 25.8902 126.267 28.2472 125.437C30.3979 124.68 31.9816 122.848 32.9248 120.823C33.1078 120.43 31.5936 120.58 31.3771 121.045C30.4921 122.945 29.0012 124.723 26.8374 125.066C25.0806 125.344 23.2586 125.118 21.4922 125.065C20.959 125.049 19.8224 125.83 20.864 125.861Z" fill="#13355A"/>
<path d="M46.7266 58.2392C47.2627 58.139 47.809 58.0995 48.3572 58.082C48.9097 58.0788 49.4467 58.1067 50.0118 58.1868C50.2957 58.2346 50.6144 58.3166 50.8879 58.5434C51.1704 58.7727 51.3105 59.1024 51.3977 59.3749L51.8525 60.9412L52.6927 64.0689C52.9602 65.1146 53.2304 66.1598 53.4859 67.2087C53.7435 68.2617 54.0072 69.2937 54.2597 70.3639C54.3751 70.9051 54.4511 71.4362 54.5758 71.9422C54.6078 72.0691 54.6408 72.1916 54.6802 72.3045C54.7189 72.4144 54.7704 72.5168 54.8117 72.5614C54.8332 72.5805 54.8407 72.5905 54.8568 72.5923C54.8697 72.5999 54.9035 72.5964 54.9429 72.5918C55.0285 72.5749 55.1404 72.5235 55.2478 72.465C56.1445 71.9336 57.0692 71.297 58.1015 70.9003C59.0707 70.5249 59.9777 69.8567 61.0706 69.6009L61.1307 69.8363C60.1223 70.1534 59.3219 70.8887 58.2842 71.3513C57.8125 71.5665 57.3636 71.835 56.9227 72.1269C56.7021 72.2728 56.4832 72.4246 56.2631 72.5786C56.0358 72.7345 55.8394 72.8845 55.5754 73.05C55.4426 73.1288 55.3062 73.2115 55.0967 73.2683C54.9861 73.2922 54.8587 73.3139 54.7025 73.2803C54.5482 73.2535 54.4038 73.1624 54.3089 73.071C54.1237 72.8834 54.0574 72.7165 53.9898 72.5663C53.9286 72.4169 53.883 72.2744 53.8406 72.1387C53.6729 71.5902 53.5666 71.0519 53.4338 70.5536L52.5108 67.4665C52.192 66.4342 51.9059 65.3931 51.6137 64.3538C51.3328 63.3116 51.0819 62.2613 50.82 61.214L50.4771 59.6528C50.4277 59.4271 50.378 59.2986 50.3096 59.2209C50.2345 59.1328 50.0687 59.0344 49.8481 58.9648C49.6302 58.8931 49.3578 58.8415 49.1083 58.7791C48.8531 58.7192 48.595 58.6722 48.3347 58.6257C47.8138 58.516 47.2836 58.4695 46.7408 58.4018L46.7266 58.2392Z" fill="#13355A"/>
<path d="M65.5973 69.5877C65.8895 69.8462 66.2091 70.0879 66.4678 70.4136C66.5292 70.4953 66.5936 70.5724 66.6449 70.6842C66.6704 70.738 66.6897 70.81 66.6854 70.8812C66.6819 70.9519 66.6618 71.0124 66.6419 71.065L66.3908 71.609C66.0605 72.3244 65.7387 73.0436 65.421 73.7644C64.7786 75.2024 64.1607 76.651 63.5711 78.1106C62.3894 81.0287 61.2769 83.9742 60.2792 86.9595C59.7723 88.4481 59.2722 89.9439 58.8171 91.4457C58.3625 92.9491 57.9453 94.4643 57.5739 95.9905C56.829 99.043 56.258 102.136 55.8308 105.249C55.4098 108.357 55.2786 111.509 55.0073 114.662C54.8747 116.238 54.6952 117.815 54.4304 119.381C54.37 119.774 54.2868 120.163 54.2149 120.553L54.2009 120.626L54.1929 120.667C54.1827 120.705 54.1677 120.743 54.1494 120.778C54.074 120.898 53.9806 120.948 53.9192 120.976C53.7845 121.036 53.6739 121.057 53.565 121.076C53.3482 121.111 53.1445 121.12 52.9408 121.126C52.1307 121.14 51.3421 121.079 50.5527 121.011C48.9759 120.867 47.4113 120.662 45.8491 120.438C45.0682 120.325 44.2884 120.205 43.5097 120.078L42.3422 119.879L41.7578 119.769C41.564 119.734 41.3553 119.679 41.1712 119.625C38.1339 118.782 35.1412 117.74 32.0098 117.466L32.0291 117.224C35.2064 117.423 38.2635 118.383 41.2946 119.167C41.4927 119.219 41.655 119.259 41.8498 119.291L42.4267 119.387L43.5905 119.562C44.3681 119.673 45.1471 119.777 45.9269 119.873C47.4859 120.065 49.0487 120.238 50.6074 120.348C51.384 120.399 52.1691 120.442 52.9183 120.413C53.1024 120.404 53.2886 120.39 53.4434 120.361C53.5188 120.349 53.5924 120.324 53.6034 120.317C53.6205 120.315 53.5704 120.316 53.5135 120.414C53.4944 120.444 53.481 120.479 53.4756 120.514L53.4807 120.485L53.4931 120.413C53.5559 120.028 53.6297 119.646 53.6812 119.259C53.9087 117.716 54.0563 116.159 54.1628 114.593C54.3791 111.462 54.4561 108.294 54.831 105.119C55.1948 101.959 55.7675 98.8242 56.504 95.7285C57.2454 92.6325 58.223 89.5962 59.2711 86.6106C59.8142 85.1212 60.3807 83.6409 60.9721 82.1706C61.568 80.7024 62.1664 79.2348 62.8458 77.8026C63.5148 76.3664 64.2031 74.9399 64.9297 73.5335C65.3035 72.8353 65.6808 72.1395 66.0664 71.4488L66.35 70.9419C66.3822 70.8632 66.3924 70.86 66.3736 70.7982C66.3548 70.7372 66.3004 70.6544 66.251 70.5759C66.0513 70.2666 65.7599 69.9957 65.4865 69.7076L65.5973 69.5877Z" fill="#13355A"/>
<path d="M59.082 90.1129L59.7609 91.9515C59.9826 92.5645 60.2141 93.1735 60.4548 93.7779C60.6867 94.3858 60.9212 94.9921 61.1691 95.5928L61.9272 97.3883L61.3991 97.2109C62.1402 96.7804 62.9136 96.4162 63.7009 96.1056C64.49 95.7984 65.2873 95.5307 66.0826 95.2757C67.6746 94.7718 69.2602 94.2977 70.7414 93.5901C72.2269 92.8867 73.6279 91.9969 74.9682 91.0211C75.639 90.533 76.2956 90.0235 76.945 89.5031C77.5981 88.9871 78.2445 88.4612 78.8907 87.9336L79.0482 88.1183C78.4434 88.6945 77.8383 89.2712 77.2217 89.8383C76.5967 90.3954 75.9618 90.9439 75.3079 91.4742C74.0011 92.5333 72.6168 93.5248 71.1053 94.334C69.5862 95.1456 67.9709 95.7084 66.4151 96.2821C65.6334 96.5622 64.8595 96.8342 64.113 97.1462C63.3638 97.4496 62.6289 97.7643 61.9414 98.1535L61.2376 98.5515L60.926 97.8121C60.6692 97.2029 60.4457 96.5799 60.2313 95.9548C60.0116 95.3316 59.8323 94.6938 59.6525 94.0582C59.4848 93.4183 59.3313 92.7752 59.2074 92.1248C59.1438 91.8002 59.0984 91.4707 59.0469 91.1439L58.975 90.6526L58.9248 90.1565L59.082 90.1129Z" fill="#13355A"/>
<path d="M63.6749 96.653C65.1556 99.1292 66.6561 101.577 68.3203 103.914C69.1395 105.091 69.9936 106.243 70.8802 107.369C71.3294 107.931 71.7367 108.537 72.2541 108.805C72.7685 109.075 73.4715 109.048 74.1871 109.013C77.0374 108.9 79.8772 108.443 82.6316 107.67C85.3866 106.895 88.0501 105.789 90.5668 104.406L90.6881 104.616C88.2537 106.187 85.5889 107.404 82.8211 108.313C80.0521 109.225 77.1635 109.798 74.2381 110.021C73.8751 110.051 73.508 110.085 73.0881 110.072C72.6762 110.062 72.2055 109.991 71.7601 109.764C71.3165 109.54 70.9875 109.221 70.7189 108.923C70.4485 108.62 70.237 108.345 70.0036 108.06C69.0952 106.92 68.2554 105.727 67.4402 104.52C66.6454 103.298 65.9045 102.042 65.2463 100.742C64.5803 99.4474 64.0074 98.1042 63.5303 96.7266L63.6749 96.653Z" fill="#13355A"/>
<path d="M40.5573 134.185C39.7655 139.599 38.8722 144.995 37.9556 150.387C37.0376 155.779 36.0357 161.155 35.17 166.551C34.2636 171.939 33.4725 177.347 32.9101 182.779C32.6233 185.494 32.4196 188.218 32.2674 190.944C32.1287 193.671 32.0793 196.401 32.1011 199.132L32.1024 199.311L31.9275 199.303L25.1445 199.018L25.1531 198.776L31.9425 198.876L31.6744 199.141C31.595 196.401 31.5872 193.658 31.6691 190.917C31.7641 188.177 31.9114 185.437 32.1421 182.704C32.5986 177.238 33.3043 171.797 34.1155 166.379C34.9489 160.964 35.9184 155.579 36.9499 150.208L37.7401 146.182L38.1388 144.17L38.5709 142.164C38.8633 140.827 39.1365 139.487 39.4451 138.153C39.7612 136.821 40.0556 135.484 40.3971 134.156L40.5573 134.185Z" fill="#13355A"/>
<path d="M38.6489 149.387C38.5826 153.053 38.4538 156.708 38.4213 160.366L38.3787 163.109L38.3669 165.852L38.3881 168.596C38.4101 169.51 38.4117 170.424 38.424 171.339C38.4857 174.996 38.6371 178.652 38.8611 182.305C39.0889 185.958 39.4048 189.606 39.8083 193.245L39.5676 193.275C38.9827 189.653 38.556 186.008 38.1989 182.354C37.8396 178.7 37.5847 175.035 37.4159 171.364C37.3821 170.447 37.3354 169.529 37.3131 168.61L37.2651 165.854C37.2549 164.935 37.2804 164.017 37.2865 163.098L37.3536 160.342C37.403 159.425 37.4424 158.507 37.5001 157.59C37.5758 156.674 37.634 155.757 37.7352 154.843L38.0478 152.103C38.1949 151.193 38.3121 150.282 38.4865 149.376L38.6489 149.387Z" fill="#13355A"/>
<path d="M18.2868 115.645L17.8709 116.682C17.7386 117.03 17.5776 117.365 17.481 117.726L17.1518 118.791C17.0992 118.969 17.0372 119.144 16.9921 119.324L16.8663 119.867L16.6063 120.949C16.5145 121.308 16.4705 121.679 16.4002 122.043L16.2083 123.139L16.0774 124.246C15.7344 127.195 15.6743 130.175 15.8013 133.148C15.9993 139.099 16.888 145.022 17.6192 150.95C18.3963 156.874 19.2826 162.786 20.2838 168.677C21.2946 174.566 22.4052 180.442 23.8019 186.252L23.5666 186.311C21.9906 180.535 20.7692 174.669 19.6298 168.794C18.494 162.915 17.5046 157.01 16.6199 151.086C16.175 148.122 15.7806 145.162 15.4159 142.182C15.0682 139.202 14.8189 136.2 14.7352 133.184C14.7175 131.675 14.7319 130.164 14.8173 128.654C14.868 127.899 14.897 127.145 14.9898 126.392C15.0314 126.016 15.0639 125.638 15.113 125.263C15.1573 124.888 15.2364 124.515 15.2963 124.141L15.4897 123.022L15.7449 121.914C15.8364 121.546 15.9013 121.174 16.0146 120.811L16.343 119.724L16.515 119.183C16.5757 119.004 16.6529 118.83 16.7211 118.654L17.1419 117.601C17.4249 116.902 17.8046 116.243 18.1409 115.575L18.2868 115.645Z" fill="#13355A"/>
<path d="M58.5033 32.8544C58.3796 32.4139 58.2628 31.9759 58.0978 31.5609C57.94 31.1457 57.749 30.7474 57.4951 30.415C57.2319 30.0944 56.9281 29.8278 56.5605 29.7143C56.2007 29.5837 55.8054 29.6052 55.4244 29.7243C55.0434 29.8444 54.6698 30.0417 54.3293 30.293C53.9893 30.5445 53.6714 30.8514 53.3733 31.1626C52.7821 31.7993 52.3061 32.5432 51.9186 33.3352C51.156 34.9324 50.7946 36.7271 50.6821 38.5191C50.6338 39.4063 50.6913 40.3114 51.065 41.0913C51.2507 41.4772 51.5183 41.8288 51.8497 42.0989C52.1773 42.3722 52.5752 42.5638 52.9997 42.61L52.8489 42.7404L52.9157 42.0731L53.1578 42.0903L53.1543 42.7621L53.1535 42.9183L52.9767 42.9156C52.4805 42.9081 51.9903 42.7269 51.5819 42.4423C51.174 42.1537 50.8386 41.771 50.5901 41.3345C50.087 40.4522 49.9778 39.438 49.9727 38.4955C49.9786 36.6169 50.2458 34.7134 50.9856 32.9047C51.3522 32.0009 51.8926 31.1554 52.5495 30.3994C52.9018 30.0366 53.264 29.7052 53.6891 29.4013C54.1168 29.1067 54.5891 28.8393 55.1429 28.7052C55.6858 28.5738 56.3389 28.5628 56.8916 28.824C57.4535 29.0567 57.8799 29.5082 58.1383 29.9721C58.6449 30.9186 58.7123 31.8934 58.664 32.8286L58.5033 32.8544Z" fill="#13355A"/>
<path opacity="0.1" d="M12.713 97.3367C12.6963 97.2638 12.6813 97.1907 12.6679 97.1174C12.4248 95.7876 13.4512 93.4202 13.2362 92.5263C13.5714 93.9209 13.203 95.4232 13.6047 96.8C14.4244 99.61 15.9805 102.227 16.8593 105.119C18.1199 109.268 19.6314 113.467 22.4669 116.824C23.7345 118.324 25.3714 119.704 27.2808 120.28C29.1074 120.83 30.2094 120.495 31.5886 122.109C31.5543 122.327 31.4714 122.522 31.3281 122.688C31.3139 122.705 31.2994 122.722 31.2852 122.737C30.7327 123.347 29.9682 123.717 29.2268 124.075C28.0702 124.629 26.8305 125.3 25.5538 125.521C24.1453 125.764 24.174 125.102 23.5899 123.883C22.4162 121.44 21.2422 118.997 20.0685 116.554C17.7209 111.672 15.9488 104.492 13.6014 99.6057C12.8673 98.0776 12.3328 96.6527 12.6695 94.9408C12.8257 94.1477 13.0782 93.3761 13.2378 92.5836C13.2486 92.6298 13.2593 92.6763 13.27 92.7225" fill="#454546"/>
<path opacity="0.1" d="M38.7598 141.796C38.6253 143.333 38.3618 144.907 38.0527 146.481C38.2416 144.912 38.4764 143.35 38.7598 141.796Z" fill="#454546"/>
<path opacity="0.1" d="M42.6561 141.322C42.6934 143.88 42.3041 146.386 42.1838 148.944C42.0177 152.482 41.6971 156.012 41.4682 159.547C40.7037 171.329 40.884 183.148 41.096 194.955C40.6208 194.952 40.1485 194.955 39.6733 194.955C39.5158 194.955 39.347 194.952 39.2182 194.861C39.0409 194.737 39.0006 194.497 38.9748 194.282C36.965 176.986 38.5082 158.865 38.8318 141.414C39.3127 138.831 39.9256 136.27 40.667 133.747C40.5382 134.188 42.0067 136.646 42.1785 137.274C42.5418 138.613 42.6363 139.943 42.6561 141.322Z" fill="#454546"/>
<g opacity="0.4">
<path opacity="0.4" d="M93.9158 21.3508C94.6079 21.3941 95.3023 21.5441 95.9576 21.8013C96.6153 22.0523 97.2461 22.3896 97.8123 22.8188C98.3793 23.2445 98.9101 23.7304 99.3504 24.2947C99.7926 24.8562 100.167 25.4745 100.45 26.1359L100.66 26.6251L100.131 26.6694L98.3425 26.8194C98.119 26.8368 98.229 26.8436 98.2481 26.7893C98.251 26.7581 98.2341 26.8723 98.2626 26.9817C98.317 27.2166 98.4308 27.4818 98.5569 27.7366C99.0815 28.7675 99.7754 29.745 100.457 30.7275L100.587 30.9189L100.621 30.9707L100.661 31.0401L100.712 31.1441C100.777 31.2833 100.847 31.4198 100.909 31.5607L101.087 31.9874L101.241 32.4241C101.432 33.0124 101.546 33.6265 101.59 34.2385C101.68 35.4672 101.521 36.6596 101.493 37.8513H101.251C101.211 37.2493 101.195 36.6449 101.173 36.0474C101.154 35.4503 101.132 34.8604 101.045 34.2898C100.959 33.7195 100.818 33.1691 100.613 32.6405L100.446 32.2487L100.258 31.8651C100.193 31.7383 100.119 31.6147 100.051 31.4897L99.9987 31.3962C99.9917 31.3857 99.993 31.3913 99.9893 31.3854L99.9617 31.3486L99.8312 31.1804C99.4628 30.7138 99.085 30.2354 98.7238 29.7442C98.3624 29.2502 98.0085 28.7493 97.6881 28.1886C97.53 27.9024 97.3747 27.6151 97.2603 27.2201C97.2354 27.1096 97.2078 27.0099 97.2024 26.8597C97.2008 26.8237 97.1984 26.7917 97.1992 26.7527C97.2024 26.7078 97.2072 26.6627 97.2134 26.6175C97.2217 26.5697 97.2233 26.5337 97.2413 26.4775C97.2595 26.4216 97.2813 26.3657 97.3065 26.3117C97.3454 26.2088 97.4511 26.0892 97.5464 25.9994C97.6422 25.9215 97.7624 25.8559 97.8657 25.8185C97.9516 25.7927 98.0621 25.7699 98.134 25.7608L98.2457 25.7484L100.03 25.5503L99.4169 26.5753C99.1821 26.0048 98.8733 25.46 98.4968 24.9618C98.3994 24.8398 98.2991 24.7202 98.2052 24.5947L97.8998 24.2361L97.5719 23.8956C97.4544 23.7908 97.3417 23.6796 97.2284 23.5675C96.7583 23.1407 96.2434 22.754 95.6871 22.4116C95.1298 22.0698 94.5333 21.7739 93.8906 21.5126L93.9158 21.3508Z" fill="white"/>
</g>
<path opacity="0.1" d="M29.393 58.5921C28.9234 59.0194 28.4369 59.4206 27.933 59.802C27.9043 59.8221 27.8758 59.845 27.8471 59.8651C26.7791 60.6652 26.115 61.855 25.4479 62.999C24.758 64.1745 24.1712 65.4162 23.7904 66.7293C23.2779 68.4899 23.1891 70.302 23.0748 72.1226C22.986 73.519 22.6224 74.9038 22.6425 76.3175C22.6455 76.719 22.5939 77.4903 22.3047 77.8601C22.1501 78.0609 21.9295 78.1439 21.6118 77.9921C21.2882 77.8402 21.1911 76.1369 21.0679 75.7899C21.0537 75.7499 21.0392 75.7096 21.025 75.6725C20.2291 73.4875 19.0898 71.5149 18.4369 69.2641C18.394 69.1123 18.354 68.9602 18.3138 68.8083C18.2995 68.7511 18.288 68.6965 18.2738 68.6393C18.2394 68.47 18.2193 68.3009 18.2051 68.1319C18.2051 68.0574 18.2107 67.98 18.2279 67.9083C18.288 67.6358 18.457 67.4151 18.6229 67.2144C19.1899 66.5234 19.788 65.8609 20.4151 65.2272C20.5296 65.1098 20.6442 64.995 20.7585 64.8832C20.7929 64.8488 20.8272 64.8174 20.8586 64.7857C21.0247 64.6252 21.1908 64.4645 21.3596 64.3097C21.3682 64.3011 21.3768 64.2925 21.3854 64.2869C21.5601 64.1235 21.7347 63.9628 21.9151 63.8053C21.9465 63.7738 21.9808 63.7451 22.0151 63.7163C22.1955 63.5559 22.3787 63.3981 22.562 63.2433C22.7311 63.1001 22.8998 62.9595 23.0716 62.8219C24.5603 61.6147 26.1319 60.5424 27.7494 59.559C28.2936 59.2258 28.8405 58.9046 29.393 58.5921Z" fill="#454546"/>
<path d="M80.7118 47.8633C80.448 47.8942 80.1851 47.9082 79.9218 47.9281C79.6583 47.9515 79.3959 47.9533 79.1329 47.9646L78.8995 47.9748L78.8968 47.6964C78.8914 47.1167 78.8831 46.5421 78.8286 45.9727C78.7661 45.4045 78.6912 44.8407 78.5587 44.2911C78.2957 43.1951 77.8661 42.1376 77.1786 41.2526C76.499 40.3816 75.5313 39.7159 74.4585 39.3765C73.389 39.0378 72.1871 39.0472 71.1529 39.5452L71.0381 39.3313C71.5452 38.997 72.1383 38.7621 72.7584 38.6769C73.3772 38.5909 74.0182 38.6105 74.6332 38.7535C75.8641 39.0327 77.0219 39.6836 77.908 40.653C78.7838 41.6025 79.3763 42.8038 79.6446 44.042C79.9124 45.2825 79.8974 46.5593 79.5996 47.7561L79.1614 47.2581C79.4211 47.3212 79.6817 47.3736 79.9409 47.4502C80.2006 47.5182 80.4596 47.6032 80.718 47.7002L80.7118 47.8633Z" fill="#13355A"/>
<path d="M87.0869 53.3697C87.2839 53.0558 87.64 52.8191 88.0261 52.7374C88.4125 52.6457 88.8077 52.682 89.1708 52.7675C89.8972 52.9583 90.5312 53.323 91.0883 53.7621C91.611 54.1706 92.1622 54.5439 92.7568 54.7855C93.3455 55.025 94.0105 55.09 94.5568 54.7377L94.7049 54.9301C94.4605 55.2099 94.091 55.4106 93.7011 55.4754C93.3106 55.5482 92.9122 55.5189 92.5432 55.4321C91.8002 55.2615 91.1331 54.9368 90.5047 54.5858C89.9393 54.2905 89.3922 54.0112 88.878 53.797C88.6191 53.6938 88.3773 53.596 88.1216 53.5291C87.8659 53.4654 87.5852 53.4267 87.1975 53.4896L87.0869 53.3697Z" fill="#13355A"/>
<path d="M71.1154 45.1758C71.336 45.1637 71.5568 45.171 71.779 45.1777C71.9969 45.2035 72.218 45.225 72.4356 45.2618C72.8727 45.332 73.2978 45.4556 73.7156 45.5988C74.5444 45.9033 75.3411 46.3056 76.0597 46.8267C76.7794 47.343 77.4473 47.9415 77.9949 48.6438C78.541 49.3414 78.9784 50.1493 79.1413 51.0233L78.9065 51.084C78.5681 50.3036 78.054 49.6543 77.477 49.0853C76.894 48.5193 76.2186 48.0539 75.504 47.6695C74.7822 47.2946 74.0547 46.9517 73.3238 46.594C72.9591 46.4121 72.5907 46.2358 72.2231 46.0272C72.0379 45.927 71.852 45.8251 71.6642 45.7096C71.4771 45.5924 71.2845 45.4878 71.0918 45.3365L71.1154 45.1758Z" fill="#13355A"/>
<path d="M59.9275 32.3465C60.0563 32.9571 60.0206 33.5913 59.945 34.2014C59.8728 34.815 59.7332 35.4094 59.653 35.9993C59.569 36.5804 59.5642 37.17 59.6426 37.7298C59.7222 38.2851 59.9275 38.8207 60.3018 39.1311L59.7815 39.2297L60.5755 37.671C60.849 37.1552 61.127 36.6406 61.413 36.1294C61.9819 35.1057 62.5875 34.0963 63.2653 33.1304C64.6051 31.1976 66.247 29.4021 68.3102 28.1725C69.3361 27.5606 70.4931 27.1336 71.6751 26.9618C72.8561 26.781 74.0386 26.7963 75.2019 26.8269C76.3632 26.8597 77.5423 26.8874 78.7071 27.1051C79.8666 27.3198 81.014 27.7646 81.9376 28.5187L81.7886 28.7103C80.8578 28.0392 79.7498 27.6985 78.6298 27.5469C77.5055 27.3854 76.3552 27.405 75.1935 27.4211C74.0354 27.4386 72.8888 27.4757 71.7964 27.6917C70.7049 27.9022 69.6911 28.3252 68.761 28.924C67.8326 29.5206 66.9943 30.2656 66.2363 31.0879C65.8588 31.5013 65.5005 31.9342 65.1603 32.382C64.8147 32.8251 64.483 33.2839 64.168 33.7555C63.8506 34.2259 63.553 34.711 63.2524 35.1963C62.9487 35.6798 62.6562 36.1732 62.3685 36.6709L60.6638 39.6963L60.2519 40.4275L59.6503 39.8884C59.3324 39.6033 59.1209 39.244 58.99 38.8922C58.8571 38.5385 58.7927 38.1862 58.7627 37.8435C58.7039 37.1574 58.7994 36.5019 58.947 35.8744C59.1096 35.263 59.2951 34.6881 59.4703 34.1184C59.6415 33.5473 59.7539 32.9713 59.7665 32.3693L59.9275 32.3465Z" fill="#13355A"/>
<path d="M72.5439 20.0388C73.3221 19.9504 74.118 20.1052 74.8481 20.3847C75.5839 20.662 76.2529 21.0748 76.8955 21.503C78.1728 22.3619 79.383 23.3133 80.5443 24.3286C81.707 25.3423 82.7865 26.4563 83.7665 27.656C84.7542 28.849 85.6241 30.143 86.3693 31.5069L85.6786 31.7249C85.498 30.2215 85.6872 28.6842 86.1823 27.2609L86.3704 26.7205L86.7498 27.1395C87.7346 28.2271 88.5393 29.4529 89.2142 30.7351C89.889 32.0189 90.4276 33.3656 90.8682 34.7386C91.3069 36.113 91.6442 37.5172 91.8819 38.9373C92.0032 39.6471 92.091 40.362 92.1591 41.0787C92.1932 41.437 92.2093 41.7971 92.2353 42.1559C92.2407 42.2126 92.26 42.3177 92.2742 42.3999L92.3209 42.6641L92.3663 42.9304L92.3869 43.0664C92.392 43.1209 92.4022 43.1406 92.3995 43.2397L92.1151 43.1478C92.5659 42.3647 93.0669 41.6114 93.6138 40.8935L93.8083 41.0387C93.3014 41.7729 92.8428 42.5386 92.4363 43.3284L92.1723 43.8412L92.0338 43.1986L91.9343 42.7369L91.8752 42.4751L91.846 42.3421C91.8363 42.2908 91.8267 42.2642 91.8175 42.1806C91.7792 41.8283 91.7507 41.4759 91.7046 41.1249C91.6123 40.4232 91.5009 39.7239 91.3568 39.0316C91.0734 37.646 90.6929 36.2815 90.2167 34.9563C89.7404 33.6314 89.1634 32.346 88.4787 31.132C87.7931 29.9202 86.9894 28.7802 86.0438 27.7992L87.0957 27.574C86.6806 28.8734 86.5826 30.2615 86.749 31.5996L87.1963 35.1971L85.4202 32.0192C84.6989 30.7283 83.8494 29.5114 82.9196 28.3523C81.9898 27.1916 80.9436 26.123 79.8662 25.0811C78.7784 24.0504 77.6372 23.0593 76.4766 22.0915C75.9003 21.6145 75.2933 21.1966 74.6541 20.8386C74.0133 20.4823 73.3082 20.2503 72.5552 20.2017L72.5439 20.0388Z" fill="#13355A"/>
<path d="M77.9297 49.3076C77.8516 49.6889 77.6973 50.0421 77.5065 50.3705C77.3179 50.7018 77.0879 51.0085 76.8199 51.2926C76.6846 51.4331 76.5338 51.5635 76.3728 51.6879C76.2102 51.8096 76.0358 51.9314 75.8219 52.0115C75.6121 52.0921 75.3593 52.1499 75.0856 52.1036C74.8084 52.0631 74.5658 51.8838 74.4183 51.6976C74.2685 51.5081 74.1789 51.3089 74.107 51.1141C74.0756 51.0155 74.0469 50.9219 74.0209 50.8198C73.9964 50.7145 73.9777 50.6078 73.9709 50.5016C73.9358 50.0746 74.0359 49.6723 74.1749 49.31C74.4682 48.5903 74.8959 47.9638 75.431 47.4389L75.6134 47.5991C75.4291 47.913 75.2721 48.2336 75.1339 48.5553C75.0005 48.8792 74.8892 49.2127 74.8197 49.5271C74.7529 49.8437 74.7435 50.1533 74.8127 50.403C74.828 50.4661 74.8514 50.5242 74.8758 50.5798L74.9705 50.7731C75.0392 50.8913 75.1162 50.9886 75.1776 51.0327C75.2437 51.0776 75.2568 51.0442 75.2581 51.0351C75.2627 51.0211 75.3142 51.0139 75.4028 50.9733C75.4873 50.9316 75.604 50.8744 75.7167 50.79C75.8345 50.7131 75.9572 50.6242 76.0782 50.5218L76.8673 49.8953C77.1459 49.6763 77.4392 49.4645 77.7818 49.2404L77.9297 49.3076Z" fill="#13355A"/>
<path d="M81.8356 56.6595C81.6062 57.3682 81.2482 58.0076 80.846 58.6141C80.6359 58.9108 80.4258 59.2083 80.199 59.4929C79.9677 59.7738 79.7353 60.0538 79.4858 60.3188C79.2387 60.5857 78.9886 60.8496 78.7331 61.1079C78.4798 61.3632 78.2171 61.6273 77.9214 61.8628C77.6279 62.0971 77.3064 62.3127 76.938 62.4486C76.5757 62.5946 76.1445 62.6102 75.7764 62.4752L75.8448 62.2422C76.5255 62.2903 77.0257 61.8324 77.4711 61.3524C77.6936 61.1076 77.8908 60.8284 78.1049 60.5381C78.3142 60.2511 78.5168 59.9598 78.7157 59.6668C79.1045 59.0737 79.5185 58.5101 79.9846 57.9804C80.2157 57.7138 80.469 57.4628 80.7478 57.225C81.0255 56.9863 81.3247 56.7595 81.6985 56.5724L81.8356 56.6595Z" fill="#13355A"/>
<path d="M73.5555 66.6782C73.2536 66.6306 72.93 66.4877 72.6977 66.2221C72.4766 65.9526 72.3668 65.6739 72.198 65.4777C72.0343 65.2839 71.8385 65.0947 71.6246 64.9652C71.4107 64.8351 71.1762 64.7585 70.9068 64.7094C70.6444 64.6553 70.3371 64.6062 70.0551 64.5615C69.7699 64.5156 69.4712 64.4868 69.1643 64.421C68.8581 64.3562 68.535 64.2729 68.2189 64.1031C67.9023 63.9399 67.6109 63.6489 67.4595 63.3121C67.2999 62.9722 67.2639 62.6408 67.2513 62.2973C67.2537 61.9482 67.3353 61.6233 67.4316 61.3285C67.5274 61.0323 67.6401 60.7585 67.7233 60.4905C67.7671 60.3508 67.7952 60.2374 67.8296 60.0788L67.9321 59.6453C67.9962 59.3647 68.0426 59.0925 68.0072 58.8493C67.9882 58.7286 67.9484 58.6168 67.8883 58.5128C67.8213 58.4131 67.7391 58.3177 67.6348 58.2379C67.2148 57.9046 66.6172 57.7641 66.0723 57.4762L66.1775 57.2575C66.4482 57.3534 66.7334 57.4107 67.0289 57.4851C67.324 57.5579 67.6334 57.6542 67.927 57.8423C68.0764 57.9345 68.2173 58.06 68.3391 58.2113C68.4559 58.368 68.5417 58.5523 68.59 58.7396C68.6818 59.118 68.6375 59.4679 68.6 59.7754L68.5388 60.2188L68.5259 60.3234L68.5074 60.4497C68.4937 60.533 68.4787 60.6163 68.461 60.6953C68.3923 61.0157 68.3035 61.304 68.2447 61.5706C68.184 61.837 68.1569 62.0767 68.1797 62.2809C68.1894 62.3747 68.2216 62.5016 68.2474 62.601L68.2986 62.7437C68.322 62.7827 68.3432 62.8217 68.3622 62.8612C68.4524 63.0044 68.5632 63.0665 68.7245 63.1498C68.8884 63.2269 69.1186 63.2834 69.3792 63.3245C69.6408 63.3627 69.9282 63.4143 70.2362 63.4637L70.6828 63.5562C70.8319 63.5892 70.9892 63.6209 71.1548 63.6688C71.4808 63.766 71.8623 63.9206 72.1661 64.1689C72.3182 64.2917 72.4481 64.4304 72.5627 64.5704C72.6783 64.704 72.7843 64.8779 72.8627 65.0423C73.0333 65.3818 73.0672 65.697 73.1401 65.905C73.197 66.1238 73.3688 66.3224 73.6087 66.5242L73.5555 66.6782Z" fill="#13355A"/>
<path d="M84.4072 56.3789C84.6707 56.1319 84.9549 55.9046 85.2911 55.7336C85.6228 55.559 86.0154 55.4399 86.4358 55.4482C86.8568 55.4649 87.2671 55.6092 87.6026 55.8347C87.9364 56.0647 88.2146 56.3563 88.4202 56.6896C88.8216 57.3631 89.0156 58.0468 89.1919 58.7415C89.3556 59.4357 89.4903 60.1368 89.4935 60.8571L89.2517 60.8759C89.0583 60.2081 88.8009 59.5655 88.5404 58.9366C88.4073 58.6235 88.2621 58.3169 88.1043 58.0274C87.9468 57.7391 87.7721 57.4647 87.5907 57.2639C87.2051 56.8592 86.7764 56.6001 86.3717 56.517C86.1581 56.4738 85.8919 56.4609 85.5723 56.4802C85.2544 56.4977 84.8945 56.5442 84.4853 56.5224L84.4072 56.3789Z" fill="#13355A"/>
<path d="M86.487 56.5128C86.3386 56.7444 86.2747 56.9586 86.2187 57.1946C86.1916 57.319 86.1687 57.4295 86.1269 57.5824C86.0856 57.724 86.0314 57.8538 85.9863 57.9777C85.8816 58.219 85.8089 58.4311 85.7869 58.627C85.7708 58.7248 85.7721 58.8181 85.7869 58.8858C85.8046 58.9538 85.817 58.9906 85.8454 59.0194C85.8747 59.0503 85.9385 59.0788 86.0169 59.0839C86.1009 59.0884 86.1655 59.0782 86.2774 59.0323C86.483 58.9495 86.6912 58.813 86.8892 58.656C87.2882 58.3381 87.6419 57.9334 88.0621 57.5797L88.2365 57.7485C87.9725 58.218 87.7272 58.7047 87.3505 59.1564C87.1594 59.3806 86.945 59.6077 86.6466 59.7963C86.5712 59.8404 86.498 59.8891 86.381 59.9321C86.2739 59.9724 86.1623 59.9998 86.0442 60.0129C85.8116 60.0379 85.5382 60.0089 85.2728 59.8509C85.0028 59.6915 84.8131 59.4099 84.7431 59.1667C84.6631 58.9207 84.6572 58.7001 84.6757 58.501C84.69 58.3013 84.7484 58.1134 84.8064 57.9508C84.8727 57.7896 84.9462 57.6506 85.0152 57.5294C85.0876 57.4106 85.1574 57.3096 85.2266 57.2201L85.2773 57.1543L85.3401 57.0648C85.3812 57.0032 85.4338 56.9406 85.4872 56.878C85.6916 56.6195 86.0316 56.3754 86.3866 56.3843L86.487 56.5128Z" fill="#13355A"/>
<path d="M93.9895 42.8377C94.1336 43.599 94.2895 44.355 94.4967 45.0976C94.6893 45.8428 94.9177 46.5773 95.1823 47.2973C95.4522 48.0151 95.7272 48.73 96.0538 49.4223C96.3755 50.1165 96.7346 50.7921 97.1212 51.4503L96.7539 51.2678C97.2559 51.1936 97.7435 51.0192 98.1924 50.7591C98.64 50.496 99.0554 50.1646 99.4305 49.7851C99.804 49.4038 100.155 48.9926 100.472 48.5508C100.785 48.1065 101.085 47.6435 101.358 47.1686C102.465 45.2725 103.226 43.1698 103.645 40.9992C103.856 39.9137 103.989 38.8113 104.042 37.7037C104.091 36.597 104.091 35.4804 103.958 34.3863C103.827 33.2919 103.545 32.2196 103.037 31.2433C102.54 30.2588 101.881 29.354 101.219 28.4515L101.412 28.3042C102.126 29.1674 102.851 30.0393 103.425 31.0387C104 32.0406 104.347 33.1756 104.527 34.3089C104.712 35.4481 104.758 36.5876 104.753 37.7298C104.742 38.872 104.655 40.0174 104.474 41.1518C104.114 43.4187 103.408 45.6561 102.29 47.7029C102.007 48.2137 101.701 48.7042 101.368 49.1933C101.026 49.6766 100.657 50.1536 100.219 50.5793C99.7839 51.0074 99.2899 51.3968 98.7352 51.7129C98.1795 52.0265 97.5487 52.2482 96.8937 52.3348L96.4123 52.3982L96.1874 51.9838C95.8059 51.2807 95.4656 50.5562 95.1637 49.8179C94.8774 49.0729 94.6104 48.3212 94.4162 47.5494C94.2109 46.7813 94.0612 46.0006 93.9565 45.2169C93.9136 44.8229 93.879 44.4295 93.8529 44.0363L93.8242 43.4467L93.8277 42.856L93.9895 42.8377Z" fill="#13355A"/>
<path d="M102.605 30.5039C102.73 29.0231 102.406 27.5601 101.838 26.2142C101.269 24.8669 100.501 23.5976 99.6086 22.4299C98.7378 21.2463 97.7259 20.1694 96.625 19.1995C95.5278 18.2231 94.3195 17.3755 93.0433 16.6477C90.4844 15.2008 87.5888 14.3542 84.6447 14.1352C83.9084 14.0809 83.1686 14.0623 82.4299 14.0933C81.6909 14.1161 80.953 14.1846 80.2212 14.2948C78.7626 14.5104 77.2942 14.856 76.0537 15.6579L75.918 15.4566C77.1571 14.5534 78.6617 14.0814 80.1442 13.8146C80.8891 13.6713 81.6434 13.57 82.402 13.5154C83.1603 13.4531 83.9231 13.4407 84.6852 13.466C87.7337 13.5622 90.7836 14.3354 93.5273 15.7617C94.9015 16.4679 96.186 17.3492 97.3599 18.3589C97.9505 18.8601 98.4947 19.414 99.0129 19.9891C99.5326 20.5626 100.023 21.1638 100.469 21.7967C101.351 23.0652 102.111 24.4323 102.579 25.9298C102.821 26.6724 102.967 27.4501 103.017 28.229C103.031 28.62 103.026 29.0102 102.984 29.3962C102.957 29.7821 102.868 30.1618 102.765 30.5287L102.605 30.5039Z" fill="#13355A"/>
<path d="M71.0379 20.5277C70.0687 21.0923 69.1298 21.6389 68.2502 22.2893L67.589 22.7712L66.9458 23.2789L66.312 23.8016L65.6895 24.3415C64.8673 25.0733 64.0894 25.8618 63.33 26.6716C62.5712 27.4824 61.8432 28.3254 61.0924 29.1519L60.9043 28.9987C61.5072 28.0513 62.1319 27.1171 62.8183 26.223C63.501 25.3259 64.2179 24.4463 64.998 23.6065C65.7756 22.7666 66.6531 21.9948 67.6561 21.4008C67.9129 21.2619 68.1676 21.12 68.4286 20.9921C68.7002 20.8805 68.9672 20.7631 69.2446 20.6714C69.5245 20.5833 69.8122 20.5164 70.0961 20.4527C70.391 20.4132 70.6827 20.375 70.9816 20.3756L71.0379 20.5277Z" fill="#13355A"/>
<path d="M104.72 90.9501C104.452 90.7752 104.145 90.7007 103.825 90.679C103.506 90.6491 103.171 90.6467 102.847 90.6604C102.194 90.687 101.545 90.7555 100.903 90.8966C100.257 91.0143 99.6172 91.1888 98.9718 91.3659C98.3249 91.5373 97.6758 91.7279 97.0119 91.8856C96.344 92.0595 95.6692 92.138 95.1599 92.4301C94.9114 92.5723 94.694 92.7781 94.572 93.0173C94.5102 93.1423 94.4759 93.2517 94.4678 93.4054C94.4488 93.5554 94.4582 93.6997 94.4813 93.8378C94.5314 94.1128 94.6876 94.3495 94.9243 94.5487C95.1556 94.7508 95.4483 94.9171 95.7349 95.0999C95.8771 95.1894 96.0303 95.2928 96.161 95.3842C96.2949 95.4742 96.4312 95.5592 96.5732 95.6269C96.8549 95.7629 97.167 95.8311 97.4488 95.7333L97.5386 95.9588C97.189 96.134 96.7701 96.0905 96.4261 95.9738C96.2512 95.915 96.0832 95.8422 95.9249 95.757C95.7655 95.6675 95.6364 95.5995 95.484 95.5232C95.1867 95.3716 94.869 95.2364 94.5502 95.0093C94.2331 94.7965 93.9264 94.4191 93.8177 93.9881C93.7927 93.8824 93.7662 93.7747 93.76 93.6709C93.746 93.5645 93.7428 93.4616 93.7466 93.3611C93.746 93.2662 93.7509 93.1453 93.7764 93.0278C93.7997 92.912 93.8332 92.7988 93.8786 92.6932C94.0597 92.2665 94.367 91.9429 94.7203 91.704C95.0686 91.4707 95.44 91.3296 95.7832 91.2164L96.7508 90.9098C98.0066 90.4957 99.3021 90.0213 100.721 89.8426C101.427 89.7585 102.158 89.7407 102.873 89.866C103.232 89.9238 103.575 90.0127 103.927 90.1441C104.271 90.2839 104.638 90.4957 104.83 90.83L104.72 90.9501Z" fill="#13355A"/>
<path d="M95.3956 95.6895C95.1181 96.0303 94.8493 96.2883 94.615 96.5622C94.4908 96.6909 94.3891 96.8336 94.2952 96.9744C94.2404 97.0413 94.2101 97.1179 94.1642 97.1889L94.0585 97.4125C93.9439 97.7183 93.9445 98.0599 94.0663 98.3947C94.1878 98.7312 94.4299 99.0346 94.696 99.3289L94.5469 99.5205C94.3472 99.4356 94.1368 99.3461 93.9573 99.2018C93.8602 99.1386 93.7738 99.0593 93.6877 98.9747C93.6431 98.9336 93.6026 98.8892 93.5618 98.8438L93.454 98.6917C93.1628 98.2859 93.0069 97.707 93.0858 97.1451C93.1548 96.5812 93.4698 96.0948 93.8699 95.7952C94.0698 95.642 94.2976 95.5353 94.5444 95.4888C94.7881 95.4383 95.0492 95.4423 95.3258 95.5428L95.3956 95.6895Z" fill="#13355A"/>
<path d="M95.7705 103.564C95.3584 103.682 94.9564 103.735 94.5595 103.835C94.1629 103.919 93.7706 104.016 93.4081 104.155C93.0561 104.293 92.6925 104.471 92.561 104.7C92.4979 104.81 92.4802 104.91 92.5119 105.044L92.543 105.146L92.5902 105.253C92.6302 105.321 92.6745 105.409 92.7091 105.445C92.854 105.641 93.2474 105.801 93.6193 105.993C93.9874 106.181 94.3553 106.363 94.717 106.555C95.4418 106.935 96.1706 107.299 96.9058 107.645C97.6416 107.989 98.3919 108.295 99.1582 108.542C99.9235 108.786 100.71 108.968 101.498 109.003C102.281 109.033 103.082 108.902 103.724 108.465C104.377 108.046 104.819 107.344 105.106 106.597L105.336 106.674C105.219 107.077 105.09 107.488 104.864 107.863C104.767 108.059 104.626 108.23 104.493 108.409C104.339 108.569 104.188 108.736 104.005 108.869C103.65 109.144 103.239 109.364 102.806 109.487C102.375 109.613 101.927 109.676 101.488 109.685C100.606 109.703 99.7451 109.564 98.9175 109.356C98.0889 109.147 97.2839 108.876 96.4999 108.57C95.711 108.273 94.9545 107.912 94.2086 107.55C93.8342 107.372 93.4739 107.169 93.1116 106.983L92.5519 106.679C92.3418 106.555 92.078 106.391 91.8593 106.094C91.7415 105.926 91.7029 105.816 91.6401 105.683L91.5644 105.468C91.5435 105.39 91.5266 105.307 91.511 105.227C91.4482 104.894 91.5354 104.444 91.7638 104.162C91.983 103.873 92.243 103.72 92.4775 103.61C92.7145 103.498 92.9471 103.441 93.1725 103.396C94.0688 103.221 94.9178 103.303 95.7391 103.404L95.7705 103.564Z" fill="#13355A"/>
<path d="M93.9004 103.334C93.4458 103.281 93.031 103.075 92.6881 102.744C92.5247 102.574 92.3728 102.378 92.266 102.154C92.164 101.929 92.0942 101.69 92.0757 101.448C92.029 100.966 92.1278 100.472 92.3626 100.066C92.5925 99.6608 92.9347 99.3262 93.3463 99.1491L93.4716 99.3571C93.206 99.6745 93.053 100.023 92.9787 100.354C92.9073 100.687 92.951 101.012 93.0715 101.287C93.2068 101.566 93.3278 101.759 93.4839 102.03C93.5623 102.165 93.6495 102.316 93.7338 102.507C93.8218 102.693 93.9154 102.904 93.9833 103.194L93.9004 103.334Z" fill="#13355A"/>
<path d="M95.5951 90.9418C95.5524 90.6956 95.5052 90.4578 95.4105 90.2444C95.3281 90.0291 95.2141 89.8356 95.0662 89.6889C94.8024 89.4188 94.3779 89.3586 93.9497 89.4102C93.7358 89.4341 93.5195 89.4857 93.3188 89.565C93.1178 89.6429 92.9295 89.7553 92.8176 89.8655C92.5621 90.1111 92.3912 90.6142 92.1685 91.0652L91.8505 91.7505C91.7488 91.9784 91.6216 92.2178 91.5725 92.3936C91.521 92.5613 91.5505 92.7357 91.6254 92.9676L91.8677 93.679C92.1929 94.6328 92.5259 95.5837 92.8283 96.546L92.6018 96.6331C92.121 95.7393 91.6597 94.8376 91.2325 93.923L90.907 93.231C90.8507 93.1039 90.7911 92.9569 90.7536 92.7795C90.7136 92.6067 90.7112 92.3807 90.7466 92.2022C90.779 92.0214 90.8314 91.8719 90.874 91.7456L90.9967 91.3855L91.2406 90.6685C91.3267 90.4255 91.3917 90.2003 91.4979 89.9383C91.6031 89.6757 91.7451 89.3718 92.0177 89.0826C92.1478 88.9361 92.3394 88.8063 92.4773 88.7305C92.6263 88.6472 92.7754 88.5798 92.926 88.5239C93.2295 88.4201 93.5381 88.3583 93.859 88.3438C94.1788 88.3406 94.514 88.3699 94.847 88.5005C95.012 88.5655 95.1746 88.6609 95.3244 88.7733C95.3957 88.8375 95.4711 88.8963 95.5312 88.9713C95.5873 89.0466 95.6552 89.1269 95.6912 89.1992C96.0309 89.7996 95.9874 90.447 95.7569 90.9483L95.5951 90.9418Z" fill="#13355A"/>
<path d="M106.947 91.865C107.985 92.3318 108.754 93.3103 109.171 94.3864C109.367 94.933 109.487 95.5114 109.502 96.0967C109.511 96.6813 109.43 97.2717 109.235 97.8256C108.849 98.9452 108.135 99.7987 107.665 100.745C107.177 101.695 106.835 102.72 106.616 103.776L106.376 103.74C106.41 102.631 106.633 101.51 107.049 100.455C107.461 99.3843 108.078 98.4429 108.273 97.5214C108.479 96.6052 108.406 95.6527 108.162 94.7352C108.042 94.2735 107.866 93.8244 107.656 93.3713C107.44 92.9201 107.177 92.478 106.856 91.9999L106.947 91.865Z" fill="#13355A"/>
<g opacity="0.6">
<path opacity="0.6" d="M119.494 52.9618C120.188 54.5568 120.599 56.2615 120.876 57.9801C120.995 58.8428 121.089 59.7103 121.128 60.5811C121.164 61.4516 121.172 62.3239 121.121 63.1936C121.035 64.9327 120.81 66.6632 120.438 68.359C120.354 68.7847 120.243 69.2045 120.134 69.6245C120.034 70.0465 119.901 70.4598 119.778 70.8753C119.661 71.2929 119.507 71.6985 119.364 72.107L119.254 72.4134C119.21 72.5222 119.163 72.6359 119.061 72.7426C119.011 72.7947 118.935 72.8447 118.845 72.8592C118.822 72.8622 118.805 72.8643 118.776 72.863C118.745 72.8603 118.715 72.8552 118.687 72.8401C118.629 72.8132 118.592 72.7668 118.571 72.7264C118.53 72.6423 118.523 72.5676 118.539 72.4824C118.549 72.441 118.56 72.3905 118.621 72.3389C118.687 72.283 118.785 72.2978 118.828 72.3236L118.72 72.541C118.714 72.5456 118.752 72.5547 118.778 72.5351C118.798 72.5174 118.792 72.5208 118.793 72.5311C118.792 72.5501 118.803 72.5864 118.813 72.5926C118.817 72.5969 118.817 72.5902 118.805 72.581C118.798 72.5786 118.793 72.5741 118.787 72.5741C118.783 72.5735 118.792 72.5716 118.794 72.5706C118.805 72.5638 118.818 72.5544 118.837 72.5286C118.874 72.4792 118.907 72.3908 118.931 72.2994L119.006 71.9876C119.101 71.5689 119.222 71.1596 119.305 70.7398C119.394 70.3219 119.492 69.9073 119.558 69.4856C119.632 69.0661 119.717 68.6498 119.771 68.2273C120.023 66.546 120.136 64.8502 120.113 63.1622C120.119 62.7402 120.084 62.3188 120.078 61.898C120.075 61.4768 120.039 61.0568 120.014 60.637C119.968 59.7972 119.913 58.9576 119.817 58.1207L119.566 55.5944C119.519 55.1717 119.473 54.7465 119.438 54.3157C119.398 53.886 119.348 53.4565 119.339 53.0101L119.494 52.9618Z" fill="white"/>
</g>
<path d="M55.8931 39.2345C54.5117 43.8834 54.2608 48.7773 54.874 53.5517C55.1517 55.9433 55.5996 58.3179 56.1915 60.659C56.3444 61.2433 56.485 61.8302 56.6528 62.4107C56.8172 62.9902 56.968 63.5841 57.157 64.1358C57.3467 64.6879 57.5807 65.2108 57.9193 65.6352C58.2531 66.0585 58.716 66.3694 59.2363 66.6046C59.7568 66.8395 60.3268 67.0072 60.908 67.1679C61.486 67.3334 62.0685 67.4818 62.654 67.6191C63.8245 67.8943 65.0073 68.1201 66.1982 68.2921C68.5802 68.6326 70.9922 68.779 73.4011 68.7086C75.8002 68.639 78.2287 68.3566 80.4293 67.4004C81.5219 66.9244 82.5427 66.2713 83.4088 65.4498C84.2734 64.6301 84.9797 63.6314 85.3926 62.5099L85.6207 62.5921C85.233 63.7677 84.5337 64.8316 83.6635 65.7139C82.7941 66.6019 81.7487 67.3095 80.6219 67.8341C78.3599 68.8873 75.8612 69.2389 73.4263 69.3732C70.9812 69.5055 68.5206 69.431 66.0828 69.133C64.864 68.9844 63.6512 68.7804 62.4482 68.5253C61.8466 68.398 61.2472 68.2593 60.6523 68.1031C60.0611 67.9526 59.4472 67.7906 58.8271 67.5275C58.2137 67.2679 57.578 66.8723 57.1068 66.2987C56.6364 65.7365 56.3536 65.0947 56.1408 64.4855C55.9261 63.8692 55.7766 63.2906 55.6041 62.7002C55.4302 62.1135 55.2826 61.518 55.1233 60.9262C54.9652 60.3338 54.8364 59.7329 54.699 59.1349C54.5807 58.5319 54.4492 57.932 54.3424 57.3263C54.2412 56.7194 54.1224 56.1163 54.044 55.5049L53.9141 54.5907C53.8758 54.2851 53.8433 53.9784 53.8133 53.6715C53.576 51.2197 53.5259 48.7324 53.85 46.2817L53.9759 45.3653C54.0145 45.0597 54.0845 44.7579 54.1374 44.4547C54.1967 44.1524 54.2461 43.8487 54.3134 43.5485C54.3872 43.2494 54.4554 42.9495 54.5337 42.652C54.8544 41.4644 55.2545 40.3018 55.7396 39.1813L55.8931 39.2345Z" fill="#13355A"/>
<path d="M18.469 68.7264C18.3574 69.2926 18.4551 69.8863 18.5871 70.4531C18.7207 71.0239 18.9118 71.5829 19.1313 72.1301C19.5706 73.2247 20.0863 74.2911 20.6544 75.3282C21.2254 76.3653 21.8286 77.3812 22.5292 78.3178C23.2263 79.2627 24.0048 80.1531 24.7848 81.0531C26.3454 82.8519 27.865 84.6691 29.8169 85.9376C30.3031 86.254 30.8073 86.5437 31.3252 86.8095C31.5476 86.9057 31.7427 86.967 31.9646 86.9231C32.1806 86.8764 32.4087 86.7915 32.6175 86.6275C33.0433 86.3257 33.4149 85.8842 33.745 85.4198C34.0759 84.9516 34.3713 84.4488 34.6479 83.9344C35.2004 82.904 35.6708 81.8193 36.1085 80.7226C36.5504 79.6266 36.954 78.5126 37.3358 77.3893L38.4846 74.0084C38.8608 72.8815 39.2209 71.749 39.5705 70.6127C39.9202 69.4762 40.2569 68.3364 40.5891 67.1929C40.9355 66.0332 41.3839 64.9056 41.93 63.8324C43.0105 61.6755 44.4032 59.7214 45.7422 57.7582L45.8256 58.0753C44.8019 57.5574 43.7579 57.0825 42.6778 56.7127C41.5978 56.3443 40.4807 56.0903 39.3459 55.9707C38.2119 55.8551 37.0589 55.8441 35.9384 56.0309C34.821 56.212 33.7297 56.6364 32.8769 57.379L32.7157 57.1976C33.5896 56.3916 34.7268 55.9153 35.8796 55.696C37.0383 55.4722 38.2203 55.4456 39.3883 55.5399C40.5583 55.6377 41.7185 55.8758 42.8377 56.2314C43.9572 56.5883 45.0351 57.0516 46.0846 57.5547L46.4533 57.7316L46.2236 58.0839C44.9232 60.0799 43.5883 62.0461 42.5879 64.1584C42.0808 65.2103 41.6756 66.3017 41.3681 67.4165C41.0565 68.5662 40.7386 69.7189 40.408 70.8667C40.0774 72.0148 39.7355 73.1607 39.3773 74.3024L38.2881 77.7093C37.5545 79.9945 36.7479 82.2681 35.6078 84.4515C35.3185 84.9965 35.007 85.5356 34.6412 86.0599C34.2704 86.5802 33.8615 87.1019 33.2526 87.5332C32.9631 87.7528 32.5718 87.9334 32.1361 88.0127C31.6893 88.1019 31.1856 87.9664 30.8288 87.7896C30.2784 87.5042 29.7393 87.1916 29.2179 86.849C28.1798 86.1553 27.2261 85.3313 26.3857 84.4394C25.548 83.5415 24.7993 82.6025 24.0447 81.6858C23.2913 80.7666 22.5198 79.8362 21.8205 78.833C21.4661 78.3374 21.154 77.7964 20.8637 77.2667C20.572 76.7351 20.3018 76.196 20.0396 75.6523C19.5249 74.5623 19.0326 73.4572 18.6875 72.2927C18.5085 71.7143 18.3582 71.1236 18.267 70.5195C18.1744 69.9207 18.1331 69.2891 18.3105 68.6888L18.469 68.7264Z" fill="#13355A"/>
<g opacity="0.4">
<path opacity="0.4" d="M62.2846 199.227C62.715 199.085 63.1693 199.135 63.5823 199.274C63.7851 199.354 63.9858 199.442 64.1739 199.554L64.4436 199.74C64.5306 199.805 64.6108 199.88 64.6937 199.95C65.0138 200.245 65.2929 200.579 65.5127 200.947C65.733 201.312 65.9082 201.706 65.9874 202.119L65.7585 202.2C65.5038 201.875 65.236 201.598 64.9631 201.348C64.6875 201.1 64.384 200.897 64.0674 200.742C63.7441 200.595 63.4526 200.449 63.1669 200.26C63.0941 200.216 63.0228 200.167 62.9527 200.106C62.8806 200.054 62.8089 199.994 62.7378 199.917C62.6632 199.856 62.5899 199.775 62.5119 199.689C62.4343 199.602 62.3519 199.515 62.2666 199.388L62.2846 199.227Z" fill="white"/>
</g>
<g opacity="0.4">
<path opacity="0.4" d="M47.7412 202.409C48.2516 202.14 48.788 201.98 49.3542 201.896C49.9177 201.828 50.5176 201.806 51.1192 202.011C51.4222 202.11 51.7066 202.279 51.9358 202.475C52.17 202.67 52.3651 202.896 52.5379 203.13C52.8784 203.601 53.1419 204.118 53.2774 204.674L53.0486 204.755C52.7435 204.3 52.3885 203.902 52.016 203.566C51.6395 203.235 51.2185 202.997 50.8431 202.982C50.4363 202.955 49.9587 202.98 49.4473 202.963C49.191 202.954 48.9243 202.933 48.6439 202.873C48.3648 202.818 48.0723 202.739 47.7662 202.57L47.7412 202.409Z" fill="white"/>
</g>
</svg>
