<svg width="236" height="236" viewBox="0 0 236 236" fill="none" xmlns="http://www.w3.org/2000/svg">
<path d="M47.1078 167.498C44.3595 167.221 42.49 167.092 42.4641 167.247C40.9505 176.367 39.2895 185.726 40.6347 194.982C41.559 201.343 43.7526 208.225 48.6953 213.392C53.7401 218.666 63.73 223.636 72.2307 222.457C71.9778 205.697 71.7245 188.937 71.4716 172.177C71.4649 171.738 71.4445 171.265 71.1097 170.917C70.7498 170.542 70.1256 170.414 69.549 170.309C68.0244 170.032 54.4391 168.238 47.1078 167.498Z" fill="#FBF9F0"/>
<path opacity="0.1" d="M47.6773 168.288C46.895 168.848 46.172 169.49 45.5246 170.202C44.4449 169.306 43.6236 168.039 42.5384 167.235C41.1822 171.432 40.9088 176.519 40.4911 180.913C40.0463 185.591 39.957 190.322 40.6339 194.982C41.5582 201.343 43.7519 208.226 48.6945 213.392C53.7394 218.666 63.7293 223.636 72.23 222.457C72.0978 213.711 71.9661 204.966 71.8339 196.221C71.7678 191.848 71.7017 187.475 71.6357 183.103C71.5853 179.76 72.5808 174.185 71.1873 171.161C70.8403 171.926 69.988 172.288 69.1856 171.952C68.4174 171.63 67.9151 170.901 67.3916 170.254C67.2291 170.053 67.0478 169.847 66.8016 169.769C66.5117 169.677 66.199 169.782 65.9178 169.897C64.9706 170.285 64.0793 170.81 63.2809 171.451C62.4812 170.832 61.8173 170.038 61.3484 169.143C60.0772 169.635 58.8059 170.127 57.5347 170.619C57.0335 170.813 56.4593 171.005 55.9778 170.765C55.3985 170.477 55.2533 169.72 54.821 169.238C54.3101 168.668 53.4109 168.554 52.7033 168.845C51.9957 169.137 51.4698 169.767 51.1469 170.461C50.4472 169.758 49.7474 169.055 49.0473 168.352C48.8672 168.171 48.6626 167.978 48.4074 167.963C48.18 167.949 47.9719 168.08 47.7859 168.211C47.7501 168.237 47.7135 168.262 47.6773 168.288Z" fill="#454546"/>
<path d="M191.685 43.1006H50.6791C47.2032 43.1006 44.3857 40.2832 44.3857 36.8073V17.5194C44.3857 14.0435 47.2032 11.2261 50.6791 11.2261H191.685C195.161 11.2261 197.978 14.0435 197.978 17.5194V36.8077C197.978 40.2832 195.16 43.1006 191.685 43.1006Z" fill="#F6BB35"/>
<path d="M184.965 29.9133H57.3982C55.9724 29.9133 54.8164 28.7573 54.8164 27.3315V26.9948C54.8164 25.569 55.9724 24.413 57.3982 24.413H184.965C186.391 24.413 187.547 25.569 187.547 26.9948V27.3315C187.547 28.7577 186.391 29.9133 184.965 29.9133Z" fill="#454546"/>
<path d="M177.856 198.224C177.856 198.421 177.856 198.618 177.852 198.811C177.831 201.731 177.512 204.865 176.762 207.89C176.196 210.173 175.388 212.389 174.273 214.401C173.046 216.621 171.441 218.59 169.388 220.111C165.555 222.947 161.415 223.71 157.112 223.877C155.06 223.957 152.969 223.903 150.853 223.877C150.266 223.869 149.676 223.861 149.085 223.861C144.669 223.856 140.253 223.861 135.837 223.869C131.626 223.873 127.416 223.877 123.205 223.877C115.06 223.877 106.924 223.575 98.7834 223.257C95.2265 223.119 91.6692 222.976 88.1123 222.855C79.8039 222.524 71.4538 223.136 63.2422 222.507C62.0189 222.411 60.7913 222.319 59.5889 222.08C55.1462 221.198 50.96 217.745 49.3154 213.412C50.8648 213.941 51.7089 215.59 53.0206 216.569C53.5678 216.977 54.1932 217.266 54.8134 217.551C57.024 218.567 60.0778 218.115 61.7983 216.218C64.2684 213.493 65.8618 209.967 66.8648 206.463C68.1113 202.109 68.5062 197.563 68.8948 193.051C69.5599 185.328 70.8713 177.396 70.2939 169.662C68.9282 151.37 64.9312 133.396 63.4353 115.121C62.0445 98.1568 65.1113 82.3448 66.4518 65.5652C67.1094 57.2863 67.5244 48.9866 67.6499 40.6994C67.7167 36.25 67.6959 31.8046 67.5913 27.3678H177.227C178.267 39.7779 177.583 53.6751 175.284 65.8C173.076 77.4348 169.359 88.5795 167.604 100.327C167.549 100.7 167.499 101.073 167.444 101.446C165.517 115.41 166.565 129.571 169.238 143.397C170.976 152.376 175.095 161.463 176.188 170.45C176.532 173.274 176.825 176.207 177.06 179.181C177.068 179.261 177.072 179.341 177.077 179.42C177.575 185.705 177.827 192.178 177.856 198.224Z" fill="#FBF9F0"/>
<path opacity="0.05" d="M168.422 142.988C158.594 130.964 144.815 125.665 129.727 123.359C120.249 121.91 110.647 121.398 101.197 119.762C98.2462 119.251 90.1765 118.815 88.1163 116.504C85.4963 113.564 88.3593 110.164 91.8034 109.235C94.4013 108.535 97.1346 109.03 99.7841 109.436C115.279 111.816 131.181 111.133 146.457 107.526C152.422 106.118 161.594 100.16 167.323 100.315C167.419 100.319 167.514 100.323 167.606 100.328C167.55 100.7 167.498 101.073 167.446 101.446C166.438 108.746 166.246 116.139 166.672 123.491C167.025 129.57 169.617 137.053 168.422 142.988Z" fill="#454546"/>
<path opacity="0.05" d="M177.857 198.224C177.857 198.421 177.857 198.618 177.853 198.811C177.798 201.911 177.208 204.894 176.763 207.89C176.198 210.173 175.389 212.389 174.275 214.4C173.047 216.621 171.442 218.59 169.389 220.111C165.556 222.947 161.416 223.71 157.113 223.877C155.061 223.957 152.97 223.903 150.854 223.877C150.267 223.869 149.677 223.86 149.086 223.86C144.67 223.856 140.254 223.86 135.838 223.869C131.627 223.873 127.417 223.877 123.206 223.877C115.061 223.877 106.925 223.575 98.7845 223.257C95.2275 223.119 91.6702 222.976 88.1133 222.855C79.8049 222.524 71.4549 223.136 63.2432 222.507C62.02 222.411 60.7924 222.319 59.59 222.08C55.2743 221.225 53.3151 218.126 50.4375 215.146C53.1802 217.986 58.2707 219.14 61.699 216.74C62.3653 216.273 62.8849 215.628 63.3569 214.965C67.3209 209.403 67.0881 203.482 69.5515 197.388C71.6999 206.219 77.6739 212.904 85.7632 216.721C103.653 225.163 124.095 222.717 143.125 221.02C148.667 220.525 154.366 220.773 159.661 219.051C168.209 216.269 172.419 206.507 174.464 198.391C174.539 198.09 174.614 197.784 174.686 197.482C175.474 194.126 175.968 190.708 176.337 187.28C176.525 185.55 176.969 183.577 176.844 181.847C176.814 181.44 176.228 179.417 177.078 179.421C177.576 185.705 177.828 192.178 177.857 198.224Z" fill="#454546"/>
<path opacity="0.05" d="M125.442 59.9169C114.814 59.2062 104.212 58.1926 93.9422 56.0135C88.4277 54.8445 82.3955 53.1559 77.4391 55.9549C74.3751 57.6895 72.3352 60.8483 69.9206 63.4837C68.9085 64.5854 67.7293 65.6289 66.4502 66.4038C67.1118 58.1249 67.526 49.8252 67.6495 41.538C68.6615 41.3748 69.7931 41.3284 71.0679 41.4248C78.437 41.9817 84.9349 43.9488 92.3241 43.9625C101.517 43.9795 110.671 44.5777 119.878 44.3362C138.239 43.8552 156.562 41.92 174.617 38.5452C174.83 40.1763 172.524 65.6112 171.697 65.2608C165.485 62.6317 158.622 62.0811 151.897 61.563C143.177 60.8912 134.3 60.5093 125.442 59.9169Z" fill="#454546"/>
<path d="M68.0524 31.9116L67.189 45.7069L66.2352 59.4956C65.6137 68.689 64.8998 77.8781 64.4608 87.0706C63.9798 96.2585 63.7749 105.466 64.3055 114.639C64.8168 123.814 66.1254 132.931 67.4022 142.053C68.6876 151.174 70.0206 160.314 70.6027 169.538C71.1856 178.749 71.0492 188.063 69.4357 197.185C68.638 201.742 67.4749 206.236 65.856 210.58C65.0166 212.735 63.9574 214.901 62.2051 216.538C61.3283 217.338 60.2738 217.988 59.1036 218.274C57.9468 218.594 56.7035 218.582 55.5502 218.28C54.3938 217.981 53.322 217.428 52.3741 216.733C51.423 216.039 50.5773 215.217 49.8245 214.324C49.0744 213.428 48.4069 212.463 47.8527 211.436C47.2985 210.404 46.8481 209.336 46.4395 208.25C44.8197 203.899 44.225 199.179 44.6994 194.568L45.053 194.604C44.6341 199.164 45.2736 203.812 46.913 208.072C47.3253 209.134 47.7843 210.187 48.329 211.174C48.877 212.164 49.535 213.092 50.2682 213.949C51.0037 214.803 51.8254 215.582 52.7352 216.23C53.6418 216.88 54.6515 217.382 55.7127 217.644C57.8371 218.197 60.1456 217.531 61.7083 216.001C63.3025 214.483 64.3102 212.403 65.1024 210.293C66.6489 205.999 67.7546 201.533 68.4929 197.021C69.2327 192.506 69.632 187.936 69.7374 183.358C69.8408 178.779 69.687 174.194 69.3629 169.62C68.7069 160.469 67.3023 151.374 65.9386 142.263C64.5521 133.155 63.2584 123.989 62.7392 114.728C62.207 105.473 62.397 96.207 62.9001 86.9869C63.1841 82.3774 63.5428 77.7774 63.922 73.1832C64.309 68.5895 64.6697 63.9977 65.1134 59.4107L66.3956 45.6468C66.87 41.0625 67.3007 36.4746 67.8148 31.8931L68.0524 31.9116Z" fill="#13355A"/>
<path d="M70.376 221.059L75.2262 221.611L80.0815 222.106L84.9368 222.585C86.5554 222.743 88.1771 222.868 89.7964 223.011C96.279 223.54 102.773 223.915 109.271 224.136C115.767 224.4 122.268 224.525 128.77 224.488C135.271 224.453 141.771 224.255 148.265 223.945C151.509 223.756 154.772 223.664 157.958 223.232C161.137 222.801 164.28 221.949 166.968 220.232C169.664 218.539 171.906 216.156 173.624 213.457C175.35 210.753 176.558 207.731 177.279 204.593C178.011 201.454 178.297 198.216 178.311 194.98C178.325 191.742 178.073 188.501 177.717 185.273C177.004 178.815 175.789 172.412 174.102 166.134L174.445 166.04C176.247 172.304 177.612 178.709 178.408 185.193C178.811 188.432 179.113 191.695 179.145 194.98C179.177 198.262 178.935 201.571 178.228 204.81C177.533 208.047 176.325 211.207 174.566 214.052C172.813 216.893 170.491 219.442 167.632 221.282C166.21 222.21 164.645 222.923 163.044 223.455C161.438 223.981 159.793 224.331 158.149 224.578C154.85 225.065 151.597 225.192 148.344 225.421C141.831 225.834 135.306 226.041 128.779 226.103C122.252 226.147 115.725 225.993 109.205 225.697C96.1747 224.99 83.1633 223.695 70.3438 221.295L70.376 221.059Z" fill="#13355A"/>
<path d="M168.886 143.119C167.066 135.343 166.192 127.346 166.045 119.348C166.002 115.346 166.153 111.343 166.483 107.355C166.815 103.368 167.324 99.393 168.058 95.4588C169.506 87.5851 171.663 79.9005 173.342 72.1251C174.179 68.2374 174.893 64.3226 175.316 60.3723C175.74 56.4244 175.869 52.438 175.544 48.4775L175.898 48.4457C176.34 52.4211 176.356 56.4504 176.007 60.4408C175.673 64.4343 175.045 68.3959 174.295 72.3226C172.8 80.179 170.79 87.9061 169.513 95.7177C168.887 99.6227 168.394 103.548 168.093 107.489C167.774 111.428 167.593 115.379 167.61 119.333C167.589 123.288 167.748 127.242 167.986 131.199L168.202 134.167L168.482 137.132L168.779 140.101C168.906 141.087 169.018 142.078 169.119 143.073L168.886 143.119Z" fill="#13355A"/>
<path d="M93.7449 94.4118L87.2305 70.5923" stroke="#F37059" stroke-width="4" stroke-miterlimit="10" stroke-linecap="round"/>
<path d="M87.4944 95.871L74.21 83.0432" stroke="#F37059" stroke-width="4" stroke-miterlimit="10" stroke-linecap="round"/>
<path d="M88.4167 104.614L72.2314 98.9138" stroke="#F37059" stroke-width="4" stroke-miterlimit="10" stroke-linecap="round"/>
<path d="M166.143 170.14L187.3 182.873" stroke="#F37059" stroke-width="4" stroke-miterlimit="10" stroke-linecap="round"/>
<path d="M163.041 175.759L171.782 192.025" stroke="#F37059" stroke-width="4" stroke-miterlimit="10" stroke-linecap="round"/>
<path d="M154.877 172.498L155.971 189.623" stroke="#F37059" stroke-width="4" stroke-miterlimit="10" stroke-linecap="round"/>
</svg>
