<svg width="818" height="805" viewBox="0 0 818 805" fill="none" xmlns="http://www.w3.org/2000/svg">
<path d="M449.777 849.339C576.063 832.58 700.498 837.359 828.186 839.867C828.186 839.867 828.186 -24.096 828.186 -24.331C828.186 -25.3 503.092 -30.232 482.509 -30.606C416.615 -31.802 350.921 -37.959 285.021 -38.944C227.608 -39.802 172.566 -30.565 115.627 -30.134C88.156 -29.926 59.567 -28.637 35.331 -15.821C-4.657 5.33399 -3.514 67.22 19.701 100.167C32.018 117.647 49.173 131.027 66.067 144.136C113.766 181.151 159.44 211.381 180.714 270.556C199.146 321.826 193.992 378.534 166.17 425.445C138.897 471.43 103.079 515.199 106.672 571.648C108.945 607.351 126.093 633.51 149.075 659.581C170.368 683.737 181.983 707.156 160.406 738.341C142.49 764.235 110.466 783.78 78.464 792.469C51.439 799.807 21.271 802.434 0 819.17C6.641 813.945 44.279 819.188 53.7 819.291C75.179 819.526 96.655 819.984 118.122 820.666C155.872 821.865 200.94 818.671 237.528 827.567C308.09 844.723 375.163 859.241 449.777 849.339Z" fill="#FBF9F0"/>
</svg>
