<svg width="873" height="812" viewBox="0 0 873 812" fill="none" xmlns="http://www.w3.org/2000/svg">
<g clip-path="url(#clip0)">
<g clip-path="url(#clip1)">
<path d="M918.483 -17.905C918.483 -18.874 600.44 -23.806 580.309 -24.18C542.364 -24.884 -1.97605 -46.783 -1.98905 -45.978C-3.08705 23.58 75.935 55.274 126.003 83.266C179.986 113.447 244.217 172.297 249.847 237.782C251.78 260.27 246.015 282.622 240.483 304.504C229.199 349.143 218.615 395.044 223.548 440.823C231.2 511.831 274.839 537.6 326.297 576.297C366.337 606.408 413.187 642.791 400.034 699.412C394.125 724.849 376.719 745.95 366.694 770.063C351.652 806.245 366.024 857.987 410.762 858.118C436.602 858.194 462.442 858.269 488.282 858.345C508.317 858.404 528.429 858.457 548.282 855.764C671.828 839.005 793.564 843.784 918.483 846.292C918.483 846.293 918.483 -17.67 918.483 -17.905Z" fill="#FBF9F0"/>
</g>
</g>
<defs>
<clipPath id="clip0">
<rect width="873.356" height="813.209" fill="white"/>
</clipPath>
<clipPath id="clip1">
<rect width="920.483" height="904.362" fill="white" transform="translate(-2 -46)"/>
</clipPath>
</defs>
</svg>
