<svg width="566" height="325" viewBox="0 0 566 325" fill="none" xmlns="http://www.w3.org/2000/svg">
<g>
<rect x="0" y="0" width="566" height="325" fill="#B91600"/>
<path d="M-38.8568 78.6309C-39.172 78.5754 -39.4232 78.4336 -39.6104 78.2056C-39.7606 77.9517 -39.8079 77.6671 -39.7524 77.352L-38.5354 70.4505L-53.8984 67.7416C-54.2136 67.686 -54.4648 67.5442 -54.652 67.3162C-54.8022 67.0623 -54.8495 66.7778 -54.794 66.4626L-54.4856 64.7136C-54.4078 64.2724 -54.1511 63.8303 -53.7155 63.3872L-35.9529 45.8532C-35.7509 45.6289 -35.4812 45.4815 -35.1439 45.411C-34.8009 45.309 -34.4404 45.2913 -34.0622 45.358L-30.8478 45.9248C-30.5012 45.9859 -30.25 46.1277 -30.0942 46.3501C-29.9385 46.5726 -29.8912 46.8571 -29.9523 47.2037L-33.4864 67.2465L-29.1847 68.005C-28.8696 68.0606 -28.6369 68.2154 -28.4868 68.4693C-28.2995 68.6973 -28.2337 68.9688 -28.2892 69.284L-28.606 71.0803C-28.6615 71.3954 -28.8191 71.6438 -29.0785 71.8255C-29.301 71.9813 -29.5698 72.0314 -29.8849 71.9758L-34.1865 71.2173L-35.4035 78.1188C-35.459 78.434 -35.6166 78.6824 -35.8761 78.8641C-36.0985 79.0198 -36.3673 79.0699 -36.6824 79.0143L-38.8568 78.6309ZM-49.386 64.5405L-37.8047 66.5826L-34.9041 50.1324L-49.386 64.5405ZM-12.839 83.706C-16.9043 82.9892 -19.6739 81.2823 -21.148 78.5853C-22.585 75.8624 -23.0276 72.5675 -22.4757 68.7006L-21.8062 64.627L-21.0171 60.4282C-20.2502 56.6317 -18.7129 53.7184 -16.4053 51.6883C-14.0607 49.6322 -10.8715 48.9598 -6.8377 49.671C-2.77241 50.3879 -0.00551076 52.1105 1.46301 54.8389C2.9686 57.5414 3.43248 60.8076 2.85465 64.6375C2.73058 65.5254 2.49906 66.9306 2.1601 68.8529C1.83225 70.7122 1.57756 72.0645 1.39601 72.9098C0.592032 76.7323 -0.966529 79.6744 -3.27967 81.736C-5.55574 83.7717 -8.74218 84.4284 -12.839 83.706ZM-12.1472 79.7825C-9.7206 80.2104 -7.7511 79.7291 -6.23867 78.3386C-4.72623 76.9481 -3.68011 74.793 -3.10031 71.8733C-2.90765 70.965 -2.66129 69.6599 -2.36122 67.9582C-2.0556 66.2249 -1.84353 64.9301 -1.72501 64.0736C-1.27682 61.1633 -1.54131 58.7933 -2.51847 56.9639C-3.45856 55.1084 -5.12613 53.9695 -7.52118 53.5472C-9.91623 53.1249 -11.8728 53.6248 -13.3907 55.0468C-14.9032 56.4373 -15.9465 58.5766 -16.5208 61.4648L-17.2515 65.3326L-17.8961 69.2644C-18.3498 72.2063 -18.1039 74.5892 -17.1582 76.4132C-16.2126 78.2371 -14.5422 79.3602 -12.1472 79.7825ZM22.1686 89.3914C21.8535 89.3358 21.6023 89.194 21.415 88.966C21.2648 88.7121 21.2175 88.4276 21.2731 88.1124L22.49 81.2109L7.12701 78.502C6.81187 78.4464 6.56068 78.3046 6.37342 78.0767C6.22323 77.8227 6.17592 77.5382 6.23149 77.2231L6.53989 75.474C6.61768 75.0328 6.87436 74.5907 7.30992 74.1476L25.0725 56.6137C25.2745 56.3893 25.5442 56.2419 25.8816 56.1714C26.2245 56.0694 26.5851 56.0518 26.9632 56.1185L30.1776 56.6852C30.5243 56.7464 30.7755 56.8881 30.9312 57.1106C31.087 57.333 31.1343 57.6175 31.0732 57.9642L27.5391 78.007L31.8407 78.7655C32.1559 78.821 32.3885 78.9758 32.5387 79.2297C32.726 79.4577 32.7918 79.7293 32.7362 80.0444L32.4195 81.8407C32.3639 82.1558 32.2064 82.4043 31.9469 82.586C31.7245 82.7417 31.4557 82.7918 31.1406 82.7362L26.8389 81.9777L25.622 88.8793C25.5664 89.1944 25.4089 89.4428 25.1494 89.6245C24.927 89.7803 24.6582 89.8303 24.3431 89.7748L22.1686 89.3914ZM11.6394 75.3009L23.2208 77.343L26.1214 60.8928L11.6394 75.3009Z" fill="#FF7057"/>
<path d="M97.981 2.78567C97.6803 2.89511 97.3918 2.89793 97.1157 2.79413C96.8587 2.6493 96.6754 2.42654 96.566 2.12584L94.1691 -4.45953L79.5099 0.875985C79.2092 0.985432 78.9208 0.988251 78.6446 0.884443C78.3876 0.739619 78.2043 0.516857 78.0949 0.216156L77.4874 -1.45274C77.3342 -1.87372 77.3354 -2.38497 77.4911 -2.98648L84.107 -27.0526C84.1698 -27.3479 84.3296 -27.6104 84.5866 -27.8401C84.8325 -28.0999 85.1359 -28.2955 85.4968 -28.4268L88.5639 -29.5432C88.8947 -29.6636 89.1831 -29.6664 89.4292 -29.5516C89.6753 -29.4369 89.8586 -29.2141 89.979 -28.8834L96.9397 -9.75873L101.044 -11.2527C101.345 -11.3621 101.624 -11.3444 101.881 -11.1996C102.157 -11.0958 102.35 -10.8935 102.459 -10.5928L103.083 -8.87884C103.193 -8.57814 103.18 -8.28424 103.047 -7.99714C102.932 -7.75105 102.724 -7.57328 102.423 -7.46383L98.3188 -5.96989L100.716 0.615477C100.825 0.916179 100.813 1.21008 100.679 1.49718C100.564 1.74327 100.357 1.92104 100.056 2.03049L97.981 2.78567ZM81.8172 -4.15242L92.868 -8.17458L87.1549 -23.8712L81.8172 -4.15242ZM123.051 -5.82814C119.172 -4.41628 115.92 -4.50964 113.294 -6.10822C110.689 -7.74782 108.658 -10.38 107.202 -14.0048L105.745 -17.8674L104.329 -21.8982C103.095 -25.5695 102.97 -28.8612 103.953 -31.7731C104.956 -34.7261 107.381 -36.903 111.23 -38.3039C115.109 -39.7158 118.367 -39.6074 121.003 -37.9787C123.658 -36.3911 125.693 -33.7944 127.107 -30.1888C127.444 -29.3578 127.946 -28.0251 128.614 -26.1908C129.259 -24.4167 129.715 -23.1182 129.98 -22.2954C131.195 -18.583 131.317 -15.2558 130.344 -12.3138C129.391 -9.41284 126.96 -7.25094 123.051 -5.82814ZM121.688 -9.57187C124.003 -10.4146 125.468 -11.8162 126.083 -13.7766C126.698 -15.737 126.526 -18.1264 125.568 -20.9449C125.281 -21.8278 124.842 -23.0812 124.251 -24.705C123.649 -26.3589 123.185 -27.5863 122.859 -28.3872C121.792 -31.1318 120.378 -33.052 118.617 -34.1478C116.876 -35.2846 114.862 -35.4371 112.577 -34.6053C110.291 -33.7735 108.847 -32.3624 108.243 -30.3719C107.629 -28.4114 107.795 -26.0371 108.742 -23.2487L110.043 -19.5337L111.45 -15.8063C112.528 -13.0317 113.933 -11.091 115.664 -9.98429C117.395 -8.87755 119.403 -8.74008 121.688 -9.57187ZM156.211 -18.4082C155.91 -18.2988 155.622 -18.296 155.346 -18.3998C155.088 -18.5446 154.905 -18.7674 154.796 -19.0681L152.399 -25.6534L137.74 -20.3179C137.439 -20.2085 137.151 -20.2057 136.874 -20.3095C136.617 -20.4543 136.434 -20.6771 136.325 -20.9778L135.717 -22.6467C135.564 -23.0676 135.565 -23.5789 135.721 -24.1804L142.337 -48.2465C142.4 -48.5418 142.559 -48.8043 142.816 -49.0341C143.062 -49.2938 143.366 -49.4894 143.727 -49.6208L146.794 -50.7371C147.125 -50.8575 147.413 -50.8603 147.659 -50.7456C147.905 -50.6308 148.088 -50.408 148.209 -50.0773L155.17 -30.9526L159.274 -32.4466C159.575 -32.556 159.854 -32.5383 160.111 -32.3935C160.387 -32.2897 160.58 -32.0875 160.689 -31.7868L161.313 -30.0728C161.422 -29.7721 161.41 -29.4782 161.276 -29.1911C161.162 -28.945 160.954 -28.7672 160.653 -28.6578L156.549 -27.1638L158.945 -20.5784C159.055 -20.2777 159.043 -19.9838 158.909 -19.6967C158.794 -19.4506 158.586 -19.2729 158.286 -19.1634L156.211 -18.4082ZM140.047 -25.3463L151.098 -29.3685L145.385 -45.0651L140.047 -25.3463Z" fill="#FF7057"/>
<path d="M-55.9679 235.162C-56.2686 235.271 -56.557 235.274 -56.8332 235.17C-57.0902 235.025 -57.2734 234.803 -57.3829 234.502L-59.7798 227.916L-74.439 233.252C-74.7397 233.361 -75.0281 233.364 -75.3043 233.26C-75.5613 233.116 -75.7445 232.893 -75.854 232.592L-76.4614 230.923C-76.6146 230.502 -76.6134 229.991 -76.4578 229.389L-69.8419 205.323C-69.7791 205.028 -69.6192 204.766 -69.3623 204.536C-69.1163 204.276 -68.8129 204.08 -68.4521 203.949L-65.3849 202.833C-65.0541 202.712 -64.7657 202.71 -64.5196 202.824C-64.2735 202.939 -64.0903 203.162 -63.9699 203.493L-57.0091 222.617L-52.9045 221.123C-52.6038 221.014 -52.325 221.032 -52.0679 221.176C-51.7918 221.28 -51.599 221.482 -51.4895 221.783L-50.8657 223.497C-50.7562 223.798 -50.7684 224.092 -50.9023 224.379C-51.0171 224.625 -51.2248 224.803 -51.5255 224.912L-55.6301 226.406L-53.2332 232.991C-53.1238 233.292 -53.136 233.586 -53.2699 233.873C-53.3846 234.119 -53.5923 234.297 -53.893 234.406L-55.9679 235.162ZM-72.1316 228.224L-61.0808 224.201L-66.794 208.505L-72.1316 228.224ZM-30.8982 226.548C-34.7773 227.96 -38.0293 227.866 -40.6544 226.268C-43.2603 224.628 -45.291 221.996 -46.7466 218.371L-48.2035 214.509L-49.6195 210.478C-50.8536 206.806 -50.979 203.515 -49.9956 200.603C-48.9931 197.65 -46.5674 195.473 -42.7184 194.072C-38.8394 192.66 -35.5818 192.769 -32.9458 194.397C-30.2907 195.985 -28.2559 198.582 -26.8414 202.187C-26.5049 203.018 -26.0028 204.351 -25.3352 206.185C-24.6894 207.959 -24.2338 209.258 -23.9684 210.081C-22.7534 213.793 -22.6322 217.12 -23.6046 220.062C-24.5579 222.963 -26.9891 225.125 -30.8982 226.548ZM-32.2608 222.804C-29.9454 221.961 -28.4804 220.56 -27.8659 218.599C-27.2513 216.639 -27.4229 214.25 -28.3806 211.431C-28.6679 210.548 -29.1071 209.295 -29.6981 207.671C-30.3001 206.017 -30.7638 204.79 -31.0894 203.989C-32.1564 201.244 -33.5705 199.324 -35.3314 198.228C-37.0733 197.091 -39.0869 196.939 -41.3722 197.771C-43.6576 198.602 -45.102 200.014 -45.7057 202.004C-46.3202 203.965 -46.1541 206.339 -45.2073 209.127L-43.9063 212.842L-42.4985 216.57C-41.4206 219.344 -40.0161 221.285 -38.2852 222.392C-36.5543 223.498 -34.5462 223.636 -32.2608 222.804ZM2.26194 213.968C1.96124 214.077 1.67281 214.08 1.39665 213.976C1.13961 213.831 0.956375 213.609 0.846928 213.308L-1.54995 206.723L-16.2092 212.058C-16.5099 212.167 -16.7983 212.17 -17.0744 212.067C-17.3315 211.922 -17.5147 211.699 -17.6242 211.398L-18.2316 209.729C-18.3848 209.308 -18.3836 208.797 -18.2279 208.196L-11.6121 184.129C-11.5493 183.834 -11.3894 183.572 -11.1325 183.342C-10.8865 183.082 -10.5831 182.887 -10.2223 182.755L-7.1551 181.639C-6.82432 181.518 -6.53589 181.516 -6.2898 181.63C-6.04372 181.745 -5.86048 181.968 -5.74009 182.299L1.22071 201.423L5.32529 199.929C5.62599 199.82 5.90486 199.838 6.16189 199.982C6.43805 200.086 6.63085 200.289 6.7403 200.589L7.36414 202.303C7.47359 202.604 7.46137 202.898 7.32749 203.185C7.21274 203.431 7.00501 203.609 6.70431 203.718L2.59973 205.212L4.99661 211.798C5.10606 212.098 5.09384 212.392 4.95996 212.679C4.84521 212.925 4.63748 213.103 4.33678 213.213L2.26194 213.968ZM-13.9018 207.03L-2.85103 203.007L-8.56414 187.311L-13.9018 207.03Z" fill="#FF7057"/>
<path d="M71.8387 142.211C71.538 142.32 71.2496 142.323 70.9734 142.219C70.7164 142.075 70.5331 141.852 70.4237 141.551L68.0268 134.966L53.3676 140.301C53.0669 140.411 52.7785 140.414 52.5023 140.31C52.2453 140.165 52.062 139.942 51.9526 139.641L51.3452 137.973C51.1919 137.552 51.1932 137.04 51.3488 136.439L57.9647 112.373C58.0275 112.077 58.1874 111.815 58.4443 111.585C58.6903 111.325 58.9937 111.13 59.3545 110.998L62.4217 109.882C62.7524 109.762 63.0409 109.759 63.287 109.874C63.5331 109.988 63.7163 110.211 63.8367 110.542L70.7975 129.667L74.9021 128.173C75.2028 128.063 75.4816 128.081 75.7387 128.226C76.0148 128.329 76.2076 128.532 76.3171 128.832L76.9409 130.546C77.0504 130.847 77.0381 131.141 76.9043 131.428C76.7895 131.674 76.5818 131.852 76.2811 131.961L72.1765 133.455L74.5734 140.041C74.6828 140.341 74.6706 140.635 74.5367 140.922C74.422 141.169 74.2142 141.346 73.9135 141.456L71.8387 142.211ZM55.6749 135.273L66.7257 131.251L61.0126 115.554L55.6749 135.273ZM96.9084 133.597C93.0293 135.009 89.7773 134.916 87.1522 133.317C84.5463 131.677 82.5155 129.045 81.06 125.42L79.6031 121.558L78.187 117.527C76.953 113.856 76.8276 110.564 77.811 107.652C78.8134 104.699 81.2392 102.522 85.0882 101.121C88.9672 99.7095 92.2247 99.8179 94.8607 101.447C97.5159 103.034 99.5507 105.631 100.965 109.237C101.302 110.068 101.804 111.4 102.471 113.234C103.117 115.009 103.573 116.307 103.838 117.13C105.053 120.842 105.174 124.169 104.202 127.111C103.249 130.012 100.817 132.174 96.9084 133.597ZM95.5458 129.853C97.8612 129.011 99.3261 127.609 99.9407 125.649C100.555 123.688 100.384 121.299 99.426 118.48C99.1387 117.597 98.6995 116.344 98.1085 114.72C97.5065 113.066 97.0428 111.839 96.7172 111.038C95.6501 108.294 94.2361 106.373 92.4751 105.278C90.7333 104.141 88.7197 103.988 86.4343 104.82C84.149 105.652 82.7045 107.063 82.1009 109.053C81.4864 111.014 81.6525 113.388 82.5992 116.177L83.9003 119.892L85.308 123.619C86.386 126.394 87.7905 128.334 89.5214 129.441C91.2523 130.548 93.2604 130.685 95.5458 129.853ZM130.069 121.017C129.768 121.126 129.479 121.129 129.203 121.026C128.946 120.881 128.763 120.658 128.654 120.357L126.257 113.772L111.597 119.107C111.297 119.217 111.008 119.22 110.732 119.116C110.475 118.971 110.292 118.748 110.182 118.448L109.575 116.779C109.422 116.358 109.423 115.846 109.579 115.245L116.195 91.1788C116.257 90.8835 116.417 90.621 116.674 90.3912C116.92 90.1314 117.223 89.9359 117.584 89.8045L120.651 88.6882C120.982 88.5678 121.271 88.565 121.517 88.6797C121.763 88.7945 121.946 89.0172 122.066 89.348L129.027 108.473L133.132 106.979C133.433 106.869 133.711 106.887 133.968 107.032C134.245 107.136 134.437 107.338 134.547 107.639L135.171 109.353C135.28 109.653 135.268 109.947 135.134 110.234C135.019 110.48 134.812 110.658 134.511 110.768L130.406 112.261L132.803 118.847C132.913 119.148 132.9 119.441 132.767 119.729C132.652 119.975 132.444 120.152 132.143 120.262L130.069 121.017ZM113.905 114.079L124.956 110.057L119.242 94.3602L113.905 114.079Z" fill="#FF7057"/>
<path d="M193.803 6.79541C193.598 6.55028 193.496 6.28021 193.5 5.9852C193.548 5.69413 193.694 5.44576 193.939 5.24006L199.308 0.735407L189.28 -11.2149C189.075 -11.46 188.973 -11.7301 188.977 -12.0251C189.025 -12.3162 189.171 -12.5645 189.417 -12.7702L190.777 -13.9118C191.12 -14.1998 191.601 -14.3735 192.22 -14.433L217.097 -16.4472C217.396 -16.4892 217.697 -16.4287 218.001 -16.2659C218.329 -16.1236 218.617 -15.9054 218.864 -15.6112L220.962 -13.1108C221.188 -12.8412 221.289 -12.5711 221.266 -12.3006C221.242 -12.0301 221.095 -11.7817 220.826 -11.5555L205.235 1.52654L208.043 4.87262C208.249 5.11776 208.327 5.38586 208.279 5.67692C208.276 5.97193 208.152 6.22228 207.907 6.42797L206.51 7.60042C206.264 7.80611 205.984 7.89515 205.668 7.86754C205.398 7.84388 205.16 7.70948 204.954 7.46434L202.146 4.11826L196.778 8.62292C196.533 8.82861 196.253 8.91765 195.937 8.89004C195.666 8.86637 195.428 8.73197 195.223 8.48684L193.803 6.79541ZM194.795 -10.7665L202.354 -1.75783L215.15 -12.495L194.795 -10.7665ZM210.472 27.4071C207.819 24.2449 206.794 21.157 207.398 18.1435C208.048 15.134 209.827 12.3254 212.735 9.71793L215.867 7.02774L219.17 4.31852C222.198 1.90319 225.248 0.659577 228.321 0.587692C231.438 0.519751 234.314 2.05464 236.947 5.19236C239.6 8.35459 240.612 11.4527 239.983 14.4868C239.4 17.5248 237.656 20.325 234.751 22.8874C234.085 23.4879 233.005 24.4155 231.509 25.6702C230.063 26.8838 228.999 27.756 228.316 28.2869C225.243 30.6982 222.158 31.9502 219.061 32.0426C216.009 32.139 213.146 30.5938 210.472 27.4071ZM213.524 24.8462C215.108 26.7338 216.926 27.631 218.978 27.538C221.031 27.445 223.217 26.4666 225.538 24.6027C226.27 24.0307 227.297 23.1893 228.621 22.0786C229.969 20.9472 230.964 20.0917 231.605 19.5118C233.819 17.5704 235.14 15.5849 235.568 13.5553C236.04 11.5297 235.495 9.58539 233.931 7.72237C232.368 5.85935 230.548 4.98463 228.471 5.0982C226.419 5.19121 224.244 6.15938 221.948 8.00272L218.902 10.496L215.881 13.0936C213.642 15.0556 212.299 17.0391 211.851 19.0441C211.403 21.0492 211.961 22.9832 213.524 24.8462ZM233.635 54.2648C233.429 54.0197 233.328 53.7496 233.331 53.4546C233.379 53.1635 233.526 52.9151 233.771 52.7094L239.139 48.2048L229.112 36.2545C228.906 36.0094 228.805 35.7393 228.808 35.4443C228.856 35.1532 229.003 34.9048 229.248 34.6991L230.609 33.5576C230.952 33.2696 231.433 33.0959 232.051 33.0364L256.929 31.0222C257.228 30.9802 257.529 31.0407 257.833 31.2035C258.161 31.3458 258.448 31.564 258.695 31.8582L260.793 34.3586C261.02 34.6282 261.121 34.8983 261.097 35.1688C261.074 35.4393 260.927 35.6876 260.657 35.9139L245.067 48.9959L247.874 52.342C248.08 52.5871 248.159 52.8552 248.111 53.1463C248.108 53.4413 247.983 53.6917 247.738 53.8974L246.341 55.0698C246.096 55.2755 245.816 55.3645 245.5 55.3369C245.23 55.3133 244.991 55.1789 244.786 54.9337L241.978 51.5876L236.61 56.0923C236.364 56.298 236.084 56.387 235.769 56.3594C235.498 56.3358 235.26 56.2014 235.054 55.9562L233.635 54.2648ZM234.626 36.7029L242.185 45.7115L254.981 34.9744L234.626 36.7029Z" fill="#FF7057"/>
<path d="M64.8007 219.797C64.8563 219.482 64.9981 219.231 65.226 219.043C65.48 218.893 65.7645 218.846 66.0796 218.902L72.9812 220.118L75.6901 204.755C75.7457 204.44 75.8874 204.189 76.1154 204.002C76.3693 203.852 76.6539 203.804 76.969 203.86L78.718 204.168C79.1592 204.246 79.6014 204.503 80.0445 204.938L97.5784 222.701C97.8027 222.903 97.9502 223.173 98.0206 223.51C98.1226 223.853 98.1403 224.214 98.0736 224.592L97.5068 227.806C97.4457 228.153 97.3039 228.404 97.0815 228.56C96.8591 228.715 96.5746 228.763 96.2279 228.702L76.1851 225.168L75.4266 229.469C75.371 229.784 75.2163 230.017 74.9623 230.167C74.7344 230.354 74.4628 230.42 74.1477 230.365L72.3514 230.048C72.0362 229.992 71.7878 229.835 71.6061 229.575C71.4504 229.353 71.4003 229.084 71.4559 228.769L72.2143 224.467L65.3128 223.25C64.9977 223.195 64.7493 223.037 64.5676 222.778C64.4118 222.555 64.3617 222.287 64.4173 221.972L64.8007 219.797ZM78.8911 209.268L76.849 220.849L93.2993 223.75L78.8911 209.268ZM59.7257 245.815C60.4425 241.75 62.1494 238.98 64.8463 237.506C67.5692 236.069 70.8641 235.626 74.731 236.178L78.8046 236.848L83.0034 237.637C86.7999 238.404 89.7132 239.941 91.7434 242.249C93.7995 244.593 94.4719 247.782 93.7606 251.816C93.0438 255.882 91.3212 258.648 88.5927 260.117C85.8902 261.623 82.624 262.086 78.7942 261.509C77.9062 261.385 76.5011 261.153 74.5787 260.814C72.7194 260.486 71.3671 260.231 70.5218 260.05C66.6993 259.246 63.7573 257.687 61.6956 255.374C59.6599 253.098 59.0033 249.912 59.7257 245.815ZM63.6491 246.507C63.2213 248.933 63.7026 250.903 65.0931 252.415C66.4836 253.928 68.6386 254.974 71.5583 255.554C72.4667 255.746 73.7717 255.993 75.4735 256.293C77.2067 256.598 78.5016 256.81 79.358 256.929C82.2684 257.377 84.6383 257.113 86.4678 256.135C88.3232 255.195 89.4621 253.528 89.8844 251.133C90.3067 248.738 89.8069 246.781 88.3849 245.263C86.9944 243.751 84.855 242.707 81.9669 242.133L78.099 241.402L74.1672 240.758C71.2253 240.304 68.8424 240.55 67.0185 241.496C65.1946 242.441 64.0714 244.112 63.6491 246.507ZM54.0403 280.823C54.0958 280.507 54.2376 280.256 54.4656 280.069C54.7195 279.919 55.0041 279.871 55.3192 279.927L62.2207 281.144L64.9297 265.781C64.9852 265.466 65.127 265.215 65.355 265.027C65.6089 264.877 65.8935 264.83 66.2086 264.885L67.9576 265.194C68.3988 265.272 68.8409 265.528 69.284 265.964L86.818 283.726C87.0423 283.928 87.1897 284.198 87.2602 284.536C87.3622 284.878 87.3799 285.239 87.3132 285.617L86.7464 288.832C86.6853 289.178 86.5435 289.429 86.3211 289.585C86.0987 289.741 85.8141 289.788 85.4675 289.727L65.4247 286.193L64.6662 290.495C64.6106 290.81 64.4558 291.042 64.2019 291.193C63.9739 291.38 63.7024 291.446 63.3872 291.39L61.5909 291.073C61.2758 291.018 61.0274 290.86 60.8457 290.601C60.6899 290.378 60.6399 290.11 60.6954 289.794L61.4539 285.493L54.5524 284.276C54.2372 284.22 53.9888 284.063 53.8071 283.803C53.6514 283.581 53.6013 283.312 53.6569 282.997L54.0403 280.823ZM68.1307 270.293L66.0886 281.875L82.5388 284.775L68.1307 270.293Z" fill="#FF7057"/>
<path d="M210.473 199.404C210.429 199.721 210.296 199.977 210.075 200.172C209.826 200.331 209.543 200.388 209.227 200.344L202.287 199.368L200.116 214.817C200.071 215.133 199.938 215.389 199.717 215.585C199.468 215.743 199.186 215.801 198.869 215.756L197.11 215.509C196.666 215.447 196.216 215.206 195.758 214.786L177.614 197.646C177.383 197.452 177.226 197.187 177.144 196.853C177.03 196.514 177 196.154 177.054 195.774L177.508 192.541C177.557 192.193 177.69 191.937 177.907 191.773C178.123 191.61 178.406 191.553 178.755 191.602L198.909 194.434L199.517 190.109C199.561 189.792 199.708 189.554 199.956 189.395C200.177 189.2 200.447 189.125 200.763 189.169L202.57 189.423C202.887 189.467 203.14 189.616 203.331 189.869C203.494 190.086 203.554 190.353 203.509 190.67L202.901 194.995L209.841 195.971C210.158 196.015 210.412 196.164 210.602 196.417C210.766 196.634 210.825 196.901 210.781 197.218L210.473 199.404ZM196.759 210.419L198.396 198.773L181.854 196.448L196.759 210.419ZM214.637 173.225C214.063 177.313 212.454 180.14 209.81 181.708C207.139 183.239 203.861 183.796 199.978 183.38L195.883 182.853L191.659 182.21C187.838 181.577 184.873 180.142 182.764 177.907C180.627 175.635 179.844 172.471 180.414 168.415C180.988 164.327 182.613 161.502 185.289 159.939C187.937 158.34 191.185 157.763 195.033 158.206C195.925 158.299 197.337 158.482 199.27 158.753C201.14 159.016 202.5 159.223 203.351 159.375C207.199 160.045 210.194 161.5 212.335 163.74C214.449 165.944 215.216 169.105 214.637 173.225ZM210.692 172.67C211.035 170.23 210.485 168.279 209.043 166.816C207.601 165.353 205.41 164.383 202.472 163.905C201.558 163.744 200.245 163.544 198.534 163.303C196.791 163.058 195.489 162.891 194.629 162.803C191.705 162.457 189.346 162.804 187.551 163.844C185.73 164.848 184.65 166.555 184.311 168.963C183.973 171.371 184.541 173.309 186.015 174.777C187.457 176.24 189.632 177.208 192.538 177.681L196.429 178.276L200.381 178.783C203.337 179.134 205.71 178.805 207.5 177.796C209.29 176.787 210.354 175.079 210.692 172.67ZM219.098 138.04C219.053 138.357 218.92 138.613 218.699 138.808C218.45 138.967 218.168 139.024 217.851 138.98L210.911 138.005L208.74 153.453C208.695 153.77 208.562 154.026 208.341 154.221C208.093 154.38 207.81 154.437 207.493 154.392L205.734 154.145C205.291 154.083 204.84 153.842 204.382 153.422L186.239 136.282C186.007 136.088 185.851 135.824 185.768 135.489C185.654 135.15 185.624 134.79 185.678 134.41L186.132 131.178C186.181 130.829 186.314 130.573 186.531 130.41C186.748 130.246 187.03 130.189 187.379 130.238L207.533 133.07L208.141 128.745C208.185 128.428 208.332 128.19 208.58 128.031C208.802 127.836 209.071 127.761 209.388 127.805L211.194 128.059C211.511 128.104 211.764 128.252 211.955 128.505C212.119 128.722 212.178 128.989 212.133 129.306L211.526 133.632L218.465 134.607C218.782 134.651 219.036 134.8 219.227 135.053C219.39 135.27 219.449 135.537 219.405 135.854L219.098 138.04ZM205.383 149.055L207.02 137.409L190.478 135.084L205.383 149.055Z" fill="#FF7057"/>
<path d="M301.31 95.7364C301.009 95.8458 300.72 95.8486 300.444 95.7448C300.187 95.6 300.004 95.3772 299.895 95.0765L297.498 88.4912L282.838 93.8267C282.538 93.9361 282.249 93.9389 281.973 93.8351C281.716 93.6903 281.533 93.4675 281.423 93.1668L280.816 91.4979C280.663 91.077 280.664 90.5657 280.82 89.9642L287.436 65.8981C287.498 65.6028 287.658 65.3403 287.915 65.1106C288.161 64.8508 288.465 64.6552 288.825 64.5239L291.893 63.4075C292.223 63.2871 292.512 63.2843 292.758 63.399C293.004 63.5138 293.187 63.7366 293.308 64.0673L300.268 83.192L304.373 81.698C304.674 81.5886 304.953 81.6063 305.21 81.7511C305.486 81.8549 305.679 82.0571 305.788 82.3578L306.412 84.0718C306.521 84.3725 306.509 84.6664 306.375 84.9535C306.26 85.1996 306.053 85.3774 305.752 85.4868L301.647 86.9808L304.044 93.5662C304.154 93.8669 304.141 94.1608 304.008 94.4479C303.893 94.694 303.685 94.8717 303.384 94.9812L301.31 95.7364ZM285.146 88.7983L296.197 84.7761L290.484 69.0795L285.146 88.7983ZM326.379 87.1225C322.5 88.5344 319.248 88.441 316.623 86.8425C314.017 85.2029 311.986 82.5707 310.531 78.9459L309.074 75.0833L307.658 71.0525C306.424 67.3811 306.298 64.0895 307.282 61.1776C308.284 58.2246 310.71 56.0477 314.559 54.6468C318.438 53.2349 321.696 53.3433 324.332 54.972C326.987 56.5596 329.022 59.1562 330.436 62.7619C330.773 63.5929 331.275 64.9256 331.942 66.7599C332.588 68.534 333.044 69.8325 333.309 70.6553C334.524 74.3677 334.645 77.6948 333.673 80.6368C332.72 83.5378 330.288 85.6997 326.379 87.1225ZM325.017 83.3788C327.332 82.5361 328.797 81.1345 329.412 79.1741C330.026 77.2137 329.855 74.8242 328.897 72.0058C328.61 71.1228 328.17 69.8695 327.579 68.2457C326.977 66.5918 326.514 65.3644 326.188 64.5635C325.121 61.8189 323.707 59.8987 321.946 58.8029C320.204 57.6661 318.191 57.5136 315.905 58.3454C313.62 59.1772 312.175 60.5883 311.572 62.5788C310.957 64.5392 311.123 66.9136 312.07 69.702L313.371 73.417L314.779 77.1443C315.857 79.919 317.261 81.8597 318.992 82.9664C320.723 84.0731 322.731 84.2106 325.017 83.3788ZM359.539 74.5424C359.239 74.6519 358.95 74.6547 358.674 74.5509C358.417 74.4061 358.234 74.1833 358.124 73.8826L355.728 67.2972L341.068 72.6328C340.768 72.7422 340.479 72.745 340.203 72.6412C339.946 72.4964 339.763 72.2736 339.653 71.9729L339.046 70.304C338.893 69.883 338.894 69.3718 339.05 68.7703L345.665 44.7042C345.728 44.4089 345.888 44.1464 346.145 43.9166C346.391 43.6568 346.694 43.4613 347.055 43.3299L350.122 42.2136C350.453 42.0932 350.742 42.0904 350.988 42.2051C351.234 42.3199 351.417 42.5426 351.537 42.8734L358.498 61.998L362.603 60.5041C362.903 60.3946 363.182 60.4123 363.439 60.5572C363.716 60.661 363.908 60.8632 364.018 61.1639L364.642 62.8779C364.751 63.1786 364.739 63.4725 364.605 63.7596C364.49 64.0057 364.282 64.1835 363.982 64.2929L359.877 65.7869L362.274 72.3722C362.384 72.6729 362.371 72.9668 362.237 73.254C362.123 73.5 361.915 73.6778 361.614 73.7873L359.539 74.5424ZM343.376 67.6043L354.426 63.5822L348.713 47.8856L343.376 67.6043Z" fill="#FF7057"/>
<path d="M429.116 2.78567C428.816 2.89511 428.527 2.89793 428.251 2.79413C427.994 2.6493 427.811 2.42654 427.701 2.12584L425.304 -4.45953L410.645 0.875985C410.344 0.985432 410.056 0.988251 409.78 0.884443C409.523 0.739619 409.34 0.516857 409.23 0.216156L408.623 -1.45274C408.469 -1.87372 408.471 -2.38497 408.626 -2.98648L415.242 -27.0526C415.305 -27.3479 415.465 -27.6104 415.722 -27.8401C415.968 -28.0999 416.271 -28.2955 416.632 -28.4268L419.699 -29.5432C420.03 -29.6636 420.318 -29.6664 420.564 -29.5516C420.811 -29.4369 420.994 -29.2141 421.114 -28.8834L428.075 -9.75873L432.18 -11.2527C432.48 -11.3621 432.759 -11.3444 433.016 -11.1996C433.292 -11.0958 433.485 -10.8935 433.595 -10.5928L434.218 -8.87884C434.328 -8.57814 434.316 -8.28424 434.182 -7.99714C434.067 -7.75105 433.859 -7.57328 433.559 -7.46383L429.454 -5.96989L431.851 0.615477C431.96 0.916179 431.948 1.21008 431.814 1.49718C431.7 1.74327 431.492 1.92104 431.191 2.03049L429.116 2.78567ZM412.952 -4.15242L424.003 -8.17458L418.29 -23.8712L412.952 -4.15242ZM454.186 -5.82814C450.307 -4.41628 447.055 -4.50964 444.43 -6.10822C441.824 -7.74782 439.793 -10.38 438.338 -14.0048L436.881 -17.8674L435.465 -21.8982C434.23 -25.5695 434.105 -28.8612 435.088 -31.7731C436.091 -34.7261 438.517 -36.903 442.366 -38.3039C446.245 -39.7158 449.502 -39.6074 452.138 -37.9787C454.793 -36.3911 456.828 -33.7944 458.243 -30.1888C458.579 -29.3578 459.081 -28.0251 459.749 -26.1908C460.395 -24.4167 460.85 -23.1182 461.116 -22.2954C462.331 -18.583 462.452 -15.2558 461.48 -12.3138C460.526 -9.41284 458.095 -7.25094 454.186 -5.82814ZM452.823 -9.57187C455.139 -10.4146 456.604 -11.8162 457.218 -13.7766C457.833 -15.737 457.661 -18.1264 456.704 -20.9449C456.416 -21.8278 455.977 -23.0812 455.386 -24.705C454.784 -26.3589 454.32 -27.5863 453.995 -28.3872C452.928 -31.1318 451.514 -33.052 449.753 -34.1478C448.011 -35.2846 445.997 -35.4371 443.712 -34.6053C441.427 -33.7735 439.982 -32.3624 439.378 -30.3719C438.764 -28.4114 438.93 -26.0371 439.877 -23.2487L441.178 -19.5337L442.586 -15.8063C443.664 -13.0317 445.068 -11.091 446.799 -9.98429C448.53 -8.87755 450.538 -8.74008 452.823 -9.57187ZM487.346 -18.4082C487.045 -18.2988 486.757 -18.296 486.481 -18.3998C486.224 -18.5446 486.04 -18.7674 485.931 -19.0681L483.534 -25.6534L468.875 -20.3179C468.574 -20.2085 468.286 -20.2057 468.01 -20.3095C467.753 -20.4543 467.569 -20.6771 467.46 -20.9778L466.853 -22.6467C466.699 -23.0676 466.701 -23.5789 466.856 -24.1804L473.472 -48.2465C473.535 -48.5418 473.695 -48.8043 473.952 -49.0341C474.198 -49.2938 474.501 -49.4894 474.862 -49.6208L477.929 -50.7371C478.26 -50.8575 478.548 -50.8603 478.794 -50.7456C479.04 -50.6308 479.224 -50.408 479.344 -50.0773L486.305 -30.9526L490.409 -32.4466C490.71 -32.556 490.989 -32.5383 491.246 -32.3935C491.522 -32.2897 491.715 -32.0875 491.824 -31.7868L492.448 -30.0728C492.558 -29.7721 492.545 -29.4782 492.412 -29.1911C492.297 -28.945 492.089 -28.7672 491.788 -28.6578L487.684 -27.1638L490.081 -20.5784C490.19 -20.2777 490.178 -19.9838 490.044 -19.6967C489.929 -19.4506 489.722 -19.2729 489.421 -19.1634L487.346 -18.4082ZM471.182 -25.3463L482.233 -29.3685L476.52 -45.0651L471.182 -25.3463Z" fill="#FF7057"/>
<path d="M141.519 285.646C141.313 285.401 141.212 285.131 141.215 284.836C141.263 284.545 141.41 284.296 141.655 284.091L147.023 279.586L136.996 267.636C136.79 267.391 136.689 267.12 136.692 266.825C136.74 266.534 136.887 266.286 137.132 266.08L138.492 264.939C138.836 264.651 139.316 264.477 139.935 264.418L164.813 262.403C165.111 262.361 165.413 262.422 165.717 262.585C166.045 262.727 166.332 262.945 166.579 263.239L168.677 265.74C168.904 266.009 169.005 266.279 168.981 266.55C168.957 266.82 168.811 267.069 168.541 267.295L152.951 280.377L155.758 283.723C155.964 283.968 156.043 284.236 155.995 284.528C155.992 284.823 155.867 285.073 155.622 285.279L154.225 286.451C153.98 286.657 153.699 286.746 153.384 286.718C153.113 286.694 152.875 286.56 152.67 286.315L149.862 282.969L144.494 287.474C144.248 287.679 143.968 287.768 143.652 287.741C143.382 287.717 143.144 287.583 142.938 287.337L141.519 285.646ZM142.51 268.084L150.069 277.093L162.865 266.356L142.51 268.084ZM158.188 306.258C155.534 303.095 154.51 300.008 155.114 296.994C155.763 293.985 157.542 291.176 160.451 288.569L163.582 285.878L166.885 283.169C169.913 280.754 172.963 279.51 176.036 279.438C179.154 279.37 182.029 280.905 184.662 284.043C187.315 287.205 188.328 290.303 187.699 293.337C187.115 296.375 185.371 299.176 182.467 301.738C181.801 302.338 180.72 303.266 179.225 304.521C177.779 305.734 176.714 306.607 176.032 307.137C172.959 309.549 169.874 310.801 166.777 310.893C163.725 310.99 160.862 309.444 158.188 306.258ZM161.239 303.697C162.823 305.584 164.641 306.482 166.694 306.389C168.746 306.296 170.933 305.317 173.254 303.453C173.985 302.881 175.013 302.04 176.336 300.929C177.685 299.798 178.679 298.942 179.321 298.362C181.535 296.421 182.856 294.435 183.283 292.406C183.756 290.38 183.21 288.436 181.647 286.573C180.084 284.71 178.264 283.835 176.187 283.949C174.134 284.042 171.96 285.01 169.664 286.853L166.618 289.347L163.596 291.944C161.358 293.906 160.015 295.89 159.567 297.895C159.119 299.9 159.676 301.834 161.239 303.697ZM181.35 333.115C181.145 332.87 181.043 332.6 181.047 332.305C181.095 332.014 181.241 331.766 181.486 331.56L186.855 327.055L176.827 315.105C176.622 314.86 176.52 314.59 176.524 314.295C176.572 314.004 176.718 313.755 176.964 313.55L178.324 312.408C178.667 312.12 179.148 311.946 179.767 311.887L204.644 309.873C204.943 309.831 205.244 309.891 205.548 310.054C205.876 310.196 206.164 310.415 206.411 310.709L208.509 313.209C208.735 313.479 208.836 313.749 208.813 314.019C208.789 314.29 208.642 314.538 208.373 314.764L192.782 327.847L195.59 331.193C195.796 331.438 195.874 331.706 195.826 331.997C195.823 332.292 195.699 332.542 195.454 332.748L194.057 333.92C193.811 334.126 193.531 334.215 193.215 334.188C192.945 334.164 192.707 334.029 192.501 333.784L189.693 330.438L184.325 334.943C184.08 335.149 183.8 335.238 183.484 335.21C183.213 335.186 182.975 335.052 182.77 334.807L181.35 333.115ZM182.342 315.553L189.901 324.562L202.697 313.825L182.342 315.553Z" fill="#FF7057"/>
<path d="M275.168 235.162C274.867 235.271 274.578 235.274 274.302 235.17C274.045 235.025 273.862 234.803 273.752 234.502L271.356 227.916L256.696 233.252C256.396 233.361 256.107 233.364 255.831 233.26C255.574 233.116 255.391 232.893 255.281 232.592L254.674 230.923C254.521 230.502 254.522 229.991 254.678 229.389L261.294 205.323C261.356 205.028 261.516 204.766 261.773 204.536C262.019 204.276 262.322 204.08 262.683 203.949L265.75 202.833C266.081 202.712 266.37 202.71 266.616 202.824C266.862 202.939 267.045 203.162 267.165 203.493L274.126 222.617L278.231 221.123C278.532 221.014 278.81 221.032 279.067 221.176C279.344 221.28 279.536 221.482 279.646 221.783L280.27 223.497C280.379 223.798 280.367 224.092 280.233 224.379C280.118 224.625 279.911 224.803 279.61 224.912L275.505 226.406L277.902 232.991C278.012 233.292 277.999 233.586 277.866 233.873C277.751 234.119 277.543 234.297 277.242 234.406L275.168 235.162ZM259.004 228.224L270.055 224.201L264.341 208.505L259.004 228.224ZM300.237 226.548C296.358 227.96 293.106 227.866 290.481 226.268C287.875 224.628 285.844 221.996 284.389 218.371L282.932 214.509L281.516 210.478C280.282 206.806 280.156 203.515 281.14 200.603C282.142 197.65 284.568 195.473 288.417 194.072C292.296 192.66 295.554 192.769 298.19 194.397C300.845 195.985 302.879 198.582 304.294 202.187C304.631 203.018 305.133 204.351 305.8 206.185C306.446 207.959 306.902 209.258 307.167 210.081C308.382 213.793 308.503 217.12 307.531 220.062C306.577 222.963 304.146 225.125 300.237 226.548ZM298.875 222.804C301.19 221.961 302.655 220.56 303.27 218.599C303.884 216.639 303.712 214.25 302.755 211.431C302.467 210.548 302.028 209.295 301.437 207.671C300.835 206.017 300.372 204.79 300.046 203.989C298.979 201.244 297.565 199.324 295.804 198.228C294.062 197.091 292.048 196.939 289.763 197.771C287.478 198.602 286.033 200.014 285.43 202.004C284.815 203.965 284.981 206.339 285.928 209.127L287.229 212.842L288.637 216.57C289.715 219.344 291.119 221.285 292.85 222.392C294.581 223.498 296.589 223.636 298.875 222.804ZM333.397 213.968C333.097 214.077 332.808 214.08 332.532 213.976C332.275 213.831 332.092 213.609 331.982 213.308L329.585 206.723L314.926 212.058C314.626 212.167 314.337 212.17 314.061 212.067C313.804 211.922 313.621 211.699 313.511 211.398L312.904 209.729C312.751 209.308 312.752 208.797 312.907 208.196L319.523 184.129C319.586 183.834 319.746 183.572 320.003 183.342C320.249 183.082 320.552 182.887 320.913 182.755L323.98 181.639C324.311 181.518 324.599 181.516 324.846 181.63C325.092 181.745 325.275 181.968 325.395 182.299L332.356 201.423L336.461 199.929C336.761 199.82 337.04 199.838 337.297 199.982C337.573 200.086 337.766 200.289 337.876 200.589L338.5 202.303C338.609 202.604 338.597 202.898 338.463 203.185C338.348 203.431 338.14 203.609 337.84 203.718L333.735 205.212L336.132 211.798C336.241 212.098 336.229 212.392 336.095 212.679C335.981 212.925 335.773 213.103 335.472 213.213L333.397 213.968ZM317.234 207.03L328.284 203.007L322.571 187.311L317.234 207.03Z" fill="#FF7057"/>
<path d="M435.041 79.7304C435.201 79.4532 435.42 79.2657 435.698 79.1677C435.988 79.1134 436.272 79.1663 436.549 79.3263L442.618 82.8303L450.418 69.3203C450.578 69.0431 450.797 68.8556 451.076 68.7576C451.366 68.7033 451.649 68.7562 451.926 68.9162L453.464 69.8042C453.852 70.0282 454.18 70.4206 454.447 70.9814L464.849 93.6698C464.99 93.9363 465.037 94.2402 464.988 94.5813C464.966 94.9384 464.859 95.2833 464.667 95.6158L463.035 98.4425C462.859 98.7474 462.64 98.9349 462.378 99.0052C462.116 99.0755 461.832 99.0226 461.527 98.8466L443.902 88.6706L441.718 92.4534C441.558 92.7306 441.333 92.8963 441.043 92.9505C440.765 93.0485 440.487 93.0175 440.21 92.8575L438.63 91.9455C438.353 91.7855 438.174 91.5525 438.092 91.2465C438.021 90.9843 438.066 90.7146 438.226 90.4374L440.41 86.6546L434.341 83.1506C434.064 82.9906 433.884 82.7576 433.802 82.4516C433.732 82.1894 433.777 81.9197 433.937 81.6425L435.041 79.7304ZM451.883 74.6554L446.003 84.8398L460.469 93.1918L451.883 74.6554ZM421.373 102.443C423.437 98.8684 425.989 96.8496 429.027 96.3868C432.077 95.9677 435.325 96.6788 438.77 98.5199L442.369 100.542L446.044 102.72C449.35 104.739 451.562 107.18 452.68 110.043C453.81 112.949 453.351 116.176 451.303 119.723C449.239 123.298 446.674 125.309 443.608 125.756C440.554 126.246 437.326 125.565 433.924 123.712C433.132 123.292 431.891 122.594 430.201 121.618C428.566 120.674 427.382 119.972 426.65 119.512C423.333 117.45 421.101 114.979 419.955 112.1C418.821 109.265 419.293 106.046 421.373 102.443ZM424.824 104.435C423.592 106.569 423.37 108.585 424.16 110.481C424.949 112.378 426.616 114.098 429.162 115.642C429.949 116.133 431.091 116.811 432.588 117.675C434.112 118.555 435.256 119.197 436.021 119.602C438.602 121.018 440.92 121.58 442.973 121.288C445.038 121.039 446.679 119.862 447.895 117.755C449.111 115.649 449.31 113.64 448.493 111.727C447.704 109.83 446.05 108.118 443.533 106.591L440.148 104.581L436.674 102.631C434.064 101.198 431.741 100.614 429.704 100.879C427.666 101.144 426.04 102.329 424.824 104.435ZM404.058 133.395C404.218 133.118 404.437 132.931 404.715 132.833C405.005 132.778 405.289 132.831 405.566 132.991L411.635 136.495L419.435 122.985C419.595 122.708 419.814 122.52 420.092 122.422C420.382 122.368 420.666 122.421 420.943 122.581L422.481 123.469C422.869 123.693 423.197 124.085 423.464 124.646L433.865 147.335C434.007 147.601 434.053 147.905 434.004 148.246C433.983 148.603 433.876 148.948 433.684 149.281L432.052 152.107C431.876 152.412 431.657 152.6 431.395 152.67C431.132 152.74 430.849 152.688 430.544 152.512L412.919 142.336L410.735 146.118C410.575 146.395 410.35 146.561 410.06 146.615C409.781 146.713 409.504 146.682 409.226 146.522L407.647 145.61C407.37 145.45 407.19 145.217 407.108 144.911C407.038 144.649 407.083 144.379 407.243 144.102L409.427 140.32L403.358 136.816C403.081 136.656 402.901 136.423 402.819 136.117C402.749 135.854 402.794 135.585 402.954 135.307L404.058 133.395ZM420.899 128.32L415.019 138.505L429.486 146.857L420.899 128.32Z" fill="#FF7057"/>
<path d="M530.781 49.2613C530.48 49.3707 530.191 49.3735 529.915 49.2697C529.658 49.1249 529.475 48.9021 529.366 48.6014L526.969 42.0161L512.309 47.3516C512.009 47.461 511.72 47.4638 511.444 47.36C511.187 47.2152 511.004 46.9924 510.894 46.6917L510.287 45.0228C510.134 44.6019 510.135 44.0906 510.291 43.4891L516.907 19.423C516.969 19.1277 517.129 18.8652 517.386 18.6355C517.632 18.3757 517.936 18.1801 518.296 18.0488L521.364 16.9324C521.694 16.812 521.983 16.8092 522.229 16.9239C522.475 17.0387 522.658 17.2615 522.779 17.5922L529.739 36.7169L533.844 35.2229C534.145 35.1135 534.423 35.1312 534.68 35.276C534.957 35.3798 535.149 35.582 535.259 35.8827L535.883 37.5967C535.992 37.8974 535.98 38.1913 535.846 38.4784C535.731 38.7245 535.524 38.9023 535.223 39.0118L531.118 40.5057L533.515 47.0911C533.625 47.3918 533.612 47.6857 533.479 47.9728C533.364 48.2189 533.156 48.3966 532.855 48.5061L530.781 49.2613ZM514.617 42.3232L525.668 38.301L519.954 22.6044L514.617 42.3232ZM555.85 40.6474C551.971 42.0593 548.719 41.9659 546.094 40.3674C543.488 38.7278 541.457 36.0956 540.002 32.4708L538.545 28.6082L537.129 24.5774C535.895 20.906 535.769 17.6144 536.753 14.7025C537.755 11.7495 540.181 9.57258 544.03 8.17167C547.909 6.75981 551.167 6.86821 553.803 8.49686C556.458 10.0845 558.493 12.6811 559.907 16.2868C560.244 17.1178 560.746 18.4505 561.413 20.2848C562.059 22.0589 562.515 23.3574 562.78 24.1802C563.995 27.8926 564.116 31.2197 563.144 34.1617C562.191 37.0627 559.759 39.2246 555.85 40.6474ZM554.488 36.9037C556.803 36.061 558.268 34.6594 558.883 32.699C559.497 30.7386 559.326 28.3491 558.368 25.5307C558.08 24.6477 557.641 23.3944 557.05 21.7706C556.448 20.1167 555.985 18.8893 555.659 18.0884C554.592 15.3438 553.178 13.4236 551.417 12.3278C549.675 11.191 547.662 11.0385 545.376 11.8703C543.091 12.7021 541.646 14.1132 541.043 16.1037C540.428 18.0641 540.594 20.4385 541.541 23.2269L542.842 26.9419L544.25 30.6692C545.328 33.4439 546.732 35.3846 548.463 36.4913C550.194 37.598 552.202 37.7355 554.488 36.9037ZM589.01 28.0673C588.71 28.1768 588.421 28.1796 588.145 28.0758C587.888 27.931 587.705 27.7082 587.595 27.4075L585.198 20.8221L570.539 26.1577C570.239 26.2671 569.95 26.2699 569.674 26.1661C569.417 26.0213 569.234 25.7985 569.124 25.4978L568.517 23.8289C568.364 23.4079 568.365 22.8967 568.52 22.2952L575.136 -1.77095C575.199 -2.06623 575.359 -2.32874 575.616 -2.55846C575.862 -2.81826 576.165 -3.01383 576.526 -3.14516L579.593 -4.26152C579.924 -4.38191 580.213 -4.38473 580.459 -4.26997C580.705 -4.15522 580.888 -3.93246 581.008 -3.60169L587.969 15.5229L592.074 14.029C592.374 13.9195 592.653 13.9372 592.91 14.0821C593.186 14.1859 593.379 14.3881 593.489 14.6888L594.113 16.4028C594.222 16.7035 594.21 16.9974 594.076 17.2845C593.961 17.5306 593.753 17.7084 593.453 17.8178L589.348 19.3118L591.745 25.8971C591.854 26.1978 591.842 26.4917 591.708 26.7789C591.594 27.0249 591.386 27.2027 591.085 27.3122L589.01 28.0673ZM572.847 21.1292L583.897 17.1071L578.184 1.41047L572.847 21.1292Z" fill="#FF7057"/>
<path d="M278.276 386.505C278.167 386.805 277.984 387.028 277.727 387.173C277.45 387.277 277.162 387.274 276.861 387.165L270.276 384.768L264.94 399.427C264.831 399.728 264.648 399.95 264.391 400.095C264.115 400.199 263.826 400.196 263.525 400.087L261.856 399.479C261.436 399.326 261.045 398.996 260.684 398.491L246.501 377.953C246.315 377.715 246.217 377.424 246.206 377.08C246.165 376.724 246.21 376.366 246.341 376.005L247.458 372.938C247.578 372.607 247.761 372.384 248.008 372.27C248.254 372.155 248.542 372.158 248.873 372.278L267.997 379.239L269.491 375.134C269.601 374.834 269.794 374.631 270.07 374.528C270.327 374.383 270.606 374.365 270.906 374.475L272.62 375.098C272.921 375.208 273.138 375.406 273.272 375.693C273.387 375.939 273.39 376.213 273.28 376.513L271.786 380.618L278.372 383.015C278.672 383.124 278.89 383.323 279.024 383.61C279.138 383.856 279.141 384.129 279.031 384.43L278.276 386.505ZM262.572 394.427L266.594 383.376L250.897 377.663L262.572 394.427ZM287.792 361.763C286.38 365.642 284.218 368.074 281.307 369.057C278.375 369.999 275.054 369.863 271.341 368.648L267.446 367.281L263.448 365.775C259.842 364.361 257.24 362.341 255.642 359.716C254.024 357.05 253.916 353.792 255.316 349.943C256.728 346.064 258.905 343.638 261.847 342.666C264.77 341.653 268.067 341.763 271.739 342.997C272.591 343.273 273.935 343.745 275.769 344.413C277.543 345.059 278.831 345.544 279.632 345.87C283.257 347.325 285.883 349.371 287.512 352.007C289.122 354.602 289.215 357.854 287.792 361.763ZM284.048 360.401C284.891 358.085 284.759 356.062 283.652 354.331C282.546 352.6 280.605 351.196 277.83 350.118C276.969 349.77 275.727 349.301 274.103 348.71C272.449 348.108 271.211 347.675 270.388 347.409C267.6 346.462 265.22 346.311 263.248 346.956C261.258 347.56 259.847 349.004 259.015 351.289C258.183 353.575 258.336 355.588 259.473 357.33C260.579 359.061 262.505 360.46 265.25 361.527L268.932 362.918L272.692 364.236C275.51 365.194 277.9 365.365 279.86 364.751C281.821 364.136 283.217 362.686 284.048 360.401ZM299.47 328.275C299.361 328.576 299.178 328.798 298.92 328.943C298.644 329.047 298.356 329.044 298.055 328.935L291.47 326.538L286.134 341.197C286.025 341.498 285.842 341.72 285.585 341.865C285.308 341.969 285.02 341.966 284.719 341.857L283.05 341.249C282.629 341.096 282.239 340.767 281.878 340.261L267.695 319.723C267.509 319.485 267.411 319.194 267.4 318.85C267.359 318.494 267.404 318.136 267.535 317.775L268.652 314.708C268.772 314.377 268.955 314.155 269.201 314.04C269.448 313.925 269.736 313.928 270.067 314.048L289.191 321.009L290.685 316.905C290.795 316.604 290.988 316.402 291.264 316.298C291.521 316.153 291.8 316.135 292.1 316.245L293.814 316.869C294.115 316.978 294.332 317.176 294.466 317.463C294.581 317.709 294.584 317.983 294.474 318.284L292.98 322.388L299.566 324.785C299.866 324.894 300.084 325.093 300.217 325.38C300.332 325.626 300.335 325.899 300.225 326.2L299.47 328.275ZM283.765 336.197L287.788 325.147L272.091 319.433L283.765 336.197Z" fill="#FF7057"/>
<path d="M387.174 289.477C386.929 289.683 386.659 289.784 386.363 289.781C386.072 289.733 385.824 289.587 385.618 289.341L381.114 283.973L369.163 294C368.918 294.206 368.648 294.307 368.353 294.304C368.062 294.256 367.814 294.109 367.608 293.864L366.466 292.504C366.178 292.161 366.005 291.68 365.945 291.061L363.931 266.184C363.889 265.885 363.95 265.584 364.112 265.28C364.255 264.952 364.473 264.664 364.767 264.417L367.267 262.319C367.537 262.093 367.807 261.992 368.078 262.015C368.348 262.039 368.597 262.186 368.823 262.455L381.905 278.046L385.251 275.238C385.496 275.032 385.764 274.954 386.055 275.002C386.35 275.005 386.601 275.129 386.806 275.374L387.979 276.771C388.184 277.016 388.273 277.297 388.246 277.612C388.222 277.883 388.088 278.121 387.843 278.327L384.497 281.134L389.001 286.503C389.207 286.748 389.296 287.028 389.268 287.344C389.245 287.614 389.11 287.852 388.865 288.058L387.174 289.477ZM369.612 288.486L378.62 280.927L367.883 268.131L369.612 288.486ZM407.785 272.809C404.623 275.462 401.535 276.487 398.522 275.882C395.512 275.233 392.704 273.454 390.096 270.546L387.406 267.414L384.697 264.111C382.281 261.083 381.038 258.033 380.966 254.96C380.898 251.842 382.433 248.967 385.571 246.334C388.733 243.681 391.831 242.669 394.865 243.297C397.903 243.881 400.703 245.625 403.266 248.53C403.866 249.196 404.794 250.276 406.048 251.771C407.262 253.218 408.134 254.282 408.665 254.965C411.077 258.037 412.328 261.123 412.421 264.22C412.517 267.272 410.972 270.135 407.785 272.809ZM405.225 269.757C407.112 268.173 408.009 266.355 407.916 264.303C407.823 262.25 406.845 260.064 404.981 257.743C404.409 257.011 403.568 255.984 402.457 254.66C401.326 253.312 400.47 252.317 399.89 251.676C397.949 249.461 395.963 248.141 393.934 247.713C391.908 247.241 389.964 247.786 388.101 249.349C386.238 250.913 385.363 252.733 385.476 254.81C385.57 256.862 386.538 259.036 388.381 261.333L390.874 264.379L393.472 267.4C395.434 269.639 397.417 270.982 399.422 271.43C401.427 271.878 403.362 271.32 405.225 269.757ZM434.643 249.646C434.398 249.852 434.128 249.953 433.833 249.95C433.542 249.902 433.293 249.755 433.088 249.51L428.583 244.141L416.633 254.169C416.388 254.375 416.118 254.476 415.823 254.473C415.532 254.425 415.283 254.278 415.077 254.033L413.936 252.672C413.648 252.329 413.474 251.848 413.415 251.23L411.401 226.352C411.359 226.053 411.419 225.752 411.582 225.448C411.724 225.12 411.942 224.832 412.236 224.586L414.737 222.488C415.006 222.261 415.277 222.16 415.547 222.184C415.818 222.207 416.066 222.354 416.292 222.624L429.374 238.214L432.72 235.406C432.965 235.201 433.234 235.122 433.525 235.17C433.82 235.173 434.07 235.297 434.276 235.543L435.448 236.94C435.654 237.185 435.743 237.465 435.715 237.781C435.692 238.051 435.557 238.289 435.312 238.495L431.966 241.303L436.471 246.671C436.676 246.916 436.765 247.197 436.738 247.512C436.714 247.783 436.58 248.021 436.335 248.227L434.643 249.646ZM417.081 248.655L426.09 241.095L415.353 228.299L417.081 248.655Z" fill="#FF7057"/>
<path d="M495.607 171.582C495.292 171.526 495.04 171.384 494.853 171.156C494.703 170.902 494.656 170.618 494.711 170.303L495.928 163.401L480.565 160.692C480.25 160.637 479.999 160.495 479.812 160.267C479.661 160.013 479.614 159.728 479.67 159.413L479.978 157.664C480.056 157.223 480.313 156.781 480.748 156.338L498.511 138.804C498.713 138.58 498.982 138.432 499.32 138.362C499.663 138.26 500.023 138.242 500.401 138.309L503.616 138.875C503.962 138.937 504.214 139.078 504.369 139.301C504.525 139.523 504.572 139.808 504.511 140.154L500.977 160.197L505.279 160.956C505.594 161.011 505.827 161.166 505.977 161.42C506.164 161.648 506.23 161.92 506.174 162.235L505.858 164.031C505.802 164.346 505.645 164.595 505.385 164.776C505.163 164.932 504.894 164.982 504.579 164.926L500.277 164.168L499.06 171.07C499.005 171.385 498.847 171.633 498.588 171.815C498.365 171.971 498.096 172.021 497.781 171.965L495.607 171.582ZM485.078 157.491L496.659 159.533L499.56 143.083L485.078 157.491ZM521.625 176.657C517.559 175.94 514.79 174.233 513.316 171.536C511.879 168.813 511.436 165.518 511.988 161.651L512.657 157.578L513.447 153.379C514.213 149.582 515.751 146.669 518.058 144.639C520.403 142.583 523.592 141.91 527.626 142.622C531.691 143.339 534.458 145.061 535.927 147.79C537.432 150.492 537.896 153.758 537.318 157.588C537.194 158.476 536.963 159.881 536.624 161.804C536.296 163.663 536.041 165.015 535.86 165.861C535.056 169.683 533.497 172.625 531.184 174.687C528.908 176.722 525.721 177.379 521.625 176.657ZM522.316 172.733C524.743 173.161 526.713 172.68 528.225 171.289C529.737 169.899 530.784 167.744 531.363 164.824C531.556 163.916 531.802 162.611 532.102 160.909C532.408 159.176 532.62 157.881 532.739 157.024C533.187 154.114 532.922 151.744 531.945 149.915C531.005 148.059 529.337 146.92 526.942 146.498C524.547 146.076 522.591 146.575 521.073 147.997C519.56 149.388 518.517 151.527 517.943 154.415L517.212 158.283L516.568 162.215C516.114 165.157 516.36 167.54 517.305 169.364C518.251 171.188 519.921 172.311 522.316 172.733ZM556.632 182.342C556.317 182.286 556.066 182.145 555.879 181.917C555.728 181.663 555.681 181.378 555.737 181.063L556.954 174.162L541.591 171.453C541.275 171.397 541.024 171.255 540.837 171.027C540.687 170.773 540.64 170.489 540.695 170.174L541.004 168.425C541.081 167.984 541.338 167.541 541.774 167.098L559.536 149.564C559.738 149.34 560.008 149.193 560.345 149.122C560.688 149.02 561.049 149.002 561.427 149.069L564.641 149.636C564.988 149.697 565.239 149.839 565.395 150.061C565.551 150.284 565.598 150.568 565.537 150.915L562.003 170.958L566.304 171.716C566.619 171.772 566.852 171.926 567.002 172.18C567.19 172.408 567.255 172.68 567.2 172.995L566.883 174.791C566.828 175.107 566.67 175.355 566.411 175.537C566.188 175.692 565.919 175.742 565.604 175.687L561.303 174.928L560.086 181.83C560.03 182.145 559.873 182.394 559.613 182.575C559.391 182.731 559.122 182.781 558.807 182.725L556.632 182.342ZM546.103 168.252L557.684 170.294L560.585 153.843L546.103 168.252Z" fill="#FF7057"/>
<path d="M507.747 340.029C507.638 340.33 507.454 340.553 507.197 340.697C506.921 340.801 506.633 340.798 506.332 340.689L499.747 338.292L494.411 352.951C494.302 353.252 494.119 353.475 493.862 353.62C493.585 353.723 493.297 353.721 492.996 353.611L491.327 353.004C490.906 352.85 490.515 352.521 490.155 352.015L475.972 331.478C475.786 331.24 475.687 330.948 475.677 330.604C475.636 330.249 475.681 329.89 475.812 329.53L476.929 326.462C477.049 326.132 477.232 325.909 477.478 325.794C477.724 325.679 478.013 325.682 478.344 325.803L497.468 332.763L498.962 328.659C499.072 328.358 499.264 328.156 499.541 328.052C499.798 327.907 500.077 327.889 500.377 327.999L502.091 328.623C502.392 328.732 502.609 328.931 502.743 329.218C502.858 329.464 502.86 329.737 502.751 330.038L501.257 334.142L507.842 336.539C508.143 336.649 508.36 336.847 508.494 337.134C508.609 337.38 508.612 337.654 508.502 337.954L507.747 340.029ZM492.042 347.952L496.065 336.901L480.368 331.188L492.042 347.952ZM517.263 315.288C515.851 319.167 513.689 321.598 510.777 322.581C507.846 323.524 504.525 323.387 500.812 322.172L496.917 320.806L492.919 319.3C489.313 317.885 486.711 315.865 485.112 313.24C483.495 310.574 483.386 307.317 484.787 303.468C486.199 299.589 488.376 297.163 491.318 296.19C494.241 295.177 497.538 295.287 501.209 296.521C502.062 296.798 503.406 297.27 505.24 297.937C507.014 298.583 508.302 299.069 509.103 299.394C512.728 300.85 515.354 302.896 516.983 305.532C518.592 308.127 518.686 311.379 517.263 315.288ZM513.519 313.925C514.362 311.61 514.23 309.587 513.123 307.856C512.017 306.125 510.076 304.72 507.301 303.642C506.44 303.295 505.198 302.826 503.574 302.235C501.92 301.633 500.682 301.199 499.859 300.934C497.071 299.987 494.691 299.836 492.719 300.48C490.729 301.084 489.318 302.528 488.486 304.814C487.654 307.099 487.807 309.113 488.943 310.855C490.05 312.585 491.976 313.984 494.72 315.051L498.403 316.443L502.163 317.76C504.981 318.718 507.371 318.89 509.331 318.275C511.291 317.66 512.687 316.211 513.519 313.925ZM528.941 281.799C528.832 282.1 528.648 282.323 528.391 282.468C528.115 282.571 527.827 282.569 527.526 282.459L520.941 280.062L515.605 294.721C515.496 295.022 515.312 295.245 515.055 295.39C514.779 295.494 514.491 295.491 514.19 295.381L512.521 294.774C512.1 294.621 511.709 294.291 511.349 293.785L497.166 273.248C496.98 273.01 496.881 272.719 496.871 272.374C496.83 272.019 496.875 271.661 497.006 271.3L498.123 268.233C498.243 267.902 498.426 267.679 498.672 267.564C498.918 267.45 499.207 267.452 499.538 267.573L518.662 274.534L520.156 270.429C520.266 270.128 520.458 269.926 520.735 269.822C520.992 269.677 521.27 269.66 521.571 269.769L523.285 270.393C523.586 270.502 523.803 270.701 523.937 270.988C524.052 271.234 524.054 271.507 523.945 271.808L522.451 275.913L529.036 278.309C529.337 278.419 529.554 278.617 529.688 278.904C529.803 279.15 529.806 279.424 529.696 279.724L528.941 281.799ZM513.236 289.722L517.258 278.671L501.562 272.958L513.236 289.722Z" fill="#FF7057"/>
</g>
</svg>
