<svg width="24" height="25" fill="none" xmlns="http://www.w3.org/2000/svg">
  <path d="M2.6111 16.8939a.586.586 0 01-.362-.126.5829.5829 0 01-.096-.82c.884-1.118 1.35-2.418 1.35-3.758 0-1.356-.476-2.666-1.376-3.79-.2-.252-.16-.62.092-.82.25-.202.618-.162.82.09 1.068 1.332 1.632 2.896 1.632 4.518 0 1.606-.554 3.156-1.6 4.48a.5792.5792 0 01-.46.226zM7.9571 19.4942a.5777.5777 0 01-.348-.116.5817.5817 0 01-.118-.816c1.422-1.908 2.174-4.112 2.174-6.372s-.752-4.462-2.174-6.37c-.192-.258-.14-.624.118-.816.256-.194.624-.14.816.12 1.574 2.11 2.406 4.554 2.406 7.068 0 2.514-.832 4.958-2.406 7.068-.114.154-.29.234-.468.234zM12.5311 21.7279c-.12 0-.24-.036-.344-.112-.26-.19-.316-.556-.126-.816 1.886-2.584 2.884-5.56 2.884-8.608 0-3.048-.998-6.026-2.886-8.61-.19-.26-.134-.626.126-.816.258-.19.624-.136.816.128 2.036 2.786 3.112 6.002 3.112 9.298 0 3.298-1.076 6.512-3.11 9.296a.5847.5847 0 01-.472.24zM17.4051 24.104a.579.579 0 01-.34-.11c-.264-.19-.324-.554-.134-.816 2.38-3.306 3.638-7.106 3.638-10.988 0-3.882-1.258-7.68-3.638-10.984a.5808.5808 0 01.132-.814c.258-.188.624-.13.814.132 2.524 3.504 3.858 7.538 3.858 11.666s-1.334 8.164-3.86 11.67a.5769.5769 0 01-.47.244z" fill="#444"/>
</svg>