<svg width="248" height="255" viewBox="0 0 248 255" fill="none" xmlns="http://www.w3.org/2000/svg">
<path d="M0.400889 88.1741C8.31556 62.0717 25.2027 38.1824 48.3539 22.4109C59.8354 14.4475 72.6915 8.3436 86.2639 4.49472C99.8682 0.79903 114.126 -0.729489 128.242 0.327998C142.358 1.26879 156.363 4.41536 169.553 9.74948C182.741 15.1294 194.78 23.0839 205.37 32.5207C215.861 42.0423 225.207 53.0564 231.841 65.6397C238.566 78.1369 243.253 91.6793 245.65 105.599C248.184 119.522 247.837 133.814 245.624 147.661C243.324 161.5 238.974 175.077 232.134 187.322C218.674 211.797 197.58 232.245 171.947 243.4C159.236 249.074 145.646 252.73 131.815 254.115C124.882 254.447 117.946 254.887 111.025 254.384C104.112 253.835 97.2438 252.84 90.501 251.27C63.5181 244.946 38.9863 229.409 21.7431 208.053C21.1538 207.323 21.27 206.255 22.0025 205.667C22.7192 205.093 23.7604 205.19 24.3565 205.876L24.3706 205.893C41.8926 226.074 66.0625 240.078 91.8897 245.159C98.3467 246.419 104.887 247.125 111.432 247.412C117.992 247.654 124.52 246.982 131.012 246.455C143.951 244.682 156.493 240.797 168.084 235.113C191.403 223.894 210.237 204.438 221.27 181.693C226.929 170.35 230.236 157.988 231.653 145.578C232.942 133.16 232.58 120.503 229.672 108.468C226.982 96.4176 222.565 84.823 216.339 74.263C210.044 63.7624 202.343 54.1032 193.233 45.9311C184.139 37.7381 173.726 31.0919 162.61 25.8876C151.39 20.8735 139.344 17.7914 127.034 16.4131C114.707 14.8324 102.07 15.6183 89.8214 18.2221C77.5086 20.6604 65.4995 25.1896 54.4434 31.6104C43.3716 38.0288 33.3882 46.3737 24.4408 55.8953C15.5625 65.5137 8.33216 76.7467 2.5599 88.912L2.52285 88.9884C2.25457 89.5558 1.57323 89.7985 1.00516 89.5299C0.487334 89.2863 0.240347 88.7041 0.400889 88.1741Z" fill="#F4B935"/>
</svg>
