<svg width="601" height="350" viewBox="0 0 601 350" fill="none" xmlns="http://www.w3.org/2000/svg">
<g filter="url(#filter0_d)">
<rect width="584" height="333.714" transform="translate(7.38031 6.01471)" fill="white"/>
<g clip-path="url(#clip0)">
<path d="M136.539 76.5172V90.3412C136.539 90.6512 136.282 90.9033 135.964 90.9033H133.808C133.491 90.9033 133.232 90.6521 133.232 90.3412V77.1532C133.232 75.034 132.741 73.4538 131.775 72.4507C130.824 71.4549 129.42 70.9453 127.61 70.9453C126.452 70.9453 125.392 71.2152 124.457 71.7542C123.521 72.2931 122.769 73.0422 122.239 73.9704C121.695 74.944 121.426 75.9845 121.426 77.1532V90.3403C121.426 90.6503 121.169 90.9024 120.851 90.9024H118.657C118.339 90.9024 118.081 90.6512 118.081 90.3403V68.8716C118.081 68.5616 118.338 68.3095 118.657 68.3095H120.123C120.409 68.3095 120.652 68.5144 120.693 68.7905L120.974 70.6834C122.176 69.4292 123.842 68.5313 125.84 68.0325C125.872 68.0245 125.907 68.0182 125.94 68.0138C129.342 67.5826 132.099 68.2792 134.092 70.0768C135.719 71.5368 136.539 73.7085 136.539 76.5172Z" fill="#444444"/>
<path d="M224.191 68.4519V89.9215C224.191 90.2315 223.934 90.4836 223.615 90.4836H222.157C221.872 90.4836 221.629 90.2787 221.588 90.0025L221.307 88.1096C220.001 89.4698 218.219 90.3927 215.905 90.8238C215.877 90.8292 215.849 90.8327 215.822 90.8354C212.653 91.1365 210.073 90.4221 208.181 88.7162C206.562 87.2563 205.742 85.0917 205.742 82.2759V68.4519C205.742 68.1419 205.999 67.8898 206.318 67.8898H208.466C208.783 67.8898 209.042 68.141 209.042 68.4519V81.647C209.042 83.759 209.533 85.3393 210.499 86.3494C211.474 87.3605 212.839 87.8468 214.665 87.8468C215.823 87.8468 216.882 87.5769 217.817 87.0451C218.753 86.5062 219.505 85.7642 220.035 84.8209C220.579 83.8695 220.848 82.8068 220.848 81.6461V68.4519C220.848 68.1419 221.105 67.8898 221.423 67.8898H223.617C223.934 67.8898 224.191 68.1419 224.191 68.4519Z" fill="#444444"/>
<path d="M160.781 73.214C159.945 71.4912 158.763 70.1586 157.275 69.2527C155.78 68.3468 154.061 67.8898 152.151 67.8898C150.24 67.8898 148.514 68.3468 147.019 69.2527C145.53 70.1586 144.349 71.4921 143.513 73.214C142.691 74.8994 142.278 76.9508 142.278 79.2945V79.9234C142.278 82.267 142.692 84.3194 143.513 86.0038C144.349 87.7186 145.53 89.0441 147.019 89.95C148.507 90.8639 150.232 91.328 152.151 91.328C154.069 91.328 155.787 90.8639 157.275 89.958C158.763 89.0441 159.945 87.7186 160.781 86.0038C161.602 84.3042 162.024 82.2599 162.024 79.9234V79.2945C162.023 76.9588 161.601 74.9145 160.781 73.214ZM152.151 88.2664C150.21 88.2664 148.676 87.6001 147.463 86.2372C146.243 84.8672 145.622 82.83 145.622 80.179V79.0406C145.622 76.3968 146.243 74.3524 147.463 72.9753C148.675 71.6124 150.21 70.9461 152.151 70.9461C154.084 70.9461 155.618 71.6124 156.83 72.9753C158.05 74.3533 158.671 76.3977 158.671 79.0406V80.179C158.671 82.83 158.05 84.8672 156.83 86.2372C155.618 87.6001 154.083 88.2664 152.151 88.2664Z" fill="#444444"/>
<path d="M198.523 76.517V90.341C198.523 90.651 198.266 90.9031 197.947 90.9031H195.754C195.436 90.9031 195.178 90.6519 195.178 90.341V77.153C195.178 72.9744 193.606 70.9452 190.368 70.9452C188.819 70.9452 187.583 71.5144 186.594 72.6751C185.597 73.8509 185.09 75.3634 185.09 77.153V90.3402C185.09 90.6501 184.833 90.9022 184.514 90.9022H182.321C182.003 90.9022 181.745 90.651 181.745 90.3402V77.153C181.745 72.9744 180.173 70.9452 176.942 70.9452C175.385 70.9452 174.15 71.5144 173.168 72.6751C172.164 73.8509 171.657 75.3563 171.657 77.153V90.3402C171.657 90.6501 171.4 90.9022 171.081 90.9022H168.888C168.57 90.9022 168.312 90.651 168.312 90.3402V68.8714C168.312 68.5614 168.569 68.3093 168.888 68.3093H170.352C170.635 68.3093 170.876 68.5107 170.921 68.7832L171.212 70.5782C172.301 69.3106 173.798 68.4109 175.645 67.9904C175.676 67.9833 175.709 67.978 175.741 67.9735C177.828 67.7214 179.722 68.0385 181.323 68.8777C182.121 69.3026 182.805 69.8522 183.373 70.5301C183.586 70.7848 183.987 70.8009 184.215 70.5595C184.764 69.9778 185.418 69.4647 186.179 69.0202C187.453 68.271 188.925 67.8898 190.543 67.8898C192.867 67.8898 194.808 68.6309 196.289 70.0918C197.033 70.8258 197.586 71.7317 197.962 72.8024C198.338 73.8732 198.523 75.1167 198.523 76.517Z" fill="#444444"/>
<path d="M249.483 84.208C249.483 86.6942 248.578 88.5363 246.79 89.6819C245.088 90.7749 242.771 91.3298 239.917 91.3298C237.738 91.3298 235.935 90.978 234.555 90.2965C233.159 89.608 232.138 88.7466 231.517 87.7275C231.463 87.6456 231.417 87.5556 231.371 87.4727H231.364C230.75 86.5071 230.436 85.4961 230.436 84.4699L230.481 83.841C230.489 83.6985 230.551 83.5711 230.65 83.474C230.657 83.474 230.657 83.474 230.657 83.4669C230.757 83.3769 230.896 83.3172 231.049 83.3172H233.204C233.519 83.3172 233.78 83.572 233.78 83.8793V84.4263C233.78 85.0632 234.025 85.6769 234.539 86.3058C234.8 86.6354 235.138 86.9276 235.552 87.1824C236.726 87.9012 238.383 88.2682 240.477 88.2682C242.318 88.2682 243.76 87.9164 244.742 87.2198C245.685 86.5606 246.138 85.7072 246.138 84.6285C246.138 83.8045 245.9 83.1827 245.394 82.7338C244.842 82.2243 244.144 81.835 243.331 81.5731C242.449 81.2889 241.252 81.0039 239.764 80.7269C237.985 80.3901 236.542 80.0303 235.468 79.6784C234.325 79.3043 233.336 78.6976 232.53 77.8737C231.678 77.0123 231.249 75.8222 231.249 74.3391C231.249 72.4221 232.046 70.849 233.619 69.6509C235.153 68.483 237.416 67.8907 240.347 67.8907C242.265 67.8907 243.884 68.2051 245.164 68.834C246.461 69.4629 247.427 70.2798 248.041 71.2454C248.656 72.211 248.969 73.222 248.969 74.2482L248.924 74.8771C248.901 75.1764 248.656 75.4009 248.348 75.4009H246.2C245.885 75.4009 245.624 75.1461 245.624 74.8388V74.2918C245.624 73.5356 245.271 72.8016 244.55 72.0453C243.859 71.3264 242.272 70.9443 239.955 70.9443C237.14 70.9443 236.027 71.5064 235.582 71.9776C234.915 72.6893 234.592 73.4376 234.592 74.2464C234.592 74.8976 234.815 75.4071 235.259 75.8044C235.773 76.2533 236.425 76.6061 237.2 76.8457C238.044 77.1076 239.225 77.3927 240.721 77.692C242.486 78.059 243.959 78.4331 245.086 78.8001C246.29 79.1894 247.326 79.8183 248.162 80.6645C249.039 81.5571 249.483 82.7471 249.483 84.208Z" fill="#444444"/>
<path d="M43.2011 67.6215C45.1995 61.166 49.4627 55.2575 55.3082 51.3558C58.2073 49.3863 61.4531 47.8764 64.8795 46.9242C68.3142 46.0103 71.9141 45.6317 75.4783 45.8936C79.0426 46.1261 82.5786 46.9046 85.9083 48.2238C89.238 49.5547 92.2776 51.5215 94.9513 53.8563C97.6003 56.2115 99.96 58.9355 101.634 62.0479C103.333 65.1389 104.516 68.4882 105.121 71.9311C105.761 75.3749 105.673 78.9095 105.115 82.3346C104.534 85.7578 103.436 89.1152 101.709 92.1438C98.3111 98.1976 92.9848 103.255 86.5133 106.014C83.304 107.418 79.873 108.322 76.3808 108.664C74.6306 108.746 72.8795 108.855 71.132 108.731C69.3864 108.596 67.6526 108.349 65.9499 107.961C59.1371 106.396 52.9439 102.554 48.5903 97.2721C48.4416 97.0913 48.4708 96.8276 48.656 96.6815C48.8367 96.5399 49.0995 96.5639 49.2501 96.7332L49.2537 96.7376C53.6776 101.729 59.7804 105.193 66.3012 106.45C67.9319 106.762 69.5826 106.936 71.2352 107.007C72.8914 107.067 74.5394 106.901 76.1782 106.77C79.445 106.332 82.6114 105.371 85.5378 103.965C91.4253 101.191 96.1804 96.3786 98.9663 90.7524C100.395 87.9474 101.23 84.8893 101.588 81.8197C101.913 78.7483 101.822 75.6181 101.088 72.6411C100.409 69.6605 99.2939 66.7931 97.7216 64.1813C96.132 61.5838 94.1875 59.1947 91.888 57.1735C89.5921 55.147 86.9632 53.5035 84.1563 52.2163C81.3239 50.9764 78.2815 50.2139 75.1745 49.8727C72.0619 49.4816 68.8718 49.6758 65.7793 50.3199C62.6703 50.9229 59.639 52.0435 56.8467 53.6309C54.0517 55.2183 51.5304 57.2822 49.272 59.6374C47.03 62.0167 45.2049 64.7942 43.7477 67.8032L43.7385 67.8219C43.671 67.9627 43.4985 68.0224 43.3553 67.9556C43.223 67.8968 43.1609 67.7525 43.2011 67.6215Z" fill="#444444"/>
<path d="M71.7703 80.3705C71.4081 80.3705 71.0595 80.2298 70.8021 79.9795C70.5357 79.7194 70.3906 79.3631 70.4025 78.9952C70.4116 78.6941 70.6817 71.5759 75.4605 66.9108C80.2503 62.236 85.2234 60.809 87.8332 63.3548C90.4439 65.9042 88.9802 70.7581 84.1905 75.4329C79.4126 80.098 72.1189 80.3616 71.8123 80.3705C71.7977 80.3705 71.784 80.3705 71.7703 80.3705ZM84.5026 64.7712C82.8628 64.7712 80.2804 65.9844 77.3968 68.7993C74.6128 71.5171 73.6428 75.4018 73.3097 77.5325C75.4924 77.2074 79.4719 76.2605 82.256 73.5427C86.1989 69.6927 87.0758 66.3933 85.8987 65.2442C85.5811 64.9351 85.1057 64.7712 84.5026 64.7712Z" fill="#444444"/>
<path d="M62.5659 76.7211C62.2493 76.7211 61.939 76.6133 61.6917 76.4129C61.5174 76.2712 57.4267 72.8889 58.7288 68.1108C59.2699 66.1252 60.4243 64.5477 61.9792 63.6685C63.2092 62.9736 64.6136 62.7821 65.9303 63.1269C67.2672 63.476 68.395 64.3428 69.1077 65.5658C69.9974 67.0926 70.1762 69.0131 69.6105 70.9729C68.2755 75.5987 63.0514 76.6534 62.8296 76.6961C62.7429 76.7131 62.6544 76.7211 62.5659 76.7211ZM64.6255 65.6317C64.1957 65.6317 63.7631 65.7493 63.3516 65.9827C62.4436 66.4958 61.7228 67.5229 61.3742 68.7994C60.7391 71.1341 62.1562 73.0422 62.9537 73.8902C64.0816 73.5143 66.3264 72.5006 66.977 70.2496C67.3374 69.0016 67.2462 67.7767 66.7297 66.8886C66.3766 66.2829 65.8555 65.8749 65.2231 65.7092C65.026 65.6567 64.8262 65.6317 64.6255 65.6317Z" fill="#444444"/>
<path d="M81.036 92.0149C77.1788 92.0149 74.5818 89.0201 74.4559 88.8731C74.1931 88.564 74.0872 88.156 74.1666 87.7614C74.2104 87.545 75.2899 82.4461 80.0304 81.1429C82.0361 80.5924 84.0035 80.7643 85.5675 81.6337C86.8204 82.3294 87.7083 83.4313 88.0669 84.7354C88.42 86.0235 88.2229 87.3926 87.5112 88.5934C86.6114 90.1122 84.9954 91.239 82.9614 91.7664C82.2907 91.9401 81.6474 92.0149 81.036 92.0149ZM77.0374 87.6376C77.9052 88.4161 79.8652 89.8049 82.2569 89.1831C83.5655 88.8437 84.6158 88.1409 85.1414 87.2537C85.4918 86.664 85.5885 86.0324 85.4224 85.4267C85.2527 84.8094 84.8348 84.3007 84.2143 83.956C83.3045 83.4518 82.048 83.3627 80.7732 83.7146C78.4408 84.356 77.4142 86.5402 77.0374 87.6376Z" fill="#444444"/>
<path d="M59.2963 77.439C58.0389 77.439 56.8088 77.04 55.7759 76.2712C54.3113 75.1836 53.4709 73.5285 53.4709 71.7318V70.3956H56.2084V71.7318C56.2084 72.6867 56.6546 73.5659 57.4339 74.144C58.2132 74.723 59.2005 74.9074 60.1413 74.6527L63.5212 73.7396L64.2512 76.3149L60.8722 77.2279C60.3503 77.3704 59.821 77.439 59.2963 77.439Z" fill="#444444"/>
<path d="M74.9996 89.4138L73.6409 88.0847C71.7967 86.2845 70.5028 83.1543 70.3595 80.4124C67.5499 80.2735 64.3434 79.0095 62.4992 77.2092L61.1386 75.881L63.0741 73.9917L64.4346 75.3198C66.0224 76.8698 69.3704 77.9833 71.5978 77.7098C72.0185 77.6555 72.4391 77.798 72.7384 78.0902C73.0377 78.3823 73.1819 78.7939 73.129 79.2036C72.8443 81.3789 73.9895 84.6463 75.5782 86.1972L76.9378 87.528L74.9996 89.4138Z" fill="#444444"/>
<path d="M80.8435 97.1182H79.273C77.4717 97.1182 75.7991 96.3263 74.6849 94.9447C73.5708 93.5631 73.1729 91.7904 73.5945 90.081L74.4997 86.4083L77.1615 87.0345L76.2554 90.7063C76.0318 91.6149 76.2426 92.5574 76.8357 93.2914C77.4279 94.0254 78.3167 94.4458 79.274 94.4458H80.8444V97.1182H80.8435Z" fill="#444444"/>
</g>
</g>
<defs>
<filter id="filter0_d" x="0.38031" y="0.0147095" width="600" height="349.714" filterUnits="userSpaceOnUse" color-interpolation-filters="sRGB">
<feFlood flood-opacity="0" result="BackgroundImageFix"/>
<feColorMatrix in="SourceAlpha" type="matrix" values="0 0 0 0 0 0 0 0 0 0 0 0 0 0 0 0 0 0 127 0"/>
<feOffset dx="1" dy="2"/>
<feGaussianBlur stdDeviation="4"/>
<feColorMatrix type="matrix" values="0 0 0 0 0.266667 0 0 0 0 0.266667 0 0 0 0 0.266667 0 0 0 0.25 0"/>
<feBlend mode="normal" in2="BackgroundImageFix" result="effect1_dropShadow"/>
<feBlend mode="normal" in="SourceGraphic" in2="effect1_dropShadow" result="shape"/>
</filter>
<clipPath id="clip0">
<rect width="206.294" height="62.9738" fill="white" transform="translate(43.1896 45.8153)"/>
</clipPath>
</defs>
</svg>
