<svg width="200" height="200" viewBox="0 0 200 200" fill="none" xmlns="http://www.w3.org/2000/svg">
<g clip-path="url(#clip0)">
<path d="M3.56045 69.3226C9.75578 48.8189 22.9744 30.0536 41.0964 17.6649C50.0838 11.4096 60.1471 6.61489 70.7711 3.59156C81.4201 0.688559 92.5804 -0.512108 103.63 0.318559C114.68 1.05756 125.642 3.52923 135.967 7.71923C146.29 11.9452 155.713 18.1936 164.003 25.6062C172.215 33.0856 179.531 41.7372 184.724 51.6216C189.988 61.4382 193.657 72.0759 195.533 83.0099C197.517 93.9466 197.245 105.173 195.512 116.05C193.712 126.921 190.307 137.586 184.953 147.204C174.417 166.43 157.906 182.492 137.841 191.254C127.891 195.711 117.253 198.583 106.427 199.671C101 199.932 95.5708 200.277 90.1531 199.882C84.7421 199.451 79.3658 198.67 74.0878 197.436C52.9665 192.468 33.7638 180.264 20.2664 163.489C19.8051 162.915 19.8961 162.076 20.4694 161.614C21.0304 161.163 21.8454 161.24 22.3121 161.779L22.3231 161.792C36.0388 177.644 54.9581 188.645 75.1748 192.636C80.2291 193.626 85.3488 194.18 90.4721 194.406C95.6068 194.596 100.716 194.068 105.798 193.654C115.927 192.261 125.744 189.209 134.817 184.745C153.071 175.932 167.813 160.649 176.449 142.782C180.879 133.872 183.468 124.162 184.577 114.414C185.585 104.659 185.302 94.7176 183.026 85.2636C180.92 75.7979 177.463 66.6902 172.589 58.3952C167.662 50.1469 161.634 42.5596 154.503 36.1402C147.385 29.7046 139.233 24.4839 130.532 20.3959C121.749 16.4572 112.32 14.0362 102.685 12.9536C93.0358 11.7119 83.1438 12.3292 73.5558 14.3746C63.9178 16.2899 54.5174 19.8476 45.8631 24.8912C37.1964 29.9329 29.3818 36.4879 22.3781 43.9672C15.4285 51.5226 9.76878 60.3462 5.25045 69.9022L5.22145 69.9622C5.01145 70.4079 4.47812 70.5986 4.03345 70.3876C3.62812 70.1962 3.43478 69.7389 3.56045 69.3226Z" fill="#F4B935"/>
<path d="M181.224 167.07C181.83 157.027 181.641 146.721 181.583 136.746C181.507 123.751 180.947 110.764 180.877 97.7698C180.734 71.0091 179.998 44.2541 178.926 17.5151C173.775 17.7758 169.099 18.5455 163.969 18.0431C144.966 16.1825 125.826 17.4011 106.833 18.7498C101.984 19.0941 97.1359 19.4548 92.2852 19.7778C87.2429 20.1138 86.4979 20.6621 87.2795 25.5305C87.9459 29.6791 87.8399 33.9008 87.4985 38.0741C87.3922 39.3728 89.7595 101.995 90.9525 130.964C91.5825 146.264 90.3202 161.76 92.3322 176.869C92.3978 177.362 92.4819 177.894 92.8355 178.245C93.2445 178.65 93.8819 178.686 94.4575 178.689C120.127 178.782 145.989 179.015 171.76 179.543C173.965 179.589 176.283 179.607 178.22 178.555C181.847 176.584 181.013 170.571 181.224 167.07Z" fill="#FBF9F0"/>
<path d="M57.358 117.364C58.0997 116.898 58.869 116.419 59.7443 116.286C60.436 116.182 61.141 116.303 61.8297 116.425C72.2933 118.267 82.757 120.109 93.2207 121.951C84.9933 132.675 74.4147 141.49 63.9297 150.21C57.564 148.229 51.3227 145.879 45.2493 143.181C39.5597 140.653 32.6687 137.998 27.8537 134.109C29.0273 132.336 32.7257 131.282 34.7223 130.255C37.3593 128.898 39.975 127.504 42.569 126.072C47.5837 123.306 52.5163 120.401 57.358 117.364Z" fill="#FBF9F0"/>
<path d="M69.8625 175.522C59.7909 171.947 49.7192 168.371 39.6475 164.796C38.2589 164.303 36.8212 163.783 35.9272 162.965C35.1519 162.255 34.8649 161.392 34.5975 160.553C31.7655 151.657 29.3419 142.713 27.3309 133.734C26.9112 134.075 27.3115 133.912 27.9392 134.097C39.8229 137.61 51.7065 141.122 63.5902 144.635C66.7955 150.515 65.9645 157.543 68.1799 163.593C69.1849 166.338 69.9442 172.708 69.8625 175.522Z" fill="#DFDDDD"/>
<path d="M70.0399 175.274C78.0222 168.378 86.0042 161.482 93.9865 154.585C95.0872 153.634 96.2225 152.641 96.7382 151.563C97.1855 150.629 97.1198 149.725 97.0452 148.85C96.2525 139.58 95.0612 130.409 93.4732 121.352C93.9945 121.52 93.5598 121.51 93.0482 121.905C83.3582 129.386 73.6682 136.867 63.9782 144.348C63.2635 150.95 66.7409 157.185 67.0115 163.593C67.1342 166.5 68.8809 172.688 70.0399 175.274Z" fill="#C9C6C6"/>
<path opacity="0.4" d="M168.577 125.637C168.68 125.91 168.823 126.119 169.016 126.238C169.151 126.322 169.323 126.313 169.482 126.301C171.911 126.122 174.34 125.942 176.769 125.762C177.252 121.602 177.068 117.406 176.73 113.243C176.624 111.933 177.125 109.101 175.884 108.196C174.309 107.05 168.245 107.459 167.145 109.166C166.288 110.496 167.194 113.51 167.33 114.979C167.631 118.233 167.42 122.56 168.577 125.637Z" fill="#29568A"/>
<path d="M159.253 117.961C159.185 117.967 158.971 116.127 158.964 115.949C158.945 115.456 158.664 115.478 159.16 115.109C159.743 114.675 161.027 115.054 161.703 115.026C162.571 114.991 163.438 114.942 164.305 114.878C165.629 114.78 166.952 114.663 168.271 114.513C168.792 114.454 169.332 114.419 169.846 114.312C170.871 114.099 170.41 113.321 170.774 112.474C171.027 111.886 171.61 111.389 172.247 111.447C172.641 111.483 172.99 111.719 173.279 111.989C174.638 113.259 174.582 114.82 174.642 116.533C169.723 117.571 164.285 117.52 159.253 117.961Z" fill="#29568A"/>
<g opacity="0.5">
<path opacity="0.5" d="M163.946 32.1919C163.914 38.9759 163.988 45.7589 164.057 52.5406C164.144 59.3222 164.309 66.1026 164.552 72.8796C164.796 79.6566 165.122 86.4299 165.472 93.2016C165.836 99.9726 166.278 106.74 166.798 113.5L166.841 114.06L166.284 113.989C161.904 113.429 157.509 112.986 153.106 112.66C148.703 112.325 144.292 112.105 139.877 112.005L139.45 111.995L139.457 111.57C139.599 103.133 139.594 94.6936 139.432 86.2566C139.268 77.8196 138.964 69.3846 138.496 60.9579C138.268 56.7442 137.991 52.5332 137.682 48.3246C137.537 46.2216 137.331 44.1159 137.31 41.9872C137.31 40.9236 137.359 39.8502 137.566 38.7886C137.772 37.7342 138.195 36.6682 138.959 35.8582C139.716 35.0409 140.729 34.5386 141.749 34.2132C142.26 34.0372 142.786 33.9356 143.309 33.8206C143.845 33.7292 144.371 33.6809 144.897 33.6232C147 33.4122 149.103 33.2326 151.207 33.0529L157.519 32.5332L160.675 32.2822L162.254 32.1589L163.043 32.0982L163.438 32.0686L163.646 32.0532C163.703 32.0499 163.787 32.0566 163.857 32.0946C163.926 32.1322 163.963 32.1736 163.995 32.1926L163.946 32.1919ZM163.694 32.1879C163.661 32.2116 163.632 32.2576 163.635 32.3002C163.639 32.3432 163.657 32.3549 163.649 32.3562L163.462 32.3726L163.068 32.4059L162.279 32.4742L160.703 32.6129L157.549 32.8946L151.244 33.4756C149.144 33.6756 147.042 33.8759 144.948 34.1066C144.426 34.1689 143.901 34.2232 143.403 34.3129C142.9 34.4292 142.391 34.5326 141.909 34.7046C140.941 35.0236 140.023 35.4992 139.362 36.2292C138.694 36.9522 138.319 37.9052 138.134 38.9019C137.949 39.9019 137.91 40.9419 137.92 41.9822C137.961 44.0676 138.186 46.1656 138.352 48.2729C138.702 52.4826 139.021 56.6952 139.29 60.9112C139.837 69.3429 140.235 77.7856 140.466 86.2336C140.693 94.6819 140.762 103.135 140.684 111.588L139.902 110.777C144.339 110.845 148.776 111.029 153.204 111.336C157.631 111.663 162.049 112.109 166.452 112.671L165.473 113.602C164.951 106.831 164.508 100.054 164.142 93.2726C163.97 89.8816 163.782 86.4909 163.669 83.0972L163.509 78.0066L163.378 72.9152L163.277 67.8236L163.204 62.7316L163.198 57.6389L163.224 52.5469L163.279 47.4556C163.301 45.7586 163.349 44.0616 163.389 42.3652L163.54 37.2762L163.744 32.1892L163.694 32.1879Z" fill="#13355A"/>
</g>
<g opacity="0.5">
<path opacity="0.5" d="M129.875 32.1916C129.843 38.827 129.917 45.4613 129.986 52.0943C130.073 58.7273 130.237 65.3586 130.48 71.987C130.723 78.6153 131.052 85.2397 131.402 91.8623C131.766 98.4843 132.208 105.102 132.728 111.714L132.772 112.273L132.215 112.204C127.834 111.656 123.439 111.222 119.036 110.903C114.633 110.576 110.221 110.36 105.807 110.262L105.38 110.253L105.387 109.827C105.53 101.53 105.524 93.2303 105.359 84.933C105.193 76.6356 104.885 68.3406 104.41 60.0543C104.178 55.911 103.901 51.77 103.586 47.6316C103.444 45.564 103.221 43.492 103.245 41.394C103.252 40.348 103.318 39.2873 103.585 38.2493C103.842 37.218 104.354 36.198 105.179 35.475C106.002 34.7546 107.017 34.3256 108.033 34.057C108.285 33.9713 108.546 33.9326 108.802 33.873C109.06 33.8186 109.315 33.7556 109.581 33.7273C110.107 33.657 110.619 33.607 111.138 33.5563C113.207 33.3563 115.276 33.184 117.345 33.012L123.554 32.5133L126.658 32.2723L128.211 32.154L128.988 32.0956L129.376 32.067L129.583 32.0523C129.64 32.0493 129.723 32.058 129.791 32.096C129.858 32.1336 129.894 32.1733 129.926 32.1923L129.875 32.1916ZM129.624 32.1876C129.591 32.2113 129.562 32.2556 129.565 32.2976C129.568 32.3403 129.586 32.3536 129.579 32.3553L129.398 32.371L129.01 32.4033L128.235 32.4693L126.684 32.603L123.582 32.8746L117.38 33.4346C115.314 33.627 113.247 33.82 111.186 34.0396C110.673 34.0946 110.152 34.1516 109.654 34.223C109.406 34.251 109.158 34.3153 108.91 34.3703C108.663 34.4306 108.409 34.4703 108.172 34.5546C107.199 34.821 106.266 35.2363 105.543 35.8836C104.82 36.5333 104.377 37.43 104.145 38.3916C103.906 39.3553 103.85 40.3776 103.854 41.3986C103.851 43.445 104.091 45.5063 104.255 47.5786C104.611 51.718 104.93 55.8606 105.203 60.0066C105.758 68.298 106.159 76.6013 106.392 84.91C106.623 93.219 106.693 101.533 106.614 109.846L105.832 109.035C110.268 109.101 114.704 109.278 119.132 109.58C123.558 109.9 127.976 110.335 132.38 110.885L131.403 111.818C130.881 105.196 130.438 98.568 130.072 91.9357C129.901 88.619 129.71 85.303 129.602 81.983L129.441 77.0037L129.31 72.0237L129.208 67.0433L129.136 62.0626L129.131 57.0813L129.156 52.1006L129.211 47.1206C129.233 45.4606 129.282 43.801 129.32 42.1416L129.471 37.164C129.526 35.505 129.604 33.8466 129.674 32.1883L129.624 32.1876Z" fill="#13355A"/>
</g>
<g opacity="0.5">
<path opacity="0.5" d="M130.64 167.523C131.143 167.499 131.65 167.411 132.034 167.116C132.423 166.83 132.68 166.39 132.853 165.927C133.031 165.456 133.138 164.971 133.192 164.457L133.399 162.934C133.663 160.901 133.861 158.856 134.041 156.813C134.379 152.722 134.472 148.615 134.41 144.512C134.346 140.408 134.116 136.307 133.788 132.214C133.487 128.119 133.09 124.029 132.656 119.941L133.014 120.339C128.804 119.447 124.449 119.341 120.119 119.441C115.781 119.549 111.435 119.859 107.06 119.907L107.484 119.467C107.608 125.405 107.529 131.346 107.248 137.276C106.964 143.207 106.46 149.126 105.765 155.02C105.591 156.494 105.4 157.966 105.204 159.436C105.113 160.166 105.019 160.896 104.999 161.62C104.982 162.34 105.023 163.065 105.257 163.712C105.483 164.362 105.942 164.895 106.542 165.253C107.142 165.612 107.828 165.852 108.535 166.018C108.886 166.107 109.249 166.162 109.606 166.234L110.697 166.384C111.432 166.469 112.167 166.55 112.904 166.624C118.792 167.217 124.725 167.447 130.639 167.473L130.64 167.523ZM130.648 167.774C124.707 167.831 118.773 167.684 112.85 167.171C112.11 167.106 111.37 167.036 110.631 166.961L109.512 166.823C109.139 166.754 108.765 166.701 108.393 166.613C107.65 166.448 106.903 166.206 106.206 165.801C105.86 165.596 105.53 165.336 105.258 165.019C105.127 164.856 104.984 164.699 104.893 164.509L104.74 164.234C104.692 164.142 104.664 164.043 104.626 163.947C104.336 163.169 104.29 162.369 104.296 161.603C104.307 160.834 104.393 160.087 104.476 159.341C104.651 157.872 104.821 156.402 104.974 154.931C106.197 143.159 106.631 131.313 106.255 119.499L106.229 118.696L107.044 118.679C111.363 118.59 115.703 118.212 120.087 118.101C122.278 118.041 124.481 118.036 126.69 118.157C128.898 118.273 131.114 118.53 133.3 119.004L133.947 119.145L134.014 119.797C134.437 123.894 134.827 128 135.115 132.118C135.369 136.239 135.524 140.37 135.512 144.504C135.522 145.537 135.484 146.571 135.471 147.604C135.451 148.638 135.377 149.67 135.333 150.703L135.115 153.796C135.014 154.825 134.926 155.855 134.813 156.882C134.682 157.907 134.583 158.935 134.425 159.956L134.183 161.487L134.062 162.251L133.92 163.016L133.636 164.542C133.582 164.797 133.557 165.045 133.471 165.312C133.396 165.566 133.31 165.819 133.202 166.067C132.993 166.558 132.678 167.046 132.203 167.355C131.729 167.675 131.161 167.731 130.646 167.725L130.648 167.774Z" fill="#13355A"/>
</g>
<g opacity="0.5">
<path opacity="0.5" d="M142.116 167.713L142.13 164.618L142.114 161.523L142.019 155.336C141.937 151.212 141.776 147.09 141.538 142.973C141.299 138.856 140.983 134.745 140.59 130.641C140.223 126.535 139.785 122.435 139.267 118.345L139.196 117.789L139.756 117.832C144.152 118.173 148.554 118.443 152.959 118.641C157.365 118.832 161.772 118.982 166.182 119.049L166.617 119.056L166.605 119.489C166.278 131.382 166.772 143.301 168.082 155.133C168.243 156.613 168.428 158.087 168.608 159.568C168.702 160.311 168.769 161.065 168.778 161.828C168.784 162.587 168.707 163.383 168.383 164.124C168.059 164.871 167.427 165.452 166.738 165.815C166.044 166.189 165.298 166.377 164.561 166.55C163.816 166.697 163.075 166.807 162.321 166.872C161.571 166.928 160.829 166.968 160.084 167.011L151.155 167.459L146.69 167.667L144.457 167.768L143.341 167.818L142.782 167.843L142.503 167.855L142.433 167.858C142.393 167.859 142.346 167.859 142.293 167.847C142.179 167.821 142.107 167.737 142.067 167.712L142.116 167.713ZM142.368 167.719C142.421 167.691 142.443 167.602 142.421 167.572C142.415 167.557 142.414 167.555 142.42 167.554L142.489 167.55L142.768 167.534L143.326 167.502L144.441 167.436L146.672 167.304L151.133 167.034L160.051 166.464C160.792 166.411 161.539 166.36 162.27 166.294C162.993 166.223 163.724 166.103 164.432 165.954C165.13 165.78 165.833 165.588 166.432 165.251C167.032 164.919 167.515 164.454 167.769 163.852C168.024 163.248 168.093 162.545 168.075 161.832C168.057 161.116 167.983 160.39 167.881 159.66C167.681 158.187 167.474 156.704 167.292 155.224C166.558 149.299 166.009 143.347 165.696 137.381C165.384 131.414 165.277 125.435 165.377 119.458L166.166 120.278C161.743 120.253 157.319 120.172 152.898 119.981C150.688 119.89 148.479 119.781 146.27 119.653C144.061 119.531 141.854 119.373 139.649 119.194L140.621 118.174C141.129 122.282 141.564 126.399 141.914 130.523C142.233 134.65 142.474 138.783 142.637 142.917L142.745 146.018L142.793 149.121L142.808 152.224L142.793 155.326L142.746 158.427L142.64 161.526L142.505 164.624C142.453 165.656 142.379 166.687 142.317 167.718L142.368 167.719Z" fill="#13355A"/>
</g>
<path d="M30.8354 74.1318C29.7107 80.3651 30.7017 89.8594 34.1127 95.9101C34.0557 96.1914 34.0247 96.4828 34.016 96.7814C30.5027 96.5221 26.8987 96.8924 23.8597 98.7688C20.9684 100.556 18.9747 103.402 18.475 106.454C17.711 106.182 17.3817 105.417 17.1457 104.731C14.385 96.6261 12.363 86.0728 13.871 77.6698C16.3504 63.8898 30.9004 53.7338 46.2994 49.8064C47.8927 49.3991 49.5117 49.0438 51.1447 48.7671C40.5087 54.2468 32.849 62.9638 30.8354 74.1318Z" fill="#13355A"/>
<path d="M60.1448 92.3605C59.9745 92.5062 59.8042 92.6518 59.6365 92.7998C58.3585 89.6375 54.6408 87.5122 50.8578 87.2108C48.0035 86.9838 45.2058 87.8972 42.5845 88.8945C39.0855 90.2275 34.8025 92.3998 34.1125 95.9105C30.7015 89.8598 29.7105 80.3655 30.8352 74.1322C32.8488 62.9642 40.5085 54.2475 51.1448 48.7668C52.0112 48.6162 52.8802 48.4878 53.7522 48.3868C57.2822 62.6902 59.4348 77.4745 60.1448 92.3605Z" fill="#29568A"/>
<path d="M99.9691 94.4933C99.7021 96.3693 99.2478 98.4137 97.5634 99.6083C98.0208 96.9053 93.0987 93.965 90.3977 93.4567C87.0917 92.8297 83.9111 93.896 81.4117 95.7253C81.3974 95.681 81.3834 95.6363 81.3691 95.592C83.1837 83.323 80.4914 70.671 73.6924 59.503C72.4114 57.4047 70.9744 55.336 69.0034 53.5884C66.2427 51.1444 62.6244 49.473 58.7931 48.093C59.2361 48.093 59.6791 48.103 60.1221 48.1227C74.0017 48.715 83.1127 56.763 92.5134 64.544C97.6141 68.7677 99.8238 73.9817 100.551 79.5137C101.193 84.409 100.676 89.556 99.9691 94.4933Z" fill="#29568A"/>
<path d="M81.3694 95.5917C79.5178 89.978 74.8884 85.5667 67.7311 87.8107C64.8171 88.724 62.3604 90.467 60.1451 92.3604C59.4351 77.4744 57.2821 62.6901 53.7521 48.3867C55.4221 48.1894 57.1064 48.0831 58.7904 48.0931C58.7934 48.0931 58.7934 48.0931 58.7934 48.0931C62.6248 49.4731 66.2431 51.1444 69.0038 53.5884C70.9748 55.3361 72.4118 57.4047 73.6928 59.5031C80.4918 70.6711 83.1841 83.3227 81.3694 95.5917Z" fill="#13355A"/>
<path d="M87.2918 54.1521C87.3638 46.2835 87.3322 38.4132 87.4128 30.5418L87.4312 29.0665C87.4365 28.5818 87.4202 28.0951 87.3972 27.6078C87.3495 26.6325 87.2585 25.6545 87.2015 24.6651C87.1492 23.6768 87.1112 22.6721 87.2638 21.6571C87.3412 21.1515 87.4698 20.6425 87.6882 20.1598C87.9032 19.6768 88.2232 19.2288 88.6195 18.8681C89.0158 18.5068 89.4802 18.2308 89.9638 18.0345C90.4492 17.8398 90.9502 17.7138 91.4528 17.6205C92.4715 17.4531 93.4962 17.4845 94.4885 17.5918C96.4772 17.8008 98.3842 18.2718 100.299 18.1361C104.21 17.9618 108.11 17.4491 112.044 17.1201C115.979 16.8011 119.912 16.6268 123.85 16.4785C131.725 16.1978 139.603 16.1558 147.477 16.2188C151.402 16.2841 155.323 16.1085 159.266 16.0328C163.206 15.9631 167.166 15.9681 171.113 16.3701C173.084 16.5765 175.051 16.8825 176.987 17.3531C177.953 17.5938 178.912 17.8678 179.855 18.1955L180.558 18.4541L180.734 18.5195L180.822 18.5521C180.828 18.5531 180.892 18.5821 180.922 18.5998C180.955 18.6201 180.988 18.6431 181.015 18.6655C181.217 18.8518 181.261 19.0035 181.323 19.1451C181.515 19.7008 181.557 20.1925 181.612 20.6991C181.777 22.7021 181.732 24.6715 181.689 26.6461C181.636 28.6185 181.544 30.5868 181.439 32.5538L181.097 38.4465C181.066 38.9425 181.057 39.4042 181.059 39.9028L181.052 41.3778L181.042 44.3278C181.035 48.2615 181.06 52.1935 181.168 56.1232L181.342 62.0242C181.384 63.9935 181.405 65.9635 181.396 67.9318C181.388 71.8692 181.321 75.8045 181.251 79.7392L180.95 79.7348C180.952 75.8002 180.95 71.8652 180.89 67.9335C180.864 65.9675 180.81 64.0035 180.734 62.0408L180.457 56.1462C180.281 52.2085 180.188 48.2685 180.127 44.3312L180.085 41.3782L180.066 39.9015C180.064 39.6482 180.056 39.4252 180.06 39.1472L180.088 38.3938L180.386 32.4988C180.477 30.5371 180.552 28.5761 180.59 26.6188C180.619 24.6681 180.645 22.6931 180.474 20.8078C180.45 20.5748 180.422 20.3448 180.385 20.1261C180.348 19.9115 180.299 19.6931 180.245 19.5561C180.231 19.4955 180.166 19.4425 180.273 19.5521C180.289 19.5658 180.313 19.5845 180.336 19.5968C180.352 19.6111 180.432 19.6415 180.402 19.6298L180.318 19.5991L180.149 19.5381L179.474 19.2955C178.568 18.9885 177.643 18.7315 176.708 18.5061C174.835 18.0658 172.919 17.7815 170.989 17.5941C167.125 17.2298 163.213 17.2518 159.294 17.3511C155.378 17.4418 151.421 17.6085 147.466 17.5468C139.604 17.4851 131.745 17.5285 123.898 17.8095C119.977 17.9441 116.049 18.1658 112.146 18.4078C108.247 18.6828 104.323 19.1495 100.344 19.2771L99.9712 19.2895L99.5748 19.2901C99.3105 19.2915 99.0512 19.2728 98.7918 19.2588C98.2755 19.2208 97.7698 19.1591 97.2722 19.0878C96.2792 18.9451 95.3158 18.7618 94.3725 18.6528C93.4285 18.5358 92.5038 18.5081 91.6225 18.6321C90.7312 18.7731 89.8738 19.0451 89.2688 19.5831C88.6522 20.1051 88.3102 20.9048 88.1588 21.7971C88.0032 22.6898 88.0135 23.6531 88.0462 24.6198C88.0822 25.5895 88.1535 26.5745 88.1822 27.5718C88.1958 28.0708 88.2028 28.5722 88.1868 29.0768L88.1478 30.5521L87.8435 42.3525C87.7428 46.2868 87.6432 50.2211 87.4932 54.1552L87.2918 54.1521Z" fill="#13355A"/>
<path d="M90.3354 161.658C90.8131 166.041 90.7121 170.461 91.0958 174.814C91.1451 175.358 91.2061 175.9 91.2755 176.441C91.3081 176.712 91.3531 176.981 91.3911 177.251C91.4318 177.518 91.4635 177.816 91.5428 177.921C91.5811 177.972 91.6021 177.988 91.6844 178.009C91.7644 178.028 91.8821 178.028 92.0215 178.027L92.8461 178.023L94.4955 178.016L101.092 178.037C109.887 178.072 118.672 178.362 127.454 178.314C131.826 178.252 136.231 178.045 140.62 177.931L153.801 177.538C158.196 177.413 162.59 177.291 166.986 177.199C169.184 177.154 171.382 177.114 173.581 177.09C174.681 177.079 175.781 177.072 176.883 177.076C177.433 177.079 177.984 177.084 178.537 177.098C178.814 177.105 179.091 177.114 179.37 177.13C179.51 177.138 179.65 177.147 179.794 177.162C179.866 177.169 179.939 177.177 180.018 177.19C180.057 177.197 180.097 177.204 180.147 177.217C180.172 177.224 180.2 177.232 180.238 177.249C180.264 177.262 180.276 177.264 180.323 177.299C180.344 177.318 180.452 177.393 180.45 177.563L179.862 177.539C180.008 173.76 180.023 169.961 180.075 166.17L180.155 154.789L180.246 132.026L180.337 109.262L180.418 97.8801C180.469 94.0851 180.484 90.2927 180.631 86.4948L180.932 86.5084C180.806 90.2941 180.81 94.0911 180.779 97.8831L180.758 109.264L180.786 132.027L180.815 154.792L180.794 166.176C180.762 169.974 180.767 173.761 180.64 177.574L179.672 177.534C179.667 177.791 179.83 177.895 179.845 177.914C179.905 177.957 179.902 177.951 179.926 177.963C179.947 177.972 179.95 177.972 179.946 177.972L179.892 177.962C179.842 177.955 179.781 177.949 179.719 177.943C179.595 177.933 179.462 177.926 179.33 177.92C179.064 177.91 178.792 177.905 178.521 177.902C177.977 177.896 177.431 177.899 176.883 177.904C175.789 177.916 174.692 177.94 173.595 177.967C171.401 178.023 169.206 178.096 167.011 178.173L153.838 178.672L140.664 179.218L137.37 179.356L134.075 179.468C131.873 179.533 129.69 179.628 127.459 179.643C118.649 179.67 109.854 179.49 101.074 179.203L94.4895 179.051L92.8435 179.005L92.0205 178.983C91.8885 178.977 91.7071 178.985 91.4655 178.927C91.3461 178.897 91.2068 178.844 91.0758 178.755C90.9445 178.665 90.8335 178.543 90.7605 178.425C90.6135 178.183 90.5778 177.975 90.5491 177.811C90.5238 177.646 90.5145 177.526 90.4961 177.381C90.4655 177.104 90.4281 176.827 90.4035 176.549C90.3498 175.994 90.3051 175.44 90.2721 174.885C90.1391 172.666 90.1395 170.459 90.1815 168.261C90.2161 166.062 90.2251 163.872 90.1338 161.678L90.3354 161.658Z" fill="#13355A"/>
<path d="M95.0019 153.553L88.7026 159.302C86.6102 161.226 84.5159 163.145 82.4506 165.093L80.9106 166.564C80.4056 167.063 79.8769 167.54 79.4142 168.055C78.4692 169.102 77.5399 170.189 76.5599 171.228C75.5776 172.267 74.5679 173.29 73.3956 174.17C72.7982 174.592 72.1802 175.027 71.3506 175.183C71.1436 175.22 70.9166 175.218 70.6859 175.177L70.1616 175.051C69.8142 174.964 69.4636 174.887 69.1192 174.792C63.5776 173.338 58.3129 171.115 52.9269 169.395C52.2542 169.176 51.5782 168.972 50.9009 168.774L49.8829 168.485C49.5439 168.403 49.2122 168.31 48.8666 168.239C47.4956 167.935 46.0939 167.687 44.6962 167.403C43.2976 167.12 41.8969 166.813 40.5112 166.41C39.1292 166 37.7472 165.514 36.4689 164.726L36.0069 164.394C35.8522 164.285 35.6982 164.175 35.5629 164.032L35.1439 163.628C35.0202 163.481 34.9069 163.326 34.7886 163.175C34.3416 162.557 33.9962 161.892 33.7202 161.213C33.1592 159.856 32.7876 158.456 32.4726 157.058C32.1586 155.659 31.9049 154.254 31.6369 152.863C31.5026 152.168 31.3652 151.475 31.2012 150.798C31.0399 150.127 30.8416 149.427 30.6676 148.742C29.9476 145.987 29.2866 143.217 28.6589 140.441C28.3462 139.052 28.0436 137.661 27.7519 136.268L27.5349 135.222L27.4812 134.961L27.4542 134.83L27.4476 134.798C27.4492 134.835 27.4226 134.63 27.4529 134.568C27.4662 134.523 27.4889 134.469 27.5086 134.435L27.5549 134.365C27.6646 134.227 27.7376 134.175 27.8182 134.106C27.8966 134.042 27.9732 133.984 28.0492 133.929C28.6559 133.496 29.2639 133.132 29.8779 132.761C32.3339 131.303 34.8252 129.935 37.3156 128.56L44.8006 124.47L52.2759 120.372C53.5179 119.684 54.7576 118.991 55.9872 118.284C56.6016 117.931 57.2139 117.574 57.8179 117.208C58.1196 117.024 58.4192 116.839 58.7122 116.648C58.8582 116.553 59.0029 116.456 59.1416 116.357C59.2749 116.261 59.4249 116.148 59.4992 116.068L59.6262 115.932L59.7999 115.962L93.2582 121.733L93.4766 121.771L93.4396 121.989C93.2916 122.859 93.3622 123.77 93.4959 124.664C93.6359 125.562 93.8479 126.452 94.0562 127.349C94.4652 129.15 94.8083 130.958 95.1113 132.776C95.7122 136.412 96.1172 140.079 96.3232 143.757L96.0226 143.775C95.7782 140.11 95.3359 136.46 94.6989 132.846C94.3786 131.04 94.0166 129.237 93.5922 127.457C93.3752 126.566 93.1506 125.666 92.9962 124.743C92.8496 123.82 92.7592 122.865 92.9122 121.897L93.1696 122.26L59.6509 116.843L60.1672 116.661C60.0602 116.778 59.9822 116.84 59.9009 116.907C59.8206 116.972 59.7436 117.03 59.6662 117.086C59.5126 117.198 59.3606 117.302 59.2086 117.404C58.9046 117.607 58.6002 117.799 58.2952 117.989C57.6849 118.368 57.0719 118.734 56.4572 119.097C55.2279 119.821 53.9922 120.528 52.7552 121.231C50.2809 122.638 47.7936 124.016 45.3096 125.399L37.8626 129.549C35.3896 130.941 32.9072 132.332 30.4972 133.791C29.9029 134.156 29.2922 134.531 28.7689 134.912C28.7049 134.959 28.6459 135.006 28.5946 135.048L28.5326 135.103C28.5189 135.115 28.5119 135.127 28.5376 135.094C28.5502 135.078 28.5612 135.061 28.5706 135.043C28.5922 135.007 28.6242 134.938 28.6359 134.882C28.6919 134.798 28.6336 134.448 28.6466 134.549L28.6536 134.581L28.6812 134.711L28.7369 134.971L28.9616 136.01C29.2636 137.395 29.5762 138.777 29.8989 140.157C30.5396 142.918 31.2439 145.663 31.9509 148.407L32.2206 149.435C32.3116 149.775 32.4019 150.119 32.4902 150.484C32.6639 151.202 32.8039 151.908 32.9399 152.61C33.2106 154.014 33.4619 155.402 33.7679 156.766C34.0736 158.126 34.4352 159.467 34.9452 160.699C35.1949 161.317 35.5016 161.893 35.8589 162.387C35.9526 162.505 36.0406 162.628 36.1359 162.743L36.4539 163.046C36.5499 163.153 36.6776 163.242 36.8052 163.331L37.1822 163.604C38.2689 164.275 39.5649 164.745 40.8832 165.132C42.2079 165.518 43.5766 165.819 44.9582 166.097C46.3419 166.378 47.7386 166.625 49.1582 166.939C49.5109 167.012 49.8739 167.112 50.2316 167.199L51.2712 167.494C51.9622 167.695 52.6509 167.903 53.3332 168.125C56.0722 168.989 58.7282 170.038 61.3882 171.018C64.0459 172.007 66.7039 172.955 69.4086 173.703C69.7456 173.801 70.0852 173.88 70.4232 173.97L70.9269 174.099C70.9899 174.106 71.0722 174.118 71.1836 174.099C71.4026 174.067 71.6786 173.963 71.9496 173.821C72.2222 173.674 72.4969 173.501 72.7669 173.307C73.3072 172.92 73.8289 172.47 74.3386 172.003C74.8519 171.538 75.3506 171.047 75.8429 170.547C76.8312 169.546 77.7692 168.498 78.7592 167.449C79.0029 167.189 79.2889 166.913 79.5446 166.68L80.3282 165.953L81.9069 164.512C82.9639 163.557 84.0282 162.611 85.0976 161.672C86.1719 160.738 87.2569 159.817 88.3402 158.896C90.5092 157.055 92.6822 155.223 94.8666 153.402L95.0019 153.553Z" fill="#13355A"/>
<path d="M33.7485 135.544C33.7209 135.546 33.6975 135.551 33.7015 135.555C33.7015 135.555 33.6992 135.558 33.7015 135.584C33.7059 135.633 33.7372 135.703 33.7775 135.761C33.8642 135.883 33.9669 135.975 34.1072 136.005L35.0865 136.298L37.0455 136.881C38.3469 137.283 39.6505 137.676 40.9562 138.062L44.8649 139.243L48.7795 140.401C51.3872 141.18 54.0035 141.93 56.6282 142.65C59.2555 143.359 61.8769 144.092 64.5135 144.768L64.7865 144.838L64.8202 145.112C65.8735 153.711 67.7975 162.216 68.8209 170.86L68.5222 170.898C68.1829 168.754 67.7635 166.624 67.3589 164.493C66.9499 162.362 66.5115 160.236 66.0719 158.109C65.1909 153.854 64.3095 149.587 63.6672 145.262L64.2312 145.896C61.5719 145.276 58.9092 144.659 56.2719 143.948C54.9532 143.592 53.6295 143.253 52.3199 142.865L48.3949 141.688C45.7819 140.892 43.1955 140.008 40.6339 139.057C39.3585 138.565 38.0862 138.065 36.8179 137.557C36.1845 137.301 35.5599 137.02 34.9325 136.747L33.9925 136.336C33.9605 136.322 33.9005 136.295 33.8489 136.263C33.7999 136.231 33.7575 136.195 33.7195 136.157C33.6449 136.08 33.5869 135.996 33.5412 135.905C33.4975 135.812 33.4592 135.716 33.4622 135.587C33.4622 135.528 33.4875 135.434 33.5632 135.383C33.6379 135.33 33.7079 135.337 33.7632 135.342L33.7485 135.544Z" fill="#13355A"/>
<path d="M50.3538 168.046C49.7685 165.714 49.1752 163.384 48.6195 161.046C48.0398 158.713 47.5072 156.371 46.9465 154.034C46.3772 151.7 45.8562 149.355 45.3065 147.016L43.6455 140.003L43.5315 139.522L44.0248 139.443C44.2995 139.399 44.5498 139.258 44.7878 139.034C45.0258 138.81 45.2418 138.517 45.4562 138.207C45.6715 137.896 45.8855 137.563 46.1398 137.236C46.2662 137.075 46.4148 136.904 46.5595 136.761L46.9758 136.352C47.5305 135.806 48.0828 135.258 48.6545 134.729L49.5045 133.93L50.3718 133.149C52.6865 131.069 55.1018 129.102 57.6128 127.267C62.6365 123.601 68.0102 120.424 73.6372 117.802L73.7665 118.074C71.0115 119.485 68.3355 121.037 65.7182 122.673C63.1065 124.319 60.5775 126.09 58.1418 127.977C55.7102 129.869 53.3708 131.875 51.1322 133.983L50.2945 134.775L49.4742 135.586C48.9225 136.121 48.3905 136.675 47.8565 137.227L47.4558 137.641C47.3832 137.714 47.3508 137.76 47.2955 137.82L47.1465 138.01C46.9472 138.281 46.7515 138.599 46.5298 138.937C46.3055 139.275 46.0615 139.64 45.7035 139.995C45.3485 140.344 44.8165 140.677 44.2182 140.765L44.9452 139.692C45.5202 142.027 46.1168 144.358 46.6342 146.707C47.1622 149.054 47.7065 151.397 48.1788 153.756C48.4275 154.933 48.6538 156.115 48.8765 157.297C49.1095 158.477 49.3018 159.666 49.5025 160.853C49.9128 163.225 50.2738 165.607 50.5518 168.005L50.3538 168.046Z" fill="#F37059"/>
<path d="M64.3323 145.419C66.182 143.289 68.2016 141.327 70.2453 139.392C71.2833 138.441 72.325 137.495 73.3843 136.569L74.9876 135.197L76.6106 133.847C78.7856 132.061 80.9903 130.313 83.23 128.61C85.4686 126.907 87.7299 125.235 90.0426 123.635L90.2206 123.878C88.0603 125.679 85.8793 127.444 83.7443 129.264C81.6113 131.085 79.4976 132.926 77.4193 134.804C76.388 135.752 75.3366 136.676 74.297 137.612C73.784 138.088 73.242 138.531 72.7156 138.993L71.1356 140.375C70.069 141.282 68.999 142.186 67.8903 143.051C66.7946 143.931 65.6566 144.768 64.473 145.564L64.3323 145.419Z" fill="#13355A"/>
<path d="M45.9951 124.205C46.7344 124.148 47.4757 124.072 48.2191 124.031C48.9621 124.029 49.7087 123.998 50.4534 124.022C51.1954 124.076 51.9424 124.099 52.6827 124.18C53.4207 124.273 54.1654 124.338 54.9004 124.455C57.8464 124.907 60.7394 125.631 63.5921 126.452C66.4387 127.298 69.2461 128.249 72.0501 129.188C73.4517 129.659 74.8544 130.122 76.2577 130.577L78.3641 131.251L80.48 131.881L80.7551 131.963L80.789 132.236C82.127 143.007 82.238 153.843 83.5454 164.573L83.2467 164.613C82.829 161.938 82.4561 159.253 82.1764 156.56C81.8857 153.868 81.6311 151.173 81.3764 148.481C80.8617 143.097 80.3667 137.717 79.5824 132.395L80.1567 133.055L77.9967 132.466L75.8544 131.836C74.4351 131.395 73.0247 130.937 71.6174 130.478C70.2091 130.024 68.8087 129.555 67.4127 129.08L65.3137 128.391L63.2097 127.733L61.1037 127.094C60.4007 126.886 59.6941 126.698 58.9887 126.499C58.2841 126.3 57.5744 126.129 56.8664 125.943C56.5131 125.845 56.1551 125.778 55.7987 125.697L54.7307 125.447C54.0184 125.281 53.2984 125.167 52.5801 125.024C51.8604 124.893 51.1351 124.82 50.4094 124.714C49.6841 124.615 48.9544 124.567 48.2214 124.491C47.8551 124.462 47.4887 124.468 47.1207 124.455L46.0121 124.407L45.9951 124.205Z" fill="#F37059"/>
<path d="M60.1594 126.17C56.7014 124.484 53.1894 122.973 49.6798 121.368C47.9401 120.539 46.1978 119.689 44.5158 118.74C42.8421 117.809 41.1441 116.92 39.4371 116.046C36.0181 114.308 32.5284 112.703 29.0151 111.148C25.5004 109.595 21.9524 108.112 18.4184 106.594L18.5321 106.315C22.1588 107.606 25.7551 108.975 29.3378 110.394C32.9214 111.81 36.4804 113.304 39.9844 114.941C40.8614 115.348 41.7344 115.765 42.6021 116.194C43.4664 116.63 44.3241 117.08 45.1791 117.535L47.7021 118.873C48.5444 119.315 49.3998 119.739 50.2574 120.161L52.8274 121.457C53.6768 121.913 54.5381 122.346 55.3781 122.83C55.7994 123.067 56.2201 123.308 56.6371 123.554C57.0504 123.809 57.4658 124.059 57.8748 124.32C58.2808 124.587 58.6821 124.861 59.0814 125.137C59.4848 125.405 59.8734 125.699 60.2591 125.995L60.1594 126.17Z" fill="#F37059"/>
<path d="M60.1113 126.107C59.0576 122.868 57.3886 119.904 55.4063 117.173C53.4249 114.438 51.1546 111.911 48.784 109.48C46.4206 107.038 43.9249 104.715 41.4369 102.382C38.9659 100.038 36.3709 97.815 33.9149 95.438L34.1173 95.215L38.1026 98.4293C39.4313 99.5013 40.7579 100.587 42.0663 101.69C44.6633 103.911 47.2346 106.17 49.7216 108.552C50.3386 109.151 50.9416 109.767 51.539 110.39C52.135 111.013 52.729 111.643 53.2876 112.304C53.846 112.966 54.4013 113.631 54.9306 114.32C55.2006 114.659 55.4563 115.012 55.7183 115.358C55.971 115.713 56.2193 116.07 56.4576 116.435C56.9433 117.157 57.399 117.903 57.813 118.671C58.239 119.433 58.6106 120.227 58.95 121.031C59.1173 121.434 59.2793 121.839 59.4156 122.255C59.5616 122.666 59.692 123.083 59.8063 123.503C60.0193 124.349 60.2143 125.195 60.307 126.057L60.1113 126.107Z" fill="#F37059"/>
<path d="M60.1084 126.076C60.0437 123.125 60.051 120.187 60.0104 117.244L59.9617 108.415C59.9454 105.471 59.8994 102.527 59.83 99.5828C59.756 96.6391 59.6527 93.6955 59.4867 90.7585L59.7867 90.7318C60.2047 93.6608 60.4307 96.6061 60.6607 99.5495C60.8897 102.493 61.0643 105.441 61.214 108.391C61.302 109.866 61.333 111.342 61.3687 112.819C61.39 114.296 61.358 115.774 61.3367 117.252C61.2997 117.991 61.275 118.73 61.228 119.469C61.1694 120.207 61.119 120.946 61.0354 121.683C60.9617 122.421 60.8534 123.158 60.7457 123.893C60.6837 124.26 60.6087 124.627 60.5407 124.993C60.4764 125.36 60.3974 125.725 60.3097 126.089L60.1084 126.076Z" fill="#F37059"/>
<path d="M60.1162 126.043C61.1436 122.952 62.3412 119.928 63.6432 116.938C64.3159 115.453 65.0102 113.975 65.7609 112.524C66.5206 111.078 67.3146 109.648 68.1799 108.26C69.9002 105.479 71.8356 102.824 74.0262 100.395C76.2119 97.9648 78.6386 95.7512 81.2789 93.8372L81.4606 94.0775C78.9902 96.1788 76.6856 98.4502 74.6516 100.943C72.6179 103.436 70.8276 106.11 69.2529 108.907C68.4739 110.31 67.7119 111.723 66.9926 113.16L65.9036 115.314C65.5399 116.032 65.2059 116.768 64.8492 117.491C64.1372 118.94 63.4346 120.397 62.6839 121.839C61.9502 123.288 61.1582 124.718 60.3026 126.122L60.1162 126.043Z" fill="#F37059"/>
<path d="M89.7124 97.068C89.9524 98.8163 90.0024 100.565 90.065 102.314C90.0747 103.188 90.0887 104.062 90.0864 104.936C90.0774 105.811 90.072 106.685 90.0477 107.559L89.922 112.805C89.8754 114.553 89.839 116.302 89.7624 118.05H89.461C89.3004 116.302 89.166 114.553 89.0774 112.805L88.795 107.559C88.6994 105.81 88.6574 104.062 88.7387 102.313C88.7847 101.439 88.8447 100.565 88.9697 99.6907C89.088 98.8163 89.244 97.942 89.5107 97.068H89.7124Z" fill="#13355A"/>
<path d="M60.1383 126.01C61.4623 124.574 62.8956 123.25 64.3376 121.942C65.776 120.629 67.273 119.385 68.7523 118.122C70.243 116.872 71.759 115.653 73.271 114.43C74.7953 113.222 76.322 112.017 77.8643 110.833C80.9513 108.467 84.0487 106.115 87.1987 103.829C87.9913 103.263 88.778 102.691 89.5853 102.141C89.981 101.859 90.4013 101.596 90.815 101.328L92.0717 100.583C92.9133 100.093 93.783 99.6138 94.7076 99.2625C95.6316 98.9128 96.579 98.6611 97.526 98.4321L97.6023 98.7235C96.6793 99.0195 95.7643 99.3371 94.9013 99.7391C94.0363 100.134 93.2246 100.625 92.416 101.155L91.204 101.957C90.8153 102.231 90.4263 102.494 90.0407 102.791C89.2653 103.362 88.5023 103.962 87.7357 104.553C84.6883 106.953 81.6613 109.386 78.6627 111.851L74.1406 115.518L69.576 119.128C66.5203 121.523 63.418 123.837 60.28 126.154L60.1383 126.01Z" fill="#F37059"/>
</g>
<defs>
<clipPath id="clip0">
<rect width="200" height="200" fill="white"/>
</clipPath>
</defs>
</svg>
