<svg width="200" height="200" viewBox="0 0 200 200" fill="none" xmlns="http://www.w3.org/2000/svg">
<g clip-path="url(#clip0)">
<path d="M3.56045 69.3226C9.75578 48.8189 22.9744 30.0536 41.0964 17.6649C50.0838 11.4096 60.1471 6.61489 70.7711 3.59156C81.4201 0.688559 92.5804 -0.512108 103.63 0.318559C114.68 1.05756 125.642 3.52923 135.967 7.71923C146.29 11.9452 155.713 18.1936 164.003 25.6062C172.215 33.0856 179.531 41.7372 184.724 51.6216C189.988 61.4382 193.657 72.0759 195.533 83.0099C197.517 93.9466 197.245 105.173 195.512 116.05C193.712 126.921 190.307 137.586 184.953 147.204C174.417 166.43 157.906 182.492 137.841 191.254C127.891 195.711 117.253 198.583 106.427 199.671C101 199.932 95.5708 200.277 90.1531 199.882C84.7421 199.451 79.3658 198.67 74.0878 197.436C52.9665 192.468 33.7638 180.264 20.2664 163.489C19.8051 162.915 19.8961 162.076 20.4694 161.614C21.0304 161.163 21.8454 161.24 22.3121 161.779L22.3231 161.792C36.0388 177.644 54.9581 188.645 75.1748 192.636C80.2291 193.626 85.3488 194.18 90.4721 194.406C95.6068 194.596 100.716 194.068 105.798 193.654C115.927 192.261 125.744 189.209 134.817 184.745C153.071 175.932 167.813 160.649 176.449 142.782C180.879 133.872 183.468 124.162 184.577 114.414C185.585 104.659 185.302 94.7176 183.026 85.2636C180.92 75.7979 177.463 66.6902 172.589 58.3952C167.662 50.1469 161.634 42.5596 154.503 36.1402C147.385 29.7046 139.233 24.4839 130.532 20.3959C121.749 16.4572 112.32 14.0362 102.685 12.9536C93.0358 11.7119 83.1438 12.3292 73.5558 14.3746C63.9178 16.2899 54.5174 19.8476 45.8631 24.8912C37.1964 29.9329 29.3818 36.4879 22.3781 43.9672C15.4285 51.5226 9.76878 60.3462 5.25045 69.9022L5.22145 69.9622C5.01145 70.4079 4.47812 70.5986 4.03345 70.3876C3.62812 70.1962 3.43478 69.7389 3.56045 69.3226Z" fill="#F4B935"/>
<path d="M166.159 65.2822C165.268 68.2305 164.003 71.1028 163.313 73.2808C158.157 89.5718 151.739 104.098 145.379 119.774C142.6 126.485 113.061 197.661 110.995 197.015C78.283 186.707 50.8357 167.039 19.2227 154.903C28.6731 111.003 47.7904 69.8748 66.7621 29.1728C67.4067 27.7895 68.1624 26.2945 69.5611 25.6845C70.8907 25.1045 72.4214 25.4931 73.8171 25.8888C98.6111 32.9161 123.405 39.9438 148.199 46.9712C153.715 48.5345 159.334 50.1448 164.093 53.3421C168.021 55.9811 167.538 60.7228 166.159 65.2822Z" fill="#29568A"/>
<path d="M156.855 68.313C156.061 70.9736 154.933 73.5656 154.318 75.5313C149.724 90.2326 144.004 103.341 138.335 117.487C134.762 126.403 131.016 135.255 127.299 144.112C124.534 150.7 121.748 157.28 118.91 163.837C117.415 167.291 115.209 175.82 111.834 177.939C110.059 179.053 107.758 178.131 105.876 177.21C92.7821 170.807 79.3888 165.016 65.7551 159.861C53.0984 155.076 39.2441 152.499 28.3961 144.342C28.1121 144.128 27.8138 143.896 27.6931 143.562C27.5898 143.275 27.6344 142.958 27.6808 142.657C28.2231 139.112 28.8931 136.038 29.8368 132.591C31.1534 127.781 32.5841 123.003 34.1101 118.256C37.1654 108.751 40.6054 99.3733 44.2911 90.0959C51.6054 71.6846 59.8864 53.6793 68.1694 35.6893C68.7441 34.4413 69.4178 33.0919 70.6654 32.5419C71.8514 32.0189 73.2171 32.3703 74.4621 32.7276C96.5834 39.0786 118.704 45.4296 140.826 51.7806C145.747 53.1936 150.761 54.6489 155.007 57.5359C158.512 59.9189 158.083 64.1983 156.855 68.313Z" fill="#FBF9F0"/>
<path d="M142.649 40.7402C142.469 40.4002 142.096 40.2135 141.739 40.0635C141.066 39.7735 132.072 36.5768 131.899 37.1102C133.736 31.4835 135.572 28.6302 129.192 26.5935C123.386 24.7402 117.372 23.5968 111.509 21.9402C109.312 21.3202 107.312 19.6535 105.232 21.1535C103.132 22.6668 102.876 26.9835 102.659 29.3002C99.9524 29.9402 97.2491 28.5535 94.4691 28.2168C93.6124 28.1135 92.7457 28.1102 91.8724 28.2968C90.4624 28.6002 89.7624 30.1635 89.3191 31.5368C88.7991 33.1535 86.3024 38.1402 87.2524 39.6535C87.8691 40.6368 89.0191 41.1268 90.0991 41.5602C100.806 45.8535 137.172 58.1102 137.656 56.7002C139.326 51.8435 141.229 46.9902 142.626 42.0502C142.749 41.6202 142.863 41.1368 142.649 40.7402ZM121.722 31.2335C121.662 31.3168 121.592 31.4002 121.486 31.4368C121.389 31.4702 121.276 31.4568 121.169 31.4402C119.036 31.1235 116.822 30.7302 114.982 29.6968C114.919 29.6602 114.852 29.6202 114.816 29.5602C114.776 29.4968 114.779 29.4235 114.779 29.3535C114.799 28.8102 114.762 27.6235 115.349 27.2768C115.572 27.1435 115.859 27.1335 116.129 27.1268C116.192 27.1268 116.259 27.1235 116.322 27.1235C117.249 27.1102 117.916 27.4802 118.789 27.6702C119.866 27.9035 120.889 28.2802 121.909 28.6568C122.032 28.7035 122.162 28.7502 122.262 28.8302C122.436 28.9702 122.502 29.1902 122.489 29.3968C122.446 29.9302 122.049 30.7902 121.722 31.2335Z" fill="#13355A"/>
<path d="M128.998 67.1086C128.981 67.0836 128.962 67.0596 128.942 67.0366C128.494 66.5133 127.747 66.3083 127.051 66.1219C124.129 65.3403 121.264 64.3906 118.409 63.4256C110.92 60.8939 103.318 59.1193 95.7235 57.0153C91.7145 55.9046 87.7555 54.6409 83.8605 53.2286C82.8959 52.8789 72.4892 48.9493 72.6062 48.6526C71.9052 50.4346 70.6442 52.2003 69.7465 53.9089C73.4819 56.2219 77.4849 58.1023 81.6499 59.5006C86.5989 61.1623 91.7492 62.1379 96.7712 63.5643C106.897 66.4399 116.468 71.1373 126.726 73.4986C127.632 72.5943 129.928 68.4439 128.998 67.1086Z" fill="#DFDDDD"/>
<path d="M122.019 82.3091C118.505 81.0451 115.014 79.7651 111.454 78.5618C103.965 76.0301 96.3623 74.2555 88.7683 72.1515C84.7593 71.0408 80.8003 69.7771 76.9053 68.3648C74.2257 67.3931 71.41 66.6121 68.8023 65.4731C67.9677 65.1085 67.0907 64.6801 66.1903 64.8168C64.2053 65.1175 63.4157 67.8291 63.284 69.5435C63.271 69.7121 63.2613 69.8945 63.352 70.0375C63.4463 70.1861 63.6247 70.2538 63.7907 70.3121C68.0153 71.7961 72.241 73.2821 76.3143 75.0395C80.534 76.8601 85.397 77.4381 89.816 78.7008C98.0563 81.0411 106.245 83.5051 114.377 86.1588C115.163 86.4151 115.949 86.6718 116.735 86.9281C120.157 88.0448 123.58 89.1618 127.002 90.2785C128.181 88.9998 128.651 87.1065 128.209 85.4248C128.123 85.1008 128.001 84.7755 127.77 84.5328C127.499 84.2478 127.112 84.1098 126.741 83.9811C125.156 83.4325 123.585 82.8725 122.019 82.3091Z" fill="#DFDDDD"/>
<path d="M92.2557 91.4797C92.3604 91.0767 92.4521 90.653 92.3597 90.247C92.1887 89.4947 91.4311 89.0127 90.6807 88.832C88.2927 88.258 85.8797 87.953 83.4784 87.288C79.4694 86.1774 75.5104 84.9137 71.6154 83.5014C70.6507 83.1517 60.2441 79.222 60.3607 78.926C59.3204 81.5687 56.2124 83.4637 59.4497 85.503C62.3914 87.356 66.1214 88.671 69.4047 89.7734C74.3537 91.435 79.5041 92.4107 84.5257 93.837C85.7171 94.1754 88.9661 95.888 90.0921 95.5933C91.4287 95.2433 91.9084 92.818 92.2557 91.4797Z" fill="#DFDDDD"/>
<path d="M102.463 112.026C102.698 109.054 94.8693 107.869 92.666 107.226C87.2027 105.632 81.6737 104.277 76.1893 102.758C72.1803 101.647 68.2213 100.383 64.3263 98.9706C61.706 98.0203 59.2957 96.5753 56.5913 95.8236C52.262 94.6206 52.043 96.166 50.2127 99.651C50.075 99.913 64.9723 107.508 66.533 108.011C72.856 110.05 79.585 110.587 85.7934 113.018C90.7827 114.973 95.425 118.156 100.758 118.677C101.475 116.564 102.037 114.398 102.439 112.202C102.45 112.143 102.458 112.084 102.463 112.026Z" fill="#DFDDDD"/>
<path d="M103.262 128.443C99.7903 127.026 96.14 126.172 92.586 124.971C85.097 122.439 77.4943 120.665 69.9003 118.561C65.8913 117.45 61.9323 116.186 58.0373 114.774C57.0727 114.424 46.666 110.495 46.783 110.198C46.082 111.98 44.821 113.746 43.9233 115.454C47.6587 117.767 51.6617 119.648 55.8267 121.046C60.7757 122.708 65.926 123.683 70.948 125.11C76.239 126.612 81.367 128.612 86.5243 130.509C89.1747 131.484 91.833 132.441 94.5277 133.288C96.6447 133.954 99.4733 134.044 101.378 135.052C102.235 135.506 103.023 136.201 103.991 136.269C105.33 136.362 106.43 135.214 107.082 134.039C107.514 133.26 107.852 132.347 107.606 131.491C107.311 130.463 106.286 129.845 105.328 129.371C104.648 129.034 103.959 128.727 103.262 128.443Z" fill="#DFDDDD"/>
<path d="M86.9925 140.667C87.1768 139.978 87.2375 139.258 87.1515 138.547C79.7192 137.363 72.5385 135.375 65.2782 133.364C61.2692 132.253 57.3102 130.99 53.4155 129.577C52.4508 129.228 42.0442 125.298 42.1612 125.001C41.4602 126.783 40.1992 128.549 39.3015 130.258C43.0368 132.571 47.0398 134.451 51.2048 135.849C56.1539 137.511 61.3042 138.487 66.3262 139.913C69.6485 140.857 73.0038 141.791 75.9499 143.595C78.2932 145.03 80.9408 145.793 83.6552 144.625C85.2992 143.917 86.5318 142.389 86.9925 140.667Z" fill="#DFDDDD"/>
<path d="M136.665 72.7806C136.88 72.9996 137.083 73.2296 137.282 73.4632C137.481 73.6972 137.677 73.9346 137.857 74.1832C138.217 74.6802 138.581 75.1802 138.887 75.7156C139.198 76.2476 139.489 76.7919 139.76 77.3476C140.027 77.9046 140.255 78.4799 140.471 79.0589L139.722 78.8606L140.448 78.2392L141.193 77.6416L141.947 77.0559L142.717 76.4906C143.749 75.7459 144.804 75.0332 145.88 74.3562C146.958 73.6816 148.056 73.0412 149.172 72.4362C150.285 71.8266 151.424 71.2646 152.582 70.7476L152.716 71.0176C152.174 71.3452 151.638 71.6792 151.108 72.0199C150.575 72.3566 150.044 72.6949 149.52 73.0422C148.474 73.7386 147.434 74.4389 146.427 75.1846C145.419 75.9266 144.435 76.6982 143.478 77.4992C143.004 77.9056 142.525 78.3039 142.046 78.7016C141.574 79.1072 141.104 79.5149 140.624 79.9106L139.595 80.7576L139.168 79.5256C138.977 78.9746 138.775 78.4272 138.561 77.8829C138.352 77.3362 138.122 76.7969 137.9 76.2489L137.204 74.6022C136.966 74.0489 136.727 73.4892 136.503 72.9019L136.665 72.7806Z" fill="#20A39E"/>
<path d="M130.106 88.2112C130.322 88.4302 130.524 88.6602 130.723 88.8939C130.922 89.1279 131.118 89.3652 131.298 89.6139C131.658 90.1109 132.023 90.6109 132.328 91.1462C132.639 91.6782 132.931 92.2226 133.201 92.7782C133.469 93.3352 133.697 93.9106 133.913 94.4896L133.163 94.2912L133.889 93.6699L134.634 93.0722L135.388 92.4866L136.158 91.9212C137.191 91.1766 138.245 90.4639 139.322 89.7869C140.4 89.1122 141.498 88.4719 142.613 87.8669C143.727 87.2572 144.866 86.6952 146.023 86.1782L146.157 86.4482C145.616 86.7759 145.08 87.1099 144.549 87.4506C144.016 87.7872 143.486 88.1256 142.962 88.4729C141.915 89.1692 140.875 89.8696 139.869 90.6152C138.86 91.3572 137.876 92.1289 136.919 92.9299C136.445 93.3362 135.966 93.7346 135.487 94.1322C135.015 94.5379 134.545 94.9456 134.065 95.3412L133.037 96.1882L132.61 94.9562C132.419 94.4052 132.217 93.8579 132.003 93.3136C131.793 92.7669 131.563 92.2276 131.341 91.6796L130.645 90.0329C130.408 89.4796 130.168 88.9199 129.945 88.3326L130.106 88.2112Z" fill="#20A39E"/>
<path d="M123.547 103.642C123.763 103.861 123.965 104.091 124.164 104.325C124.363 104.559 124.559 104.796 124.739 105.045C125.1 105.542 125.464 106.042 125.769 106.577C126.08 107.109 126.372 107.653 126.642 108.209C126.91 108.766 127.138 109.341 127.354 109.92L126.604 109.722L127.33 109.101L128.075 108.503L128.829 107.917L129.599 107.352C130.632 106.607 131.686 105.895 132.763 105.218C133.841 104.543 134.939 103.903 136.054 103.298C137.168 102.688 138.307 102.126 139.465 101.609L139.598 101.879C139.057 102.207 138.521 102.541 137.99 102.881C137.457 103.218 136.927 103.556 136.403 103.904C135.356 104.6 134.316 105.3 133.31 106.046C132.301 106.788 131.317 107.56 130.36 108.361C129.886 108.767 129.407 109.165 128.928 109.563C128.456 109.969 127.986 110.376 127.506 110.772L126.478 111.619L126.051 110.387C125.86 109.836 125.658 109.288 125.444 108.744C125.234 108.197 125.004 107.658 124.782 107.11L124.086 105.463C123.849 104.91 123.609 104.35 123.386 103.763L123.547 103.642Z" fill="#20A39E"/>
<path d="M116.989 119.073C117.204 119.292 117.407 119.522 117.606 119.755C117.804 119.989 118.001 120.227 118.181 120.475C118.541 120.972 118.905 121.472 119.211 122.008C119.522 122.54 119.813 123.084 120.084 123.64C120.351 124.197 120.579 124.772 120.795 125.351L120.046 125.153L120.771 124.531L121.516 123.934L122.271 123.348L123.04 122.783C124.073 122.038 125.128 121.325 126.204 120.648C127.282 119.974 128.38 119.333 129.496 118.728C130.609 118.119 131.748 117.557 132.906 117.04L133.039 117.31C132.498 117.637 131.962 117.971 131.431 118.312C130.898 118.649 130.368 118.987 129.844 119.334C128.797 120.031 127.757 120.731 126.751 121.477C125.742 122.219 124.758 122.99 123.801 123.791C123.327 124.198 122.848 124.596 122.37 124.994C121.897 125.399 121.427 125.807 120.947 126.203L119.919 127.049L119.492 125.817C119.301 125.266 119.099 124.719 118.885 124.175C118.676 123.628 118.445 123.089 118.224 122.541L117.528 120.894C117.29 120.341 117.05 119.781 116.827 119.194L116.989 119.073Z" fill="#20A39E"/>
<path d="M110.431 134.504C110.646 134.723 110.849 134.953 111.048 135.186C111.246 135.42 111.443 135.658 111.623 135.906C111.983 136.403 112.347 136.903 112.653 137.439C112.964 137.971 113.255 138.515 113.526 139.071C113.793 139.628 114.021 140.203 114.237 140.782L113.488 140.584L114.213 139.962L114.958 139.365L115.713 138.779L116.482 138.214C117.515 137.469 118.57 136.756 119.646 136.079C120.724 135.405 121.822 134.764 122.938 134.159C124.051 133.55 125.19 132.988 126.348 132.471L126.481 132.741C125.94 133.068 125.404 133.402 124.873 133.743C124.34 134.08 123.81 134.418 123.286 134.765C122.239 135.462 121.199 136.162 120.193 136.908C119.184 137.65 118.2 138.421 117.243 139.222C116.769 139.629 116.29 140.027 115.811 140.425C115.339 140.83 114.869 141.238 114.389 141.634L113.361 142.481L112.934 141.249C112.743 140.698 112.541 140.15 112.327 139.606C112.117 139.059 111.887 138.52 111.665 137.972L110.969 136.325C110.732 135.772 110.492 135.212 110.269 134.625L110.431 134.504Z" fill="#20A39E"/>
<path d="M103.872 149.934C104.087 150.153 104.29 150.383 104.489 150.616C104.687 150.85 104.884 151.088 105.064 151.336C105.424 151.833 105.788 152.333 106.094 152.869C106.405 153.401 106.696 153.945 106.967 154.501C107.234 155.058 107.462 155.633 107.678 156.212L106.929 156.014L107.654 155.392L108.399 154.795L109.154 154.209L109.923 153.644C110.956 152.899 112.011 152.186 113.087 151.509C114.165 150.835 115.263 150.194 116.379 149.589C117.492 148.98 118.631 148.418 119.789 147.901L119.922 148.171C119.381 148.498 118.845 148.832 118.314 149.173C117.781 149.51 117.251 149.848 116.727 150.195C115.68 150.892 114.64 151.592 113.634 152.338C112.625 153.08 111.641 153.851 110.684 154.652C110.21 155.059 109.731 155.457 109.253 155.855C108.78 156.26 108.311 156.668 107.83 157.064L106.802 157.911L106.375 156.679C106.184 156.128 105.982 155.58 105.768 155.036C105.559 154.489 105.328 153.95 105.107 153.402L104.411 151.755C104.173 151.202 103.933 150.642 103.71 150.055L103.872 149.934Z" fill="#20A39E"/>
<path d="M71.2697 52.7468C76.085 53.3355 80.8343 54.4038 85.5117 55.6865C87.846 56.3475 90.1627 57.0665 92.4657 57.8225C94.771 58.5722 97.0627 59.3612 99.336 60.1982C103.887 61.8602 108.402 63.6058 112.913 65.3558L126.45 70.5972L126.345 70.8792C121.753 69.3442 117.192 67.7255 112.623 66.1282C108.052 64.5345 103.496 62.9092 98.916 61.3782C96.6223 60.6245 94.339 59.8465 92.0403 59.1228L88.6013 58.0138C87.4507 57.6612 86.3027 57.2955 85.147 56.9615C82.849 56.2418 80.5313 55.5992 78.221 54.9078L76.482 54.4085C75.9023 54.2405 75.3163 54.1002 74.7347 53.9355C73.5777 53.5738 72.4 53.3088 71.2363 52.9455L71.2697 52.7468Z" fill="#F37059"/>
<path d="M63.5721 67.5245C69.0435 68.0339 74.3465 69.6759 79.4905 71.5115C82.0621 72.4499 84.6055 73.4479 87.1601 74.4029C89.7148 75.3562 92.2848 76.2675 94.8558 77.1765C100.006 78.9705 105.208 80.6212 110.454 82.1222C115.699 83.6275 120.993 84.9665 126.32 86.1609L126.258 86.4555C120.877 85.4812 115.537 84.2729 110.234 82.9175C104.928 81.5739 99.6678 80.0389 94.4511 78.3625C91.8405 77.5305 89.2551 76.6212 86.6798 75.6849C84.1118 74.7319 81.5795 73.7095 79.0325 72.7569C76.4968 71.7702 73.9518 70.8385 71.3865 69.9625C70.7471 69.7342 70.0985 69.5422 69.4531 69.3299C68.8028 69.1422 68.1545 68.9365 67.4991 68.7632C66.1998 68.3539 64.8728 68.0672 63.5448 67.7252L63.5721 67.5245Z" fill="#F37059"/>
<path d="M60.0546 82.7013C60.4936 83.2166 61.1393 83.4676 61.7983 83.6953C62.4626 83.9246 63.1166 84.174 63.7823 84.3923C64.4559 84.5913 65.1093 84.8396 65.7809 85.042C66.4536 85.242 67.1183 85.4596 67.7959 85.645C69.1389 86.0513 70.4923 86.4276 71.8469 86.813C73.1986 87.2063 74.5573 87.5863 75.9059 88.01C78.6053 88.8426 81.3006 89.747 83.8853 90.9276C86.4663 92.103 88.9486 93.5553 91.0849 95.4293L90.8923 95.661C88.6236 94.006 86.1453 92.7016 83.5519 91.6893C80.9563 90.6783 78.2699 89.9113 75.5536 89.2123C74.1936 88.8703 72.8333 88.5103 71.4689 88.1463C70.1086 87.77 68.7546 87.3476 67.4019 86.9113C66.7306 86.681 66.0613 86.4276 65.3966 86.1726C64.7356 85.9053 64.0789 85.617 63.4323 85.314C62.7849 85.0096 62.1573 84.6563 61.5309 84.3146C61.2239 84.132 60.9043 83.933 60.6079 83.695C60.3096 83.4616 60.0416 83.1626 59.8879 82.8156L60.0546 82.7013Z" fill="#F37059"/>
<path d="M53.24 98.6222C57.1537 99.7325 60.999 101.044 64.8407 102.365C66.754 103.046 68.667 103.728 70.5734 104.43C72.4764 105.14 74.379 105.85 76.2734 106.583C80.0647 108.042 83.848 109.521 87.6194 111.029C91.391 112.536 95.1584 114.055 98.9017 115.631L98.79 115.911C94.9544 114.569 91.145 113.165 87.3197 111.804C83.4937 110.446 79.6684 109.089 75.8347 107.757C73.914 107.101 72.0067 106.41 70.095 105.731C69.1364 105.399 68.193 105.026 67.2414 104.675L64.39 103.612C62.4974 102.881 60.6077 102.141 58.7377 101.344C56.862 100.562 55.0074 99.7192 53.1737 98.8129L53.24 98.6222Z" fill="#F37059"/>
<path d="M47.9793 113.366C49.09 113.862 50.228 114.287 51.3833 114.659C52.5327 115.048 53.697 115.394 54.868 115.724C57.2133 116.38 59.555 117.073 61.8987 117.745L68.902 119.864C71.236 120.571 73.5723 121.272 75.898 122.007L103.824 130.77L103.736 131.059C99.0174 129.811 94.3243 128.479 89.6247 127.168L75.5347 123.206C73.184 122.553 70.8457 121.859 68.505 121.174C66.1687 120.474 63.8433 119.738 61.514 119.015C59.193 118.258 56.8773 117.51 54.5783 116.66C53.4293 116.229 52.278 115.791 51.1497 115.292C50.0333 114.765 48.923 114.219 47.8893 113.547L47.9793 113.366Z" fill="#F37059"/>
<path d="M41.5833 129.425C42.508 129.247 43.4673 129.271 44.402 129.401C45.3363 129.545 46.2466 129.8 47.135 130.091C48.0283 130.374 48.8846 130.733 49.7496 131.05C50.613 131.375 51.4756 131.701 52.345 132.009C55.802 133.296 59.288 134.501 62.799 135.634C66.312 136.76 69.8586 137.787 73.4363 138.698C77.0143 139.609 80.623 140.4 84.2476 141.119L84.1956 141.416C80.52 140.943 76.8716 140.269 73.2406 139.506C69.608 138.746 66.0053 137.838 62.428 136.831C61.5326 136.582 60.6406 136.321 59.7536 136.044L57.1003 135.188C56.659 135.043 56.2213 134.887 55.7846 134.727C55.347 134.572 54.9106 134.411 54.4763 134.246C53.6063 133.92 52.7346 133.597 51.873 133.249C51.0133 132.896 50.1556 132.538 49.307 132.159L46.797 131.017C45.9663 130.654 45.1356 130.314 44.276 130.063C43.848 129.928 43.4113 129.827 42.967 129.75C42.522 129.683 42.0706 129.642 41.6086 129.624L41.5833 129.425Z" fill="#F37059"/>
</g>
<defs>
<clipPath id="clip0">
<rect width="200" height="200" fill="white"/>
</clipPath>
</defs>
</svg>
